<?xml version="1.0" encoding="UTF-8"?>
<svg width="576px" height="607px" viewBox="0 0 576 607" version="1.1" xmlns="http://www.w3.org/2000/svg" xmlns:xlink="http://www.w3.org/1999/xlink">
    <!-- Generator: Sketch 59.1 (86144) - https://sketch.com -->
    <title>Culture Illustration</title>
    <desc>Created with Sketch.</desc>
    <g id="Culture-Illustration" stroke="none" stroke-width="1" fill="none" fill-rule="evenodd">
        <g id="Group-16" transform="translate(-18.000000, -6.000000)">
            <g id="Group-17" transform="translate(0.000000, 59.000000)">
                <g id="Group" transform="translate(288.373481, 15.000000)">
                    <ellipse id="Oval" fill="#F3F7FC" cx="181.05838" cy="421.502661" rx="124.0677" ry="26.6862601"></ellipse>
                    <g id="Group-15">
                        <polygon id="Path-80" fill="#DBE3F3" points="140.833647 90.6138564 140.36146 80.8363757 128.893555 79.9152446 129.808875 90.9680599"></polygon>
                        <path d="M140.833647,90.6138564 L140.36146,80.8363757 L135.123011,80.4156102 L135.555617,92.3177206 C136.946148,92.5148007 137.946659,92.5148007 138.55715,92.3177206 C139.167642,92.1206404 139.926474,91.5526857 140.833647,90.6138564 Z" id="Path-80" fill="#BEC9DD"></path>
                        <path d="M179.927573,210.525603 C181.351859,214.34686 185.798696,222.754591 193.268083,235.748796 L198.745139,256.574237 L244.26077,388.914948 L229.993597,394.48807 L198.745139,336.826893 C172.693852,293.712777 158.283144,266.961892 155.513014,256.574237 C154.563233,253.012673 145.3808,258.725459 145.3808,256.574237 C141.090401,262.806497 116.282049,290.705192 116.123802,290.916615 C111.633548,296.915726 105.783223,303.193294 105.325571,306.939498 C104.782582,311.384245 107.909357,321.751859 110.911279,333.919659 C112.91256,342.031526 117.861741,363.645294 125.758821,398.760965 L113.9132,407.976111 L79.4205798,328.605116 C72.0207591,314.494961 68.8342338,305.19442 69.8610041,300.703492 C71.4011595,293.9671 109.00391,228.578433 113.9132,223.10386 C118.822491,217.629286 177.791143,204.793718 179.927573,210.525603 Z" id="Path-14" fill="#DBE3F3"></path>
                        <path d="M155.513014,256.574237 C155.096233,255.011359 153.54207,255.120564 150.638521,255.891978 C149.633441,256.159007 147.755269,256.705905 145.004002,257.532671 C125.856033,279.647685 116.2293,290.775666 116.123802,290.916615 C111.633548,296.915726 105.783223,303.193294 105.325571,306.939498 C104.782582,311.384245 107.909357,321.751859 110.911279,333.919659 C112.91256,342.031526 117.861741,363.645294 125.758821,398.760965 L120.385017,402.941446 C113.237142,379.533113 108.217327,363.548316 105.325571,354.987054 C97.1679946,330.835936 91.7666377,317.170015 92.9600098,306.939498 C94.2770735,295.6486 106.65447,289.999331 113.058624,282.564436 C126.470554,266.993873 138.876454,255.575855 145.3808,252.188921 C154.680388,247.346454 156.669484,260.910862 155.513014,256.574237 Z" id="Path-14" fill="#BEC9DD"></path>
                        <path d="M179.927573,210.525603 C181.351859,214.34686 185.798696,222.754591 193.268083,235.748796 L198.745139,256.574237 L244.26077,388.914948 L240.722168,390.297216 C224.084597,351.906497 212.04323,324.650651 204.598065,308.52968 C192.470885,282.270768 186.28168,262.91526 179.927573,244.608906 C177.419809,237.38397 172.422404,225.769735 164.93536,209.7662 C173.178767,208.756137 179.267302,208.754146 179.927573,210.525603 Z" id="Path-14" fill="#BEC9DD"></path>
                        <path d="M235.553578,391.122295 C234.893167,399.213114 235.024721,404.261312 235.94824,406.266889 C237.333519,409.275254 246.360995,418.840843 250.291004,423.511614 C252.911011,426.625461 256.089002,427.920918 259.824979,427.397988 C262.246841,426.071688 263.897231,424.631259 264.77615,423.0767 C265.647931,421.534764 267.051767,419.51099 264.87134,415.109568 C263.75435,412.854807 255.378288,407.727259 254.460286,403.458933 C254.335447,402.878484 250.922045,399.777701 250.294858,394.334142 C250.230465,393.775254 250.31141,393.050938 250.537693,392.161196 C250.761362,391.281733 245.766657,390.935433 235.553578,391.122295 Z" id="Path-15" fill="#DBE3F3" transform="translate(250.585853, 409.291976) rotate(-17.000000) translate(-250.585853, -409.291976) "></path>
                        <path d="M125.758821,398.760965 C127.664929,401.161203 136.66666,408.284874 133.00304,411.031252 C132.120151,411.693096 131.645751,417.214658 128.296964,418.516162 C122.413964,420.802585 111.76966,426.704919 104.187329,427.287041 C98.1757497,427.748572 96.5087749,429.13314 96.5087749,423.084292 C96.5087749,419.051727 102.70327,414.015667 115.092259,407.976111" id="Path-77" fill="#DBE3F3"></path>
                        <polygon id="Fill-151" fill="#1255CC" points="229.993597 394.48807 231.375875 398.760965 245.367792 393.070639 245.367792 388.914948"></polygon>
                        <polyline id="Fill-151" fill="#1255CC" transform="translate(120.331127, 403.421150) rotate(-56.000000) translate(-120.331127, -403.421150) " points="113.905987 398.982738 112.666103 401.309499 126.687158 407.859562 127.996151 405.279979"></polyline>
                        <g id="Group-14" transform="translate(217.250387, 120.055882) scale(-1, 1) translate(-217.250387, -120.055882) translate(174.750387, 87.055882)">
                            <path d="M57.9167327,39.9325272 C58.8520419,39.9325272 69.5390473,61.6251187 75.0666192,61.6251187 C78.7516672,61.6251187 81.9485941,56.6706086 84.6573999,46.7615883 L71.7897649,27.7159135 C61.9175373,35.8603227 57.2931932,39.9325272 57.9167327,39.9325272 Z" id="Path-79" fill="#DBE3F3" transform="translate(71.259284, 44.670516) scale(-1, 1) translate(-71.259284, -44.670516) "></path>
                            <path d="M56.0123755,33 C56.7326084,33 63.8039664,44.1892208 69.5420192,49.335191 C69.8613905,49.6216078 66.66879,55.6633737 66.9785754,55.9093769 C68.3308607,56.9832378 73.0870338,51.8696737 74.1212008,51.8696737 C79.6487727,51.8696737 71.5780341,44.6230005 68.1153431,38.4134271 C64.652652,32.2038537 61.9090301,29.0132052 61.6403179,29.2451394 C58.3745389,32.0639389 55.6455443,33 56.0123755,33 Z" id="Path-79" fill="#BEC9DD" transform="translate(65.991184, 42.645464) scale(-1, 1) translate(-65.991184, -42.645464) "></path>
                            <path d="M67.5225407,61.6251187 C65.2487803,63.1613205 62.0504528,64.8178221 59.9514576,65.1634386 C53.7247537,66.1887159 50.2681001,64.0342082 44.104694,55.903762 C38.6106515,48.6563055 29.9428486,36.3154681 18.1012853,18.8812498 L25.3948804,19.1490692 C44.7825581,36.4649526 55.9585816,46.1361198 58.9229509,48.1625709 C61.8873202,50.1890221 64.7538502,54.676538 67.5225407,61.6251187 Z" id="Path-6" fill="#DBE3F3"></path>
                            <path d="M13.7707685,18.8773356 C10.6653179,17.9371567 7.84434474,16.0191743 5.63637892,13.979792 C1.67347422,10.3194646 0.574286867,6.20511166 0.577799008,4.47497609 C0.581415399,2.70188711 1.44391638,1.31495869 3.40609206,0.724273258 C4.21094255,0.481984322 4.96290942,0.297286429 5.63637892,0.225302868 C8.20688857,-0.0494451904 8.61693708,1.71415083 10.6089152,3.58107925 C12.4455816,5.3024459 15.1761862,7.30967691 16.7812035,9.77928278 C17.851215,11.4256867 20.9907094,12.7021537 26.1996866,13.6086839 C27.6651146,12.9263073 29.0528932,12.0944311 30.3630224,11.1130555 C31.7039036,10.1086445 33.5700412,9.16299518 34.457942,9.77928278 C35.3458429,10.3955704 35.3458429,10.5222304 34.457942,12.5008022 C34.0780524,13.347337 32.8661852,14.4214498 31.8715613,15.2755822 C29.8358175,17.0237755 27.4561628,18.7400276 26.1996866,19.3202711 C24.329321,20.1840101 20.9573936,19.3202711 20.3964017,19.3202711 C19.8354098,19.3202711 16.8762191,19.8175145 13.7707685,18.8773356 Z" id="Path-7" fill="#DBE3F3"></path>
                            <path d="M18.8224083,10.1176534 C22.1527966,12.1286334 24.0365311,12.5265935 25.1820399,12.5265935 C26.3275488,12.5265935 28.4323656,11.7708645 30.5036901,10.3955704 C32.5750146,9.02027626 32.3580377,9.6375899 33.4077137,9.62626759 C33.8491443,9.6215061 32.9768445,11.4005047 29.1372866,13.0996499 C26.5214676,14.2572457 24.0776105,14.7710354 20.0694954,13.9788584 C16.0613804,13.1866815 10.6374195,7.31302904 7.81212134,4.18452397 C7.22305454,3.53223939 5.32189144,1.74409355 4.79050729,0.558999646 C4.62260586,0.184545568 5.83268409,-0.14794859 7.42863664,0.196905214 C9.02458919,0.541759018 9.80207829,2.07801339 11.7334714,3.95316962 C14.2595565,6.40570191 15.49202,8.10667351 18.8224083,10.1176534 Z" id="Path-7" fill="#BEC9DD"></path>
                        </g>
                        <path d="M168.307727,117.388695 C171.743244,143.321432 173.995376,157.635833 175.064123,160.331897 C176.667243,164.375993 192.544992,202.686608 185.507805,205.884928 C178.470618,209.083248 172.690058,213.145454 156.967054,212.503831 C141.244049,211.862208 112.932862,237.929045 107.967002,226.340363 C103.001142,214.751681 107.188909,183.942709 109.691877,176.221908 C112.194845,168.501107 108.715108,122.2715 107.967002,120.209842 C107.218896,118.148184 98.8073526,128.677281 95.8767198,128.677281 C92.9460871,128.677281 76.4763029,115.313959 76.4763029,114.012573 C76.4763029,113.309575 81.7665637,104.948033 90.2466512,98.4466568 C97.4648674,92.9127121 107.629757,89.0851304 111.985979,88.6249246 C116.965357,88.0988865 121.997285,88.0872835 126.226844,88.6249246 C127.528444,88.7903778 128.225716,88.9080469 129.458585,89.1066975 C130.275787,89.2383721 130.831174,92.28868 134.92218,92.28868 C139.013186,92.28868 163.324371,86.2848098 172.400013,94.6080818 C181.475656,102.931354 189.408337,113.309872 189.408337,114.771795 C189.408337,116.233719 176.513506,126.988409 175.064123,126.988409 C174.309444,126.988409 172.500848,125.180327 170.177362,121.27635 C169.743097,120.546687 169.119885,119.250802 168.307727,117.388695 Z" id="Path-78" fill="#1255CC"></path>
                        <path d="M107.967002,120.209842 C107.218896,118.148184 98.8073526,128.677281 95.8767198,128.677281 C95.2948562,128.677281 93.354286,127.718628 91.4163701,126.474893 C90.3436082,125.786405 89.2800399,124.991199 88.4080769,124.291142 C93.0020629,118.311659 97.659959,114.72056 102.381765,113.517846 C103.958104,113.116329 106.090281,110.523247 106.979275,111.806193 C107.620785,112.731983 106.853826,114.632144 106.979275,116.301021 C107.14756,118.539747 108.064816,120.479401 107.967002,120.209842 Z" id="Path-78" fill="#134AAD"></path>
                        <path d="M164.040871,96.2685414 C159.931153,95.3202096 146.964725,92.7695693 139.38683,92.5977205 C132.990075,92.4526572 135.724569,92.317451 136.851449,92.1622781 C137.978329,92.0071052 139.662293,91.6221658 140.24797,90.9680599 C140.833647,90.3139539 140.465962,89.8278737 141.067456,89.5061451 C142.414308,88.7857371 148.274172,88.4007752 150.668015,88.2915616 C156.607324,88.020594 166.299417,89.564489 170.50386,91.3023081 C175.475506,93.3572343 181.945097,99.9078016 185.797633,105.429654 C189.065615,110.113664 190.133119,113.96896 190.133119,114.639913 C190.133119,115.215968 187.406199,117.366762 184.891089,119.602006 C184.164839,120.247443 181.357839,112.925489 179.345508,108.93575 C176.488051,103.270429 171.61974,98.0173919 164.040871,96.2685414 Z" id="Path-78" fill="#134AAD"></path>
                        <path d="M168.307727,117.388695 C171.743244,143.321432 173.995376,157.635833 175.064123,160.331897 C176.667243,164.375993 192.544992,202.686608 185.507805,205.884928 C179.782481,208.487021 174.888937,211.660934 164.796233,212.409282 C163.98598,212.468533 170.161497,206.865939 170.8495,189.366204 C171.119287,182.504029 165.228704,158.591176 164.427574,140.300517 C164.218108,135.518186 163.446418,123.371509 164.93536,117.388695 C165.296279,115.938463 166.420401,115.938463 168.307727,117.388695 Z" id="Path-78" fill="#134AAD"></path>
                        <path d="M151.575717,44.737034 C155.400045,55.149158 156.068758,63.3370184 153.581855,69.3006151 C149.851501,78.2460102 147.47036,81.3456829 137.720212,81.8774655 C127.970065,82.4092481 126.079206,80.0663912 124.216426,79.1740373 C122.353646,78.2816835 111.985979,67.642264 111.985979,67.642264 C111.985979,67.642264 111.528774,65.8841511 110.614364,62.3679253 L109.691877,52.4482786 L115.764746,26.1173333 L141.550554,26.1173333 C147.067073,30.560105 150.621992,34.261125 152.215313,37.2203933 C153.808633,40.1796616 153.595435,42.6852085 151.575717,44.737034 Z" id="Path-82" fill="#DBE3F3"></path>
                        <path d="M151.575717,44.737034 C155.400045,55.149158 156.068758,63.3370184 153.581855,69.3006151 C149.851501,78.2460102 147.47036,81.3456829 137.720212,81.8774655 C127.970065,82.4092481 126.079206,80.0663912 124.216426,79.1740373 C122.353646,78.2816835 111.985979,67.642264 111.985979,67.642264 C111.985979,67.642264 111.528774,65.8841511 110.614364,62.3679253 L109.691877,52.4482786 L115.764746,26.1173333 L141.550554,26.1173333 C147.067073,30.560105 150.621992,34.261125 152.215313,37.2203933 C153.808633,40.1796616 153.595435,42.6852085 151.575717,44.737034 Z" id="Path-82" fill="#DBE3F3"></path>
                        <path d="M151.575717,44.737034 C155.400045,55.149158 156.068758,63.3370184 153.581855,69.3006151 C151.963504,73.1814222 150.599091,75.9619999 148.776752,77.9099902 C148.407761,78.3044241 147.785943,78.9585347 146.733448,79.6236767 C146.3746,79.8504568 145.717299,80.1845888 144.761546,80.6260725 C149.493633,69.2428723 150.467598,58.9943027 147.683439,49.8803638 C143.388506,35.8209067 132.748941,27.8998965 115.764746,26.1173333 L141.550554,26.1173333 C147.067073,30.560105 150.621992,34.261125 152.215313,37.2203933 C153.808633,40.1796616 153.595435,42.6852085 151.575717,44.737034 Z" id="Path-82" fill="#BEC9DD"></path>
                        <path d="M137.720212,81.8774655 C133.606055,82.1018557 130.891236,81.8144194 128.987402,81.3401013 L129.124803,82.1234931 C129.704288,82.7542487 134.398348,83.4774727 135.28488,83.4010325 C139.315353,83.0535099 142.793288,81.600775 137.720212,81.8774655 Z" id="Path-82" fill="#BEC9DD"></path>
                        <path d="M111.551767,62.5430098 C108.73192,63.3837036 105.533968,60.8680384 104.256509,59.5280973 C102.979049,58.1881563 100.767805,50.9126155 101.873427,49.1394115 C102.610509,47.9572756 104.6417,47.644526 107.967002,48.2011628 L110.466084,52.8738724 C113.06977,58.7595015 113.431665,61.9825473 111.551767,62.5430098 Z" id="Path-83" fill="#DBE3F3"></path>
                        <path d="M110.466084,52.8738724 C110.466084,52.8738724 111.66311,64.596679 113.377685,65.8969857 C115.092259,67.1972923 127.829655,71.9569309 127.829655,71.2208854 C127.829655,70.4848398 118.966888,61.7089686 118.250488,60.5070473 C117.772888,59.7057664 117.321807,56.3106368 116.897246,50.3216586 C115.995084,43.6296116 115.995084,39.737337 116.897246,38.6448348 C118.250488,37.0060815 123.118077,28.5027399 135.730089,28.5027399 C148.342102,28.5027399 151.575717,42.9883351 151.575717,44.737034 C158.557297,39.4088313 162.14533,35.6763672 162.339816,33.5396415 C162.631544,30.334553 161.415369,30.6145558 161.819926,29.3555806 C162.418208,27.4937391 164.427574,25.7928042 164.427574,24.3274497 C164.427574,22.6899659 163.828897,21.0205466 162.631544,19.3191918 C163.898091,14.8891579 163.387438,11.7707688 161.099586,9.9640245 C158.926375,8.24781363 156.211043,7.38551537 152.95359,7.37712972 C152.839032,7.37683481 152.44547,7.65098152 151.772905,8.19956984 C150.39283,3.72323506 148.197296,1.21011096 145.186303,0.66019754 C140.669815,-0.16467259 135.679459,0.960863784 133.595363,4.46791497 C132.725023,2.49020731 130.803121,1.76052364 127.829655,2.27886394 C124.85619,2.79720425 123.377654,4.00591569 123.394047,5.90499827 C122.465236,4.07432361 120.511235,3.46506506 117.532043,4.07722261 C114.552852,4.68938017 112.833741,5.79128308 112.374713,7.38293135 C109.507513,7.16979369 107.377771,7.61999415 105.985487,8.73353274 C104.593203,9.84707134 103.722687,11.7892688 103.37394,14.5601252 C102.18228,14.150216 101.191155,14.422286 100.400564,15.3763353 C99.2146782,16.8074092 99.4090293,17.8457827 99.4363487,17.1512655 C99.4828942,15.9679787 98.8946329,15.3763353 97.6715648,15.3763353 C94.760163,15.3763353 90.5310798,20.9877826 90.5310798,24.3274497 C90.5310798,27.6671167 91.99963,31.2992086 92.2503711,31.8837511 C92.4175318,32.2734461 92.9248667,32.2734461 93.7723756,31.8837511 C90.2466512,33.4566334 89.3652201,35.9149159 91.1280823,39.2585988 C92.8909445,42.6022817 95.715385,44.935625 99.6014037,46.2586286 C100.629095,46.7882438 101.356025,47.0530515 101.782193,47.0530515 C102.208361,47.0530515 102.506655,46.7882438 102.677076,46.2586286 C101.46088,48.6249582 102.091801,50.3190812 104.569839,51.3409977 C108.286896,52.8738724 110.466084,52.8738724 110.466084,52.8738724 Z" id="Path-81" fill="#143B82"></path>
                        <path d="M146.772327,4.46791497 C148.468362,5.59174992 149.69055,7.70809097 150.438891,10.8169381 C151.633424,9.84024541 153.171053,9.55594088 155.051779,9.9640245 C158.156032,10.6375915 159.700994,12.043207 160.409712,14.3768641 C160.882191,15.9326356 160.547808,17.8435295 159.406562,20.109546 C160.939176,21.9643826 161.612089,23.3703505 161.425303,24.3274497 C161.078289,26.1055612 159.996391,27.9198853 159.406562,29.7389588 C159.034122,30.8875913 160.338788,33.0286388 159.97692,34.0860217 C159.802721,34.5950333 157.068049,37.9855742 151.772905,44.2576447 L151.575717,44.737034 C153.165264,43.5024103 154.225518,42.6704591 154.756478,42.2411804 C155.977153,41.2542728 156.567071,40.7020933 156.628066,40.6488907 C160.295691,37.4497972 162.199608,35.0800475 162.339816,33.5396415 C162.631544,30.334553 161.415369,30.6145558 161.819926,29.3555806 C162.418208,27.4937391 164.427574,25.7928042 164.427574,24.3274497 C164.427574,22.6899659 163.828897,21.0205466 162.631544,19.3191918 C163.898091,14.8891579 163.387438,11.7707688 161.099586,9.9640245 C158.926375,8.24781363 156.211043,7.38551537 152.95359,7.37712972 C152.839032,7.37683481 152.44547,7.65098152 151.772905,8.19956984 C150.39283,3.72323506 148.197296,1.21011096 145.186303,0.66019754 C140.669815,-0.16467259 135.679459,0.960863784 133.595363,4.46791497 C132.725023,2.49020731 130.803121,1.76052364 127.829655,2.27886394 C129.522694,2.42483159 130.747786,2.73657777 131.504931,3.2141025 C132.640648,3.93038959 132.773102,5.75468412 133.315951,5.68174153 C135.672704,3.94483345 137.40724,2.92931094 138.519559,2.63517399 C141.974101,1.72166949 144.228275,2.78216254 146.772327,4.46791497 Z" id="Path-81" fill="#0E2E68"></path>
                        <polyline id="Path" stroke="#FFFFFF" stroke-width="0.889541991" points="6.81570977 83.3338518 0.799349952 90.7834287 6.81570977 91.3023081"></polyline>
                        <path d="M233.949971,106.556864 C235.7878,106.691495 237.126919,106.691495 237.96733,106.556864 C238.807741,106.422233 238.568025,106.95651 237.248183,108.159693 C236.097627,108.296005 235.164114,108.340499 234.447642,108.293176 C233.731171,108.245853 233.102333,108.098166 232.561128,107.850114 L233.949971,106.556864 Z" id="Path-8" fill="#BEC9DD"></path>
                    </g>
                </g>
                <g id="Group-13" transform="translate(332.000000, 147.000000) scale(-1, 1) translate(-332.000000, -147.000000) translate(280.000000, 131.000000)">
                    <path d="M3.05556547,12.2166137 C3.99087468,12.2166137 19.8034117,31.6788253 25.3309836,31.6788253 C29.0160315,31.6788253 44.2658245,30.5553629 71.0803624,28.3084381 C82.7750179,29.4595942 90.739548,30.1444721 94.9739526,30.3630718 C101.325559,30.6909713 104.635274,22.5521841 103.337857,19.0456748 C102.472912,16.708002 95.4223951,15.8973721 82.1863052,16.6137852 C84.3629949,15.3158819 85.9476645,13.850158 86.940314,12.2166137 C88.4292884,9.76629726 89.6055942,7.10149945 89.0680931,7.10149945 C88.5305919,7.10149945 81.7962567,9.65093298 80.0331386,10.3189275 C78.2700206,10.986922 73.969596,12.4184788 72.0895979,13.6620416 C70.8362657,14.4910835 69.2225405,15.8159005 67.2484221,17.6364928 L32.5895074,15.185888 L16.9285977,0 C7.05637008,8.14440916 2.43202599,12.2166137 3.05556547,12.2166137 Z" id="Path-79" fill="#DBE3F3"></path>
                    <path d="M0.191689212,12.6132502 C13.2661709,25.3236336 21.6459357,31.6788253 25.3309836,31.6788253 C29.0160315,31.6788253 44.2658245,30.5553629 71.0803624,28.3084381 C82.7750179,29.4595942 90.739548,30.1444721 94.9739526,30.3630718 C97.9858586,30.5185604 90.7450761,27.6672856 66.694563,25.5293359 C60.1866753,24.9508228 47.1027959,24.514151 27.4429245,24.2193204 L6.50584983,8.78840295 C6.35881111,8.90352654 6.2617112,8.98179186 6.21455008,9.02319892 C5.44042902,9.70287057 4.51948941,10.3018846 3.64584056,10.8284944 C2.40391298,11.5770918 1.2525292,12.1720104 0.191689212,12.6132502 Z" id="Path-79" fill="#BEC9DD"></path>
                </g>
                <g id="Group-6" transform="translate(0.000000, 0.927040)">
                    <ellipse id="Oval" fill="#F3F7FC" cx="131.98312" cy="433.757421" rx="77.3360402" ry="22.3135401"></ellipse>
                    <g id="Group-3" transform="translate(96.615579, 223.692874) scale(-1, 1) rotate(-3.000000) translate(-96.615579, -223.692874) translate(11.615579, 4.692874)">
                        <path d="M62.7324331,70.2017308 L63.9555282,55.8311189 L54.7064998,38.143835 L45.6229744,41.3008265 L44.1141695,70.3041675 C46.2060227,72.7832687 48.0171958,74.4946887 49.5476888,75.4384275 C51.0781818,76.3821663 53.9113425,77.0244877 58.0471708,77.3653916 L62.7324331,70.2017308 Z" id="Path-74" fill="#DBE3F3"></path>
                        <path d="M54.7064998,38.143835 C53.3368758,44.5281199 53.3368758,48.4160027 54.7064998,49.8074835 C56.760936,51.8947046 69.0110195,62.9539613 71.8307869,62.9539613 C72.4959123,62.9539613 77.1302738,65.8567476 83.0112297,59.0993216 C88.8921856,52.3418955 91.554128,37.8051666 92.6836722,32.0269249 C93.6691575,26.985624 83.7515547,19.7433024 62.9308638,10.29996 L47.4014064,22.0887347 L45.5419818,43.4771419" id="Path-75" fill="#DBE3F3"></path>
                        <path d="M54.7064998,38.143835 C53.3368758,44.5281199 53.3368758,48.4160027 54.7064998,49.8074835 C55.4504789,50.5633351 58.4618355,53.2085449 63.7405696,57.7431128 C63.874083,57.8578043 63.8234625,58.7822623 63.588708,60.5164869 C63.5828087,60.5600674 63.351156,63.5759955 62.89375,69.5642713 C62.2282767,71.2247398 61.6793064,72.3038249 61.2468391,72.8015267 C59.190238,75.1683508 57.5183274,75.4494668 57.4114319,74.7141556 C56.8934873,71.1513256 61.2238052,58.808055 60.7006961,58.1190193 C57.3743533,53.7375832 54.0941811,51.6815188 53.4470728,50.9864468 C51.87101,49.2935663 51.6819616,46.00994 51.9005401,44.0868159 C52.0305105,42.9432942 52.6234244,41.1650441 53.6792818,38.7520654 L54.7064998,38.143835 Z" id="Path-75" fill="#BEC9DD"></path>
                        <path d="M56.9950752,23.8361487 L66.8424605,25.913707 L69.9754482,26.5613405 L80.1366435,30.7382127 L83.8181534,32.374033 L88.7235089,34.9849419 L92.6942396,36.6993515 L90.8819793,38.8780201 L87.112136,37.220369 C87.112136,37.220369 81.9916458,33.5339518 81.2621825,35.4492005 L77.6462104,34.1684871 C77.6462104,34.1684871 78.4355124,32.0538546 75.5005626,31.017641 L70.1122226,28.3950893 C70.1122226,28.3950893 66.7341808,27.5145988 65.5530772,28.6774283 C61.6387764,27.3099487 58.7030508,26.2843389 56.7459004,25.600599 L56.9950752,23.8361487 Z" id="Fill-135" fill="#143B82" transform="translate(74.720070, 31.357084) rotate(-14.000000) translate(-74.720070, -31.357084) "></path>
                        <path d="M65.9137669,29.0554667 C65.6359637,28.9862026 63.446143,34.9138488 65.1450028,36.6116 C66.8438625,38.3093511 72.996583,40.4006297 75.237802,39.7804676 C77.479021,39.1603055 78.1459636,36.9537126 79.0375639,34.0337668" id="Stroke-137" stroke="#143B82" stroke-width="0.84272398" transform="translate(71.771307, 34.473443) rotate(-10.000000) translate(-71.771307, -34.473443) "></path>
                        <path d="M82.3520021,31.5035921 C80.276203,35.7362978 79.8561467,38.2990391 81.0918331,39.1918163 C82.9453628,40.530982 87.9458015,42.8240564 89.5890141,42.318288 C91.2322268,41.8125196 92.7839784,38.1351409 93.1801845,33.6800165" id="Stroke-139" stroke="#143B82" stroke-width="0.84272398" transform="translate(86.790185, 36.946741) rotate(-12.000000) translate(-86.790185, -36.946741) "></path>
                        <path d="M10.4476094,188.657434 C6.78120341,194.947311 1.46738953,204.589581 0.176474692,219.530904 C-0.3183008,225.257541 0.227311362,235.860018 1.81331118,251.338333 C3.63589178,263.464345 5.6375269,274.525511 7.81821655,284.521828 C9.46884535,292.088338 13.7488533,299.667407 15.7006711,308.251791 C17.4041168,315.743797 16.0442527,326.237214 17.6757897,333.848258 C24.7490941,366.844891 33.7815449,395.034744 35.0804272,396.642889 C36.8625494,398.849334 41.7462066,398.032906 49.731399,394.193604 L42.2757052,303.838488 L48.2480612,222.813601 C50.7606185,205.461019 51.2550644,195.612781 49.731399,193.268884 C34.357712,169.619121 15.4745574,180.033489 10.4476094,188.657434 Z" id="Path-61" fill="#DBE3F3"></path>
                        <path d="M10.4476094,188.657434 C6.78120341,194.947311 1.46738953,204.589581 0.176474692,219.530904 C-0.3183008,225.257541 0.227311362,235.860018 1.81331118,251.338333 C3.63589178,263.464345 5.6375269,274.525511 7.81821655,284.521828 C9.46884535,292.088338 13.7488533,299.667407 15.7006711,308.251791 C17.4041168,315.743797 16.0442527,326.237214 17.6757897,333.848258 C24.7490941,366.844891 33.7815449,395.034744 35.0804272,396.642889 C36.3090265,398.164018 35.3456939,389.540494 39.5224616,388.188226 C40.6604922,387.819777 37.9301906,374.903745 28.5922472,331.91031 C27.9550735,328.976657 27.968186,323.844148 28.6315845,316.512782 C28.8841752,315.333915 29.3734656,313.154991 29.6402583,311.913067 C29.7507453,311.398748 28.9928903,310.310149 29.0279204,308.950242 C29.0769594,307.046495 29.9071113,304.764919 30.0477843,304.137007 C30.4493761,302.344453 27.9474794,298.626 26.8269159,295.402898 C23.4329521,285.640765 18.761945,260.160273 19.1773774,241.912282 C19.4153197,231.460596 19.7258234,212.994066 22.4117534,203.166018 C24.4152894,195.834908 29.1531269,195.946128 28.5686624,193.595566 C26.1628893,183.920184 12.5840589,184.992264 10.4476094,188.657434 Z" id="Path-61" fill="#BEC9DD"></path>
                        <path d="M48.2480612,222.813601 C46.9114377,234.329155 46.4445869,241.059077 46.8475088,243.003366 C49.1821314,254.269025 49.5088457,248.160882 52.5327041,263.805744 C54.5486097,274.235652 56.5432679,285.319464 58.5166785,297.057182 L19.69979,389.245888 L38.9472834,393.324215 C67.2887169,340.312367 81.9053831,312.618425 82.7972818,310.242387 C84.1351299,306.678332 89.4467055,294.124636 88.1814126,291.525786 C86.9161198,288.926936 81.4115486,240.385222 81.4115486,237.98205 C81.4115486,236.379936 80.5966374,222.056037 78.9668152,195.010353 L50.5941696,196.834316 L48.2480612,222.813601 Z" id="Path-62" fill="#DBE3F3"></path>
                        <path d="M48.2480612,222.813601 C46.9114377,234.329155 46.4445869,241.059077 46.8475088,243.003366 C49.1821314,254.269025 49.5088457,248.160882 52.5327041,263.805744 C54.5486097,274.235652 56.5432679,285.319464 58.5166785,297.057182 L19.69979,389.245888 L28.1657381,392.110489 C29.7958713,384.642137 31.2274981,379.481054 32.4606185,376.627241 C40.0112087,359.152898 48.1507818,345.413892 53.1063952,334.962218 C60.5639289,319.233849 62.3122935,311.513938 62.8003907,310.213637 C63.506444,308.332696 64.2174377,305.16298 67.0710565,302.636109 C69.9246753,300.109238 70.5896714,296.230745 69.9921406,295.003445 C69.7890856,294.58638 70.4895309,292.336803 70.2586871,289.917436 C69.9185609,286.352732 69.0339302,283.079831 63.5210947,272.947017 C61.7289121,269.652913 61.4210049,259.400514 59.2346778,252.533103 C57.5923731,247.374506 57.7545203,239.792363 52.2859743,226.759281 C51.5981782,225.120069 50.3754696,222.439914 48.6178487,218.718814 L48.2480612,222.813601 Z" id="Path-62" fill="#BEC9DD"></path>
                        <path d="M104.924124,97.8415399 L99.4352927,134.961824 L104.558022,162.365529 C97.6395448,158.269539 92.6592663,155.178591 89.617187,153.092683 C86.5751076,151.006776 85.250793,149.774762 85.6442431,149.39664 L83.0112297,122.987397 C87.9629115,113.249303 92.101805,106.33371 95.4279102,102.24062 C98.7540154,98.147529 101.212448,96.9444806 102.803207,98.6314747 L104.924124,97.8415399 Z" id="Path-71" fill="#DBE3F3"></path>
                        <path d="M104.558022,162.365529 C97.6395448,158.269539 92.6592663,155.178591 89.617187,153.092683 C86.5751076,151.006776 85.250793,149.774762 85.6442431,149.39664 L85.2232702,145.174263 L104.558022,162.365529 Z" id="Path-71" fill="#BEC9DD"></path>
                        <path d="M16.0435256,208.214288 C22.2415533,208.875011 21.417077,205.442313 33.2802898,204.800571 C35.9136496,204.658119 49.8929701,203.015731 53.1836026,203.002086 C61.0503381,202.969465 69.0863073,201.631942 72.2254819,200.754637 C70.5167275,200.025765 63.562873,199.661329 51.3639185,199.661329 C33.0654868,199.661329 31.2838199,201.316784 21.0261259,201.316784 C18.6051036,201.316784 13.7221196,199.118767 11.7629974,199.083374 C10.6753182,199.063725 10.8453957,200.886204 11.9877234,201.316784 C14.599647,202.301303 8.46967864,207.406899 16.0435256,208.214288 Z" id="Path-63" fill="#BEC9DD"></path>
                        <path d="M98.4322147,106.314019 C100.00702,110.798325 101.341533,112.141057 99.4352927,118.490932 C96.6526759,127.760102 90.2715699,142.920087 88.3746636,146.360134 C87.1100594,148.653499 84.2279791,158.564343 79.7284227,176.092667 C78.6166472,183.661855 81.5466609,196.702367 76.4826296,199.479363 C71.4185983,202.25636 70.546047,199.661329 54.0372268,199.661329 C37.5284066,199.661329 35.9209891,201.316784 26.6665116,201.316784 C17.412034,201.316784 6.66974338,200.407258 8.58347585,192.671631 C9.8592975,187.514546 14.4100645,178.618353 22.235777,165.983052 C24.617307,161.189169 25.5603458,153.799952 25.0648934,143.815402 C24.3217148,128.838576 23.0461008,125.748989 19.69979,114.87685 C19.2923432,113.553058 15.3251026,117.748231 14.8348175,116.441152 C11.5788502,107.760884 12.1502727,95.6320315 12.901346,87.1716789 C13.1764051,84.0733165 18.2296477,78.6270836 20.2281742,77.8830122 C37.196628,71.5654874 44.1141695,70.3040358 44.1141695,70.3040358 C44.1141695,70.3040358 49.5259853,75.5776402 54.3227982,75.5776402 C57.5206735,75.5776402 60.2670376,74.0500155 62.5618906,70.9947661 C72.5969905,72.4634465 80.0779001,73.9374695 85.0046194,75.4168349 C92.3946984,77.635883 95.8891567,80.604366 99.5502359,84.980903 C103.211315,89.3574401 105.487265,98.0923714 104.768503,100.185138 C104.579277,100.736093 99.5754653,102.241353 96.9940234,102.322696 C96.2735653,102.345398 97.7082127,104.252401 98.4322147,106.314019 Z" id="Path-63" fill="#14C17B"></path>
                        <path d="M26.6665116,201.316784 C17.412034,201.316784 6.66974338,200.407258 8.58347585,192.671631 C9.8592975,187.514546 14.4100645,178.618353 22.235777,165.983052 C23.0520639,160.903838 23.2124812,153.371956 22.7170288,143.387406 C21.9738503,128.41058 23.0461008,125.748989 19.69979,114.87685 C19.2923432,113.553058 14.6745416,117.580731 14.1842565,116.273652 C10.9282892,107.593384 12.3088848,94.5561435 12.7634452,85.8826146 C13.0177674,81.0298572 18.2946164,78.2091857 21.6869729,76.9591425 C38.6576749,70.7056398 44.1141695,70.3032113 44.1141695,70.3032113 C44.1141695,70.3032113 46.4115362,72.5428062 49.3393329,74.102941 C49.8973928,74.4003144 21.4441048,77.3921334 21.0908857,88.3331639 C20.796794,97.4427119 18.7352508,109.46514 23.1027896,121.501564 C25.6548472,128.534734 38.3708056,144.842818 33.8124529,162.110912 C29.2541002,179.379005 28.1939815,201.316784 26.6665116,201.316784 Z" id="Path-63" fill="#109E65"></path>
                        <polygon id="Path-2" fill="#109E65" transform="translate(95.049511, 97.109258) rotate(-55.000000) translate(-95.049511, -97.109258) " points="93.2812605 102.813449 98.7852572 91.4050682 96.0463478 92.8885354 91.3137655 101.858468"></polygon>
                        <g id="Group-5" transform="translate(85.821184, 94.824350)">
                            <polygon id="Path-72" fill="#143B82" points="36.0064741 10.2214371 0.612066909 51.9987807 37.0449224 84.7107858 76.309503 47.6309307"></polygon>
                            <polygon id="Path-76" fill="#DBE3F3" points="80.925639 0.324813893 54.5464016 25.6591726 74.8647766 41.3506676"></polygon>
                            <path d="M76.309503,47.6309307 C76.309503,46.9232186 78.8046069,31.4402438 83.7948148,1.1820063 L80.925639,0.324813893 L74.6889776,40.9905456 L38.2830343,8.22855435 L36.0064741,10.2214371" id="Path-73" fill="#BEC9DD"></path>
                        </g>
                        <path d="M33.2844366,122.987397 C33.2844366,122.987397 38.2143971,125.37937 43.8237106,127.988122 C47.5632529,129.727291 54.8445727,129.236871 65.66767,126.516863 C56.1822766,132.066171 50.3883201,135.863634 48.2858006,137.909252 C46.0745259,140.060681 44.887104,142.434423 44.7235347,145.030478 C42.2241168,148.396583 40.9051211,150.683816 40.7665476,151.892177 C40.1512606,157.25748 40.862434,158.533821 34.1434829,155.794484 C26.091101,152.511503 23.786148,139.715899 23.786148,139.224219 C23.786148,137.909252 33.2844366,122.987397 33.2844366,122.987397 Z" id="Path-70" fill="#109E65"></path>
                        <path d="M14.8348175,116.441152 C17.3091846,114.078714 20.103626,112.629765 23.2181416,112.094307 C26.3326571,111.558849 29.541997,111.554367 32.8461611,112.080862 C34.8060888,120.994419 35.7860526,126.708553 35.7860526,129.223262 C35.7860526,131.73797 35.7860526,139.057509 35.7860526,151.181876 C42.7526118,153.011696 49.9253612,154.9358 57.3043008,156.954187 C64.6832405,158.972574 79.0334033,162.005592 100.354789,166.053241 C103.02749,165.958215 105.014813,165.910702 106.316757,165.910702 C106.386726,165.910702 107.088267,165.958215 108.42138,166.053241 C110.667208,163.327244 112.121714,161.317321 112.7849,160.023474 C114.967925,155.764484 115.90193,152.304268 118.775408,151.181876 C125.049737,148.731097 132.665303,152.32073 132.665303,157.735375 C132.665303,163.15002 130.291754,169.654754 124.533581,172.873976 C118.775408,176.093199 118.395015,175.712682 114.807192,176.344841 C112.41531,176.766281 109.091136,176.766281 104.834669,176.344841 C64.3833088,173.225147 39.7459397,171.00119 30.9225621,169.672971 C24.5137516,168.708226 20.7579209,166.727945 19.69979,166.053241 C16.456475,163.985182 14.8348175,147.447818 14.8348175,116.441152 Z" id="Path-68" fill="#DBE3F3"></path>
                        <path d="M14.8348175,116.441152 C15.7746915,115.436199 16.4782126,114.763518 16.9453809,114.423108 C18.1446535,113.54924 19.3396239,113.15325 20.2089448,112.965204 C20.8574989,112.824912 21.7500481,121.634518 21.2241648,132.057476 C20.5096896,146.218308 21.7304045,163.255317 28.1060645,164.999274 C39.174474,168.026855 118.395015,175.712682 114.807192,176.344841 C112.41531,176.766281 109.091136,176.766281 104.834669,176.344841 C64.3833088,173.225147 39.7459397,171.00119 30.9225621,169.672971 C24.5137516,168.708226 20.7579209,166.727945 19.69979,166.053241 C16.456475,163.985182 14.8348175,147.447818 14.8348175,116.441152 Z" id="Path-68" fill="#BEC9DD"></path>
                        <path d="M35.7860526,151.181876 L34.0649273,153.562726 L31.0440097,154.70868 C28.3898134,156.412506 26.4741718,157.161008 25.2970848,156.954187 C24.8951189,156.883559 27.4883587,155.099541 33.0768043,151.602132 L35.7860526,151.181876 Z" id="Path-68" fill="#BEC9DD"></path>
                        <path d="M50.5941696,397.491637 C50.5941696,397.491637 63.8492433,415.687852 65.5273385,415.687852 C67.2054337,415.687852 70.3926546,422.202975 69.3566439,423.623833 C68.6659701,424.571071 65.9352535,426.730183 61.1644941,430.101169 L54.0372268,427.249366 L34.6892357,400.78967 C45.292525,398.590981 50.5941696,397.491637 50.5941696,397.491637 Z" id="Path-65" fill="#DBE3F3"></path>
                        <polyline id="Fill-151-Copy" fill="#14C17B" points="35.8335494 397.85078 36.9350015 400.78967 50.5941696 397.659796 49.731399 394.193604"></polyline>
                        <path d="M17.5297391,393.839881 C14.0087396,396.387397 11.9377742,399.060447 11.316843,401.859033 C10.3854462,406.056912 9.97521041,406.423637 13.9260364,410.082053 C17.8768625,413.740469 23.9577094,412.513578 25.0181631,414.452566 C25.970566,416.193987 30.5949673,419.708634 33.6853934,423.797342 C38.0686539,429.596501 44.3705422,436.317539 46.2885089,437.013287 C49.5587416,438.199575 56.3880316,437.200386 59.0317319,435.671219 C61.6754322,434.142051 62.0686102,425.037125 59.0317319,425.037125 C57.0071464,425.037125 55.3423114,425.264247 54.0372268,425.718491 L36.2555203,399.125061 L17.5297391,393.839881 Z" id="Path-64" fill="#BEC9DD"></path>
                        <polyline id="Fill-151" fill="#14C17B" points="19.69979 389.245888 17.1646991 393.929739 35.9279375 399.163281 38.9472834 393.324215"></polyline>
                        <path d="M89.5710934,124.240122 C85.2464179,124.528795 80.5252326,124.11122 75.4075376,122.987397 C79.7169581,125.164835 82.6982064,126.559342 84.3512825,127.170917 C88.4452416,128.685525 91.196351,128.775143 92.0663925,130.161582 C93.4633976,132.387754 93.7891789,134.284195 93.0437365,135.850902 C94.9455983,131.729727 96.3138388,128.621951 97.1484582,126.527572 C97.9830776,124.433193 98.7453557,121.754313 99.4352927,118.490932 C97.1838354,122.035052 93.895769,123.951449 89.5710934,124.240122 Z" id="Path-67" fill="#109E65"></path>
                        <path d="M108.470391,165.763904 L109.214616,169.878214 C109.532705,172.25995 109.362006,173.174991 108.702516,172.623337 C108.505151,172.458244 108.18721,171.517594 107.748693,169.801389 C107.123464,168.413924 106.81085,167.720192 106.81085,167.720192 C106.81085,167.720192 106.646152,167.117028 106.316757,165.910702 L108.470391,165.763904 Z" id="Path-69" fill="#BEC9DD"></path>
                        <path d="M93.5566524,31.1933075 C93.9565728,26.7399305 102.605293,11.3532559 75.2936682,2.79937443 C75.2936682,2.79937443 63.9508816,-0.955891047 55.8124819,8.46479438 C55.8124819,8.46479438 54.6045315,-1.2625246 48.1293866,0.137901371 C48.1293866,0.137901371 36.6777517,0.0994062494 35.4206868,8.78470211 C35.4206868,8.78470211 32.1074516,5.92809861 29.0530628,11.1753819 C24.8305462,18.432376 27.576974,20.4420868 29.2017336,23.0995776 C32.9596539,29.2415406 27.2384824,35.8786306 27.2384824,35.8786306 C27.2384824,35.8786306 19.7637917,40.6613176 23.5363136,46.0532894 C25.2180887,48.4570088 25.8240367,58.96604 25.256626,66.5640739 C25.1694753,67.731084 24.5253329,70.9951496 23.3241986,76.356271 C25.1022131,75.7215234 26.3665139,75.2730702 27.117101,75.0109114 C29.5688717,74.1545774 30.4157847,74.0252637 32.6038658,73.2475419 C34.7919468,72.4698201 34.305808,72.7685642 37.2381117,71.8381454 C37.5991918,71.7235748 37.9333292,71.6271927 38.2448469,71.5437075 C40.4631401,70.9492158 41.5344392,71.008693 43.0196565,69.8114165 C45.9530408,67.4467306 45.9741562,54.9830737 48.5979652,49.3386489 C53.6381712,38.493644 52.6957045,40.4369839 50.7908597,37.7144496 C50.7908597,37.7144496 46.3798497,32.3729197 47.2214327,27.9619097 C47.2214327,27.9619097 48.3271719,23.6026691 51.5435057,24.0141686 C51.5435057,24.0141686 56.3633604,25.2460125 55.7023062,30.1707332 L57.0124678,32.2733633 C58.4527163,23.3345306 63.8685816,24.7190276 63.8685816,24.7190276 C69.6096644,22.6641845 67.1486315,19.7823601 67.1486315,19.7823601 C67.1486315,19.7823601 69.551258,24.5942503 74.2874854,25.0110595 C79.0250402,25.4252139 89.5898955,22.4323488 92.7504777,31.1933075 L93.5566524,31.1933075 Z" id="Fill-143" fill="#143B82"></path>
                        <path d="M31.0541616,39.263289 C33.0436178,27.4193296 36.2275249,26.8612445 35.4093622,25.644053 C31.2135496,19.4018869 28.2953089,21.6170104 29.2017336,23.0995776 C32.9596539,29.2415406 27.2384824,35.8786306 27.2384824,35.8786306 C27.2384824,35.8786306 19.7637917,40.6613176 23.5363136,46.0532894 C25.2180887,48.4570088 25.8240367,58.96604 25.256626,66.5640739 C25.1694753,67.731084 24.5253329,70.9951496 23.3241986,76.356271 C25.1022131,75.7215234 26.3665139,75.2730702 27.117101,75.0109114 C28.7612239,74.4366659 29.9360139,65.6360712 30.2209406,55.1620922 C30.318607,51.5718529 28.9581555,46.2176319 29.3137446,43.0584974 C29.4677498,41.6902803 30.8561059,40.442387 31.0541616,39.263289 Z" id="Fill-143" fill="#082D63"></path>
                        <path d="M35.4205541,8.7849676 C35.4205541,8.7849676 34.0878264,11.514139 36.0059454,14.2605668 C36.0059454,14.2605668 31.5803339,10.4906997 29.05293,11.1756474 C29.05293,11.1756474 31.383876,6.01066401 35.4205541,8.7849676" id="Fill-147" fill="#082D63"></path>
                        <path d="M46.5181667,34.6708129 C46.5181667,34.6708129 44.8738997,46.6597562 38.8293273,58.9152087 C39.0434222,61.97813 39.0434222,64.2690258 38.8293273,65.7878962 C38.626858,67.2242907 38.0422409,69.117948 37.0754761,71.468868 C37.0754761,71.468868 42.5252502,71.0767247 44.1141695,70.3041675 C44.6413521,70.0475357 44.9579421,67.5766515 45.4941046,64.3758082 C45.616314,63.6462287 46.8876886,55.2990166 48.18543,50.7905077 C48.9167912,48.2496715 49.980059,46.2346704 50.6522496,44.7123242 C51.5391564,42.7036987 51.9693307,41.4722985 52.2765059,40.2260572 C52.2765059,40.2260572 52.7557038,39.8742914 51.2782876,38.3464333 C49.8008713,36.8172478 47.2628482,30.6261703 47.2628482,30.6261703 L46.5181667,34.6708129 Z" id="Fill-151" fill="#082D63"></path>
                    </g>
                    <path d="M124.304787,8.01048419 C124.657649,8.01048419 127.787753,8.2335316 131.100591,9.9913113 C132.133267,10.5392459 133.205946,11.3841894 134.248985,12.3836987 C135.13802,13.2356308 136.005522,14.1998551 136.808367,15.188166 L137.708941,17.323207 C134.761535,14.6837655 132.646424,12.9287149 131.36361,12.0580554 C126.892755,9.02363991 124.045367,8.01048419 124.304787,8.01048419 Z" id="Path-5" fill="#082D63"></path>
                </g>
                <g id="Group-11" transform="translate(171.755720, 37.445080)">
                    <ellipse id="Oval" fill="#F3F7FC" cx="111.13134" cy="490.502661" rx="108.14958" ry="25.6226201"></ellipse>
                    <g id="Group-2">
                        <path d="M110.956273,85.2124499 L112.049791,73.1287902 C116.840757,66.5989093 120.508329,61.8164385 123.05251,58.7813776 C124.990533,56.4694269 128.150443,41.615343 130.228899,39.6085061 C130.461941,39.3834946 130.907749,40.2756997 131.048075,42.3853975 C131.1285,43.5945302 131.1285,46.2877075 131.048075,50.4649293 L129.427628,81.3872761 C125.370808,88.8245649 122.149011,92.6738241 119.762238,92.9350538 C118.581556,93.064278 114.65862,93.3285561 111.267695,92.0597752 C108.604049,91.0631198 106.409918,88.6731608 105.177182,87.5499801 C105.049619,87.4337534 105.211744,85.6245445 106.244384,85.2124499 C106.888442,84.955426 108.459072,84.955426 110.956273,85.2124499 Z" id="Path-56" fill="#DBE3F3"></path>
                        <path d="M125.582784,56.9847072 L131.048075,50.4649293 L129.427628,81.3872761 L123.05251,89.5409769 C124.449845,82.1969847 125.29327,76.6624446 125.582784,72.9373567 C125.872298,69.2122688 125.872298,63.8947189 125.582784,56.9847072 Z" id="Path-56" fill="#BEC9DD"></path>
                        <path d="M146.203976,231.056617 C147.955161,235.754917 148.338098,242.695872 147.352788,251.87948 L146.203976,275.734666 C143.757747,306.718226 142.286056,325.843142 141.788904,333.109415 C141.578043,336.191314 142.534632,344.36369 141.788904,359.032166 C141.538782,363.952064 139.311893,370.04494 139.04148,376.282443 C138.435932,390.250331 137.413134,418.6354 135.973088,461.43765 L116.853757,464.54158 C111.434545,425.459731 108.724939,400.29291 108.724939,389.041117 C108.724939,377.789324 109.413399,366.837022 110.790318,356.184211 C102.72617,311.669597 98.6940958,282.304085 98.6940958,268.087675 C93.0676865,276.26063 60.7154585,320.127904 45.101879,333.109415 C54.6965318,349.270372 60.1971593,358.976174 61.6037616,362.226822 C63.0103639,365.47747 70.1047291,389.574741 82.8868572,434.518635 L72.943195,444.336974 L14.2814308,351.22933 C7.51387224,339.957245 4.76130873,331.560365 6.0237403,326.038692 C7.91738765,317.756183 58.2854722,249.176314 64.3215287,242.445232 C70.3575853,235.71415 143.577199,224.009166 146.203976,231.056617 Z" id="Path-14" fill="#DBE3F3"></path>
                        <path d="M95.6379153,257.286045 L98.6940958,268.087675 C73.3750042,302.781161 55.510932,324.455074 45.101879,333.109415 C54.6965318,349.270372 60.1971593,358.976174 61.6037616,362.226822 C63.0103639,365.47747 70.1196075,389.453361 82.9314923,434.154497 L79.448837,437.385457 C67.870626,409.317651 59.1038715,387.745626 53.1485736,372.669381 C44.2156268,350.055015 39.3539397,351.595749 34.0557948,343.093543 C28.7576499,334.591336 27.1518986,336.162734 29.045546,327.880225 C29.5155081,325.824686 31.8503477,324.894104 36.011401,320.179033 C40.2067381,315.425114 50.2921396,307.404678 55.6713778,301.620257 C66.454629,290.024775 76.8556934,280.348703 79.883371,276.972402 C83.9074087,272.485014 89.1589235,265.922895 95.6379153,257.286045 Z" id="Path-14" fill="#BEC9DD"></path>
                        <path d="M146.203976,231.056617 C147.955161,235.754917 148.338098,242.695872 147.352788,251.87948 L146.203976,275.734666 C143.757747,306.718226 142.286056,325.843142 141.788904,333.109415 C141.578043,336.191314 142.534632,344.36369 141.788904,359.032166 C141.538782,363.952064 139.311893,370.04494 139.04148,376.282443 C138.435932,390.250331 137.413134,418.6354 135.973088,461.43765 L128.399694,462.645882 C129.124761,431.333927 129.58521,407.621081 129.781041,391.507343 C129.851362,385.721112 128.864952,375.678541 129.781041,368.890501 C130.414714,364.195112 133.068218,362.449255 133.057762,359.032166 C133.046747,355.432119 131.954507,351.405396 129.781041,346.951999 C131.099588,323.317624 131.678684,307.657124 131.518328,299.970498 C131.184069,283.947838 133.048743,268.684557 133.057762,268.479825 C133.495953,258.533545 132.403712,245.393706 129.781041,229.06031 C138.893867,228.556898 145.450799,229.035896 146.203976,231.056617 Z" id="Path-14" fill="#BEC9DD"></path>
                        <path d="M122.306818,462.272493 C120.425548,467.424412 119.179522,471.31265 118.56874,473.937207 C117.652568,477.874043 131.570005,493.499278 136.455531,500.055949 C141.341058,506.612619 147.82065,506.278556 149.527889,506.278556 C151.235127,506.278556 156.056528,501.58606 157.695447,498.312703 C159.334366,495.039346 147.698089,494.068855 144.329203,476.380922 C144.114675,475.254569 143.04981,472.183927 141.134609,467.168999 L122.306818,462.272493 Z" id="Path-15" fill="#DBE3F3" transform="translate(138.189130, 484.276953) rotate(-17.000000) translate(-138.189130, -484.276953) "></path>
                        <path d="M85.3726036,437.385457 C95.9619012,440.976652 100.006051,446.555863 97.5050521,454.123092 C93.7535543,465.473935 76.1880902,473.259852 70.5868298,479.39892 C64.9855695,485.537988 63.3216444,493.661811 62.3715174,493.661811 C61.7380994,493.661811 56.7409291,494.004747 47.3800063,494.690618 C43.4491762,492.144693 41.7839478,490.131939 42.3843211,488.652355 C42.9846944,487.172771 45.8976374,486.371159 51.1231501,486.24752 L72.8847337,449.534524" id="Path-16" fill="#DBE3F3"></path>
                        <polygon id="Fill-151" fill="#9147C6" transform="translate(78.862931, 441.123443) rotate(-50.000000) translate(-78.862931, -441.123443) " points="72.3539121 438.446353 70.9091877 442.678091 84.6886032 443.800534 86.8166747 439.76059"></polygon>
                        <path d="M147.884948,119.084256 C149.796807,135.881783 150.520864,199.487461 150.520864,202.074558 C150.520864,204.661654 150.041772,234.93801 142.155355,237.029106 C134.268938,239.120201 135.358179,233.250655 117.026137,235.388147 C98.6940958,237.52564 87.9801684,243.458296 76.8054898,241.920693 C65.6308113,240.383089 59.8309767,244.322524 59.8309767,233.958357 C59.8309767,230.252412 65.4533081,220.883301 67.4834224,211.129259 C69.2382975,202.697652 67.1533234,194.055387 70.3265096,187.609363 C76.6452626,149.390226 79.8046391,128.015962 79.8046391,123.486571 C79.8046391,118.957179 78.8049227,114.022344 76.8054898,108.682066 C86.1898285,93.5477006 92.5485662,85.9805178 95.8817032,85.9805178 C97.6936242,85.9805178 101.288042,85.5918877 102.083925,85.4830048 C104.462143,85.1576462 107.049313,84.7830804 107.308633,84.9635678 C108.499382,85.7923307 107.021623,92.7087597 117.026137,91.3703236 C127.030652,90.0318874 126.875445,82.3379517 128.399694,81.5087836 C129.923943,80.6796155 146.843573,77.4895405 158.025187,85.7647614 C169.206802,94.0399824 186.081301,153.435562 187.177756,156.418025 C187.908726,158.406334 179.576449,164.866469 162.180925,175.798431 C157.333204,161.31524 153.887514,150.334162 151.843855,142.855195" id="Path-17" fill="#9147C6"></path>
                        <path d="M147.884948,119.084256 C149.796807,135.881783 150.520864,199.487461 150.520864,202.074558 C150.520864,204.661654 155.771365,237.690666 147.884948,239.781762 C139.998531,241.872857 135.358179,233.250655 117.026137,235.388147 C111.833977,235.993546 130.798806,226.965725 132.970037,214.945738 C138.464806,184.526567 143.285615,138.227866 142.155355,132.56175" id="Path-17" fill="#7631A7"></path>
                        <path d="M128.399694,81.5087836 C140.695613,78.8292882 150.570777,80.2479474 158.025187,85.7647614 C169.206802,94.0399824 186.081301,153.435562 187.177756,156.418025 C187.693876,157.821923 183.691575,161.455219 175.170852,167.317915 C174.386184,167.857807 176.712693,161.726128 175.170852,153.840205 C172.781473,141.619447 164.122236,108.176542 155.715167,95.5249912 C151.391326,89.0181713 142.286169,84.3461021 128.399694,81.5087836 Z" id="Path-17" fill="#7631A7"></path>
                        <path d="M120.503109,112.625216 C132.957498,95.96392 139.459836,86.2420847 140.010125,83.4597099 C140.835559,79.2861476 134.572778,80.8748827 135.747,80.1948332 C136.921221,79.5147837 141.152128,78.6596116 145.841744,79.2970572 C150.531361,79.9345028 152.615961,81.8547166 152.253824,82.7524926 C151.891688,83.6502686 135.701411,114.758401 130.25339,120.703861 C126.621375,124.667501 123.371282,121.974619 120.503109,112.625216 Z" id="Path-28" fill="#0E2E68"></path>
                        <g id="Group-7" transform="translate(72.598265, 154.413496) rotate(-3.000000) translate(-72.598265, -154.413496) translate(4.598265, 105.413496)">
                            <path d="M129.320113,39.6672684 C127.89479,59.0480424 125.23349,86.5906447 106.01542,88.3366175 C86.7973492,90.0825903 87.2531499,81.9740452 72.1987529,81.9740452 C57.1443559,81.9740452 38.7017449,96.8419314 27.4999259,96.8419314 C16.2981068,96.8419314 -1.02436253,93.3672643 0.0474659098,57.0575255 C1.11929435,20.7477867 10.0535767,5.39334359 30.79567,0.859056423 C51.5377633,-3.67523075 57.1923318,11.2168126 76.5909736,11.2168126 C95.9896155,11.2168126 95.5194628,4.74764515 110.489034,6.17582378 C125.458606,7.60400241 130.745436,20.2864944 129.320113,39.6672684 Z" id="Path-18" fill="#DBE3F3"></path>
                            <path d="M129.320113,39.6672684 C127.89479,59.0480424 125.23349,86.5906447 106.01542,88.3366175 C86.7973492,90.0825903 87.2531499,81.9740452 72.1987529,81.9740452 C57.1443559,81.9740452 38.7017449,96.8419314 27.4999259,96.8419314 C27.2331879,96.8419314 24.8312251,96.7181259 20.2940373,96.4705148 C27.7716488,98.143274 33.7435853,98.2670795 38.2098469,96.8419314 C46.5068963,94.1944098 57.8543072,86.5172007 71.0199996,85.6971393 C79.1552448,85.1904131 87.5387111,91.5807324 96.0075353,93.1566557 C104.72897,94.779586 113.68608,94.7217795 121.81528,88.3592071 C129.94448,81.9966348 132.409109,69.9400566 133.535584,60.3768737 C134.140409,55.2422314 138.279003,25.7274864 131.791797,16.0418345 C126.449436,8.06548041 113.05869,4.62177132 105.25246,5.81992211 C104.905037,5.8732469 106.650562,5.99188079 110.489034,6.17582378 C125.458606,7.60400241 130.745436,20.2864944 129.320113,39.6672684 Z" id="Path-18" fill="#BEC9DD"></path>
                        </g>
                        <ellipse id="Oval" fill="#143B82" cx="84.7008341" cy="151.474019" rx="15.9134381" ry="14.3220943"></ellipse>
                        <path d="M69.3785755,146.05944 L256.853868,123.056092 L258.003373,138.182679 L69.3785755,158.127225 C68.1151401,155.154039 67.4834224,152.936303 67.4834224,151.474019 C67.4834224,150.011735 68.1151401,148.206875 69.3785755,146.05944 Z" id="Path-21" fill="#DBE3F3"></path>
                        <path d="M258.022874,137.92499 C262.698617,139.182787 266.180823,140.015607 268.46949,140.42345 C270.308303,140.751128 281.401932,139.984502 288.852916,137.985467 C295.312667,136.252371 298.343304,133.363511 298.733076,132.280522 C299.57243,129.948362 299.593817,127.721454 299.366207,124.878718 C299.138598,122.035981 298.321512,119.303268 296.655302,118.094541 C295.683097,117.38927 284.265668,115.090568 275.992344,115.488509 C270.086452,115.772578 266.473154,116.637157 265.397498,117.080683 C264.680394,117.376367 261.862186,119.244144 256.942874,122.684014 L258.022874,137.92499 Z" id="Path-22" fill="#DBE3F3" transform="translate(278.216312, 127.969577) rotate(-1.000000) translate(-278.216312, -127.969577) "></path>
                        <g id="Group-8" transform="translate(267.312541, 111.426840)">
                            <line x1="2.55187868" y1="10.0131648" x2="1.64403755" y2="2.68163507" id="Path-4" stroke="#BEC9DD" stroke-width="0.936360002"></line>
                            <circle id="Oval" fill="#BEC9DD" cx="1.40454" cy="2.34090001" r="1.40454"></circle>
                            <g id="Group-9" transform="translate(10.768140, 0.000000)">
                                <circle id="Oval" fill="#BEC9DD" cx="1.40454" cy="1.40454" r="1.40454"></circle>
                                <line x1="1.498176" y1="10.0131648" x2="1.45676555" y2="1.74527507" id="Path-4" stroke="#BEC9DD" stroke-width="0.936360002"></line>
                            </g>
                            <circle id="Oval" fill="#BEC9DD" cx="22.8471841" cy="1.40454" r="1.40454"></circle>
                            <line x1="22.1726696" y1="9.53772937" x2="22.8994096" y2="1.74527507" id="Path-4" stroke="#BEC9DD" stroke-width="0.936360002"></line>
                        </g>
                        <g id="Group-8" transform="translate(280.223602, 138.176131) scale(1, -1) rotate(5.000000) translate(-280.223602, -138.176131) translate(268.723602, 132.176131)">
                            <line x1="2.06584177" y1="11.1968492" x2="1.4877431" y2="3.16921371" id="Path-4" stroke="#BEC9DD" stroke-width="0.936360002"></line>
                            <circle id="Oval" fill="#BEC9DD" cx="1.43150834" cy="2.5264475" r="1.40454"></circle>
                            <g id="Group-10" transform="translate(9.830711, 0.911877)">
                                <circle id="Oval" fill="#BEC9DD" cx="1.40454" cy="1.40454" r="1.40454"></circle>
                                <line x1="1.84756783" y1="10.226077" x2="1.40826988" y2="2.35441972" id="Path-4" stroke="#BEC9DD" stroke-width="0.936360002"></line>
                            </g>
                            <circle id="Oval" fill="#BEC9DD" cx="21.0656984" cy="2.4065706" r="1.40454"></circle>
                            <line x1="21.1960651" y1="10.5614978" x2="21.0873346" y2="3.22227164" id="Path-4" stroke="#BEC9DD" stroke-width="0.936360002"></line>
                        </g>
                        <path d="M175.790208,163.077289 C182.112879,158.127225 196.709145,149.63318 201.153493,152.860359 C199.895942,154.744149 200.471756,157.183244 202.880935,160.177645 C205.290114,163.172047 207.58449,164.138595 209.764062,163.077289 C201.271362,172.408875 194.050063,178.705595 188.100163,181.967448 C179.175312,186.860227 173.248034,188.428466 168.342887,185.176233 C163.437739,181.924 161.427729,176.753727 162.432734,174.142109 C163.437739,171.530491 169.467536,168.027353 175.790208,163.077289 Z" id="Path-25" fill="#9147C6"></path>
                        <path d="M175.790208,163.077289 C177.615126,161.648548 181.404901,159.25408 187.159532,155.893886 L185.195468,149.730778 C179.393152,155.266297 176.466511,158.065112 176.415546,158.127225 C173.501856,161.678258 171.522591,163.695896 169.359126,165.796113 C167.195662,167.89633 163.815762,168.727261 162.180925,172.87707 C161.091035,175.64361 161.011427,176.372708 161.942102,175.064365 C162.947107,172.452747 169.467536,168.027353 175.790208,163.077289 Z" id="Path-25" fill="#7631A7"></path>
                        <line x1="257.261032" y1="125.397864" x2="57.6751948" y2="149.730778" id="Path-31" stroke="#FFFFFF" stroke-width="1.06089588"></line>
                        <line x1="257.261032" y1="130.079664" x2="57.6751948" y2="153.241914" id="Path-31" stroke="#FFFFFF" stroke-width="1.06089588"></line>
                        <line x1="257.261032" y1="134.761464" x2="56.5790712" y2="157.186745" id="Path-31" stroke="#FFFFFF" stroke-width="1.06089588"></line>
                        <path d="M57.6751948,161.675812 C59.9308114,162.61013 61.5247586,163.077289 62.4570363,163.077289 C63.8554528,163.077289 67.6361966,154.745088 77.7786855,154.745088 C87.9211745,154.745088 89.5348859,154.264904 89.5348859,151.986322 C89.5348859,149.707739 77.4844308,147.0847 71.3523325,147.775701 C67.264267,148.236368 64.0835963,149.116907 61.8103205,150.417316 L57.6751948,161.675812 Z" id="Path-23" fill="#BEC9DD"></path>
                        <path d="M57.6751948,161.675812 C59.9308114,162.61013 61.5247586,163.077289 62.4570363,163.077289 C63.8554528,163.077289 67.6361966,154.745088 77.7786855,154.745088 C85.765445,154.745088 88.4636265,154.447332 89.2497905,153.20815 C89.3883255,152.989786 84.6063923,151.381616 79.293629,150.417316 C76.4687649,149.904585 73.2151654,149.505296 71.0864927,149.745168 C66.9984272,150.205835 63.9063698,150.429885 61.8103205,150.417316 L60.765369,153.262352 L57.6751948,161.675812 Z" id="Path-23" fill="#BEC9DD"></path>
                        <path d="M76.8054898,108.682066 C35.3689183,109.173574 15.276023,114.20386 16.526804,123.772925 C17.7775849,133.341989 32.9637664,142.030746 62.0853483,149.839196 L57.6719845,162.115298 C45.0762012,159.227839 35.4955084,156.270045 28.9299061,153.241914 C19.0815027,148.699718 9.88689003,141.660789 3.84906794,132.170771 C0.76858909,127.328992 -0.767549532,118.777629 1.17706555,114.108475 C6.43062337,101.494325 40.6528581,92.0464206 103.84377,85.7647614 C87.151205,104.60315 78.1384451,112.242251 76.8054898,108.682066 Z" id="Path-17" fill="#9147C6"></path>
                        <path d="M73.1134596,113.407835 C72.7816681,113.131651 65.4746706,112.513632 56.4208451,114.101618 C42.0444891,116.623143 24.1475044,121.171101 26.468734,126.717563 C27.5253421,129.242275 29.9690959,132.788783 38.9221546,137.564321 C43.0150153,139.747442 50.7287148,143.491459 62.0632533,148.796372 L59.7184916,156.422785 C29.5086015,145.408594 14.4036565,134.709296 14.4036565,124.32489 C14.4036565,108.807606 66.5374109,97.9308658 84.7008341,102.759221 C88.0545575,103.650736 86.9528444,108.066755 81.395695,116.007279 C80.3335029,116.166273 79.5344277,116.262649 78.9984696,116.296408 C78.5971149,116.321689 77.4194515,116.353537 75.4646421,116.253911 C75.0275821,116.231636 74.2844902,116.168193 73.2353664,116.06358 C73.7265187,114.769571 73.6858831,113.884323 73.1134596,113.407835 Z" id="Path-17" fill="#7631A7"></path>
                        <path d="M208.134312,163.943961 C210.883917,161.89751 213.475333,160.416441 215.908561,159.500755 C219.558402,158.127225 223.805167,157.010155 228.511315,156.375494 C233.217462,155.740834 235.618663,153.355096 236.467431,151.474019 C237.3162,149.592942 241.893869,138.921862 240.862086,136.078101 C239.830303,133.23434 237.692714,127.871067 229.216381,129.646715 C223.565492,130.83048 219.970273,133.097345 218.430722,136.44731 C218.599806,141.203185 217.96319,144.105944 216.520874,145.15559 C214.3574,146.730058 208.164392,148.414651 206.797958,149.639184 C205.887001,150.45554 204.005513,151.529265 201.153493,152.860359 C199.74893,155.722922 200.069128,158.099864 202.114089,159.991183 C204.15905,161.882503 206.165791,163.200096 208.134312,163.943961 Z" id="Path-26" fill="#DBE3F3"></path>
                        <path d="M208.134312,163.943961 C210.883917,161.89751 213.475333,160.416441 215.908561,159.500755 C219.558402,158.127225 223.805167,157.821406 228.511315,157.186745 C233.217462,156.552085 236.747321,153.355096 237.596089,151.474019 C238.444858,149.592942 241.893869,138.921862 240.862086,136.078101 C239.830303,133.23434 237.692714,127.871067 229.216381,129.646715 C225.949428,130.331086 235.144287,141.499704 230.124951,146.61901 C222.121276,154.782094 200.228903,158.247634 202.114089,159.991183 C204.15905,161.882503 206.165791,163.200096 208.134312,163.943961 Z" id="Path-26" fill="#BEC9DD"></path>
                        <path d="M192.648818,165.796113 C194.897068,163.076657 193.160777,159.072492 194.131619,156.154009 C195.152602,153.084797 198.87538,151.20615 201.153493,152.860359 C199.895942,154.744149 200.471756,157.183244 202.880935,160.177645 C205.290114,163.172047 207.58449,164.138595 209.764062,163.077289 C201.271362,172.408875 194.050063,178.705595 188.100163,181.967448 C179.175312,186.860227 173.248034,188.428466 168.342887,185.176233 C175.619942,182.360821 180.041138,180.059085 181.606475,178.271023 C186.059953,173.183882 188.036204,171.375476 192.648818,165.796113 Z" id="Path-25" fill="#7631A7"></path>
                        <path d="M123.05251,59.4061766 C110.754821,77.8788832 100.070261,84.4344128 90.9988297,79.0727655 C81.9273982,73.7111181 82.5355873,60.0820675 92.823397,38.1856135 L116.129769,26.7130623 L124.301549,32.0886237" id="Path-57" fill="#DBE3F3"></path>
                        <polygon id="Path-57" fill="#BEC9DD" points="123.05251 59.4061766 112.049791 73.1287902 111.454583 79.9794646 123.05251 60.2939352"></polygon>
                        <path d="M120.503109,32.7545069 C120.006364,32.7545069 114.885262,33.9567925 105.139805,36.3613636 C94.5394287,40.772455 87.7372206,42.9780008 84.7331812,42.9780008 C80.2271222,42.9780008 83.5533817,22.4158319 89.0960712,17.6621872 C92.7911976,14.4930907 97.9621497,11.0175621 104.608928,7.23560133 C110.313753,9.32584629 116.87796,9.84840753 124.301549,8.80328505 C135.436931,7.23560133 132.183683,7.67552793 140.274636,5.24384289 C145.668605,3.62271953 150.232187,2.12652245 153.96538,0.755251629 C150.827852,10.3295243 148.584292,18.2077706 147.2347,24.3899905 C145.210313,33.6633203 146.207926,35.1990444 144.113377,46.2660448 C143.495466,49.5309134 142.637912,52.4773603 142.085299,54.9966734 C141.204905,59.0103139 140.455943,62.9863928 139.838414,66.9249103 L133.027758,55.9481586 L131.829759,50.4649293 C130.54274,45.4736436 129.835027,42.9780008 129.706618,42.9780008 C129.57821,42.9780008 126.758746,46.4180025 121.248228,53.2980059 L119.943882,52.2339745 L119.943882,45.2002925 C120.813446,36.9031021 120.999855,32.7545069 120.503109,32.7545069 Z" id="Path-58" fill="#0E2E68"></path>
                        <path d="M116.241819,52.4839584 C119.943882,45.2002925 122.170461,44.1249598 125.6514,43.0292551 C129.132339,41.9335505 134.150414,43.228713 134.150414,46.8468211 C134.150414,49.2588932 130.451113,53.4453451 123.05251,59.4061766" id="Path-59" fill="#DBE3F3"></path>
                        <path d="M121.465188,50.4649293 C121.465188,49.573861 122.410641,48.3774937 124.301549,46.8758276 C126.210117,46.2660448 127.370283,46.1135991 127.782048,46.4184905 C128.399694,46.8758276 125.195888,48.4694968 124.933104,49.0698797 C124.757915,49.4701349 124.667901,50.1196176 124.663062,51.0183278 L124.003149,51.0183278 C123.827019,49.8701802 123.738955,49.2961064 123.738955,49.2961064 C123.738955,49.2961064 123.076344,49.685714 121.751122,50.4649293" id="Path-60" fill="#BEC9DD"></path>
                        <polyline id="Fill-151" fill="#9147C6" points="116.52771 463.32224 116.52771 467.889631 136.789005 467.889631 135.973088 461.43765"></polyline>
                        <polygon id="Path-3" fill="#BEC9DD" points="256.070306 123.056092 257.600599 122.516867 259.142607 138.570992 257.22289 138.33545"></polygon>
                    </g>
                </g>
            </g>
            <g id="Group-4" transform="translate(306.342878, 0.000000)">
                <g id="Group-12" transform="translate(208.657122, 114.000000)">
                    <path d="M18.1716161,28.7292497 C22.6167223,28.3238035 25.2481693,26.4680368 27.4178121,22.9354144 C29.587455,19.402792 28.6988692,14.6774429 27.9813669,12.2063316 C26.0394626,5.51832307 23.2163059,4.67898726 16.0829132,4.67898726 C8.94952045,4.67898726 1.87841775,10.2865095 1.87841775,17.2037388 C1.87841775,18.0999709 1.62131345,18.0139946 1.87841775,18.8362121 C3.02063563,22.4890158 6.07037103,26.0184867 10.208046,27.818145 C12.3273501,28.7399244 13.72651,29.1346959 18.1716161,28.7292497 Z" id="Oval" fill="#1255CC" opacity="0.5"></path>
                    <ellipse id="Oval" fill="#1255CC" cx="13.8056921" cy="12.5247516" rx="13.8056921" ry="12.5247516"></ellipse>
                    <path d="M13.8056921,25.0495032 C21.4303653,25.0495032 27.6113842,19.4419809 27.6113842,12.5247516 C27.6113842,10.5672574 27.1163939,8.7146475 26.2337731,7.06432062 C25.0724101,13.3880982 22.3041988,17.6469473 17.9291393,19.8408679 C13.5540799,22.0347885 8.20383933,21.6999033 1.87841775,18.8362121 C4.27309217,22.5527836 8.71800242,25.0495032 13.8056921,25.0495032 Z" id="Oval" fill="#134AAD"></path>
                </g>
                <g id="Group-12-Copy" transform="translate(191.157122, 48.500000) rotate(-15.000000) translate(-191.157122, -48.500000) translate(176.657122, 34.000000)">
                    <path d="M18.1716161,28.7292497 C22.6167223,28.3238035 25.2481693,26.4680368 27.4178121,22.9354144 C29.587455,19.402792 28.6988692,14.6774429 27.9813669,12.2063316 C26.0394626,5.51832307 23.2163059,4.67898726 16.0829132,4.67898726 C8.94952045,4.67898726 1.87841775,10.2865095 1.87841775,17.2037388 C1.87841775,18.0999709 1.62131345,18.0139946 1.87841775,18.8362121 C3.02063563,22.4890158 6.07037103,26.0184867 10.208046,27.818145 C12.3273501,28.7399244 13.72651,29.1346959 18.1716161,28.7292497 Z" id="Oval" fill="#14C17B" opacity="0.5"></path>
                    <ellipse id="Oval" fill="#14C17B" cx="13.8056921" cy="12.5247516" rx="13.8056921" ry="12.5247516"></ellipse>
                    <path d="M13.8056921,25.0495032 C21.4303653,25.0495032 27.6113842,19.4419809 27.6113842,12.5247516 C27.6113842,10.5672574 27.1163939,8.7146475 26.2337731,7.06432062 C25.0724101,13.3880982 22.3041988,17.6469473 17.9291393,19.8408679 C13.5540799,22.0347885 8.20383933,21.6999033 1.87841775,18.8362121 C4.27309217,22.5527836 8.71800242,25.0495032 13.8056921,25.0495032 Z" id="Oval" fill="#109E65"></path>
                </g>
                <g id="Group-12-Copy-2" transform="translate(107.157122, 20.500000) rotate(-49.000000) translate(-107.157122, -20.500000) translate(92.657122, 6.000000)">
                    <path d="M18.1716161,28.7292497 C22.6167223,28.3238035 25.2481693,26.4680368 27.4178121,22.9354144 C29.587455,19.402792 28.6988692,14.6774429 27.9813669,12.2063316 C26.0394626,5.51832307 23.2163059,4.67898726 16.0829132,4.67898726 C8.94952045,4.67898726 1.87841775,10.2865095 1.87841775,17.2037388 C1.87841775,18.0999709 1.62131345,18.0139946 1.87841775,18.8362121 C3.02063563,22.4890158 6.07037103,26.0184867 10.208046,27.818145 C12.3273501,28.7399244 13.72651,29.1346959 18.1716161,28.7292497 Z" id="Oval" fill="#9147C6" opacity="0.5"></path>
                    <ellipse id="Oval" fill="#9147C6" cx="13.8056921" cy="12.5247516" rx="13.8056921" ry="12.5247516"></ellipse>
                    <path d="M13.8056921,25.0495032 C21.4303653,25.0495032 27.6113842,19.4419809 27.6113842,12.5247516 C27.6113842,10.5672574 27.1163939,8.7146475 26.2337731,7.06432062 C25.0724101,13.3880982 22.3041988,17.6469473 17.9291393,19.8408679 C13.5540799,22.0347885 8.20383933,21.6999033 1.87841775,18.8362121 C4.27309217,22.5527836 8.71800242,25.0495032 13.8056921,25.0495032 Z" id="Oval" fill="#7631A7"></path>
                </g>
                <g id="Group-12-Copy-3" transform="translate(21.157122, 68.500000) rotate(-49.000000) translate(-21.157122, -68.500000) translate(6.657122, 54.000000)">
                    <path d="M18.1716161,28.7292497 C22.6167223,28.3238035 25.2481693,26.4680368 27.4178121,22.9354144 C29.587455,19.402792 28.6988692,14.6774429 27.9813669,12.2063316 C26.0394626,5.51832307 23.2163059,4.67898726 16.0829132,4.67898726 C8.94952045,4.67898726 1.87841775,10.2865095 1.87841775,17.2037388 C1.87841775,18.0999709 1.62131345,18.0139946 1.87841775,18.8362121 C3.02063563,22.4890158 6.07037103,26.0184867 10.208046,27.818145 C12.3273501,28.7399244 13.72651,29.1346959 18.1716161,28.7292497 Z" id="Oval" fill="#1255CC" opacity="0.5"></path>
                    <ellipse id="Oval" fill="#1255CC" cx="13.8056921" cy="12.5247516" rx="13.8056921" ry="12.5247516"></ellipse>
                    <path d="M13.8056921,25.0495032 C21.4303653,25.0495032 27.6113842,19.4419809 27.6113842,12.5247516 C27.6113842,10.5672574 27.1163939,8.7146475 26.2337731,7.06432062 C25.0724101,13.3880982 22.3041988,17.6469473 17.9291393,19.8408679 C13.5540799,22.0347885 8.20383933,21.6999033 1.87841775,18.8362121 C4.27309217,22.5527836 8.71800242,25.0495032 13.8056921,25.0495032 Z" id="Oval" fill="#134AAD"></path>
                </g>
            </g>
            <path d="M532.584317,225.836353 C532.211635,226.053108 527.733878,227.331829 523.540683,225.149356 C519.347488,222.966882 510.585483,215.564952 506.694111,208.934581 C505.357389,206.656987 502.914513,203.169318 499.712927,198.366884 C497.611411,195.214573 493.255153,189.201789 486.644155,180.328531 L490.440204,180.328531 C491.140856,181.049277 491.5095,181.436801 491.546134,181.491104 C502.271322,197.388888 508.617772,206.650674 510.585483,209.27646 C513.654538,213.37192 521.957576,220.018811 525.442828,222.92822 C528.92808,225.837629 533.141325,225.512392 532.584317,225.836353 Z" id="Path-6" fill="#BEC9DD" transform="translate(509.639203, 203.366934) scale(-1, 1) translate(-509.639203, -203.366934) "></path>
        </g>
    </g>
</svg>