<svg id="Layer_1" data-name="Layer 1" xmlns="http://www.w3.org/2000/svg" viewBox="0 0 1200 734.21"><title>1Digital Marketing Illustration</title><polygon points="630.08 242.97 605 244.55 488.71 240.92 584.91 236.91 630.08 238.18 630.08 242.97" style="fill:#91a7c1"/><polyline points="148.81 289.06 67.95 276.11 0 278.49 87.72 293.62 149.69 289.42" style="fill:#91a7c1"/><polygon points="0 399.32 0 278.79 87.72 293.59 87.72 429.45 0 399.32" style="fill:#f0f7fc"/><polygon points="143.37 289.54 87.72 293.59 87.72 429.45 143.83 416.53 143.37 289.54" style="fill:#a6b6cc"/><polygon points="100.83 434.69 100.83 379.75 207.22 407.7 207.22 471.45 100.83 434.69" style="fill:#f0f7fc"/><polyline points="251.84 402.61 207.22 407.7 207.22 472.89 253.87 459.34 251.84 390.63" style="fill:#a6b6cc"/><polygon points="223.88 476.84 223.88 166.24 333.69 157.25 333.69 515.39 223.88 476.84" style="fill:#f0f7fc"/><polygon points="395.45 156.69 333.49 159.05 333.49 515.39 395.91 495.96 395.45 156.69" style="fill:#a6b6cc"/><polygon points="353.25 522.52 353.25 311.86 465.78 322.26 465.78 561.2 353.25 522.52" style="fill:#f0f7fc"/><polygon points="512.09 315.88 465.93 322.26 465.78 561.2 512.43 546.09 512.09 315.88" style="fill:#a6b6cc"/><polygon points="223.88 172.55 223.88 124.93 335.32 115.88 335.32 169.8 223.88 172.55" style="fill:#14c17b;fill-rule:evenodd"/><polygon points="333.75 169.87 333.75 115.88 395.66 122.8 395.66 175.39 333.75 169.87" style="fill:#12af6b;fill-rule:evenodd"/><polygon points="353.25 273.86 353.25 311.86 466.98 322.26 466.98 281.73 353.25 273.86" style="fill:#14c17b"/><polygon points="415.58 361.79 408.96 352.83 401.45 359.56 415.58 361.79" style="fill:#14c17b;fill-rule:evenodd"/><polygon points="280.27 211.71 274.47 203.32 268.24 211.71 280.27 211.71" style="fill:#14c17b;fill-rule:evenodd"/><polygon points="38.16 298.63 33.02 301.96 37.83 306.54 38.16 298.63" style="fill:#91a7c1;fill-rule:evenodd"/><polygon points="42.84 299.35 47.64 303.55 42.41 307.19 42.84 299.35" style="fill:#91a7c1;fill-rule:evenodd"/><polygon points="465.78 281.73 518.24 276.63 518.24 315.99 465.78 322.26 465.78 281.73" style="fill:#12af6b"/><polygon points="488.71 569.35 488.71 240.92 605 244.55 605 610.79 488.71 569.35" style="fill:#f0f7fc"/><polyline points="648.49 590.62 605 610.47 605 244.55 649.61 241.25" style="fill:#a6b6cc"/><polygon points="207.22 408.08 100.83 379.75 160.78 373.12 223.88 388.83 223.88 405.63 207.22 408.08" style="fill:#91a7c1;fill-rule:evenodd"/><polygon points="353.25 273.63 429.54 265.57 488.71 268.19 488.56 280.4 466.98 281.73 353.25 273.63" style="fill:#20d185"/><polygon points="541.97 278.92 532.39 285.9 542.17 294.23 541.97 278.92" style="fill:#91a7c1;fill-rule:evenodd"/><polygon points="551.09 279.82 560.79 287.41 551.09 295 551.09 279.82" style="fill:#91a7c1;fill-rule:evenodd"/><polygon points="152.21 407.63 146.82 410.55 151.26 415.49 152.21 407.63" style="fill:#91a7c1;fill-rule:evenodd"/><polygon points="156.82 408.72 161.27 413.28 155.77 416.5 156.82 408.72" style="fill:#91a7c1;fill-rule:evenodd"/><path d="M629.8,236.14S559.06,252.36,554.37,254s-15.53,4.65-17.61,9.43c0,0-33.79,72.63-48.46,84.59,0,0-9.87-3.41-11.72-9.48,0,0,28.21-87.73,20.34-62.28-4.12,13.3-22.79,43-22.79,43-7.62,11-28,28.5-28,28.5-4.59-2.75-10-10.4-10-10.4,7.71-7.48,26-44.74,26-44.74,1.12-3,20-41.9,20-41.9s5.43-8.67,8.86-15.49a38.16,38.16,0,0,1,9.36-11.46c1.42-1.15,13.79-7.93,18.55-10.16s33.06-18,33.06-18,33.1.83,44.07,3.62,21.71,8.65,24,14.3S629.8,236.14,629.8,236.14Z" style="fill:#dbe3f3"/><path d="M596.51,204.29s-20.43,13.08-36.29,17.29-36.53,13.81-36.53,13.81-7.23,2.55-8.18,10.46-7.2,31.77-8.92,37-18.41,53-25.83,61c0,0,4.63,3.51,7.54,4.08,0,0,9.71-7.54,26.8-41.23L532.67,272l4.09-8.6s3.45-6.67,14.3-8.34,30.32-7.68,30.32-7.68l47.12-11s-11.41-28.48-25.4-32.66l-4-.53Z" style="fill:#bec9dd"/><path d="M499.37,271.68a111.29,111.29,0,0,1,4.94-13.06c3-6.91,3.51-16.13,6.45-19.13,0,0,2.06-6,5.28-7.8s33.24-20.46,36.89-23.18c0,0-20.83,7.91-30.26,14.24,0,0-16.17,8.65-21.45,13.91s-5.44,5.75-7.5,10.8S485.27,273,481.92,277s-33.81,59.19-42.21,64.85l6.4,5.85S470.49,326,475.34,318C479.05,311.82,494,283.53,499.37,271.68Z" style="fill:#bec9dd"/><path d="M552.38,196.62a12.6,12.6,0,0,0,11,6c7.62-.21,34.77,3,38.92,7.37s13.1,27.31,20.63,27.79l5.53-1.43s-2.44-7.19-2.67-7.85-16.73-20.68-17.3-21.3-7.82-6.78-8.83-6.92-31.14-2.56-31.14-2.56Z" style="fill:#9daec6"/><path d="M436.08,337.34s3.11,2.91,11.79,9.32l-8.89,6s-7.19-2.07-7.81-8.61Z" style="fill:#1255cc"/><path d="M563.5,45.77s5.23,4.41,6.1,7,1.47,3,1.69,7,.59,8.36,3,11.47c4,5.13,9,14.6,15.92,12.55l.73,26.88L597.53,96l18.68-18.43s-4.66-3-5.05-6.32l1-8.88L611.65,59l-2.51-13.32s-6.76-4-7.58-4.43-14.61-8.16-16-7.46-8.85,3-9.87,3.67S563.5,45.77,563.5,45.77Z" style="fill:#dbe3f3"/><path d="M614.33,65.08s-3.71,5.28-6.15-4.15c0,0,.46.12.79-3.81,0,0-.19-2.77-.45-4.77s.5-4.72-2.93-4.71c0,0-4.7.6-4.75,3.41s2.1,6.75,2.24,8.61c.08,1-3.2,3.6-3.2,3.6s-4.35-3.81-5.67-8.92c-1.74-6.7.33-7.06-.17-7.32s1.1-.92-3.29,2.15-14.08,5.8-22.51,3.95c0,0-9.55-4.76-7.26-10.28s9.67-14.35,20.16-15.49,15.59-5.9,22-.74,4.65,4.86,7.63,9.13a24.81,24.81,0,0,1,4.29,10.72,73,73,0,0,0,1,9.94C616.85,59.44,615.63,62.31,614.33,65.08Z" style="fill:#143b82"/><path d="M590.3,85.16s-3.83.87-10.21,1.64S566.67,103,566.67,103s-7.7,27.25-14.36,41.3-19.13,41.58-19.13,41.58c7.16,2,10.05,4.67,10.05,4.67,19.73-15.57,30.13-50.8,30.13-50.8a94.41,94.41,0,0,1-3.84,29.59c-1.8,9.68-13.8,21.18-16.34,23.11a2.86,2.86,0,0,0-.8,4.16c3.75,3.72,30.44,5.62,30.44,5.62s11.24.3,19.06,4,12,12.15,18.21,23.77c4.19,7.79,5.89,7.47,5.89,7.47,14.85-1.06,14.81-41.43,16-48.38.87-5.23,7.44-48.5,8.16-59.1s-.12-12.64-1.7-23.2c-1.61-10.8-23-19.32-23-19.32l-12-11.78s-11.65,15.2-17.23,17.26l-4.71,11.31S592.78,89.85,590.3,85.16Z" style="fill:#1255cc"/><path d="M573.24,138.53s.79-14.37-1.38-23.85c0,0-8.2,15.68-10,26.17s-.7,17.54-8.84,20.37-12.1,24.31-12.1,24.31,2.19,2.79,2.33,5C543.23,190.56,561,183.21,573.24,138.53Z" style="fill:#134aad"/><path d="M650,117.76S647.32,172.65,632.2,182a60.47,60.47,0,0,1-9.23,7.52c-10.73,6.52-30.81,13.77-30.81,13.77s7,1.9,9.72,2.92c9,3.36,33.69-12,39.34-17.7,0,0,3.26-16.08,5.12-28.8C648.45,145.24,651.22,123.12,650,117.76Z" style="fill:#134aad"/><path d="M590.3,85.16,587.7,92l3.72,12.22S593,93.06,590.3,85.16Z" style="fill:#134aad"/><polyline points="556.86 228.54 588.9 215.91 542.77 206.61 503.1 217.93" style="fill:#092f66"/><polygon points="486.5 178.83 541.49 187.78 556.86 228.54 502.63 217.98 486.5 178.83" style="fill:#143b82"/><path d="M431.17,344s-16.63-13.45-21.62-23.29c0,0-4.8-9.84-11.2-5.13,0,0,.58,1.85,4.7,10.53,3.66,7.72,15.28,27.49,20.11,34.49a2.46,2.46,0,0,0,3.44.62L439,352.62Z" style="fill:#dbe3f3"/><path d="M472.78,348.7s-20.38-6.47-28.61-13.82c0,0-8.06-7.42-12.3-.7,0,0,1.22,1.5,8.21,8.09,5.8,5.46,23.47,18.82,31.87,24.59a4.09,4.09,0,0,0,5.92-1.47l5.43-10.28Z" style="fill:#dbe3f3"/><path d="M488.3,348l-5,7.14a35.7,35.7,0,0,1-10.52-6.41s1.92-5.76,3.8-10.21C476.58,338.49,483.24,345.8,488.3,348Z" style="fill:#1255cc"/><polygon points="440.08 342.27 434.79 348 438.98 352.62 446.11 347.74 440.08 342.27" style="fill:#134aad"/><path d="M434.79,348A20.61,20.61,0,0,1,428.4,353s-4.6,2.93-8.81-4.51L404.28,326l-3.71-5.22s14.29,31.18,22.7,40c0,0,1,2.07,3.53.32L439,352.62Z" style="fill:#bec9dd"/><path d="M615.57,169.34c-17.76,21.11-45,30.64-45,30.64l3.47-.33a115.62,115.62,0,0,0,40.57-26.79c2.22-1.7,4.92-5.07,6.9-7.77,1.23-1.55,1.85-2.46,1.85-2.46l-.07,0c.59-.85,1-1.41,1-1.41,2.89-3.49,5.69-29.26,5.69-29.26l-.54-5.72C626.07,149,619.48,162.8,615.57,169.34Z" style="fill:#134aad"/><path d="M481.38,343.16s4.82,4.21,6.92,4.81l-5,7.14s-5.47-2.23-7.62-4.11Z" style="fill:#134aad"/><path d="M475.68,351s-1.53,1.71-5.85,1.78-20.39-10-22.89-12.42-10.58-8.12-13.08-8.24a24.77,24.77,0,0,0-2,2.06s8.3,10.79,39.82,32.5c0,0,4,2.8,6.06-1.08l5.55-10.49S475.85,351.55,475.68,351Z" style="fill:#bec9dd"/><path d="M590.23,83.77S601.49,80.49,603.72,72c0,0,.56,6.5,1.93,8.9l1.13,2.68s-6.34,8.24-10.65,9.33l-4.71,11.31S592.14,86.62,590.23,83.77Z" style="fill:#bec9dd"/><path d="M571.9,201.09s6.49,1.78,7,8.09c0,0,9.56-4.36,16.33-7Z" style="fill:#1255cc;fill-rule:evenodd"/><polygon points="588.9 215.91 589.19 219.05 557.15 231.55 503.34 220.54 502.63 217.98 556.86 228.54 588.9 215.91" style="fill:#092f66"/><polygon points="486.5 178.83 488.87 177.85 543.13 186.48 558.59 227.86 556.86 228.54 541.49 187.78 486.5 178.83" style="fill:#2262bf"/><polygon points="591.42 104.25 596.13 92.94 598.17 97.27 591.42 104.25" style="fill:#134aad"/><path d="M556.73,208.15c4.69-3.89,15.17-7.06,15.17-7.06s7,2.13,7,8.09c0,0-7.24,7.95-16,7.89C555.78,217,550.05,213.71,556.73,208.15Z" style="fill:#fff"/><path d="M571.9,201.09a20.82,20.82,0,0,0-9.82.93c-4.77,1.82,2,2.58,2,2.58Z" style="fill:#fff"/><polygon points="630.08 619.97 630.08 16.59 749.68 0 749.68 662.46 630.08 619.97" style="fill:#f0f7fc"/><polygon points="813.37 15.74 749.83 0 749.83 661 815.4 624.83 813.37 15.74" style="fill:#a6b6cc"/><polygon points="1200 39.31 1199.45 405.01 799.91 353.84 798.46 65.83 1200 39.31" style="fill:#f0f7fc"/><polygon points="824.62 87.78 824.83 243.56 995.72 248.79 992.32 76.93 824.62 87.78" style="fill:#fff;fill-rule:evenodd"/><path d="M905.41,120.31s-49,2.17-50.28,48.63c-1.23,45.67,46.25,48.1,46.25,48.1s54.4,2,56.42-48.36S905.41,120.31,905.41,120.31Z" style="fill:#f0f7fc;fill-rule:evenodd"/><path d="M905.41,120.58l-2,48.1L948.08,138S938.57,120.32,905.41,120.58Z" style="fill:#14c17b;fill-rule:evenodd"/><path d="M903.64,168.43l24.87,42.51s30.17-7.75,29-44.85c0,0-.41-17.94-9.38-28.13Z" style="fill:#dbe3f3;fill-rule:evenodd"/><polygon points="823.87 258.57 1180.08 281.99 1180.33 369.79 824.17 332.11 823.87 258.57" style="fill:#fff"/><path d="M834.93,318.29s26.72,4.9,39.77-8.15S901.81,272,931,280c28.51,7.77,39.14,46.5,55.45,44.05s35.87-19.57,44-17.94,14.68,21.2,31,25.28,54.64,4.08,54.64,4.08,47.7-12.23,51.78-45.66l1.22,64.66L834.93,324Z" style="fill:#dbe3f3;fill-rule:evenodd"/><polygon points="1016.59 248.65 1014.57 75.97 1180.49 65.82 1179.28 255.79 1016.59 248.65" style="fill:#fff;fill-rule:evenodd"/><line x1="1058.22" y1="125.36" x2="1143.84" y2="122.94" style="fill:none;stroke:#1255cc;stroke-miterlimit:10"/><line x1="1058.22" y1="130.88" x2="1136.09" y2="129.66" style="fill:none;stroke:#14c17b;stroke-linecap:round;stroke-miterlimit:10"/><line x1="1058.22" y1="136.39" x2="1143.43" y2="135.37" style="fill:none;stroke:#999;stroke-linecap:round;stroke-miterlimit:10"/><line x1="1058.22" y1="141.91" x2="1096.95" y2="141.06" style="fill:none;stroke:#999;stroke-linecap:round;stroke-miterlimit:10"/><line x1="1057.26" y1="169.5" x2="1142.88" y2="167.08" style="fill:none;stroke:#1255cc;stroke-miterlimit:10;opacity:0.2"/><line x1="1057.26" y1="175.01" x2="1135.13" y2="173.8" style="fill:none;stroke:#14c17b;stroke-linecap:round;stroke-miterlimit:10;opacity:0.2"/><line x1="1057.26" y1="180.53" x2="1142.47" y2="179.51" style="fill:none;stroke:#999;stroke-linecap:round;stroke-miterlimit:10;opacity:0.2"/><line x1="1057.26" y1="186.05" x2="1095.99" y2="185.2" style="fill:none;stroke:#999;stroke-linecap:round;stroke-miterlimit:10;opacity:0.2"/><polygon points="1047.41 135.96 1041.98 129.36 1037.44 136.81 1047.41 135.96" style="fill:#14c17b;fill-rule:evenodd"/><path d="M83.92,259.93c8.39-2.23,21.86-3.11,21.86-3.11s33.3,13.78,37,15.45,10.31,5,11.41,5.82a31,31,0,0,1,8.34,6.26c5,5,4.7,10.33,4.7,10.33a138.48,138.48,0,0,1,1.25,20.63c-.08,22.71-.38,33.71-4,55.65,0,0-3.49,1.24-10.5.54,0,0-2.63-61.89-4-71.94,0,0-14.76-22.83-9.18-12.42,12,22.43,5.13,82.58,5.13,82.58-1.36,4.67-10.15,1.52-10.15,1.52-2.82-55.55-11.36-66.34-11.36-66.34-5.58-2.85-9.6-5.15-13.21-6.33s-40-8-40-8S58,288,54.53,272.64h0s13.63-12.22,27.76-12.11" style="fill:#dbe3f3"/><path d="M150.8,324s-.45-16.75-1.53-22.43-4.61-7.62-6.9-9.9c0,0-9.48-8-12-9.41s-28.27-14.12-31.09-16.18c0,0,31,9.42,39.61,13.28,0,0,13.71,5.05,18.27,8.5,5,3.75,6.3,6,6.4,11.53.07,4.18,0,13.39.07,17.42.4,14.41-1.66,30.95-2.75,55.49l-6.64-.26s-.85-23.47-1.23-31.06C152.78,335.45,152,336.34,150.8,324Z" style="fill:#bec9dd"/><path d="M63.71,172.23s6.21-4.72,6.46-12.42L70,157.69s-6.39-7.54-1.71-11c0,0,1.49-7.21,5.49-11,1.63-1.57,7.7-6.13,14.68-4.27s15.1,8.85,13.1,17.11c0,0,.05,5.18-2.61,7.24,0,0-.84,5.21-1.28,7s-6.48,12-13.9,11.79a24.39,24.39,0,0,1,.79,6.79l-.72,4.95-22-7.78Z" style="fill:#dbe3f3"/><path d="M50.11,243.65c-3.34-12.74-8.08-26.3-8.72-34.42s0-9.7,1.11-17.81c1.14-8.3,16.86-15.14,16.86-15.14l4-2.93S76,184.7,83.76,174.77l5-.25s1,.47,6,1,10.43,12.33,10.43,12.33a188.77,188.77,0,0,0,9.23,23.94c5.22,10.72,24.23,29.31,24.23,29.31-5.48,1.62-6.38,5.38-6.38,5.38-15.12-6-31.91-30.39-31.91-30.39-1.36,1.78-2.45,2.35-3.14,2.51a.77.77,0,0,0-.59.9c2,8.56,7.27,32.37,9.16,33.79l2.77,4.69S77.37,259.06,60.63,269l-6.1,3.6Z" style="fill:#1255cc"/><path d="M100.32,216.1s4.6-6,.94-19.26c0,0,6.43,12,7.9,20s3.52,13.69,9.78,15.79,16.11,9.2,16.11,9.2-2.73,3-2.82,4.67C132.23,246.49,116.39,241,100.32,216.1Z" style="fill:#134aad"/><path d="M107.26,255.85s-40.51-3-44.34-4A37.72,37.72,0,0,1,55.55,249c-13.91-23.85-14.22-49.13-14.22-49.13-.86,4.13,3.48,24.63,6.64,35.4,3.61,12.31,6.4,37.8,6.4,37.8,2.75-2.6,23.85-13.61,48.77-14.67l5.38-.39Z" style="fill:#134aad"/><path d="M64.29,178.29s12.79,10.86,21.73-.4" style="fill:none;stroke:#134aad;stroke-miterlimit:10"/><path d="M73.74,147.44l11.14,2.67,2.2.45,7.13,2.87,2.58,1.12,3.45,1.79,2.79,1.18-1.28,1.5-2.64-1.14s-3.6-2.53-4.11-1.22l-2.54-.88s.56-1.45-1.5-2.16l-3.79-1.8s-2.37-.61-3.19.19l-9.08-3.1-1.26-.61Z" style="fill:#143b82"/><path d="M83.75,151.3s-1.51,4.16-.45,5.58c0,0,4.18,2.87,7.15,2.14a6.37,6.37,0,0,0,2.43-3.13" style="fill:none;stroke:#143b82;stroke-miterlimit:10"/><path d="M94.54,155.77,94.9,161s3.35,2.1,4.9,1.7a8.5,8.5,0,0,0,2.78-5.21" style="fill:none;stroke:#143b82;stroke-miterlimit:10"/><polygon points="115.45 273.75 130.26 233.42 159.69 227.96 144.38 267.47 115.45 273.75" style="fill:#143b82"/><path d="M102,155.11s7.11-17.28-13.46-23.72c0,0-8.55-2.83-14.68,4.27,0,0-.91-7.33-5.79-6.28,0,0-8.62,0-9.57,6.52,0,0-2.5-2.16-4.8,1.8-3.18,5.46-1.11,7,.12,9,2.83,4.63-1.48,9.63-1.48,9.63s-5.63,3.6-2.79,7.66,4.17,11.83.59,17.9c0,0,5.76-3.37,6.45-3.65s7.54-2.53,11.84-11.77c3.79-8.17,3.08-6.71,1.65-8.76,0,0-3.32-4-2.69-7.35,0,0,.83-3.28,3.26-3A4.21,4.21,0,0,1,73.74,152l1,1.58c1.08-6.73,5.16-5.69,5.16-5.69,4.33-1.55,2.47-3.72,2.47-3.72s1.81,3.63,5.38,3.94S99.57,148.51,102,155.11Z" style="fill:#143b82"/><path d="M88.45,244.26c-13.59-7-13-9.64-14-12.82S79.82,222,79.82,222c-15.74,2.9-20.6-11.72-20.6-11.72L58,208.37c-1.46-4.66-1.38-3.18-1.87-6.12l-.91-.4s2.12,12.83,4.08,19.23c0,0,.13.37.33.9l-.62-1.5s3.53,11.16,4.49,12.34c1.54,2.05,4.23,5.72,5.94,7,7.37,5.3,19.82,5.42,34.39,9l-.3-1S91.62,245.33,88.45,244.26Z" style="fill:#134aad"/><path d="M58.46,135.9A4.27,4.27,0,0,0,58.9,140s-3.33-2.84-5.24-2.32C53.66,137.7,55.42,133.81,58.46,135.9Z" style="fill:#082d63"/><path d="M73.82,135.66a8.7,8.7,0,0,0-5.88,6.56s-.62-6.45,5.55-8.13Z" style="fill:#082d63"/><path d="M66.82,155.4s-.63,8.86-9.59,19.73l-4,4.91s4.16-2.16,5.35-2.75a23.18,23.18,0,0,0,6.9-6.34c2.51-3.64,4.93-8.45,5.65-11.37,0,0,.36-.26-.75-1.41s-3-5.82-3-5.82Z" style="fill:#082d63"/><path d="M83.81,174.58s-2.08.67-6.75-2.3h0s-2.18,4.94-4.27,5.9c0,0,6.4,2.75,11.26-2.61Z" style="fill:#bec9dd"/><path d="M97.18,218.61a19.26,19.26,0,0,1-4.55,1.28c-3.2.6,5.35,7.91,7,12.72Z" style="fill:#134aad"/><path d="M101.37,248.25s8.6.91,7.9,1-3.27,4.42-2,6.56l-4-.3S100,249.29,101.37,248.25Z" style="fill:#1255cc"/><path d="M79.82,222s2.74-1.28,3,1.36-2.52,7-2.52,7-2.72,7.92,2.72,10.93l-3.7.82s-7.78-4.71-8.16-5.77-4.23-7.09-4.23-7.09Z" style="fill:#134aad"/><path d="M153.17,245.24s-6.17,2.87-4.91,8.94c0,0,.71,2.71,2.62.88C150.88,255.06,154.79,250.82,153.17,245.24Z" style="fill:#bec9dd"/><polygon points="159.69 227.96 156.87 226.41 128.02 231.38 113.79 271.69 115.45 273.75 130.26 233.42 159.69 227.96" style="fill:#2262bf"/><path d="M109.78,249.34a27.16,27.16,0,0,0,5.82-.92c2.17-.74,3.63-3.35,4.66-2.82s.46,2.86-.25,3.76l-.58.78s3-.45,4.17.28,5,4.09,5,4.09,2.86,3.49.58,4.75c-3.19,1.76-3.77,2.05-6.78,1.38a15.16,15.16,0,0,1-5.49-2.12s-.51-.64-3.49-1.35a38.88,38.88,0,0,0-6.26-1.4S104.49,250.52,109.78,249.34Z" style="fill:#bec9dd"/><path d="M109.78,249.34s5.14-.14,6.71-1.34,2.37-1.9,2.37-1.9,1-1,1.4-.5-1,1.75-1,1.75-3.86,2.88-5.89,2.85-4.81-.26-4.81-.26S107.41,249.75,109.78,249.34Z" style="fill:#dbe3f3"/><path d="M154.28,371.08s-3.41,9.54,2,11.13c7.11,2.09,26.55,2.34,28.77,1,0,0,4.22-4.15-.9-5.38s-16.93-2.48-19.69-5.94C164.48,371.91,156.26,372.16,154.28,371.08Z" style="fill:#bec9dd"/><path d="M154.28,372s3.75,2.37,10.2.84l1.23-8.19s-4,2.44-11.9-.3Z" style="fill:#1255cc"/><path d="M135.74,371.56s-3.41,9.54,2,11.14c7.11,2.09,26.54,2.34,28.76,1,0,0,4.23-4.15-.89-5.38s-16.94-2.47-19.69-5.94C146,372.39,137.72,372.64,135.74,371.56Z" style="fill:#dbe3f3"/><path d="M135.73,371.56s3.75,2.36,10.21.83l.2-8.8s-3,3.05-10.88.32Z" style="fill:#1255cc"/><path d="M922.2,461.94s3.68,41.66.15,58.51c0,0-3.22,25.2-2.28,31.43s.37,27.85-4.77,39.19c0,0-12,108.5-8.35,131.35,0,0-7,6.21-10.62,1.47S880,650.93,879,624.5s-8.69-90-10.32-96.24c0,0-1.25,30.51-3.82,36.18s-23.55,53.29-22.05,74.13c0,0-6.55,63.54-4.89,70.44,0,0-10.06,3.61-12.2,2.3s-20.92-96.51-.93-156.48c0,0,9.66-23.62,4.47-33.7,3.22,6.26-6.65-40.11,5.59-69.82l-8.42,10.4Z" style="fill:#dbe3f3"/><path d="M893.38,715.85s-6.71,17.86,5.63,18.31,44.1-5.12,47.27-8c0,0,5.5-8.2-3.27-8.48s-35-1-40.71-5.69C902.3,712,897,717,893.38,715.85Z" style="fill:#dbe3f3"/><path d="M899,734.16c-5.3-.16-11.68-5.56-5.63-18.31,0,0-16.81-72.69-16-110.55,0,0-2.37-22.88-2.37-29.19S869.63,533,869.63,533s-18.3-23.1-8.84-53.07c1.92-6.07,26.82,1.58,26.82,1.58s8.67,36.28,3.94,48.11,1.58,38.65,3.16,45,0,31.55,0,31.55-4,115.56,4.17,120.87c0,0,11.36,5.95,29.07,2.35,0,0,18.14-3.08,19.75-6.23a4.77,4.77,0,0,1-3.14,4S922.29,734.89,899,734.16Z" style="fill:#bec9dd"/><path d="M836.65,701.16s15.48,1.85,31.87,3.42c0,0,5,3.12-1.09,6.44s-12.7,3.89-18.18,5c-7.58,1.5-12.34,5.5-24.79,2.89,0,0-2.29-2.89-.4-12.86C824.8,702.08,831.54,705.84,836.65,701.16Z" style="fill:#dbe3f3"/><path d="M860,482.26c1.58,2.36,1.58,30.76-3.94,44.16s-15.78,32.34-19.72,51.27S828.45,697.58,830,702.31l-6,3.71s-22.42-82.58,4.39-164.61c0,0,3.95-10.25,2.37-15s-5.52-38.64-2.37-48.9Z" style="fill:#bec9dd"/><path d="M1006.18,284.64s5.6-7.58,8.32-13.58c0,0,6.85-13.52-8-17.37,0,0-4.46-2.67-10.12,3.44,0,0-9.23-.44-7.73,11.24.94,7.3.39,10.3.39,10.3l.17,4.41Z" style="fill:#dbe3f3;fill-rule:evenodd"/><path d="M995.33,283.65l10.85,1s5.6-7.58,8.32-13.58c0,0,6.85-13.52-8-17.37,0,0,5.35,4.95,1.22,12.48Z" style="fill:#bec9dd;fill-rule:evenodd"/><path d="M876.15,294q4.46-.81,9.32-9.74T906.91,232l27.34,6,3.2,15.27q2.52,11.74,1.62,16.16c-.69,3.37-1.1,7.05-4.85,8.94-1.17.59-4.46,1.22-6.14,1.79-4.71,1.58-8,1.25-13.06-1l1.69,13.84c-4.29-1.6-11.22,2.62-17.69,1.82A152.35,152.35,0,0,0,876.15,294Z" style="fill:#dbe3f3"/><path d="M1005.67,286.62c.05,1.18-1.6,13.32-4.27,24.82C998,326.33,990.89,342.37,990,344.33c-2.41,5.4-7.21,13.4-14.82,15s-5.3,1.26-16.1-.11-26.18-18.33-26.69-10.86c-.68,9.81-7,20.23-7.9,28.44-.35,3.22.48,6.57.3,7.86-.59,4.06-.08,7.66-.88,12.45s-2.87,10.56-3.22,12.87c-2.26,14.72,6.65,65.1,6.26,66.55-.65,2.36-13.86,2.55-31.12,6.51s-17.31-6-25.18-2-16.15-1.88-23.13.17-10.32-2.42-15.94-1-5.81,0-7.29-2.5c-.77-1.27,2.56-23.09,3.16-31.59.55-7.94,2.38-19.67,3.48-32.77.28-3.32,2.44-9.6,2-16.89-.08-1.39.1-7.24-.76-9.59-.29-.79-1-.76-2.24.08q-25.66,2.06-26.29-14.13c-.62-16.17,36.57-76.87,50.44-82s24.06-6.66,34.16-6.48c20,.37,43.06,4.93,53.92,11.12,4.89,2.78,9.21,10.67,13.33,15.93,1.12,1.43,5.27,2.8,8.32,4.43a61.23,61.23,0,0,1,6.84,4.47c1.25.75,1.3-2,4.44-9.65s13.74-28.72,14.68-29.33,4.43,0,9.48,1.62S1005.57,284,1005.67,286.62Z" style="fill:#1255cc;fill-rule:evenodd"/><path d="M1005.67,286.62c.05,1.18-1.6,13.32-4.27,24.82C998,326.33,990.89,342.37,990,344.33c-2.41,5.4-7.21,13.4-14.82,15-.39.08-2,.57-4.77,1a53.39,53.39,0,0,1-13.94-1.83,31.78,31.78,0,0,1-7.39-3.48,135.9,135.9,0,0,0,14.7,2.9c5.32.47,8-.77,8.56-1.27,3.51-3.19,6.83-6.14,8.36-8.33,5.95-8.56,9-18.59,11-24.9,1.3-4.13,1.71-7.89,2.67-11.74a132.63,132.63,0,0,1,4.79-14.48c.74-2,0-5,.35-7.34a22.8,22.8,0,0,0-.26-6.86C1004.32,284.68,1005.57,284,1005.67,286.62Z" style="fill:#134aad;fill-rule:evenodd"/><path d="M933.89,241.89c2.61-7.47-1.27-19.42-1.27-19.42-5.3-14.79-33.79-23.7-49.71-6.51s1.51,39.4,4.94,46.38-2.38,21.87-2.38,21.87" style="fill:#dbe3f3"/><path d="M919.38,258.46c-.3-7.7-5-17.32-4.55-20.93.16-1.33,2.19-.08,3.74-.14,2.6-.1,4.28,20.19,9.48,26.42,1.66,2,4.34,0,10.13-6.07,2.18,11.16,2.06,18.11-2.46,20.93s-10.48,3.84-17.88,3.08a3.5,3.5,0,0,1-2.78-1.32c-.63-.81-.54-5.23-1.3-7.78C918.29,268.39,919.64,265.48,919.38,258.46Z" style="fill:#143b82;fill-rule:evenodd"/><polygon points="931.45 241.27 941.36 250.78 934.79 255.67 931.45 241.27" style="fill:#dbe3f3;fill-rule:evenodd"/><path d="M885.9,481.25s-7-32.59-8.8-48.87-1.4-24.32,0-31.66,5.67-33.35,3.88-39.93-4.72-32.94-4.83-43.43,6.81-32.92,12.1-32.92c0,0-24.81-.23-36.12,7.47,0,0-11.35,6.87-30.7,39.16,0,0-19.18,31.94-17.78,41.81,0,0-2,18.8,27.5,13.2,0,0,1.45.84,1.6,4.18a130.8,130.8,0,0,1-1.06,18.91c-.94,6.53-2.25,18.91-2.25,18.91s-1.39,13-2.09,19.56-1.92,16.61-1.92,16.61-6.44,20.68,6.17,16c0,0,4.71-1.19,7.15.62s8.79.35,8.79.35,5.36-1.4,9.93.42a17.46,17.46,0,0,0,11.5.13c1.7-.72,5.52-3.24,10.8.24,0,0,5.31,2.85,8.41,2Z" style="fill:#134aad"/><path d="M832.35,386.74l-.09-2.54a32.66,32.66,0,0,0,3.52-7.64c2.32-10.25,3.39-16.2,5.1-21.17,3.39-9.84,9.14-17.86,9.36-20.22q.21-2.37-8.4,3.82c-3.58-1.73-6.1-2.06-7.54-1-2.17,1.6.23,10.67-1.61,15.49s-4.58,3.57-7.12,7.39-3,8.16-3.73,8.91q-.72.76-15.83,4.92c0,5,.7,8,2.07,9.17,3.53,2.93,10.25,3.4,13.47,3.28,1.76-.07,3.25.09,4.49.07s2.43-.07,3.75-.14a2.76,2.76,0,0,1,1.36-1Q831.68,386,832.35,386.74Z" style="fill:#06417c;fill-rule:evenodd"/><path d="M906.31,713.9a24.79,24.79,0,0,1-12.93,2l-1.93-8.75s9.11,1.74,14.86-3.11Z" style="fill:#134aad"/><path d="M837.66,701.42l.53-9.69s-7,6.95-16,5.53l1.89,8.76S834.73,706.64,837.66,701.42Z" style="fill:#134aad"/><path d="M830.67,705.56s.61,9.07,4.21,9.16,17.25-1.21,17.25-1.21,17.35-6.93,15.3-2.49a103.42,103.42,0,0,1-16.95,4.74c-1.23.23-7.08,1.93-9.13,2.5s-12.89,2.19-17.48.48c0,0-1.53-7.35.19-12.72A35.25,35.25,0,0,0,830.67,705.56Z" style="fill:#bec9dd"/><path d="M830.67,705.56s-1.15-7.5-1.23-8.82c0,0-4.64,1.28-7.46.21l2.08,9.07S825.92,706.44,830.67,705.56Z" style="fill:#0b3c84"/><path d="M894.91,707.4s.75,8.09.82,8.59l-2.35-.14-1.93-8.75Z" style="fill:#0b3c84"/></svg>