<svg" xmlns="http://www.w3.org/2000/svg" xmlns:xlink="http://www.w3.org/1999/xlink" viewBox="0 0 1366 749"><defs/><defs><linearGradient x1="50%" y1="0%" x2="50%" y2="100%" id="e"><stop stop-color="#FFF" offset="0%"/><stop stop-color="#FFF" stop-opacity=".321" offset="56.147%"/><stop stop-color="#FFF" stop-opacity="0" offset="100%"/></linearGradient><linearGradient x1="50%" y1="0%" x2="50%" y2="100%" id="f"><stop stop-color="#031C50" stop-opacity=".148" offset="0%"/><stop stop-color="#041D52" stop-opacity="0" offset="100%"/></linearGradient><filter x="-316.6%" y="-146.9%" width="733.2%" height="396.4%" filterUnits="objectBoundingBox" id="a"><feOffset dy="2" in="shadowSpreadOuter1" result="shadowOffsetOuter1"/><feGaussianBlur stdDeviation="60.5" in="shadowOffsetOuter1" result="shadowBlurOuter1"/><feColorMatrix values="0 0 0 0 1 0 0 0 0 1 0 0 0 0 1 0 0 0 0.5 0" in="shadowBlurOuter1" result="shadowMatrixOuter1"/><feMorphology radius="1.95" operator="dilate" in="SourceAlpha" result="shadowSpreadOuter2"/><feOffset in="shadowSpreadOuter2" result="shadowOffsetOuter2"/><feGaussianBlur stdDeviation="10" in="shadowOffsetOuter2" result="shadowBlurOuter2"/><feComposite in="shadowBlurOuter2" in2="SourceAlpha" operator="out" result="shadowBlurOuter2"/><feColorMatrix values="0 0 0 0 0.784313725 0 0 0 0 0.870588235 0 0 0 0 1 0 0 0 1 0" in="shadowBlurOuter2" result="shadowMatrixOuter2"/><feMerge><feMergeNode in="shadowMatrixOuter1"/><feMergeNode in="shadowMatrixOuter2"/></feMerge></filter><filter x="-1.5%" y="-21.9%" width="103%" height="132.2%" filterUnits="objectBoundingBox" id="c"><feGaussianBlur stdDeviation="1.5" in="shadowOffsetOuter1" result="shadowBlurOuter1"/><feColorMatrix values="0 0 0 0 0.784313725 0 0 0 0 0.870588235 0 0 0 0 1 0 0 0 0.125109266 0" in="shadowBlurOuter1"/></filter><path d="M152 153.818V38.203C152 15.08 163.836 0 188 0s36 15.08 36 38.203v115.615h-72z" id="b"/><path id="d" d="M151.867 153.43L0 187.612h365L223.364 153.43z"/></defs><g fill="none" fill-rule="evenodd"><g transform="translate(757 321)"><use fill="#000" filter="url(#a)" xlink:href="#b"/><use stroke-opacity=".176" stroke="#C8DEFF" stroke-width=".9" fill="#FFF" xlink:href="#b"/></g><g transform="translate(757 321)"><use fill="#000" filter="url(#c)" xlink:href="#d"/><use fill="url(#e)" xlink:href="#d"/></g><path d="M939.336 431.4s-.997 2.595-.795 6.202c.335 5.988 2.322 14.471 2.322 15.985l1.634 22.482c.596.542 1.097.542 1.503 0 .608-.812 1.774-9.305 1.942-13.837.168-4.533.245-5.891.305-7.733.165-5.061.805-11.26 1.003-12.04l1.899 8.237 1.258 10.628s.946 10.625.7 11.685c.26.528 2.15 1.13 2.506.904.234-.148 1.219-4.82.724-11.681-.256-3.548.334-15.475.44-17.727.058-1.245 1.104-9.833-.93-14.927l1.4 1.783-15.911.04z" fill="#072461"/><path d="M943.752 477.204c-1.496-.158-1.615-1.471-1.754-2.096-.138-.626-.77-2.05.768-2.096 1.025-.03 1.162.162.41.577.72.452 1.29.618 1.71.498 0 0 .362 3.276-1.134 3.117zm7.818-4.987c-.154-.057-1.004-.327-1.246.189-.241.516-.319.846 0 1.858.32 1.01.57 2.72 2.708 2.211.603-.412.796-1.266.58-2.562-.127-.768-1.59-1.528-2.042-1.696zm-19.088-36.597s-.924 1.848 1.003 2.412c0 0 .576.378 1.327-.45 0 0 1.2.08 1.032-1.531-.105-1.008-.027-1.42-.027-1.42l-.011-.607c-.923-.684-1.563-.946-1.923-.785-.648.29-1.267 2.084-1.401 2.382zm26.5-2.4s.747 1.03 1.115 1.85c0 0 .923 1.847-1.004 2.411 0 0-.575.378-1.326-.45 0 0-1.2.08-1.033-1.53.105-1.008.027-1.42.027-1.42l-.027-1.193 2.248.331z" fill="#072461"/><path d="M933.577 433.608l2.492 1.091c.525-3.304.84-5.472.947-6.503.158-1.547.447-3.712.592-6.183.053-.904.376-3.2.457-4.427.304-4.58.224-6.414.266-5.815.117 1.664.126 1.307.28 2.7.023.201 1.035 5.742.923 8.903-.112 3.16-.896 4.238-1.47 6.513-.572 2.276-2.452 4.457-1.995 6.397.456 1.94 1.415 1.348 1.996 1.318 1.15-.06 3.676-3.202 5.666-2.756 2.995.67 3.004-1.022 4.37-.334s2.802-.318 4.012.029c1.21.347.615.87 1.59 1.116.975.246 2.67-.728 2.928-1.145.071-.116-.392-3.01-1.384-5.294-.993-2.283-1.592-3.645-2.121-7.205-.53-3.56.134-5.232.38-7.543.033-.3.059-.581.078-.845.037-.499.369 1.472.54 2.975.07.599 1.123 4.639 1.36 6.774.188 1.682 1.058 9.024 1.147 9.823 1.04.34 1.81.34 2.314 0 .6-.406-.677-10.712-1.28-15.61-.603-4.9.055-9.602-4.158-13.047-1-.817-8.793-3.384-13.973-1.757-4.879 1.532-5.282 5.45-5.31 5.874-.054.785-.296 3.437-.34 4.81-.042 1.35.048 3.712 0 5.079-.026.772-.098 2.504-.098 3.914 0 1.41-.272 11.01-.21 11.148z" fill="#072461"/><path d="M943.757 401.069c-.308 1.092-.719 1.712-1.233 1.859-.514.147 1.504.318 6.053.512-.511-.44-.855-.836-1.029-1.187-.175-.35-.309-.912-.402-1.686l-3.39.502z" fill="#072462"/><path d="M935.223 402.774c.282.306 1.517-.08 3.29-.52.917-.228 1.431-1.133 2.658-1.185.788-.034 1.739-.134 2.586 0 .67.106 1.186-.044 1.754-.094 3.047-.272 5.718-1.033 8.012-2.281.323-.767.211-1.391-.336-1.873-.821-.722-1.663.034-1.98-1.155-.318-1.189.5-1.124.14-2.807-.359-1.683-2.216-1.076-1.942-2.397.273-1.322-.25-3.196-4.545-3.495-1.735-.12-4.816.529-6.31 3.704-.551 1.171-.413 4.436-1.242 7.044-.307.963-.927 1.887-1.393 2.852-.496 1.024-.825 2.063-.692 2.207z" fill="#072462"/><path fill="url(#f)" d="M186.141 153.818L149 188l85-.383-39.31-33.702z" transform="translate(757 321)"/><path d="M1219 105h56v43h-56zm-486 75h56v43h-56zm176-65h56v43h-56zm285 291h56v43h-56z"/></g></svg>