<svg xmlns="http://www.w3.org/2000/svg" xmlns:xlink="http://www.w3.org/1999/xlink" viewBox="0 0 1366 744"><defs><linearGradient id="a" x1="23.94%" x2="26.376%" y1="34.944%" y2="63.814%"><stop offset="0%" stop-color="#092767"/><stop offset="100%" stop-color="#031B4E"/></linearGradient><ellipse id="b" cx="97.5" cy="97.768" rx="97.5" ry="97.768"/><circle id="f" cx="61.573" cy="61.573" r="61.573"/><path id="d" d="M17.783 194.579c7.49 0 14.782-.847 21.787-2.45a96.545 96.545 0 0012.071-3.606c37.158-13.799 63.642-49.654 63.642-91.712 0-44.452-29.584-81.974-70.086-93.85A96.677 96.677 0 0033.073.238c-4.981-.787 57.682 23.448 54.002 103.337-3.679 79.888-101.298 87.087-85.043 89.735a97.931 97.931 0 0015.751 1.269z"/></defs><g fill="none" fill-rule="evenodd"><path fill="url(#a)" d="M32 35h1366v744H32z" transform="translate(-32 -35)"/><path fill="#C8DEFF" d="M754.414 199.36c2.68-.524 4.44-1.193 5.28-2.004.84-.812 1.478-2.459 1.913-4.942.344 2.706.91 4.467 1.698 5.283.789.816 2.538 1.453 5.249 1.91-2.676.133-4.426.597-5.249 1.392-.823.795-1.47 2.646-1.944 5.555-.327-2.89-.882-4.742-1.668-5.555-.785-.813-2.545-1.36-5.279-1.638z" opacity=".3" style="animation:half-flashing linear 2.5s infinite"/><path fill="#BBC4D8" d="M421.414 156.36c2.68-.524 4.44-1.193 5.28-2.004.84-.812 1.478-2.459 1.913-4.942.344 2.706.91 4.467 1.698 5.283.789.816 2.538 1.453 5.249 1.91-2.676.133-4.426.597-5.249 1.392-.823.795-1.47 2.646-1.944 5.555-.327-2.89-.882-4.742-1.668-5.555-.785-.813-2.545-1.36-5.279-1.638z" opacity=".9" style="animation:flashing linear 2s infinite"/><path d="M394 135h56v43h-56z"/><path fill="#BBC4D8" d="M65.414 177.36c2.68-.524 4.44-1.193 5.28-2.004.84-.812 1.478-2.459 1.913-4.942.344 2.706.91 4.467 1.698 5.283.789.816 2.538 1.453 5.249 1.91-2.676.133-4.426.597-5.249 1.392-.823.795-1.47 2.646-1.944 5.555-.327-2.89-.882-4.742-1.668-5.555-.785-.813-2.545-1.36-5.279-1.638z" opacity=".9" style="animation:flashing linear 2.5s 1s infinite"/><path d="M38 156h56v43H38z"/><path fill="#BBC4D8" d="M202.414 586.36c2.68-.524 4.44-1.193 5.28-2.004.84-.812 1.478-2.459 1.913-4.942.344 2.706.91 4.467 1.698 5.283.789.816 2.538 1.453 5.249 1.91-2.676.133-4.426.597-5.249 1.392-.823.795-1.47 2.646-1.944 5.555-.327-2.89-.882-4.742-1.668-5.555-.785-.813-2.545-1.36-5.279-1.638z" opacity=".9" style="animation:half-flashing linear 2s infinite"/><path d="M175 565h56v43h-56z"/><path fill="#FFF" d="M928.656 136.435c1.072-.21 1.776-.478 2.112-.802.336-.325.591-.984.765-1.977.138 1.082.364 1.787.68 2.113.315.327 1.015.581 2.099.764-1.07.054-1.77.24-2.1.557-.329.318-.588 1.059-.777 2.222-.13-1.156-.353-1.897-.667-2.222-.314-.325-1.018-.544-2.112-.655z" opacity=".7" style="animation:flashing linear 2s .9s infinite"/><path fill="#FFF" d="M1216 428.779c1.072-.21 1.776-.478 2.112-.802.336-.325.591-.984.765-1.977.138 1.082.364 1.787.68 2.113.315.327 1.015.581 2.099.764-1.07.054-1.77.24-2.1.557-.329.318-.588 1.059-.777 2.222-.13-1.156-.353-1.897-.667-2.222-.314-.325-1.018-.544-2.112-.655z" opacity=".7" style="animation:flashing linear 2s infinite"/><g fill="#FFF"><path d="M631 128.779c1.072-.21 1.776-.478 2.112-.802.336-.325.591-.984.765-1.977.138 1.082.364 1.787.68 2.113.315.327 1.015.581 2.099.764-1.07.054-1.77.24-2.1.557-.329.318-.588 1.059-.777 2.222-.13-1.156-.353-1.897-.667-2.222-.314-.325-1.018-.544-2.112-.655z" opacity=".7"/><path fill="none" d="M606 99h56v43h-56z"/></g><g fill="#FFF"><path d="M631 529.779c1.072-.21 1.776-.478 2.112-.802.336-.325.591-.984.765-1.977.138 1.082.364 1.787.68 2.113.315.327 1.015.581 2.099.764-1.07.054-1.77.24-2.1.557-.329.318-.588 1.059-.777 2.222-.13-1.156-.353-1.897-.667-2.222-.314-.325-1.018-.544-2.112-.655z" opacity=".7" style="animation:flashing linear 2s infinite"/><path fill="none" d="M606 500h56v43h-56z"/></g><g fill="#FFF"><path d="M266 107.779c1.072-.21 1.776-.478 2.112-.802.336-.325.591-.984.765-1.977.138 1.082.364 1.787.68 2.113.315.327 1.015.581 2.099.764-1.07.054-1.77.24-2.1.557-.329.318-.588 1.059-.777 2.222-.13-1.156-.353-1.897-.667-2.222-.314-.325-1.018-.544-2.112-.655z" opacity=".7"/><path fill="none" d="M241 78h56v43h-56z"/></g><g fill="#FFF"><path d="M1282 602.779c1.072-.21 1.776-.478 2.112-.802.336-.325.591-.984.765-1.977.138 1.082.364 1.787.68 2.113.315.327 1.015.581 2.099.764-1.07.054-1.77.24-2.1.557-.329.318-.588 1.059-.777 2.222-.13-1.156-.353-1.897-.667-2.222-.314-.325-1.018-.544-2.112-.655z" opacity=".7"/><path fill="none" d="M1257 573h56v43h-56z"/></g><path fill="#C8DEFF" d="M1102.035 167.898c1.67-.368 2.799-.836 3.387-1.404.588-.568 1.137-1.72 1.648-3.459.4 1.735.874 2.888 1.426 3.46.552.57 1.697 1.096 3.437 1.575-1.58.315-2.725.798-3.437 1.447-.712.65-1.244 1.788-1.598 3.416-.435-1.871-.927-3.092-1.476-3.66-.55-.57-1.679-1.028-3.387-1.375z" opacity=".4" style="animation:flashing linear 2s infinite"/><path d="M1090 147h56v43h-56z"/><path fill="#C8DEFF" d="M1241.035 273.898c1.67-.368 2.799-.836 3.387-1.404.588-.568 1.137-1.72 1.648-3.459.4 1.735.874 2.888 1.426 3.46.552.57 1.697 1.096 3.437 1.575-1.58.315-2.725.798-3.437 1.447-.712.65-1.244 1.788-1.598 3.416-.435-1.871-.927-3.092-1.476-3.66-.55-.57-1.679-1.028-3.387-1.375z" opacity=".4" style="animation:half-flashing linear 2s .8s infinite"/><path d="M1229 253h56v43h-56z"/><path fill="#C8DEFF" d="M997.035 212.898c1.67-.368 2.799-.836 3.387-1.404.588-.568 1.137-1.72 1.648-3.459.4 1.735.874 2.888 1.426 3.46.552.57 1.697 1.096 3.437 1.575-1.58.315-2.725.798-3.437 1.447-.712.65-1.244 1.788-1.598 3.416-.435-1.871-.927-3.092-1.476-3.66-.55-.57-1.679-1.028-3.387-1.375z" opacity=".4"/><path d="M985 192h56v43h-56z"/><path fill="#C8DEFF" d="M1237 120.863c1.67-.368 2.799-.836 3.387-1.404.588-.568 1.137-1.72 1.648-3.459.4 1.735.874 2.888 1.426 3.46.552.57 1.697 1.096 3.437 1.575-1.58.315-2.725.798-3.437 1.447-.712.65-1.244 1.788-1.598 3.416-.435-1.871-.927-3.092-1.476-3.66-.55-.57-1.679-1.028-3.387-1.375z" opacity=".4"/><path fill="#95C0FF" d="M695.828 372.385c1.908-.42 3.198-.954 3.87-1.603.673-.65 1.3-1.967 1.885-3.954.455 1.983.998 3.3 1.629 3.954.63.652 1.94 1.253 3.928 1.8-1.805.36-3.115.912-3.928 1.654-.813.742-1.422 2.043-1.827 3.904-.496-2.139-1.058-3.533-1.686-4.184-.629-.65-1.919-1.174-3.871-1.57z" opacity=".4"/><path d="M662 351h56v43h-56zm557-247h56v43h-56zm-486 74h56v43h-56zm176-64h56v43h-56zm285 289h56v43h-56z"/><g data-direction="top" data-speed=".1" data-start="0" transform="translate(943 278)"><circle cx="30" cy="37" r="29" fill="#81CBFF"/><path fill="#0096FF" d="M47.815 60.312a28.878 28.878 0 01-21.506 5.23c9.936-2.87 16.135-10.974 18.595-24.314 2.46-13.34-2.48-24.564-14.82-33.673 9.198-.2 18.34 3.98 24.159 12.018 9.432 13.031 6.554 31.27-6.428 40.739z"/></g><path fill="#9ABBDC" fill-rule="nonzero" d="M1332.847 119.02l-8.124 10.25c-.14 1.7-.738 5.389-.02 7.375.681 1.888 1.822 4.782 4.383 6.463 2.561 1.68 9.103-.245 8.88-.733-.136-.197.28-1.03 1.245-2.499.641-.976 1.858-1.302 3.168-4.356.575-1.342 1.154-3.096 1.34-6.298.063-1.104.383-3.055.958-5.852l-8.95-3.291-2.88-1.06z"/><path fill="#7898B9" fill-rule="nonzero" d="M1332.739 119.04c-.936 1.288-1.666 2.123-2.189 2.506-4.418 3.234-7.042 4.68-7.13 5.694-.105 1.194.302 2.247 1.22 3.16-1.195 2.579-1.626 4.335-1.292 5.27.675 1.884 3.199 5.777 5.712 7.46 2.514 1.684 9.14-.308 8.94-.748l-.969-.882c-4.626.997-7.512.706-8.658-.872-.92-1.267.15-2.288.034-3.303-.101-.88-1.52-1.7-.66-3.388 1.237-2.423 3.735-7.035 7.494-13.836l-2.502-1.06z"/><g fill-rule="nonzero"><path fill="#9ABBDC" d="M1142.342 127.782c-13.41 8.248-19.585 13.889-18.523 16.924 1.062 3.035 3.755 5.866 8.078 8.494l-10.215 10.203c-2.84 3.153-3.852 5.08-3.037 5.78 1.223 1.05 3.987-1.09 8.008-4.528 5.041-4.31 10.92-8.604 15.27-13.72 2.208-2.595 5.426-6.844 9.655-12.748"/><path fill="#7898B9" d="M1142.342 127.782c-13.41 8.248-19.585 13.889-18.523 16.924 1.062 3.035 3.755 5.866 8.078 8.494l-10.815 10.843c-2.454 2.822-3.241 4.552-2.362 5.19.56.407 2.165-2.496 4.627-5.358 3.309-3.848 10.98-9.436 10.451-11.24-.626-2.14-2.92-2.696-4.493-4.197-2.145-2.047-3.718-3.956-3.385-5.08.624-2.105 6.695-6.572 18.215-13.4l-1.793-2.176z"/></g><path fill="#002465" fill-rule="nonzero" d="M1151.75 138.554c-.628.345-3.55-3.154-8.765-10.497 33.317-40.432 50.453-61.535 51.407-63.31 1.431-2.663 6.531-11.308 8.708-15.247 3.616-6.547 7.28-13.28 11.78-19.263 4.5-5.983 2.91-1.839 13.199-15.803 6.858-9.31 16.613-23.522 29.263-42.635 17.054 18.14 30.121 33.045 39.202 44.717 9.08 11.672 16.633 23.4 22.658 35.186-3.041 7.155-2.115 12.73-5.778 16.994-.43.5 1.914-6.237 7.031-20.21 7.614-7.775 15.13-9.777 22.55-6.007 7.42 3.77 10.296 15.643 8.629 35.62-4.76 30.46-7.318 45.775-7.673 45.947-.532.258-13.346-1.442-13.606-2.056-.13-.306-1.567-13.002-4.313-38.087-10.894 9.727-16.613 14.684-17.158 14.871-4.108 1.41-11.593 7.036-24.39 5.957-22.891-1.929-62.82-18.3-64.583-21.382-1.764-3.082-15.977 8.508-25.022 15.892-9.045 7.384-14.14 11.532-22.222 19.618-8.083 8.085-19.976 19.177-20.917 19.695z"/><path fill="#0096FF" fill-rule="nonzero" d="M1151.62 138.635c-.088.049-.511-.13-.412-.238 1.606-1.746 13.272-12.592 20.97-20.314 12.31-12.349 24.729-20.627 23.21-19.5-9.664 7.166-14.346 11.749-22.547 19.986-8.2 8.237-20.265 19.538-21.22 20.066zm174.814-55.165c-9.216 8.72-14.975 13.596-17.276 14.626-3.451 1.546-11.666 6.925-24.53 5.888-2.775-.224-5.799-.653-8.974-1.241 10.177.117 18.102-.688 23.776-2.413 7.255-2.206 16.256-7.826 27.004-16.86z"/><path fill="#011B49" fill-rule="nonzero" d="M1253.417-21.614c.808-1.211 2.346-3.331 4.614-6.36 16.973 18.133 29.991 33.013 39.052 44.641 9.062 11.628 16.598 23.313 22.61 35.054-2.023 4.753-3.354 6.73-3.99 5.934-10.34 12.879-15.84 18.742-16.5 17.589-2.393-4.18-.873-14.11-2.38-19.141-.704-2.345 10.941 3.034 10.31.7-.107-.394 2.806-.668 1.414-3.393-6.263-12.25-26.814-44.692-31.593-50.217-9.67-11.178-17.516-19.447-23.537-24.807zm-31.471 97.705c5.404 3.103 12.034 3.608 19.267 9.103 7.233 5.495 10.559 11.11 5.675 9.394-14.035-4.932-27.528-11.124-28.457-12.743-.602-1.053-4.051-2.75-3.314-3.768.737-1.016 1.426-5.088 6.83-1.986zm-76.908 54.7c-1.91-1.795-2.786-2.925-2.626-3.39.46-1.334 37.019-44.028 44.518-53.41 1.58-1.976 3.612-4.57 6.098-7.783.613 1.577 3.543 1.435 1.631 4.672-1.255 2.127-5.65 5.777-10.47 12.102-7.587 9.953-20.637 25.89-39.151 47.81z"/><path fill="#032664" fill-rule="nonzero" d="M1200.72 136.243l-5.635 15.344c-2.375 6.653-3.456 10.98-3.244 12.98.145 1.368 1.201 3.71 1.676 4.834.924 2.184 3.198 1.685 6.286 4.51 4.522 4.137 10.822 5.765 19.189 7.852 4.101 1.024 16.076 2.412 18.542 2.24 1.643-.115 4.614-1.502 8.911-4.16 2.991-2.098 4.646-3.674 4.966-4.729.32-1.054-.999-1.558-3.956-1.51"/><path fill="#0D3B8F" fill-rule="nonzero" d="M1245.684 176.266l13.344-7.377 3.877-2.734c4.066-6.688 6.353-14.55 6.86-23.587.759-13.554 1.778-16.812-1.065-27.221-1.896-6.94-4.565-12.32-8.007-16.143.238-.336-.966-.972-3.61-1.91-2.646-.937-5.792-1.574-9.44-1.912-3.102 1.394-4.883 2.14-5.345 2.237-.149.032-.334.226-.48.255-2.224.449-7.953 2.585-17.187 6.41-8.757 9.372-13.916 15.39-15.478 18.056-2.342 3.997-19.278 25.047-14.58 34.22 3.132 6.116 12.625 12.691 28.48 19.725l22.631-.019z"/><path fill="#0096FF" fill-rule="nonzero" d="M1245.776 175.835c2.229.047 4.757-.555 7.583-1.805 2.826-1.25 6.008-3.876 9.546-7.875 4.066-6.688 6.353-14.55 6.86-23.587.759-13.554 1.778-16.812-1.065-27.221-.285 20.059-1.614 33.23-3.988 39.515-2.74 7.253-9.053 14.244-18.936 20.973z"/><path fill="#072E77" fill-rule="nonzero" d="M1245.951 176.08c2.445-.407 4.249-.82 5.412-1.24l1.33-4.228c-4.527 1.325-9.179 1.85-14.582 1.814-11.628-.08-22.576-6.922-27.669-11.992-5.093-5.07-6.653-13.128-4.821-20.328 1.831-7.2 13.457-24.336 21.66-32.631 4.81-4.865 14.115-10.264 21.137-11.834.64-.143.37-.267-.811-.373a6.79 6.79 0 00-.633.05c-.08.011-.084.058-.164.07-7.993 1.232-15.058 3.883-21.153 7.957-9.451 6.318-34.134 45.701-30.903 53.042 3.23 7.341 11.991 12.929 24.557 18.415 8.377 3.657 17.257 4.083 26.64 1.277z"/><path fill="#0096FF" fill-rule="nonzero" d="M1205.446 125.057c3.296-2.045 13.882-8.414 34.251-5.422 13.58 1.994 9.847 9.342-1.64 7.887-17.484-2.214-30.45 1.123-33.12 3.775-.966.958-1.452 2.027-2.383 3.757-.524.974-1.451 2.8-2.783 5.48l-4.814 13.872c-6.28 11.431-2.825 16.232 15.15 24.182 8.597 3.802 19.647 5.251 25.85 4.769 6.768-.527 13.664-6.918 14.648-8.27.983-1.353 2.183-4.372 2.223-4.42l.531 3.363c-3.332 4.743-3.677 4.943-4.861 6.392-1.628 1.992-4.135 3.555-4.572 3.848-7.62 5.107-19.898 3.422-31.083.133-11.186-3.29-15.178-6.85-19.232-10.715-6.513-6.207-7.289-11.106-6.447-14.45.491-1.955 4.545-10.687 12.16-26.196 2.654-4.438 4.694-7.1 6.122-7.985z"/><path fill="#0475C5" fill-rule="nonzero" d="M1221.173 119.434c4.94-.721 11.045-.867 18.43.206 12.095 1.759 21.855 6.244 28.496 12.59a157.97 157.97 0 01-.25 3.791 331.857 331.857 0 01-.531 5.55c-8.812-7.907-18.813-12.734-29.367-14.056-8.958-1.122-18.136-.78-24.857.56l3.47-7.668c.643-.233 1.134-.385 1.472-.457.686-.144 1.732-.316 3.137-.516z"/><path fill="#011B49" fill-rule="nonzero" d="M1206.242 79.448c-6.762-2.469-10.542-4.652-11.343-6.55-.344-.816-3.325-2.349-2.685-5.19.28-1.243 1.736-2.547 3.043-4.807.306-.529.632-1.241 1.128-2.105.629-1.096 1.942-3.34 3.938-6.735.82 10.189 1.273 16.193 1.361 18.014.088 1.82 1.607 4.279 4.558 7.373zm39.41 14.643c-.812-.81-1.23-2.053-1.253-3.73-.099-6.976-3.274-13.803-4.056-28.714-.52-9.941.148-20.126 2.008-30.555 3.266-12.705 6.413-20.966 9.438-24.781 5.307-6.693 16.277-14.147 24.679-13.84.34.013-1.018 7.333 2.266 11.156 8.29 9.649 22.023 27.147 18.536 35.244-4.869 11.306-17.922 15.604-23.992 22.572s-6.783 14.529-10.096 20.321c-3.314 5.793-5.152 7.997-6.152 9.99-1.032 2.057-3.826 3.49-9.142 3.108-.395-.029-1.14-.285-2.236-.77z"/><path fill="#0D3B8F" fill-rule="nonzero" d="M1248.32 94.461c.65-2.179.967-4.046.95-5.603-.072-6.475-3.221-12.8-3.947-26.638-.483-9.225.224-18.681 2.122-28.369 15.379-28.67 31.68-41.808 48.905-39.414 25.837 3.59 23.677 28.545 18.766 39.058-2.33 4.987-6.427 11.412-14 16.108-8.389 5.202-20.337 8.58-23.54 11.99-6.096 6.49-6.16 13.826-9.494 19.215-3.335 5.389-5.18 7.442-6.188 9.295-.885 1.627-.515 3.667-.602 4.96-.084 1.241-.64 1.748-.747 2.706-.31 2.759-4.384 1.656-12.225-3.308z"/><path fill="#0096FF" fill-rule="nonzero" d="M1276.183 59.413c6.98-5.857 15.884-8.355 21.963-12.003 6.24-3.745 10.252-8.99 12.194-12.041 2.022-3.178 4.286-11.339 6.793-24.482 2.277 8.125.488 17.245-2.017 22.608-2.33 4.987-6.427 11.412-14 16.108-8.389 5.202-20.337 8.579-23.54 11.99-6.096 6.49-6.16 13.826-9.494 19.215-3.335 5.389-5.18 7.442-6.188 9.295-.885 1.627-.515 3.667-.602 4.96-.084 1.241-.64 1.748-.747 2.706-.149 1.33-2.134-2.652-.574-8.265 1.065-3.829 5.177-6.777 7.254-11.304 3.022-6.59 3.94-14.575 8.958-18.787z"/><path fill="#072E77" fill-rule="nonzero" d="M1248.32 94.461c.65-2.179.967-4.046.95-5.603-.072-6.475-3.221-12.8-3.947-26.638-.483-9.225.224-18.681 2.122-28.369 15.22-28.601 31.443-41.705 48.668-39.311-22.56 14.742-35.718 26.037-39.474 33.884-5.634 11.771-4.906 31.028-5.39 36.311-.486 5.284.9 14.834 1.107 21.136.063 1.914-.23 5.412-.88 10.493a130.247 130.247 0 01-3.156-1.903z"/><g fill-rule="nonzero"><path fill="#BBE2FF" d="M1260.774 99.274c-2.4-1.246-4.773-2.198-7.122-2.855a25.389 25.389 0 00-3.42-.714c-.78-.106-1.935-.173-3.466-.203l1.673-4.01c1.218-.152 2.213-.18 2.986-.085 1.221.153 2.625.497 4.21 1.033 3.09 1.045 4.969 1.918 5.638 2.62l-.499 4.214z"/><path fill="#7FBBE8" d="M1250.231 95.705c-.779-.106-1.934-.173-3.465-.203l1.673-4.01c1.218-.152 2.213-.18 2.986-.085-.476.894-.784 1.593-.924 2.097-.125.451-.215 1.185-.27 2.201z"/></g><path fill="#011B49" fill-rule="nonzero" d="M1295.272 84.182c1.06-5.671 1.998-9.266 2.815-10.783.115-.214-.289-.932-.168-1.122 6.967-11.045 15.32-16.692 16.052-18.177.82-1.664 4.42-2.715 6.56-5.345 2.14-2.63 3.02-3.114 7.023-5.334 4.004-2.22 7.07-2.11 9.083-2.135 1.974-.024 6.516 1.204 8.752 2.958.819.643 1.654 1.984 2.506 4.024-8.47-1.367-14.002-1.446-16.596-.239-6.073 2.827-14.627 8.599-15.394 9.79-.985 1.528-7.612 7.258-15.465 17.14-1.46 1.838-3.183 4.913-5.168 9.223z"/><g class="parallax" data-direction="top" data-speed=".4" data-start="0"><g transform="rotate(-3 10417.326 -21058.95)"><mask id="c" fill="#fff"><use xlink:href="#b"/></mask><use fill="#1D4EA8" fill-rule="nonzero" xlink:href="#b"/><ellipse cx="26.368" cy="86.954" fill="#2B5CB6" fill-rule="nonzero" mask="url(#c)" rx="57.028" ry="57.185"/><g mask="url(#c)"><g transform="translate(79.717 .957)"><mask id="e" fill="#fff"><use xlink:href="#d"/></mask><use fill="#134092" fill-rule="nonzero" xlink:href="#d"/><g mask="url(#e)"><g fill-rule="nonzero" transform="translate(90.755 119.562)"><ellipse cx="14.104" cy="15.987" fill="#02215D" rx="14.104" ry="15.987"/><path fill="#00194A" d="M14.104 7.574c6.602 0 11.303 3.214 14.104 9.643C28.208 7.708 21.893 0 14.104 0 6.314 0 0 7.708 0 17.217c2.8-6.429 7.502-9.643 14.104-9.643z"/></g></g></g></g><g fill-rule="nonzero" transform="translate(18.396 61.49)"><ellipse cx="14.717" cy="15.157" fill="#1D4EA8" rx="14.717" ry="14.757"/><path fill="#05296E" d="M14.717 5.93c7.358 0 12.264 3.076 14.717 9.227C29.434 7.007 22.844.4 14.717.4 6.589.4 0 7.007 0 15.157 2.453 9.006 7.358 5.93 14.717 5.93z"/></g><g fill-rule="nonzero" transform="translate(116.51 59.03)"><ellipse cx="14.104" cy="14.143" fill="#05296E" rx="14.104" ry="14.143"/><path fill="#02215D" d="M14.104 6.492c6.602 0 11.303 2.755 14.104 8.265C28.208 6.607 21.893 0 14.104 0 6.314 0 0 6.607 0 14.757c2.8-5.51 7.502-8.265 14.104-8.265z"/></g><ellipse cx="90.142" cy="33.819" fill="#05296E" fill-rule="nonzero" rx="6.745" ry="6.764"/><path fill="#02215D" fill-rule="nonzero" d="M90.142 30.301c3.157 0 5.405 1.378 6.745 4.133 0-4.075-3.02-7.379-6.745-7.379-3.726 0-6.746 3.304-6.746 7.379 1.34-2.755 3.588-4.133 6.746-4.133z"/><g fill-rule="nonzero" transform="translate(79.717 130.357)"><ellipse cx="16.557" cy="16.602" fill="#05296E" rx="16.557" ry="16.602"/><path fill="#02215D" d="M16.557 7.256c7.7 0 13.219 3.32 16.556 9.961C33.113 7.708 25.701 0 16.557 0 7.413 0 0 7.708 0 17.217c3.337-6.64 8.856-9.96 16.557-9.96z"/></g></g><path fill="#9ABBDC" fill-rule="nonzero" d="M1182.235 489.493l5.02-.263c1.074 4.987 1.409 7.491 1.003 7.512-.405.022-2.557.628-6.456 1.82l.433-9.07z"/><path fill="#7898B9" fill-rule="nonzero" d="M1185.085 489.343l2.17-.113c1.074 4.987 1.409 7.491 1.003 7.512-.24.013-1.098.232-2.572.658.287-.744.42-1.25.4-1.517-.113-1.523-.447-3.703-1.001-6.54z"/><path fill="#002465" fill-rule="nonzero" d="M1173.347 527.18c.368 1.676.39 2.949.063 3.817-.49 1.304-2.48 1.832-3.717 1.897-1.237.065-2.127-.772-2.667-1.562s-.774-4.33.138-5.077c.912-.747 1.24 1.184 1.888 1.15l4.295-.225z"/><path fill="#002465" d="M1180.48 533.187c-1.825-.952-3.473-2.548-4.45-4.179-.652-1.087-1.289-3.097-1.91-6.028-.47 2.907-.863 5.133-1.179 6.68-.473 2.32-5.162 2.812-5.234.494-.026-.834-.022-1.825 0-3.647.084-6.89-.666-9.05-.769-11.016-.103-1.966-.015-8.875 2.881-9.027.467-.024 1.63-.532 3.043-.16 1.412.373.87 1.407 1.679 1.325 3.135-.319 6.006-2.189 7.199-1.773 2.245.783.568 9.569.568 9.569s17.812 1.177 17.357 7.636c-.455 6.458-2.278 7.508-6.635 9.152-4.357 1.643-10.723 1.926-12.55.974zm36.051-11.669c-2.252.612-4.55.938-6.79.356-1.39-.361-2.517-.87-4.293-2.627-1.184-1.17-1.847-2.89-1.99-5.159l-5.29 1.58c-.423-.03-.627-.652-.613-1.867.085-6.89-.665-9.049-.768-11.015-.103-1.967-.749-7.425 2.148-7.577 2.896-.152 4.44 2.966 6.381 3.584 1.942.618 4.517 2.875 4.517 2.875s16.336 5.941 16.726 10.613c.05.593-.155 4.882-3.244 6.627-3.088 1.745-4.532 1.998-6.784 2.61z"/><path fill="#0D3B8F" fill-rule="nonzero" d="M1187.78 496.591c5.987-.53 9.534.21 10.64 2.217 1.66 3.011 1.061 6.03 1.183 8.367.123 2.336 1.9 15.79-.58 18.505-2.48 2.716-2.333 2.903-6.967 4.488-4.634 1.585-8.061 2.004-10.115 1.21-2.053-.793-3.814-2.867-4.522-4.97-.708-2.105-.212-4.05-.324-6.174-.11-2.125-.14-2.693-.977-5.791-.836-3.098-1.971-4.41-3.098-10.162-.264-1.346-2.232-2.797-2.912-4.069-3.955-7.396-12.45-14.342-11.717-18.382.376-2.074 3.157-.285 3.387.054.875 1.287 16.877 16.46 17.226 16.442.233-.012 3.158-.59 8.775-1.735z"/><path fill="#082C6F" fill-rule="nonzero" d="M1187.78 496.591c5.987-.53 9.534.21 10.64 2.217 1.66 3.011 1.061 6.03 1.183 8.367.123 2.336 1.9 15.79-.58 18.505-.85.931-1.8 2.115-2.864 2.797-.94.602-1.994.876-2.651 1.204-.18.09.865-4.646 1.244-8.826.379-4.18-.74-16.273-2.98-19.547-2.241-3.275-8.785-3.746-7.316-4.042l3.323-.675z"/><path fill="#9ABBDC" fill-rule="nonzero" d="M1161.823 482.062l-.904-1.022-.89-1.49-.985-1.569c-.438-.81-.845-1.05-1.219-.721-.407.359.867 1.194.743 1.55-.047.135-.54-.579-.885-.873-.864-.737-1.8-1.635-2.419-1.712-.619-.076-.689.319-.654.496.024.12.576.796 1.656 2.031-.92.942-1.423 1.755-1.506 2.437-.083.682 1.57 1.843 4.962 3.481"/><path fill="#0D3B8F" fill-rule="nonzero" d="M1213.979 482.604c5.672-.113 9.138.073 10.399.556 1.89.726 3.226 1.07 3.448 3.117.223 2.046-.2 4.663-1.152 9.932-.43 2.384-1.529 5.41-1.479 8.273.06 3.465 1.729 6.655 1.146 7.728-1.066 1.958-2.086 4.183-6.679 5.755-4.593 1.57-7.053.38-9.264-.393-2.21-.772-4.73-2.586-4.88-5.447-.077-1.473 1.502-4.115 1.309-7.799-.194-3.684-3.331-11.275-3.976-13.874-.645-2.6-21.71-20.874-21.031-21.03.881-.201-13.133-.202 3.263-.17 12.944 10.26 19.755 15.791 20.433 16.594.678.803 3.499-.278 8.463-3.242z"/><path fill="#082C6F" fill-rule="nonzero" d="M1213.979 482.604c5.672-.113 9.138.073 10.399.556 1.89.726 3.226 1.07 3.448 3.117.223 2.046-.2 4.663-1.152 9.932-.43 2.384-1.529 5.41-1.479 8.273.06 3.465 1.729 6.655 1.146 7.728-1.066 1.958-2.086 4.183-6.679 5.755-.935.32-1.781.525-2.555.643-.877.133 3.072-3.442 2.563-7.948-.17-1.506.765-4.015.164-7.129-.6-3.113 1.041-4.366.565-6.187-.67-2.565-2.81-7.479-6.42-14.74z"/><g fill-rule="nonzero"><path fill="#5DA5FF" d="M1214.624 480.407c3.72-.195 6.52-4.477 6.253-9.564-.267-5.087-3.346-6.138-7.066-5.943-3.72.195-6.673 1.562-6.406 6.649.267 5.087 3.498 9.052 7.219 8.858z"/><path fill="#9ABBDC" d="M1210.46 478.624l5.356-.281c1.046 3.413 1.353 5.13.92 5.153-.432.023-2.565.553-6.399 1.592l.124-6.464z"/><path fill="#011F55" d="M1208.57 466.259c-1.057 1.349-1.959 3.098-1.534 5.793.222 1.409.461 3.255 1.333 4.7.796 1.317 1.27 2.554 1.957 3.67 1.605 2.607 2.894 1.967 2.704 4.73-.19 2.762-3 15.199 3.874 14.839 6.875-.36 7.7-4.893 7.484-9.013-.215-4.12-2.825-9.372-4.317-12.088-.728-1.324 2.086-5.043 2.211-7.814.132-2.916-1.6-4.812-3.559-5.712-.707-.325-1.496-1.467-2.444-1.97-1.008-.536-2.177-.423-2.984-.396-2.539.086-4.071 2.426-4.725 3.26z"/><path fill="#021A45" d="M1216.643 465.878c.222 1.41 1.782 5.789 2.469 6.904.514.837-3.608 5.61-1.78 6.251 1.7.595 1.476 4.353 2.647 5.828 1.5 1.888-.598 7.61 2.024 7.473 1.698-.088-2.073 7.224-1.037 6.696 3.157-1.613 3.585-4.95 3.422-8.052-.215-4.12-2.825-9.372-4.317-12.088-.728-1.324 2.086-5.043 2.211-7.814.132-2.916-1.435-6.144-3.395-7.044-.299-.137-1.242-.79-2.238-.972-1.355-.247-2.875-.085-3.34-.07 1.94.13 3.051 1.092 3.334 2.888z"/></g><path fill="#00163D" d="M1172.425 515.677l1.696 7.303-.839 4.882c-.423 1.86-.827 2.872-1.213 3.038-.386.166-.967.382-1.745.646.46-5.165.67-8.123.63-8.876-.039-.753-.007-3.162.097-7.227l-.08-1.507 1.454 1.741zm30.057-11.359l.392 7.491.585 2.28-1.107.327-.33-6.298c-.027-.527-.23-1.838-.608-3.932-.089.311-.211.318-.368.02-.157-.299-.301-.813-.433-1.544l1.869 1.656z"/><path fill="#9ABBDC" fill-rule="nonzero" d="M1186.045 469.366a5.362 5.362 0 01-.888-.731 13.86 13.86 0 01-.938-1.124c-1.013-1.305-1.654-1.795-1.922-1.471-.292.352.593.843.608 1.048.01.12-.525-.41-.85-.61-.818-.5-2.654-1.645-3.18-1.627-.525.018-.323.345-.27.488.035.096.828.709 2.377 1.838-.534.821-.791 1.521-.77 2.1.02.58 1.495 1.426 4.426 2.54"/><g fill-rule="nonzero" transform="rotate(-3 9663.998 -22209.098)"><ellipse cx="8.028" cy="12.711" fill="#5DA5FF" rx="7.776" ry="9.079"/><path fill="#002465" d="M7.235.584c-1.42.225-4.58 1.297-5.463 3.048-.494.976-1.52 2.827-1.52 3.631 0 2.246-.652 5.746.473 9.046 1.125 3.3 4.119 5.472 4.478 5.472.153 0 1.526.456 2.89.435 1.852-.028 3.846-.568 4.236-.9.678-.577 2.313-2.872 3.115-5.007.801-2.135 1.226-4.394.36-7.835-.867-3.441-1.368-4.086-3.427-5.982C10.317.596 8.367.405 7.235.584z"/><path fill="#011F55" d="M7.235.584c-1.42.225 3.294 2.58 4.382 5.578 1.087 2.998 1.313 4.158.712 8.466-.6 4.308-3.363 7.547-2.936 7.494 1.396-.175 2.637-.551 2.936-.806.678-.577 2.313-2.872 3.115-5.007.801-2.135 1.226-4.394.36-7.835-.867-3.441-1.368-4.086-3.427-5.982C10.317.596 8.367.405 7.235.584z"/></g><path fill="#0096FF" fill-rule="nonzero" d="M1154.1 670.974c-41.257-45.396-27.777-92.883-28.503-90.401-7.638 26.094-4.534 55.188 10.992 80.035 9.12 14.595 23.444 29.454 41.5 37.008 9.84 4.116 18.366 6.641 26.46 8.011 6.771 1.146 11.657 1.398 14.658.755-15.078-1.832-41.324-9.24-65.107-35.408z"/></g><g class="parallax" data-direction="top" data-speed=".3" data-start="0"><g transform="rotate(3 -6222.243 10964.904)"><g transform="rotate(-23 174.842 -54.882)"><mask id="g" fill="#fff"><use xlink:href="#f"/></mask><use fill="#1D4EA8" fill-rule="nonzero" xlink:href="#f"/><path fill="#134092" fill-rule="nonzero" d="M61.573 123.147c4.73 0 9.335-.534 13.76-1.543a61.096 61.096 0 007.623-2.271c23.465-8.69 40.19-31.272 40.19-57.76 0-27.995-18.682-51.626-44.26-59.106A61.197 61.197 0 0071.23.753c-3.146-.496 36.427 14.767 34.103 65.08-2.323 50.313-63.972 54.847-53.707 56.514 3.238.526 6.56.8 9.947.8z" mask="url(#g)"/><path fill="#2B5CB6" fill-rule="nonzero" d="M126.735 50.91c-13.18.697-24.735 1.3-34.668 1.811-14.898.766-40.349 10.1-62.184 10.926-14.556.55-25.67-1.113-33.343-4.992l4.882 16.343c.725 2.75 11.968 3.192 33.729 1.323 32.641-2.803 42.652-7.958 60.557-9.42 11.937-.974 22.28.08 31.027 3.165V50.91zM110.75 22.556c-10.158 2.815-18.26 4.348-24.303 4.597-9.066.374-15.97-2.607-35.197-3.248-12.818-.427-26.333-.186-40.545.724L3.682 38.931c5.286-2.056 15.797-3.022 31.536-2.898 23.608.187 36.344 7.903 54.096 8.155 11.834.168 23.112-2.108 33.833-6.828l-12.398-14.804zM24.648 12.384c18.043 1.135 31.69 1.541 40.939 1.22C79.46 13.12 103.85 10.9 103.85 9.417c0-.989-16.812-7.154-50.437-18.496L24.648 12.384zm89.572 80.934c-23.157-3.902-40.109-5.574-50.855-5.017-10.747.558-29.37 2.23-55.87 5.017l6.704 12.998c17.242-2.533 33.63-3.8 49.166-3.8 15.535 0 29.86 2.23 42.975 6.69l7.88-15.888z" mask="url(#g)"/></g><path fill="#0096FF" fill-rule="nonzero" d="M68.465 130.404c-20.562-28.605-6.868-62.649-8.035-60.181-7.252 15.33-8.176 33.57-1.028 50.409 10.574 24.912 35.627 39.248 61.195 37.366 2.3-.17-31.571 1.01-52.132-27.594z"/><path fill="#ACC9FF" d="M57.411 115.275a62.347 62.347 0 001.99 5.357l.195.44c-9.693 5.567-15.152 9.738-14.425 11.45 1.675 3.948 35.605-6.677 75.784-23.732 40.178-17.054 71.391-34.08 69.715-38.028-.714-1.683-7.29-.718-17.712 2.265l-.2-.512a62.346 62.346 0 00-2.479-5.17c22.262-6.215 37.604-7.718 39.626-2.955 3.508 8.264-34.397 32.26-84.662 53.596-50.264 21.336-93.856 31.934-97.364 23.67-2.018-4.755 9.67-14.716 29.532-26.381z" opacity=".5"/><ellipse cx="127.022" cy="43.73" fill="#9ABBDC" fill-rule="nonzero" rx="2.96" ry="4.144" transform="rotate(-14 127.022 43.73)"/><ellipse cx="135.723" cy="46.79" fill="#9ABBDC" fill-rule="nonzero" rx="2.96" ry="4.144" transform="rotate(-2 135.723 46.79)"/><path fill="#9ABBDC" fill-rule="nonzero" d="M128.24 47.436l.409 2.933-3.483-.667.321-1.771z"/><path fill="#002465" fill-rule="nonzero" d="M127.182 39.012c1.095.178 2.478.554 2.478 1.702s-.183 2.847-.552 2.847c-.145 0-.512.229-.843.168-.511-.095-1.191-.928-1.339-.168-.148.76.861.418 1.11.91.146.29.158.356.229 1.487.07 1.132.07 1.427-.865 2.175-1.024.819-2.008 1-3.164-.667-1.156-1.668-1.74-5.007-.708-6.752 1.032-1.744 2.56-1.881 3.654-1.702z"/><path fill="#9ABBDC" fill-rule="nonzero" d="M153.574 46.847c.756-.293 2.156-.818 2.15-.479-.004.308-.56.641-1.667 1l-.032-.012c.181.387.272.712.272.974 0 .438-.516 1.789-.74 1.789-.15 0-.075.14.224.422h-.737l-1.166-.146c-.315-.282-.597-.374-.845-.276-.247.097-.344-.796-.29-2.68l1.913-.46.901-.15.017.018zM152.046 49l.258.718h.487l.185-.495c-.03-.241-.09-.408-.185-.5-.094-.093-.342 0-.745.277z"/><path fill="#0D3B8F" fill-rule="nonzero" d="M125.004 49.015l-1.397.686c.466.214.698.432.698.654 0 .222-.56.686-1.679 1.39-.86.905-1.29 2.047-1.29 3.426 0 1.38 1.222 3.689 3.668 6.929l.977 2.344s1.353.7 1.353 1.655v3.486l1.547 3.342 9.102-3.958c-2.136-11.682-3.385-17.522-3.748-17.522-.364 0-1.954-.364-4.772-1.092l-4.46-1.34z"/><path fill="#0D3B8F" fill-rule="nonzero" d="M138.43 50.395s.931.125 1.229.125c.298 0 1.651-2.154 2.438-1.831.524.215 1.699.208 3.524-.02h1.308c1.65-.634 2.676-1.032 3.08-1.194.094-.037.367-.084.819-.14l.345 2.66c-.938.402-1.734.926-2.389 1.571l-2.223.643-.615.645c2.08 4.013 3.346 6.73 3.799 8.154 1.094 3.445.498 5.38.636 5.645.337.644-1.887 1.343-3.82 2.307-1.933.964-2.654 1.758-4.062 2.215-.938.304-2.145.397-3.622.279-.874-.796-1.311-1.627-1.311-2.494 0-1.3-1.622-7.952-1.622-7.952l-1.38-2.087-.703-6.712.033-2.902 4.537 1.088z"/><path fill="#082C6F" fill-rule="nonzero" d="M144.286 50.541c.786.323 1.946-1.234 2.275-1.234h2.297c.363-1.06.747-1.67 1.15-1.832.095-.037.368-.084.82-.14l.345 2.66c-.938.402-1.734.926-2.389 1.571l-2.223.643-.615.645c2.08 4.013 3.346 6.73 3.799 8.154 1.094 3.445.498 5.38.636 5.645.21.401-.575.824-1.665 1.319-.267.121.155-4.048-1.446-6.964-2.335-4.255-3.661-6.586-3.672-8.087-.004-.417.586-2.422.688-2.38zm-7.036-.372c-.752 1.63-.845 3.879-.385 5.692.46 1.812.264 2.266-1.011 3.261-1.276.995-2.501.459-3.407.185-1.05-.316-2.032-2.104-2.032-3.446 0-2.502 1.226-2.664 1.918-4.356.19-.465 2.307-1.312 3.668-1.664l1.249.328z"/><path fill="#082C6F" fill-rule="nonzero" d="M137.566 68.96c0 .17-.465.442-1.394.819a40.657 40.657 0 01-3.552-10.858c-.256-1.436.169-4.64 1.274-9.614l-.033 2.902.704 6.712 1.379 2.087s1.622 6.651 1.622 7.952z"/><path fill="#002465" fill-rule="nonzero" d="M137.309 42.764c.577.784-.538 2.218-.538 4.155 0 1.936.153 1.1-.6 2.73-.751 1.63-.777 3.739-.317 5.552.46 1.813.586 2.315-.864 3.447-1.45 1.131-2.648.273-3.555 0-1.049-.317-2.032-2.105-2.032-3.447 0-2.502 1.227-2.663 1.918-4.356.338-.825-.65-2.252-.788-3.926-.145-1.762.57-3.767 1.55-4.374 1.91-1.184 4.648-.564 5.226.22zm13.046 24.114c.973 2.24 1.46 4.2 1.46 5.882 0 1.682-.487 4.99-1.46 9.923.487 2.047.73 3.206.73 3.478 0 .408.73 7.466.73 7.955 0 .326.145 1.3.437 2.923l-2.973.43c-.604-2.76-.906-4.275-.906-4.545 0-.405.29-2.62-.628-4.073-.918-1.452-1.13-4.145-1.13-4.145v-5.339c0-.231-.323-1.546-.969-3.943v7.26c.29 1.272.434 2.233.434 2.882v3.285s1.125 3.409 1.125 4.073c0 .443.39 1.958 1.168 4.545l-2.727.848c-1.821-4.403-2.732-7.217-2.732-8.443 0-1.839-1.021-7.105-1.021-7.19 0-.087-.838-3.317-.838-3.317l-1.048-8.02 10.348-4.47z"/><path fill="#00163D" fill-rule="nonzero" d="M150.355 66.878c.973 2.24 1.46 4.2 1.46 5.882 0 1.682-.487 4.99-1.46 9.923.487 2.047.73 3.206.73 3.478 0 .408.73 7.466.73 7.955 0 .268-.696-3.35-1.664-7.955-.802-3.814.43-8.021.204-12.465-.226-4.443-1.274-4.888-1.158-6.285.052-.624.438-.802 1.158-.533zm-4.709 8.546v7.26c.29 1.272.434 2.233.434 2.882v3.285s1.125 3.409 1.125 4.073c0 .443.39 1.958 1.168 4.545l-1.289.4c-1.756-9.608-2.372-16.898-1.847-21.87l.41-.575z"/><path fill="#002465" fill-rule="nonzero" d="M128.842 73.157c2.142 7.369 3.213 11.55 3.213 12.543 0 1.489-1.606 3.116-1.606 4.67 0 1.552-1.057 5.783-1.057 7.812 0 1.352-.184 3.632-.55 6.84h4.195l.56-5.648.383 4.595 4.928-1.274s-1.32-3.764-1.32-4.139c0-.374.981-5.066 1.32-5.066.338 0 1.948-11.632 1.948-11.632v-2.012l-1.582-8.52-.982-2.478-9.45 4.31z"/><path fill="#00163D" fill-rule="nonzero" d="M137.588 98.556c0-.374.981-5.066 1.32-5.066.338 0 1.948-11.632 1.948-11.632v-2.012l-1.582-8.52-.982-2.478-2.12.931c2.445 6.138 3.584 10.374 3.418 12.708-.192 2.694-1.331 8.079-3.418 16.155.944.192 1.416.164 1.416-.086zm-3.829-19.952l1.352 4.2v4.737c0 .513-1.153 4.657-1.153 5.289 0 .631-.569 5.953-.569 6.252 0 .2-.256.624-.77 1.271.035-2.226-.017-3.34-.155-3.34-.208 0 .132-4.978.132-5.28 0-.2.254-1.204.762-3.008l.6-4.344c-.38-.948-.569-1.58-.569-1.894 0-.314-.12-1.393-.36-3.235l.73-.648z"/></g><path fill="#0096FF" d="M599.599 468.609c-9.414 5.755-14.842 11.64-13.678 14.836 1.878 5.162 19.292 4.161 44.19-1.742 13.168-3.122 28.415-7.75 44.6-13.269 2.43-.829-59.982 14.331-77.942 13.116-7.986-.541-7.043-4.855 2.83-12.941z" opacity=".8"/></g></g></svg>