<svg class="absolute w-full h-full object-cover" xmlns="http://www.w3.org/2000/svg" xmlns:xlink="http://www.w3.org/1999/xlink" width="1366" height="749" viewBox="0 0 1366 749">
   <style>
       .star { animation: blinker 1.9s ease-in-out infinite 0.2s; backface-visibility: hidden; perspective: 1000; transform: translateZ(0) }
       .star-1 { animation: blinker 2s ease-in-out infinite 0.4s; backface-visibility: hidden; perspective: 1000; transform: translateZ(0)}
       .star-2 { animation: blinker 3s linear infinite 0.6s; backface-visibility: hidden; perspective: 1000; transform: translateZ(0)}
       .star-3 { animation: blinker 4s linear infinite 0.8s; backface-visibility: hidden; perspective: 1000; transform: translateZ(0)}
       .star-4 { animation: blinker 4s linear infinite 1s; backface-visibility: hidden; perspective: 1000; transform: translateZ(0)}
       @keyframes blinker { 50% { opacity: 0.1; } }
   </style>
    <defs><linearGradient x1="23.94%" y1="34.741%" x2="26.352%" y2="63.711%" id="a"><stop stop-color="#002866" offset="0%"/><stop stop-color="#00173B" offset="100%"/></linearGradient><linearGradient x1="50%" y1="0%" x2="50%" y2="100%" id="f"><stop stop-color="#FFF" offset="0%"/><stop stop-color="#FFF" stop-opacity=".321" offset="56.147%"/><stop stop-color="#FFF" stop-opacity="0" offset="100%"/></linearGradient><linearGradient x1="50%" y1="0%" x2="50%" y2="100%" id="g"><stop stop-color="#031C50" stop-opacity=".148" offset="0%"/><stop stop-color="#041D52" stop-opacity="0" offset="100%"/></linearGradient><filter x="-316.6%" y="-146.9%" width="733.2%" height="396.4%" filterUnits="objectBoundingBox" id="b">
        <feMorphology radius="15.45" operator="dilate" in="SourceAlpha" result="shadowSpreadOuter1"/>
        <feOffset dy="2" in="shadowSpreadOuter1" result="shadowOffsetOuter1"/>
        <feGaussianBlur stdDeviation="60.5" in="shadowOffsetOuter1" result="shadowBlurOuter1"/>
        <feComposite in="shadowBlurOuter1" in2="SourceAlpha" operator="out" result="shadowBlurOuter1"/>
        <feColorMatrix values="0 0 0 0 1 0 0 0 0 1 0 0 0 0 1 0 0 0 0.5 0" in="shadowBlurOuter1" result="shadowMatrixOuter1"/><feMorphology radius="1.95" operator="dilate" in="SourceAlpha" result="shadowSpreadOuter2"/><feOffset in="shadowSpreadOuter2" result="shadowOffsetOuter2"/><feGaussianBlur stdDeviation="10" in="shadowOffsetOuter2" result="shadowBlurOuter2"/><feComposite in="shadowBlurOuter2" in2="SourceAlpha" operator="out" result="shadowBlurOuter2"/><feColorMatrix values="0 0 0 0 0.784313725 0 0 0 0 0.870588235 0 0 0 0 1 0 0 0 1 0" in="shadowBlurOuter2" result="shadowMatrixOuter2"/><feMerge><feMergeNode in="shadowMatrixOuter1"/><feMergeNode in="shadowMatrixOuter2"/></feMerge></filter><filter x="-1.5%" y="-21.9%" width="103%" height="132.2%" filterUnits="objectBoundingBox" id="d">
        <feOffset dy="-2" in="SourceAlpha" result="shadowOffsetOuter1"/>
        <feGaussianBlur stdDeviation="1.5" in="shadowOffsetOuter1" result="shadowBlurOuter1"/>
        <feColorMatrix values="0 0 0 0 0.784313725 0 0 0 0 0.870588235 0 0 0 0 1 0 0 0 0.125109266 0" in="shadowBlurOuter1"/></filter>
        <path d="M152 153.818V38.203C152 15.08 163.836 0 188 0s36 15.08 36 38.203v115.615h-72z" id="c"/>
        <path id="e" d="M151.867 153.43L0 187.612h365L223.364 153.43z"/>
    </defs>
    <g fill="none" fill-rule="evenodd"><path fill="url(#a)" d="M0 0h1366v749H0z"/>

        <path class="star-1" fill="#FFF"    opacity=".3" d="M754.414 200.7c2.68-.528 4.44-1.2 5.28-2.018.84-.817 1.478-2.475 1.913-4.975.344 2.724.91 4.497 1.698 5.318.789.822 2.538 1.463 5.249 1.924-2.676.134-4.426.6-5.249 1.4-.823.801-1.47 2.665-1.944 5.593-.327-2.91-.882-4.774-1.668-5.592-.785-.819-2.545-1.369-5.279-1.65z"/>
        <path class="star-3"  fill="#FFF"    opacity=".9" d="M421.414 157.36c2.68-.524 4.44-1.193 5.28-2.004.84-.812 1.478-2.459 1.913-4.942.344 2.706.91 4.467 1.698 5.283.789.816 2.538 1.453 5.249 1.91-2.676.133-4.426.597-5.249 1.392-.823.795-1.47 2.646-1.944 5.555-.327-2.89-.882-4.742-1.668-5.555-.785-.813-2.545-1.36-5.279-1.638z" />
        <path class="star"   fill="#FFF"    opacity=".9" d="M65.414 179.36c2.68-.524 4.44-1.193 5.28-2.004.84-.812 1.478-2.459 1.913-4.942.344 2.706.91 4.467 1.698 5.283.789.816 2.538 1.453 5.249 1.91-2.676.133-4.426.597-5.249 1.392-.823.795-1.47 2.646-1.944 5.555-.327-2.89-.882-4.742-1.668-5.555-.785-.813-2.545-1.36-5.279-1.638z" />
        <path class="star-2" fill="#FFF"    opacity=".9" d="M202.414 590.36c2.68-.524 4.44-1.193 5.28-2.004.84-.812 1.478-2.459 1.913-4.942.344 2.706.91 4.467 1.698 5.283.789.816 2.538 1.453 5.249 1.91-2.676.133-4.426.597-5.249 1.392-.823.795-1.47 2.646-1.944 5.555-.327-2.89-.882-4.742-1.668-5.555-.785-.813-2.545-1.36-5.279-1.638z" />
        <path class="star-3" fill="#FFF"    opacity=".7" d="M928.656 137.352c1.072-.212 1.776-.481 2.112-.808.336-.326.591-.99.765-1.99.138 1.09.364 1.799.68 2.128.315.328 1.015.585 2.099.769-1.07.053-1.77.24-2.1.56-.329.32-.588 1.066-.777 2.237-.13-1.164-.353-1.91-.667-2.237-.314-.327-1.018-.547-2.112-.66zM1216 431.66c1.072-.211 1.776-.48 2.112-.807.336-.327.591-.99.765-1.99.138 1.09.364 1.799.68 2.127.315.329 1.015.585 2.099.77-1.07.053-1.77.24-2.1.56-.329.32-.588 1.066-.777 2.237-.13-1.164-.353-1.91-.667-2.237-.314-.327-1.018-.547-2.112-.66z"/>
        <path class="star-4" fill="#FFF"    opacity=".7" d="M631 129.779c1.072-.21 1.776-.478 2.112-.802.336-.325.591-.984.765-1.977.138 1.082.364 1.787.68 2.113.315.327 1.015.581 2.099.764-1.07.054-1.77.24-2.1.557-.329.318-.588 1.059-.777 2.222-.13-1.156-.353-1.897-.667-2.222-.314-.325-1.018-.544-2.112-.655z" />
        <path class="star-1" fill="#FFF"    opacity=".7" d="M631 532.779c1.072-.21 1.776-.478 2.112-.802.336-.325.591-.984.765-1.977.138 1.082.364 1.787.68 2.113.315.327 1.015.581 2.099.764-1.07.054-1.77.24-2.1.557-.329.318-.588 1.059-.777 2.222-.13-1.156-.353-1.897-.667-2.222-.314-.325-1.018-.544-2.112-.655z" />
        <path class="star"   fill="#FFF"    opacity=".7" d="M266 108.779c1.072-.21 1.776-.478 2.112-.802.336-.325.591-.984.765-1.977.138 1.082.364 1.787.68 2.113.315.327 1.015.581 2.099.764-1.07.054-1.77.24-2.1.557-.329.318-.588 1.059-.777 2.222-.13-1.156-.353-1.897-.667-2.222-.314-.325-1.018-.544-2.112-.655z" />
        <path class="star-1" fill="#FF"     opacity=".7" d="M1282 606.779c1.072-.21 1.776-.478 2.112-.802.336-.325.591-.984.765-1.977.138 1.082.364 1.787.68 2.113.315.327 1.015.581 2.099.764-1.07.054-1.77.24-2.1.557-.329.318-.588 1.059-.777 2.222-.13-1.156-.353-1.897-.667-2.222-.314-.325-1.018-.544-2.112-.655z" />
        <path class="star-2" fill="#C8DEFF" opacity=".4" d="M1102.035 168.898c1.67-.368 2.799-.836 3.387-1.404.588-.568 1.137-1.72 1.648-3.459.4 1.735.874 2.888 1.426 3.46.552.57 1.697 1.096 3.437 1.575-1.58.315-2.725.798-3.437 1.447-.712.65-1.244 1.788-1.598 3.416-.435-1.871-.927-3.092-1.476-3.66-.55-.57-1.679-1.028-3.387-1.375z" />
        <path class="star-3" fill="#C8DEFF" opacity=".4" d="M1241.035 275.898c1.67-.368 2.799-.836 3.387-1.404.588-.568 1.137-1.72 1.648-3.459.4 1.735.874 2.888 1.426 3.46.552.57 1.697 1.096 3.437 1.575-1.58.315-2.725.798-3.437 1.447-.712.65-1.244 1.788-1.598 3.416-.435-1.871-.927-3.092-1.476-3.66-.55-.57-1.679-1.028-3.387-1.375z" />
        <path class="star-4" fill="#C8DEFF" opacity=".4" d="M997.035 213.898c1.67-.368 2.799-.836 3.387-1.404.588-.568 1.137-1.72 1.648-3.459.4 1.735.874 2.888 1.426 3.46.552.57 1.697 1.096 3.437 1.575-1.58.315-2.725.798-3.437 1.447-.712.65-1.244 1.788-1.598 3.416-.435-1.871-.927-3.092-1.476-3.66-.55-.57-1.679-1.028-3.387-1.375z" />
        <path class="star"   fill="#C8DEFF" opacity=".4" d="M1237 121.675c1.67-.37 2.799-.841 3.387-1.413.588-.572 1.137-1.733 1.648-3.482.4 1.746.874 2.907 1.426 3.482.552.575 1.697 1.104 3.437 1.587-1.58.317-2.725.802-3.437 1.456-.712.654-1.244 1.8-1.598 3.44-.435-1.885-.927-3.113-1.476-3.686-.55-.573-1.679-1.035-3.387-1.384z" />
        <path  class="star-2"               fill="#95C0FF" opacity=".4" d="M695.828 374.385c1.908-.42 3.198-.954 3.87-1.603.673-.65 1.3-1.967 1.885-3.954.455 1.983.998 3.3 1.629 3.954.63.652 1.94 1.253 3.928 1.8-1.805.36-3.115.912-3.928 1.654-.813.742-1.422 2.043-1.827 3.904-.496-2.139-1.058-3.533-1.686-4.184-.629-.65-1.919-1.174-3.871-1.57z"/>
        <g><g transform="translate(757 321)"><use fill="#000" filter="url(#b)" xlink:href="#c"/><use stroke-opacity=".176" stroke="#C8DEFF" stroke-width=".9" fill="#FFF" xlink:href="#c"/></g><g transform="translate(757 321)"><use fill="#000" filter="url(#d)" xlink:href="#e"/><use fill="url(#f)" xlink:href="#e"/></g><path d="M939.336 431.4s-.997 2.595-.795 6.202c.335 5.988 2.322 14.471 2.322 15.985l1.634 22.482c.596.542 1.097.542 1.503 0 .608-.812 1.774-9.305 1.942-13.837.168-4.533.245-5.891.305-7.733.165-5.061.805-11.26 1.003-12.04l1.899 8.237 1.258 10.628s.946 10.625.7 11.685c.26.528 2.15 1.13 2.506.904.234-.148 1.219-4.82.724-11.681-.256-3.548.334-15.475.44-17.727.058-1.245 1.104-9.833-.93-14.927l1.4 1.783-15.911.04z" fill="#072461"/><path d="M943.752 477.204c-1.496-.158-1.615-1.471-1.754-2.096-.138-.626-.77-2.05.768-2.096 1.025-.03 1.162.162.41.577.72.452 1.29.618 1.71.498 0 0 .362 3.276-1.134 3.117zM951.57 472.217c-.154-.057-1.004-.327-1.246.189-.241.516-.319.846 0 1.858.32 1.01.57 2.72 2.708 2.211.603-.412.796-1.266.58-2.562-.127-.768-1.59-1.528-2.042-1.696zM932.482 435.62s-.924 1.848 1.003 2.412c0 0 .576.378 1.327-.45 0 0 1.2.08 1.032-1.531-.105-1.008-.027-1.42-.027-1.42l-.011-.607c-.923-.684-1.563-.946-1.923-.785-.648.29-1.267 2.084-1.401 2.382zM958.982 433.22s.747 1.03 1.115 1.85c0 0 .923 1.847-1.004 2.411 0 0-.575.378-1.326-.45 0 0-1.2.08-1.033-1.53.105-1.008.027-1.42.027-1.42l-.027-1.193 2.248.331z" fill="#072461"/><path d="M933.577 433.608l2.492 1.091c.525-3.304.84-5.472.947-6.503.158-1.547.447-3.712.592-6.183.053-.904.376-3.2.457-4.427.304-4.58.224-6.414.266-5.815.117 1.664.126 1.307.28 2.7.023.201 1.035 5.742.923 8.903-.112 3.16-.896 4.238-1.47 6.513-.572 2.276-2.452 4.457-1.995 6.397.456 1.94 1.415 1.348 1.996 1.318 1.15-.06 3.676-3.202 5.666-2.756 2.995.67 3.004-1.022 4.37-.334s2.802-.318 4.012.029c1.21.347.615.87 1.59 1.116.975.246 2.67-.728 2.928-1.145.071-.116-.392-3.01-1.384-5.294-.993-2.283-1.592-3.645-2.121-7.205-.53-3.56.134-5.232.38-7.543.033-.3.059-.581.078-.845.037-.499.369 1.472.54 2.975.07.599 1.123 4.639 1.36 6.774.188 1.682 1.058 9.024 1.147 9.823 1.04.34 1.81.34 2.314 0 .6-.406-.677-10.712-1.28-15.61-.603-4.9.055-9.602-4.158-13.047-1-.817-8.793-3.384-13.973-1.757-4.879 1.532-5.282 5.45-5.31 5.874-.054.785-.296 3.437-.34 4.81-.042 1.35.048 3.712 0 5.079-.026.772-.098 2.504-.098 3.914 0 1.41-.272 11.01-.21 11.148z" fill="#072461"/><path d="M943.757 401.069c-.308 1.092-.719 1.712-1.233 1.859-.514.147 1.504.318 6.053.512-.511-.44-.855-.836-1.029-1.187-.175-.35-.309-.912-.402-1.686l-3.39.502z" fill="#072462"/><path d="M935.223 402.774c.282.306 1.517-.08 3.29-.52.917-.228 1.431-1.133 2.658-1.185.788-.034 1.739-.134 2.586 0 .67.106 1.186-.044 1.754-.094 3.047-.272 5.718-1.033 8.012-2.281.323-.767.211-1.391-.336-1.873-.821-.722-1.663.034-1.98-1.155-.318-1.189.5-1.124.14-2.807-.359-1.683-2.216-1.076-1.942-2.397.273-1.322-.25-3.196-4.545-3.495-1.735-.12-4.816.529-6.31 3.704-.551 1.171-.413 4.436-1.242 7.044-.307.963-.927 1.887-1.393 2.852-.496 1.024-.825 2.063-.692 2.207z" fill="#072462"/><path fill="url(#g)" d="M186.141 153.818L149 188l85-.383-39.31-33.702z" transform="translate(757 321)"/></g><path fill="none" d="M1219 105h56v43h-56zM733 180h56v43h-56zM909 115h56v43h-56zM1194 406h56v43h-56z"/></g></svg>