<svg xmlns="http://www.w3.org/2000/svg" class="absolute w-full h-full object-cover" viewBox="0 0 1366 749"><defs><linearGradient id="a" x1="23.94%" x2="26.352%" y1="34.741%" y2="63.711%"><stop offset="0%" stop-color="#002866"/><stop offset="100%" stop-color="#00173B"/></linearGradient></defs><g fill="none" fill-rule="evenodd"><path fill="url(#a)" d="M0 0h1366v749H0z"/><path fill="#FFF" d="M754.414 200.7c2.68-.528 4.44-1.2 5.28-2.018.84-.817 1.478-2.475 1.913-4.975.344 2.724.91 4.497 1.698 5.318.789.822 2.538 1.463 5.249 1.924-2.676.134-4.426.6-5.249 1.4-.823.801-1.47 2.665-1.944 5.593-.327-2.91-.882-4.774-1.668-5.592-.785-.819-2.545-1.369-5.279-1.65z" class="star-1" opacity=".3"/><path fill="#FFF" d="M421.414 157.36c2.68-.524 4.44-1.193 5.28-2.004.84-.812 1.478-2.459 1.913-4.942.344 2.706.91 4.467 1.698 5.283.789.816 2.538 1.453 5.249 1.91-2.676.133-4.426.597-5.249 1.392-.823.795-1.47 2.646-1.944 5.555-.327-2.89-.882-4.742-1.668-5.555-.785-.813-2.545-1.36-5.279-1.638z" class="star-3" opacity=".9"/><path fill="#FFF" d="M65.414 179.36c2.68-.524 4.44-1.193 5.28-2.004.84-.812 1.478-2.459 1.913-4.942.344 2.706.91 4.467 1.698 5.283.789.816 2.538 1.453 5.249 1.91-2.676.133-4.426.597-5.249 1.392-.823.795-1.47 2.646-1.944 5.555-.327-2.89-.882-4.742-1.668-5.555-.785-.813-2.545-1.36-5.279-1.638z" class="star" opacity=".9"/><path fill="#FFF" d="M202.414 590.36c2.68-.524 4.44-1.193 5.28-2.004.84-.812 1.478-2.459 1.913-4.942.344 2.706.91 4.467 1.698 5.283.789.816 2.538 1.453 5.249 1.91-2.676.133-4.426.597-5.249 1.392-.823.795-1.47 2.646-1.944 5.555-.327-2.89-.882-4.742-1.668-5.555-.785-.813-2.545-1.36-5.279-1.638z" class="star-2" opacity=".9"/><path fill="#FFF" d="M928.656 137.352c1.072-.212 1.776-.481 2.112-.808.336-.326.591-.99.765-1.99.138 1.09.364 1.799.68 2.128.315.328 1.015.585 2.099.769-1.07.053-1.77.24-2.1.56-.329.32-.588 1.066-.777 2.237-.13-1.164-.353-1.91-.667-2.237-.314-.327-1.018-.547-2.112-.66zM1216 431.66c1.072-.211 1.776-.48 2.112-.807.336-.327.591-.99.765-1.99.138 1.09.364 1.799.68 2.127.315.329 1.015.585 2.099.77-1.07.053-1.77.24-2.1.56-.329.32-.588 1.066-.777 2.237-.13-1.164-.353-1.91-.667-2.237-.314-.327-1.018-.547-2.112-.66z" class="star-3" opacity=".7"/><path fill="#FFF" d="M631 129.779c1.072-.21 1.776-.478 2.112-.802.336-.325.591-.984.765-1.977.138 1.082.364 1.787.68 2.113.315.327 1.015.581 2.099.764-1.07.054-1.77.24-2.1.557-.329.318-.588 1.059-.777 2.222-.13-1.156-.353-1.897-.667-2.222-.314-.325-1.018-.544-2.112-.655z" class="star-4" opacity=".7"/><path fill="#FFF" d="M631 532.779c1.072-.21 1.776-.478 2.112-.802.336-.325.591-.984.765-1.977.138 1.082.364 1.787.68 2.113.315.327 1.015.581 2.099.764-1.07.054-1.77.24-2.1.557-.329.318-.588 1.059-.777 2.222-.13-1.156-.353-1.897-.667-2.222-.314-.325-1.018-.544-2.112-.655z" class="star-1" opacity=".7"/><path fill="#FFF" d="M266 108.779c1.072-.21 1.776-.478 2.112-.802.336-.325.591-.984.765-1.977.138 1.082.364 1.787.68 2.113.315.327 1.015.581 2.099.764-1.07.054-1.77.24-2.1.557-.329.318-.588 1.059-.777 2.222-.13-1.156-.353-1.897-.667-2.222-.314-.325-1.018-.544-2.112-.655z" class="star" opacity=".7"/><path fill="#FF" d="M1282 606.779c1.072-.21 1.776-.478 2.112-.802.336-.325.591-.984.765-1.977.138 1.082.364 1.787.68 2.113.315.327 1.015.581 2.099.764-1.07.054-1.77.24-2.1.557-.329.318-.588 1.059-.777 2.222-.13-1.156-.353-1.897-.667-2.222-.314-.325-1.018-.544-2.112-.655z" class="star-1" opacity=".7"/><path fill="#C8DEFF" d="M1102.035 168.898c1.67-.368 2.799-.836 3.387-1.404.588-.568 1.137-1.72 1.648-3.459.4 1.735.874 2.888 1.426 3.46.552.57 1.697 1.096 3.437 1.575-1.58.315-2.725.798-3.437 1.447-.712.65-1.244 1.788-1.598 3.416-.435-1.871-.927-3.092-1.476-3.66-.55-.57-1.679-1.028-3.387-1.375z" class="star-2" opacity=".4"/><path fill="#C8DEFF" d="M1241.035 275.898c1.67-.368 2.799-.836 3.387-1.404.588-.568 1.137-1.72 1.648-3.459.4 1.735.874 2.888 1.426 3.46.552.57 1.697 1.096 3.437 1.575-1.58.315-2.725.798-3.437 1.447-.712.65-1.244 1.788-1.598 3.416-.435-1.871-.927-3.092-1.476-3.66-.55-.57-1.679-1.028-3.387-1.375z" class="star-3" opacity=".4"/><path fill="#C8DEFF" d="M997.035 213.898c1.67-.368 2.799-.836 3.387-1.404.588-.568 1.137-1.72 1.648-3.459.4 1.735.874 2.888 1.426 3.46.552.57 1.697 1.096 3.437 1.575-1.58.315-2.725.798-3.437 1.447-.712.65-1.244 1.788-1.598 3.416-.435-1.871-.927-3.092-1.476-3.66-.55-.57-1.679-1.028-3.387-1.375z" class="star-4" opacity=".4"/><path fill="#C8DEFF" d="M1237 121.675c1.67-.37 2.799-.841 3.387-1.413.588-.572 1.137-1.733 1.648-3.482.4 1.746.874 2.907 1.426 3.482.552.575 1.697 1.104 3.437 1.587-1.58.317-2.725.802-3.437 1.456-.712.654-1.244 1.8-1.598 3.44-.435-1.885-.927-3.113-1.476-3.686-.55-.573-1.679-1.035-3.387-1.384z" class="star" opacity=".4"/><path fill="#95C0FF" d="M695.828 374.385c1.908-.42 3.198-.954 3.87-1.603.673-.65 1.3-1.967 1.885-3.954.455 1.983.998 3.3 1.629 3.954.63.652 1.94 1.253 3.928 1.8-1.805.36-3.115.912-3.928 1.654-.813.742-1.422 2.043-1.827 3.904-.496-2.139-1.058-3.533-1.686-4.184-.629-.65-1.919-1.174-3.871-1.57z" class="star-2" opacity=".4"/></g></svg>