<?xml version="1.0" encoding="UTF-8"?>
<svg width="713px" height="853px" viewBox="0 0 713 853" version="1.1" xmlns="http://www.w3.org/2000/svg" xmlns:xlink="http://www.w3.org/1999/xlink">
    <!-- Generator: Sketch 63 (92445) - https://sketch.com -->
    <title>telescope-future</title>
    <desc>Created with Sketch.</desc>
    <g id="Page-1" stroke="none" stroke-width="1" fill="none" fill-rule="evenodd">
        <g id="telescope-future">
            <g id="Space" transform="translate(105.000000, 0.000000)" fill="#00163D">
                <path d="M137.3,464.6 L106.5,430.1 C138.2,389.8 153.6,351.2 152.7,314.3 C151.4,259 88.9,240.8 33.9,171 C-2.7,124.5 -9,67.7 14.9,0.6 L604.7,26.3 L604.2,820.3 C613.2,820.4 603.6,820.4 575.4,820.3 C531.8,820.2 498.5,814.6 476,812.3 C409.5,805.7 346.3,773.2 305.4,723.3 C264.5,673.4 269.6,605.3 269.5,553.7 C269.4,502.1 255.1,472.1 224,461.8 C203.2,454.8 174.3,455.8 137.3,464.6 Z" id="Path"></path>
            </g>
            <g id="Stars_1_" transform="translate(236.000000, 138.000000)" fill-rule="nonzero">
                <g id="Stars" opacity="0.3" transform="translate(157.920193, 473.400289)">
                    <g id="Group-53" transform="translate(0.000000, 0.053796)">
                        <g id="Oval" transform="translate(34.000000, 0.000000)">
                            <circle id="path-3_1_" fill="#000000" transform="translate(2.596340, 2.801720) rotate(-8.001272) translate(-2.596340, -2.801720) " cx="2.59634" cy="2.80172" r="1.80006366"></circle>
                            <circle fill="#FFFFFF" transform="translate(2.596340, 2.801720) rotate(-8.001272) translate(-2.596340, -2.801720) " cx="2.59634" cy="2.80172" r="1.80006366"></circle>
                        </g>
                        <g id="Group" transform="translate(16.000000, 68.000000)">
                            <circle id="path-5_1_" fill="#000000" transform="translate(2.894450, 2.900790) rotate(-8.001272) translate(-2.894450, -2.900790) " cx="2.89445" cy="2.90079" r="1.80006366"></circle>
                            <circle id="Oval" fill="#7EF2FE" transform="translate(2.894450, 2.900790) rotate(-8.001272) translate(-2.894450, -2.900790) " cx="2.89445" cy="2.90079" r="1.80006366"></circle>
                        </g>
                        <g id="Group" transform="translate(49.000000, 44.000000)">
                            <circle id="path-9_1_" fill="#000000" cx="1.8" cy="1.5" r="1"></circle>
                            <circle id="Oval" fill="#FFFFFF" cx="1.8" cy="1.5" r="1"></circle>
                        </g>
                        <g id="Group" transform="translate(0.000000, 33.000000)">
                            <circle id="path-11_1_" fill="#000000" cx="1.9" cy="1.1" r="1"></circle>
                            <circle id="Oval" fill="#FFFFFF" cx="1.9" cy="1.1" r="1"></circle>
                        </g>
                    </g>
                    <g id="Group" transform="translate(75.035447, 91.345005)">
                        <g transform="translate(0.000000, 4.000000)">
                            <circle id="path-33_1_" fill="#000000" transform="translate(2.200280, 2.094790) rotate(-8.001272) translate(-2.200280, -2.094790) " cx="2.20028" cy="2.09479" r="1.80006366"></circle>
                            <circle id="Oval" fill="#FFFFFF" transform="translate(2.200280, 2.094790) rotate(-8.001272) translate(-2.200280, -2.094790) " cx="2.20028" cy="2.09479" r="1.80006366"></circle>
                        </g>
                        <g transform="translate(26.000000, 0.000000)">
                            <circle id="path-37_1_" fill="#000000" cx="1.9" cy="1.6" r="1"></circle>
                            <circle id="Oval" fill="#72FFBF" cx="1.9" cy="1.6" r="1"></circle>
                        </g>
                    </g>
                </g>
                <g id="Group" opacity="0.4" transform="translate(0.241616, 20.903009)">
                    <g transform="translate(0.164513, 0.167483)">
                        <g transform="translate(36.000000, 3.000000)">
                            <circle id="path-63_1_" fill="#000000" transform="translate(3.199800, 3.198420) rotate(-8.001272) translate(-3.199800, -3.198420) " cx="3.1998" cy="3.19842" r="2.00007073"></circle>
                            <circle id="Oval" fill="#FFFFFF" transform="translate(3.199800, 3.198420) rotate(-8.001272) translate(-3.199800, -3.198420) " cx="3.1998" cy="3.19842" r="2.00007073"></circle>
                        </g>
                        <g transform="translate(17.000000, 78.000000)">
                            <circle id="path-65_1_" fill="#000000" transform="translate(2.899090, 2.602100) rotate(-8.001272) translate(-2.899090, -2.602100) " cx="2.89909" cy="2.6021" r="2.00007073"></circle>
                            <circle id="Oval" fill="#7EF2FE" transform="translate(2.899090, 2.602100) rotate(-8.001272) translate(-2.899090, -2.602100) " cx="2.89909" cy="2.6021" r="2.00007073"></circle>
                        </g>
                        <g transform="translate(66.000000, 0.000000)">
                            <circle id="path-67_1_" fill="#000000" cx="1.3" cy="1.2" r="1"></circle>
                            <circle id="Oval" fill="#72FFBF" cx="1.3" cy="1.2" r="1"></circle>
                        </g>
                        <g transform="translate(53.000000, 51.000000)">
                            <circle id="path-69_1_" fill="#000000" cx="1.7" cy="1.8" r="1"></circle>
                            <circle id="Oval" fill="#FFFFFF" cx="1.7" cy="1.8" r="1"></circle>
                        </g>
                        <g transform="translate(0.000000, 39.000000)">
                            <circle id="path-71_1_" fill="#000000" cx="1.4" cy="1.4" r="1"></circle>
                            <circle id="Oval" fill="#FFFFFF" cx="1.4" cy="1.4" r="1"></circle>
                        </g>
                    </g>
                    <g transform="translate(44.488989, 102.960670)">
                        <g transform="translate(36.000000, 3.000000)">
                            <circle id="path-91_1_" fill="#000000" transform="translate(2.890570, 3.000820) rotate(-8.001272) translate(-2.890570, -3.000820) " cx="2.89057" cy="3.00082" r="2.00007073"></circle>
                            <circle id="Oval" fill="#FFFFFF" transform="translate(2.890570, 3.000820) rotate(-8.001272) translate(-2.890570, -3.000820) " cx="2.89057" cy="3.00082" r="2.00007073"></circle>
                        </g>
                        <g transform="translate(17.000000, 78.000000)">
                            <circle id="path-93_1_" fill="#000000" transform="translate(2.603780, 2.503530) rotate(-8.001272) translate(-2.603780, -2.503530) " cx="2.60378" cy="2.50353" r="2.00007073"></circle>
                            <circle id="Oval" fill="#7EF2FE" transform="translate(2.603780, 2.503530) rotate(-8.001272) translate(-2.603780, -2.503530) " cx="2.60378" cy="2.50353" r="2.00007073"></circle>
                        </g>
                        <g transform="translate(66.000000, 0.000000)">
                            <circle id="path-95_1_" fill="#000000" cx="1" cy="1.1" r="1"></circle>
                            <circle id="Oval" fill="#72FFBF" cx="1" cy="1.1" r="1"></circle>
                        </g>
                        <g transform="translate(53.000000, 51.000000)">
                            <circle id="path-97_1_" fill="#000000" cx="1.4" cy="1.7" r="1"></circle>
                            <circle id="Oval" fill="#FFFFFF" cx="1.4" cy="1.7" r="1"></circle>
                        </g>
                        <g transform="translate(0.000000, 39.000000)">
                            <circle id="path-99_1_" fill="#000000" cx="1.1" cy="1.2" r="1"></circle>
                            <circle id="Oval" fill="#FFFFFF" cx="1.1" cy="1.2" r="1"></circle>
                        </g>
                    </g>
                </g>
                <g id="Group" opacity="0.67" transform="translate(122.457449, 247.170132)">
                    <g transform="translate(0.000000, 0.053796)">
                        <g transform="translate(16.000000, 71.000000)">
                            <circle id="path-183_1_" fill="#000000" transform="translate(2.503910, 2.795140) rotate(-8.001272) translate(-2.503910, -2.795140) " cx="2.50391" cy="2.79514" r="1.80006366"></circle>
                            <circle id="Oval" fill="#7EF2FE" transform="translate(2.503910, 2.795140) rotate(-8.001272) translate(-2.503910, -2.795140) " cx="2.50391" cy="2.79514" r="1.80006366"></circle>
                        </g>
                        <g transform="translate(60.000000, 0.000000)">
                            <circle id="path-185_1_" fill="#000000" cx="1.9" cy="1.1" r="1"></circle>
                            <circle id="Oval" fill="#72FFBF" cx="1.9" cy="1.1" r="1"></circle>
                        </g>
                        <g transform="translate(49.000000, 47.000000)">
                            <circle id="path-187_1_" fill="#000000" cx="1.4" cy="1.3" r="1"></circle>
                            <circle id="Oval" fill="#FFFFFF" cx="1.4" cy="1.3" r="1"></circle>
                        </g>
                        <g transform="translate(0.000000, 36.000000)">
                            <circle id="path-189_1_" fill="#000000" cx="1.5" cy="1" r="1"></circle>
                            <circle id="Oval" fill="#FFFFFF" cx="1.5" cy="1" r="1"></circle>
                        </g>
                    </g>
                    <g transform="translate(41.035447, 94.345005)">
                        <g transform="translate(15.000000, 71.000000)">
                            <circle id="path-211_1_" fill="#000000" transform="translate(2.994800, 3.003100) rotate(-8.001272) translate(-2.994800, -3.003100) " cx="2.9948" cy="3.0031" r="1.80006366"></circle>
                            <circle id="Oval" fill="#7EF2FE" transform="translate(2.994800, 3.003100) rotate(-8.001272) translate(-2.994800, -3.003100) " cx="2.9948" cy="3.0031" r="1.80006366"></circle>
                        </g>
                        <g transform="translate(60.000000, 0.000000)">
                            <circle id="path-213_1_" fill="#000000" cx="1.5" cy="1.4" r="1"></circle>
                            <circle id="Oval" fill="#72FFBF" cx="1.5" cy="1.4" r="1"></circle>
                        </g>
                        <g transform="translate(48.000000, 47.000000)">
                            <circle id="path-215_1_" fill="#000000" cx="1.9" cy="1.6" r="1"></circle>
                            <circle id="Oval" fill="#FFFFFF" cx="1.9" cy="1.6" r="1"></circle>
                        </g>
                        <g transform="translate(0.000000, 36.000000)">
                            <circle id="path-217_1_" fill="#000000" cx="1" cy="1.2" r="1"></circle>
                            <circle id="Oval" fill="#FFFFFF" cx="1" cy="1.2" r="1"></circle>
                        </g>
                    </g>
                </g>
                <g id="Group" opacity="0.67" transform="translate(393.817232, 321.486001)">
                    <g transform="translate(0.000000, 0.053796)">
                        <g transform="translate(34.000000, 3.000000)">
                            <circle id="path-241_1_" fill="#000000" transform="translate(2.196680, 2.592140) rotate(-8.001272) translate(-2.196680, -2.592140) " cx="2.19668" cy="2.59214" r="1.80006366"></circle>
                            <circle id="Oval" fill="#FFFFFF" transform="translate(2.196680, 2.592140) rotate(-8.001272) translate(-2.196680, -2.592140) " cx="2.19668" cy="2.59214" r="1.80006366"></circle>
                        </g>
                        <g transform="translate(16.000000, 71.000000)">
                            <circle id="path-243_1_" fill="#000000" transform="translate(2.395760, 2.705030) rotate(-8.001272) translate(-2.395760, -2.705030) " cx="2.39576" cy="2.70503" r="1.80006366"></circle>
                            <circle id="Oval" fill="#7EF2FE" transform="translate(2.395760, 2.705030) rotate(-8.001272) translate(-2.395760, -2.705030) " cx="2.39576" cy="2.70503" r="1.80006366"></circle>
                        </g>
                        <g transform="translate(60.000000, 0.000000)">
                            <circle id="path-245_1_" fill="#000000" cx="1.9" cy="1.1" r="1"></circle>
                            <circle id="Oval" fill="#72FFBF" cx="1.9" cy="1.1" r="1"></circle>
                        </g>
                        <g transform="translate(49.000000, 47.000000)">
                            <circle id="path-247_1_" fill="#000000" cx="1.4" cy="1.3" r="1"></circle>
                            <circle id="Oval" fill="#FFFFFF" cx="1.4" cy="1.3" r="1"></circle>
                        </g>
                        <g transform="translate(0.000000, 35.000000)">
                            <circle id="path-249_1_" fill="#000000" cx="1.4" cy="1.9" r="1"></circle>
                            <circle id="Oval" fill="#FFFFFF" cx="1.4" cy="1.9" r="1"></circle>
                        </g>
                    </g>
                    <g transform="translate(41.035447, 130.345005)">
                        <g transform="translate(15.000000, 35.000000)">
                            <circle id="path-253_1_" fill="#000000" transform="translate(2.999600, 2.998100) rotate(-8.001272) translate(-2.999600, -2.998100) " cx="2.9996" cy="2.9981" r="1.80006366"></circle>
                            <circle id="Oval" fill="#7EF2FE" transform="translate(2.999600, 2.998100) rotate(-8.001272) translate(-2.999600, -2.998100) " cx="2.9996" cy="2.9981" r="1.80006366"></circle>
                        </g>
                        <g>
                            <circle id="path-255_1_" fill="#000000" cx="1" cy="1.2" r="1"></circle>
                            <circle id="Oval" fill="#FFFFFF" cx="1" cy="1.2" r="1"></circle>
                        </g>
                    </g>
                </g>
                <g id="Group" opacity="0.4" transform="translate(320.566022, 0.599025)">
                    <g transform="translate(0.000000, 0.053796)">
                        <g transform="translate(33.000000, 3.000000)">
                            <circle id="path-257_1_" fill="#000000" transform="translate(2.792580, 2.699650) rotate(-8.001272) translate(-2.792580, -2.699650) " cx="2.79258" cy="2.69965" r="1.80006366"></circle>
                            <circle id="Oval" fill="#FFFFFF" transform="translate(2.792580, 2.699650) rotate(-8.001272) translate(-2.792580, -2.699650) " cx="2.79258" cy="2.69965" r="1.80006366"></circle>
                        </g>
                        <g transform="translate(60.000000, 0.000000)">
                            <circle id="path-261_1_" fill="#000000" cx="1.6" cy="1.2" r="1"></circle>
                            <circle id="Oval" fill="#72FFBF" cx="1.6" cy="1.2" r="1"></circle>
                        </g>
                        <g transform="translate(49.000000, 47.000000)">
                            <circle id="path-263_1_" fill="#000000" cx="1" cy="1.4" r="1"></circle>
                            <circle id="Oval" fill="#FFFFFF" cx="1" cy="1.4" r="1"></circle>
                        </g>
                        <g transform="translate(0.000000, 36.000000)">
                            <circle id="path-265_1_" fill="#000000" cx="1.1" cy="1" r="1"></circle>
                            <circle id="Oval" fill="#FFFFFF" cx="1.1" cy="1" r="1"></circle>
                        </g>
                    </g>
                    <g transform="translate(74.035447, 94.345005)">
                        <g transform="translate(0.000000, 3.000000)">
                            <circle id="path-275_1_" fill="#000000" transform="translate(2.396520, 2.992620) rotate(-8.001272) translate(-2.396520, -2.992620) " cx="2.39652" cy="2.99262" r="1.80006366"></circle>
                            <circle id="Oval" fill="#FFFFFF" transform="translate(2.396520, 2.992620) rotate(-8.001272) translate(-2.396520, -2.992620) " cx="2.39652" cy="2.99262" r="1.80006366"></circle>
                        </g>
                        <g transform="translate(27.000000, 0.000000)" fill="#72FFBF" id="Oval">
                            <circle cx="1.1" cy="1.5" r="1"></circle>
                        </g>
                        <g transform="translate(15.000000, 47.000000)">
                            <circle id="path-281_1_" fill="#000000" cx="1.6" cy="1.7" r="1"></circle>
                            <circle id="Oval" fill="#FFFFFF" cx="1.6" cy="1.7" r="1"></circle>
                        </g>
                    </g>
                </g>
            </g>
            <g id="Man" transform="translate(0.000000, 427.000000)">
                <path d="M131.8,425.2 C59.2,425.2 0.3,410.2 0.3,397.7 C0.3,385.2 59.2,373.2 131.8,373.2 C144.7,373.2 263.3,385.2 263.3,397.7 C263.3,410.2 173.2,425.2 131.8,425.2 Z" id="Fill-11" fill="#EDF2F7"></path>
                <path d="M229.5,280.1 C228.6,273.4 214.3,259.9 210.1,255.4 C189.7,233.3 174.6,227.2 171.3,225.8 C169.7,225.1 167.4,224.1 165.2,222.7 C157.1,216.6 152.6,213 151.8,211.9 C150.5,210 131.8,193.8 128.3,191.8 C126.1,190.5 117.4,186.2 108.8,182.5 C120.7,178.9 134,174.4 140.2,170.8 C143.7,168.7 143.1,163.4 142.6,161.1 C141.2,154 137.3,146.6 133.6,137.8 C131.2,132 127.8,126.1 123.5,120.3 L115.5,123.6 C116.9,131.8 118.3,138.1 119.8,142.4 C121.3,146.7 123.4,152.1 126.2,158.6 C124.6,158.9 123,159.3 121.5,159.6 C123.1,157.4 123.8,155.6 123.6,154.2 C123.3,152 111.6,146.7 88.5,138 L83.1,144.9 L103.8,156.9 C100.6,157.4 90.1,161.8 72.3,170.3 L75.3,171.2 C75.1,171.2 75,171.3 74.8,171.3 L74.5,171.7 C73.6,171.4 72.7,171.2 71.8,170.9 C60.9,174.9 54.7,178.3 53.3,181 C51.1,185.1 59.6,195.5 69.6,199.8 C76.3,202.7 88,209.7 104.6,220.9 C115.8,234.2 122.1,241.9 123.4,243.8 C123.9,244.6 124.4,245.4 124.7,246.3 C125,247.1 125.2,248.5 125.3,250.3 C125.8,250.5 126.2,250.8 126.7,251 C127.6,258.6 129.5,266.2 132.5,273.7 C130.9,281.3 127.3,291.1 121.7,303.2 C117.7,311.8 116.1,319.7 111.9,325.8 C108.6,330.5 101.6,334.7 96,339.9 C83.3,351.7 57.1,387.6 47.4,393.2 L48,393.4 C43.9,396.7 41.7,397.8 41.5,401.6 C41.3,405.4 42.3,407.4 46.3,409.7 C50.3,412 54.1,410.1 60.1,411.4 C66.1,412.7 64.7,415.3 73.4,415.5 C79.1,414.8 83.5,414.3 86.8,413.8 C91.7,413.1 92.7,412.9 92.9,410.5 C93.1,408.1 90.6,405.8 87.9,405.2 C85.2,404.7 81.5,404.5 78.7,404 C76.8,403.7 75,403.1 73.1,402.2 L64.6,396.6 C76.3,388.3 85,381.8 90.8,377.1 C96.8,372.2 109.6,361.2 129.2,344.1 C134.1,339.1 137.8,334.8 140.5,331.1 C147.7,321.2 154.1,307.5 156.8,301.2 C162.6,287.3 166.4,272.9 166.5,258.1 L169.2,259.7 C172.4,263 176.3,267.2 181.1,272.2 C185.9,277.2 192.7,282.6 201.5,288.5 C202,294.9 201.8,298.7 201,300.1 C199.8,302.2 196.8,312.5 195.6,318.9 C194.4,325.3 187.2,354 182.9,364.4 C180,371.3 177.4,377.2 175.1,382 L175.4,382.1 C173.9,385 173.1,386.8 173,387.6 C172.9,391.5 174.6,393.8 177.2,393.4 C177.6,393.3 184,392.5 190.4,391.6 C195.4,390.9 200.3,390.2 202.4,389.9 C208,389 210.2,388.7 217.2,387.8 C224.2,386.9 226.9,386.1 227.6,383 C228.2,380.3 225.1,377.2 218.7,376.7 C212.3,376.3 205.1,377.3 202.9,377.3 C200,377.2 198.6,376.7 197.1,376.2 C209.8,351.2 218.3,333.3 222.4,322.3 C229.5,303.9 230.4,286.8 229.5,280.1 Z M148.7,92.9 L171.3,79.8 L243.1,38 L214.1,4.2 L153.3,57.5 L137.2,71.6 L54,143.7 L57,146.5 L148.7,92.9 Z" id="Shape" fill="#082362" fill-rule="nonzero"></path>
                <path d="M115.7,222.3 C107,214.4 93.4,208.6 84.2,201.4 C75.7,194.7 66.6,192.7 62,188.2 C58.1,184.5 58.2,177.8 57.6,178.1 C55.8,179.3 54.6,180.4 54,181.4 C51.8,185.5 60.3,195.9 70.4,200.1 C77.1,202.9 88.9,209.9 105.6,221.1 C116.9,234.4 123.2,241.9 124.5,243.8 C125,244.6 125.5,245.4 125.8,246.3 C126.1,247.1 126.3,248.5 126.4,250.3 C129.4,251.8 131.2,252.6 131.7,252.6 C134.1,253 136.4,252.8 138.5,252.4 C140.6,251.9 136.9,244.1 129.5,236.5 C125.5,232.7 121,227.1 115.7,222.3 Z M131.1,253.4 C129.5,253.1 128,252.9 126.4,252.8 C127.4,259.8 129.2,266.8 132,273.8 C130.4,281.4 126.8,291.3 121.3,303.4 C117.4,312.1 115.7,320 111.5,326.1 C108.2,330.8 101.2,335.1 95.6,340.2 C82.9,352 56.8,388.1 47.1,393.7 C48.5,393.7 49.8,393.9 50.8,394.2 C54.6,395.2 60.5,385.1 72.5,372.1 C84.5,359.1 87.2,352.5 96.2,345.1 C98.7,343 106.9,336.4 120.8,325.3 C122.3,316.4 124.6,307.3 127.9,297.9 C131.1,288.5 133.9,279.9 136.1,272.2 C133.4,267.1 132,263.3 131.8,261 C131.5,258.2 131.3,255.7 131.1,253.4 Z M164.2,254.4 C164.3,255.2 164.5,256.4 164.7,258 L169.5,260.8 C172.6,264.1 176.6,268.3 181.4,273.3 C186.2,278.3 192.9,283.7 201.7,289.6 C202.2,295.9 202,299.8 201.2,301.2 C200,303.3 197,313.6 195.8,320 C194.6,326.4 187.5,355.1 183.2,365.5 C180.3,372.4 177.7,378.3 175.5,383.1 L178.2,383.7 C190.3,355.4 197.6,333.7 200.3,318.7 C201.5,312 204.1,303.8 205.9,296 C206.7,292.6 206.6,289.5 207.3,286.3 C200.5,283.4 195.7,280.8 192.8,278.7 C186.2,273.7 176.6,265.6 164.2,254.4 Z M219.9,8.9 L214.5,4 L153.5,57.3 L137.3,71.5 L54,143.5 L55.3,144.6 L219.9,8.9 Z" id="Shape" fill="#0096FF" fill-rule="nonzero"></path>
                <path d="M149.5,92.6 L172.1,79.5 L244.1,37.8 L240.3,33.1 L57.3,145.4 L57.6,145.7 L149.5,92.6 Z M75.5,171.4 C81.3,169.6 91.2,167.6 102.3,164.4 C107,163 113.5,161.5 121.7,159.7 C123.3,157.5 124,155.7 123.8,154.3 C123.5,152.1 111.8,146.8 88.7,138.1 L83.3,145 L104,157 C100.8,157.5 90.3,161.9 72.5,170.4 L75.5,171.4 Z M83.7,145.2 L87.6,140.1 L112.9,152.6 C120.2,155.4 120,158.2 112.2,160.8 C104.5,163.5 91.9,166.6 74.6,170.2 C91.2,162.1 101.1,157.8 104.3,157.4 L83.7,145.2 Z M167.7,239.7 C167,242.8 166.6,245.5 166.5,247.7 C166.4,249.9 166.7,253.7 167.2,259.3 C175.8,268.6 180.7,273.5 181.9,274.1 C183.7,275 186,277.9 187,278.5 C188,279 177.3,266.3 174.5,259.2 C172.7,254.4 170.4,247.9 167.7,239.7 Z M115.7,180.3 C126.4,177.1 136.3,173.5 141.1,170.5 C144.8,168.2 143.6,163.5 143.1,161.2 C141.7,154.2 137.6,146.8 133.9,138 C131.4,132.2 128,126.4 123.6,120.6 L120.9,121.7 C123,124.4 125.2,128.3 127.5,133.5 C129.7,138.6 135.7,149.7 137.9,157.9 C139.1,162.3 138.2,166.6 137.3,167.1 C131.1,171.4 109.6,182.1 115.7,180.3 Z M230.5,280.4 C229.6,273.7 215.1,260.3 210.9,255.7 C190.3,233.6 175.1,227.6 171.7,226.2 C171.2,226 170.7,225.8 170.1,225.5 C169.8,225 169,224.4 167.6,223.6 C157.9,216.4 152.7,212.2 151.8,211 C150.5,209.1 131.9,192.9 128.5,190.9 C126.4,189.7 118.2,185.6 110.2,182.1 C109.9,182.2 109.6,182.2 109.3,182.3 L109.4,182.2 C99.4,185.4 92.9,187.4 89.9,188.2 C82.4,190.1 74.8,191.7 69.1,191.2 C66.1,190.9 66.7,191.9 71.6,192.9 C76.6,193.9 79.7,194.4 86.8,193.4 C90.9,192.8 96.7,190.8 104.2,187.3 C107.5,189.5 113.4,193.2 126,199.9 C130.2,202.2 135.8,209.1 139,211.7 C148.6,219.6 153.2,228.7 155.3,232.8 C155,239.3 155.2,248.6 156,260.6 C154.8,272.3 153.3,280.8 151.6,285.8 C149.6,291.7 141.7,319.1 139.3,324.4 C138.9,325.3 136.9,326.9 133.8,329.4 C130,332.4 124.4,336.7 118,342.3 C106.2,352.5 94.6,365.7 83.7,376 C74.5,384.6 63.6,391.8 59.1,395 C58.1,394.6 57.3,394.4 56.7,394.2 C54.6,393.6 55.9,393.9 57.8,396 C57.2,396.5 56.9,396.8 57.1,396.8 C57.6,396.9 58.2,397.1 59,397.3 C59.1,397.5 59.2,397.6 59.4,397.8 C59.9,398.5 60.5,399.7 61.3,401.6 C64.4,405.3 67.5,407.5 70.5,408 C75,408.8 80,414.7 82.7,414.3 C83.9,414.1 85.1,414 86.1,413.8 C91,413.1 92,412.9 92.2,410.5 C92.4,408.1 89.9,405.8 87.2,405.2 C84.5,404.7 80.8,404.5 77.9,404 C76,403.7 74.1,403.1 72.3,402.2 L64.4,397.1 C76,388.9 84.7,382.4 90.5,377.7 C96.5,372.8 109.4,361.7 129.1,344.6 C134,339.6 137.8,335.3 140.5,331.5 C147.7,321.5 154.2,307.9 156.9,301.5 C163.9,284.9 168,267.8 166.3,249.9 C166.3,249.5 166.2,249.1 166.2,248.7 L168.2,234 C182.4,239.7 192,245.1 196.8,250.1 C201.6,255.1 209.8,262.6 221.3,272.7 C220.4,277.6 220.2,280.6 220.7,281.5 C223.9,287 226.2,288.8 225.6,289.9 C224.4,292 215.1,310.7 213.8,317.1 C213,321.4 204.9,344.2 189.5,385.5 L192.9,386.3 C194.7,382.9 196.4,379.6 198.1,376.4 C202.9,377.9 211.4,380.5 213.6,381.4 C218.5,383.3 210.2,388.2 217.3,387.3 C224.4,386.4 227.2,385.6 227.9,382.4 C228.5,379.7 225.4,376.6 218.8,376.2 C212.2,375.8 204.9,376.9 202.7,376.8 C201.7,376.8 199.9,376.4 198.2,376 C211,351.3 219.5,333.5 223.6,322.6 C230.5,304.3 231.5,287.1 230.5,280.4 Z" id="Shape" fill="#00163D" fill-rule="nonzero"></path>
                <path d="M138.6,70.9 C138.6,70.9 138.5,70.9 138.6,70.9 C137.9,70.1 136.8,70 136,70.6 L120.6,83.8 C119.9,84.4 119.8,85.5 120.3,86.2 L132.8,103.1 C133.3,103.8 134.4,104 135.2,103.6 L153.3,93.1 C153.4,93.1 153.4,93 153.5,93 C154.3,92.4 154.4,91.3 153.8,90.5 L138.6,70.9 Z M243.7,37.6 L223.1,13.1 L212.7,1.1 C212.7,1.1 212.7,1 212.6,1 C211.9,0.3 210.8,0.3 210.1,1 L189.8,20.8 C189.1,21.5 189.1,22.5 189.7,23.2 L197.6,32.6 L216.7,55.3 C217.3,56 218.3,56.1 219,55.7 L243.2,40.2 C243.3,40.2 243.3,40.1 243.4,40.1 C244.2,39.5 244.3,38.4 243.7,37.6 Z" id="Shape" fill="#11358B" fill-rule="nonzero"></path>
                <path d="M153.6,88 L133.1,100.9 L134.3,102.8 C134.8,103.6 135.9,103.9 136.7,103.4 L155,93 C155.1,92.9 155.2,92.9 155.3,92.8 C156.1,92.2 156.2,91 155.5,90.3 L153.6,88 Z M245.6,37 L240.6,31.1 L213.2,49 L218.2,54.7 C218.8,55.4 219.8,55.5 220.5,55 L245.1,39.7 C245.2,39.7 245.2,39.6 245.3,39.5 C246.1,38.9 246.2,37.8 245.6,37 Z" id="Shape" fill="#0C245B" fill-rule="nonzero"></path>
                <path d="M139.1,69.1 C138.4,68.4 137.3,68.3 136.6,69 L120.5,83.4 C119.8,84 119.7,85.1 120.2,85.8 L123.1,89.7 L142.6,73.6 L139.2,69.2 C139.2,69.2 139.1,69.2 139.1,69.1 Z M213.3,0.7 C213.3,0.7 213.2,0.6 213.2,0.6 C212.5,-0.1 211.4,-0.2 210.7,0.5 L189.6,20.2 C188.9,20.9 188.8,22 189.5,22.7 L194.7,28.7 L218.3,7.2 L213.3,0.7 Z" id="Shape" fill="#0082DE" fill-rule="nonzero"></path>
                <path d="M74,129.5 C75.1,129.1 79.2,125.8 79.6,124.7 C80,123.6 78.8,122.1 75.3,123.7 C71.8,125.3 70.2,128.4 69.9,129.1 C69.7,129.6 69.6,130.3 69.6,131.2 L72.2,128.8 C72.6,129.5 73.2,129.8 74,129.5 Z M63.8,168.7 L60.9,169.1 L59.1,169.3 L64.1,168.4 C69.3,166.3 69.4,160.8 64.5,151.9 C57.2,138.4 48.4,133.6 45.3,134 C42.2,134.4 17.8,143.6 28,161.3 C32.6,169.2 37.7,172.3 43.5,170.6 L43.3,170.9 C50.2,177.3 54,180.5 54.7,180.4 C55.2,180.3 58.1,177.2 62.4,175.2 C67.2,172.9 72.6,171 71.8,171.1 C70.6,171.3 68.6,171 63.8,168.7 Z M122.5,111.1 C122.3,106.3 121.5,104.1 119.9,102.5 C118.3,100.9 116.3,101 112.8,102.6 C109.4,104.2 106.8,106.2 106.5,107.6 C106.1,109.5 106.9,112.3 109,116.1 L106.3,117.6 C109,119.4 110.8,120.5 111.7,121 C112.6,121.5 113.9,122.4 115.8,123.7 L123.2,120.6 C122.9,119.6 122.7,116.5 122.5,111.1 Z M86,132.6 C85.6,131.8 85.2,130.9 84.7,130 L77.7,134.2 C77.1,134.5 76.6,134.7 76.1,135 C76,135.1 75.8,135.2 75.5,135.3 C75,133.7 74.6,132.6 74.1,132 C73.4,131.1 72.4,131.3 72,131.8 C71.6,132.3 71.6,134.5 71.8,135.8 C72,137.1 73.5,139.1 75.1,139.7 C76.2,140.1 77.1,140.5 78,140.9 L83.4,144 L88.1,137.3 L86.8,135.6 C86.8,134.5 86.4,133.5 86,132.6 Z" id="Shape" fill="#9ABBDC" fill-rule="nonzero"></path>
                <path d="M72.8,171 C73,171 73,171 72.8,171 C72.8,171 72.8,171 72.8,171 Z M79.8,125.9 C80.3,124.8 78.9,123.3 75.2,124.9 C73.6,125.6 72.3,126.6 71.4,127.5 C70.1,128.8 74,126.3 75.5,126.5 C76.5,126.6 77.1,127.2 77.3,128.3 C78.6,127.3 79.6,126.3 79.8,125.9 Z M64.6,152.2 C57.5,138.7 49.1,133.8 46.2,134.2 C44.7,134.4 51.6,139.7 56.7,146.5 C61.4,152.7 64.2,160.6 64.7,162.2 C66.4,167.5 56.9,170.3 56.9,170.3 L65.1,173.6 C68.9,171.7 72.2,171.1 72.8,171 C71.9,171.1 69.4,170.2 65.4,168.2 C69.2,165.8 69,160.5 64.6,152.2 Z M86.3,132.8 C85.9,131.9 85.5,131 85.1,130 L78.6,134.3 C78.1,134.6 77.6,134.8 77.1,135.1 C76.9,135.2 81.2,133.4 82.6,132.8 C84,132.2 83.7,133.4 84.1,134.1 C84.4,134.6 83.8,135.7 84.1,136.4 C84.3,136.8 85.3,136.7 85.6,137.2 C86.2,138.2 86.8,139.1 87.3,139.7 L88.6,137.7 L87.3,135.9 C87.1,134.7 86.8,133.7 86.3,132.8 Z M123.2,121 C122.9,120 122.7,116.9 122.6,111.6 C122.4,106.8 121.6,104.7 120,103 C118.3,101.4 116.2,101.5 112.6,103.1 C115.6,104.6 117.6,106.9 118.7,110.1 C119.7,113.3 119.8,117.5 119,122.7 L123.2,121 Z" id="Shape" fill="#7898B9" fill-rule="nonzero"></path>
                <path d="M53.1,137.3 C53.1,141.4 46.4,143.7 44.9,147 C43.9,149.2 43.5,152.2 43.7,156 C39,156.3 36.7,157.1 36.9,158.5 C37.1,159.9 39.1,161.1 43,162.2 L50.6,173.7 C51.1,175.2 51.3,176.2 51,176.6 C50.7,177 50,177.1 48.6,176.9 C39.6,176.8 34.3,175.2 32.6,172.1 C30,167.4 25.6,163.2 24.2,159.8 C23,156.9 22.4,146.9 26.9,143.2 C31.4,139.5 41.3,133.5 44.7,132.4 C48.2,131.1 53,133.1 53.1,137.3 Z" id="Path-125" fill="#00163D" fill-rule="nonzero"></path>
            </g>
            <g id="Woman" transform="translate(540.088480, 663.618473) rotate(-40.000000) translate(-540.088480, -663.618473) translate(388.588480, 478.118473)" fill-rule="nonzero">
                <path d="M239.2,81 L219.1,134.8 L121.5,98.2 C134.8,63.6 141.7,45.7 142.1,44.7 L239.2,81 Z" id="Path-18" stroke="#0096FF" stroke-width="0.9" fill-opacity="0.1153" fill="#FFFFFF"></path>
                <path d="M50.4,279.9 L47.5,273.6 L7.2,278.1 C11.1,287.2 15.1,293.2 19.3,296.1 C25.6,300.4 38.9,304.1 47.9,300.4 C53.9,298 54.7,291.2 50.4,279.9 Z M80.7,320.8 C76.1,315.8 69.4,308.1 60.6,297.5 C55.8,303 55.1,309.9 54,312.7 C48.1,326.9 43.4,356.4 81.7,356.8 C91.7,356.9 100.9,354.6 109.3,349.8 C96.4,337.1 86.9,327.4 80.7,320.8 Z" id="Shape" fill="#EDF2F7"></path>
                <g id="Group-57" transform="translate(151.916691, 147.084361) rotate(29.000000) translate(-151.916691, -147.084361) translate(36.916691, 43.084361)">
                    <path d="M19.1,179.2 C17.1,177.6 13.8,175.3 9.9,175.3 C6,175.3 0.3,181.9 0.9,182.3 C1.2,182.4 1.3,183.6 1.3,185.8 C1.3,187.3 0.2,188.5 0.9,192.7 C1.2,194.5 1.8,196.8 3.9,200.4 C4.6,201.6 5.6,203.9 7,207.3 L18.9,204.6 L22.7,203.7 L24.3,187.1 C23.1,185.2 21.2,180.8 19.1,179.2 Z M228.6,30.8 C225.4,28.3 220.5,27.1 214,27.3 L217.8,9.2 C218.6,3.8 218.4,1.1 217,0.9 C215,0.6 213.5,4.8 211.6,11.3 C209.3,19.5 206,28.2 204.9,36.8 C204.3,41.1 203.9,47.9 203.4,57.2 L220.5,61.9 C229.1,43.7 231.8,33.4 228.6,30.8 Z" id="Shape" fill="#9ABBDC"></path>
                    <path d="M27,188.4 C26.3,187 25.1,186.2 23.5,185.9 C23,182.3 22.2,180.1 21.2,179.3 C19.2,177.7 13.7,175.3 9.9,175.3 C6,175.2 0.3,182 0.8,182.3 L2.5,182.6 C6.8,178.3 10.1,176.6 12.4,177.5 C14.3,178.2 13.8,180.1 14.7,181.1 C15.4,182 17.5,181.9 17.8,184.3 C18.2,187.8 18.7,194.4 19.4,204.4 L22.8,203.8 C22.9,201.8 23.1,200.4 23.4,199.6 C25.8,192.9 27.6,189.5 27,188.4 Z M228.6,30.8 C225.4,28.3 220.5,27.1 214,27.3 L218,8.1 C218.7,3.4 218.3,1 216.9,0.9 C216,0.9 216.3,5.1 215.7,9.9 C214.8,16.3 210.5,27.7 212.3,29.2 C214.5,31.1 217.3,30.1 220,30.6 C223.7,31.3 226.7,32.3 227.2,33.7 C228,36.4 224.6,45.4 217,60.8 L220.4,61.9 C229.1,43.7 231.8,33.4 228.6,30.8 Z" id="Shape" fill="#7898B9"></path>
                </g>
                <path d="M252,149 C252.8,148.5 256.8,152.7 264.1,161.6 C225.2,216.1 205.2,244.5 204.1,246.8 C202.5,250.3 196.8,261.8 194.3,267 C190.3,275.7 186.2,284.6 181,292.6 C175.8,300.6 177.4,295.2 165.6,313.9 C157.7,326.4 146.5,345.3 132,370.8 C108.6,349.2 90.6,331.4 78,317.4 C65.4,303.4 54.7,289.1 45.9,274.6 C49.1,265.2 47.5,258.2 51.8,252.4 C52.3,251.7 49.9,260.5 44.6,278.8 C35.6,289.4 26.2,292.6 16.3,288.5 C6.5,284.4 1.8,269.5 2.1,243.9 C5.5,204.7 7.4,184.9 7.8,184.7 C8.5,184.3 25,185.3 25.4,186.1 C25.6,186.5 28.6,202.5 34.3,234.2 C47.3,220.8 54.2,214 54.9,213.7 C60,211.5 69.1,203.7 85.5,203.9 C114.9,204.3 167.3,221.6 169.8,225.4 C172.3,229.2 189.4,213.1 200.3,202.9 C211.2,192.7 217.3,186.9 226.9,175.9 C236.6,165 250.8,149.8 252,149 Z" id="Path-25" fill="#002465"></path>
                <path d="M137.3,362.4 C131.4,357.9 124.2,351.5 115.7,343.3 C123.8,339.6 131.7,332.5 136.1,326.1 C139.6,321 142.9,310.1 145.9,293.6 C147.3,280.1 147.3,267.1 145.7,254.4 C143.6,237.2 139.6,228.7 138.3,220.6 C139.7,221.7 141.3,222.9 143,224 C152.8,230.4 161.3,230.4 168.5,233.9 C175.7,237.4 176.2,232.1 177.1,230.7 C178,229.3 173.4,227.5 172.5,226.2 C171.2,224.2 153.3,217.5 134.9,212.5 C133.3,212.1 132.4,212.2 132.1,212.7 C126,212.9 122.9,214.9 121.8,217.5 C120.7,220.1 118.6,223.1 114.9,230.8 C111.2,238.5 111,248.2 103.9,257.6 C96.8,267 80.5,273.7 75.4,288.5 C74.9,290 74.8,291.6 75.1,293.4 C68.9,284.7 63.4,276.5 60.2,271.3 C58.2,267.9 61.9,267.3 61.7,266.8 C60.7,263.9 76.1,269.7 74.9,266.8 C72.8,261.3 73.4,250.7 71.2,244.8 C72.1,242.6 72.9,238 73.7,231 C71.6,236.7 69.6,240.8 67.9,243.3 C67.6,243.7 67.3,244.1 67,244.6 C64.5,247.3 60.4,252.6 54.8,260.4 C52.3,263.3 50.6,265.3 49.9,266.4 C49.6,266.6 49.2,267.1 48.7,267.9 C45.8,270.7 37.3,277.2 30.9,280.8 C27.7,282.6 20.6,283 9.6,282 C10.9,284.6 12.1,286.2 13.2,287 C16.2,289.1 22.1,290.2 24.7,290 C27.3,289.8 31.2,289.7 36.1,286.4 C41,283.2 42.1,282.5 44.6,278.9 C45.3,277.9 46.2,277 47.1,276.2 C55.6,290.1 65.9,303.7 78.1,317.2 C90.7,331.3 108.7,349.1 132,370.8 C134.6,366.9 136.3,364 137.3,362.4 Z M202.6,236.1 C201.4,233.7 196.4,231.3 187.6,228.8 C191.6,232.5 193.8,235.5 194.1,237.8 C194.4,240.1 195.5,247.7 197.4,260.7 C199.6,256.2 201.1,253.2 201.8,251.8 C202.4,250.7 202.7,249.7 203,249 C204.1,246.8 205.2,245.3 205.9,244 C208.6,239.9 210.8,236.6 212.6,234.1 C221.3,221.5 264.1,163.7 264.5,162 C264.7,161.4 263.4,160 260.9,157.9 C239.3,187.5 224.1,209 215.3,222.4 C210.5,229.7 205.9,234.5 203.9,237.5 C203.3,236.8 202.8,236.4 202.6,236.1 Z M34.7,233.3 C35.1,232.3 26.3,185.8 26,185.3 C25.8,185 24.1,184.7 21.1,184.4 L30.4,232.5 L23.1,245.1 C30.4,238.1 34.1,234.6 34.2,234.6 C35.6,232.6 35.8,232.2 34.7,233.3 Z M126.7,112.3 L189.6,155.8 L195.4,135.7 C197.8,127 198.8,121.4 198.4,118.8 C198.1,117.1 196.5,114.2 195.8,112.8 C194.4,110.1 191.6,110.9 187.4,107.6 C181.3,102.7 173.1,101.2 162.3,99.3 C157,98.4 141.6,97.7 138.5,98.1 C136.4,98.4 132.8,100.4 127.5,104.2 C123.9,107.1 121.9,109.3 121.6,110.7 C121.2,112.1 122.9,112.6 126.7,112.3 Z" id="Shape" fill="#00163D"></path>
                <path d="M139.2,290.6 C140.8,278.1 140.8,265.9 139.4,254.2 C137.2,236.6 132.7,228.8 132,220.6 C131.8,218.6 132.1,216.2 132.7,213.4 C131.8,212.9 130.9,212.4 130,212 C131.1,212.1 132.3,212.1 133.5,212.2 C137.3,210.1 139.5,209 140.1,208.9 C140.3,208.8 140.5,208.6 140.7,208.5 C143.5,207.7 150.6,204.5 162,198.8 C172.2,186 178.3,177.8 180,174.3 C182.6,169 202.3,140.6 195.5,129.3 C191,121.8 178.3,114.2 157.5,106.7 L128.7,108.7 L112.4,119.3 L107.7,123.1 C103.1,132 100.9,142.2 101.1,153.8 C101.3,171.2 100.3,175.4 104.9,188.4 C107.9,197.1 111.8,203.7 116.5,208.3 C116.4,208.5 116.6,208.7 117.1,209 C116.9,209.3 116.8,209.7 116.8,210.1 C116.7,211.3 116.1,212 116.1,213.6 C116.1,215.3 116.8,217.8 115.8,220 C114.7,222.5 112.5,225.2 108.7,232.4 C104.9,239.6 105.5,248.9 98.3,257.8 C94.5,262.4 79.6,267.8 69.4,275.2 C60.2,281.9 55.5,290.4 53,297 C47.7,310.9 47.2,342.9 80.4,345.2 C102.5,346.8 122.1,328.6 139.2,290.6 Z" id="Path" fill="#0D3B8F"></path>
                <path d="M158.3,194.9 C152.6,201.5 141.2,209.3 132.4,211.9 C131.6,212.1 132,212.3 133.5,212.3 C133.9,212.3 134.1,212.2 134.3,212.2 C134.4,212.2 134.4,212.1 134.5,212.1 C144.6,209.8 153.3,205.8 160.7,200.1 C172.2,191.2 200.1,138.8 195.3,129.7 C190.5,120.6 178.9,114.3 162.4,108.4 C151.4,104.5 140.1,104.7 128.4,109.1 C125.3,109.8 123.1,110.5 121.6,111.2 L120.3,116.7 C125.9,114.6 131.8,113.5 138.7,113.1 C153.5,112 168,119.8 175,125.8 C182,131.8 184.6,142 183,151.3 C181.4,160.6 168,183.6 158.3,194.9 Z M139.2,290.6 C140.8,278.1 140.8,265.9 139.4,254.2 C137.2,236.6 132.7,228.8 132,220.6 C131.8,218.6 132.1,216.2 132.7,213.4 C130.8,212.4 129.4,211.7 128.5,211.3 C128.1,217.8 128.1,222.3 128.3,224.8 C129.1,232.8 131.7,244.9 131.6,251.7 C131.5,258.5 134.1,283 128,298.5 C123.9,308.8 108.2,324.4 80.7,345.2 C102.8,346.6 122.3,328.5 139.2,290.6 Z" id="Shape" fill="#072E77"></path>
                <path d="M252.5,149.3 C252.6,149.2 252.1,149 252,149 C250.8,149.7 236.6,164.9 227,176 C217.4,187.1 212,193.1 200.4,203 C198.6,204.5 213.5,193.1 227.9,176.6 C236.9,166.2 250.7,151.6 252.5,149.3 Z M54.9,213.7 C52.1,215.2 45.2,222.1 34.3,234.2 C47.1,221.5 58,213.5 67,210 C74,207.3 84,205.5 97,204.8 C92.9,204.3 89,204 85.5,204 C69.1,203.8 59.2,211.4 54.9,213.7 Z M204.7,125.3 C205.5,121 204,114.8 195.2,107.4 C189.7,102.8 184.3,98.6 169.7,95.4 C155.2,92.2 139.4,91.1 130.1,98.3 C129.6,98.7 126.5,100.9 124.6,103.6 C123.2,105.6 122.8,105.8 119,112.2 C115.5,114 111.7,117.7 107.5,123.1 C102.9,132 100.7,142.2 100.9,153.8 C101.1,171.2 100.1,175.4 104.7,188.4 C103.3,162.8 103.8,145.9 106.2,137.6 C109,128.1 116.5,118.6 128.4,109.2 C126.5,109.3 124.5,109.8 122.3,110.6 C122.3,110.6 122.3,110.6 122.3,110.6 C123.4,108.8 131.6,100 140.2,98.7 C148.1,97.5 162.3,98.4 173.6,102.5 C197.2,111 202,116.9 195.1,132 L190.2,150.1 C188.7,153.6 187.7,156.1 187.1,157.3 C186.1,159.6 185.5,161 184.4,162.3 C181.2,165.9 165,171.3 142.5,170.1 C127.7,169.3 123.6,179 141.1,180.3 C167.3,182.3 180.2,173.2 184.2,170.3 C185.9,169 188.3,165.5 191.3,159.6 C199.9,139.3 204.3,127.8 204.7,125.3 Z M73.4,277.8 C80.8,272.6 91.9,268.6 100.3,260.5 C106.3,254.7 106.8,244.4 110,235.7 C112.2,229.7 117.2,225.6 118.2,220.6 C119.7,213.3 116.8,208.4 116.7,210.1 C116.6,211.3 116,212 116,213.6 C116,215.3 116.7,217.8 115.7,220 C114.6,222.5 112.4,225.2 108.6,232.4 C104.8,239.6 105.4,248.9 98.2,257.8 C94.4,262.4 79.5,267.8 69.3,275.2 C60.1,281.9 55.4,290.4 52.9,297 C50.2,304.1 48.7,315.9 52.4,326 C54.4,309 56.6,298.4 58.9,294.2 C61.1,290.2 65.8,283.2 73.4,277.8 Z M9.8,237.9 C9.6,224.2 11.4,206.5 15.1,184.8 C11.5,184.6 8.2,184.5 7.9,184.6 C7.5,184.9 5.6,204.6 2.2,243.8 C1.8,269.4 6.6,284.3 16.4,288.4 C23.7,291.6 10,258.5 9.8,237.9 Z" id="Shape" fill="#0096FF"></path>
                <g id="Group-75" transform="translate(125.064567, 212.881040) rotate(-2.000000) translate(-125.064567, -212.881040) translate(115.564567, 207.381040)">
                    <path d="M0.9,0.6 C4,2.1 7.1,3.2 10.1,3.9 C11.6,4.3 13.1,4.5 14.5,4.7 C15.5,4.8 17,4.8 18.9,4.8 L17,10 C15.5,10.2 14.2,10.3 13.2,10.2 C11.6,10.1 9.8,9.7 7.8,9.1 C3.8,7.9 1.4,6.9 0.5,6 L0.9,0.6 Z" id="Path-94" fill="#BBE2FF"></path>
                    <path d="M14.5,4.7 C15.5,4.8 17,4.8 18.9,4.8 L17,10 C15.5,10.2 14.2,10.3 13.2,10.2 C13.8,9 14.1,8.1 14.3,7.5 C14.4,7 14.5,6 14.5,4.7 Z" id="Path" fill="#7FBBE8"></path>
                </g>
                <path d="M165,179.1 C158.8,180.5 151,181.2 141.5,180.5 C125.9,179.3 113.1,174.5 104.1,167 C104.1,164.8 104.1,163.2 104.1,162.1 C104.1,160.5 104.2,158.1 104.3,155 C116.2,164.3 129.4,169.6 143,170.3 C154.5,170.9 166.2,169.7 174.6,167.4 L170.9,177.5 C170.1,177.9 169.5,178.1 169.1,178.2 C168.1,178.4 166.7,178.7 165,179.1 Z" id="Path" fill="#0475C5"></path>
            </g>
            <g id="Planet_4" transform="translate(380.000000, 376.000000)">
                <path d="M67.8,104.6 L39.5,171.2 L69.9,102.4 L67.8,104.6 Z M38.8,113.2 L7.7,177 L39.6,114.3 L38.8,113.2 Z M31.5,93.8 C30.3,95.1 19.8,112 0.1,144.5 L32.6,95.9 C33,93.2 32.7,92.5 31.5,93.8 Z" id="Shape" fill="#91C0CB" fill-rule="nonzero" opacity="0.3"></path>
                <g id="Group" transform="translate(25.000000, 71.285081)" fill-rule="nonzero">
                    <g fill="#1D4EA8" id="Oval">
                        <ellipse transform="translate(24.380600, 24.604500) rotate(-5.998509) translate(-24.380600, -24.604500) " cx="24.3806" cy="24.6045" rx="21.6994629" ry="21.5994654"></ellipse>
                    </g>
                    <path d="M26.7,46.1 C38.6,44.8 47.2,34.2 46,22.3 C44.8,10.4 34.1,1.8 22.2,3.1 C17.7,3.6 11.5,8.3 6.3,12.8 C9.5,12 21.4,12.9 22.3,25.8 C23.2,37.7 10.9,37.9 6.2,36.3 C6.8,37.2 7.2,37.8 7.5,38 C11.9,43.6 19,46.9 26.7,46.1 Z" id="Path" fill="#0D3B8F"></path>
                    <path d="M26.9,46.1 C28.5,45.9 30.1,45.6 31.6,45.1 C32.5,44.8 33.3,44.4 34.2,44 C42,40.1 46.9,31.6 46,22.2 C45,12.4 37.6,4.7 28.5,3 C27.6,2.8 26.7,2.7 25.8,2.7 C24.7,2.6 38.9,6.6 40,24.3 C41.1,42.1 19.9,45.9 23.5,46.1 C24.6,46.2 25.7,46.2 26.9,46.1 Z" id="Path" fill="#05296E"></path>
                    <path d="M26.7,46.1 C28.1,45.9 29.5,45.7 30.9,45.2 C31.5,45 20.1,46.6 10.9,37.8 C1.7,29 4.3,16.7 4.1,17.3 C3.1,20.2 2.6,23.5 3,26.8 C4.1,38.7 14.8,47.4 26.7,46.1 Z" id="Path" fill="#0096FF"></path>
                </g>
                <g id="Group-50" transform="translate(31.245814, 0.000000)">
                    <path d="M37.2,94.2 C37.3,94.1 37,93.3 37.4,92.9 C37.7,92.6 38.6,92.7 38.9,92.7 C39.8,92.7 41.8,92.3 42.3,94.6 C42.6,96.1 42.2,97.7 41.1,99.3 C39.5,101 38.3,102.1 37.6,102.7 C36.5,103.6 35.4,103.5 33.3,103.4 C30.5,103.1 29.9,102.9 29.2,101.9 C28.8,101.3 29,100.3 29.8,99.1 C34.5,96.1 37,94.5 37.2,94.2 Z" id="Path-93" fill="#000E48" fill-rule="nonzero"></path>
                    <path d="M32.4,81.9 L29.7,99.3 L36.8,98.6 L40.5,77 C40.8,73.3 39.6,71.6 37.2,71.8 C34.7,72.1 33.1,72.5 32.4,73 C29.6,73.1 27.6,73.3 26.7,73.6 C25.7,73.9 24.9,74.8 24.2,76.3 L23.5,77.1 L6.4,75.1 C6.7,73.6 6.8,72.8 6.7,72.5 C6.6,72.2 7.7,70 5,71.2 C3.1,72 2.6,77.4 2.1,79.4 C1.9,80.2 0,84.2 0.1,84.9 C1.9,83.1 3,81.9 3.4,81.4 C3.7,81.1 4.1,81.2 4.2,80.9 L4.4,80.8 C4.5,81.6 4.7,82.3 4.9,82.8 C6.4,85.4 10.6,87.6 14.4,87.6 C20.7,87.5 26.7,85.7 32.4,81.9 Z" id="Path-92" fill="#05296E"></path>
                    <path d="M6.6,72.4 C6.5,72.1 7.6,69.9 4.9,71.1 C4.3,71.4 3.9,72.1 3.5,73 C2.7,75 5.3,73.8 5.3,74.7 C5.3,75 7.1,74.8 9.7,74.8 C9.2,74.7 8.6,74.6 8.1,74.4 C7.2,73.3 6.7,72.7 6.6,72.4 Z M9.7,74.7 C13,75.4 15.7,75.9 18.1,76.2 C18.9,76.3 19.7,76.4 20.3,76.5 C19.3,75.8 18.3,75.2 17.4,75.1 C14.8,74.6 12,74.7 9.7,74.7 Z M37.1,71.8 C33.4,72.2 34.7,72.3 31.9,72.8 C29.1,73.3 28,73.1 26.6,73.6 C25.6,73.9 24.8,74.8 24.1,76.3 L23.4,77.1 C22.8,76.9 21.8,76.8 20.3,76.6 C22.3,78 24.2,79.9 24.5,79.7 C31.7,75.6 36.3,74.4 37,74.3 C37.5,74.2 38.1,75.2 38.7,77.2 C38.6,78.9 36.8,81.3 36.6,84.1 C36.5,86.1 36.3,91 36.2,98.7 L36.8,98.6 L40.5,77 C40.7,73.2 39.6,71.5 37.1,71.8 Z M4.1,79.9 C4,79.3 4.1,78.7 4.2,77.8 C3.8,78.6 3.6,79.1 3.5,79.5 C3.4,79.8 3.4,80.4 3.5,81.2 L4.6,80.6 C4.3,80.7 4.1,80.4 4.1,79.9 Z" id="Shape" fill="#021E53"></path>
                    <path d="M16.3,42.1 C16.1,42.6 15.9,42.9 15.8,43.1 C14.3,46.4 14.4,48.5 13.4,50.9 C9.4,60.3 7.1,68.2 6.3,72.4 C6,74 6.5,75.5 6.7,75.7 C7.3,76.6 7.9,79.3 14.8,79.9 C21.7,80.4 23.1,77.3 24.6,77.2 C26.2,77 29.5,72.6 29.8,71 C30.2,69.3 29.7,67.2 30.1,65.8 C30.2,65.4 32.4,60.6 33.3,58.4 C34,56.6 34.8,55.1 35.8,52.1 C36.3,50.6 36.7,49 37.1,47 L30.8,72.9 C31.2,72.9 31.7,72.8 32.4,72.7 C33,72.6 34,72.3 35.1,72 C38.2,64.7 39.9,60.3 40.3,58.8 C40.8,56.5 42.2,54.3 42.5,52.2 C42.8,50.2 43.6,47.2 44.9,43.2 C45.5,41.1 45,39.6 43.6,38.6 C42.2,37.6 39.1,36.9 34.4,36.4 C32.2,37.8 30.7,38.5 30,38.6 C28.4,38.8 27.6,37.8 26.5,37.2 C26.2,37 32.1,27.5 36.1,18.5 C37.8,14.6 39.3,12.1 40,9.5 C38.3,8.9 37.4,8.6 37.3,8.5 C36.8,8.1 36.7,7.9 35.3,10.7 C32.4,16.3 23.7,26.2 21.1,31.3 C20.1,33.3 19,34.2 18.9,34.4 C17.7,36 16.9,38.6 16.3,42.1 Z" id="Path-95" fill="#0D3B8F" fill-rule="nonzero"></path>
                    <path d="M16.3,42.1 C16.1,42.6 15.9,42.9 15.8,43.1 C14.3,46.4 14.4,48.5 13.4,50.9 C9.4,60.3 7.1,68.2 6.3,72.4 C6,74 6.5,75.5 6.7,75.7 C6.9,76 7.8,72.3 9.6,67.1 C10.7,63.8 12.3,59.9 13.6,55.8 C14.1,54.1 14.7,52.1 15.2,50.4 C15.7,48.9 16.8,43.4 17.2,42.2 C17.6,41 18.1,35.8 17.7,36.8 C17.2,37.8 16.8,39.6 16.3,42.1 Z" id="Path" fill="#0096FF" fill-rule="nonzero"></path>
                    <path d="M26.5,37.3 C26.2,37.1 32.1,27.6 36.1,18.6 C37.8,14.7 39.3,12.2 40,9.6 C39.4,9.4 39,9.3 38.8,9.2 C38.4,9.1 37.6,12.1 35.2,16.2 C31.9,21.9 25.8,28.9 24.6,33.9 C24.6,34.1 24.2,35.1 24.2,35.2 C23.6,38.6 26.9,37.5 26.5,37.3 Z M43.6,38.7 C42.2,37.7 39.1,37 34.4,36.5 C32.2,37.9 30.7,38.6 30,38.7 C29.2,38.8 41,37.8 42.5,41.5 C44,45.2 33.9,72.3 34.9,72.1 C35,72.1 35.1,72.1 35.2,72 C38.3,64.7 40,60.3 40.3,58.8 C40.8,56.5 42.2,54.3 42.5,52.2 C42.8,50.2 43.6,47.2 44.9,43.2 C45.5,41.2 45,39.6 43.6,38.7 Z M35.1,72 C35.1,72 35.1,72 35.1,72 C35.5,71.9 35.5,71.9 35.1,72 Z M29.8,63 C28.7,64.8 27.7,69 26.9,71.3 C26.3,72.9 25.5,74.9 24.6,77.2 C26.2,77 29.5,72.6 29.8,71 C30.2,69.3 29.7,67.2 30.1,65.8 C30.2,65.4 32.4,60.6 33.3,58.4 C33.5,57.9 32.5,58.8 29.8,63 Z" id="Shape" fill="#082C6F" fill-rule="nonzero"></path>
                    <path d="M45.1,4.9 C44.6,4.6 42.8,5.9 42.4,5.9 C42.3,5.9 42.8,5.2 43,4.8 C43.5,3.8 44.9,1.4 44.8,0.8 C44.7,0.2 44.1,0.7 44.1,0.7 C44.1,0.7 43.4,1.7 41.9,3.6 C40.7,2.9 39.8,2.6 39.1,2.7 C38.4,2.8 37.8,4.5 37,8.2 L40,9.6 L40.8,8.8 L42.4,7.8 L43.9,6.4 C45.1,5.7 45.5,5.2 45.1,4.9 Z M32.6,17.4 C29.8,17.3 27.3,20.9 27,25.5 C26.9,28.2 27.5,30.7 28.7,32.3 L27.9,32.2 C27.2,33.5 26.5,35.4 26.1,36.6 C25.7,37.8 28.2,38.8 28.9,38.9 C29.6,39 32.5,38.5 33.1,37.2 C33.4,36.6 33.5,35.5 33.4,33.8 C35.4,32.7 37,29.7 37.2,26.1 C37.5,21.4 35.4,17.5 32.6,17.4 Z" id="Shape" fill="#9ABBDC" fill-rule="nonzero"></path>
                    <path d="M45.4,4.8 C44.9,4.5 43.1,5.8 42.7,5.8 C42.6,5.8 43.1,5.1 43.3,4.7 C43.8,3.7 45,1.7 44.9,1 C44.9,0.8 44.8,0.7 44.7,0.6 C44.6,0.5 44.2,1.6 43.3,3.4 C42.9,4.3 41.4,5.5 41.6,6.5 C41.7,6.9 40.9,8 39.4,9.4 L40,9.6 L41.1,8.6 L42.7,7.6 L44.2,6.2 C45.4,5.6 45.8,5.1 45.4,4.8 Z M32.6,17.4 C35.2,20.2 36.3,23.1 36.2,26.2 C36.1,29.3 34.6,32 31.7,34.2 C31.4,34.2 31.1,34.1 30.9,34 C31.2,34.9 31.3,35.6 31.3,36.1 C31.3,36.7 31,37.4 30.4,38.6 C30.5,38.8 32.7,38.1 33.2,37.1 C33.5,36.5 33.6,35.4 33.5,33.7 C33.5,33.7 33.5,33.7 33.5,33.7 C35.5,32.6 37.1,29.6 37.3,26 C37.5,21.4 35.4,17.5 32.6,17.4 Z" id="Shape" fill="#7898B9" fill-rule="nonzero"></path>
                    <path d="M32.5,15.4 C34.1,15.8 35.9,16.8 36.5,19.1 C37.1,21.4 35.8,23.3 34.8,24.7 C34.2,25.5 33.4,25.3 32.7,25.1 C32.3,25 31.9,24.1 31.1,24.4 C30.3,24.7 30.8,25.8 31.1,26.1 C31.4,26.5 31.9,26.1 32.1,26.4 C32.5,27.2 32.5,27.5 32.7,29.5 C32.9,31.3 31.5,32.6 30.8,33.3 C30.1,34 28.4,33.9 28,33.3 C27.6,32.7 23.9,29.3 23,26.8 C22.1,24.3 22.4,23.1 22.5,21.7 C22.7,20 24.2,19 24.7,18.5 C26.3,17 31,15 32.5,15.4 Z" id="Path-41-Copy" fill="#08327E" fill-rule="nonzero"></path>
                </g>
            </g>
            <g id="Planet_3" transform="translate(531.362642, 302.316538)">
                <g id="Group-73" transform="translate(91.307936, 100.478964) rotate(-28.000000) translate(-91.307936, -100.478964) translate(23.807936, 33.478964)" fill-rule="nonzero">
                    <ellipse id="Oval" fill="#1D4EA8" transform="translate(67.588237, 67.400694) rotate(179.999865) translate(-67.588237, -67.400694) " cx="67.5882368" cy="67.4006942" rx="66.7" ry="66.6"></ellipse>
                    <path d="M67.6,134 C72.7,134 77.7,133.4 82.5,132.3 C85.3,131.7 88.1,130.8 90.8,129.8 C116.2,120.4 134.3,96 134.3,67.3 C134.3,37 114.1,11.5 86.3,3.4 C83.6,2.6 80.8,2 78,1.5 C74.6,1 117.5,17.5 114.9,71.9 C112.4,126.3 45.6,131.2 56.7,133 C60.3,133.7 63.9,134 67.6,134 Z" id="Path" fill="#134092"></path>
                    <path d="M57.9,60 C57.9,38.7 40.8,21.5 19.6,21.1 C8,33.1 0.8,49.4 0.8,67.4 C0.8,78.2 3.4,88.4 8,97.4 C11.4,98.4 15.1,98.9004264 18.9,98.9004264 C40.5,99 57.9,81.5 57.9,60 Z M23.7,61.5 C18.1,61.3 13.8,56.7 14,51.1 C14.2,45.6 18.9,41.2 24.4,41.4 C30,41.6 34.3,46.2 34.1,51.8 C33.9,57.4 29.3,61.7 23.7,61.5 Z" id="Shape" fill="#2B5CB6"></path>
                    <path d="M132.1,84.4 C130.7,83.4 129,82.9 127.2,82.9 C121.9,82.9 117.6,87.8 117.6,93.8 C117.6,98.3 120,102.2 123.5,103.8 C127.3,97.9 130.2,91.4 132.1,84.4 Z M90.5,61.1 C95.8,61.3 100.3,57.1 100.5,51.8 C100.7,46.5 96.5,42 91.2,41.8 C85.9,41.6 81.4,45.8 81.2,51.1 C81,56.4 85.2,60.9 90.5,61.1 Z M66,89.5 C59.7,89.3 54.5,94.2 54.3,100.4 C54.1,106.6 59,111.9 65.2,112.1 C71.5,112.3 76.7,107.4 76.9,101.2 C77.1,95 72.2,89.8 66,89.5 Z M64.3,19.1 C61.8,19 59.6,21 59.5,23.5 C59.4,26 61.4,28.2 64,28.3 C66.5,28.4 68.7,26.4 68.8,23.9 C68.8,21.3 66.8,19.2 64.3,19.1 Z M24.4,41.4 C18.8,41.2 14.2,45.5 14,51.1 C15.8,47 19.3,45 24.3,45.2 C29.3,45.4 32.6,47.6 34.1,51.8 C34.3,46.3 30,41.6 24.4,41.4 Z" id="Shape" fill="#05296E"></path>
                    <path d="M132.1,84.5 C130.7,83.5 129,82.9 127.2,82.9 C121.9,82.9 117.6,88.2 117.6,94.6 C119.5,90.2 122.7,88 127.2,88 C128.5,88 129.7,88.2 130.8,88.6 C131.3,87.3 131.7,85.9 132.1,84.5 Z M91,46.2 C95.5,46.4 98.7,48.3 100.4,52.2 C100.6,46.7 96.4,42 91.1,41.8 C85.8,41.6 81.3,46 81.1,51.5 C83.2,47.8 86.5,46.1 91,46.2 Z M64.3,19.1 C61.8,19 59.6,21.2 59.5,24 C60.5,22.2 62.1,21.3 64.2,21.3 C66.4,21.4 67.9,22.4 68.7,24.3 C68.8,21.5 66.8,19.2 64.3,19.1 Z M66,89.5 C59.7,89.3 54.5,94.4 54.3,100.8 C56.7,96.4 60.6,94.2 65.9,94.4 C71.2,94.6 74.9,97 77,101.6 C77.1,95.2 72.2,89.8 66,89.5 Z" id="Shape" fill="#02215D"></path>
                    <path d="M6,76.8 C4,50.4 11.1,29.6 27.2,14.4 C11.2,26.6 0.8,45.8 0.8,67.4 C0.8,93.3 15.6,115.7 37.2,126.7 C46.4,131.4 9,116.4 6,76.8 Z" id="Path" fill="#0096FF"></path>
                </g>
                <g id="Group" transform="translate(60.000000, 0.000000)">
                    <path d="M12.4,35 C12.4,35 14.1,29.1 12.6,28.5 C11.8,28.1 9.7,29.2 7.6,29.3 C7,29.3 7.5,28.6 6.5,28.3 C5.6,28 4.7,28.2 4.4,28.2 C2.4,28.1 1.9,32.8 1.9,34.2 C1.9,35.5 2.2,37 1.8,41.5 C1.7,41.5 1.6,41.5 1.4,41.6 C0.7,42.1 0.7,44.5 1,45 C1.3,45.6 1.9,46.2 2.7,46.2 C3.5,46.2 4.9,46 5.3,45.1 C5.6,44.6 5.6,43.7 5.5,42.6 C5.7,41.8 6,40.8 6.3,39.7 C6.5,41.7 6.9,43.1 7.2,43.9 C7.8,45.1 8.8,46.2 10,47 C11.2,47.8 15.5,47.9 18.6,47.1 C21.7,46.2 23,45.6 23.7,41.3 C24.4,37 12.4,35 12.4,35 Z M32,27.3 C32,27.3 30.4,25.6 29.1,25.1 C27.8,24.6 26.9,22.4 25,22.3 C23,22.2 23.1,26 23.1,27.3 C23.1,28.6 23.4,30.1 23,34.8 C22.9,35.6 23,36.1 23.3,36.1 L27,35.3 C27,36.8 27.3,38.1 28,38.9 C29.1,40.2 29.8,40.6 30.8,40.9 C32.3,41.4 33.9,41.3 35.4,41.1 C36.9,40.9 38,40.7 40.2,39.7 C42.4,38.7 42.8,35.8 42.8,35.4 C42.7,32.3 32,27.3 32,27.3 Z" id="Shape" fill="#002465"></path>
                    <path d="M24.3,24.7 C23.7,23.3 21.3,22.6 17.2,22.6 C13.3,23 11.3,23.3 11.1,23.3 C10.9,23.3 11.2,10.4 10.7,9.5 C10.6,9.3 8.8,7.9 8.4,9.3 C7.5,12.5 6.1,20.5 6.8,26.8 C7.2,30.8 7.8,31.9 8.2,34.1 C8.6,36.3 8.6,36.6 8.5,38.1 C8.4,39.5 8,40.8 8.4,42.3 C8.8,43.8 9.8,45.3 11.2,45.9 C12.6,46.6 14.9,46.5 18.2,45.7 C21.5,44.9 21.4,44.8 23.2,43.1 C25,41.4 24.6,32.2 24.7,30.6 C24.8,29 25.3,26.8 24.3,24.7 Z M43.8,24.6 C44.8,21.1 45.2,19.3 45.2,17.9 C45.2,16.5 44.3,16.2 43,15.6 C42.2,15.2 39.8,14.9 35.9,14.6 C32.4,16.7 30.6,17.2 30.7,16.2 C30.8,15.2 30.5,11.8 29.9,6 C29.7,6.1 28.3,5.8 27.7,5.9 C27.2,6 27.5,11.1 27.4,14.8 C27.3,18.5 27.6,17.5 27.9,19.3 C28.2,21.1 29.9,26.4 29.8,28.9 C29.7,31.4 28.5,33.1 28.4,34.1 C28.3,36.1 29.9,37.4 31.4,38.1 C32.9,38.8 34.5,39.7 37.7,38.9 C40.9,38.1 41.8,36.7 42.6,35.4 C43.1,34.7 42.1,32.4 42.3,30.1 C42.4,28.2 43.3,26.2 43.8,24.6 Z" id="Shape" fill="#0D3B8F" fill-rule="nonzero"></path>
                    <path d="M24.3,24.7 C23.7,23.3 21.3,22.6 17.2,22.6 C16.1,22.7 15.3,22.8 14.9,22.9 C13.9,23 18.3,23.7 19.6,26.1 C20.9,28.5 21,36.7 20.5,39.5 C20,42.3 19,45.5 19.1,45.4 C19.6,45.2 20.3,45.1 21,44.7 C21.8,44.3 22.5,43.6 23.1,43 C25,41.3 24.5,32.1 24.6,30.5 C24.7,28.9 25.3,26.8 24.3,24.7 Z M43.8,24.6 C44.8,21.1 45.2,19.3 45.2,17.9 C45.2,16.5 44.3,16.2 43,15.6 C42.2,15.2 39.8,14.9 35.9,14.6 C37.9,19.7 39.1,23.2 39.4,25 C39.6,26.3 38.4,27 38.6,29.2 C38.8,31.3 38,33 38.1,34 C38.2,37.1 35.3,39.3 35.9,39.2 C36.4,39.2 37,39.1 37.7,38.9 C40.9,38.1 41.8,36.7 42.6,35.4 C43.1,34.7 42.1,32.4 42.3,30.1 C42.4,28.2 43.3,26.2 43.8,24.6 Z" id="Shape" fill="#082C6F" fill-rule="nonzero"></path>
                    <path d="M11.2,23.2 C10.9,23.1 10.5,23 10,23 C9.5,23 9.1,23.1 8.7,23.4 C9.5,22.4 10,21.8 10.1,21.5 C10.4,20.7 10.2,19.9 10.2,19.5 C10.2,18.9 10.3,18 10.3,16.8 L11.1,19.5 L11.2,23.2 Z" id="Path-121" fill="#134AAD" fill-rule="nonzero"></path>
                    <path d="M30.2,3.5 C30.1,3.5 30.3,3.1 30.3,2.8 C30.4,2.1 30.5,0.7 30.3,0.4 C30.1,0.1 30,0.3 29.9,0.4 C29.9,0.5 29.7,1.1 29.5,2.4 C28.8,2.3 28.3,2.4 28,2.6 C27.7,2.8 27.6,4 27.8,6.1 L29.7,6.2 C29.7,5.9 29.8,5.7 29.9,5.4 C30,5.2 30.1,4.9 30.3,4.5 C30.8,3.5 30.9,2.9 30.6,2.9 C30.4,2.8 30.3,3.5 30.2,3.5 Z M12,5.3 C11.6,5.2 11.6,6.2 11.4,6.3 C11.3,6.3 11.5,5.8 11.6,5.5 C11.7,4.7 11.9,3.9 11.7,3.5 C11.5,3.1 11.3,3.2 11.2,3.3 C11.1,3.4 11,3.9 10.7,5 C9.8,4.8 9.2,4.8 8.7,5 C8.3,5.2 8.2,6.6 8.6,9.1 L10.9,9.3 L11.1,8.4 L11.6,7.3 L12.1,6.2 C12.3,5.7 12.3,5.4 12,5.3 Z M37.4,11.8 L33.7,11.7 L33.2,16.1 C35.9,15.6 37.4,15.4 37.7,15.4 C38,15.4 37.9,14.2 37.4,11.8 Z M13.9,17.4 L13.1,23.5 C15.8,22.9 17.3,22.6 17.6,22.7 C17.9,22.7 17.8,21 17.4,17.5 L13.9,17.4 Z" id="Shape" fill="#9ABBDC" fill-rule="nonzero"></path>
                    <path d="M40.3,12.5 C39.9,11.6 42,9.2 42.3,7.3 C42.6,5.3 41.5,3.9 40.2,3.2 C39.7,2.9 39.3,2.1 38.7,1.7 C38,1.3 37.2,1.3 36.7,1.3 C35,1.2 33.8,2.7 33.3,3.2 C32.5,4.1 31.8,5.2 31.9,7 C32,8 32,9.2 32.5,10.3 C33,11.2 33.2,12.1 33.6,12.9 C34.5,14.8 35.5,14.4 35.2,16.3 C34.9,18.2 32.3,26.4 37,26.6 C41.7,26.8 42.5,23.7 42.6,20.9 C42.7,18.1 41.1,14.4 40.3,12.5 Z M18.1,7.5 C16.7,6.1 15.4,5.9 14.6,6 C13.6,6.1 11.4,6.8 10.7,8 C10.3,8.7 9.6,9.9 9.6,10.5 C9.5,12.1 9,14.5 9.7,16.9 C10.4,19.2 12.4,20.8 12.7,20.8 C12.8,20.8 13.8,21.2 14.7,21.2 C16,21.2 17.4,20.9 17.7,20.7 C18.2,20.3 19.4,18.7 20,17.3 C20.6,15.8 21,14.2 20.4,11.8 C19.8,9.4 19.5,8.9 18.1,7.5 Z" id="Shape" fill="#002465" fill-rule="nonzero"></path>
                    <path d="M18.1,7.5 C16.7,6.1 15.4,5.9 14.6,6 C13.6,6.1 16.8,7.9 17.5,10 C18.2,12.1 18.3,12.9 17.8,16 C17.3,19 15.3,21.2 15.6,21.2 C16.6,21.1 17.4,20.9 17.7,20.7 C18.2,20.3 19.4,18.7 20,17.3 C20.6,15.8 21,14.2 20.4,11.8 C19.8,9.4 19.5,8.9 18.1,7.5 Z M40.3,12.5 C39.9,11.6 42,9.2 42.3,7.3 C42.6,5.3 41.7,3 40.4,2.3 C40.2,2.2 39.6,1.7 38.9,1.5 C38,1.3 36.9,1.3 36.6,1.3 C37.9,1.5 38.6,2.2 38.7,3.5 C38.8,4.5 39.6,7.5 40,8.3 C40.3,8.9 37.2,11.9 38.4,12.4 C39.5,12.9 39.1,15.4 39.9,16.5 C40.8,17.9 39,21.6 40.8,21.7 C42,21.7 39,26.5 39.7,26.2 C41.9,25.3 42.4,23.1 42.5,20.9 C42.6,18.1 41.1,14.4 40.3,12.5 Z" id="Shape" fill="#021A45" fill-rule="nonzero"></path>
                    <path d="M4.7,33.3 L4.7,34.3 C4.4,37.1 4.2,38.7 4.2,39.2 C4.2,39.7 3.9,41.7 3.2,45.2 C3.7,45.1 4.2,45 4.4,44.9 C4.7,44.8 5,44.1 5.4,42.9 L6.3,39.6 L5.6,34.5 L4.7,33.3 Z M26.9,35.4 L26.6,33.8 L26.8,28.7 L25.6,27.5 C25.6,28 25.7,28.4 25.8,28.6 C25.9,28.8 26,28.8 26.1,28.6 C26.2,30 26.3,30.9 26.3,31.3 C26.3,31.7 26.2,33.1 26.2,35.6 L26.9,35.4 Z" id="Shape" fill="#00163D"></path>
                </g>
            </g>
            <g id="Planet_2" transform="translate(552.000000, 189.000000)">
                <circle id="Oval" fill="#81CBFF" cx="23" cy="23.4" r="23"></circle>
                <path d="M40,39.7 C35.5,44.1 29.6,46.2 23.7,46.2 C31.2,42.9 35.1,35.8 35.6,25.2 C36.1,14.5 31,6.3 20.3,0.5 C27.5,-0.7 35.1,1.6 40.6,7.2 C49.4,16.3 49.2,30.8 40,39.7 Z" id="Path" fill="#0096FF"></path>
                <path d="M22.18,28 L22.18,21.906 C22.18,21.07 22.4183333,20.4026667 22.895,19.904 C23.3716667,19.4053333 24.006,19.156 24.798,19.156 C25.4726667,19.156 25.9676667,19.3466667 26.283,19.728 C26.5983333,20.1093333 26.756,20.718 26.756,21.554 L26.756,28 L29.506,28 L29.506,21.4 C29.506,19.9186667 29.1906667,18.8113333 28.56,18.078 C27.9293333,17.3446667 26.9686667,16.978 25.678,16.978 C24.9006667,16.978 24.204,17.1393333 23.588,17.462 C22.972,17.7846667 22.4806667,18.2466667 22.114,18.848 L22.114,17.242 L19.43,17.242 L19.43,28 L22.18,28 Z" id="n" fill="#000000" fill-rule="nonzero"></path>
            </g>
            <g id="Planet_1" transform="translate(294.000000, 193.000000)">
                <g id="Group-11-Copy-4" transform="translate(90.722985, 78.386878) rotate(-23.000000) translate(-90.722985, -78.386878) translate(15.722985, 25.386878)">
                    <circle id="Oval" fill="#1D4EA8" fill-rule="nonzero" transform="translate(75.559670, 52.772050) rotate(-172.997934) translate(-75.559670, -52.772050) " cx="75.55967" cy="52.77205" r="46.8980269"></circle>
                    <path d="M69.8,99.4 C73.4,99.8 76.9,99.9 80.3,99.5 C82.3,99.3 84.3,99 86.3,98.5 C104.8,94.1 119.6,78.6 122,58.5 C124.6,37.3 112.7,17.7 94,9.7 C92.2,8.9 90.3,8.2 88.4,7.7 C86.1,7 114.6,22.3 108.1,60.1 C101.6,97.9 54.7,95.7 62.3,97.9 C64.8,98.5 67.2,99 69.8,99.4 Z" id="Path" fill="#134092" fill-rule="nonzero"></path>
                    <path d="M100.8,60 C108.6,60.3 115.3,61.6 121,64 C121.4,62.2 121.8,60.4 122,58.5 C122.3,55.8 122.4,53.1 122.3,50.5 C113.7,49.9 106,49.4 99.3,48.9 C88,48.1 67.9,52.8 51.3,51.4 C41.8,50.6 34.4,48.8 29.1,46 C29,46.4 29,46.7 28.9,47.1 C28.5,50.6 28.5,54.1 28.8,57.6 C29.5,59.6 37.9,61 54.1,61.6 C79.1,62.4 87.2,59.4 100.8,60 Z M32.6,71.8 C34.3,75.5 36.4,79 38.9,82.2 C50.9,82.1 62.3,82.6 73,83.9 C83.5,85.2 93.1,87.7 101.8,91.6 C105.6,89 109,85.9 111.9,82.3 L112.3,81.7 C95.2,76.6 82.5,73.8 74.3,73.2 C66.3,72.6 52.4,72.1 32.6,71.8 Z M106.8,17.9 C99.9,11.7 91.1,7.5 81.2,6.2 C71.6,5 62.3,6.8 54.2,10.9 L52.1,12.1 C65.6,14.6 75.9,16.2 82.9,16.8 C90,17.5 100.5,17.9 106.8,17.9 Z M98.1,42.2 C105.9,43.3 113.5,42.9 120.9,41.1 C119.7,36.4 117.8,32 115.3,28 C107.8,29.1 101.9,29.4 97.5,29.1 C90.6,28.5 85.7,25.6 71.2,23.4 C61.9,21.9 52.1,20.9 41.8,20.3 C38.9,23.3 36.5,26.6 34.5,30.3 C38.8,29.4 46.7,29.7 58,31.2 C75.8,33.4 84.7,40.4 98.1,42.2 Z" id="Shape" fill="#2B5CB6" fill-rule="nonzero"></path>
                    <path d="M33,56.8 C30.3,30.1 56.8,9.7 54.2,11 C40.8,17.9 30.9,31 29,47.1 C26.3,69.4 39.6,90 60,97.1 C63.1,98.2 35.7,83.5 33,56.8 Z" id="Path" fill="#0096FF" fill-rule="nonzero"></path>
                    <path d="M29.7,42.8 C29.4,44.2 29.2,45.6 29,47.1 C29,47.2 29,47.3 29,47.5 C20.5,47.5 15.3,48.2 15.1,49.6 C14.7,52.8 41.1,58.8 74.1,62.8 C107.1,66.9 134.2,67.5 134.6,64.3 C134.8,62.9 130.1,61 122.1,59 L122.2,58.6 C122.4,57.1 122.5,55.7 122.5,54.2 C139.5,58.6 150.2,63.4 149.8,67.3 C149,74.1 114.8,75.5 73.6,70.4 C32.4,65.3 -0.5,55.7 0.4,48.9 C0.7,45 12.2,42.9 29.7,42.8 Z" id="Combined-Shape" fill="#ACC9FF" opacity="0.5"></path>
                </g>
                <g id="Group" transform="translate(99.000000, 35.000000)" fill-rule="nonzero">
                    <path d="M4.9,0.9 C3.7,1.1 2.8,2.6 3,4.3 C3.2,5.6 3.8,6.6 4.7,7 L3.7,7.1 L3.3,8.4 L5.9,9.2 L5.9,7.1 C7,6.8 7.8,5.4 7.6,3.7 C7.3,2 6.1,0.7 4.9,0.9 Z M11.9,4 C10.7,3.9 9.5,5.2 9.4,6.9 C9.2,8.6 10.1,10.1 11.4,10.2 C12.6,10.3 13.8,9 13.9,7.3 C14,5.6 13.1,4.1 11.9,4 Z M26.7,8.7 C26.7,8.4 25.6,8.7 25,8.9 L25,8.9 L24.3,8.9 L22.8,9.1 C22.6,10.5 22.6,11.2 22.8,11.2 C23,11.1 23.2,11.2 23.4,11.5 L24.3,11.7 L24.9,11.8 C24.7,11.6 24.7,11.4 24.8,11.5 C25,11.5 25.5,10.5 25.5,10.2 C25.5,10 25.5,9.7 25.4,9.4 L25.4,9.4 C26.3,9.1 26.7,8.9 26.7,8.7 Z M24.2,11 C24.2,11 24.1,11 23.8,11 L23.7,10.4 C24,10.2 24.2,10.2 24.3,10.3 C24.4,10.4 24.4,10.5 24.4,10.7 C24.3,10.8 24.2,11 24.2,11 Z" id="Shape" fill="#9ABBDC"></path>
                    <path d="M20.9,19.2 C20.7,18.1 20,15.9 18.8,12.7 L19.3,12.3 L21,12 C21.6,11.6 22.2,11.3 23,11 L23,9 C22.7,9 22.4,9 22.4,9 C22.1,9.1 21.3,9.3 20,9.6 L19,9.5 C17.6,9.5 16.7,9.4 16.3,9.2 C15.7,8.9 14.5,10.4 14.3,10.4 C14.1,10.4 13.4,10.2 13.4,10.2 C13.4,10.2 12.3,9.8 10.1,9 L9.9,10.6 C9.4,10.5 8.3,10.1 6.7,9.4 L3.5,8 L2.4,8.4 C2.7,8.6 2.9,8.8 2.9,9 C2.9,9.2 2.4,9.5 1.5,9.9 C0.8,10.5 0.3,11.3 0.2,12.4 C0.1,13.4 0.8,15.3 2.3,18 C2.6,19.2 2.8,19.9 2.8,19.9 C2.8,19.9 3.8,20.6 3.7,21.3 C3.6,21.8 3.5,22.7 3.4,23.9 L4.3,26.6 L11.2,24.5 C11.2,25.1 11.4,25.7 12,26.4 C13.1,26.6 14,26.7 14.8,26.5 C15.9,26.3 16.5,25.8 18.1,25.2 C19.7,24.7 21.4,24.3 21.2,23.8 C20.7,23.3 21.4,21.9 20.9,19.2 Z" id="Path" fill="#0D3B8F"></path>
                    <path d="M20.9,19.2 C20.7,18.1 20,15.9 18.8,12.7 L19.3,12.3 L21,12 C21.6,11.6 22.2,11.3 23,11 L23,9 C22.7,9 22.4,9 22.4,9 C22.1,9.1 21.7,9.5 21.4,10.3 C20.4,10.2 19.8,10.1 19.7,10.1 C19.5,10.1 18.4,11.1 17.9,10.8 C17.8,10.8 17.2,12.2 17.2,12.5 C17.1,13.6 17.9,15.5 19.2,19 C20.1,21.4 19.4,24.5 19.6,24.4 C20.5,24.1 21.1,23.9 21,23.6 C20.7,23.3 21.4,21.9 20.9,19.2 Z M11.5,9.5 C11,9.6 10.4,9.7 9.8,9.9 L9.9,8.9 C9.8,9.3 9.7,9.6 9.5,9.9 C9,10.1 8.6,10.2 8.5,10.4 C7.8,11.6 6.9,11.6 6.6,13.5 C6.5,14.5 7.1,16 7.8,16.3 C7.9,16.3 7.9,16.4 8,16.4 C8.2,19.2 8.7,21.9 9.6,24.6 C10.3,24.4 10.7,24.2 10.7,24.1 C10.8,23.1 10.2,17.9 10.2,17.9 C10.2,17.9 10,17.5 9.6,16.7 C9.8,16.7 10,16.6 10.3,16.4 C11.4,15.8 11.5,15.4 11.4,14 C11.2,12.6 11.5,10.9 12.2,9.7 L11.5,9.5 Z" id="Shape" fill="#082C6F"></path>
                    <path d="M16.4,29.7 L15.7,35.2 C15.8,36.2 15.8,36.9 15.8,37.4 C15.7,38.1 15.5,39.9 15.5,39.9 C15.5,39.9 16,42.6 16,43.1 C16,43.4 16.1,44.6 16.5,46.6 L15.5,46.8 C15.1,39.4 15.3,33.8 16.1,30.1 L16.4,29.7 Z" id="Path" fill="#00163D"></path>
                    <path d="M5.2,7.4 C6,6.9 6,6.7 6.1,5.8 C6.2,4.9 6.1,4.9 6.1,4.7 C6,4.3 5.2,4.5 5.3,3.9 C5.4,3.3 5.9,4 6.3,4.2 C6.5,4.3 6.8,4.1 7,4.2 C7.3,4.2 7.6,3 7.7,2.1 C7.8,1.2 6.8,0.8 6,0.6 C5.2,0.4 4,0.3 3.1,1.5 C2.2,2.7 2.3,5.3 3,6.7 C3.7,8.1 4.3,7.9 5.2,7.4 Z M7.9,9.8 C7.2,11 6.3,11 6,12.9 C5.9,13.9 6.5,15.4 7.2,15.7 C7.9,16 8.7,16.8 9.9,16 C11.1,15.3 11.1,14.9 10.9,13.5 C10.7,12.1 10.9,10.5 11.7,9.3 C12.4,8.1 12.2,8.8 12.4,7.3 C12.6,5.8 13.6,4.9 13.2,4.2 C12.8,3.6 10.8,2.8 9.3,3.5 C8.5,3.9 7.8,5.3 7.7,6.7 C7.6,8 8.2,9.2 7.9,9.8 Z M20.8,23.7 L12.6,26.1 C12.6,30.2 12.6,32.3 12.6,32.3 C12.6,32.3 12.9,34.8 12.9,34.9 C12.9,35 13.2,39 13,40.4 C12.9,41.3 13.3,43.5 14.3,47 L16.4,46.6 C16.1,44.6 15.9,43.4 15.9,43.1 C16,42.6 15.4,39.9 15.4,39.9 C15.4,39.9 15.6,38.2 15.7,37.4 C15.8,36.9 15.7,36.2 15.6,35.2 L16.3,29.7 C16.6,31.6 16.7,32.6 16.7,32.8 C16.7,33.1 16.2,36.8 16.2,36.8 C16.2,36.8 16.1,38.9 16.7,40 C17.3,41.2 16.8,42.8 16.8,43.1 C16.8,43.3 16.9,44.5 17.1,46.6 L19.4,46.6 C19.3,45.3 19.3,44.6 19.3,44.3 C19.3,43.9 19.4,38.5 19.5,38.2 C19.5,38 19.4,37.1 19.3,35.5 C20.5,31.9 21.2,29.4 21.3,28.1 C21.4,26.8 21.3,25.5 20.8,23.7 Z M11.5,24.1 C11.5,24.1 9,24.9 4,26.5 C4.9,32.3 5.4,35.5 5.3,36.3 C5.2,37.4 3.8,38.5 3.7,39.7 C3.6,40.9 2.4,44 2.2,45.5 C2.1,46.5 1.7,48.2 1.1,50.6 L4.3,51 L5.2,46.8 L5.1,50.3 C7.7,50 8.9,49.8 8.9,49.8 C8.9,49.8 8.3,46.8 8.3,46.5 C8.3,46.2 9.5,42.8 9.8,42.8 C10.1,42.8 12.4,34.2 12.4,34.2 C12.4,34.2 12.5,33.7 12.6,32.7 L12,26 C11.6,24.7 11.5,24.1 11.5,24.1 Z" id="Shape" fill="#002465"></path>
                    <path d="M11.5,24.1 C11.5,24.1 10.9,24.3 9.8,24.6 C11.1,29.5 11.5,32.8 11.2,34.5 C10.8,36.5 9.4,40.5 7.1,46.4 C7.8,46.6 8.2,46.7 8.2,46.5 C8.2,46.2 9.4,42.8 9.7,42.8 C10,42.8 12.3,34.2 12.3,34.2 C12.3,34.2 12.4,33.7 12.5,32.7 L12,26 C11.6,24.7 11.5,24.1 11.5,24.1 Z M7.8,34.3 C7.8,34.3 7.6,33.2 7.2,31 L6.6,31.4 C6.6,32.8 6.6,33.6 6.6,33.9 C6.6,34.1 6.7,34.6 6.9,35.4 L6,38.6 C5.4,39.9 5.2,40.7 5.1,40.8 C5.1,41 4.4,44.8 4.5,44.8 C4.6,44.8 4.5,45.7 4.3,47.3 C4.7,46.9 5,46.6 5,46.4 C5,46.2 6,42.2 6,41.7 C6.1,41.2 7.3,38.2 7.4,37.8 C7.4,37.5 7.8,34.3 7.8,34.3 Z M20.8,23.7 C20.3,23.4 20,23.5 19.9,24 C19.7,25 20.4,25.5 20.2,28.9 C20,32.3 18.6,35.4 18.9,38.3 C19.2,41.9 19.4,44.7 19.4,44.5 C19.4,44.1 19.5,38.7 19.6,38.4 C19.6,38.2 19.5,37.3 19.4,35.7 C20.6,32.1 21.3,29.6 21.4,28.3 C21.5,27 21.3,25.5 20.8,23.7 Z" id="Shape" fill="#00163D"></path>
                </g>
            </g>
        </g>
    </g>
</svg>