<svg xmlns="http://www.w3.org/2000/svg" xmlns:xlink="http://www.w3.org/1999/xlink" width="72" height="75" version="1.1" viewBox="0 0 72 75"><title>9067F7FC-2EBD-4165-9141-01BEC8C52964</title><desc>Created with sketchtool.</desc><g id="Page-1" fill="none" fill-rule="evenodd" stroke="none" stroke-width="1"><g id="Icons" fill-rule="nonzero" transform="translate(-1059.000000, -3721.000000)"><g id="mid-icon-apache-colour" transform="translate(1059.000000, 3720.000000)"><path id="Path" fill="#F59924" d="M66.46,1.08 C64.83,1.44 61.8,3 58,5.43 L59,11 C61.3926069,9.16295875 63.9085234,7.49236348 66.53,6 L66.81,5.84 L66.48,6 C63.9394485,7.52931685 61.5221107,9.25455381 59.25,11.16 C62.5831175,12.001179 65.9576593,12.6687442 69.36,13.16 C72.07,8.09 71,5 71,5 C71,5 69.83,0.33 66.46,1.08 Z"/><polygon id="Path" fill="#032663" points="45.13 38 44.13 37.86 44.66 37.94 45.18 38.01"/><polygon id="Path" fill="#032663" points="45.13 38 44.13 37.86 44.66 37.94 45.18 38.01" opacity=".35"/><polygon id="Path" fill="#032663" points="47.3 34.12 47.46 34.12 48.13 34.22 47.31 34.1"/><polygon id="Path" fill="#032663" points="47.3 34.12 47.46 34.12 48.13 34.22 47.31 34.1" opacity=".35"/><polygon id="Path" fill="#D7482E" points="47.6 20.75 51.26 17.34 55.05 14.07 55.27 13.88 59 11 58 5.43 57.2 5.94 54 8.1 50.15 10.92 46.4 13.84 43 16.64 44.15 24.13 47.59 20.75"/><path id="Path" fill="#852775" d="M21,52.13 L18.13,55.83 L15.93,58.74 C16.7870294,59.7936911 17.3124954,61.0777771 17.44,62.43 C17.8196636,61.0277558 17.6291308,59.5322536 16.91,58.27 C21.53,60 26,60.16 29.22,57.39 C29.5144191,57.1388953 29.7948405,56.8718273 30.06,56.59 C28.7,57.49 27.35,57.59 25.15,56.76 L25.15,56.76 C25.15,56.76 25.15,56.76 25.15,56.76 C28.92,56.36 31.03,55.49 33.25,53.62 C33.81,53.1533333 34.35,52.6533333 34.87,52.12 C31.5426701,54.0221662 27.4573299,54.0221662 24.13,52.12 L21.4,51.54 C21.26,51.74 21.1,51.93 20.95,52.14 L21,52.13 Z"/><polygon id="Path" fill="#B82047" points="24.1 46.63 27.31 42.75 30.5 39 33.77 35.24 37.19 31.45 40.62 27.77 41.87 26.46 44 24.24 44.12 24.13 43 16.64 42.74 16.83 39.26 19.91 35.77 23.18 32.86 26.06 32.29 26.65 29 30.23 25.82 34.06 24 36.4 22.64 38.4 19.73 43.08 20.89 50.61 23.4 47.5 24.11 46.64"/><path id="Path" fill="#852775" d="M19.64,43.27 C18.5685789,45.1737667 17.6134955,47.1407041 16.78,49.16 L16.7,49.37 C16.0960182,47.7321065 15.1789616,46.2274544 14,44.94 C15,48.41 15.6,51.71 14.91,54.55 C13.4517117,54.2096353 12.1053348,53.5002909 11,52.49 C11.6520452,53.8126801 12.6292401,54.9481531 13.84,55.79 C12.21,55.37 10.21,55.91 8.14,56.64 C10.91,56.44 12.99,56.64 14.3,57.46 C10,63.05 5.47,69.31 0.8,76 C1.49105226,76.026869 2.14907164,75.7034994 2.55,75.14 C3.39,73.93 8.92,65.98 16.86,55.75 L17.73,54.63 L20.31,51.35 L20.91,50.59 L20.91,50.59 L19.75,43.06 L19.63,43.28 L19.64,43.27 Z"/><path id="Path" fill="#B82047" d="M44.49,24.84 L44.02,25.32 L42.58,26.82 L41,28.53 L40.17,29.42 L37.62,32.22 L34.33,35.93 L31,39.76 L27.74,43.66 L24.74,47.37 L21.42,51.55 L24.14,52.12 L24,52 C27.28,52.64 32.23,51.65 35.88,49.63 C37.6825792,48.6152838 39.3605934,47.3936895 40.88,45.99 C42.1919488,44.777524 43.4276416,43.485056 44.58,42.12 C45.67,40.85 46.77,39.44 47.9,37.9 C46.990993,38.0257194 46.069007,38.0257194 45.16,37.9 L44.64,37.83 C44.4618167,37.8097411 44.2848827,37.7796957 44.11,37.74 C47.2244174,37.5101343 50.1265455,36.0752131 52.2,33.74 C50.9025561,34.1179031 49.5465843,34.2535002 48.2,34.14 L47.53,34.04 L47.37,34.04 L47.37,34.04 C48.4214178,33.9663956 49.4594875,33.7614692 50.46,33.43 L51.05,33.21 C51.34,33.09 51.62,32.95 51.9,32.8 C52.18,32.65 52.26,32.6 52.43,32.49 C52.8468685,32.2323783 53.2445713,31.9449628 53.62,31.63 L53.97,31.33 L54.43,30.86 C55.03,30.26 55.6,29.63 56.15,28.99 C56.39,28.71 56.61,28.45 56.79,28.2 L57,27.91 C57.21,27.64 57.38,27.39 57.53,27.17 C57.7063134,26.9188627 57.8634261,26.6547798 58,26.38 L57.58,26.5 C56.2570049,26.7204034 54.9080909,26.7372648 53.58,26.55 L56.08,27.07 L53.58,26.55 L53.52,26.55 L53,26.56 L53.08,26.56 L44.52,24.77 L44.45,24.84 L44.49,24.84 Z"/><path id="Path" fill="#D7482E" d="M59.25,11.17 L55.58,14.24 L55.37,14.43 L51.65,17.8 L48,21.27 L44.54,24.76 L53.1,26.55 C55.1593501,26.4284426 57.1377565,25.705229 58.79,24.47 L60.03,23.47 L63.84,20.03 L67,16.61 L68.44,14.66 L69.34,13.14 C65.9374948,12.6497069 62.5629031,11.9821319 59.23,11.14 L59.25,11.17 Z"/><path id="Path" fill="#032663" d="M44.61,37.91 L44.08,37.82 L44.61,37.91 Z"/><path id="Path" fill="#032663" d="M44.61,37.91 L44.08,37.82 L44.61,37.91 Z" opacity=".35"/><path id="Path" fill="#B82047" d="M44.61,37.91 L44.08,37.82 L44.61,37.91 Z"/><path id="Path" fill="#032663" d="M47.3,34.12 L47.47,34.12 L47.3,34.12 Z"/><path id="Path" fill="#032663" d="M47.3,34.12 L47.47,34.12 L47.3,34.12 Z" opacity=".35"/><path id="Path" fill="#032663" d="M47.3,34.12 L47.47,34.12 L47.3,34.12 Z"/></g></g></g></svg>