<svg xmlns="http://www.w3.org/2000/svg" xmlns:xlink="http://www.w3.org/1999/xlink" width="72" height="75" version="1.1" viewBox="0 0 72 75"><title>9EFD29AC-AF4C-4DF4-AC76-8E56CF1668A1</title><desc>Created with sketchtool.</desc><g id="Page-1" fill="none" fill-rule="evenodd" stroke="none" stroke-width="1"><g id="Icons" fill="#A8C5DD" fill-rule="nonzero" transform="translate(-1059.000000, -4605.000000)"><g id="mid-icon-apache-grey" transform="translate(1059.000000, 4604.000000)"><path id="Path" d="M70.89,5 C70.89,5 69.75,0.33 66.38,1.08 C64.74,1.44 61.72,3 57.91,5.43 L58.91,10.96 C61.1689657,9.23526587 63.5372549,7.65863333 66,6.24 C63.6138759,7.72610993 61.3319116,9.37326714 59.17,11.17 L59.17,11.17 L55.5,14.24 L55.29,14.43 L51.56,17.8 L47.94,21.27 L44.48,24.76 L44.48,24.76 C44.4620243,24.7881377 44.4381377,24.8120243 44.41,24.83 L44.41,24.83 L43.94,25.31 L42.5,26.81 L40.9,28.52 L40.07,29.41 L37.52,32.21 L34.23,35.92 L30.94,39.75 L27.68,43.65 L24.68,47.36 L21.36,51.53 L21.36,51.53 L20.9,52.13 L20.9,52.13 L18,55.83 L15.8,58.74 C16.6570294,59.7936911 17.1824954,61.0777771 17.31,62.43 C17.6882933,61.0287538 17.5015756,59.5350126 16.79,58.27 C21.45,60.03 25.91,60.16 29.14,57.39 C29.4311756,57.1388082 29.7082638,56.8717352 29.97,56.59 C28.62,57.49 27.26,57.59 25.07,56.76 C28.83,56.36 30.94,55.49 33.16,53.62 C33.7293442,53.1490245 34.2734343,52.6483281 34.79,52.12 C31.459039,54.0219297 27.370961,54.0219297 24.04,52.12 L24.04,52.12 L23.91,52 C27.18,52.64 32.13,51.65 35.79,49.63 C37.5928262,48.6156684 39.2708835,47.3940427 40.79,45.99 C42.107,44.7826718 43.343011,43.489871 44.49,42.12 C45.5766667,40.8533333 46.6866667,39.4466667 47.82,37.9 C46.8894517,38.0664557 45.9400015,38.1001242 45,38 L44.58,37.94 L45,38 L44.07,37.87 L43.99,37.87 C47.1044174,37.6401343 50.0065455,36.2052131 52.08,33.87 C50.782253,34.2463376 49.4265714,34.3819057 48.08,34.27 L47.92,34.27 L47.27,34.18 C48.318029,34.1054665 49.3526761,33.9005526 50.35,33.57 L50.94,33.35 C51.23,33.23 51.51,33.09 51.79,32.94 L52.31,32.63 C52.7301118,32.3772572 53.1281859,32.0895734 53.5,31.77 L53.86,31.47 L54.32,31 C54.92,30.4 55.49,29.77 56.04,29.13 C56.27,28.85 56.49,28.59 56.67,28.34 L56.89,28.05 C57.09,27.78 57.27,27.53 57.41,27.31 C57.5850929,27.0561384 57.7453604,26.7923649 57.89,26.52 L57.47,26.64 C56.146991,26.860247 54.798101,26.8771081 53.47,26.69 L53.41,26.69 L53,26.56 L53,26.56 C55.0593501,26.4384426 57.0377565,25.715229 58.69,24.48 L59.93,23.48 L63.74,20.04 L66.89,16.6 L68.34,14.65 L69.23,13.13 L69.23,13.13 C72,8.09 70.89,5 70.89,5 Z"/><polygon id="Path" points="45.05 37.98 45.01 37.97 45.04 37.98"/><polygon id="Path" points="47.52 20.75 47.52 20.75 51.18 17.34 54.96 14.06 55.18 13.88 58.87 10.96 57.91 5.43 57.11 5.94 53.93 8.1 50.07 10.92 46.32 13.84 42.92 16.64 44.08 24.13"/><path id="Path" d="M17.65,54.63 L20.23,51.35 L20.83,50.59 L20.83,50.59 L23.31,47.51 L24.02,46.65 L24.02,46.65 L27.23,42.77 L30.41,39 L33.69,35.24 L37.1,31.45 L40.53,27.77 L41.78,26.46 L44,24.24 L44.12,24.13 L42.96,16.64 L42.71,16.83 L39.23,19.91 L35.73,23.18 L32.83,26.06 L32.26,26.65 L28.96,30.23 L25.78,34.06 L24,36.4 L22.64,38.4 L19.73,43.08 L20.18,46.08 L19.72,43.08 L19.6,43.3 L19.6,43.3 C18.5246061,45.2016841 17.5694021,47.16887 16.74,49.19 L16.65,49.4 C16.0520359,47.7614494 15.1380714,46.2562959 13.96,44.97 C14.96,48.44 15.55,51.74 14.87,54.58 C13.4117117,54.2396353 12.0653348,53.5302909 10.96,52.52 C11.6090757,53.8446415 12.5868582,54.9807972 13.8,55.82 C12.17,55.4 10.17,55.94 8.09,56.67 C10.86,56.47 12.95,56.67 14.26,57.49 C9.91,63.05 5.38,69.31 0.72,76 C1.40989194,76.0214489 2.06548967,75.6992695 2.47,75.14 C3.31,73.93 8.84,65.98 16.77,55.75 L17.65,54.63 Z"/></g></g></g></svg>