<svg xmlns="http://www.w3.org/2000/svg" xmlns:xlink="http://www.w3.org/1999/xlink" width="96" height="75" version="1.1" viewBox="0 0 96 75"><title>4C61119A-E5D1-4513-93C3-5CF182ECA6EF</title><desc>Created with sketchtool.</desc><g id="Page-1" fill="none" fill-rule="evenodd" stroke="none" stroke-width="1"><g id="Icons" fill="#A8C5DD" fill-rule="nonzero" transform="translate(-1047.000000, -5037.000000)"><g id="mid-icon-aws-grey" transform="translate(1047.000000, 5037.000000)"><path id="Shape" d="M28.16,47.81 L19.43,51.56 L27.51,55 L36.89,51.54 L28.16,47.79 L28.16,47.81 Z M15,52.5 L14.71,69.38 L27.51,75 L27.51,57.48 L15,52.5 Z M41.25,52.5 L29.74,56.89 L29.74,73.42 L41.28,68.73 L41.28,52.5 L41.25,52.5 Z M55.05,0 L46.26,3.75 L54.41,7.21 L63.78,3.75 L55.05,0 Z M42.86,5 L42.86,21.86 L53.76,25 L54.11,9.65 L42.86,5 Z M67.24,5.94 L56.93,10.31 L56.93,26.9 L67.24,22.21 L67.24,5.92 L67.24,5.94 Z M13.77,23.75 L5,27.5 L13.13,31 L22.5,27.5 L13.77,23.75 Z M0.65,28.44 L0.35,45.31 L13.13,50.94 L13.13,33.42 L0.65,28.44 Z M26.9,28.44 L15.35,32.83 L15.35,49.36 L26.9,44.67 L26.9,28.44 Z M41.9,23.13 L33.17,26.88 L41.25,30.34 L50.63,26.88 L41.9,23.13 L41.9,23.13 Z M28.77,27.82 L28.48,44.69 L41.25,50.32 L41.25,32.8 L28.77,27.82 Z M55.02,27.82 L43.48,32.21 L43.48,48.73 L55,44.05 L55,27.82 L55.02,27.82 Z M82.52,0 L73.79,3.75 L81.88,7.21 L91.25,3.75 L82.52,0 Z M69.4,4.69 L69.1,21.56 L81.88,27.19 L81.88,9.67 L69.4,4.69 Z M95.65,4.69 L84.1,9.08 L84.1,25.6 L95.65,20.92 L95.65,4.69 Z"/></g></g></g></svg>