<?xml version="1.0" encoding="UTF-8"?>
<svg width="76px" height="75px" viewBox="0 0 76 75" version="1.1" xmlns="http://www.w3.org/2000/svg" xmlns:xlink="http://www.w3.org/1999/xlink">
    <!-- Generator: sketchtool 59 (101010) - https://sketch.com -->
    <title>52471F2D-082A-4DA5-A852-78B682E95D1E</title>
    <desc>Created with sketchtool.</desc>
    <g id="Page-1" stroke="none" stroke-width="1" fill="none" fill-rule="evenodd">
        <g id="Icons" transform="translate(-167.000000, -4379.000000)" fill="#5B3A80" fill-rule="nonzero">
            <g id="mid-icon-bootstrap-colour" transform="translate(167.000000, 4379.000000)">
                <path d="M46.1,31.9 C47.3234114,30.8942417 47.9678497,29.3468404 47.82,27.77 C47.8555342,26.8656404 47.6593245,25.9672066 47.25,25.16 C46.8888811,24.5045396 46.3610917,23.9560526 45.72,23.57 C45.0429409,23.178199 44.3012631,22.9106531 43.53,22.78 C42.6950337,22.6293595 41.848443,22.5523967 41,22.55 L31.6,22.55 L31.6,33.18 L41.71,33.18 C43.2738159,33.2439102 44.8155921,32.7943718 46.1,31.9 L46.1,31.9 Z" id="Path"></path>
                <path d="M47.69,41.48 C46.1653557,40.4228832 44.3326973,39.9022816 42.48,40 L31.6,40 L31.6,52.4500225 L42.29,52.4500225 C43.2276109,52.4517246 44.1627873,52.3545199 45.08,52.16 C45.9180897,51.9901419 46.7179636,51.6681588 47.44,51.21 C48.1284522,50.753807 48.6866636,50.1266806 49.06,49.39 C49.4929702,48.479435 49.6988446,47.4775132 49.66,46.47 C49.66,44.14 49,42.47 47.69,41.48 Z" id="Path"></path>
                <path d="M65.83,0 L10.17,0 C4.82940647,0 0.5,4.32940647 0.5,9.67 L0.5,65.33 L0.5,65.33 C0.5,70.6705935 4.82940647,75 10.17,75 L65.83,75 C71.1705935,75 75.5,70.6705935 75.5,65.33 L75.5,9.67 C75.5,4.32940647 71.1705935,0 65.83,0 Z M58.31,53 C57.4539894,54.6310528 56.2237239,56.0360913 54.72,57.1 C53.1566518,58.1832008 51.4126958,58.9789866 49.57,59.45 C47.6122207,59.9676518 45.5950483,60.2265222 43.57,60.2201202 L21.57,60.2201202 L21.57,14.8 L43,14.8 C44.9845174,14.7826899 46.9653704,14.9737366 48.91,15.37 C50.5443358,15.6875907 52.1004266,16.3229378 53.49,17.24 C54.7798162,18.1103959 55.8151505,19.3079326 56.49,20.71 C57.221789,22.3918053 57.5636537,24.2173627 57.49,26.05 C57.562213,28.0739004 57.0182199,30.072029 55.93,31.78 C54.7504918,33.4142621 53.1601682,34.7079092 51.32,35.53 C53.8460458,36.1445022 56.0674838,37.6455698 57.58,39.76 C58.9942206,41.9048304 59.7166985,44.4317577 59.65,47 C59.7085246,49.0802452 59.2479965,51.1423111 58.31,53 Z" id="Shape"></path>
            </g>
        </g>
    </g>
</svg>