<?xml version="1.0" encoding="UTF-8"?>
<svg width="80px" height="76px" viewBox="0 0 80 76" version="1.1" xmlns="http://www.w3.org/2000/svg" xmlns:xlink="http://www.w3.org/1999/xlink">
    <!-- Generator: sketchtool 59 (101010) - https://sketch.com -->
    <title>046EC6CD-FBB2-4D22-ACF8-EDA115E50360</title>
    <desc>Created with sketchtool.</desc>
    <g id="Page-1" stroke="none" stroke-width="1" fill="none" fill-rule="evenodd">
        <g id="Icons" transform="translate(-165.000000, -3936.000000)" fill="#444444" fill-rule="nonzero">
            <g id="mid-icon-cordova-colour" transform="translate(165.000000, 3936.000000)">
                <path d="M72.22,75.09 L59.5,75.09 L60.39,64.38 L54.14,64.38 L53.25,75.09 L26.91,75.09 L26,64.38 L19.77,64.38 L20.66,75.09 L7.94,75.09 L0.79,28.66 L18.65,0.09 L61.51,0.09 L79.36,28.66 L72.22,75.09 Z M57.94,14.38 L46.46,14.38 L47.22,19.74 L32.94,19.74 L33.7,14.38 L22.22,14.38 L15.08,28.66 L18.65,57.23 L61.51,57.23 L65.08,28.66 L57.94,14.38 Z M51.69,47.75 C50.69,47.75 49.9,44.75 49.9,41.11 C49.9,37.47 50.7,34.47 51.69,34.47 C52.68,34.47 53.47,37.47 53.47,41.11 C53.47,44.75 52.67,47.75 51.69,47.75 Z M29.14,48.31 C28.14,48.31 27.36,45.31 27.36,41.66 C27.36,38.01 28.15,35 29.14,35 C30.13,35 30.93,38 30.93,41.64 C30.93,45.28 30.13,48.31 29.14,48.31 Z" id="Shape"></path>
            </g>
        </g>
    </g>
</svg>