<?xml version="1.0" encoding="UTF-8"?>
<svg width="80px" height="75px" viewBox="0 0 80 75" version="1.1" xmlns="http://www.w3.org/2000/svg" xmlns:xlink="http://www.w3.org/1999/xlink">
    <!-- Generator: sketchtool 59 (101010) - https://sketch.com -->
    <title>3DC9ED9E-CD46-4B31-AC2B-8F56DE57D173</title>
    <desc>Created with sketchtool.</desc>
    <g id="Page-1" stroke="none" stroke-width="1" fill="none" fill-rule="evenodd">
        <g id="Icons" transform="translate(-165.000000, -4821.000000)" fill="#A8C5DD" fill-rule="nonzero">
            <g id="mid-icon-cordova-grey" transform="translate(165.000000, 4821.000000)">
                <path d="M72.14,75 L59.42,75 L60.31,64.29 L54.06,64.29 L53.17,75 L26.83,75 L25.94,64.29 L19.69,64.29 L20.58,75 L7.86,75 L0.71,28.57 L18.57,0 L61.43,0 L79.29,28.57 L72.14,75 Z M57.86,14.29 L46.38,14.29 L47.14,19.64 L32.86,19.64 L33.62,14.29 L22.14,14.29 L15,28.57 L18.57,57.14 L61.43,57.14 L65,28.57 L57.86,14.29 Z M51.61,47.66 C50.61,47.66 49.82,44.66 49.82,41.02 C49.82,37.38 50.62,34.37 51.61,34.37 C52.6,34.37 53.39,37.37 53.39,41.02 C53.39,44.67 52.59,47.66 51.61,47.66 Z M29.06,48.21 C28.06,48.21 27.28,45.21 27.28,41.57 C27.28,37.93 28.08,34.93 29.06,34.93 C30.04,34.93 30.85,37.93 30.85,41.57 C30.85,45.21 30.05,48.21 29.06,48.21 L29.06,48.21 Z" id="Shape"></path>
            </g>
        </g>
    </g>
</svg>