<?xml version="1.0" encoding="UTF-8"?>
<svg width="54px" height="75px" viewBox="0 0 54 75" version="1.1" xmlns="http://www.w3.org/2000/svg" xmlns:xlink="http://www.w3.org/1999/xlink">
    <!-- Generator: sketchtool 59 (101010) - https://sketch.com -->
    <title>58192F47-61C7-4538-BC15-AE503DC6E8D8</title>
    <desc>Created with sketchtool.</desc>
    <g id="Page-1" stroke="none" stroke-width="1" fill="none" fill-rule="evenodd">
        <g id="Icons" transform="translate(-178.000000, -4153.000000)" fill-rule="nonzero">
            <g id="mid-icon-css3-colour" transform="translate(178.000000, 4153.000000)">
                <path d="M42.17,2.78 L37.76,2.78 L42.35,7.78 L42.35,10.15 L32.9,10.15 L32.9,7.35 L37.49,7.35 L32.9,2.35 L32.9,0 L42.17,0 L42.17,2.78 Z M31,2.78 L26.61,2.78 L31.2,7.78 L31.2,10.15 L21.76,10.15 L21.76,7.35 L26.34,7.35 L21.76,2.35 L21.76,0 L31,0 L31,2.78 Z M20,2.89 L15.24,2.89 L15.24,7.23 L20,7.23 L20,10.12 L11.85,10.12 L11.85,0 L20,0 L20,2.89 Z" id="Shape" fill="#131313"></path>
                <polygon id="Path" fill="#1572B6" points="5.37 69 0.53 14.74 53.67 14.74 48.82 69 27.07 75"></polygon>
                <polygon id="Path" fill="#33A9DC" points="27.1 70.39 44.68 65.52 48.82 19.18 27.1 19.18"></polygon>
                <polygon id="Path" fill="#FFFFFF" points="27.1 38.83 35.9 38.83 36.51 32 27.1 32 27.1 25.37 43.78 25.37 43.62 27.15 42 45.48 27.1 45.48"></polygon>
                <polygon id="Path" fill="#EBEBEB" points="27.14 56.1 27.14 56.1 19.73 54.1 19.25 48.8 12.55 48.8 13.48 59.24 27.11 63 27.11 63 27.11 56.1"></polygon>
                <polygon id="Path" fill="#FFFFFF" points="35.34 45.19 34.54 54.09 27.12 56.09 27.12 63 40.75 59.22 40.85 58.09 42 45.19"></polygon>
                <path d="M27.12,25.37 L27.12,32 L11.06,32 L10.92,30.5 L10.62,27.13 L10.46,25.35 L27.12,25.37 Z M27.12,38.83 L27.12,45.48 L19.78,45.48 L19.65,44 L19.34,40.63 L19.18,38.85 L27.12,38.83 Z" id="Shape" fill="#EBEBEB"></path>
            </g>
        </g>
    </g>
</svg>