<?xml version="1.0" encoding="UTF-8"?>
<svg width="54px" height="75px" viewBox="0 0 54 75" version="1.1" xmlns="http://www.w3.org/2000/svg" xmlns:xlink="http://www.w3.org/1999/xlink">
    <!-- Generator: sketchtool 59 (101010) - https://sketch.com -->
    <title>2E34EA8F-B812-4594-AC8C-28ECCD39D216</title>
    <desc>Created with sketchtool.</desc>
    <g id="Page-1" stroke="none" stroke-width="1" fill="none" fill-rule="evenodd">
        <g id="Icons" transform="translate(-178.000000, -5037.000000)" fill="#A8C5DD" fill-rule="nonzero">
            <g id="mid-icon-css3-grey" transform="translate(178.000000, 5037.000000)">
                <path d="M42.15,2.78 L37.74,2.78 L42.33,7.78 L42.33,10.15 L32.88,10.15 L32.88,7.35 L37.47,7.35 L32.88,2.35 L32.88,0 L42.15,0 L42.15,2.78 Z M31,2.78 L26.59,2.78 L31.18,7.78 L31.18,10.15 L21.73,10.15 L21.73,7.35 L26.32,7.35 L21.73,2.35 L21.73,0 L31,0 L31,2.78 Z M20,2.89 L15.22,2.89 L15.22,7.23 L20,7.23 L20,10.12 L11.83,10.12 L11.83,0 L20,0 L20,2.89 Z" id="Shape"></path>
                <path d="M0.51,14.74 L5.35,69 L27.05,75 L48.8,69 L53.65,14.77 L0.51,14.74 Z M43.6,27.15 L42,45.48 L42,45.48 L40.83,58.12 L40.73,59.25 L27.13,63 L27.13,63 L13.46,59.24 L12.53,48.8 L19.2,48.8 L19.68,54.1 L27.08,56.1 L27.08,56.1 L34.5,54.1 L35.27,45.49 L19.75,45.49 L19.63,44 L19.32,40.63 L19.16,38.85 L35.88,38.85 L36.49,32 L11,32 L10.86,30.5 L10.56,27.13 L10.4,25.35 L43.76,25.35 L43.6,27.15 Z" id="Shape"></path>
            </g>
        </g>
    </g>
</svg>