<svg xmlns="http://www.w3.org/2000/svg" xmlns:xlink="http://www.w3.org/1999/xlink" width="70" height="75" version="1.1" viewBox="0 0 70 75"><title>CEC220FF-EC53-4D5C-982C-C0CF75B0F927</title><desc>Created with sketchtool.</desc><g id="Page-1" fill="none" fill-rule="evenodd" stroke="none" stroke-width="1"><g id="Icons" fill="#47848F" fill-rule="nonzero" transform="translate(-396.000000, -4153.000000)"><g id="mid-icon-electron-colour" transform="translate(396.000000, 4153.000000)"><path id="Path" d="M7.15,36.87 C7.38418039,36.738049 7.5553799,36.5173775 7.62498993,36.2577509 C7.69459995,35.9981243 7.65675868,35.7214057 7.52,35.49 C4.6,30.4 4,25.83 5.92,22.56 C8.48,18.11 15.39,16.45 24.45,18.1 C24.8072656,18.1714531 25.1755124,18.0468796 25.4160254,17.7732051 C25.6565384,17.4995306 25.732778,17.1183327 25.6160254,16.7732051 C25.4992728,16.4280774 25.2072656,16.1714531 24.85,16.1 L24.85,16.1 C15.04,14.32 7.29,16.18 4.21,21.53 C1.9,25.53 2.56,30.82 5.8,36.47 C6.06396966,36.9512266 6.66648206,37.1297488 7.15,36.87 Z"/><path id="Path" d="M52.4,17.53 C58.13,17.6 62.26,19.39 64.12,22.61 C66.68,27.04 64.68,33.84 58.75,40.85 C58.3827307,41.266975 58.4230251,41.9027306 58.8400001,42.2699999 C59.256975,42.6372693 59.8927306,42.5969749 60.26,42.18 L60.26,42.18 C66.67,34.6 68.91,26.97 65.83,21.63 C63.56,17.71 58.77,15.63 52.4,15.55 C52.0427344,15.55 51.7126074,15.7405989 51.5339746,16.05 C51.3553418,16.3594011 51.3553418,16.7405989 51.5339746,17.05 C51.7126074,17.3594011 52.0427344,17.55 52.4,17.55 L52.4,17.53 Z"/><path id="Path" d="M46.65,65.14 C46.4263141,64.9939729 46.1535011,64.9435129 45.8923819,64.9998696 C45.6312628,65.0562263 45.4035464,65.2147142 45.26,65.44 L45.26,65.44 C42.31,70.35 38.72,73 35,73 C29.88,73 25,67.85 21.88,59.19 C21.7032689,58.6625681 21.1324319,58.3782689 20.605,58.555 C20.0775681,58.7317311 19.7932689,59.3025681 19.97,59.83 L19.97,59.83 L19.97,59.83 C23.37,69.23 28.86,75 35,75 C39.5,75 43.67,71.93 46.92,66.53 C47.0688534,66.3099718 47.1240417,66.0397579 47.0733875,65.7789823 C47.0227332,65.5182067 46.8703997,65.2883028 46.65,65.14 Z"/><path id="Shape" d="M5.22,52.24 L5.22,52.24 C5.1,52.24 4.99,52.24 4.87,52.24 C4.55,44.24 13.44,33.04 26.87,25.24 C32.2561306,22.0738441 38.0980258,19.756649 44.19,18.37 C44.7422847,18.2540202 45.0959798,17.7122847 44.98,17.16 C44.8640202,16.6077153 44.3222847,16.2540202 43.77,16.37 C37.4708252,17.7979446 31.4297342,20.1894205 25.86,23.46 C11.57,31.72 2.12,43.78 2.86,52.77 C0.762345171,53.9556617 -0.128038869,56.5149956 0.780762268,58.7465937 C1.68956341,60.9781918 4.11463028,62.1873339 6.44381363,61.5701998 C8.77299697,60.9530658 10.2811973,58.701776 9.96578489,56.3129552 C9.6503725,53.9241345 7.60953862,52.1414481 5.2,52.15 L5.22,52.24 Z M5.22,59.85 C3.66952602,59.8663957 2.39879975,58.623804 2.38048302,57.0733515 C2.36216629,55.5228991 3.60318256,54.2506342 5.15361115,54.2303965 C6.70403974,54.2101587 7.97784128,55.4495977 8,57 C8.0106773,57.7487098 7.72208937,58.470716 7.19828011,59.00579 C6.67447085,59.540864 5.95876745,59.8447467 5.21,59.85 L5.22,59.85 Z"/><path id="Shape" d="M64.79,52.23 C62.1568537,52.2408579 60.0218751,54.3669221 60,57 L60,57 C60.009455,57.8219325 60.2298264,58.6276657 60.64,59.34 C53.64,63.15 39.92,60.94 26.89,53.41 C21.4936459,50.3691399 16.5937414,46.5213827 12.36,42 C11.9927306,41.5830251 11.356975,41.5427307 10.94,41.91 C10.5230251,42.2772694 10.4827307,42.913025 10.85,43.33 L10.85,43.33 C15.2167091,48.0160158 20.2753554,52.0056015 25.85,55.16 C39.65,63.16 54.29,65.41 61.97,60.89 C63.6563905,62.1164767 65.9409785,62.1166722 67.6275789,60.890484 C69.3141792,59.6642959 70.0186188,57.4910249 69.3720608,55.5085716 C68.7255028,53.5261183 66.87522,52.1860453 64.79,52.19 L64.79,52.23 Z M64.79,59.85 C64.0975015,59.8480695 63.4306547,59.5877496 62.92,59.12 L62.92,59.12 C62.8643781,59.0493981 62.8006019,58.9856219 62.73,58.93 C62.2565023,58.4189321 61.9954702,57.7466849 62,57.05 L62,57.05 C62.0000099,55.5049066 63.2515863,54.2518527 64.7966786,54.2500178 C66.3417709,54.248187 67.5963166,55.4982681 67.6000002,57.0433571 C67.6036676,58.5884461 66.3550835,59.8444818 64.81,59.85 L64.79,59.85 Z"/><path id="Path" d="M34.3,36 C32.4194705,36.4059293 31.2240708,38.2594704 31.6300001,40.14 C32.0359294,42.0205295 33.8894705,43.2159292 35.77,42.81 L35.77,42.81 C37.6505295,42.4040707 38.8459292,40.5505296 38.4399999,38.67 C38.0340706,36.7894705 36.1805295,35.5940708 34.3,36 Z"/><path id="Shape" d="M35,9.62 C36.8088893,9.62281089 38.4664113,8.61052472 39.29,7 C46.29,11 51.29,24.1 51.29,39.39 C51.3303943,45.4849488 50.4608136,51.551791 48.71,57.39 C48.5305075,57.9146705 48.8103295,58.4855075 49.335,58.665 C49.8596705,58.8444925 50.4305075,58.5646705 50.61,58.04 L50.61,58.04 C52.4409839,51.9970401 53.3577935,45.7141979 53.33,39.4 C53.33,23.17 47.79,9.12 39.82,5 C39.825429,4.93344386 39.825429,4.86655614 39.82,4.8 C39.8144768,2.14612194 37.6605568,-0.00182948618 35.0066736,1.03914716e-05 C32.3527904,0.00185263438 30.2018526,2.15279044 30.2000104,4.80667361 C30.1981705,7.46055678 32.3461219,9.61447682 35,9.62 L35,9.62 Z M35,2 C36.5463973,2 37.8,3.2536027 37.8,4.8 C37.8,6.3463973 36.5463973,7.6 35,7.6 L35,7.6 C33.4536027,7.6 32.2,6.3463973 32.2,4.8 C32.2,3.2536027 33.4536027,2 35,2 Z"/></g></g></g></svg>