<svg xmlns="http://www.w3.org/2000/svg" xmlns:xlink="http://www.w3.org/1999/xlink" width="76" height="75" version="1.1" viewBox="0 0 76 75"><title>2B92BBF6-030A-4BD5-98AA-8F4EC0B8DD7C</title><desc>Created with sketchtool.</desc><g id="Page-1" fill="none" fill-rule="evenodd" stroke="none" stroke-width="1"><g id="Icons" fill="#DE4C36" fill-rule="nonzero" transform="translate(-167.000000, -3721.000000)"><g id="mid-icon-git-colour" transform="translate(167.000000, 3721.000000)"><path id="Path" d="M74.19,34.16 L41.44,1.41 C39.551567,-0.470296414 36.498433,-0.470296414 34.61,1.41 L27.81,8.21 L36.44,16.84 C38.5135616,16.1410853 40.8041192,16.681911 42.3460784,18.2344898 C43.8880377,19.7870686 44.4131298,22.0812842 43.7,24.15 L52,32.47 C54.5574146,31.590541 57.3817966,32.6155018 58.7799746,34.9304349 C60.1781527,37.2453681 59.7708036,40.2222364 57.8021266,42.0764554 C55.8334496,43.9306745 52.8375432,44.1591979 50.6104048,42.6250297 C48.3832665,41.0908615 47.5291148,38.2102186 48.56,35.71 L40.82,28 L40.82,48.36 C43.2415356,49.5624267 44.4957,52.2916601 43.8309834,54.912312 C43.1662669,57.532964 40.7628982,59.3344805 38.0610035,59.2373723 C35.3591089,59.140264 33.0912701,57.1708605 32.6164023,54.509251 C32.1415344,51.8476414 33.5883914,49.215485 36.09,48.19 L36.09,27.6 C35.3867991,27.3072939 34.7480156,26.879173 34.21,26.34 C32.5723177,24.6847584 32.0945751,22.2052352 33,20.06 L24.5,11.56 L2,34 C0.119703586,35.888433 0.119703586,38.941567 2,40.83 L34.76,73.59 C36.648433,75.4702964 39.701567,75.4702964 41.59,73.59 L74.19,41 C76.0702964,39.111567 76.0702964,36.058433 74.19,34.17"/></g></g></g></svg>