<?xml version="1.0" encoding="UTF-8"?>
<svg width="54px" height="76px" viewBox="0 0 54 76" version="1.1" xmlns="http://www.w3.org/2000/svg" xmlns:xlink="http://www.w3.org/1999/xlink">
    <!-- Generator: sketchtool 59 (101010) - https://sketch.com -->
    <title>7E1E5961-AEC4-4C19-BCB1-1B94D78ABC0B</title>
    <desc>Created with sketchtool.</desc>
    <g id="Page-1" stroke="none" stroke-width="1" fill="none" fill-rule="evenodd">
        <g id="Icons" transform="translate(-617.000000, -4820.000000)" fill="#A8C5DD" fill-rule="nonzero">
            <g id="mid-icon-html5-grey" transform="translate(617.000000, 4820.000000)">
                <polygon id="Path" points="19.67 3.45 19.67 10.21 23.06 10.21 23.06 3.45 26.03 3.45 26.03 0.09 16.7 0.09 16.7 3.45 19.67 3.45"></polygon>
                <polygon id="Path" points="48.72 6.86 43.96 6.86 43.96 0.09 40.58 0.09 40.58 10.21 48.72 10.21"></polygon>
                <polygon id="Path" points="30.82 5.19 33.15 8.79 33.21 8.79 35.53 5.19 35.53 10.21 38.9 10.21 38.9 0.09 35.37 0.09 33.21 3.65 31.04 0.09 27.51 0.09 27.51 0.09 27.51 10.21 30.82 10.21"></polygon>
                <polygon id="Path" points="8.76 10.21 8.76 6.82 11.85 6.82 11.85 10.21 15.23 10.21 15.23 0.09 11.85 0.09 11.85 3.43 8.76 3.43 8.76 0.09 5.38 0.09 5.38 10.21"></polygon>
                <path d="M0.43,14.83 L5.27,69.07 L26.97,75.07 L48.73,69.07 L53.57,14.84 L0.43,14.83 Z M43.48,27.7 L43.18,31.07 L43,32.57 L17.59,32.57 L18.2,39.38 L42.44,39.38 L42.28,41.17 L40.71,58.68 L40.61,59.8 L27,63.58 L27,63.58 L13.34,59.8 L12.41,49.36 L19.09,49.36 L19.56,54.66 L26.97,56.66 L26.97,56.66 L34.39,54.66 L35.17,46 L12.11,46 L10.48,27.7 L10.32,25.92 L43.64,25.92 L43.48,27.7 Z" id="Shape"></path>
            </g>
        </g>
    </g>
</svg>