<svg xmlns="http://www.w3.org/2000/svg" xmlns:xlink="http://www.w3.org/1999/xlink" width="54" height="75" version="1.1" viewBox="0 0 54 75"><title>7A858F40-5DFA-429E-955C-608917A3B691</title><desc>Created with sketchtool.</desc><g id="Page-1" fill="none" fill-rule="evenodd" stroke="none" stroke-width="1"><g id="Icons" fill-rule="nonzero" transform="translate(-617.000000, -3937.000000)"><g id="mid-icon-html5-colour" transform="translate(617.000000, 3937.000000)"><polygon id="Path" fill="#E44D26" points="5.25 69 .41 14.74 53.55 14.74 48.71 69 27 75"/><polygon id="Path" fill="#F16529" points="27 70.39 44.58 65.51 48.7 19.17 27 19.17"/><path id="Shape" fill="#EBEBEB" d="M27,39.29 L18.2,39.29 L17.59,32.48 L27,32.48 L27,25.83 L10.3,25.83 L10.46,27.61 L12.09,45.94 L27,45.94 L27,39.29 Z M27,56.57 L27,56.57 L19.59,54.57 L19.12,49.27 L12.39,49.27 L13.32,59.71 L27,63.49 L27,63.49 L27,56.57 Z"/><path id="Shape" fill="#000" d="M5.36,0 L8.74,0 L8.74,3.34 L11.83,3.34 L11.83,0 L15.21,0 L15.21,10.11 L11.83,10.11 L11.83,6.73 L8.74,6.73 L8.74,10.11 L5.36,10.11 L5.36,0 Z M19.65,3.35 L16.65,3.35 L16.65,0 L26,0 L26,3.35 L23,3.35 L23,10.11 L19.66,10.11 L19.66,3.35 L19.65,3.35 Z M27.49,0 L31,0 L33.17,3.55 L35.35,0 L38.88,0 L38.88,10.11 L35.51,10.11 L35.51,5.11 L33.19,8.7 L33.13,8.7 L30.8,5.1 L30.8,10.1 L27.49,10.1 L27.49,0 Z M40.56,0 L43.94,0 L43.94,6.77 L48.7,6.77 L48.7,10.11 L40.56,10.11 L40.56,0 Z"/><path id="Shape" fill="#FFF" d="M27,39.29 L27,45.94 L35.19,45.94 L34.42,54.57 L27,56.57 L27,63.49 L40.63,59.71 L40.73,58.59 L42.3,41.08 L42.46,39.29 L27,39.29 Z M27,25.83 L27,32.48 L43,32.48 L43.14,30.98 L43.44,27.61 L43.6,25.83 L27,25.83 Z"/></g></g></g></svg>