<?xml version="1.0" encoding="UTF-8"?>
<svg width="76px" height="76px" viewBox="0 0 76 76" version="1.1" xmlns="http://www.w3.org/2000/svg" xmlns:xlink="http://www.w3.org/1999/xlink">
    <!-- Generator: sketchtool 59 (101010) - https://sketch.com -->
    <title>11EF2643-1188-4635-A531-632373F9710F</title>
    <desc>Created with sketchtool.</desc>
    <g id="Page-1" stroke="none" stroke-width="1" fill="none" fill-rule="evenodd">
        <g id="Icons" transform="translate(-606.000000, -4153.000000)" fill="#498AFE" fill-rule="nonzero">
            <g id="mid-icon-ionic-colour" transform="translate(606.000000, 4152.000000)">
                <circle id="Oval" cx="38.08" cy="38.77" r="16.77"></circle>
                <path d="M71.67,21.86 C70.3179641,23.9487592 68.3301383,25.5474339 66,26.42 C71.8349721,39.957481 67.1383046,55.730592 54.8483942,63.8711322 C42.5584838,72.0116724 26.202874,70.1830821 16.0141968,59.5293903 C5.82551957,48.8756985 4.7282065,32.4548088 13.4087744,20.5401945 C22.0893423,8.62558025 38.0562285,4.63706454 51.32,11.07 C52.2903597,8.78889675 53.9700558,6.88126692 56.11,5.63 C39.85491,-3.30313871 19.5128339,0.966776361 8.22167248,15.6820267 C-3.06948895,30.397277 -1.92855447,51.1513249 10.907605,64.5401982 C23.7437645,77.9290714 44.4313122,79.9434211 59.609225,69.2822823 C74.7871378,58.6211435 79.9103321,38.4770348 71.67,21.86 Z" id="Path"></path>
                <circle id="Oval" cx="61.95" cy="15.6" r="7.81"></circle>
            </g>
        </g>
    </g>
</svg>