<svg xmlns="http://www.w3.org/2000/svg" xmlns:xlink="http://www.w3.org/1999/xlink" width="64" height="76" version="1.1" viewBox="0 0 64 76"><title>7C9CABBA-27ED-4B31-9141-0AF863E63D7F</title><desc>Created with sketchtool.</desc><g id="Page-1" fill="none" fill-rule="evenodd" stroke="none" stroke-width="1"><g id="Icons" fill="#A8C5DD" fill-rule="nonzero" transform="translate(-843.000000, -5036.000000)"><g id="mid-icon-linux-grey" transform="translate(843.000000, 5036.000000)"><path id="Path" d="M27.77,17.09 C27.2981229,16.9543085 26.7896487,17.0757352 26.43,17.41 C26.3694505,17.5042706 26.351214,17.6196144 26.3797276,17.7279664 C26.4082413,17.8363184 26.4808911,17.9277448 26.58,17.98 C26.86,18.1 27.06,17.82 27.11,17.6 C27.16,17.38 27.18,17.38 27.27,17.35 C27.36,17.32 27.58,17.35 27.71,17.28 C27.84,17.21 27.81,17.09 27.77,17.09 Z"/><path id="Path" d="M30.2,17.06 C30.11,17.06 29.89,17.06 29.98,17.18 C30.07,17.3 30.52,17.46 30.8,17.59 C31.08,17.72 31.27,17.75 31.36,17.53 C31.58,16.84 30.64,17.06 30.2,17.06 Z"/><path id="Shape" d="M62.39,61.88 C61.117132,61.2104942 59.9889093,60.2963619 59.07,59.19 C58.3576166,58.3590008 57.9986928,57.2822294 58.07,56.19 C58.07,55.25 57.63,54.68 57.25,56 C56.9197682,57.7512054 57.3287823,59.5610022 58.38,61 C59.38,62.12 60.64,61.81 61.95,62.5 C63.26,63.19 63.57,64.06 62.33,65.32 C61.09,66.58 58.7,67.13 56.43,67.88 C54.16,68.63 51.68,70.95 50.37,71.95 C48.7076226,73.1986593 46.4070578,73.149096 44.8,71.83 C43.11,70.26 43.42,68.83 43.8,66.31 C44.1681418,64.4669277 44.1271776,62.5655071 43.68,60.74 C43.269162,59.2332718 43.1203291,57.6671437 43.24,56.11 C43.31,53.55 44.36,53.17 45.37,53.23 C45.4530052,53.2404577 45.5369948,53.2404577 45.62,53.23 C45.5514403,52.9317255 45.5211964,52.6259258 45.53,52.32 L45.3,52.32 C43.74,52.32 42.23,52.56 42.42,56.06 C42.61,59.56 42.36,60.9 42.36,63.41 C42.2191203,65.6968157 41.9486862,67.9738036 41.55,70.23 C39.61,70.6 40.84,66.65 41.34,64.9 C41.84,63.15 41.44,60.61 39.34,63.62 C37.24,66.63 33.59,66.89 30.15,67 C26.71,67.11 26.38,65.93 25.51,65.37 C24.64,64.81 24.02,65.37 25.03,66.13 C26.04,66.89 26.83,69.69 24.76,70.88 C25.76,68.81 24.51,67.19 22.19,64.05 C25.89,62.43 25.01,60.17 22.5,58.36 C19.8585379,56.3526283 17.3312679,54.199274 14.93,51.91 C13.656062,50.8571828 12.8302333,49.3592511 12.62,47.72 C12.3771785,46.2090003 12.5895245,44.6599186 13.23,43.27 C13.59,42.66 13.76,43 13.59,43.5 C13.3225178,44.3991855 13.1844649,45.3318841 13.18,46.27 C13.0240107,47.6980435 13.5546042,49.1154331 14.61,50.09 C15.74,51.16 16.18,50.85 16.06,49.28 C16.0092633,47.4134324 16.1533765,45.5466637 16.49,43.71 C17.1190583,41.348557 18.0465312,39.0769204 19.25,36.95 C20.18,35.57 20.5,35.44 20.37,34.26 C20.1826264,32.7968096 20.4441741,31.3112187 21.12,30 C21.9345386,28.656357 22.5667484,27.2103452 23,25.7 C23.12,24.88 23.19,24.7 23.87,25.45 C24.55,26.2 24.5,26.57 25.06,27.2 C25.62,27.83 26.44,29.2 27.75,29.14 C28.766655,29.2339935 29.7613215,28.8044784 30.39,28 C31.5188419,27.0668747 32.7267298,26.2337332 34,25.51 C34.87,24.95 35.13,25.14 36.07,24.51 C37.01,23.88 36.25,23.06 35.32,23.69 C33.6679714,24.6056067 31.9537665,25.4042324 30.19,26.08 C29.256833,26.4783368 28.2146746,26.5419261 27.24,26.26 C26.49,26.01 26.55,25.82 25.67,25.19 C24.79,24.56 25.18,24.44 25.98,24.51 C26.78,24.58 24.98,24.51 27.62,24.63 C30.26,24.75 31.69,23.51 32.93,23.06 C34.2056907,22.7011452 35.4445494,22.222343 36.63,21.63 C37.38,21.13 36.57,20.32 36.07,20.88 C35.57,21.44 36.07,21.38 34.63,21.88 C32.7989241,22.6702201 30.8878362,23.2603104 28.93,23.64 C26.3,24.07 25.23,23.64 24.61,22.69 C24.3175777,22.0966783 23.7985347,21.6461202 23.17,21.44 C22.42,21.07 22.79,19.62 23.73,19 C24.67,18.38 24.99,17.87 25.8,17.31 C26.61,16.75 26.68,16.69 26.8,15.87 C26.8001335,14.953936 26.4411112,14.0743314 25.8,13.42 C25.1759843,13.0088175 24.3444826,13.1196844 23.85,13.68 C23.17,14.3 23.61,16.37 24.23,16.87 C24.85,17.37 25.23,16.81 24.55,17.93 C23.87,19.05 22.86,17.56 22.79,14.43 C22.72,11.3 24.99,10.43 26.3,11.17 C27.61,11.91 27.74,13.86 27.8,14.8 C27.86,15.74 27.55,16.3 28.43,16.25 C28.9302061,16.2068375 29.4337785,16.2236232 29.93,16.3 C30.8,16.37 31.31,17.12 31.06,15.81 C30.8177681,14.3136635 31.1772532,12.782257 32.06,11.55 C32.93,10.42 33.75,10.3 35.57,10.68 C37.39,11.06 37.63,12.18 38.13,13.8 C38.63,15.42 38.5,17.18 38.01,17.75 C37.52,18.32 36.51,17.81 36.32,17.49 C36.13,17.17 36.82,16.43 36.76,14.99 C36.7,13.55 34.82,12.86 33.68,13.37 C32.54,13.88 32.25,15.87 32.75,16.87 C33.25,17.87 35.25,18.5 36.75,18.94 C38.25,19.38 38.81,19.94 38.06,22 C37.31,24.06 37.93,25.26 39.38,27.08 C40.83,28.9 41.51,32.08 41.81,33.27 C42.11,34.46 43.57,36.4 44.76,39.22 C45.95,42.04 45.76,45.38 45.76,47.59 C45.76,49.8 46.63,49.34 47.59,49.34 C48.55,49.34 49.35,48.68 49.81,47 C50.258014,44.6595808 50.06804,42.2417293 49.26,40 C48.1394937,37.3258868 46.6989887,34.797448 44.97,32.47 C44.61,32.02 45.14,32.24 45.32,32.34 C47.32,33.42 49.51,37.79 50.14,39.34 C51.1486538,42.0236583 51.2226418,44.9690842 50.35,47.7 C49.85,49.45 50.14,48.45 51.61,49.53 C53.08,50.61 52.78,50.91 51.56,50.28 C50.3259495,49.6397091 48.8905608,49.5069357 47.56,49.91 C46.4011943,50.0712633 45.5437899,51.0701395 45.56,52.24 C46.7,52.34 46.41,53.05 45.65,53.15 C45.8296061,53.96546 46.169527,54.7370805 46.65,55.42 C49.65,59.8 53.65,55.92 55.91,53.54 C58.17,51.16 57.67,48.97 56.79,44.34 C55.930461,39.8466095 53.9374735,35.6472232 51,32.14 C48.6979163,29.1947103 46.7261066,26.00561 45.12,22.63 C43.35,19.38 43.85,13.11 43,8.36 C42.15,3.61 37.78,-3.55271368e-15 30.9,0.1 C24.02,0.2 20.69,4 20.94,12.48 C21.07,16.74 21.19,18.62 21.31,21.88 C21.43,25.14 21.87,24.76 20.37,26.83 C18.87,28.9 19.81,27.7 17.68,30.77 C15.55,33.84 14.43,34.53 13.18,38.1 C12.2483562,40.8650154 11.0737718,43.5421307 9.67,46.1 C8.80761071,47.4351874 8.45278897,49.0354334 8.67,50.61 C8.73,52.05 8.92,52.17 9.98,51.61 C11.04,51.05 12.3,51.24 14.43,53.81 C16.4019855,56.3186433 18.2411733,58.9288881 19.94,61.63 C21.56,64.08 23.32,66.52 22.94,69.09 C22.56,71.66 21.31,73.78 16.74,72.6 C12.17,71.42 12,71.4 9.35,70.78 C6.7,70.16 3.91,69.4 2.35,69.02 C0.79,68.64 0.66,68.08 1.53,66.96 C2.22311046,66.2037866 2.62378085,65.225158 2.66,64.2 C2.78,63.01 2.09,61.58 1.46,60.2 C0.83,58.82 1.34,58 2.53,58 C3.72,58 4.16,58.44 6.1,58.13 C8.04,57.82 8.17,55.75 8.41,55 C8.65,54.25 8.41,52 7.54,54.87 C6.67,57.74 4.6,57.32 2.41,57.32 C0.22,57.32 -0.1,59.69 0.71,62 C1.52,64.31 0.59,66.07 0.22,67.2 C-0.15,68.33 -0.35,69.71 2.53,70.32 C5.41,70.93 2.84,70.51 7.61,71.45 C12.38,72.39 14.05,73.58 17.25,74.65 C20.45,75.72 21.07,74.65 22.75,73.27 C24.43,71.89 25.75,71.27 29.45,71.21 C33.15,71.15 38.03,71.21 39.45,71.21 C40.87,71.21 41.2,71.09 41.83,72.35 C42.74,74.17 44.15,74.91 47.21,74.91 C50.27,74.91 51.21,73.53 52.72,71.97 C54.3921043,70.4193594 56.3207468,69.1708171 58.42,68.28 C60.0488141,67.5946143 61.5870513,66.7113034 63,65.65 C64.83,64.32 63.89,62.82 62.39,61.88 Z M25.22,13.93 C25.22,13.93 25.33,13.85 25.36,13.93 C25.602127,14.126643 25.7854847,14.3861115 25.89,14.68 C25.99,15.19 26.29,15.68 26.05,16.13 C26.05,16.19 25.71,16.29 25.7,16.08 C25.58,15.54 25.53,14.85 24.99,14.55 C25,14.26 24.83,14 25.22,13.93 Z M36.06,15.8 C35.98,15.93 35.62,15.94 35.61,15.8 C35.61,14.92 34.98,14.16 34.55,14.14 C34.12,14.12 34.35,13.71 34.42,13.67 C34.6828769,13.6239914 34.9535898,13.6661805 35.19,13.79 C35.5705501,13.9437351 35.8708333,14.2476361 36.02,14.63 C36.1847118,15.0000197 36.1990563,15.4195951 36.06,15.8 Z M41.06,22.36 C41.5135966,22.9066307 42.1085474,23.3182536 42.78,23.55 C43.69,23.89 43.69,24.23 43.31,25.08 C42.93,25.93 42.52,25.43 41.85,24.86 C41.3710929,24.5254119 41.0188265,24.0392842 40.85,23.48 C40.54,22.69 40.68,21.89 41.09,22.36 L41.06,22.36 Z M35.49,6.1 C35.59,5.96 35.78,5.92 35.78,5.77 C35.8118436,5.31092209 35.8854818,4.85570409 36,4.41 C36.18,3.9 36.79,4.02 37.18,4.34 C37.6036033,4.60475666 37.9761894,4.94347136 38.28,5.34 C38.3364319,5.39117914 38.3686164,5.46381687 38.3686164,5.54 C38.3686164,5.61618313 38.3364319,5.68882086 38.28,5.74 C37.88,6 37.35,5.74 36.99,5.93 C36.63,6.12 35.84,6.93 35.48,6.55 C35.3845807,6.41394912 35.3886312,6.23167781 35.49,6.1 L35.49,6.1 Z M15.68,36.65 C15.88,36.24 15.82,35.77 16.11,35.47 C16.21,35.37 16.68,35.27 16.73,35.57 C16.8251933,36.121138 16.6329499,36.6827902 16.22,37.06 C15.74,37.41 15.29,38.33 14.96,37.94 C14.63,37.55 15.44,37.14 15.68,36.65 Z"/></g></g></g></svg>