<?xml version="1.0" encoding="UTF-8"?>
<svg width="64px" height="76px" viewBox="0 0 64 76" version="1.1" xmlns="http://www.w3.org/2000/svg" xmlns:xlink="http://www.w3.org/1999/xlink">
    <!-- Generator: sketchtool 59 (101010) - https://sketch.com -->
    <title>0E63948E-48D0-468A-9A40-3DA065D1F6F3</title>
    <desc>Created with sketchtool.</desc>
    <g id="Page-1" stroke="none" stroke-width="1" fill="none" fill-rule="evenodd">
        <g id="Icons" transform="translate(-843.000000, -4153.000000)">
            <g id="mid-icon-linux-colour" transform="translate(843.000000, 4153.000000)">
                <polygon id="Path" fill="#FFFFFF" points="22 19 21.87 10.59 26.87 7.66 34.3 2.66 37.3 2.54 40.48 5.95 42.19 17.29 39.87 21.44 30.24 21.19"></polygon>
                <polygon id="Path" fill="#FFFFFF" points="12.13 43 14.69 35.8 19.69 29.8 22.24 24.68 23.35 23 41.63 20.2 45.29 25.94 55.53 50.44 52 54.82 42.72 70.31 40.54 70.8 23.59 71.28 11.76 58.12 9.76 47.12"></polygon>
                <path d="M35.54,24.35 C35.54,24.35 34.93,24.22 36.63,23.85 C38.33,23.48 38.35,23.13 38.83,22.64 C39.3872033,21.8142334 39.6448273,20.8225574 39.56,19.83 C39.56,18.62 40.17,15.08 40.04,14.11 C39.91,13.14 37.85,9.48 37,9 C36.15,8.52 26.64,7.64 26.64,7.64 L23.71,10 L21.51,12 L22.01,18.59 C21.710156,19.5323548 21.5418997,20.5116066 21.51,21.5 C21.64,22.36 22.86,23.34 23.35,23.82 C23.84,24.3 25.66,26.28 26.27,26.88 C26.88,27.48 27.01,28.09 28.46,27.61 C29.91,27.13 30.78,27.12 31.89,26.27 C33.0436521,25.516763 34.2657214,24.8739211 35.54,24.35 L35.54,24.35 Z" id="Path" fill="#F6D330"></path>
                <path d="M29.93,14 C30.3,13 30.78,11.19 31.63,10.58 C32.7623021,9.87767858 34.0785308,9.52946992 35.41,9.58 C36.828293,9.84448404 38.1169636,10.5768433 39.07,11.66 C39.56,12.51 39.56,15.92 39.56,15.92 L39.31,18.73 L37.61,18.61 L34,17.15 L33.39,17.15 C33.39,17.15 32.78,17.39 30.95,16.42 C29.12,15.45 29.56,15 29.93,14 Z M26,16.67 C26.0960888,16.5823587 26.203762,16.5083333 26.32,16.45 C27.0883559,16.0750062 27.8761383,15.7412001 28.68,15.45 C28.68,15.45 30.26,11.45 28.92,9.85 C27.58,8.25 24.69,8.5 24.69,8.5 C24.69,8.5 21.52,10.33 21.69,11.06 C21.86,11.79 21.93,14.35 22.06,14.71 C22.19,15.07 22.67,18.98 22.67,18.98 L23.76,18.49 L25.35,17.27 C25.6143985,17.0971009 25.8591756,16.8959142 26.08,16.67 L26,16.67 Z" id="Shape" fill="#FFFFFF"></path>
                <path d="M49.31,53.49 L51.08,53.62 L51.85,53.62 C53.16,53.67 54.31,53.86 55.54,54.02 C56.35,54.11 57.69,54.63 57.78,55.64 C57.92,57.15 57.48,58.8 58.78,59.42 C60.08,60.3 62.99,62.35 62.99,62.35 L63.82,64 L61.26,66.32 L48.7,73.84 L42.98,71.84 L42.98,67.26 L43.22,61.05 L42.61,55.44 L43.61,53.24 L46,52.51 L49.29,53.51 L49.31,53.49 Z M13,50.75 C12.1558219,50.8716566 11.3230344,51.0622947 10.51,51.32 C9.51,51.47 8.17,52.18 8.17,53.32 C8.20070357,53.9040956 8.09097223,54.4870434 7.85,55.02 C7.60197023,55.3918665 7.37817277,55.7793368 7.18,56.18 C7.0226752,56.7000081 6.72098442,57.1646813 6.31,57.52 L3.73,57.76 L1.88,57.76 L0.79,59.09 L1.64,62.63 L1.4,65.43 L0.55,68.6 L2.61,69.7 L18.22,73.84 L21.76,72.75 L23.59,68.23 L23.21,66.53 L21.51,63.12 C21.51,63.12 14.1,52.35 13,50.75 Z" id="Shape" fill="#F6D330"></path>
                <path d="M20.94,12.48 C20.69,4 24,0.22 30.9,0.1 C37.8,-0.02 42.1,3.59 43,8.36 C43.9,13.13 43.37,19.36 45.13,22.63 C46.7329534,26.0051515 48.7013985,29.1942338 51,32.14 C53.929733,35.6560854 55.9124444,39.8624628 56.76,44.36 C57.64,48.99 58.13,51.18 55.88,53.56 C53.63,55.94 49.63,59.82 46.62,55.44 C45.11,53.24 44.95,50.51 47.5,49.93 C48.8305608,49.5269357 50.2659495,49.6597091 51.5,50.3 C52.72,50.93 53,50.63 51.55,49.55 C50.1,48.47 49.79,49.47 50.29,47.72 C51.1626418,44.9890842 51.0886538,42.0436583 50.08,39.36 C49.45,37.76 47.29,33.36 45.26,32.36 C45.08,32.26 44.55,32.04 44.91,32.49 C46.6340992,34.8117063 48.071192,37.3333341 49.19,40 C49.99804,42.2417293 50.188014,44.6595808 49.74,47 C49.28,48.68 48.48,49.34 47.52,49.34 C46.56,49.34 45.69,49.8 45.69,47.59 C45.69,45.38 45.92,42.04 44.69,39.22 C43.46,36.4 42.06,34.46 41.74,33.27 C41.42,32.08 40.74,28.89 39.31,27.08 C37.88,25.27 37.28,24.07 38,22 C38.72,19.93 38.19,19.38 36.69,18.94 C35.19,18.5 33.18,17.87 32.69,16.87 C32.2,15.87 32.5,13.87 33.62,13.37 C34.74,12.87 36.62,13.55 36.7,14.99 C36.78,16.43 36.07,17.18 36.26,17.49 C36.45,17.8 37.45,18.31 37.95,17.75 C38.45,17.19 38.58,15.43 38.07,13.8 C37.56,12.17 37.32,11.05 35.51,10.68 C33.7,10.31 32.87,10.42 32,11.55 C31.1172532,12.782257 30.7577681,14.3136635 31,15.81 C31.25,17.12 30.74,16.37 29.87,16.3 C29.3737785,16.2236232 28.8702061,16.2068375 28.37,16.25 C27.49,16.3 27.81,15.74 27.74,14.8 C27.67,13.86 27.56,11.92 26.24,11.17 C24.92,10.42 22.67,11.29 22.73,14.43 C22.79,17.57 23.86,19.06 24.49,17.93 C25.12,16.8 24.8,17.37 24.17,16.87 C23.54,16.37 23.11,14.3 23.79,13.68 C24.2844826,13.1196844 25.1159843,13.0088175 25.74,13.42 C26.3811112,14.0743314 26.7401335,14.953936 26.74,15.87 C26.62,16.69 26.55,16.74 25.74,17.31 C24.93,17.88 24.63,18.38 23.69,19 C22.75,19.62 22.38,21.07 23.13,21.44 C23.7585347,21.6461202 24.2775777,22.0966783 24.57,22.69 C25.19,23.64 26.26,24.07 28.89,23.64 C30.8478362,23.2603104 32.7589241,22.6702201 34.59,21.88 C36.03,21.38 35.53,21.44 36.03,20.88 C36.53,20.32 37.34,21.12 36.59,21.63 C35.4045494,22.222343 34.1656907,22.7011452 32.89,23.06 C31.65,23.51 30.2,24.76 27.58,24.63 C24.96,24.5 26.76,24.57 25.94,24.51 C25.12,24.45 24.76,24.57 25.63,25.19 C26.5,25.81 26.45,26.01 27.2,26.26 C28.1746746,26.5419261 29.216833,26.4783368 30.15,26.08 C31.9137665,25.4042324 33.6279714,24.6056067 35.28,23.69 C36.21,23.06 36.96,23.88 36.03,24.51 C35.1,25.14 34.83,24.95 33.96,25.51 C32.7005474,26.2356957 31.5061108,27.0687901 30.39,28 C29.7589776,28.7938485 28.7696171,29.2151731 27.76,29.12 C26.45,29.19 25.63,27.81 25.07,27.18 C24.51,26.55 24.57,26.18 23.88,25.43 C23.19,24.68 23.13,24.86 23.01,25.68 C22.5752629,27.1977668 21.9396366,28.6506268 21.12,30 C20.4441741,31.3112187 20.1826264,32.7968096 20.37,34.26 C20.5,35.44 20.18,35.57 19.25,36.95 C18.0465312,39.0769204 17.1190583,41.348557 16.49,43.71 C16.1533765,45.5466637 16.0092633,47.4134324 16.06,49.28 C16.18,50.85 15.74,51.16 14.61,50.09 C13.5546042,49.1154331 13.0240107,47.6980435 13.18,46.27 C13.1844649,45.3318841 13.3225178,44.3991855 13.59,43.5 C13.76,43 13.59,42.66 13.23,43.27 C12.5895245,44.6599186 12.3771785,46.2090003 12.62,47.72 C12.8302333,49.3592511 13.656062,50.8571828 14.93,51.91 C17.3312679,54.199274 19.8585379,56.3526283 22.5,58.36 C25.01,60.17 25.89,62.43 22.19,64.05 C24.51,67.19 25.76,68.81 24.76,70.88 C26.83,69.69 26.03,66.88 25.03,66.13 C24.03,65.38 24.63,64.8 25.51,65.37 C26.39,65.94 26.7,67 30.15,67 C33.6,67 37.3,66.59 39.37,63.58 C41.44,60.57 41.83,63.1 41.37,64.86 C40.91,66.62 39.64,70.56 41.58,70.19 C41.9786862,67.9338036 42.2491203,65.6568157 42.39,63.37 C42.39,60.86 42.64,59.65 42.45,56.02 C42.26,52.39 43.77,52.28 45.33,52.28 C46.89,52.28 46.4,53.28 45.4,53.22 C44.4,53.16 43.34,53.54 43.27,56.1 C43.1503291,57.6571437 43.299162,59.2232718 43.71,60.73 C44.1571776,62.5555071 44.1981418,64.4569277 43.83,66.3 C43.46,68.87 43.15,70.25 44.83,71.82 C46.4370578,73.139096 48.7376226,73.1886593 50.4,71.94 C51.71,70.94 54.21,68.62 56.46,67.87 C58.71,67.12 61.1,66.56 62.36,65.31 C63.62,64.06 63.29,63.18 61.98,62.49 C60.67,61.8 59.41,62.11 58.41,60.99 C57.3587823,59.5510022 56.9497682,57.7412054 57.28,55.99 C57.66,54.67 58.1,55.24 58.1,56.18 C58.0286928,57.2722294 58.3876166,58.3490008 59.1,59.18 C60.0189093,60.2863619 61.147132,61.2004942 62.42,61.87 C63.92,62.81 64.86,64.31 62.98,65.64 C61.5920592,66.7173308 60.0774628,67.6207154 58.47,68.33 C56.3615846,69.2117107 54.4226672,70.4535653 52.74,72 C51.18,73.59 50.3,75 47.23,75 C44.16,75 42.76,74.26 41.85,72.44 C41.22,71.18 40.91,71.37 39.47,71.3 C38.03,71.23 33.21,71.18 29.47,71.3 C25.73,71.42 24.47,71.98 22.77,73.36 C21.07,74.74 20.46,75.8 17.27,74.74 C14.08,73.68 12.38,72.49 7.63,71.54 C2.88,70.59 5.43,71.04 2.55,70.41 C-0.33,69.78 -0.14,68.41 0.24,67.29 C0.62,66.17 1.55,64.4 0.73,62.09 C-0.09,59.78 0.24,57.4 2.43,57.4 C4.62,57.4 6.68,57.84 7.56,54.95 C8.44,52.06 8.69,54.33 8.43,55.08 C8.17,55.83 8,57.81 6.1,58.13 C4.2,58.45 3.73,58 2.53,58 C1.33,58 0.85,58.82 1.46,60.2 C2.07,61.58 2.78,63.01 2.66,64.2 C2.63327945,65.2390557 2.23196829,66.233455 1.53,67 C0.66,68.12 0.78,68.69 2.35,69.06 C3.92,69.43 6.73,70.19 9.35,70.82 C11.97,71.45 12.18,71.44 16.74,72.64 C21.3,73.84 22.57,71.69 22.94,69.13 C23.31,66.57 21.56,64.13 19.94,61.67 C18.2411733,58.9688881 16.4019855,56.3586433 14.43,53.85 C12.3,51.28 11.05,51.09 9.98,51.65 C8.91,52.21 8.73,52.1 8.67,50.65 C8.45278897,49.0754334 8.80761071,47.4751874 9.67,46.14 C11.0737718,43.5821307 12.2483562,40.9050154 13.18,38.14 C14.43,34.57 15.55,33.88 17.68,30.81 C19.81,27.74 18.87,28.93 20.37,26.87 C21.87,24.81 21.44,25.18 21.31,21.92 C21.18,18.66 21.07,16.78 20.94,12.52 L20.94,12.48 Z M15,37.94 C15.33,38.33 15.78,37.41 16.26,37.06 C16.6729499,36.6827902 16.8651933,36.121138 16.77,35.57 C16.77,35.27 16.25,35.37 16.15,35.47 C15.86,35.77 15.92,36.24 15.72,36.65 C15.52,37.06 14.72,37.54 15,37.94 L15,37.94 Z M41.88,24.86 C42.55,25.43 42.97,25.93 43.34,25.08 C43.71,24.23 43.72,23.89 42.81,23.55 C42.1385474,23.3182536 41.5435966,22.9066307 41.09,22.36 C40.68,21.89 40.54,22.69 40.87,23.48 C41.0388265,24.0392842 41.3910929,24.5254119 41.87,24.86 L41.88,24.86 Z M27.77,17.09 C27.2981229,16.9543085 26.7896487,17.0757352 26.43,17.41 C26.3694505,17.5042706 26.351214,17.6196144 26.3797276,17.7279664 C26.4082413,17.8363184 26.4808911,17.9277448 26.58,17.98 C26.86,18.1 27.06,17.82 27.11,17.6 C27.16,17.38 27.18,17.38 27.27,17.35 C27.36,17.32 27.58,17.35 27.71,17.28 C27.84,17.21 27.81,17.09 27.77,17.09 L27.77,17.09 Z M29.98,17.18 C30.17,17.46 30.52,17.46 30.8,17.59 C31.08,17.72 31.27,17.75 31.36,17.53 C31.58,16.84 30.64,17.06 30.2,17.06 C30.11,17.06 29.89,17.06 29.98,17.18 L29.98,17.18 Z M34.55,14.18 C34.98,14.18 35.55,14.96 35.61,15.84 C35.61,15.97 35.98,15.96 36.06,15.84 C36.209105,15.4677077 36.209105,15.0522923 36.06,14.68 C35.9108333,14.2976361 35.6105501,13.9937351 35.23,13.84 C34.9935898,13.7161805 34.7228769,13.6739914 34.46,13.72 C34.39,13.72 34.12,14.16 34.59,14.19 L34.55,14.18 Z M25.22,13.96 C24.83,13.96 24.97,14.29 24.99,14.54 C25.53,14.84 25.58,15.54 25.7,16.07 C25.7,16.28 26.02,16.18 26.05,16.12 C26.29,15.68 25.99,15.18 25.89,14.67 C25.7854847,14.3761115 25.602127,14.116643 25.36,13.92 C25.36,13.92 25.26,13.92 25.22,13.92 L25.22,13.96 Z M37.22,4.37 C36.83,4.05 36.22,3.93 36.04,4.44 C35.9254818,4.88570409 35.8518436,5.34092209 35.82,5.8 C35.82,5.95 35.63,5.99 35.53,6.13 C35.4161579,6.26974995 35.4161579,6.47025005 35.53,6.61 C35.89,6.98 36.53,6.25 37.04,5.99 C37.55,5.73 37.93,6.06 38.33,5.8 C38.3864319,5.74882086 38.4186164,5.67618313 38.4186164,5.6 C38.4186164,5.52381687 38.3864319,5.45117914 38.33,5.4 C38.0169512,4.97729906 37.6267562,4.61764108 37.18,4.34 L37.22,4.37 Z" id="Shape" fill="#000000" fill-rule="nonzero"></path>
            </g>
        </g>
    </g>
</svg>