<svg xmlns="http://www.w3.org/2000/svg" xmlns:xlink="http://www.w3.org/1999/xlink" width="100" height="65" version="1.1" viewBox="0 0 100 65"><title>223B02CD-64AF-475A-BB4E-919A33F36CA5</title><desc>Created with sketchtool.</desc><g id="Page-1" fill="none" fill-rule="evenodd" stroke="none" stroke-width="1"><g id="Icons" fill="#2F8892" fill-rule="nonzero" transform="translate(-1045.000000, -3941.000000)"><g id="mid-icon-mariadb-colour" transform="translate(1045.000000, 3941.000000)"><path id="Path" d="M100,4.26 C99.15,7.63 96.84,9.8 94,11.58 C93.28,12.04 92.62,12.58 91.92,13.08 C89.735845,14.576765 88.213447,16.8585711 87.67,19.45 C86.57,24.32 85.47,29.19 84.2,34.01 C83.1507569,38.3197827 81.3935521,42.4255594 79,46.16 C77.3901902,48.8181442 75.0171398,50.9298455 72.19,52.22 L72.51,47.76 L72.11,47.64 C71.86,48.15 71.58,48.64 71.37,49.17 C69.08,54.92 65.77,59.85 60,62.75 C57.6609514,64.0638241 55.0227738,64.7526433 52.34,64.75 C56.97,59.48 60.1,53.75 60.09,46.59 C59.7691614,47.0990879 59.4786561,47.6266723 59.22,48.17 C58.65,49.53 58.16,50.92 57.57,52.27 C57.0727983,53.7266713 55.6295841,54.6416774 54.1,54.47 C50.16,54.15 46.21,53.89 42.28,53.47 C37.96,53.05 33.6,52.4 29.4,53.91 C27.0335244,54.8965228 24.7351391,56.0390341 22.52,57.33 C18.52,59.42 14.62,61.74 10.52,63.6 C8.44530591,64.3752693 6.26950882,64.8468043 4.06,65 C2.4,65.21 1.97,64.44 2.86,63 C3.75,61.56 4.86,60.1 5.91,58.59 L0,54.23 C0.885619524,52.7630227 2.50905098,51.905143 4.22,52 C6.97719152,52.0960928 9.72244166,52.4104089 12.43,52.94 C16.25,53.78 18.86,52.58 21.09,49.43 C22.8720849,47.0321499 24.8813966,44.8118605 27.09,42.8 C29.1970758,40.9236283 31.6934968,39.5371071 34.4,38.74 C41.31,36.45 48.19,34.07 55.09,31.74 C61.9393247,29.4145052 67.6182984,24.5206926 70.93,18.09 C72.6799925,14.9424627 74.6237322,11.9066218 76.75,9 C79.6716602,4.79809623 84.4621866,2.28895066 89.58,2.28 C92.1083037,2.28372075 94.6056035,1.72345102 96.89,0.64 C97.73,0.22 98.95,0.56 100,0.55 L100,4.26 Z"/></g></g></g></svg>