<?xml version="1.0" encoding="UTF-8"?>
<svg width="68px" height="75px" viewBox="0 0 68 75" version="1.1" xmlns="http://www.w3.org/2000/svg" xmlns:xlink="http://www.w3.org/1999/xlink">
    <!-- Generator: sketchtool 59 (101010) - https://sketch.com -->
    <title>36490A5F-102D-48D4-82C7-5669F2B7A6E4</title>
    <desc>Created with sketchtool.</desc>
    <g id="Page-1" stroke="none" stroke-width="1" fill="none" fill-rule="evenodd">
        <g id="Icons" transform="translate(-397.000000, -5252.000000)" fill="#A8C5DD" fill-rule="nonzero">
            <g id="mid-icon-nodejs-grey" transform="translate(397.000000, 5252.000000)">
                <path d="M30.93,0.8 C32.8381638,-0.264836592 35.1618362,-0.264836592 37.07,0.8 L65.07,16.64 C66.869662,17.6623172 67.9838928,19.5702468 67.99,21.64 L67.99,53.39 C67.9535753,55.5281365 66.7534006,57.4760239 64.86,58.47 L37,74.24 C35.0516834,75.3153872 32.6727566,75.2464328 30.79,74.06 L22.41,69.22 C21.7967727,68.9429821 21.24577,68.5450357 20.79,68.05 C21.15,67.57 21.79,67.51 22.3,67.3 C23.4498808,66.893303 24.5582546,66.3776246 25.61,65.76 C25.8681977,65.5793222 26.2118023,65.5793222 26.47,65.76 C28.86,67.13 31.23,68.54 33.62,69.89 C34.14,70.19 34.62,69.8 35.09,69.55 C44.23,64.39 53.3766667,59.23 62.53,54.07 C62.863041,53.9035529 63.0610945,53.5510177 63.03,53.18 L63.03,21.78 C63.0667984,21.3549349 62.8298566,20.9533387 62.44,20.78 L34.55,5.1 C34.2162675,4.88021954 33.7837325,4.88021954 33.45,5.1 L5.61,20.8 C5.22014342,20.9733387 4.98320163,21.3749349 5.02,21.8 L5.02,53.23 C4.98913308,53.6011476 5.19262256,53.9522667 5.53,54.11 C8,55.52 10.48,56.91 12.96,58.31 C14.3509456,59.169531 16.0424417,59.3950638 17.61,58.93 C18.990906,58.4165061 19.9024034,57.0932357 19.89,55.62 C19.89,45.2 19.89,34.77 19.89,24.35 C19.8862808,24.1260351 19.9778123,23.9110198 20.141819,23.7584554 C20.3058257,23.605891 20.5268881,23.5301214 20.75,23.55 C21.9433333,23.55 23.1333333,23.55 24.32,23.55 C24.5642325,23.5595035 24.7918603,23.6761724 24.9421847,23.868896 C25.0925091,24.0616196 25.1502462,24.3108032 25.1,24.55 C25.1,35.04 25.1,45.55 25.1,56.01 C25.1,58.81 23.96,61.85 21.37,63.22 C18.092353,64.747662 14.286218,64.640186 11.1,62.93 C8.38,61.57 5.78,59.93 3.1,58.51 C1.20102367,57.5061532 0.00934416435,55.53796 0,53.39 L0,21.61 C0.0223495381,19.5234872 1.16947669,17.6116086 3,16.61 L30.93,0.8 Z" id="Path"></path>
                <path d="M39.06,22.81 C43.12,22.55 47.47,22.66 51.12,24.66 C53.9000168,26.3171882 55.5935081,29.323611 55.57,32.56 C55.4631568,32.969906 55.0708068,33.2385805 54.65,33.19 C53.47,33.19 52.29,33.19 51.11,33.19 C50.61,33.19 50.32,32.75 50.26,32.3 C49.9863831,30.7419616 49.0433576,29.3822504 47.68,28.58 C45.51,27.5 42.99,27.58 40.62,27.58 C38.8491062,27.5224726 37.0971238,27.958737 35.56,28.84 C34.4713308,29.679583 34.0406014,31.1207152 34.49,32.42 C34.87,33.32 35.91,33.61 36.76,33.88 C41.66,35.16 46.84,35.03 51.65,36.72 C53.7385335,37.2992806 55.4409322,38.8133445 56.26,40.82 C57.2380728,43.6789296 56.6791565,46.8398278 54.78,49.19 C53.0846447,50.948992 50.881993,52.1342284 48.48,52.58 C45.3616911,53.2171895 42.1624407,53.3589285 39,53 C36,52.67 32.94,51.88 30.65,49.86 C28.7065224,48.0832537 27.6608272,45.5295558 27.8,42.9 C27.8571386,42.4721156 28.2398023,42.1642253 28.67,42.2 C29.86,42.2 31.05,42.2 32.23,42.2 C32.4526275,42.1918496 32.668989,42.2746305 32.8293198,42.4293026 C32.9896506,42.5839747 33.0801491,42.7972234 33.08,43.02 C33.1965648,44.5047713 33.9200715,45.8758165 35.08,46.81 C37.49,48.36 40.52,48.26 43.28,48.3 C45.57,48.2 48.14,48.17 50.01,46.66 C50.9459697,45.7357705 51.3259389,44.3868799 51.01,43.11 C50.72,42.11 49.62,41.57 48.68,41.25 C43.85,39.72 38.6,40.25 33.82,38.55 C31.7833611,37.9521369 30.1123218,36.4895204 29.25,34.55 C28.1189782,31.6416996 28.7523612,28.3426683 30.88,26.06 C33.01,23.91 36.1,23.06 39.04,22.78 L39.06,22.81 Z" id="Path"></path>
            </g>
        </g>
    </g>
</svg>