<?xml version="1.0" encoding="UTF-8"?>
<svg width="100px" height="53px" viewBox="0 0 100 53" version="1.1" xmlns="http://www.w3.org/2000/svg" xmlns:xlink="http://www.w3.org/1999/xlink">
    <!-- Generator: sketchtool 59 (101010) - https://sketch.com -->
    <title>54C9A0A1-2FA5-41CE-9B6E-CB0F0EA2F90B</title>
    <desc>Created with sketchtool.</desc>
    <g id="Page-1" stroke="none" stroke-width="1" fill="none" fill-rule="evenodd">
        <g id="Icons" transform="translate(-381.000000, -3948.000000)">
            <g id="mid-icon-php-colour" transform="translate(381.000000, 3948.000000)">
                <path d="M50,0.47 C22.38,0.47 0,12.13 0,26.47 C0,40.81 22.38,52.47 50,52.47 C77.62,52.47 100,40.81 100,26.47 C100,12.13 77.61,0.47 50,0.47 Z M28.08,34.72 L21.92,34.72 L20.55,41.91 L14,41.91 L19.48,14.17 L32.19,14.17 C37.67,14.51 40.41,17.25 40.41,22.05 C40.41,30.27 33.9,35.06 28.08,34.72 Z M53.86,19.31 L48.72,19.31 L45.64,34.72 L39.13,34.72 L44.61,7 L51.12,7 L49.75,14.19 L55.92,14.19 C61.4,14.53 63.45,17.27 62.77,20.7 L60.37,34.7 L53.52,34.7 L55.92,22.03 C56.26,20.34 56.26,19.31 53.86,19.31 Z M74,34.72 L67.81,34.72 L66.44,41.91 L59.93,41.91 L65.41,14.17 L78.08,14.17 C83.56,14.51 86.3,17.25 86.3,22.05 C86.3,30.27 79.79,35.06 74,34.72 Z" id="Shape" fill="#8993BE"></path>
                <path d="M28.08,34.72 L21.92,34.72 L20.55,41.91 L14,41.91 L19.48,14.17 L32.19,14.17 C37.67,14.51 40.41,17.25 40.41,22.05 C40.41,30.27 33.9,35.06 28.08,34.72 Z" id="Path" fill="#232531"></path>
                <path d="M53.86,19.31 L48.72,19.31 L45.64,34.72 L39.13,34.72 L44.61,7 L51.12,7 L49.75,14.19 L55.92,14.19 C61.4,14.53 63.45,17.27 62.77,20.7 L60.37,34.7 L53.52,34.7 L55.92,22.03 C56.26,20.34 56.26,19.31 53.86,19.31 Z" id="Path" fill="#232531"></path>
                <path d="M74,34.72 L67.81,34.72 L66.44,41.91 L59.93,41.91 L65.41,14.17 L78.08,14.17 C83.56,14.51 86.3,17.25 86.3,22.05 C86.3,30.27 79.79,35.06 74,34.72 Z" id="Path" fill="#232531"></path>
                <path d="M75.34,19.31 L70.89,19.31 L69.18,29.58 L73.29,29.58 C76.37,29.24 79.11,28.21 79.45,22.39 C79.45,20.34 77.74,19.31 75.34,19.31 Z" id="Path" fill="#8993BE"></path>
                <path d="M29.45,19.31 L25,19.31 L23.29,29.58 L27.39,29.58 C30.48,29.24 33.22,28.21 33.56,22.39 C33.56,20.34 31.85,19.31 29.45,19.31 Z" id="Path" fill="#8993BE"></path>
            </g>
        </g>
    </g>
</svg>