<?xml version="1.0" encoding="UTF-8"?>
<svg width="86px" height="75px" viewBox="0 0 86 75" version="1.1" xmlns="http://www.w3.org/2000/svg" xmlns:xlink="http://www.w3.org/1999/xlink">
    <!-- Generator: sketchtool 59 (101010) - https://sketch.com -->
    <title>210C1251-E8B0-4662-8C64-D7CEC1C7AD0B</title>
    <desc>Created with sketchtool.</desc>
    <g id="Page-1" stroke="none" stroke-width="1" fill="none" fill-rule="evenodd">
        <g id="Icons" transform="translate(-832.000000, -4821.000000)" fill="#A8C5DD" fill-rule="nonzero">
            <g id="mid-icon-reactjs-grey" transform="translate(832.000000, 4820.000000)">
                <path d="M70.16,25.31 L70.16,25.31 C69.26,25 68.36,24.72 67.45,24.45 C67.6,23.84 67.74,23.22 67.87,22.6 C69.87,12.6 68.58,4.6 63.99,1.95 C59.59,-0.58 52.4,2.06 45.14,8.38 C44.42,9 43.72,9.65 43,10.31 C42.54,9.87 42.08,9.44 41.6,9.02 C34,2.26 26.4,-0.59 21.82,2.06 C17.42,4.61 16.12,12.16 17.97,21.61 C18.16,22.55 18.36,23.48 18.6,24.4 C17.52,24.71 16.47,25.03 15.48,25.4 C6.55,28.51 0.85,33.4 0.85,38.45 C0.85,43.67 6.97,48.91 16.27,52.09 C17.02,52.35 17.78,52.58 18.55,52.8 C18.3,53.8 18.08,54.8 17.88,55.8 C16.12,65.09 17.5,72.46 21.88,74.99 C26.26,77.52 34,74.91 41.4,68.44 C41.98,67.93 42.57,67.44 43.16,66.82 C43.9,67.53 44.66,68.23 45.43,68.9 C52.6,75.06 59.67,77.55 64.05,75 C68.43,72.45 70.05,64.46 68.13,54.82 C67.99,54.09 67.82,53.34 67.63,52.57 C68.16,52.41 68.69,52.25 69.2,52.08 C78.86,48.88 85.2,43.7 85.2,38.41 C85.15,33.35 79.27,28.44 70.16,25.31 Z M47.5,11.1 C53.73,5.68 59.5,3.55 62.19,5.1 L62.19,5.1 C65.02,6.73 66.11,13.3 64.34,21.91 C64.22,22.47 64.1,23.03 63.96,23.58 C60.2463885,22.7403933 56.4816074,22.1457784 52.69,21.8 C50.5169244,18.6789747 48.134798,15.708834 45.56,12.91 C46.2,12.27 46.84,11.68 47.5,11.1 Z M25.74,42.75 C26.5,44.22 27.3,45.68 28.13,47.11 C28.96,48.54 29.86,50.02 30.78,51.44 C28.1672631,51.154676 25.5706172,50.7374771 23,50.19 C23.75,47.79 24.67,45.29 25.74,42.75 Z M25.74,34.28 C24.69,31.79 23.74,29.35 23.06,26.99 C25.46,26.45 28.06,25.99 30.7,25.67 C29.81,27.07 28.94,28.49 28.12,29.92 C27.3,31.35 26.5,32.81 25.74,34.28 Z M27.65,38.52 C28.7566667,36.2066667 29.9533333,33.94 31.24,31.72 L31.24,31.72 C32.52,29.5 33.88,27.33 35.32,25.21 C37.83,25.02 40.4,24.92 43,24.92 C45.6,24.92 48.18,25.02 50.69,25.22 C52.1166667,27.3266667 53.47,29.4866667 54.75,31.7 C56.03,33.9133333 57.2433333,36.1666667 58.39,38.46 C57.2633333,40.78 56.0533333,43.0566667 54.76,45.29 L54.76,45.29 C53.4933333,47.51 52.16,49.6833333 50.76,51.81 C48.26,51.99 45.67,52.08 43.04,52.08 C40.41,52.08 37.87,52 35.41,51.84 C33.95,49.72 32.5766667,47.5433333 31.29,45.31 C30,43.09 28.76,40.82 27.65,38.52 Z M57.88,47.09 C58.7333333,45.6166667 59.55,44.1266667 60.33,42.62 L60.33,42.62 C61.3954506,45.0314167 62.3399574,47.4944769 63.16,50 C60.71,50.55 58.08,51 55.3,51.34 C56.1933333,49.9466667 57.0533333,48.53 57.88,47.09 Z M60.29,34.28 C59.51,32.8 58.71,31.34 57.87,29.9 L57.87,29.9 C57.04,28.47 56.19,27.07 55.31,25.68 C58,26 60.57,26.47 63,27 C62.2257105,29.4727694 61.3211125,31.9028336 60.29,34.28 L60.29,34.28 Z M43,15.45 C44.66,17.25 46.32,19.26 48,21.45 C44.68,21.3 41.36,21.29 38,21.45 C39.68,19.28 41.35,17.27 43,15.45 Z M23.62,5.18 C26.44,3.55 32.68,5.88 39.25,11.71 L40.52,12.88 C37.9300485,15.681654 35.5281447,18.6514629 33.33,21.77 C29.5493319,22.1037246 25.7946121,22.6849712 22.09,23.51 C21.87,22.65 21.68,21.79 21.51,20.92 L21.51,20.92 C19.92,12.82 21,6.71 23.62,5.18 Z M19.51,49.31 C18.81,49.11 18.12,48.9 17.43,48.66 C13.8607251,47.5380688 10.5285147,45.7685736 7.6,43.44 C5.51,41.65 4.45,39.87 4.45,38.44 C4.45,35.37 9.03,31.44 16.66,28.79 C17.66,28.46 18.59,28.16 19.56,27.88 C20.6965049,31.5157532 22.0694313,35.0733362 23.67,38.53 C22.0504046,42.0290542 20.6607875,45.6300329 19.51,49.31 L19.51,49.31 Z M39,65.73 C36.2431523,68.2632385 33.0430379,70.2666999 29.56,71.64 L29.56,71.64 C26.96,72.55 24.9,72.58 23.65,71.86 C20.99,70.33 19.88,64.4 21.39,56.46 C21.57,55.53 21.78,54.59 22.01,53.67 C25.765212,54.4736061 29.5706155,55.0215307 33.4,55.31 C35.611485,58.4452182 38.0266931,61.4316579 40.63,64.25 C40.11,64.76 39.57,65.25 39,65.73 Z M43.11,61.66 C41.4,59.82 39.7,57.78 38.04,55.59 C39.65,55.65 41.3,55.68 42.97,55.68 C44.64,55.68 46.39,55.68 48.06,55.57 C46.5242471,57.6820522 44.8821284,59.7146748 43.14,61.66 L43.11,61.66 Z M64.98,66.66 C64.48,69.37 63.47,71.17 62.22,71.89 C59.56,73.43 53.88,71.43 47.75,66.16 C47.05,65.55 46.34,64.91 45.63,64.23 C48.1881568,61.3939019 50.5502839,58.3869509 52.7,55.23 C56.552014,54.9182336 60.3778257,54.3401852 64.15,53.5 C64.3166667,54.2 64.4666667,54.8666667 64.6,55.5 L64.6,55.5 C65.423471,59.1664916 65.5591024,62.9539982 65,66.67 L64.98,66.66 Z M67.98,48.66 L67.98,48.66 C67.52,48.82 67.05,48.96 66.57,49.11 C65.3891813,45.4577658 63.9625896,41.8896161 62.3,38.43 C63.9019213,35.0161994 65.2716984,31.4982109 66.4,27.9 C67.26,28.15 68.1,28.42 68.91,28.69 C76.71,31.38 81.47,35.35 81.47,38.41 C81.55,41.69 76.41,45.92 68.06,48.68 L67.98,48.66 Z" id="Shape"></path>
                <path d="M43,30.9 C47.1587042,30.9 50.53,34.2712958 50.53,38.43 C50.53,42.5887042 47.1587042,45.96 43,45.96 C38.8412958,45.96 35.47,42.5887042 35.47,38.43 C35.47,34.2712958 38.8412958,30.9 43,30.9" id="Path"></path>
            </g>
        </g>
    </g>
</svg>