<?xml version="1.0" encoding="UTF-8"?>
<svg width="76px" height="75px" viewBox="0 0 76 75" version="1.1" xmlns="http://www.w3.org/2000/svg" xmlns:xlink="http://www.w3.org/1999/xlink">
    <!-- Generator: sketchtool 59 (101010) - https://sketch.com -->
    <title>A2627E35-8B61-4DD0-BB6D-7751BF3322EB</title>
    <desc>Created with sketchtool.</desc>
    <g id="Page-1" stroke="none" stroke-width="1" fill="none" fill-rule="evenodd">
        <g id="Icons" transform="translate(-606.000000, -3721.000000)" fill="#474342" fill-rule="nonzero">
            <g id="mid-icon-wordpress-colour" transform="translate(606.000000, 3721.000000)">
                <path d="M59.72,35.88 C59.6767403,32.7301744 58.7555391,29.6548861 57.06,27 C55.43,24.35 53.9,22.11 53.9,19.46 C53.8271316,16.3931257 56.2436579,13.8425961 59.31,13.75 C59.45,13.75 59.58,13.75 59.72,13.75 C52.7780803,7.37442473 43.3880997,4.36623378 34.0337156,5.52109602 C24.6793314,6.67595826 16.3029022,11.8775331 11.12,19.75 C11.88,19.75 12.59,19.75 13.19,19.75 C16.56,19.75 21.76,19.34 21.76,19.34 C22.2548128,19.2971281 22.7349106,19.5214924 23.0194452,19.928577 C23.3039797,20.3356615 23.3497235,20.8636205 23.1394452,21.313577 C22.9291669,21.7635334 22.4948128,22.0671281 22,22.11 C22,22.11 20.26,22.31 18.32,22.42 L30,57.26 L37,36.15 L32,22.42 C30.27,22.31 28.63,22.11 28.63,22.11 C27.9227029,22.0258837 27.4072324,21.3994756 27.460837,20.6892141 C27.5144417,19.9789527 28.1180898,19.4370063 28.83,19.46 C28.83,19.46 34.14,19.87 37.3,19.87 C40.67,19.87 45.88,19.46 45.88,19.46 C46.5919102,19.4370063 47.1955583,19.9789527 47.249163,20.6892141 C47.3027676,21.3994756 46.7872971,22.0258837 46.08,22.11 C46.08,22.11 44.34,22.31 42.4,22.42 L54.06,57 L57.27,46.27 C58.66,41.83 59.72,38.63 59.72,35.88 Z" id="Path"></path>
                <path d="M5.83,37.5 C5.83533973,49.8355139 12.893847,61.0817322 24,66.45 L8.65,24.45 C6.81000252,28.5556719 5.84942101,33.0009161 5.83,37.5 L5.83,37.5 Z" id="Path"></path>
                <path d="M38.56,40.31 L28.91,68.36 C35.3905213,70.2666749 42.3064044,70.0882682 48.68,67.85 C48.5914797,67.70636 48.5145687,67.5558819 48.45,67.4 L38.56,40.31 Z" id="Path"></path>
                <path d="M66.23,22.06 C66.3744431,23.1573469 66.4446028,24.263197 66.44,25.37 C66.3850288,29.3355295 65.5561842,33.2521599 64,36.9 L54.17,65.31 C69.2404873,56.5392076 74.5875042,37.3635457 66.23,22.06 L66.23,22.06 Z" id="Path"></path>
                <path d="M38,0 C17.2893219,0 0.5,16.7893219 0.5,37.5 C0.5,58.2106781 17.2893219,75 38,75 C58.7106781,75 75.5,58.2106781 75.5,37.5 C75.4779536,16.7984607 58.7015393,0.0220463865 38,0 Z M38,73.28 C18.2392517,73.28 2.22,57.2607483 2.22,37.5 C2.22,17.7392517 18.2392517,1.72 38,1.72 C57.7607483,1.72 73.78,17.7392517 73.78,37.5 C73.7579558,57.2516101 57.7516101,73.2579558 38,73.28 Z" id="Shape"></path>
            </g>
        </g>
    </g>
</svg>