<?xml version="1.0" encoding="UTF-8"?>
<svg width="72px" height="75px" viewBox="0 0 72 75" version="1.1" xmlns="http://www.w3.org/2000/svg" xmlns:xlink="http://www.w3.org/1999/xlink">
    <!-- Generator: sketchtool 59 (101010) - https://sketch.com -->
    <title>2A655B44-C4F5-49F8-B6B5-BE35CDF141C7</title>
    <desc>Created with sketchtool.</desc>
    <defs>
        <linearGradient x1="48.2900232%" y1="3.28265306%" x2="48.2900232%" y2="103.020408%" id="linearGradient-1">
            <stop stop-color="#73B723" offset="0%"></stop>
            <stop stop-color="#D8EE61" offset="100%"></stop>
        </linearGradient>
        <linearGradient x1="61.290184%" y1="33.7146067%" x2="26.5891278%" y2="100.269101%" id="linearGradient-2">
            <stop stop-color="#98C9EA" offset="0%"></stop>
            <stop stop-color="#026FB2" offset="69%"></stop>
            <stop stop-color="#086EB6" offset="100%"></stop>
        </linearGradient>
        <linearGradient x1="-10.4300398%" y1="19.2826776%" x2="89.4075408%" y2="64.6469288%" id="linearGradient-3">
            <stop stop-color="#D73721" offset="0%"></stop>
            <stop stop-color="#F7D768" offset="100%"></stop>
        </linearGradient>
        <linearGradient x1="46.4409376%" y1="30.4644195%" x2="52.8944292%" y2="97.0074906%" id="linearGradient-4">
            <stop stop-color="#D4C883" offset="0%"></stop>
            <stop stop-color="#A1D1A7" offset="100%"></stop>
        </linearGradient>
    </defs>
    <g id="Page-1" stroke="none" stroke-width="1" fill="none" fill-rule="evenodd">
        <g id="Icons" transform="translate(-395.000000, -3721.000000)" fill-rule="nonzero">
            <g id="mid-icon-yii-colour" transform="translate(395.000000, 3721.000000)">
                <path d="M61.77,0 C66.87,2.6 71.25,9.42 71.03,18.68 C70.36,30.08 62.09,39.91 53.1,49 C52.59,38 50.19,30.92 46.44,21 C42.9,11 53.25,0.32 61.77,0 Z" id="Path" fill="url(#linearGradient-1)"></path>
                <path d="M34.17,48.58 C36.4943134,45.7410905 38.5059267,42.6599694 40.17,39.39 C49.45,44.24 47.26,43.39 51.74,48.51 C51.74,48.67 51.74,48.83 51.74,48.99 C52.11,56.16 46.88,72.73 26.29,74.99 C25,63.87 29.58,54.37 34.17,48.58 Z" id="Path" fill="url(#linearGradient-2)"></path>
                <path d="M1,6.92 C15.67,1.12 31.46,7.06 40.57,19.45 C41.45,20.65 42.29,21.9 43.08,23.18 C44.5,32.27 43.42,37.32 40.65,40 C38.7515852,39.0536815 36.7980712,38.2221858 34.8,37.51 C29.97,35.76 25.52,34.59 19.16,32.71 C4.09,28.59 0.37,15.63 1,6.92 Z" id="Path" fill="url(#linearGradient-3)"></path>
                <path d="M42.56,22.29 C42.66,22.44 42.75,22.59 42.84,22.74 L42.96,22.92 C43.2,23.3 43.43,23.68 43.65,24.07 L43.65,24.13 L43.71,24.24 L43.77,24.33 L43.93,24.61 L43.93,24.61 L44.15,25 L44.15,25 C44.31,25.28 44.47,25.56 44.62,25.85 L44.62,25.85 L44.79,26.17 L44.79,26.17 L44.98,26.53 L44.98,26.63 L45.09,26.84 L45.22,27.09 L45.34,27.33 L45.72,28.08 L45.72,28.14 C45.94,28.6 46.16,29.06 46.37,29.52 L46.53,29.87 L46.53,29.87 L46.63,30.09 L46.75,30.37 L46.82,30.52 L46.93,30.77 L47,30.95 L47.17,31.34 L47.17,31.34 L47.34,31.76 L47.34,31.81 L47.88,33.18 L47.88,33.18 L48.02,33.56 L48.02,33.56 L48.1,33.79 C48.2,34.04 48.29,34.29 48.38,34.54 L48.38,34.64 L48.68,35.49 L48.68,35.58 C48.77,35.84 48.85,36.11 48.94,36.37 L48.94,36.5 L48.94,36.5 L49.08,36.92 L49.08,36.92 L49.21,37.33 L49.33,37.76 L49.33,37.76 L49.43,38.12 L49.43,38.24 L49.49,38.46 L49.7,39.22 L49.7,39.41 L49.8,39.79 L49.8,39.79 C49.92,40.26 50.03,40.72 50.14,41.18 L50.14,41.28 C50.28,41.88 50.41,42.49 50.53,43.09 L50.53,43.15 C50.72,44.08 50.87,45.01 51,45.95 L51,45.95 C51,46.24 51.07,46.52 51.11,46.8 L51.11,46.93 L51.16,47.33 L51.16,47.33 L51.16,47.71 L51.16,47.83 L51.16,48.13 L51.16,48.3 L51.16,48.71 C48.0339613,44.7202917 44.002769,41.532359 39.4,39.41 C43.15,32 42.62,26.71 41.9,22.01" id="Path" fill="url(#linearGradient-4)"></path>
            </g>
        </g>
    </g>
</svg>