<?xml version="1.0" encoding="UTF-8"?>
<svg width="72px" height="76px" viewBox="0 0 72 76" version="1.1" xmlns="http://www.w3.org/2000/svg" xmlns:xlink="http://www.w3.org/1999/xlink">
    <!-- Generator: sketchtool 59 (101010) - https://sketch.com -->
    <title>9185C864-3378-4C4C-868E-3D3D123005C0</title>
    <desc>Created with sketchtool.</desc>
    <g id="Page-1" stroke="none" stroke-width="1" fill="none" fill-rule="evenodd">
        <g id="Icons" transform="translate(-395.000000, -4604.000000)" fill="#A8C5DD" fill-rule="nonzero">
            <g id="mid-icon-yii-grey" transform="translate(395.000000, 4604.000000)">
                <path d="M61.77,0.93 C53.25,1.25 42.9,11.93 46.44,21.93 C50.19,31.83 52.59,38.87 53.1,49.93 C62.1,40.93 70.36,31.05 71.03,19.64 C71.25,10.35 66.87,3.53 61.77,0.93 Z" id="Path"></path>
                <path d="M51.78,49.51 L51.78,49.51 L51.78,49.51 L51.78,49.51 L51.78,49.51 L51.78,49.41 L51.78,49.11 L51.78,48.99 L51.78,48.61 L51.78,48.61 L51.73,48.21 L51.73,48 C51.73,47.72 51.66,47.44 51.62,47.15 L51.62,47.15 C51.49,46.21 51.34,45.28 51.15,44.35 L51.15,44.29 C51.03,43.69 50.9,43.08 50.76,42.47 L50.76,42.38 C50.65,41.92 50.54,41.46 50.42,40.99 L50.42,40.99 L50.32,40.61 L50.32,40.42 L50.11,39.66 L50.05,39.44 L50.05,39.32 L49.95,38.96 L49.95,38.96 L49.83,38.54 L49.7,38.13 L49.7,38.13 L49.56,37.7 L49.56,37.7 L49.56,37.57 C49.47,37.31 49.39,37.04 49.3,36.78 L49.3,36.69 L49,35.84 L49,35.74 C48.91,35.49 48.82,35.24 48.72,34.99 L48.64,34.76 L48.64,34.76 L48.5,34.38 L48.5,34.38 L47.96,33.01 L47.96,32.96 L47.79,32.53 L47.79,32.53 L47.19,32 L47.12,31.82 L47,31.56 L46.93,31.4 L46.81,31.13 L46.71,30.9 L46.71,30.9 L46.55,30.55 C46.34,30.09 46.12,29.63 45.9,29.17 L45.9,29.11 L45.52,28.36 L45.4,28.11 L45.27,27.86 L45.16,27.66 L45.16,27.56 L44.97,27.2 L44.97,27.2 L44.8,26.89 L44.8,26.89 C44.65,26.6 44.49,26.32 44.33,26.04 L44.33,26.04 L44,25.56 L44,25.56 L43.84,25.28 L43.78,25.18 L43.72,25.08 L43.72,25.02 C43.55,24.72 43.37,24.43 43.19,24.14 L43.19,24.14 L43,24 L43,23.85 L42.88,23.67 C42.79,23.52 42.7,23.37 42.6,23.22 L42.6,23.22 C41.98,22.22 41.33,21.29 40.6,20.36 C31.5,8 15.71,2.05 1,7.85 C0.33,16.56 4.05,29.52 19.16,33.64 C25.52,35.52 29.97,36.64 34.8,38.44 C36.64,39.11 38.37,39.84 40.01,40.63 C38.362928,43.7825914 36.3923193,46.7552613 34.13,49.5 C29.54,55.3 24.91,64.79 26.33,75.93 C46.92,73.66 52.15,57.09 51.78,49.93 L51.78,49.51 Z" id="Path"></path>
            </g>
        </g>
    </g>
</svg>