<?xml version="1.0" encoding="UTF-8"?>
<svg width="202px" height="137px" viewBox="0 0 202 137" version="1.1" xmlns="http://www.w3.org/2000/svg" xmlns:xlink="http://www.w3.org/1999/xlink">
    <!-- Generator: Sketch 58 (84663) - https://sketch.com -->
    <title>UX Design &amp; Architecture</title>
    <desc>Created with Sketch.</desc>
    <g id="UX-Design-&amp;-Architecture" stroke="none" stroke-width="1" fill="none" fill-rule="evenodd">
        <g id="Group-80-Copy" transform="translate(1.000000, 1.000000)">
            <path d="M101.6143,115.918 L101.6143,131.022" id="Stroke-220" stroke="#A8C5DD" stroke-width="1.417" stroke-linecap="round"></path>
            <path d="M97.6143,115.918 L97.6143,131.022" id="Stroke-221" stroke="#A8C5DD" stroke-width="1.417" stroke-linecap="round"></path>
            <path d="M80.126,135 L96.017,0" id="Stroke-222" stroke="#A8C5DD" stroke-width="1.417" stroke-linecap="round"></path>
            <path d="M75.126,135 L93.017,0" id="Stroke-223" stroke="#A8C5DD" stroke-width="1.417" stroke-linecap="round"></path>
            <path d="M104.1148,0 L120.0058,135" id="Stroke-224" stroke="#A8C5DD" stroke-width="1.417" stroke-linecap="round"></path>
            <path d="M107.1148,0 L125.0058,135" id="Stroke-225" stroke="#A8C5DD" stroke-width="1.417" stroke-linecap="round"></path>
            <polygon id="Fill-226" fill="#FFFFFF" points="0 114.9679 200 114.9679 200 5.6569 0 5.6569"></polygon>
            <polygon id="Stroke-227" stroke="#A8C5DD" stroke-width="1.417" stroke-linecap="round" points="0 114.9679 200 114.9679 200 5.6569 0 5.6569"></polygon>
            <path d="M200.0001,109.4454 L0.0001,109.4454" id="Stroke-228" stroke="#A8C5DD" stroke-width="1.417" stroke-linecap="round"></path>
            <path d="M39.8419,14.1631 C39.8419,14.1631 40.1419,74.4721 33.2369,98.9531 C33.2369,98.9531 100.2839,101.6411 109.8909,98.9531 C109.8909,98.9531 103.5869,84.9211 101.7849,14.1631 C101.7849,14.1631 43.4449,15.0591 39.8419,14.1631 Z" id="Stroke-229" stroke="#032663" stroke-width="1.417" stroke-linecap="round"></path>
            <path d="M44.8443,26.3086 L44.8443,35.5636 C44.8443,40.3406 44.5443,47.5056 44.8443,48.9986 C45.1443,50.4926 71.8643,48.7006 78.1693,48.9986 C84.4733,49.2976 98.2843,49.5956 98.2843,49.5956 C98.2843,49.5956 97.9843,27.8016 97.0833,26.0096 L44.8443,26.3086 Z" id="Stroke-230" stroke="#032663" stroke-width="1.417" stroke-linecap="round"></path>
            <path d="M44.8443,26.0098 C44.8443,26.0098 77.2683,39.4458 98.2843,49.5958" id="Stroke-231" stroke="#032663" stroke-width="1.417" stroke-linecap="round"></path>
            <path d="M44.8443,48.9991 C44.8443,48.9991 89.2773,31.9811 97.0833,25.4131" id="Stroke-232" stroke="#032663" stroke-width="1.417" stroke-linecap="round"></path>
            <path d="M43.6431,70.3077 C43.6431,70.3077 43.9431,79.8617 42.4421,85.5347 L59.8551,85.5347 C59.8551,85.5347 60.4551,76.2787 59.2551,70.3077 L44.8441,70.3077 L43.6431,70.3077 Z" id="Stroke-233" stroke="#032663" stroke-width="1.417" stroke-linecap="round"></path>
            <path d="M63.1578,70.3077 C63.1578,70.3077 62.8578,81.6527 63.1578,85.5347 C63.1578,85.5347 79.0698,86.7287 81.1718,85.5347 C81.1718,85.5347 79.9698,71.2037 80.2708,70.3077 L63.1578,70.3077 Z" id="Stroke-234" stroke="#032663" stroke-width="1.417" stroke-linecap="round"></path>
            <path d="M84.5294,85.6036 L84.4734,70.3076 L99.1844,70.3076 C100.9864,70.3076 100.9864,84.9366 100.6864,85.5346 C100.3854,86.1306 94.6814,85.5346 94.6814,85.5346 L84.5294,85.6036 Z" id="Stroke-235" stroke="#032663" stroke-width="1.417" stroke-linecap="round"></path>
            <g id="Group-238" transform="translate(55.047000, 63.427900)">
                <path d="M0.9052,0.7108 C21.0702,0.1118 18.8202,0.7108 29.1262,0.7108" id="Fill-236" fill="#FFFFFF"></path>
                <path d="M0.9052,0.7108 C21.0702,0.1118 18.8202,0.7108 29.1262,0.7108" id="Stroke-237" stroke="#2969F6" stroke-width="1.4" stroke-linecap="round"></path>
            </g>
            <g id="Group-241" transform="translate(52.047000, 58.427900)">
                <path d="M0.0024,0.4266 C18.0164,0.7426 26.4724,0.9386 35.4294,0.4266" id="Fill-239" fill="#FFFFFF"></path>
                <path d="M0.0024,0.4266 C18.0164,0.7426 26.4724,0.9386 35.4294,0.4266" id="Stroke-240" stroke="#2969F6" stroke-width="1.4" stroke-linecap="round"></path>
            </g>
            <g id="Group-244" transform="translate(58.047000, 53.427900)">
                <path d="M23.7245,1.4413 L0.0065,1.4413" id="Fill-242" fill="#FFFFFF"></path>
                <path d="M23.7245,1.4413 L0.0065,1.4413" id="Stroke-243" stroke="#2969F6" stroke-width="1.4" stroke-linecap="round"></path>
            </g>
            <path d="M71.564,19.045 L73.867,19.045" id="Stroke-245" stroke="#032663" stroke-width="1.417" stroke-linecap="round"></path>
            <path d="M77.3677,19.045 L79.6697,19.045" id="Stroke-246" stroke="#032663" stroke-width="1.417" stroke-linecap="round"></path>
            <path d="M82.7715,19.045 L85.0745,19.045" id="Stroke-247" stroke="#032663" stroke-width="1.417" stroke-linecap="round"></path>
            <path d="M87.5753,19.045 L90.1783,19.045" id="Stroke-248" stroke="#032663" stroke-width="1.417" stroke-linecap="round"></path>
            <path d="M92.9796,19.045 L94.9816,19.045" id="Stroke-249" stroke="#032663" stroke-width="1.417" stroke-linecap="round"></path>
            <g id="Group-252" transform="translate(9.047000, 58.427900)">
                <path d="M0.0478,1.1835 L6.0528,1.1835" id="Fill-250" fill="#FFFFFF"></path>
                <path d="M0.0478,1.1835 L6.0528,1.1835" id="Stroke-251" stroke="#2969F6" stroke-width="1.4" stroke-linecap="round"></path>
            </g>
            <g id="Group-255" transform="translate(7.047000, 61.427900)">
                <path d="M0.2465,0.871 L10.7595,1.468" id="Fill-253" fill="#FFFFFF"></path>
                <path d="M0.2465,0.871 L10.7595,1.468" id="Stroke-254" stroke="#2969F6" stroke-width="1.4" stroke-linecap="round"></path>
            </g>
            <g id="Group-258" transform="translate(9.047000, 64.427900)">
                <path d="M6.9531,1.1552 L0.0481,1.1552" id="Fill-256" fill="#FFFFFF"></path>
                <path d="M6.9531,1.1552 L0.0481,1.1552" id="Stroke-257" stroke="#2969F6" stroke-width="1.4" stroke-linecap="round"></path>
            </g>
            <polygon id="Stroke-259" stroke="#032663" stroke-width="1.417" stroke-linecap="round" points="45.444 21.7319 58.053 21.7319 58.053 18.1489 45.444 18.1489"></polygon>
            <path d="M12.2237,54.17 C12.2237,54.17 16.6277,34.764 31.6387,35.063" id="Stroke-260" stroke="#2969F6" stroke-width="1.4" stroke-linecap="round"></path>
            <polyline id="Stroke-261" stroke="#2969F6" stroke-width="1.4" stroke-linecap="round" points="28.4356 32.6739 32.9386 35.0629 30.2366 38.6449"></polyline>
            <path d="M151.7388,96.5577 L146.6048,99.2457 L146.4598,93.6837 L158.5288,74.6147 C158.5288,74.6147 163.2808,72.7267 163.9178,77.8627 L151.7388,96.5577 Z" id="Fill-262" fill="#FFFFFF"></path>
            <path d="M151.7388,96.5577 L146.6048,99.2457 L146.4598,93.6837 L158.5288,74.6147 C158.5288,74.6147 163.2808,72.7267 163.9178,77.8627 L151.7388,96.5577 Z" id="Stroke-263" stroke="#2969F6" stroke-width="1.4" stroke-linecap="round"></path>
            <path d="M151.7388,96.5577 L163.9178,77.8627" id="Stroke-264" stroke="#2969F6" stroke-width="1.4" stroke-linecap="round"></path>
            <path d="M158.2271,75.0782 L146.4591,93.6832" id="Stroke-265" stroke="#2969F6" stroke-width="1.4" stroke-linecap="round"></path>
            <path d="M150.2291,93.2627 L162.2121,74.7087" id="Stroke-266" stroke="#2969F6" stroke-width="1.4" stroke-linecap="round"></path>
            <polyline id="Stroke-267" stroke="#2969F6" stroke-width="1.4" stroke-linecap="round" points="146.4595 93.6836 150.2295 93.2626 151.7385 96.5576"></polyline>
            <path d="M158.5284,74.6143 C159.0744,73.7693 160.7244,73.8123 162.2124,74.7093 C163.7004,75.6063 164.4644,77.0173 163.9184,77.8623" id="Stroke-268" stroke="#2969F6" stroke-width="1.4" stroke-linecap="round"></path>
            <path d="M143.6519,99.5235 L118.5449,99.1975 C118.5449,99.1975 121.4459,79.7765 121.5579,14.4595 L182.3119,14.4595 C182.3119,14.4595 182.3249,64.7065 188.0479,96.5575" id="Stroke-269" stroke="#032663" stroke-width="1.417" stroke-linecap="round"></path>
        </g>
    </g>
</svg>