<?xml version="1.0" encoding="UTF-8"?>
<svg width="202px" height="137px" viewBox="0 0 202 137" version="1.1" xmlns="http://www.w3.org/2000/svg" xmlns:xlink="http://www.w3.org/1999/xlink">
    <!-- Generator: Sketch 58 (84663) - https://sketch.com -->
    <title>Digital Marketing</title>
    <desc>Created with Sketch.</desc>
    <g id="Digital-Marketing" stroke="none" stroke-width="1" fill="none" fill-rule="evenodd">
        <g id="Group-90-Copy" transform="translate(1.000000, 1.000000)">
            <path d="M195.767,135 L4.034,135 C1.254,135 -2.84217094e-13,133.761 -2.84217094e-13,130.997 L-2.84217094e-13,4.003 C-2.84217094e-13,1.24 1.254,0 4.034,0 L195.767,0 C198.547,0 199.801,1.24 199.801,4.003 L199.801,130.997 C199.801,133.761 198.547,135 195.767,135 Z" id="Stroke-270" stroke="#A8C5DD" stroke-width="1.417" stroke-linecap="round"></path>
            <path d="M0.8012,22.5 L198.6022,22.5" id="Stroke-271" stroke="#A8C5DD" stroke-width="1.417" stroke-linecap="round"></path>
            <path d="M0.8012,45 L198.6022,45" id="Stroke-272" stroke="#A8C5DD" stroke-width="1.417" stroke-linecap="round"></path>
            <path d="M0.8012,67.5 L198.6022,67.5" id="Stroke-273" stroke="#A8C5DD" stroke-width="1.417" stroke-linecap="round"></path>
            <path d="M0.8012,90 L198.6022,90" id="Stroke-274" stroke="#A8C5DD" stroke-width="1.417" stroke-linecap="round"></path>
            <path d="M0.8012,112.5 L198.6022,112.5" id="Stroke-275" stroke="#A8C5DD" stroke-width="1.417" stroke-linecap="round"></path>
            <g id="Group-278" transform="translate(25.557100, 44.003100)">
                <path d="M1.3491,66.1834 C1.3491,66.1834 -6.3339,0.9964 37.3091,0.9964" id="Fill-276" fill="#FFFFFF"></path>
                <path d="M1.3491,66.1834 C1.3491,66.1834 -6.3339,0.9964 37.3091,0.9964" id="Stroke-277" stroke="#032663" stroke-width="1.417" stroke-linecap="round"></path>
            </g>
            <g id="Group-281" transform="translate(62.557100, 44.003100)">
                <path d="M0.3095,0.9969 C0.3095,0.9969 27.2795,-3.1321 36.2695,24.5689" id="Fill-279" fill="#FFFFFF"></path>
                <path d="M0.3095,0.9969 C0.3095,0.9969 27.2795,-3.1321 36.2695,24.5689" id="Stroke-280" stroke="#032663" stroke-width="1.417" stroke-linecap="round"></path>
            </g>
            <g id="Group-284" transform="translate(98.557100, 67.003100)">
                <path d="M0.27,0.4969 C0.27,0.4969 2.324,46.2259 36.23,46.2259" id="Fill-282" fill="#FFFFFF"></path>
                <path d="M0.27,0.4969 C0.27,0.4969 2.324,46.2259 36.23,46.2259" id="Stroke-283" stroke="#032663" stroke-width="1.417" stroke-linecap="round"></path>
            </g>
            <g id="Group-287" transform="translate(134.557100, 23.003100)">
                <path d="M36.1904,0.159 C36.1904,0.159 40.7124,90.225 0.2304,90.225" id="Fill-285" fill="#FFFFFF"></path>
                <path d="M36.1904,0.159 C36.1904,0.159 40.7124,90.225 0.2304,90.225" id="Stroke-286" stroke="#032663" stroke-width="1.417" stroke-linecap="round"></path>
            </g>
            <path d="M34.4062,111.916 C34.4062,116.058 31.0492,119.416 26.9062,119.416 C22.7632,119.416 19.4062,116.058 19.4062,111.916 C19.4062,107.774 22.7632,104.416 26.9062,104.416 C31.0492,104.416 34.4062,107.774 34.4062,111.916" id="Fill-288" fill="#FFFFFF"></path>
            <path d="M34.4062,111.916 C34.4062,116.058 31.0492,119.416 26.9062,119.416 C22.7632,119.416 19.4062,116.058 19.4062,111.916 C19.4062,107.774 22.7632,104.416 26.9062,104.416 C31.0492,104.416 34.4062,107.774 34.4062,111.916 Z" id="Stroke-289" stroke="#2969F6" stroke-width="1.4" stroke-linecap="round"></path>
            <path d="M70.3666,44.7822 C70.3666,48.9252 67.0096,52.2822 62.8666,52.2822 C58.7236,52.2822 55.3666,48.9252 55.3666,44.7822 C55.3666,40.6402 58.7236,37.2822 62.8666,37.2822 C67.0096,37.2822 70.3666,40.6402 70.3666,44.7822" id="Fill-290" fill="#FFFFFF"></path>
            <path d="M70.3666,44.7822 C70.3666,48.9252 67.0096,52.2822 62.8666,52.2822 C58.7236,52.2822 55.3666,48.9252 55.3666,44.7822 C55.3666,40.6402 58.7236,37.2822 62.8666,37.2822 C67.0096,37.2822 70.3666,40.6402 70.3666,44.7822 Z" id="Stroke-291" stroke="#2969F6" stroke-width="1.4" stroke-linecap="round"></path>
            <path d="M106.3271,67.8867 C106.3271,72.0287 102.9701,75.3867 98.8271,75.3867 C94.6841,75.3867 91.3271,72.0287 91.3271,67.8867 C91.3271,63.7447 94.6841,60.3867 98.8271,60.3867 C102.9701,60.3867 106.3271,63.7447 106.3271,67.8867" id="Fill-292" fill="#FFFFFF"></path>
            <path d="M106.3271,67.8867 C106.3271,72.0287 102.9701,75.3867 98.8271,75.3867 C94.6841,75.3867 91.3271,72.0287 91.3271,67.8867 C91.3271,63.7447 94.6841,60.3867 98.8271,60.3867 C102.9701,60.3867 106.3271,63.7447 106.3271,67.8867 Z" id="Stroke-293" stroke="#2969F6" stroke-width="1.4" stroke-linecap="round"></path>
            <path d="M142.287,111.916 C142.287,116.058 138.93,119.416 134.787,119.416 C130.644,119.416 127.287,116.058 127.287,111.916 C127.287,107.774 130.644,104.416 134.787,104.416 C138.93,104.416 142.287,107.774 142.287,111.916" id="Fill-294" fill="#FFFFFF"></path>
            <path d="M142.287,111.916 C142.287,116.058 138.93,119.416 134.787,119.416 C130.644,119.416 127.287,116.058 127.287,111.916 C127.287,107.774 130.644,104.416 134.787,104.416 C138.93,104.416 142.287,107.774 142.287,111.916 Z" id="Stroke-295" stroke="#2969F6" stroke-width="1.4" stroke-linecap="round"></path>
            <path d="M178.2475,22.5 C178.2475,26.643 174.8905,30 170.7475,30 C166.6045,30 163.2475,26.643 163.2475,22.5 C163.2475,18.358 166.6045,15 170.7475,15 C174.8905,15 178.2475,18.358 178.2475,22.5" id="Fill-296" fill="#FFFFFF"></path>
            <path d="M178.2475,22.5 C178.2475,26.643 174.8905,30 170.7475,30 C166.6045,30 163.2475,26.643 163.2475,22.5 C163.2475,18.358 166.6045,15 170.7475,15 C174.8905,15 178.2475,18.358 178.2475,22.5 Z" id="Stroke-297" stroke="#2969F6" stroke-width="1.4" stroke-linecap="round"></path>
            <g id="Group-300" transform="translate(23.557100, 110.003100)">
                <polyline id="Fill-298" fill="#FFFFFF" points="0.7026 0.9129 3.2416 3.4519 5.9016 0.7919"></polyline>
                <polyline id="Stroke-299" stroke="#2969F6" stroke-width="1.4" stroke-linecap="round" points="0.7026 0.9129 3.2416 3.4519 5.9016 0.7919"></polyline>
            </g>
            <g id="Group-303" transform="translate(59.557100, 43.003100)">
                <polyline id="Fill-301" fill="#FFFFFF" points="5.9091 2.9881 3.3701 0.4491 0.7101 3.1091"></polyline>
                <polyline id="Stroke-302" stroke="#2969F6" stroke-width="1.4" stroke-linecap="round" points="5.9091 2.9881 3.3701 0.4491 0.7101 3.1091"></polyline>
            </g>
            <g id="Group-306" transform="translate(167.557100, 21.003100)">
                <polyline id="Fill-304" fill="#FFFFFF" points="5.79 2.7059 3.251 0.1669 0.591 2.8269"></polyline>
                <polyline id="Stroke-305" stroke="#2969F6" stroke-width="1.4" stroke-linecap="round" points="5.79 2.7059 3.251 0.1669 0.591 2.8269"></polyline>
            </g>
            <polyline id="Stroke-307" stroke="#032663" stroke-width="1.417" stroke-linecap="round" points="96.2274 67.3642 98.7664 69.9022 101.4264 67.2422"></polyline>
            <g id="Group-310" transform="translate(132.557100, 111.003100)">
                <path d="M0.2348,0.9129 L4.2258,0.9129" id="Fill-308" fill="#FFFFFF"></path>
                <path d="M0.2348,0.9129 L4.2258,0.9129" id="Stroke-309" stroke="#2969F6" stroke-width="1.4" stroke-linecap="round"></path>
            </g>
            <path d="M22.8573,128.1699 L30.7843,128.1699" id="Stroke-311" stroke="#032663" stroke-width="1.417" stroke-linecap="round"></path>
            <path d="M58.9027,128.1699 L66.8297,128.1699" id="Stroke-312" stroke="#032663" stroke-width="1.417" stroke-linecap="round"></path>
            <path d="M94.8632,128.1699 L102.7902,128.1699" id="Stroke-313" stroke="#032663" stroke-width="1.417" stroke-linecap="round"></path>
            <path d="M130.8236,128.1699 L138.7506,128.1699" id="Stroke-314" stroke="#032663" stroke-width="1.417" stroke-linecap="round"></path>
            <path d="M166.7841,128.1699 L174.7111,128.1699" id="Stroke-315" stroke="#032663" stroke-width="1.417" stroke-linecap="round"></path>
        </g>
    </g>
</svg>