<?xml version="1.0" encoding="UTF-8"?>
<svg width="202px" height="137px" viewBox="0 0 202 137" version="1.1" xmlns="http://www.w3.org/2000/svg" xmlns:xlink="http://www.w3.org/1999/xlink">
    <!-- Generator: Sketch 58 (84663) - https://sketch.com -->
    <title>Software Development</title>
    <desc>Created with Sketch.</desc>
    <g id="Software-Development" stroke="none" stroke-width="1" fill="none" fill-rule="evenodd">
        <g id="Group-93-Copy" transform="translate(1.000000, 1.000000)">
            <path d="M84.889,65.596 L3,65.596 C1.344,65.596 -3.97903932e-13,64.252 -3.97903932e-13,62.596 L-3.97903932e-13,3 C-3.97903932e-13,1.343 1.344,-2.27373675e-13 3,-2.27373675e-13 L84.889,-2.27373675e-13 C86.546,-2.27373675e-13 87.889,1.343 87.889,3 L87.889,62.596 C87.889,64.252 86.546,65.596 84.889,65.596" id="Fill-316" fill="#FFFFFF"></path>
            <path d="M84.889,65.596 L3,65.596 C1.344,65.596 -3.97903932e-13,64.252 -3.97903932e-13,62.596 L-3.97903932e-13,3 C-3.97903932e-13,1.343 1.344,-2.27373675e-13 3,-2.27373675e-13 L84.889,-2.27373675e-13 C86.546,-2.27373675e-13 87.889,1.343 87.889,3 L87.889,62.596 C87.889,64.252 86.546,65.596 84.889,65.596 Z" id="Stroke-317" stroke="#A8C5DD" stroke-width="1.417" stroke-linecap="round"></path>
            <path d="M7.4066,6.0237 L9.2676,4.9087" id="Stroke-318" stroke="#A8C5DD" stroke-width="1.417" stroke-linecap="round"></path>
            <path d="M9.2679,10.2874 L9.2679,4.9084" id="Stroke-319" stroke="#A8C5DD" stroke-width="1.417" stroke-linecap="round"></path>
            <path d="M7.4066,16.0872 L9.2676,14.9722" id="Stroke-320" stroke="#A8C5DD" stroke-width="1.417" stroke-linecap="round"></path>
            <path d="M9.2679,20.3508 L9.2679,14.9718" id="Stroke-321" stroke="#A8C5DD" stroke-width="1.417" stroke-linecap="round"></path>
            <path d="M13.83,16.0872 L15.691,14.9722" id="Stroke-322" stroke="#A8C5DD" stroke-width="1.417" stroke-linecap="round"></path>
            <path d="M15.6908,20.3508 L15.6908,14.9718" id="Stroke-323" stroke="#A8C5DD" stroke-width="1.417" stroke-linecap="round"></path>
            <path d="M7.4066,36.0989 L9.2676,34.9839" id="Stroke-324" stroke="#A8C5DD" stroke-width="1.417" stroke-linecap="round"></path>
            <path d="M9.2679,40.3626 L9.2679,34.9836" id="Stroke-325" stroke="#A8C5DD" stroke-width="1.417" stroke-linecap="round"></path>
            <path d="M13.83,36.0989 L15.691,34.9839" id="Stroke-326" stroke="#A8C5DD" stroke-width="1.417" stroke-linecap="round"></path>
            <path d="M15.6908,40.3626 L15.6908,34.9836" id="Stroke-327" stroke="#A8C5DD" stroke-width="1.417" stroke-linecap="round"></path>
            <path d="M20.8529,16.0872 L22.7139,14.9722" id="Stroke-328" stroke="#A8C5DD" stroke-width="1.417" stroke-linecap="round"></path>
            <path d="M22.7142,20.3508 L22.7142,14.9718" id="Stroke-329" stroke="#A8C5DD" stroke-width="1.417" stroke-linecap="round"></path>
            <path d="M7.4066,55.7092 L9.2676,54.5942" id="Stroke-330" stroke="#A8C5DD" stroke-width="1.417" stroke-linecap="round"></path>
            <path d="M9.2679,59.9729 L9.2679,54.5939" id="Stroke-331" stroke="#A8C5DD" stroke-width="1.417" stroke-linecap="round"></path>
            <path d="M13.83,55.7092 L15.691,54.5942" id="Stroke-332" stroke="#A8C5DD" stroke-width="1.417" stroke-linecap="round"></path>
            <path d="M15.6908,59.9729 L15.6908,54.5939" id="Stroke-333" stroke="#A8C5DD" stroke-width="1.417" stroke-linecap="round"></path>
            <path d="M20.8529,55.7092 L22.7139,54.5942" id="Stroke-334" stroke="#A8C5DD" stroke-width="1.417" stroke-linecap="round"></path>
            <path d="M22.7142,59.9729 L22.7142,54.5939" id="Stroke-335" stroke="#A8C5DD" stroke-width="1.417" stroke-linecap="round"></path>
            <path d="M20.8529,26.1702 L22.7139,25.0552" id="Stroke-336" stroke="#A8C5DD" stroke-width="1.417" stroke-linecap="round"></path>
            <path d="M22.7142,30.4338 L22.7142,25.0548" id="Stroke-337" stroke="#A8C5DD" stroke-width="1.417" stroke-linecap="round"></path>
            <path d="M20.8529,6.0237 L22.7139,4.9087" id="Stroke-338" stroke="#A8C5DD" stroke-width="1.417" stroke-linecap="round"></path>
            <path d="M22.7142,10.2874 L22.7142,4.9084" id="Stroke-339" stroke="#A8C5DD" stroke-width="1.417" stroke-linecap="round"></path>
            <path d="M26.3583,6.0237 L28.2193,4.9087" id="Stroke-340" stroke="#A8C5DD" stroke-width="1.417" stroke-linecap="round"></path>
            <path d="M28.2196,10.2874 L28.2196,4.9084" id="Stroke-341" stroke="#A8C5DD" stroke-width="1.417" stroke-linecap="round"></path>
            <path d="M16.9281,7.5979 C16.9281,9.0829 16.0721,10.2869 15.0161,10.2869 C13.9601,10.2869 13.1041,9.0829 13.1041,7.5979 C13.1041,6.1129 13.9601,4.9089 15.0161,4.9089 C16.0721,4.9089 16.9281,6.1129 16.9281,7.5979 Z" id="Stroke-342" stroke="#A8C5DD" stroke-width="1.417" stroke-linecap="round"></path>
            <path d="M7.4066,45.3254 L9.2676,44.2104" id="Stroke-343" stroke="#A8C5DD" stroke-width="1.417" stroke-linecap="round"></path>
            <path d="M9.2679,49.5891 L9.2679,44.2101" id="Stroke-344" stroke="#A8C5DD" stroke-width="1.417" stroke-linecap="round"></path>
            <path d="M20.8529,45.3254 L22.7139,44.2104" id="Stroke-345" stroke="#A8C5DD" stroke-width="1.417" stroke-linecap="round"></path>
            <path d="M22.7142,49.5891 L22.7142,44.2101" id="Stroke-346" stroke="#A8C5DD" stroke-width="1.417" stroke-linecap="round"></path>
            <path d="M16.9281,46.8997 C16.9281,48.3847 16.0721,49.5887 15.0161,49.5887 C13.9601,49.5887 13.1041,48.3847 13.1041,46.8997 C13.1041,45.4147 13.9601,44.2107 15.0161,44.2107 C16.0721,44.2107 16.9281,45.4147 16.9281,46.8997 Z" id="Stroke-347" stroke="#A8C5DD" stroke-width="1.417" stroke-linecap="round"></path>
            <path d="M10.5702,27.7444 C10.5702,29.2294 9.7142,30.4334 8.6582,30.4334 C7.6022,30.4334 6.7462,29.2294 6.7462,27.7444 C6.7462,26.2594 7.6022,25.0554 8.6582,25.0554 C9.7142,25.0554 10.5702,26.2594 10.5702,27.7444 Z" id="Stroke-348" stroke="#A8C5DD" stroke-width="1.417" stroke-linecap="round"></path>
            <path d="M17.6029,27.7444 C17.6029,29.2294 16.7469,30.4334 15.6909,30.4334 C14.6349,30.4334 13.7789,29.2294 13.7789,27.7444 C13.7789,26.2594 14.6349,25.0554 15.6909,25.0554 C16.7469,25.0554 17.6029,26.2594 17.6029,27.7444 Z" id="Stroke-349" stroke="#A8C5DD" stroke-width="1.417" stroke-linecap="round"></path>
            <path d="M23.6957,37.3723 C23.6957,38.8573 22.8397,40.0613 21.7837,40.0613 C20.7277,40.0613 19.8717,38.8573 19.8717,37.3723 C19.8717,35.8873 20.7277,34.6833 21.7837,34.6833 C22.8397,34.6833 23.6957,35.8873 23.6957,37.3723 Z" id="Stroke-350" stroke="#A8C5DD" stroke-width="1.417" stroke-linecap="round"></path>
            <path d="M36.9188,7.5979 C36.9188,9.0829 36.0628,10.2869 35.0068,10.2869 C33.9508,10.2869 33.0948,9.0829 33.0948,7.5979 C33.0948,6.1129 33.9508,4.9089 35.0068,4.9089 C36.0628,4.9089 36.9188,6.1129 36.9188,7.5979 Z" id="Stroke-351" stroke="#A8C5DD" stroke-width="1.417" stroke-linecap="round"></path>
            <path d="M56.6381,6.0237 L58.4991,4.9087" id="Stroke-352" stroke="#A8C5DD" stroke-width="1.417" stroke-linecap="round"></path>
            <path d="M58.4994,10.2874 L58.4994,4.9084" id="Stroke-353" stroke="#A8C5DD" stroke-width="1.417" stroke-linecap="round"></path>
            <path d="M71.3192,6.0237 L73.1802,4.9087" id="Stroke-354" stroke="#A8C5DD" stroke-width="1.417" stroke-linecap="round"></path>
            <path d="M73.1805,10.2874 L73.1805,4.9084" id="Stroke-355" stroke="#A8C5DD" stroke-width="1.417" stroke-linecap="round"></path>
            <path d="M77.7426,6.0237 L79.6036,4.9087" id="Stroke-356" stroke="#A8C5DD" stroke-width="1.417" stroke-linecap="round"></path>
            <path d="M79.6034,10.2874 L79.6034,4.9084" id="Stroke-357" stroke="#A8C5DD" stroke-width="1.417" stroke-linecap="round"></path>
            <path d="M67.1986,7.5979 C67.1986,9.0829 66.3426,10.2869 65.2866,10.2869 C64.2306,10.2869 63.3746,9.0829 63.3746,7.5979 C63.3746,6.1129 64.2306,4.9089 65.2866,4.9089 C66.3426,4.9089 67.1986,6.1129 67.1986,7.5979 Z" id="Stroke-358" stroke="#A8C5DD" stroke-width="1.417" stroke-linecap="round"></path>
            <path d="M45.1771,7.5979 C45.1771,9.0829 44.3211,10.2869 43.2651,10.2869 C42.2091,10.2869 41.3531,9.0829 41.3531,7.5979 C41.3531,6.1129 42.2091,4.9089 43.2651,4.9089 C44.3211,4.9089 45.1771,6.1129 45.1771,7.5979 Z" id="Stroke-359" stroke="#A8C5DD" stroke-width="1.417" stroke-linecap="round"></path>
            <path d="M53.4354,7.5979 C53.4354,9.0829 52.5794,10.2869 51.5234,10.2869 C50.4674,10.2869 49.6114,9.0829 49.6114,7.5979 C49.6114,6.1129 50.4674,4.9089 51.5234,4.9089 C52.5794,4.9089 53.4354,6.1129 53.4354,7.5979 Z" id="Stroke-360" stroke="#A8C5DD" stroke-width="1.417" stroke-linecap="round"></path>
            <path d="M130.1415,97.3557 L26.2705,97.3557 C24.6135,97.3557 23.2705,96.0127 23.2705,94.3557 L23.2705,18.1597 C23.2705,16.5027 24.6135,15.1597 26.2705,15.1597 L130.1415,15.1597 C131.7985,15.1597 133.1415,16.5027 133.1415,18.1597 L133.1415,94.3557 C133.1415,96.0127 131.7985,97.3557 130.1415,97.3557" id="Fill-361" fill="#FFFFFF"></path>
            <path d="M130.1415,97.3557 L26.2705,97.3557 C24.6135,97.3557 23.2705,96.0127 23.2705,94.3557 L23.2705,18.1597 C23.2705,16.5027 24.6135,15.1597 26.2705,15.1597 L130.1415,15.1597 C131.7985,15.1597 133.1415,16.5027 133.1415,18.1597 L133.1415,94.3557 C133.1415,96.0127 131.7985,97.3557 130.1415,97.3557 Z" id="Stroke-362" stroke="#A8C5DD" stroke-width="1.417" stroke-linecap="round"></path>
            <g id="Group-365" transform="translate(32.047300, 22.263100)">
                <path d="M0.6,0.6366 L13.732,0.6366" id="Fill-363" fill="#FFFFFF"></path>
                <path d="M0.6,0.6366 L13.732,0.6366" id="Stroke-364" stroke="#2969F6" stroke-width="1.4" stroke-linecap="round"></path>
            </g>
            <g id="Group-368" transform="translate(48.047300, 22.263100)">
                <path d="M0.437,0.6366 L6.836,0.6366" id="Fill-366" fill="#FFFFFF"></path>
                <path d="M0.437,0.6366 L6.836,0.6366" id="Stroke-367" stroke="#2969F6" stroke-width="1.4" stroke-linecap="round"></path>
            </g>
            <g id="Group-371" transform="translate(57.047300, 22.263100)">
                <path d="M0.4145,0.6366 L20.2795,0.6366" id="Fill-369" fill="#FFFFFF"></path>
                <path d="M0.4145,0.6366 L20.2795,0.6366" id="Stroke-370" stroke="#2969F6" stroke-width="1.4" stroke-linecap="round"></path>
            </g>
            <g id="Group-374" transform="translate(32.047300, 36.263100)">
                <path d="M0.6,0.5174 L23.016,0.5174" id="Fill-372" fill="#FFFFFF"></path>
                <path d="M0.6,0.5174 L23.016,0.5174" id="Stroke-373" stroke="#2969F6" stroke-width="1.4" stroke-linecap="round"></path>
            </g>
            <g id="Group-377" transform="translate(32.047300, 71.263100)">
                <path d="M0.6,0.5086 L23.016,0.5086" id="Fill-375" fill="#FFFFFF"></path>
                <path d="M0.6,0.5086 L23.016,0.5086" id="Stroke-376" stroke="#2969F6" stroke-width="1.4" stroke-linecap="round"></path>
            </g>
            <g id="Group-380" transform="translate(58.047300, 36.263100)">
                <path d="M0.062,0.5174 L33.912,0.5174" id="Fill-378" fill="#FFFFFF"></path>
                <path d="M0.062,0.5174 L33.912,0.5174" id="Stroke-379" stroke="#2969F6" stroke-width="1.4" stroke-linecap="round"></path>
            </g>
            <g id="Group-383" transform="translate(57.047300, 71.263100)">
                <path d="M0.4145,0.5086 L22.8305,0.5086" id="Fill-381" fill="#FFFFFF"></path>
                <path d="M0.4145,0.5086 L22.8305,0.5086" id="Stroke-382" stroke="#2969F6" stroke-width="1.4" stroke-linecap="round"></path>
            </g>
            <g id="Group-386" transform="translate(41.047300, 26.263100)">
                <path d="M0.7036,0.6024 L15.5686,0.6024" id="Fill-384" fill="#FFFFFF"></path>
                <path d="M0.7036,0.6024 L15.5686,0.6024" id="Stroke-385" stroke="#2969F6" stroke-width="1.4" stroke-linecap="round"></path>
            </g>
            <g id="Group-389" transform="translate(48.047300, 52.263100)">
                <path d="M0.2123,0.9764 L21.5593,0.9764" id="Fill-387" fill="#FFFFFF"></path>
                <path d="M0.2123,0.9764 L21.5593,0.9764" id="Stroke-388" stroke="#2969F6" stroke-width="1.4" stroke-linecap="round"></path>
            </g>
            <g id="Group-392" transform="translate(41.047300, 30.263100)">
                <path d="M0.7036,0.5682 L7.1026,0.5682" id="Fill-390" fill="#FFFFFF"></path>
                <path d="M0.7036,0.5682 L7.1026,0.5682" id="Stroke-391" stroke="#2969F6" stroke-width="1.4" stroke-linecap="round"></path>
            </g>
            <g id="Group-395" transform="translate(41.047300, 48.263100)">
                <path d="M0.7036,0.7127 L10.6366,0.7127" id="Fill-393" fill="#FFFFFF"></path>
                <path d="M0.7036,0.7127 L10.6366,0.7127" id="Stroke-394" stroke="#2969F6" stroke-width="1.4" stroke-linecap="round"></path>
            </g>
            <g id="Group-398" transform="translate(66.047300, 30.263100)">
                <path d="M0.6161,0.5682 L9.3131,0.5682" id="Fill-396" fill="#FFFFFF"></path>
                <path d="M0.6161,0.5682 L9.3131,0.5682" id="Stroke-397" stroke="#2969F6" stroke-width="1.4" stroke-linecap="round"></path>
            </g>
            <g id="Group-401" transform="translate(50.047300, 30.263100)">
                <path d="M0.6811,0.5682 L12.1471,0.5682" id="Fill-399" fill="#FFFFFF"></path>
                <path d="M0.6811,0.5682 L12.1471,0.5682" id="Stroke-400" stroke="#2969F6" stroke-width="1.4" stroke-linecap="round"></path>
            </g>
            <g id="Group-404" transform="translate(41.047300, 56.263100)">
                <path d="M0.7036,1.2391 L20.5686,1.2391" id="Fill-402" fill="#FFFFFF"></path>
                <path d="M0.7036,1.2391 L20.5686,1.2391" id="Stroke-403" stroke="#2969F6" stroke-width="1.4" stroke-linecap="round"></path>
            </g>
            <g id="Group-407" transform="translate(41.047300, 60.263100)">
                <path d="M0.7036,1.2059 L7.1026,1.2059" id="Fill-405" fill="#FFFFFF"></path>
                <path d="M0.7036,1.2059 L7.1026,1.2059" id="Stroke-406" stroke="#2969F6" stroke-width="1.4" stroke-linecap="round"></path>
            </g>
            <g id="Group-410" transform="translate(50.047300, 60.263100)">
                <path d="M0.6811,1.2059 L19.1471,1.2059" id="Fill-408" fill="#FFFFFF"></path>
                <path d="M0.6811,1.2059 L19.1471,1.2059" id="Stroke-409" stroke="#2969F6" stroke-width="1.4" stroke-linecap="round"></path>
            </g>
            <g id="Group-413" transform="translate(41.047300, 64.263100)">
                <path d="M0.7036,1.1717 L14.1696,1.1717" id="Fill-411" fill="#FFFFFF"></path>
                <path d="M0.7036,1.1717 L14.1696,1.1717" id="Stroke-412" stroke="#2969F6" stroke-width="1.4" stroke-linecap="round"></path>
            </g>
            <g id="Group-416" transform="translate(41.047300, 75.263100)">
                <path d="M0.7036,0.8797 L20.5686,0.8797" id="Fill-414" fill="#FFFFFF"></path>
                <path d="M0.7036,0.8797 L20.5686,0.8797" id="Stroke-415" stroke="#2969F6" stroke-width="1.4" stroke-linecap="round"></path>
            </g>
            <g id="Group-419" transform="translate(41.047300, 79.263100)">
                <path d="M0.7036,0.8456 L7.1026,0.8456" id="Fill-417" fill="#FFFFFF"></path>
                <path d="M0.7036,0.8456 L7.1026,0.8456" id="Stroke-418" stroke="#2969F6" stroke-width="1.4" stroke-linecap="round"></path>
            </g>
            <g id="Group-422" transform="translate(50.047300, 79.263100)">
                <path d="M0.6811,0.8456 L14.1471,0.8456" id="Fill-420" fill="#FFFFFF"></path>
                <path d="M0.6811,0.8456 L14.1471,0.8456" id="Stroke-421" stroke="#2969F6" stroke-width="1.4" stroke-linecap="round"></path>
            </g>
            <g id="Group-425" transform="translate(84.047300, 39.263100)">
                <path d="M0.8793,1.4832 L11.8023,1.4832" id="Fill-423" fill="#FFFFFF"></path>
                <path d="M0.8793,1.4832 L11.8023,1.4832" id="Stroke-424" stroke="#2969F6" stroke-width="1.4" stroke-linecap="round"></path>
            </g>
            <g id="Group-428" transform="translate(48.047300, 39.263100)">
                <path d="M0.1396,1.4832 L34.0496,1.4832" id="Fill-426" fill="#FFFFFF"></path>
                <path d="M0.1396,1.4832 L34.0496,1.4832" id="Stroke-427" stroke="#2969F6" stroke-width="1.4" stroke-linecap="round"></path>
            </g>
            <g id="Group-431" transform="translate(48.047300, 43.263100)">
                <path d="M0.1396,1.4491 L14.9846,1.4491" id="Fill-429" fill="#FFFFFF"></path>
                <path d="M0.1396,1.4491 L14.9846,1.4491" id="Stroke-430" stroke="#2969F6" stroke-width="1.4" stroke-linecap="round"></path>
            </g>
            <path d="M196.2543,135.0003 L69.9503,135.0003 C67.8813,135.0003 66.2043,133.3453 66.2043,131.3033 L66.2043,38.9173 C66.2043,36.8753 67.8813,35.2193 69.9503,35.2193 L196.2543,35.2193 C198.3233,35.2193 200.0003,36.8753 200.0003,38.9173 L200.0003,131.3033 C200.0003,133.3453 198.3233,135.0003 196.2543,135.0003" id="Fill-432" fill="#FFFFFF"></path>
            <path d="M196.2543,135.0003 L69.9503,135.0003 C67.8813,135.0003 66.2043,133.3453 66.2043,131.3033 L66.2043,38.9173 C66.2043,36.8753 67.8813,35.2193 69.9503,35.2193 L196.2543,35.2193 C198.3233,35.2193 200.0003,36.8753 200.0003,38.9173 L200.0003,131.3033 C200.0003,133.3453 198.3233,135.0003 196.2543,135.0003 Z" id="Stroke-433" stroke="#A8C5DD" stroke-width="1.417" stroke-linecap="round"></path>
            <g id="Group-436" transform="translate(96.047300, 85.263100)">
                <path d="M0.4189,39.8778 C4.4639,28.0418 11.7369,24.7878 18.0939,24.2468 C27.6289,23.4338 30.2299,34.4238 44.5319,32.8828 C58.8349,31.3408 56.5249,1.6798 75.5839,0.9308 C86.5629,0.4988 93.4229,27.9548 94.0009,39.8608" id="Fill-434" fill="#FFFFFF"></path>
                <path d="M0.4189,39.8778 C4.4639,28.0418 11.7369,24.7878 18.0939,24.2468 C27.6289,23.4338 30.2299,34.4238 44.5319,32.8828 C58.8349,31.3408 56.5249,1.6798 75.5839,0.9308 C86.5629,0.4988 93.4229,27.9548 94.0009,39.8608" id="Stroke-435" stroke="#032663" stroke-width="1.417" stroke-linecap="round"></path>
            </g>
            <g id="Group-439" transform="translate(109.047300, 43.263100)">
                <path d="M17.4531,1.3797 L0.5121,1.3797" id="Fill-437" fill="#FFFFFF"></path>
                <path d="M17.4531,1.3797 L0.5121,1.3797" id="Stroke-438" stroke="#032663" stroke-width="1.417" stroke-linecap="round"></path>
            </g>
            <g id="Group-442" transform="translate(172.047300, 48.263100)">
                <path d="M17.1977,1.245 L0.3147,1.245" id="Fill-440" fill="#FFFFFF"></path>
                <path d="M17.1977,1.245 L0.3147,1.245" id="Stroke-441" stroke="#032663" stroke-width="1.417" stroke-linecap="round"></path>
            </g>
            <g id="Group-445" transform="translate(172.047300, 53.263100)">
                <path d="M12.3495,0.5614 L0.3145,0.5614" id="Fill-443" fill="#FFFFFF"></path>
                <path d="M12.3495,0.5614 L0.3145,0.5614" id="Stroke-444" stroke="#032663" stroke-width="1.417" stroke-linecap="round"></path>
            </g>
            <g id="Group-448" transform="translate(172.047300, 57.263100)">
                <path d="M14.2885,0.8768 L0.3145,0.8768" id="Fill-446" fill="#FFFFFF"></path>
                <path d="M14.2885,0.8768 L0.3145,0.8768" id="Stroke-447" stroke="#032663" stroke-width="1.417" stroke-linecap="round"></path>
            </g>
            <g id="Group-451" transform="translate(172.047300, 62.263100)">
                <path d="M10.4101,0.7108 L0.3151,0.7108" id="Fill-449" fill="#FFFFFF"></path>
                <path d="M10.4101,0.7108 L0.3151,0.7108" id="Stroke-450" stroke="#032663" stroke-width="1.417" stroke-linecap="round"></path>
            </g>
            <path d="M104.6713,44.6428 C104.6713,45.6658 103.8383,46.4968 102.8113,46.4968 C101.7833,46.4968 100.9503,45.6658 100.9503,44.6428 C100.9503,43.6198 101.7833,42.7888 102.8113,42.7888 C103.8383,42.7888 104.6713,43.6198 104.6713,44.6428" id="Fill-452" fill="#FFFFFF"></path>
            <path d="M104.6713,44.6428 C104.6713,45.6658 103.8383,46.4968 102.8113,46.4968 C101.7833,46.4968 100.9503,45.6658 100.9503,44.6428 C100.9503,43.6198 101.7833,42.7888 102.8113,42.7888 C103.8383,42.7888 104.6713,43.6198 104.6713,44.6428 Z" id="Stroke-453" stroke="#032663" stroke-width="1.417" stroke-linecap="round"></path>
            <g id="Group-456" transform="translate(109.047300, 58.263100)">
                <path d="M17.4531,0.5614 L0.5121,0.5614" id="Fill-454" fill="#FFFFFF"></path>
                <path d="M17.4531,0.5614 L0.5121,0.5614" id="Stroke-455" stroke="#032663" stroke-width="1.417" stroke-linecap="round"></path>
            </g>
            <path d="M104.6713,58.8245 C104.6713,59.8475 103.8383,60.6785 102.8113,60.6785 C101.7833,60.6785 100.9503,59.8475 100.9503,58.8245 C100.9503,57.8015 101.7833,56.9705 102.8113,56.9705 C103.8383,56.9705 104.6713,57.8015 104.6713,58.8245" id="Fill-457" fill="#FFFFFF"></path>
            <path d="M104.6713,58.8245 C104.6713,59.8475 103.8383,60.6785 102.8113,60.6785 C101.7833,60.6785 100.9503,59.8475 100.9503,58.8245 C100.9503,57.8015 101.7833,56.9705 102.8113,56.9705 C103.8383,56.9705 104.6713,57.8015 104.6713,58.8245 Z" id="Stroke-458" stroke="#032663" stroke-width="1.417" stroke-linecap="round"></path>
            <g id="Group-461" transform="translate(109.047300, 65.263100)">
                <path d="M21.4531,0.5614 L0.5121,0.5614" id="Fill-459" fill="#FFFFFF"></path>
                <path d="M21.4531,0.5614 L0.5121,0.5614" id="Stroke-460" stroke="#032663" stroke-width="1.417" stroke-linecap="round"></path>
            </g>
            <path d="M104.6713,65.8245 C104.6713,66.8475 103.8383,67.6785 102.8113,67.6785 C101.7833,67.6785 100.9503,66.8475 100.9503,65.8245 C100.9503,64.8015 101.7833,63.9705 102.8113,63.9705 C103.8383,63.9705 104.6713,64.8015 104.6713,65.8245" id="Fill-462" fill="#FFFFFF"></path>
            <path d="M104.6713,65.8245 C104.6713,66.8475 103.8383,67.6785 102.8113,67.6785 C101.7833,67.6785 100.9503,66.8475 100.9503,65.8245 C100.9503,64.8015 101.7833,63.9705 102.8113,63.9705 C103.8383,63.9705 104.6713,64.8015 104.6713,65.8245 Z" id="Stroke-463" stroke="#032663" stroke-width="1.417" stroke-linecap="round"></path>
            <g id="Group-466" transform="translate(109.047300, 50.263100)">
                <path d="M11.3183,1.4872 L0.5113,1.4872" id="Fill-464" fill="#FFFFFF"></path>
                <path d="M11.3183,1.4872 L0.5113,1.4872" id="Stroke-465" stroke="#032663" stroke-width="1.417" stroke-linecap="round"></path>
            </g>
            <path d="M104.6713,51.7503 C104.6713,52.7733 103.8383,53.6043 102.8113,53.6043 C101.7833,53.6043 100.9503,52.7733 100.9503,51.7503 C100.9503,50.7273 101.7833,49.8963 102.8113,49.8963 C103.8383,49.8963 104.6713,50.7273 104.6713,51.7503" id="Fill-467" fill="#FFFFFF"></path>
            <path d="M104.6713,51.7503 C104.6713,52.7733 103.8383,53.6043 102.8113,53.6043 C101.7833,53.6043 100.9503,52.7733 100.9503,51.7503 C100.9503,50.7273 101.7833,49.8963 102.8113,49.8963 C103.8383,49.8963 104.6713,50.7273 104.6713,51.7503 Z" id="Stroke-468" stroke="#032663" stroke-width="1.417" stroke-linecap="round"></path>
            <polygon id="Stroke-469" stroke="#032663" stroke-width="1.417" stroke-linecap="round" points="96.4662 125.1243 96.5562 76.5473 190.0482 76.5473 190.0482 125.1243"></polygon>
            <path d="M87.889,35.219 L87.889,135" id="Stroke-470" stroke="#A8C5DD" stroke-width="1.417" stroke-linecap="round"></path>
            <g id="Group-473" transform="translate(72.047300, 42.263100)">
                <path d="M-0.0001,1.3973 L8.9399,1.3973" id="Fill-471" fill="#FFFFFF"></path>
                <path d="M-0.0001,1.3973 L8.9399,1.3973" id="Stroke-472" stroke="#032663" stroke-width="1.417" stroke-linecap="round"></path>
            </g>
            <g id="Group-476" transform="translate(72.047300, 47.263100)">
                <path d="M-0.0001,1.2313 L7.0009,1.2313" id="Fill-474" fill="#FFFFFF"></path>
                <path d="M-0.0001,1.2313 L7.0009,1.2313" id="Stroke-475" stroke="#032663" stroke-width="1.417" stroke-linecap="round"></path>
            </g>
            <g id="Group-479" transform="translate(72.047300, 52.263100)">
                <path d="M-0.0001,1.0643 L7.9709,1.0643" id="Fill-477" fill="#FFFFFF"></path>
                <path d="M-0.0001,1.0643 L7.9709,1.0643" id="Stroke-478" stroke="#032663" stroke-width="1.417" stroke-linecap="round"></path>
            </g>
            <g id="Group-482" transform="translate(72.047300, 57.263100)">
                <path d="M-0.0001,0.8983 L5.0619,0.8983" id="Fill-480" fill="#FFFFFF"></path>
                <path d="M-0.0001,0.8983 L5.0619,0.8983" id="Stroke-481" stroke="#032663" stroke-width="1.417" stroke-linecap="round"></path>
            </g>
            <g id="Group-485" transform="translate(72.047300, 62.263100)">
                <path d="M-0.0001,0.7313 L8.9399,0.7313" id="Fill-483" fill="#FFFFFF"></path>
                <path d="M-0.0001,0.7313 L8.9399,0.7313" id="Stroke-484" stroke="#032663" stroke-width="1.417" stroke-linecap="round"></path>
            </g>
            <g id="Group-488" transform="translate(72.047300, 67.263100)">
                <path d="M-0.0001,0.5653 L7.0009,0.5653" id="Fill-486" fill="#FFFFFF"></path>
                <path d="M-0.0001,0.5653 L7.0009,0.5653" id="Stroke-487" stroke="#032663" stroke-width="1.417" stroke-linecap="round"></path>
            </g>
            <g id="Group-491" transform="translate(72.047300, 71.263100)">
                <path d="M-0.0001,1.3983 L8.9399,1.3983" id="Fill-489" fill="#FFFFFF"></path>
                <path d="M-0.0001,1.3983 L8.9399,1.3983" id="Stroke-490" stroke="#032663" stroke-width="1.417" stroke-linecap="round"></path>
            </g>
            <g id="Group-494" transform="translate(158.047300, 47.263100)">
                <path d="M0.6474,8.7088 L0.6474,0.4058" id="Fill-492" fill="#FFFFFF"></path>
                <path d="M0.6474,8.7088 L0.6474,0.4058" id="Stroke-493" stroke="#032663" stroke-width="1.417" stroke-linecap="round"></path>
            </g>
            <g id="Group-497" transform="translate(158.047300, 55.263100)">
                <path d="M9.6039,0.495 L0.6469,0.709" id="Fill-495" fill="#FFFFFF"></path>
                <path d="M9.6039,0.495 L0.6469,0.709" id="Stroke-496" stroke="#032663" stroke-width="1.417" stroke-linecap="round"></path>
            </g>
            <g id="Group-500" transform="translate(158.047300, 55.263100)">
                <path d="M3.0766,8.6981 L0.6476,0.7091" id="Fill-498" fill="#FFFFFF"></path>
                <path d="M3.0766,8.6981 L0.6476,0.7091" id="Stroke-499" stroke="#032663" stroke-width="1.417" stroke-linecap="round"></path>
            </g>
            <g id="Group-503" transform="translate(155.047300, 55.263100)">
                <path d="M0.4716,8.5331 L3.6476,0.7371" id="Fill-501" fill="#FFFFFF"></path>
                <path d="M0.4716,8.5331 L3.6476,0.7371" id="Stroke-502" stroke="#032663" stroke-width="1.417" stroke-linecap="round"></path>
            </g>
            <path d="M167.6512,55.7581 C167.6512,60.6901 163.6412,64.6881 158.6942,64.6881 C153.7482,64.6881 149.7382,60.6901 149.7382,55.7581 C149.7382,50.8251 153.7482,46.8271 158.6942,46.8271 C163.6412,46.8271 167.6512,50.8251 167.6512,55.7581 Z" id="Stroke-504" stroke="#032663" stroke-width="1.417" stroke-linecap="round"></path>
        </g>
    </g>
</svg>