<svg xmlns="http://www.w3.org/2000/svg" viewBox="0 0 200 134"><g fill="none" fill-rule="nonzero"><path fill="#A6C4DD" d="M107.89 5.551l-.666-4.963a.697.697 0 00-1.383.179l.627 4.784h-1.632l-.587-4.963a.696.696 0 00-1.383.16l.617 4.803h-7.791l.567-4.784a.695.695 0 00-1.383-.159l-.587 4.963h-1.632l.637-4.794a.695.695 0 00-.597-.774.706.706 0 00-.787.595l-.666 4.963H0v108.765h76.746l-2.517 18.86a.694.694 0 00.607.774h.09a.706.706 0 00.696-.605l2.537-19.069h3.254l-2.239 18.86a.684.684 0 00.607.765h.09a.686.686 0 00.686-.616l2.259-19.059h13.701a.584.584 0 000 .229v14.89a.696.696 0 001.393 0v-14.89a.842.842 0 000-.229h2.588a.584.584 0 000 .229v14.89a.694.694 0 00.696.694.697.697 0 00.706-.695v-14.89a.584.584 0 000-.228h14.418l2.26 19.06c.035.35.332.616.686.615h.139a.687.687 0 00.607-.765l-2.239-18.86h3.254l2.537 19.069c.05.346.346.604.697.605h.09a.697.697 0 00.606-.774l-2.517-18.86h76.617V5.55H107.89zm-16.03 1.39h105.742v100.565H1.403V6.941h90.458zM1.404 112.926v-4.03h196.199v4.03H1.403z"/><path fill="#FFF" d="M55.98 63.69c19.9-.585 17.702 0 27.86 0"/><path fill="#2364F9" d="M55.98 64.386a.695.695 0 010-1.38c13.105-.387 16.657-.268 20.428-.14 1.99.07 3.98.14 7.473.14a.697.697 0 01.672 1.06.697.697 0 01-.672.32 188.5 188.5 0 01-7.523-.14c-3.741-.128-7.283-.247-20.338.14h-.04z"/><path fill="#FFF" d="M52.13 58.5c17.79.317 26.149.506 34.994 0"/><path fill="#2364F9" d="M74.796 59.551c-5.114 0-11.174-.109-19.393-.248l-3.294-.06a.695.695 0 010-1.379l3.284.06c15.582.277 23.403.416 31.662-.06a.678.678 0 01.736.645.694.694 0 01-.657.735c-3.9.169-7.741.307-12.338.307zM81.493 55.273H58.06a.686.686 0 110-1.37h23.433a.686.686 0 110 1.37zM15.622 59.939h-5.97a.695.695 0 010-1.38h5.97a.695.695 0 010 1.38z"/><path fill="#FFF" d="M7.91 61.884l10.379.586"/><path fill="#2364F9" d="M18.289 63.165L7.87 62.529a.684.684 0 11.09-1.33l10.387.586a.687.687 0 01.657.725.696.696 0 01-.716.655zM16.507 65.805H9.682a.695.695 0 010-1.38h6.825a.697.697 0 01.672 1.061.697.697 0 01-.672.32z"/><path fill="#002465" d="M109.91 97.61c-.06-.14-6.189-14.453-7.96-83.025V13.9h-.696c-16.01.238-58.17.724-61.025 0l-.866-.219v.894c0 .595.22 59.42-6.497 83.104l-.24.844h.886c1.782.07 29.96 1.171 51.742 1.171 11.353 0 20.965-.298 24.209-1.201l.786-.218-.339-.665zm-75.462-.338c6.11-22.83 6.348-74.816 6.348-81.873 7.552.655 53.313 0 59.82-.09 1.583 60.462 6.479 78.42 7.752 82.092-10.856 2.134-66.239.12-73.92-.129z"/><path fill="#002465" d="M65.144 49.764c5.393-.179 10.488-.357 12.756-.248 6.17.288 19.752.585 19.901.585h.706v-.724c0-3.594-.348-21.57-1.253-23.456a.684.684 0 00-.1-.735.708.708 0 00-.995-.09c-.159.14-.348.289-.547.437l-49.751.278-.567-.238a.697.697 0 00-.826.248h-.14v9.807c0 1.589 0 3.455-.07 5.282a66.26 66.26 0 00.08 8.05c.23 1.201 2.299 1.43 20.806.804zm5.354-11.912c-10.946 4.646-21.811 8.845-24.876 10.036-.07-1.46 0-4.219 0-6.949 0-1.836.07-3.712.07-5.31V27.28c3.064 1.28 13.233 5.469 24.806 10.532v.04zm-5.403 10.522c-5.801.199-13.93.477-17.672.268 4.388-1.697 14.667-5.717 24.876-10.055 7.422 3.256 15.333 6.78 22.228 10.045-4.437-.109-12.308-.317-16.587-.516-2.318-.1-7.423.07-12.845.258zm31.014-21.431c.458 2.243.836 12.12.995 21.352-6.965-3.355-15.243-7.038-23.054-10.463 9.224-3.97 18.07-8.1 22.05-10.919l.01.03zm-2.626 0c-4.617 2.83-12.826 6.532-21.224 10.125a1652.936 1652.936 0 00-23.115-9.867l44.339-.258zM59.82 69.061H43.096v.715c0 .09.268 9.35-1.165 14.76l-.238.874h18.806v-.655c0-.377.587-9.252-.607-15.138l-.07-.556zm-.646 14.96H43.522a68.065 68.065 0 00.995-13.57h14.19c.587 4.498.743 9.042.467 13.57zM80.677 69.974l.308-.913H62.418v.675c0 .457-.289 11.227 0 15.029v.595h.597c1.652.12 7.413.526 12.07.526 2.865 0 5.313-.158 6.129-.615l.388-.228v-.437c-.448-5.202-1.085-13.808-.925-14.632zM63.76 84.06c-.189-3.554 0-11.277 0-13.61h15.513c0 2.641.567 9.927.885 13.799-2.239.555-10.776.208-16.398-.19zM98.697 69.061H83.463l.06 16.418 10.656-.119c1.9.199 3.244.278 4.2.278 2.099 0 2.288-.377 2.427-.655.497-.993.308-13.073-1.075-15.307a1.194 1.194 0 00-1.034-.615zm.865 15.168a33.093 33.093 0 01-5.323-.209l-9.324.06V70.45h13.592c.995 1.301 1.314 11.575 1.055 13.779zM71.403 20.094h2.279a.696.696 0 100-1.39h-2.279a.696.696 0 100 1.39zM77.144 20.094h2.269a.696.696 0 100-1.39h-2.269a.696.696 0 100 1.39zM82.478 20.094h2.278a.696.696 0 100-1.39h-2.278a.696.696 0 100 1.39zM87.224 20.094H89.8a.696.696 0 100-1.39h-2.577a.696.696 0 100 1.39zM92.537 20.094h1.99a.696.696 0 100-1.39h-1.99a.696.696 0 100 1.39zM58.756 17.86h-13.86v4.914h13.86V17.86zm-1.393 3.524H46.3V19.21h11.064v2.174z"/><path fill="#2364F9" d="M12.776 54.588c-.05.01-.1.01-.15 0a.687.687 0 01-.526-.814c.05-.198 4.587-19.317 19.522-19.317h.348a.686.686 0 110 1.37h-.328c-13.86 0-18.14 18.056-18.18 18.235a.696.696 0 01-.686.526z"/><path fill="#2364F9" d="M30.577 39.341a.708.708 0 01-.418-.139.685.685 0 01-.14-.992l2.18-2.88-3.731-1.984a.695.695 0 11.646-1.221l5.175 2.73-3.165 4.159a.677.677 0 01-.547.327zM163.363 77.29c.164-.39.199-.82.1-1.23a4.42 4.42 0 00-2.11-2.552c-1.681-.993-3.532-.993-4.388-.09h-.07l-.119.18-.278.446-11.682 18.265-.11.178.18 6.77 6.06-3.146.158-.09.1-.149 12.03-18.364.14-.208-.01-.01zm-12.637 16.825l-.806-1.757 11.204-17.252c.447.545.726 1.207.806 1.906l-8.835 13.5-2.369 3.603zm7.055-19.555a4.508 4.508 0 012.14-.139l-11.195 17.233-1.99.218 11.045-17.312zM146.11 93.301l2.597-.287.995 2.193-3.512 1.827-.08-3.733z"/><path fill="#002465" d="M142.627 99.148l-25.612-.327.12-.795c0-.188 2.855-19.852 2.984-83.134v-.695h61.433v.685c0 .497.07 49.633 5.652 80.524a.695.695 0 01-.922.78.697.697 0 01-.451-.532c-5.244-28.975-5.652-73.952-5.682-80.077h-58.647c-.119 56.045-2.368 77.665-2.885 81.864l24.02.308a.696.696 0 110 1.39l-.01.01z"/></g></svg>