<?xml version="1.0" encoding="UTF-8"?>
<svg width="200px" height="135px" viewBox="0 0 200 135" version="1.1" xmlns="http://www.w3.org/2000/svg" xmlns:xlink="http://www.w3.org/1999/xlink">
    <!-- Generator: sketchtool 59 (101010) - https://sketch.com -->
    <title>37158B5C-7389-4CBF-A32C-5D3A2D6B0930</title>
    <desc>Created with sketchtool.</desc>
    <g id="Page-1" stroke="none" stroke-width="1" fill="none" fill-rule="evenodd">
        <g id="Icons" transform="translate(-753.000000, -5663.000000)" fill-rule="nonzero">
            <g id="max-icon-enterprise" transform="translate(753.000000, 5663.000000)">
                <polygon id="Path" fill="#002465" points="83.73 134.3 85.14 134.3 85.14 119.24 99.84 119.24 99.84 134.3 101.25 134.3 101.25 119.24 115.96 119.24 115.96 134.3 117.37 134.3 117.37 117.84 83.73 117.84"></polygon>
                <path d="M22.87,135 L40.17,135 L40.17,120.66 L22.87,120.66 L22.87,135 Z M24.28,122.06 L38.76,122.06 L38.76,133.6 L24.28,133.6 L24.28,122.06 Z" id="Shape" fill="#002465"></path>
                <path d="M159.83,120.66 L159.83,135 L177.13,135 L177.13,120.66 L159.83,120.66 Z M175.72,133.6 L161.24,133.6 L161.24,122.06 L175.72,122.06 L175.72,133.6 Z" id="Shape" fill="#002465"></path>
                <path d="M124.66,0 L75.34,0 L75.34,15.93 L79.75,15.93 L79.75,21.18 C79.7922709,21.531766 80.0907033,21.7964835 80.445,21.7964835 C80.7992967,21.7964835 81.0977291,21.531766 81.14,21.18 L81.14,15.93 L118.86,15.93 L118.86,21.18 C118.902271,21.531766 119.200703,21.7964835 119.555,21.7964835 C119.909297,21.7964835 120.207729,21.531766 120.25,21.18 L120.25,15.93 L124.66,15.93 L124.66,0 Z M123.27,14.55 L76.73,14.55 L76.73,1.39 L123.27,1.39 L123.27,14.55 Z" id="Shape" fill="#2364F9"></path>
                <path d="M91.91,11.9 C93.936885,11.9 95.58,10.256885 95.58,8.23 C95.58,6.20311497 93.936885,4.56 91.91,4.56 C89.883115,4.56 88.24,6.20311497 88.24,8.23 C88.2454942,10.2546049 89.8853951,11.8945058 91.91,11.9 Z M91.91,5.96 C92.833082,5.96 93.6650784,6.51660126 94.0173851,7.36980721 C94.3696918,8.22301315 94.1727849,9.20446143 93.5186343,9.85574286 C92.8644838,10.5070243 91.8821795,10.6996153 91.0305304,10.3435617 C90.1788813,9.98750804 89.6259514,9.15307314 89.6299779,8.23 C89.6624212,6.99263412 90.6722195,6.00498053 91.91,6 L91.91,5.96 Z" id="Shape" fill="#2364F9"></path>
                <path d="M97.75,7.39 L112,7.39 C112.268205,7.42222958 112.53102,7.297257 112.675304,7.06888222 C112.819587,6.84050744 112.819587,6.54949256 112.675304,6.32111778 C112.53102,6.092743 112.268205,5.96777042 112,6 L97.75,6 C97.4817947,5.96777042 97.2189801,6.092743 97.0746963,6.32111778 C96.9304126,6.54949256 96.9304126,6.84050744 97.0746963,7.06888222 C97.2189801,7.297257 97.4817947,7.42222958 97.75,7.39 L97.75,7.39 Z" id="Path" fill="#2364F9"></path>
                <path d="M97.75,10.36 L106.49,10.36 C106.758205,10.3922296 107.02102,10.267257 107.165304,10.0388822 C107.309587,9.81050744 107.309587,9.51949256 107.165304,9.29111778 C107.02102,9.062743 106.758205,8.93777042 106.49,8.97 L97.75,8.97 C97.4817947,8.93777042 97.2189801,9.062743 97.0746963,9.29111778 C96.9304126,9.51949256 96.9304126,9.81050744 97.0746963,10.0388822 C97.2189801,10.267257 97.4817947,10.3922296 97.75,10.36 L97.75,10.36 Z" id="Path" fill="#2364F9"></path>
                <path d="M72.67,29.43 L72.67,35.7 L127.33,35.7 L127.33,29.43 L72.67,29.43 Z M95.38,30.84 L104.62,30.84 L104.62,34.3 L95.38,34.3 L95.38,30.84 Z M94,34.3 L84.72,34.3 L84.72,30.84 L94,30.84 L94,34.3 Z M106,30.84 L115.25,30.84 L115.25,34.3 L106,34.3 L106,30.84 Z M74,30.84 L83.25,30.84 L83.25,34.3 L74.07,34.3 L74,30.84 Z M125.86,34.3 L116.61,34.3 L116.61,30.84 L125.86,30.84 L125.86,34.3 Z" id="Shape" fill="#A6C4DD"></path>
                <path d="M72.67,42 L72.67,48.27 L127.33,48.27 L127.33,42 L72.67,42 Z M95.38,43.4 L104.62,43.4 L104.62,46.87 L95.38,46.87 L95.38,43.4 Z M94,46.84 L84.72,46.84 L84.72,43.37 L94,43.37 L94,46.84 Z M106,43.37 L115.25,43.37 L115.25,46.84 L106,46.84 L106,43.37 Z M74,43.37 L83.25,43.37 L83.25,46.84 L74.07,46.84 L74,43.37 Z M125.86,46.84 L116.61,46.84 L116.61,43.37 L125.86,43.37 L125.86,46.84 Z" id="Shape" fill="#A6C4DD"></path>
                <path d="M72.67,54.51 L72.67,60.77 L127.33,60.77 L127.33,54.51 L72.67,54.51 Z M95.38,55.91 L104.62,55.91 L104.62,59.37 L95.38,59.37 L95.38,55.91 Z M94,59.37 L84.72,59.37 L84.72,55.91 L94,55.91 L94,59.37 Z M106,55.91 L115.25,55.91 L115.25,59.37 L106,59.37 L106,55.91 Z M74,55.91 L83.25,55.91 L83.25,59.37 L74.07,59.37 L74,55.91 Z M125.86,59.37 L116.61,59.37 L116.61,55.91 L125.86,55.91 L125.86,59.37 Z" id="Shape" fill="#A6C4DD"></path>
                <path d="M72.67,67 L72.67,73.27 L127.33,73.27 L127.33,67 L72.67,67 Z M95.38,68.4 L104.62,68.4 L104.62,71.87 L95.38,71.87 L95.38,68.4 Z M94,71.91 L84.72,71.91 L84.72,68.44 L94,68.44 L94,71.91 Z M106,68.44 L115.25,68.44 L115.25,71.91 L106,71.91 L106,68.44 Z M74,68.44 L83.25,68.44 L83.25,71.91 L74.07,71.91 L74,68.44 Z M125.86,71.91 L116.61,71.91 L116.61,68.44 L125.86,68.44 L125.86,71.91 Z" id="Shape" fill="#A6C4DD"></path>
                <path d="M72.67,79.58 L72.67,85.85 L127.33,85.85 L127.33,79.58 L72.67,79.58 Z M95.38,81 L104.62,81 L104.62,84.46 L95.38,84.46 L95.38,81 Z M94,84.44 L84.72,84.44 L84.72,81 L94,81 L94,84.44 Z M106,81 L115.25,81 L115.25,84.46 L106,84.46 L106,81 Z M74,81 L83.25,81 L83.25,84.46 L74.07,84.46 L74,81 Z M125.86,84.46 L116.61,84.46 L116.61,81 L125.86,81 L125.86,84.46 Z" id="Shape" fill="#A6C4DD"></path>
                <path d="M72.67,92.11 L72.67,98.38 L127.33,98.38 L127.33,92.11 L72.67,92.11 Z M95.38,93.52 L104.62,93.52 L104.62,97 L95.38,97 L95.38,93.52 Z M94,97 L84.72,97 L84.72,93.52 L94,93.52 L94,97 Z M106,93.52 L115.25,93.52 L115.25,97 L106,97 L106,93.52 Z M74,93.52 L83.25,93.52 L83.25,97 L74.07,97 L74,93.52 Z M125.93,97 L116.68,97 L116.68,93.52 L125.93,93.52 L125.93,97 Z" id="Shape" fill="#A6C4DD"></path>
                <path d="M72.67,104.65 L72.67,110.92 L127.33,110.92 L127.33,104.65 L72.67,104.65 Z M95.38,106.05 L104.62,106.05 L104.62,109.52 L95.38,109.52 L95.38,106.05 Z M94,109.52 L84.72,109.52 L84.72,106.05 L94,106.05 L94,109.52 Z M106,106.05 L115.25,106.05 L115.25,109.52 L106,109.52 L106,106.05 Z M74,106.05 L83.25,106.05 L83.25,109.52 L74.07,109.52 L74,106.05 Z M125.86,109.52 L116.61,109.52 L116.61,106.05 L125.86,106.05 L125.86,109.52 Z" id="Shape" fill="#A6C4DD"></path>
                <path d="M52,60.77 L52,54.51 L10.88,54.51 L10.88,60.77 L52,60.77 Z M30.73,59.37 L22.22,59.37 L22.22,55.91 L30.74,55.91 L30.73,59.37 Z M32.14,55.91 L40.66,55.91 L40.66,59.37 L32.15,59.37 L32.14,55.91 Z M50.6,59.37 L42.08,59.37 L42.08,55.91 L50.6,55.91 L50.6,59.37 Z M12.29,55.91 L20.81,55.91 L20.81,59.37 L12.29,59.37 L12.29,55.91 Z" id="Shape" fill="#A6C4DD"></path>
                <path d="M52,73.31 L52,67 L10.88,67 L10.88,73.27 L52,73.31 Z M30.73,71.91 L22.22,71.91 L22.22,68.44 L30.74,68.44 L30.73,71.91 Z M32.14,68.44 L40.66,68.44 L40.66,71.91 L32.15,71.91 L32.14,68.44 Z M50.6,71.91 L42.08,71.91 L42.08,68.44 L50.6,68.44 L50.6,71.91 Z M12.29,68.44 L20.81,68.44 L20.81,71.91 L12.29,71.91 L12.29,68.44 Z" id="Shape" fill="#A6C4DD"></path>
                <path d="M52,85.85 L52,79.58 L10.88,79.58 L10.88,85.85 L52,85.85 Z M30.74,84.44 L22.22,84.44 L22.22,81 L30.74,81 L30.74,84.44 Z M32.15,81 L40.67,81 L40.67,84.46 L32.15,84.46 L32.15,81 Z M50.6,84.44 L42.08,84.44 L42.08,81 L50.6,81 L50.6,84.44 Z M12.29,81 L20.81,81 L20.81,84.46 L12.29,84.46 L12.29,81 Z" id="Shape" fill="#A6C4DD"></path>
                <path d="M52,98.38 L52,92.11 L10.88,92.11 L10.88,98.38 L52,98.38 Z M30.74,97 L22.22,97 L22.22,93.52 L30.74,93.52 L30.74,97 Z M32.15,93.54 L40.67,93.54 L40.67,97 L32.15,97 L32.15,93.54 Z M50.6,97 L42.08,97 L42.08,93.52 L50.6,93.52 L50.6,97 Z M12.29,93.52 L20.81,93.52 L20.81,97 L12.29,97 L12.29,93.52 Z" id="Shape" fill="#A6C4DD"></path>
                <path d="M52,110.92 L52,104.65 L10.88,104.65 L10.88,110.92 L52,110.92 Z M30.73,109.52 L22.22,109.52 L22.22,106.05 L30.74,106.05 L30.73,109.52 Z M32.14,106.05 L40.66,106.05 L40.66,109.52 L32.15,109.52 L32.14,106.05 Z M50.59,109.52 L42.08,109.52 L42.08,106.05 L50.6,106.05 L50.59,109.52 Z M12.28,106.05 L20.8,106.05 L20.8,109.52 L12.29,109.52 L12.28,106.05 Z" id="Shape" fill="#A6C4DD"></path>
                <path d="M177.13,58.48 L177.13,54 L169.43,54 L169.43,18.21 C169.430019,18.0226028 169.354898,17.8430226 169.221452,17.7114559 C169.088006,17.5798892 168.907378,17.5073229 168.72,17.5099285 C168.333401,17.5099285 168.02,17.8234007 168.02,18.21 L168.02,54 L159.83,54 L159.83,58.51 L138.37,58.51 L138.37,20.51 L61.63,20.51 L61.63,45.89 L0,45.89 L0,135 L200,135 L200,58.48 L177.13,58.48 Z M161.24,55.37 L175.72,55.37 L175.72,58.48 L161.24,58.48 L161.24,55.37 Z M61.63,133.6 L1.41,133.6 L1.41,47.29 L61.63,47.29 L61.63,133.6 Z M63,45.89 L63,21.89 L137,21.89 L137,133.6 L63,133.6 L63,45.89 Z M198.59,133.6 L138.37,133.6 L138.37,59.88 L198.59,59.88 L198.59,133.6 Z" id="Shape" fill="#A6C4DD"></path>
                <path d="M147.92,67 L147.92,73.27 L189,73.27 L189,67 L147.92,67 Z M169.18,68.4 L177.71,68.4 L177.71,71.87 L169.18,71.87 L169.18,68.4 Z M167.78,71.87 L159.25,71.87 L159.25,68.44 L167.78,68.44 L167.78,71.87 Z M149.32,68.4 L157.85,68.4 L157.85,71.87 L149.32,71.87 L149.32,68.4 Z M187.64,71.87 L179.11,71.87 L179.11,68.44 L187.64,68.44 L187.64,71.87 Z" id="Shape" fill="#A6C4DD"></path>
                <path d="M147.92,79.58 L147.92,85.85 L189,85.85 L189,79.58 L147.92,79.58 Z M169.18,81 L177.71,81 L177.71,84.46 L169.18,84.46 L169.18,81 Z M167.78,84.46 L159.25,84.46 L159.25,81 L167.78,81 L167.78,84.46 Z M149.32,81 L157.85,81 L157.85,84.46 L149.32,84.46 L149.32,81 Z M187.64,84.46 L179.11,84.46 L179.11,81 L187.64,81 L187.64,84.46 Z" id="Shape" fill="#A6C4DD"></path>
                <path d="M147.92,92.11 L147.92,98.38 L189,98.38 L189,92.11 L147.92,92.11 Z M169.18,93.52 L177.71,93.52 L177.71,97 L169.18,97 L169.18,93.52 Z M167.78,97 L159.25,97 L159.25,93.52 L167.78,93.52 L167.78,97 Z M149.32,93.54 L157.85,93.54 L157.85,97 L149.32,97 L149.32,93.54 Z M187.64,97 L179.11,97 L179.11,93.52 L187.64,93.52 L187.64,97 Z" id="Shape" fill="#A6C4DD"></path>
                <path d="M147.92,104.65 L147.92,110.92 L189,110.92 L189,104.65 L147.92,104.65 Z M169.18,106.05 L177.71,106.05 L177.71,109.52 L169.18,109.52 L169.18,106.05 Z M167.78,109.52 L159.25,109.52 L159.25,106.05 L167.78,106.05 L167.78,109.52 Z M149.32,106.05 L157.85,106.05 L157.85,109.52 L149.32,109.52 L149.32,106.05 Z M187.64,109.52 L179.11,109.52 L179.11,106.05 L187.64,106.05 L187.64,109.52 Z" id="Shape" fill="#A6C4DD"></path>
            </g>
        </g>
    </g>
</svg>