<svg xmlns="http://www.w3.org/2000/svg" xmlns:xlink="http://www.w3.org/1999/xlink" width="199" height="135" version="1.1" viewBox="0 0 199 135"><title>7CD2873B-3085-4661-B59F-8792566116B6</title><desc>Created with sketchtool.</desc><g id="Page-1" fill="none" fill-rule="evenodd" stroke="none" stroke-width="1"><g id="Icons" fill-rule="nonzero" transform="translate(-73.000000, -5663.000000)"><g id="max-icon-startup" transform="translate(73.000000, 5663.000000)"><path id="Shape" fill="#2364F9" d="M162.527363,22.08 C161.177034,23.1937113 160.32808,24.8055824 160.170942,26.5540332 C160.013803,28.302484 160.561633,30.0411471 161.691542,31.38 C164.045619,34.1795617 168.202915,34.5541176 171.014925,32.22 C172.361164,31.1013852 173.206812,29.4885028 173.363779,27.7400915 C173.520745,25.9916802 172.976015,24.2527229 171.850746,22.91 C169.491103,20.1187223 165.33848,19.7490414 162.527363,22.08 L162.527363,22.08 Z M170.149254,31.15 C167.921704,32.9927853 164.635112,32.6989852 162.766169,30.49 C161.879349,29.431427 161.449891,28.0607635 161.573203,26.6825212 C161.696516,25.3042789 162.362387,24.0325981 163.422886,23.15 C165.646103,21.2992266 168.936803,21.5889368 170.80597,23.8 C171.698524,24.8580126 172.13157,26.2315862 172.008131,27.6131215 C171.884692,28.9946568 171.215082,30.2687214 170.149254,31.15 L170.149254,31.15 Z"/><path id="Shape" fill="#2364F9" d="M150.139303,34.58 C149.154279,35.3933847 148.534553,36.5694648 148.418626,37.8454044 C148.302698,39.1213439 148.700233,40.3907753 149.522388,41.37 C151.244329,43.4157705 154.283772,43.6877896 156.338308,41.98 C157.31952,41.1636289 157.935586,39.9871603 158.049565,38.7121039 C158.163543,37.4370476 157.76599,36.1690621 156.945274,35.19 C155.224193,33.1506434 152.192303,32.8789035 150.139303,34.58 L150.139303,34.58 Z M155.452736,40.92 C153.983306,42.1329229 151.817446,41.9370653 150.587065,40.48 C149.742528,39.4518718 149.565147,38.025899 150.131844,36.8204635 C150.698542,35.6150279 151.90726,34.8472183 153.233831,34.849986 C154.253526,34.8470947 155.222351,35.2973251 155.880597,36.08 C156.4728,36.7740334 156.759981,37.6795696 156.676617,38.59 C156.591433,39.4988039 156.151343,40.3366389 155.452736,40.92 Z"/><path id="Shape" fill="#2364F9" d="M141.482587,44.66 C140.483236,45.4649718 140.106182,46.8209123 140.545488,48.0299494 C140.984794,49.2389864 142.14255,50.0316605 143.422886,50 C144.126467,50.0018352 144.808824,49.7579279 145.353234,49.31 C145.96963,48.8008758 146.357572,48.0649469 146.430481,47.2664534 C146.50339,46.4679599 146.255198,45.6733645 145.741294,45.06 C144.669612,43.7783145 142.772021,43.6000829 141.482587,44.66 Z M144.467662,48.22 C143.768737,48.8021532 142.733341,48.7083677 142.149254,48.01 C141.872107,47.6832739 141.739193,47.2572671 141.781095,46.83 C141.815401,46.3965613 142.023755,45.9958209 142.358209,45.72 C142.655819,45.4751645 143.028331,45.3409546 143.412935,45.3399927 C143.897567,45.3385405 144.357455,45.5549617 144.666667,45.93 C144.94794,46.2587898 145.08439,46.6882298 145.044776,47.12 C145.006101,47.5470898 144.802503,47.9419634 144.477612,48.22 L144.467662,48.22 Z"/><path id="Path" fill="#2364F9" d="M193.353234,21.34 C185.226596,18.137512 179.267508,11.0155962 177.522388,2.42 C177.447398,2.04774893 177.087167,1.80639462 176.716418,1.88 C176.534839,1.91157053 176.37351,2.01517427 176.268716,2.16751001 C176.163921,2.31984575 176.124459,2.50812412 176.159204,2.69 C177.9988,11.7408292 184.271029,19.2411606 192.825871,22.62 C192.908978,22.650145 192.996272,22.6670163 193.084577,22.6701128 C193.415695,22.6759816 193.703872,22.4435609 193.769759,22.1173865 C193.835645,21.7912121 193.660461,21.4642553 193.353234,21.34 L193.353234,21.34 Z"/><path id="Path" fill="#A6C4DD" d="M133.930348,123 C130.437811,119.81 125.18408,118.73 118.298507,119.79 C118.298507,119.79 118.298507,119.79 118.218905,119.79 C117.150606,116.912701 115.54275,114.268201 113.482587,112 L131.621891,91.61 C131.824715,91.3134912 131.77477,90.9113757 131.505643,90.6740739 C131.236515,90.4367721 130.833303,90.4393182 130.567164,90.68 L107.303483,116.85 C107.177307,116.989572 107.112501,117.174403 107.123739,117.362639 C107.134977,117.550874 107.221308,117.726591 107.363184,117.85 C107.494312,117.960204 107.659911,118.020401 107.830846,118.02 C108.027666,118.019117 108.215198,117.935756 108.348259,117.79 L112.547264,113.07 C114.248756,115 119.512438,121.78 117.034826,128.66 C116.970858,128.83501 116.979003,129.028435 117.057455,129.197387 C117.135907,129.366339 117.278183,129.496857 117.452736,129.56 C117.52873,129.590859 117.609609,129.607793 117.691542,129.61 C117.985015,129.611023 118.247641,129.427065 118.348259,129.15 C119.268743,126.577739 119.366155,123.780644 118.626866,121.15 C125.004975,120.15 129.830846,121.15 132.985075,124.01 C136.457711,127.17 136.915423,131.87 136.965174,133.59 L1.40298507,133.59 L1.40298507,49.54 C1.40298507,39.19 3.79104478,31.78 8.48756219,27.54 C11.2435985,25.0286909 14.8697188,23.7038352 18.5870647,23.85 L18.7164179,23.85 C36.7860697,23.85 37.0447761,36.72 37.0447761,37.27 C37.0447761,37.33 37.0447761,43.27 34.9253731,46.61 C34.8688627,46.7005885 34.834745,46.8034534 34.8258706,46.91 C33.641791,46.63 32.3880597,46.39 31.0547264,46.2 C30.6740747,46.1523591 30.3251461,46.4186932 30.2686567,46.8 C30.2403708,46.9848353 30.2879478,47.1732932 30.400493,47.3222186 C30.5130382,47.4711441 30.6809115,47.5677808 30.8656716,47.59 C50.318408,50.3 51.8208955,64.2 51.880597,64.8 C51.9164969,65.1590309 52.218075,65.4318083 52.5771144,65.43 L52.6368159,65.43 C52.8218095,65.4147519 52.9930952,65.3259261 53.1126562,65.1832375 C53.2322173,65.0405488 53.2901628,64.8558015 53.2736318,64.67 C52.9299181,62.4324898 52.1740465,60.2790149 51.0447761,58.32 C59.1641791,56.42 64.7462687,59.89 69.1442786,63.52 C70.2123505,64.4145314 71.2289184,65.3694076 72.1890547,66.38 L66.7661692,69.83 C66.6015052,69.9304797 66.4856021,70.0950102 66.4460112,70.2844807 C66.4064204,70.4739511 66.4466778,70.6714393 66.5572139,70.83 C66.6846176,71.0315777 66.9066756,71.1526182 67.1442786,71.15 C67.2784588,71.1524166 67.410241,71.1140784 67.5223881,71.04 L97.2139303,52.09 C97.3825936,51.9933412 97.5026486,51.8294312 97.5443658,51.6388593 C97.586083,51.4482874 97.5455616,51.248874 97.4328358,51.09 C97.3345278,50.9228822 97.171577,50.8043009 96.9829161,50.7625879 C96.7942552,50.720875 96.5968303,50.7597772 96.4378109,50.87 L73.4029851,65.6 C72.3467526,64.4759425 71.2236275,63.4173307 70.039801,62.43 C65.3830846,58.58 59.4427861,54.91 50.7462687,57 C50.6074432,57.0351621 50.4825237,57.1118835 50.3880597,57.22 C48.0199005,53.5 43.7810945,49.41 36.1691542,47.25 C38.4278607,43.58 38.4577114,37.52 38.4577114,37.25 C38.2717182,33.6259574 36.7458489,30.2023325 34.1791045,27.65 C30.7164179,24.19 25.5223881,22.43 18.8159204,22.43 L18.6666667,22.43 C14.5902879,22.2338808 10.6032525,23.6726494 7.58208955,26.43 C2.55721393,31 0,38.76 0,49.54 L0,135 L138.308458,135 L138.308458,134.34 C138.368159,134.06 138.726368,127.37 133.930348,123 Z"/><path id="Path" fill="#A6C4DD" d="M84.4179104,91.06 C84.5567882,91.1868065 84.7406993,91.2519368 84.9279986,91.2406427 C85.1152978,91.2293485 85.2901407,91.1425853 85.4129353,91 L88.6368159,87.37 C89.9502488,88.17 93.6119403,90.71 93.7512438,94.05 L89.7711443,96.62 C89.6048579,96.7187996 89.4868665,96.8825651 89.4453611,97.0721693 C89.4038557,97.2617736 89.4425644,97.4601855 89.5522388,97.62 C89.6796425,97.8215777 89.9017005,97.9426182 90.1393035,97.9401076 C90.2734836,97.9424166 90.4052659,97.9040784 90.5174129,97.83 L120.208955,78.92 C120.533182,78.7101318 120.626735,78.275848 120.41791,77.95 C120.209086,77.624152 119.776963,77.5301318 119.452736,77.74 L95.0646766,93.21 C94.4676617,89.75 91.0845771,87.27 89.5920398,86.3 L108.676617,64.83 C108.912794,64.667769 109.026253,64.3769019 108.962701,64.0965834 C108.89915,63.8162649 108.671512,63.6035037 108.388717,63.5601094 C108.105922,63.5167151 107.825482,63.651513 107.681592,63.9 L84.3681592,90.07 C84.2438951,90.2078032 84.1793024,90.3896382 84.1886364,90.5753748 C84.1979703,90.7611114 84.2804637,90.9354806 84.4179104,91.06 Z"/><path id="Path" fill="#A6C4DD" d="M45.7711443,97.53 L45.9502488,97.53 C46.2660926,97.5281631 46.542348,97.3158527 46.6268657,97.01 C50.1316653,83.6156295 42.178942,69.8995195 28.8557214,66.36 C28.4820362,66.2605888 28.0989167,66.4844464 28,66.86 C27.9010834,67.2355536 28.1238273,67.6205887 28.4975124,67.72 C34.5530232,69.3228226 39.7250866,73.2813013 42.8724353,78.7219584 C46.0197841,84.1626155 46.8837289,90.6382685 45.2736318,96.72 C45.2031757,97.0792108 45.4200512,97.4323058 45.7711443,97.53 L45.7711443,97.53 Z"/><path id="Path" fill="#A6C4DD" d="M18.4776119,109 C18.2287702,109.008932 18.0035722,109.150604 17.8868479,109.371651 C17.7701236,109.592697 17.7796061,109.859536 17.9117235,110.071651 C18.0438409,110.283766 18.2785215,110.408932 18.5273632,110.4 C23.6922074,110.190908 28.0565517,114.210816 28.2985075,119.4 C28.3092799,119.778767 28.6179884,120.080155 28.9950249,120.08 L28.9950249,120.08 C29.179812,120.072212 29.3539299,119.990882 29.4789894,119.853942 C29.6040489,119.717002 29.6697804,119.535696 29.6616915,119.35 C29.397932,113.397054 24.4025536,108.774217 18.4776119,109 Z"/><path id="Path" fill="#A6C4DD" d="M48.119403,116.45 C47.9657571,116.561664 47.8640492,116.731455 47.8377601,116.920173 C47.811471,117.108891 47.8628731,117.300224 47.9800995,117.45 C48.0893861,117.606853 48.2586142,117.71101 48.4473052,117.737559 C48.6359961,117.764108 48.8271793,117.71066 48.9751244,117.59 C59.3668975,109.857213 74.0172305,111.980979 81.8109453,122.35 C81.9444703,122.523857 82.1496503,122.62696 82.3681592,122.63 C82.5187493,122.62929 82.6651737,122.580238 82.7860697,122.49 C82.9421419,122.380167 83.0457815,122.210093 83.0721982,122.020458 C83.098615,121.830824 83.045433,121.638685 82.9253731,121.49 C74.6716963,110.484759 59.128729,108.234095 48.119403,116.45 Z"/><path id="Shape" fill="#002465" d="M115.830846,57.54 L111.044776,61.54 L100.905473,49.05 L105.472637,45.23 C105.618815,45.1108838 105.710812,44.9373895 105.727681,44.7490187 C105.74455,44.560648 105.684855,44.3734332 105.562189,44.23 C105.31214,43.9290235 104.866668,43.8887305 104.567164,44.14 L99.5024876,48.41 L99.5024876,48.41 L96.0995025,51.24 L108.218905,65.7 L111.402985,63.05 L111.402985,63.05 L116.736318,58.62 C117.033068,58.3714719 117.073162,57.9282338 116.825871,57.63 C116.578579,57.3317662 116.137546,57.2914719 115.840796,57.54 L115.830846,57.54 Z M108.378109,63.74 L98.0597015,51.43 L99.8308458,50 L109.970149,62.47 L108.378109,63.74 Z"/><path id="Shape" fill="#002465" d="M139.233831,84.05 C138.972636,83.7633691 138.532228,83.7368125 138.238806,83.99 L133.502488,88.22 L123.124378,76.11 L128.099502,71.93 C128.244231,71.8094392 128.334326,71.6352048 128.349317,71.4468851 C128.364307,71.2585654 128.302921,71.0721518 128.179104,70.93 C127.926146,70.6321032 127.480945,70.5963091 127.18408,70.85 L118.597015,78.09 L130.736318,92.56 L133.890547,89.74 L133.890547,89.74 L139.164179,85.03 C139.449918,84.7773249 139.480935,84.3409256 139.233831,84.05 Z M130.875622,90.56 L120.567164,78.27 L122.059701,77.01 L132.457711,89.15 L130.875622,90.56 Z"/><path id="Shape" fill="#A6C4DD" d="M198.537313,0.82 C198.193038,0.470104863 197.732497,0.260044817 197.243781,0.23 C196.169154,0.13 170.746269,-2.11 156.218905,9.79 L137.004975,25.79 C136.321601,26.406026 135.596836,26.9740358 134.835821,27.49 C131.369056,25.3300164 126.91791,25.6317296 123.771144,28.24 L119.890547,31.46 C119.827519,31.4256766 119.760737,31.3988299 119.691542,31.38 C115.363184,30.57 111.333333,27.97 107.701493,23.65 L107.253731,23.11 L95.2835821,33 L95.2835821,33 C95.241766,33.0421957 95.2050297,33.0891847 95.1741294,33.14 C95.1741294,33.14 95.1243781,33.14 95.1144279,33.22 C95.1087037,33.2664894 95.1087037,33.3135106 95.1144279,33.36 C95.1144279,33.36 95.1144279,33.43 95.1144279,33.48 C95.1101348,33.5298808 95.1101348,33.5801192 95.1144279,33.63 C95.1089742,33.6664618 95.1089742,33.7035382 95.1144279,33.74 C95.1349829,33.7898528 95.1617291,33.8368927 95.1940299,33.88 L95.1940299,33.99 L95.1940299,33.99 L100,39.71 L100,39.71 L104.477612,45.14 L104.477612,45.14 L115.691542,58.52 L115.691542,58.52 L132.776119,78.9 C132.776119,78.9 132.776119,78.99 132.855721,79.04 L132.965174,79.12 L147.522388,96.47 C147.563842,96.5235693 147.618814,96.5650045 147.681592,96.59 C147.681592,96.59 147.731343,96.65 147.761194,96.66 C147.855929,96.6991131 147.957285,96.7194856 148.059701,96.72 C148.135248,96.7350882 148.213011,96.7350882 148.288557,96.72 C148.327025,96.7038939 148.363709,96.6837843 148.39801,96.66 L148.507463,96.6 L148.507463,96.6 L160.447761,86.66 L160,86.12 C156.238806,81.64 154.38806,77.06 154.497512,72.5 L158.278607,69.36 C161.409485,66.7744109 162.502238,62.4423312 160.975124,58.67 C161.600465,58.0288687 162.265114,57.4276939 162.965174,56.87 L182.159204,40.87 C189.661692,34.51 193.820896,24.36 195.9801,16.96 C197.424715,12.1780251 198.437111,7.27481804 199.004975,2.31 C199.070207,1.76879281 198.899728,1.22563747 198.537313,0.82 L198.537313,0.82 Z M124.636816,29.3 C128.055844,26.4663514 133.104167,26.9114009 135.9801,30.3 C137.341545,31.9281847 138.001864,34.0341737 137.815157,36.152638 C137.62845,38.2711022 136.610085,40.2276601 134.985075,41.59 L116.41791,57.09 L111.9801,51.8 L125.99005,39.8 C126.197669,39.6432519 126.301286,39.3834444 126.258865,39.1259751 C126.216444,38.8685058 126.035029,38.6561314 125.788217,38.5750071 C125.541405,38.4938828 125.270182,38.5574804 125.084577,38.74 L111.074627,50.74 L106.099502,44.79 L124.636816,29.3 Z M105.144279,43.71 L101.492537,39.38 L112.597015,30 C114.425703,31.2011207 116.444635,32.0803655 118.567164,32.6 L105.144279,43.71 Z M111.442786,29.13 L100.656716,38.31 L96.7661692,33.67 L107.094527,25.07 C108.395199,26.5758221 109.852971,27.9369549 111.442786,29.13 L111.442786,29.13 Z M148.258706,95.05 L144.467662,90.52 L155.174129,81.08 C156.100815,82.9991519 157.24973,84.8016294 158.597015,86.45 L148.258706,95.05 Z M154.587065,79.73 L143.562189,89.45 L139.721393,84.87 L153.243781,73.62 C153.323356,75.7141636 153.753943,77.7798237 154.517413,79.73 L154.587065,79.73 Z M160.338308,62.84 C160.153951,64.9527891 159.132031,66.9023448 157.502488,68.25 L138.756219,83.79 L134.447761,78.65 L148.437811,66.71 C148.682668,66.4452289 148.690506,66.0378407 148.456016,65.7637547 C148.221526,65.4896688 147.81957,65.4363885 147.522388,65.64 L133.59204,77.58 L128.527363,71.58 L147.144279,56 C150.547015,53.1719472 155.579533,53.6175578 158.437811,57 C159.8095,58.6173544 160.470099,60.7245232 160.268657,62.84 L160.338308,62.84 Z M181.422886,39.84 L162.189055,55.73 C161.543297,56.2247776 160.928531,56.7591261 160.348259,57.33 C160.098529,56.8993131 159.812223,56.4911271 159.492537,56.11 C156.142246,52.1609199 150.263747,51.6319213 146.268657,54.92 L127.58209,70.46 L117.263682,58.16 L135.860697,42.69 C137.78291,41.0974548 138.99017,38.797358 139.212675,36.3037376 C139.43518,33.8101173 138.654383,31.3308482 137.044776,29.42 C136.726266,29.0349292 136.373205,28.6801027 135.99005,28.36 C136.660442,27.8938453 137.298712,27.3826801 137.900498,26.83 L157.084577,10.83 C171.144279,-0.65 196.855721,1.6 197.174129,1.63 C197.298242,1.64181948 197.416029,1.69056262 197.512438,1.77 C197.591041,1.89854396 197.622701,2.05056532 197.60199,2.2 C197.58209,2.46 195.243781,28 181.353234,39.8 L181.422886,39.84 Z"/></g></g></g></svg>