<svg xmlns="http://www.w3.org/2000/svg" xmlns:xlink="http://www.w3.org/1999/xlink" width="200" height="135" version="1.1" viewBox="0 0 200 135"><title>4A16AB94-8CA7-4D83-9D58-F6B964948499</title><desc>Created with sketchtool.</desc><g id="Page-1" fill="none" fill-rule="evenodd" stroke="none" stroke-width="1"><g id="Icons" fill-rule="nonzero" transform="translate(-413.000000, -5663.000000)"><g id="max-icon-sme" transform="translate(413.000000, 5663.000000)"><path id="Shape" fill="#002465" d="M18.159204,119 L37.721393,119 L37.721393,102.25 L18.159204,102.25 L18.159204,119 Z M19.5621891,103.62 L36.318408,103.62 L36.318408,117.62 L19.5621891,117.62 L19.5621891,103.62 Z"/><path id="Shape" fill="#002465" d="M78.1890547,102.25 L78.1890547,119 L97.7412935,119 L97.7412935,102.25 L78.1890547,102.25 Z M96.3482587,117.63 L79.60199,117.63 L79.60199,103.63 L96.3482587,103.63 L96.3482587,117.63 Z"/><polygon id="Path" fill="#002465" points="41.055 134.34 42.458 134.34 42.458 99.4 57.562 99.4 57.562 134.34 58.965 134.34 58.965 99.4 74.07 99.4 74.07 134.34 75.473 134.34 75.473 98 41.055 98"/><path id="Shape" fill="#A6C4DD" d="M190.288557,68.62 L190.288557,20.41 C190.288557,20.41 190.288557,20.41 190.288557,20.34 L190.288557,20.21 C190.294186,20.1668513 190.294186,20.1231487 190.288557,20.08 C190.267726,20.0450507 190.24445,20.0116332 190.218905,19.98 C190.190946,19.9418138 190.157399,19.9080989 190.119403,19.88 C190.086868,19.8509485 190.049916,19.8273165 190.00995,19.81 C189.972082,19.7801298 189.927783,19.7595818 189.880597,19.75 L189.820896,19.75 L95.2835821,0 L95.1442786,0 L0.55721393,19.72 L0.497512438,19.72 C0.451848125,19.73391 0.408317847,19.7541014 0.368159204,19.78 C0.328193234,19.7973165 0.291241857,19.8209485 0.258706468,19.85 L0.169154229,20 C0.139402268,20.034202 0.112761611,20.071016 0.0895522388,20.11 C0.0853303452,20.1531487 0.0853303452,20.1968513 0.0895522388,20.24 L0.0895522388,20.37 C0.0895522388,20.37 0.0895522388,20.42 0.0895522388,20.44 L0.0895522388,135 L197.343284,135 C197.5743,134.997641 197.788151,134.876984 197.910448,134.68 C198.12106,134.83647 198.401905,134.858883 198.63445,134.73778 C198.866995,134.616677 199.010724,134.373158 199.005141,134.11 L199.005141,68.62 L190.288557,68.62 Z M114.427861,133.6 L102.686567,133.6 L102.686567,88.1 C102.644179,87.7429451 102.342873,87.474113 101.985075,87.474113 C101.627276,87.474113 101.32597,87.7429451 101.283582,88.1 L101.283582,133.6 L14.6268657,133.6 L14.6268657,88.1 C14.6214246,87.7117886 14.3067163,87.3999615 13.920398,87.4 C13.7356701,87.4 13.5585082,87.4737498 13.4278858,87.6050253 C13.2972635,87.7363007 13.2238806,87.9143485 13.2238806,88.1 L13.2238806,133.6 L1.40298507,133.6 L1.40298507,21 L95.1442786,1.43 L188.885572,21 L188.885572,68.62 L114.427861,68.62 L114.427861,133.6 Z M188.81592,133.6 L124.606965,133.6 L124.606965,82.6 L188.825871,82.6 L188.81592,133.6 Z M197.59204,133.65 C197.509437,133.618047 197.421837,133.601116 197.333333,133.6 L190.218905,133.6 L190.218905,81.2 L123.21393,81.2 L123.21393,133.6 L115.830846,133.6 L115.830846,70 L197.60199,70 L197.59204,133.65 Z"/><path id="Path" fill="#A6C4DD" d="M130.636816,91.29 L182.79602,91.29 C183.180696,91.29 183.492537,90.9765993 183.492537,90.59 C183.492537,90.2034007 183.180696,89.89 182.79602,89.89 L130.636816,89.89 C130.25214,89.89 129.940299,90.2034007 129.940299,90.59 C129.940299,90.9765993 130.25214,91.29 130.636816,91.29 L130.636816,91.29 Z"/><path id="Path" fill="#A6C4DD" d="M130.636816,100.23 L182.79602,100.23 C183.066588,100.262443 183.331601,100.13561 183.477076,99.9040541 C183.622551,99.6724979 183.622551,99.3775021 183.477076,99.1459459 C183.331601,98.9143897 183.066588,98.7875573 182.79602,98.82 L130.636816,98.82 C130.281537,98.8625999 130.014043,99.1654128 130.014043,99.525 C130.014043,99.8845872 130.281537,100.1874 130.636816,100.23 L130.636816,100.23 Z"/><path id="Path" fill="#A6C4DD" d="M130.636816,109.16 L182.79602,109.16 C183.180696,109.16 183.492537,108.846599 183.492537,108.46 C183.492537,108.073401 183.180696,107.76 182.79602,107.76 L130.636816,107.76 C130.25214,107.76 129.940299,108.073401 129.940299,108.46 C129.940299,108.846599 130.25214,109.16 130.636816,109.16 Z"/><path id="Path" fill="#A6C4DD" d="M130.636816,118.1 L182.79602,118.1 C183.066588,118.132443 183.331601,118.00561 183.477076,117.774054 C183.622551,117.542498 183.622551,117.247502 183.477076,117.015946 C183.331601,116.78439 183.066588,116.657557 182.79602,116.69 L130.636816,116.69 C130.281537,116.7326 130.014043,117.035413 130.014043,117.395 C130.014043,117.754587 130.281537,118.0574 130.636816,118.1 L130.636816,118.1 Z"/><path id="Path" fill="#A6C4DD" d="M130.636816,127 L182.79602,127 C183.180696,127 183.492537,126.686599 183.492537,126.3 C183.492537,125.913401 183.180696,125.6 182.79602,125.6 L130.636816,125.6 C130.25214,125.6 129.940299,125.913401 129.940299,126.3 C129.940299,126.686599 130.25214,127 130.636816,127 L130.636816,127 Z"/><path id="Shape" fill="#A6C4DD" d="M146.119403,37.93 L10.2587065,37.93 L10.2587065,54.71 L180.606965,54.71 L180.606965,37.93 L146.119403,37.93 Z M44.0497512,53.31 L11.6616915,53.31 L11.6616915,39.31 L44.0497512,39.31 L44.0497512,53.31 Z M77.880597,53.31 L45.4427861,53.31 L45.4427861,39.31 L77.840796,39.31 L77.880597,53.31 Z M111.711443,53.31 L79.2338308,53.31 L79.2338308,39.31 L111.631841,39.31 L111.711443,53.31 Z M145.492537,53.31 L113.024876,53.31 L113.024876,39.31 L145.412935,39.31 L145.492537,53.31 Z M146.895522,39.31 L179.20398,39.31 L179.20398,53.31 L146.81592,53.31 L146.895522,39.31 Z"/><path id="Shape" fill="#A6C4DD" d="M120.099502,12.44 L70.6467662,12.44 L70.6467662,28.44 L120.099502,28.44 L120.099502,12.44 Z M118.686567,27 L72.0696517,27 L72.0696517,13.84 L118.686567,13.84 L118.686567,27 Z"/><path id="Shape" fill="#A6C4DD" d="M87.2736318,24.3500546 C89.2851059,24.3279656 90.9000531,22.6752221 90.8854763,20.6536237 C90.8708994,18.6320252 89.2322888,17.0029768 87.2207082,17.0102175 C85.2091276,17.0175065 83.582209,18.6583485 83.5820896,20.68 C83.5873532,21.6586533 83.979243,22.5951205 84.6715446,23.2833821 C85.3638462,23.9716437 86.2998476,24.3553187 87.2736318,24.3500546 L87.2736318,24.3500546 Z M87.2736318,18.41 C88.5184315,18.4210227 89.5196948,19.4421653 89.5124386,20.693216 C89.5051032,21.9442666 88.4919989,22.9535442 87.2471562,22.9499121 C86.0023135,22.9462604 84.9950732,21.9310722 84.9950249,20.68 C85.0059481,19.4230854 86.0229228,18.4099521 87.2736318,18.41 L87.2736318,18.41 Z"/><path id="Path" fill="#A6C4DD" d="M93.1243781,19.84 L107.462687,19.84 C107.711528,19.84 107.941468,19.7065808 108.065888,19.49 C108.190309,19.2734193 108.190309,19.0065807 108.065888,18.79 C107.941468,18.5734192 107.711528,18.44 107.462687,18.44 L93.1243781,18.44 C92.8755364,18.44 92.6455972,18.5734192 92.5211763,18.79 C92.3967554,19.0065807 92.3967554,19.2734193 92.5211763,19.49 C92.6455972,19.7065808 92.8755364,19.84 93.1243781,19.84 L93.1243781,19.84 Z"/><path id="Path" fill="#A6C4DD" d="M93.1243781,22.81 L101.890547,22.81 C102.275223,22.81 102.587065,22.4965993 102.587065,22.11 C102.587065,21.7234007 102.275223,21.41 101.890547,21.41 L93.1243781,21.41 C92.7397022,21.41 92.4278607,21.7234007 92.4278607,22.11 C92.4278607,22.4965993 92.7397022,22.81 93.1243781,22.81 L93.1243781,22.81 Z"/><path id="Shape" fill="#2364F9" d="M108.597015,77.86 L108.597015,77.73 C108.600939,77.6900972 108.600939,77.6499028 108.597015,77.61 C108.579785,77.5698342 108.55627,77.5326981 108.527363,77.5 C108.499404,77.4618138 108.465857,77.4280989 108.427861,77.4 C108.423648,77.3836022 108.423648,77.3663978 108.427861,77.35 L93.9800995,67.45 L22.0497512,67.45 L7.60199005,77.35 L7.60199005,77.4 C7.56399384,77.4280989 7.53044667,77.4618138 7.50248756,77.5 C7.47358063,77.5326981 7.45006612,77.5698342 7.43283582,77.61 C7.42989255,77.6499028 7.42989255,77.6900972 7.43283582,77.73 L7.43283582,77.86 C7.43283582,77.86 7.43283582,77.86 7.43283582,77.93 L7.43283582,79.88 C7.43488571,82.1756442 8.35755186,84.3735561 9.99228419,85.976942 C11.6270165,87.5803279 13.835807,88.4538261 16.119403,88.4 C18.4808699,88.4221652 20.8091805,87.8406183 22.8855721,86.71 C24.9751244,89.23 27.8606965,90.36 31.9900498,90.36 C34.9103766,90.5247762 37.7818984,89.5544619 40.0099502,87.65 C42,89.24 49.7313433,94.49 57.6716418,87.98 L57.960199,87.67 L58.2487562,87.98 C60.5600119,89.9954643 63.5073821,91.1221987 66.5671642,91.16 C69.9795862,91.0324089 73.2599137,89.8013962 75.920398,87.65 C78.1474234,89.5562857 81.0196932,90.5268527 83.9402985,90.36 C88.1094527,90.36 90.9552239,89.23 93.0447761,86.71 C95.1565886,87.8605569 97.5285602,88.4427354 99.9303483,88.4 C102.213157,88.4510601 104.420358,87.5766568 106.054482,85.9738678 C107.688605,84.3710788 108.612133,82.1747855 108.616915,79.88 L108.616915,77.93 C108.616915,77.93 108.597015,77.89 108.597015,77.86 Z M105.681592,77.23 L93.5323383,77.23 L85.4925373,68.84 L93.4527363,68.84 L105.681592,77.23 Z M42.6666667,68.84 L39.5024876,77.23 L24.3482587,77.23 L32.3781095,68.84 L42.6666667,68.84 Z M44.1492537,68.84 L57.2636816,68.84 L57.2636816,77.23 L40.9751244,77.23 L44.1492537,68.84 Z M58.6467662,68.84 L71.761194,68.84 L74.9353234,77.23 L58.6467662,77.23 L58.6467662,68.84 Z M76.4079602,77.23 L73.2338308,68.84 L83.5820896,68.84 L91.5422886,77.23 L76.4079602,77.23 Z M22.4776119,68.84 L30.4378109,68.84 L22.4079602,77.23 L10.2288557,77.23 L22.4776119,68.84 Z M8.68656716,79.84 L8.68656716,78.62 L22.358209,78.62 L22.358209,85.36 C20.8955224,86.49 18.0497512,87 15.9900498,87 C14.0765938,87.0483862 12.2242485,86.3209472 10.8503698,84.9815839 C9.47649104,83.6422205 8.69665464,81.8036052 8.68656716,79.88 L8.68656716,79.84 Z M23.7412935,85.52 L23.7412935,78.62 L39.2835821,78.62 L39.2835821,86.42 C37.3631841,88.2 35.1641791,89 31.9800995,89 C28.1293532,89 25.5721393,87.91 23.7412935,85.56 L23.7412935,85.52 Z M40.6567164,86.38 L40.6567164,78.58 L57.2636816,78.58 L57.2636816,86.33 L56.7462687,86.9 C49.1840796,93.1 42.0099502,87.57 40.6666667,86.42 L40.6567164,86.38 Z M59.1442786,86.9 L58.6368159,86.33 L58.6368159,78.62 L75.2437811,78.62 L75.2437811,86.42 C73.9004975,87.58 66.7462687,93.12 59.1542289,86.94 L59.1442786,86.9 Z M83.920398,88.9 C80.7363184,88.9 78.5373134,88.13 76.6169154,86.35 L76.6169154,78.55 L92.1691542,78.55 L92.1691542,85.49 C90.3283582,87.91 87.7810945,89 83.9303483,89 L83.920398,88.9 Z M99.9104478,86.9 C97.840796,86.9 95.0447761,86.37 93.5422886,85.24 L93.5422886,78.62 L107.21393,78.62 L107.21393,79.88 C107.201078,81.8009654 106.421754,83.6364064 105.050656,84.9748826 C103.679558,86.3133588 101.831373,87.0429111 99.920398,87 L99.9104478,86.9 Z"/></g></g></g></svg>