<svg xmlns="http://www.w3.org/2000/svg" viewBox="0 0 200 135"><g fill="none" fill-rule="nonzero"><path fill="#2364F9" d="M33.12 24.06h13a.7.7 0 100-1.39h-13a.7.7 0 000 1.39zM48.85 24.06h6.35a.7.7 0 100-1.39h-6.35a.7.7 0 100 1.39zM77.49 22.67H57.76a.7.7 0 100 1.39h19.73a.7.7 0 000-1.39zM33.12 37.79h22.26a.69.69 0 100-1.38H33.12a.69.69 0 100 1.38zM56.07 71.73a.69.69 0 00-.69-.7H33.12a.7.7 0 000 1.39h22.26a.69.69 0 00.69-.69zM66.9 36.41h-8.5a.69.69 0 100 1.38h8.5a.69.69 0 100-1.38zM66.44 71h-8.68a.7.7 0 100 1.39h8.68a.7.7 0 100-1.39zM56.92 26.59H42.16a.7.7 0 000 1.39h14.76a.7.7 0 100-1.39zM66.44 52.69H48.62a.7.7 0 000 1.39h17.82a.7.7 0 100-1.39zM42.16 30.52a.7.7 0 000 1.39h6.35a.7.7 0 100-1.39h-6.35zM52.72 49.17a.69.69 0 00-.7-.69h-9.86a.69.69 0 100 1.38H52a.69.69 0 00.72-.69zM75.53 30.52H66.9a.7.7 0 100 1.39h8.63a.7.7 0 100-1.39zM50.38 31.21a.69.69 0 00.69.7h11.39a.7.7 0 100-1.39H51.07a.69.69 0 00-.69.69zM61.89 56.91H42.16a.7.7 0 000 1.39h19.73a.7.7 0 000-1.39zM42.16 62.22h6.35a.69.69 0 100-1.38h-6.35a.69.69 0 100 1.38zM66.79 61.53a.69.69 0 00-.7-.69h-15a.69.69 0 100 1.38h15a.69.69 0 00.7-.69zM42.16 66.15h13.37a.7.7 0 100-1.39H42.16a.7.7 0 000 1.39zM41.47 76.05a.69.69 0 00.69.7h19.73a.7.7 0 000-1.39H42.16a.69.69 0 00-.69.69zM48.51 79.28h-6.35a.7.7 0 000 1.39h6.35a.7.7 0 100-1.39zM64.45 79.28H51.07a.7.7 0 000 1.39h13.38a.7.7 0 000-1.39zM66.79 41a.69.69 0 00-.7-.69H48.55a.7.7 0 000 1.39h17.54a.7.7 0 00.7-.7zM64 45a.69.69 0 00-.7-.69H48.55a.69.69 0 100 1.38h14.74A.69.69 0 0064 45z"/><path fill="#A6C4DD" d="M35.46 11.58c1.46 0 2.61-1.47 2.61-3.36s-1.15-3.36-2.61-3.36-2.6 1.47-2.6 3.36 1.14 3.36 2.6 3.36zm0-5.32c.57 0 1.2.8 1.2 2s-.63 2-1.2 2-1.19-.8-1.19-2 .63-2 1.19-2zM56.94 7.36a.65.65 0 00.36-.1l.79-.46v4.08a.7.7 0 001.4 0V5.56a.68.68 0 000-.14s0-.09-.05-.13c-.05-.04 0 0 0 0v-.06a.52.52 0 00-.1-.11.41.41 0 00-.21-.12L59 4.9h-.4l-.14.05-1.85 1.1a.7.7 0 00.33 1.31zM71.52 7.36a.68.68 0 00.36-.1l.78-.46v4.08a.7.7 0 00.71.7.7.7 0 00.7-.7V5.56a.35.35 0 000-.14.65.65 0 000-.13v-.06a.52.52 0 00-.1-.11.41.41 0 00-.26-.12l-.12-.06h-.4l-.14.05-1.85 1.1a.7.7 0 00-.24 1 .69.69 0 00.56.27zM77.9 7.36a.68.68 0 00.36-.1L79 6.8v4.08a.71.71 0 001.41 0V5.56a.35.35 0 000-.14.65.65 0 000-.13l-.06-.06L80.2 5h-.11L80 4.9H79.56l-.13.05h-.05l-1.84 1.1a.69.69 0 00-.25 1 .72.72 0 00.61.31zM65.53 11.58c1.46 0 2.6-1.47 2.6-3.36S67 4.86 65.53 4.86c-1.47 0-2.6 1.47-2.6 3.36s1.14 3.36 2.6 3.36zm0-5.32c.57 0 1.2.8 1.2 2s-.63 2-1.2 2-1.19-.8-1.19-2 .66-2 1.19-2zM43.66 11.58c1.46 0 2.61-1.47 2.61-3.36s-1.15-3.36-2.61-3.36-2.6 1.47-2.6 3.36 1.14 3.36 2.6 3.36zm0-5.32c.57 0 1.2.8 1.2 2s-.63 2-1.2 2-1.19-.8-1.19-2 .63-2 1.19-2zM51.86 11.58c1.46 0 2.61-1.47 2.61-3.36s-1.15-3.36-2.61-3.36-2.6 1.47-2.6 3.36 1.14 3.36 2.6 3.36zm0-5.32c.57 0 1.2.8 1.2 2s-.63 2-1.2 2-1.19-.8-1.19-2 .63-2 1.19-2zM8.06 7.36a.68.68 0 00.36-.1l.78-.46v4.08a.71.71 0 001.41 0V5.56a.7.7 0 000-.14.65.65 0 000-.13.34.34 0 00-.06-.06L10.36 5h-.11l-.12-.06H9.72l-.13.05-.05.01L7.7 6.06a.69.69 0 00-.25 1 .72.72 0 00.61.3zM8.06 17.32a.68.68 0 00.36-.1l.78-.46v4.08a.71.71 0 001.41 0v-5.32a.7.7 0 000-.14.65.65 0 000-.13l-.06-.06-.19-.19-.11-.07-.12-.06H9.72l-.13.05h-.05L7.7 16a.69.69 0 00-.25 1 .72.72 0 00.61.32zM16.28 21.54a.7.7 0 00.71-.7v-5.46a.69.69 0 00-.05-.13l-.06-.06a.52.52 0 00-.1-.11l-.1-.07a.52.52 0 00-.13-.06h-.4L16 14.9h-.05L14.07 16a.7.7 0 00-.24 1 .71.71 0 001 .24l.78-.46v4.08a.7.7 0 00.67.68zM10.57 35.14a.5.5 0 000-.13l-.06-.06-.09-.11-.11-.07-.12-.06h-.33a.35.35 0 00-.14 0h-.18L7.7 35.82a.7.7 0 00-.25 1 .74.74 0 00.61.34.78.78 0 00.36-.1l.78-.47v4.08a.71.71 0 101.41 0v-5.35a.58.58 0 00-.04-.18zM16.28 41.35a.71.71 0 00.71-.71v-5.46a.5.5 0 00-.09-.18l-.06-.06-.1-.11-.1-.07-.13-.06H15.93l-1.85 1.1a.71.71 0 00-.24 1 .73.73 0 00.61.34.81.81 0 00.36-.1l.78-.47v4.08a.7.7 0 00.69.7zM10.57 54.54a.65.65 0 000-.13l-.06-.06-.09-.11-.11-.07-.12-.06A.8.8 0 0010 54h-.46L7.7 55.23a.69.69 0 00-.25 1 .72.72 0 00.61.34.68.68 0 00.36-.1L9.2 56v4.08a.71.71 0 001.41 0v-5.35a.7.7 0 00-.04-.19zM17 54.54a.69.69 0 00-.05-.13l-.06-.06a.52.52 0 00-.21-.18.34.34 0 00-.12-.06.58.58 0 00-.14 0h-.44l-1.85 1.1a.7.7 0 00-.24 1 .71.71 0 001 .24l.78-.46v4.08a.7.7 0 00.7.7.7.7 0 00.71-.7v-5.34l-.08-.19zM23.92 5.37a.65.65 0 000-.13l-.05-.06a.52.52 0 00-.1-.11L23.6 5l-.12-.06H23.07l-.13.05-1.85 1.1a.7.7 0 00.72 1.2l.78-.46v4.08a.7.7 0 00.71.7.7.7 0 00.7-.7V5.56a.35.35 0 00-.08-.19zM27.24 7.26L28 6.8v4.08a.7.7 0 00.7.7.7.7 0 00.71-.7V5.42a.69.69 0 00-.05-.13l-.06-.06-.12-.23h-.11l-.13-.06h-.4l-.13.05h-.05l-1.85 1.1a.7.7 0 00-.24 1 .71.71 0 001 .24l-.03-.07zM15.61 11.58c1.46 0 2.61-1.47 2.61-3.36s-1.15-3.36-2.61-3.36S13 6.33 13 8.22s1.15 3.36 2.61 3.36zm0-5.32c.57 0 1.2.8 1.2 2s-.63 2-1.2 2-1.19-.8-1.19-2 .63-2 1.19-2zM10.57 44.27a.5.5 0 000-.13l-.12-.14-.09-.1-.11-.08-.12-.05a.35.35 0 00-.14 0h-.13a.7.7 0 00-.14 0h-.18L7.7 45a.7.7 0 00-.25 1 .72.72 0 00.61.34.78.78 0 00.36-.1l.78-.47v4.08a.71.71 0 101.41 0v-5.4a.58.58 0 00-.04-.18zM15.61 43.75c-1.46 0-2.6 1.48-2.6 3.36s1.14 3.37 2.6 3.37c1.46 0 2.61-1.48 2.61-3.37 0-1.89-1.15-3.36-2.61-3.36zm0 5.32c-.56 0-1.19-.8-1.19-2s.63-2 1.19-2c.56 0 1.2.81 1.2 2s-.63 2-1.2 2zM9.3 24.79c-1.46 0-2.6 1.48-2.6 3.37 0 1.89 1.14 3.36 2.6 3.36 1.46 0 2.6-1.48 2.6-3.36s-1.14-3.37-2.6-3.37zm0 5.33c-.57 0-1.19-.81-1.19-2s.62-2 1.19-2 1.2.8 1.2 2-.63 2-1.2 2zM16.28 24.79c-1.46 0-2.6 1.48-2.6 3.37 0 1.89 1.14 3.36 2.6 3.36 1.46 0 2.61-1.48 2.61-3.36s-1.15-3.37-2.61-3.37zm0 5.33c-.56 0-1.19-.81-1.19-2s.63-2 1.19-2c.56 0 1.2.8 1.2 2s-.63 2-1.2 2z"/><path fill="#A6C4DD" d="M195.58 34.85h-62V18.67a3.68 3.68 0 00-3.65-3.67H88.68V3.67A3.68 3.68 0 0085 0H3.68A3.68 3.68 0 000 3.67v59a3.68 3.68 0 003.68 3.67h19.43v27.74a3.68 3.68 0 003.68 3.67h38.95v32.89a4.4 4.4 0 004.42 4.36h125.42a4.4 4.4 0 004.42-4.36V39.21a4.4 4.4 0 00-4.42-4.36zM23.11 39.14a1 1 0 01-.78.5c-.56 0-1.19-.8-1.19-2s.63-2 1.19-2c.323.037.612.221.78.5v3zM24 16.35v-.83a.35.35 0 000-.14.65.65 0 000-.13l-.05-.06a.52.52 0 00-.1-.11l-.11-.07-.12-.06H23.21l-.13.05-2.03 1a.7.7 0 00.72 1.2l.78-.46v4.08a.69.69 0 00.56.67v3.31l-.14.05L21.05 26a.7.7 0 00.72 1.2l.78-.47v4.09a.69.69 0 00.56.67v3a1.43 1.43 0 00-.78-.21c-1.46 0-2.6 1.48-2.6 3.36s1.14 3.37 2.6 3.37a1.43 1.43 0 00.78-.21v2.94h-.13L21.05 45a.7.7 0 00-.24 1 .69.69 0 00.6.34.78.78 0 00.36-.1l.78-.47v4.08a.7.7 0 00.56.68v3.6h-.13l-1.85 1.1a.7.7 0 00.72 1.2l.78-.46v4.08a.69.69 0 00.56.67v4.19H3.68a2.27 2.27 0 01-2.27-2.26v-59A2.27 2.27 0 013.68 1.4H85a2.28 2.28 0 012.28 2.27V15H26.79A3.67 3.67 0 0024 16.35zm41.74 22.86v57.13H26.79a2.27 2.27 0 01-2.28-2.26V18.67a2.28 2.28 0 012.28-2.27h103.14a2.27 2.27 0 012.27 2.27v16.18h-62a4.4 4.4 0 00-4.46 4.36zm21.53 94.39H70.16a3 3 0 01-3-3V39.21a3 3 0 013-3h17.11v97.39zm111.32-3a3 3 0 01-3 3H88.68V36.26h106.9a3 3 0 013 3l.01 91.34z"/><path fill="#002465" d="M109.49 45.58h16.82a.7.7 0 000-1.4h-16.82a.7.7 0 000 1.4zM171.85 50.4h16.77a.71.71 0 000-1.41h-16.77a.71.71 0 000 1.41zM171.85 54.67h12a.71.71 0 100-1.41h-12a.71.71 0 000 1.41zM171.85 58.94h13.88a.7.7 0 000-1.4h-13.88a.7.7 0 000 1.4zM171.85 63.72h10a.7.7 0 000-1.4h-10a.7.7 0 000 1.4zM102.79 47.42a2.54 2.54 0 10-2.55-2.54 2.55 2.55 0 002.55 2.54zm0-3.67a1.13 1.13 0 11-1.14 1.13 1.14 1.14 0 011.14-1.13zM109.49 59.62h16.82a.71.71 0 100-1.41h-16.82a.71.71 0 000 1.41zM102.79 61.45a2.54 2.54 0 10-2.55-2.54 2.55 2.55 0 002.55 2.54zm0-3.67a1.14 1.14 0 110 2.28 1.14 1.14 0 010-2.28zM109.49 66.54h20.8a.7.7 0 000-1.4h-20.8a.7.7 0 000 1.4zM102.79 68.38a2.54 2.54 0 10-2.55-2.54 2.55 2.55 0 002.55 2.54zm0-3.67a1.13 1.13 0 11-1.14 1.13 1.14 1.14 0 011.14-1.13zM109.49 52.61h10.73a.7.7 0 000-1.4h-10.73a.7.7 0 000 1.4zM102.79 54.45a2.54 2.54 0 10-2.55-2.54 2.55 2.55 0 002.55 2.54zm0-3.67a1.14 1.14 0 110 2.28 1.14 1.14 0 010-2.28zM190.12 75.75H95.88l-.09 49.48h94.33V75.75zm-1.41 1.4v37.13c-2.58-12.77-8.57-29.35-17.61-29-10.65.42-14.9 9.62-18.64 17.74-3.14 6.8-6.1 13.22-12.24 13.88-7.6.82-11.66-2-15.58-4.67-3.18-2.19-6.19-4.26-10.66-3.88-7.6.65-13.23 4.85-16.78 12.5l.08-43.72 91.43.02zm0 46.67h-91.2c3.23-8.65 8.81-13.39 16.59-14 4-.34 6.64 1.51 9.74 3.64 3.94 2.71 8.39 5.78 16.53 4.91 6.93-.75 10.06-7.52 13.36-14.69 3.76-8.14 7.64-16.55 17.42-16.93 4.37-.2 8.76 4.88 12.34 14.23a87.74 87.74 0 015.18 22.84h.04zM81.12 43.21h-8.88a.7.7 0 000 1.4h8.88a.7.7 0 000-1.4zM72.24 49.39h7a.7.7 0 000-1.4h-7a.7.7 0 000 1.4zM72.24 54.18h7.92a.71.71 0 000-1.41h-7.92a.71.71 0 000 1.41zM72.24 59h5a.7.7 0 000-1.4h-5a.7.7 0 000 1.4zM81.12 62.34h-8.88a.7.7 0 000 1.4h8.88a.7.7 0 000-1.4zM72.24 68.53h7a.71.71 0 000-1.41h-7a.71.71 0 000 1.41zM81.12 71.91h-8.88a.7.7 0 000 1.4h8.88a.7.7 0 000-1.4zM158.28 65.42a9.58 9.58 0 009.6-9.54 9.6 9.6 0 10-9.6 9.56v-.02zM156 63.68l2.24-5.48 1.72 5.65a7.9 7.9 0 01-1.63.17 8.52 8.52 0 01-2.33-.34zm5.31-.23l-2-6.68 7.21-.17a8.13 8.13 0 01-5.26 6.85h.05zm5.18-8.25l-7.46.17v-7.5a.29.29 0 000-.09 8.18 8.18 0 017.41 7.42h.05zm-8.84-7.42a.29.29 0 000 .09V56l-2.94 7.18a8.11 8.11 0 013-15.38l-.06-.02z"/></g></svg>