<?xml version="1.0" encoding="UTF-8"?>
<svg width="52px" height="40px" viewBox="0 0 52 40" version="1.1" xmlns="http://www.w3.org/2000/svg" xmlns:xlink="http://www.w3.org/1999/xlink">
    <!-- Generator: Sketch 54.1 (76490) - https://sketchapp.com -->
    <title>Group</title>
    <desc>Created with Sketch.</desc>
    <g id="Page-1" stroke="none" stroke-width="1" fill="none" fill-rule="evenodd" stroke-linecap="round" stroke-linejoin="round">
        <g id="Careers---Why-us?" transform="translate(-1057.000000, -2970.000000)" stroke="#000000" stroke-width="2">
            <g id="Group" transform="translate(1058.000000, 2971.000000)">
                <path d="M17.2413793,29.3103448 C17.2413793,34.0706897 13.3810345,37.9310345 8.62068966,37.9310345 C3.85948276,37.9310345 2.66453526e-14,34.0706897 2.66453526e-14,29.3103448 C2.66453526e-14,24.5491379 3.85948276,20.6896552 8.62068966,20.6896552 C13.3810345,20.6896552 17.2413793,24.5491379 17.2413793,29.3103448 Z" id="Stroke-1"></path>
                <path d="M50,29.3103448 C50,34.0706897 46.1396552,37.9310345 41.3793103,37.9310345 C36.6181034,37.9310345 32.7586207,34.0706897 32.7586207,29.3103448 C32.7586207,24.5491379 36.6181034,20.6896552 41.3793103,20.6896552 C46.1396552,20.6896552 50,24.5491379 50,29.3103448 Z" id="Stroke-3" fill="#0167FF"></path>
                <path d="M25,29.3103448 L8.62068966,29.3103448 C16.3793103,9.48275862 36.1275862,16.3534483 36.1275862,16.3534483 C26.6448276,20.6637931 25,29.3103448 25,29.3103448 Z" id="Stroke-5"></path>
                <path d="M23.2758621,29.3103448 L12.9310345,8.62068966" id="Stroke-7"></path>
                <path d="M10.3448276,8.62068966 L17.2413793,8.62068966" id="Stroke-9"></path>
                <path d="M41.3793103,29.3103448 L39.6551724,28.4482759 L33.6206897,7.75862069 C33.6206897,6.55603448 33.6206897,5.17241379 36.2068966,5.17241379 C37.9310345,5.17241379 38.7931034,3.78534483 38.7931034,2.5862069 C38.7931034,1.38534483 37.9310345,3.7658765e-13 36.2068966,3.7658765e-13 L31.0344828,3.7658765e-13" id="Stroke-11"></path>
            </g>
        </g>
    </g>
</svg>