<svg xmlns="http://www.w3.org/2000/svg" width="16" height="16" fill="none" viewBox="0 0 16 16"><path fill="#7898B9" fill-rule="evenodd" d="M6.9987 12.6663C3.86908 12.6663 1.33203 10.1293 1.33203 6.99967C1.33203 3.87006 3.86908 1.33301 6.9987 1.33301C10.1283 1.33301 12.6654 3.87006 12.6654 6.99967C12.6654 8.32425 12.2109 9.54268 11.4494 10.5075L14.4701 13.5283C14.7305 13.7886 14.7305 14.2107 14.4701 14.4711C14.2098 14.7314 13.7876 14.7314 13.5273 14.4711L10.5066 11.4504C9.54172 12.2119 8.32328 12.6663 6.9987 12.6663ZM10.1053 10.0208C10.0899 10.0336 10.075 10.0472 10.0606 10.0616C10.0462 10.076 10.0326 10.0909 10.0198 10.1063C9.23924 10.8654 8.17357 11.333 6.9987 11.333C4.60546 11.333 2.66536 9.39291 2.66536 6.99967C2.66536 4.60644 4.60546 2.66634 6.9987 2.66634C9.39193 2.66634 11.332 4.60644 11.332 6.99967C11.332 8.17454 10.8645 9.24021 10.1053 10.0208Z" clip-rule="evenodd"/><mask id="mask0" width="14" height="14" x="1" y="1" mask-type="alpha" maskUnits="userSpaceOnUse"><path fill="#fff" fill-rule="evenodd" d="M6.9987 12.6663C3.86908 12.6663 1.33203 10.1293 1.33203 6.99967C1.33203 3.87006 3.86908 1.33301 6.9987 1.33301C10.1283 1.33301 12.6654 3.87006 12.6654 6.99967C12.6654 8.32425 12.2109 9.54268 11.4494 10.5075L14.4701 13.5283C14.7305 13.7886 14.7305 14.2107 14.4701 14.4711C14.2098 14.7314 13.7876 14.7314 13.5273 14.4711L10.5066 11.4504C9.54172 12.2119 8.32328 12.6663 6.9987 12.6663ZM10.1053 10.0208C10.0899 10.0336 10.075 10.0472 10.0606 10.0616C10.0462 10.076 10.0326 10.0909 10.0198 10.1063C9.23924 10.8654 8.17357 11.333 6.9987 11.333C4.60546 11.333 2.66536 9.39291 2.66536 6.99967C2.66536 4.60644 4.60546 2.66634 6.9987 2.66634C9.39193 2.66634 11.332 4.60644 11.332 6.99967C11.332 8.17454 10.8645 9.24021 10.1053 10.0208Z" clip-rule="evenodd"/></mask></svg>