<svg width="20" height="20" viewBox="0 0 20 20" fill="none" xmlns="http://www.w3.org/2000/svg">
<path fill-rule="evenodd" clip-rule="evenodd" d="M12.0255 8.039V8C12.0175 8.013 12.0085 8.0265 12 8.039H12.0255Z" fill="#262626"/>
<path fill-rule="evenodd" clip-rule="evenodd" d="M16.9549 16.7419H13.9345V11.9103C13.9345 10.6964 13.4975 9.86811 12.4041 9.86811C11.5697 9.86811 11.0728 10.4266 10.8538 10.9662C10.7741 11.1592 10.7551 11.4286 10.7551 11.6984V16.7419H7.73389C7.73389 16.7419 7.77355 8.5577 7.73389 7.7113H10.7551V8.98955C11.1565 8.37475 11.874 7.49819 13.4777 7.49819C15.4646 7.49819 16.9549 8.7893 16.9549 11.5637V16.7419ZM4.55204 6.47809H4.53181C3.51853 6.47809 2.86298 5.78448 2.86298 4.91757C2.86298 4.03217 3.53917 3.35786 4.57146 3.35786C5.60497 3.35786 6.2411 4.03217 6.26093 4.91757C6.26093 5.78448 5.60497 6.47809 4.55204 6.47809ZM3.04103 16.7419H6.06183V7.7113H3.04103V16.7419ZM18.5218 0H1.47742C0.661217 0 0 0.641737 0 1.43305V18.5669C0 19.3575 0.661217 20 1.47742 20H18.5218C19.3384 20 20 19.3575 20 18.5669V1.43305C20 0.641737 19.3384 0 18.5218 0Z" fill="#262626"/>
</svg>
