<svg xmlns="http://www.w3.org/2000/svg" xmlns:xlink="http://www.w3.org/1999/xlink" width="581" height="564" version="1.1" viewBox="0 0 581 564"><title>Group 236</title><desc>Created with Sketch.</desc><defs><polygon id="path-1" points=".496 .146 87.332 .146 87.332 249.143 .496 249.143"/><polygon id="path-3" points="0 .49 82.032 .49 82.032 194.241 0 194.241"/><polygon id="path-5" points=".402 .433 83.858 .433 83.858 239.741 .402 239.741"/></defs><g id="Page-1" fill="none" fill-rule="evenodd" stroke="none" stroke-width="1"><g id="About-us---about-us--Copy-3" transform="translate(-785.000000, -126.000000)"><g id="Group-236" transform="translate(785.000000, 126.000000)"><polygon id="Fill-1" fill="#EBF5FC" points="363.203 0 361 298 617 297.683 612.687 .001"/><g id="Group-235" transform="translate(0.000000, 1.000000)"><path id="Fill-2" fill="#FFF" d="M423.815232,63.9738336 C423.171867,82.4250358 423.223278,90.6629939 423.459766,116.285823 C423.606652,132.210189 423.146896,142.357247 423.459766,158.2772 C423.815232,176.426888 423.104299,176.782822 423.340787,202.998385 C457.496395,201.920287 510.00405,201.657014 544.175816,201.812919 C543.874698,184.644255 543.228395,177.850624 542.517463,153.653001 C541.080909,104.744445 539.991008,74.9062996 538.795349,36.5080901 C499.516327,36.138919 463.070752,35.4711752 423.835796,37.3493885 L423.815232,63.9738336 Z"/><path id="Fill-4" fill="#231F20" d="M430.267385,43.4473307 L430.543533,49.9409184 L448.736942,49.6276377 L448.736942,43.13405 L430.267385,43.4473307 Z M429.136356,51.4381941 L428.735355,42.0030038 L450.205811,41.6382451 L450.205811,51.0734354 L429.136356,51.4381941 Z"/><path id="Fill-6" fill="#231F20" d="M449.470936,51.085643 C449.382804,51.085643 449.294672,51.0694642 449.209477,51.0371066 L429.240205,43.4110019 C428.861237,43.2683341 428.670284,42.8432726 428.814233,42.4638058 C428.959651,42.0828683 429.384154,41.8901933 429.763123,42.0387443 L449.732395,49.6633782 C450.111363,49.8075167 450.300847,50.2325783 450.156898,50.612045 C450.045264,50.9062053 449.766179,51.085643 449.470936,51.085643"/><path id="Fill-8" fill="#231F20" d="M429.839944,51.4246627 C429.553515,51.4246627 429.281774,51.2569914 429.164265,50.9745975 C429.005627,50.601014 429.180422,50.1685984 429.554984,50.0112227 L449.184947,41.7085494 C449.559509,41.5526444 449.989888,41.7232574 450.147056,42.0997825 C450.305694,42.473366 450.12943,42.9057816 449.756337,43.0631574 L430.124905,51.3673015 C430.032366,51.4055423 429.935421,51.4246627 429.839944,51.4246627"/><path id="Fill-10" fill="#231F20" d="M479.731985,46.4420292 L472.149684,46.4420292 C471.744276,46.4420292 471.415249,46.1125697 471.415249,45.7066285 C471.415249,45.3006874 471.744276,44.9712279 472.149684,44.9712279 L479.731985,44.9712279 C480.137393,44.9712279 480.466419,45.3006874 480.466419,45.7066285 C480.466419,46.1125697 480.137393,46.4420292 479.731985,46.4420292"/><path id="Fill-12" fill="#231F20" d="M490.630845,46.4420292 L484.233921,46.4420292 C483.827045,46.4420292 483.499487,46.1125697 483.499487,45.7066285 C483.499487,45.3006874 483.827045,44.9712279 484.233921,44.9712279 L490.630845,44.9712279 C491.036253,44.9712279 491.36528,45.3006874 491.36528,45.7066285 C491.36528,46.1125697 491.036253,46.4420292 490.630845,46.4420292"/><path id="Fill-14" fill="#231F20" d="M502.003122,46.4420292 L495.842686,46.4420292 C495.437278,46.4420292 495.108251,46.1125697 495.108251,45.7066285 C495.108251,45.3006874 495.437278,44.9712279 495.842686,44.9712279 L502.003122,44.9712279 C502.40853,44.9712279 502.737556,45.3006874 502.737556,45.7066285 C502.737556,46.1125697 502.40853,46.4420292 502.003122,46.4420292"/><path id="Fill-16" fill="#231F20" d="M510.769772,46.4420292 L505.556756,46.4420292 C505.151348,46.4420292 504.822322,46.1125697 504.822322,45.7066285 C504.822322,45.3006874 505.151348,44.9712279 505.556756,44.9712279 L510.769772,44.9712279 C511.17518,44.9712279 511.504206,45.3006874 511.504206,45.7066285 C511.504206,46.1125697 511.17518,46.4420292 510.769772,46.4420292"/><path id="Fill-18" fill="#231F20" d="M521.194481,46.2050831 L515.744978,46.2050831 C515.33957,46.2050831 515.010543,45.8756236 515.010543,45.4696824 C515.010543,45.0637413 515.33957,44.7342818 515.744978,44.7342818 L521.194481,44.7342818 C521.599889,44.7342818 521.928915,45.0637413 521.928915,45.4696824 C521.928915,45.8756236 521.599889,46.2050831 521.194481,46.2050831"/><path id="Fill-20" fill="#231F20" d="M531.856706,46.2050831 L525.69627,46.2050831 C525.290863,46.2050831 524.961836,45.8756236 524.961836,45.4696824 C524.961836,45.0637413 525.290863,44.7342818 525.69627,44.7342818 L531.856706,44.7342818 C532.262114,44.7342818 532.591141,45.0637413 532.591141,45.4696824 C532.591141,45.8756236 532.262114,46.2050831 531.856706,46.2050831"/><path id="Fill-22" fill="#231F20" d="M432.018864,58.2946285 L432.361111,98.1003948 L533.9378,96.3471997 L532.567345,56.8914841 L432.018864,58.2946285 Z M430.905462,99.5976705 L430.536776,56.8444184 L533.986272,55.4000916 L535.458079,97.7915265 L430.905462,99.5976705 Z"/><path id="Fill-24" fill="#231F20" d="M431.633727,99.5847275 C431.347298,99.5847275 431.074088,99.4155853 430.956578,99.1331915 C430.79941,98.7581371 430.975674,98.3286632 431.350235,98.1712874 L532.993023,55.4680426 C533.364647,55.3121376 533.797963,55.487163 533.953664,55.8607465 C534.110833,56.2358009 533.934568,56.6667456 533.561476,56.8241214 L431.917219,99.5273662 C431.82468,99.5656071 431.729204,99.5847275 431.633727,99.5847275"/><path id="Fill-26" fill="#231F20" d="M534.69838,97.805205 C534.610248,97.805205 534.522116,97.7890262 534.436921,97.7566685 L431.016802,58.2553581 C430.637834,58.1126904 430.446881,57.6876288 430.592299,57.3081621 C430.736248,56.9272245 431.16222,56.738962 431.539719,56.8831005 L534.959839,96.3829401 C535.338807,96.5270787 535.528291,96.9521402 535.384342,97.331607 C535.272708,97.6257672 534.993623,97.805205 534.69838,97.805205"/><path id="Fill-28" fill="#231F20" d="M460.065006,109.548524 C459.666943,109.548524 459.340854,109.230831 459.330572,108.830773 C459.321758,108.424832 459.641972,108.088018 460.04738,108.077722 L504.47185,107.009921 C504.927199,107.031983 505.213628,107.321731 505.22391,107.729143 C505.232724,108.133613 504.91251,108.471897 504.507102,108.480722 L460.082632,109.548524 L460.065006,109.548524 Z"/><path id="Fill-30" fill="#231F20" d="M451.180846,115.242143 C450.782783,115.242143 450.455225,114.922979 450.446412,114.524392 C450.437599,114.11698 450.757812,113.781637 451.164689,113.771341 L514.068998,112.347606 C514.525816,112.307894 514.810777,112.660886 514.81959,113.066828 C514.829872,113.472769 514.50819,113.808111 514.101313,113.818407 L451.197004,115.242143 L451.180846,115.242143 Z"/><path id="Fill-32" fill="#231F20" d="M458.643582,119.868548 C458.245518,119.868548 457.919429,119.550855 457.909147,119.150797 C457.900334,118.743385 458.220547,118.408042 458.625955,118.397747 L503.405891,117.329945 C503.815706,117.341712 504.14767,117.641755 504.157952,118.049167 C504.166766,118.455108 503.846552,118.791922 503.441144,118.800746 L458.661208,119.868548 L458.643582,119.868548 Z"/><path id="Fill-34" fill="#231F20" d="M490.472354,142.644495 C490.078697,142.644495 489.752608,142.331214 489.739389,141.934098 C489.7247,141.528156 490.043444,141.188401 490.447383,141.173693 L521.652034,140.105892 C522.047159,140.135308 522.395281,140.410347 522.40997,140.817759 C522.424659,141.22223 522.107383,141.563456 521.701975,141.576693 L490.498794,142.644495 L490.472354,142.644495 Z"/><path id="Fill-36" fill="#231F20" d="M490.842509,148.338113 C490.450321,148.338113 490.125701,148.029245 490.109544,147.6336 C490.091917,147.227658 490.407724,146.884962 490.811663,146.867312 L524.6309,145.443576 C525.027494,145.455343 525.378554,145.740678 525.39618,146.14809 C525.413807,146.554031 525.098,146.898199 524.692592,146.914378 L490.873355,148.338113 L490.842509,148.338113 Z"/><path id="Fill-38" fill="#231F20" d="M440.23322,191.626149 C439.839563,191.626149 439.513474,191.312868 439.500254,190.915752 C439.485566,190.509811 439.80431,190.170056 440.208249,190.155348 L471.412899,189.086075 C471.818307,189.086075 472.156147,189.390531 472.170836,189.797943 C472.185524,190.202413 471.868249,190.543639 471.462841,190.556876 L440.259659,191.626149 L440.23322,191.626149 Z"/><path id="Fill-40" fill="#231F20" d="M440.603228,197.319768 C440.21104,197.319768 439.88642,197.0109 439.870262,196.615254 C439.852636,196.209313 440.168443,195.866616 440.572382,195.848966 L474.391618,194.425231 C474.794089,194.439939 475.139273,194.722333 475.156899,195.129745 C475.174526,195.535686 474.858719,195.879853 474.453311,195.896032 L440.634074,197.319768 L440.603228,197.319768 Z"/><path id="Fill-42" fill="#231F20" d="M490.372618,154.288828 C489.978961,154.288828 489.652872,153.977019 489.639652,153.579902 C489.624964,153.17249 489.942239,152.832735 490.347647,152.818027 L520.584313,151.748755 C520.957406,151.742871 521.330498,152.05174 521.343718,152.459152 C521.358407,152.865093 521.041131,153.206319 520.637192,153.219556 L490.399058,154.288828 L490.372618,154.288828 Z"/><path id="Fill-44" fill="#231F20" d="M490.372618,162.231744 C489.977492,162.231744 489.651403,161.916992 489.639652,161.519876 C489.626433,161.112464 489.945177,160.77418 490.350585,160.760942 L524.554665,159.69167 C524.963011,159.712261 525.297913,159.999067 525.311133,160.405009 C525.322884,160.81095 525.005608,161.150705 524.6002,161.162471 L490.39612,162.231744 L490.372618,162.231744 Z"/><path id="Fill-46" fill="#231F20" d="M435.811484,132.098996 L435.223936,167.485005 L480.880787,166.570166 L481.466866,131.184158 L435.811484,132.098996 Z M433.730097,168.986693 L434.367586,130.657611 L482.962175,129.680999 L482.324685,168.011552 L433.730097,168.986693 Z"/><path id="Fill-48" fill="#231F20" d="M434.477457,168.970955 C434.260065,168.970955 434.04561,168.875353 433.900192,168.692974 C433.649015,168.37381 433.703363,167.910508 434.020639,167.65753 L481.758877,129.854995 C482.077622,129.604959 482.538847,129.659378 482.790023,129.975601 C483.042669,130.294764 482.98832,130.758067 482.669576,131.009574 L434.932807,168.81358 C434.797671,168.919477 434.636095,168.970955 434.477457,168.970955"/><path id="Fill-50" fill="#231F20" d="M481.601855,168.025818 C481.446155,168.025818 481.287517,167.975811 481.15385,167.872855 L434.640648,131.9603 C434.320435,131.713205 434.260211,131.249903 434.506981,130.927797 C434.75522,130.610104 435.216445,130.54686 435.538127,130.796896 L482.051329,166.70798 C482.371542,166.955075 482.431766,167.418377 482.183527,167.740483 C482.039578,167.927275 481.822185,168.025818 481.601855,168.025818"/><path id="Fill-52" fill="#231F20" d="M486.694717,202.062514 L486.669746,202.062514 C486.264339,202.047806 485.947063,201.709521 485.960283,201.302109 L486.594834,182.281707 L535.192361,181.306566 L534.553403,200.406391 C534.540183,200.813803 534.155339,201.113847 533.795466,201.116788 C533.390059,201.103551 533.072783,200.763796 533.086003,200.357855 L533.670613,182.808254 L488.016699,183.723092 L487.427683,201.352117 C487.414463,201.749233 487.088374,202.062514 486.694717,202.062514"/><path id="Fill-54" fill="#231F20" d="M510.636986,202.410064 C510.424,202.410064 510.213952,202.318874 510.068534,202.140907 C509.811482,201.827627 509.857017,201.364324 510.169886,201.106934 L533.964093,181.489386 C534.27843,181.230525 534.741124,181.277591 534.998176,181.590872 C535.256697,181.904152 535.211162,182.367455 534.898293,182.624845 L511.102617,202.242393 C510.966013,202.355644 510.801499,202.410064 510.636986,202.410064"/><path id="Fill-56" fill="#231F20" d="M510.635664,202.410064 C510.475557,202.410064 510.312513,202.357115 510.177377,202.249747 L486.847333,183.576453 C486.530057,183.322005 486.478647,182.860173 486.732761,182.54248 C486.983938,182.227729 487.4481,182.176251 487.763907,182.427758 L511.093951,201.09958 C511.411227,201.354029 511.462637,201.817331 511.209992,202.135024 C511.064574,202.315933 510.851588,202.410064 510.635664,202.410064"/><path id="Fill-58" fill="#0751CF" d="M555.515777,44.6077929 C555.182344,44.6077929 554.879757,44.3798187 554.801907,44.0385928 C554.709368,43.644418 554.954669,43.2487725 555.349795,43.156112 C564.950322,40.9146108 574.787337,39.2349558 584.58763,38.1583292 C584.993038,38.1112636 585.354379,38.4054238 585.398446,38.8098942 C585.44398,39.2128937 585.151676,39.5761817 584.749205,39.6203057 C575.006198,40.6895782 565.226469,42.3618793 555.683228,44.5886725 C555.627411,44.6019097 555.571594,44.6077929 555.515777,44.6077929"/><path id="Fill-60" fill="#0751CF" d="M556.199976,38.802246 C555.84451,38.802246 555.531641,38.5419142 555.474355,38.1800971 C555.412663,37.7785683 555.687341,37.4020432 556.088342,37.3402695 C558.009623,37.0416969 559.726731,36.8019562 561.327798,36.5769236 C567.764381,35.6767933 572.41482,35.0252283 581.129619,31.7615202 C581.508587,31.6173817 581.93309,31.8129983 582.07557,32.1939358 C582.216582,32.5748733 582.02416,32.9984641 581.645192,33.139661 C572.77763,36.4592595 568.061092,37.1196493 561.53197,38.0344877 C559.936779,38.2565787 558.227015,38.4963193 556.313079,38.7934212 C556.274889,38.7993044 556.236698,38.802246 556.199976,38.802246"/><path id="Fill-62" fill="#0751CF" d="M554.09494,33.9703696 C553.755632,33.9703696 553.451576,33.7350414 553.378132,33.3879323 C553.292938,32.9922867 553.545583,32.6010536 553.942178,32.5157471 C555.509461,32.1789336 558.391382,31.7906421 561.728652,31.3376353 C567.460178,30.562523 574.591537,29.5962065 577.120929,28.5813536 C577.498428,28.4283903 577.925869,28.6107697 578.075694,28.9887656 C578.226987,29.3667615 578.044847,29.7947647 577.667348,29.9462572 C574.969036,31.0302378 568.040381,31.968609 561.926949,32.7951994 C558.619056,33.2437938 555.762107,33.6306145 554.249172,33.9541908 C554.197761,33.9644864 554.146351,33.9703696 554.09494,33.9703696"/><path id="Fill-64" fill="#0751CF" d="M378.314081,160.223659 C377.917486,160.223659 377.591397,159.907436 377.579646,159.508849 C377.569364,159.101437 377.889578,158.764624 378.294986,158.752857 C380.238299,158.699909 381.970095,158.679317 383.585851,158.660197 C390.085596,158.580774 394.780101,158.524883 403.840084,156.392221 C404.229334,156.292207 404.630336,156.542243 404.722874,156.939359 C404.815413,157.333534 404.570112,157.730651 404.174986,157.82184 C394.960772,159.994214 390.19723,160.051575 383.604947,160.130998 C381.995066,160.150119 380.270614,160.17071 378.334645,160.223659 L378.314081,160.223659 Z"/><path id="Fill-66" fill="#0751CF" d="M376.835224,155.163514 C376.457724,155.163514 376.136042,154.873766 376.103727,154.489887 C376.069943,154.085417 376.371061,153.729483 376.773531,153.695654 C378.371661,153.560341 381.280021,153.539749 384.648137,153.513275 C390.429605,153.470622 397.627063,153.416202 400.265151,152.727867 C400.657339,152.626382 401.05834,152.86171 401.161161,153.254414 C401.262513,153.648589 401.027494,154.048647 400.635306,154.151603 C397.820953,154.885532 390.827669,154.938481 384.659888,154.984076 C381.321149,155.010551 378.439228,155.031142 376.896916,155.160572 C376.876352,155.162043 376.855788,155.163514 376.835224,155.163514"/><path id="Fill-68" fill="#0751CF" d="M532.305005,84.6699198 C532.219811,84.6699198 532.133147,84.6552118 532.047953,84.624325 C528.20833,83.1873521 526.241514,81.4518066 523.901606,78.6102185 L523.660712,78.5293244 L523.710653,78.3763611 C523.694496,78.3557699 523.678338,78.3351787 523.662181,78.317529 L523.419817,78.0189564 L523.527045,77.6483145 C525.276468,71.6121459 527.667786,71.1635515 529.589067,70.8032052 C529.969504,70.731136 530.341127,70.6649499 530.699531,70.5428734 L531.253295,71.9018938 C528.220081,73.3609287 526.666018,74.5302157 525.532051,77.5688912 C530.339659,78.7572986 535.399912,76.2436992 540.188424,73.543308 C548.837124,68.6646601 563.207068,57.7777889 567.34781,47.7704569 C567.502041,47.3954026 567.933888,47.214494 568.306981,47.3733406 C568.681543,47.5277747 568.859276,47.9587195 568.705045,48.3337738 C564.693564,58.0263544 551.485495,68.8602767 540.909639,74.824376 C536.442809,77.3438586 531.351709,79.8898156 526.394277,79.2264842 C528.062912,80.9870334 529.784426,82.2063277 532.562057,83.2447134 C532.942494,83.3873811 533.134916,83.8109719 532.992436,84.1919094 C532.882271,84.4875405 532.603186,84.6699198 532.305005,84.6699198"/><path id="Fill-70" fill="#0751CF" d="M392.898039,144.645226 C392.804032,144.645226 392.708555,144.627576 392.617485,144.589335 C392.242924,144.43343 392.065191,144.002485 392.219422,143.628902 C396.229434,133.937792 409.438972,123.10387 420.013359,117.136829 C424.480189,114.617346 429.565413,112.068448 434.53019,112.736191 C432.861555,110.972701 431.14004,109.753406 428.362409,108.716491 C427.981972,108.575295 427.78955,108.151704 427.932031,107.770766 C428.073042,107.389829 428.496076,107.197154 428.876513,107.338351 C432.713199,108.772382 434.681483,110.507927 437.02286,113.352457 L437.263755,113.43188 L437.213813,113.586315 C437.229971,113.605435 437.246128,113.626026 437.262286,113.645147 L437.504649,113.943719 L437.395953,114.314361 C435.647999,120.347588 433.25668,120.796183 431.3354,121.156529 C430.954963,121.228598 430.583339,121.296255 430.224935,121.418331 L429.671171,120.05784 C432.704386,118.601747 434.258449,117.43246 435.392416,114.393784 C430.586277,113.206848 425.524555,115.716035 420.736042,118.417897 C412.085873,123.296545 397.715929,134.187828 393.576657,144.190748 C393.459147,144.474613 393.185937,144.645226 392.898039,144.645226"/><path id="Fill-72" fill="#0751CF" d="M591.21972,193.319629 L591.199156,193.319629 C589.260249,193.266681 587.529921,193.244619 585.918572,193.226969 C579.329226,193.146075 574.568622,193.088714 565.358814,190.917811 C564.963689,190.826621 564.718388,190.429505 564.810926,190.03533 C564.903465,189.638214 565.304466,189.388178 565.693717,189.488192 C574.747824,191.619383 579.44086,191.676744 585.936198,191.756168 C587.554892,191.773817 589.291095,191.795879 591.238815,191.848828 C591.644223,191.860595 591.964436,192.197408 591.954154,192.60482 C591.942403,193.003407 591.616314,193.319629 591.21972,193.319629"/><path id="Fill-74" fill="#0751CF" d="M592.697842,188.259485 C592.677278,188.259485 592.656714,188.258014 592.63615,188.256543 C591.093838,188.127113 588.213386,188.105051 584.876116,188.080047 C578.706866,188.032981 571.713582,187.980032 568.89776,187.247573 C568.505572,187.143147 568.270553,186.743089 568.371905,186.348914 C568.474726,185.957681 568.875727,185.722352 569.267915,185.822367 C571.907472,186.510702 579.10493,186.565122 584.887867,186.609246 C588.254514,186.63572 591.161406,186.656311 592.759535,186.791625 C593.162005,186.825453 593.463123,187.181387 593.429339,187.585858 C593.397024,187.969737 593.075342,188.259485 592.697842,188.259485"/><path id="Fill-76" fill="#0751CF" d="M575.313192,180.388345 C575.025294,180.388345 574.752084,180.217732 574.634574,179.933867 C570.495302,169.930947 556.125358,159.039664 547.475189,154.161016 C542.686677,151.459154 537.620548,148.951438 532.818815,150.136903 C533.952782,153.175579 535.506846,154.344866 538.54006,155.80243 L537.984827,157.162921 C537.627892,157.039374 537.254799,156.971717 536.875831,156.901119 C534.953082,156.539301 532.563232,156.089236 530.815278,150.05748 L530.706582,149.686838 L530.948945,149.388266 C530.965103,149.369145 530.981261,149.348554 530.997418,149.329434 L530.947477,149.174999 L531.188371,149.095576 C533.529748,146.251046 535.498032,144.515501 539.334718,143.08147 C539.715155,142.938802 540.138189,143.132948 540.2792,143.513885 C540.421681,143.894823 540.229259,144.318414 539.848822,144.45961 C537.071191,145.496525 535.349677,146.71582 533.681042,148.47931 C538.647287,147.814508 543.731042,150.361936 548.197873,152.879948 C558.77226,158.846989 571.981797,169.680911 575.991809,179.372021 C576.146041,179.745604 575.968307,180.176549 575.593746,180.332454 C575.502676,180.370695 575.407199,180.388345 575.313192,180.388345"/><path id="Fill-78" fill="#0751CF" d="M489.090295,150.970848 C489.511861,152.99467 489.989243,155.28765 491.245126,156.862878 C492.643489,158.617544 494.820353,159.304408 497.313023,159.961856 C498.598284,160.301611 500.490187,161.001713 502.678801,161.812124 C509.79694,164.449271 521.709466,168.857262 525.286162,164.881686 C528.774726,160.998771 525.090803,153.400612 522.584912,149.217653 C517.649513,140.982636 502.152946,132.909408 493.652602,136.237831 C489.037416,138.048388 487.459851,143.143243 489.090295,150.970848 M520.418331,167.930658 C514.962952,167.930658 507.612732,165.209675 502.169104,163.193207 C500.015742,162.394561 498.156154,161.706226 496.938462,161.384121 C494.699906,160.79433 491.913461,160.058929 490.09794,157.779187 C488.623195,155.93039 488.107622,153.455031 487.652273,151.272362 C485.38287,140.375195 489.370849,136.337846 493.116465,134.869986 C500.930847,131.809248 517.554036,137.963081 523.843733,148.461661 C527.160439,153.997757 530.292067,161.51061 526.377532,165.865652 C525.039392,167.354103 522.928628,167.930658 520.418331,167.930658"/><polygon id="Fill-80" fill="#EBF5FC" points="70.953 .485 336.34 .487 335.257 297.736 64.097 298.087"/><path id="Fill-82" fill="#FFF" d="M134.105378,72.2787131 C133.391507,92.7787416 133.447324,101.93448 133.710252,130.40478 C133.874765,148.09852 133.363599,159.372212 133.710252,177.06301 C134.105378,197.229166 133.315126,197.624812 133.579522,226.752561 C171.530687,225.555329 229.874159,225.262639 267.84295,225.436194 C267.509517,206.359901 266.789771,198.810278 265.99952,171.922559 C264.404328,117.579393 263.19398,84.4245902 261.864654,41.761057 C218.220153,41.3507034 177.723439,40.6079488 134.127411,42.6964866 L134.105378,72.2787131 Z"/><path id="Fill-84" fill="#231F20" d="M141.189291,49.3893679 L141.503629,56.768378 L161.878309,56.4168565 L161.878309,49.0393172 L141.189291,49.3893679 Z M140.096453,58.2641829 L139.657261,47.945041 L163.347178,47.5420415 L163.347178,57.8626542 L140.096453,58.2641829 Z"/><path id="Fill-86" fill="#231F20" d="M162.613038,57.875156 C162.526374,57.875156 162.436773,57.8589772 162.351579,57.8266195 L140.161377,49.3533333 C139.782409,49.2091947 139.592925,48.7841332 139.736874,48.4061372 C139.882292,48.0237289 140.306795,47.8339955 140.685763,47.9796049 L162.874496,56.4528911 C163.253464,56.5970297 163.444417,57.0220912 163.298999,57.401558 C163.187365,57.6957182 162.90828,57.875156 162.613038,57.875156"/><path id="Fill-88" fill="#231F20" d="M140.800188,58.251534 C140.513759,58.251534 140.242018,58.0838627 140.12304,57.8014688 C139.965871,57.4278853 140.140666,56.9954697 140.513759,56.838094 L162.32793,47.6132283 C162.701023,47.4573233 163.131401,47.6294071 163.290039,48.0044614 C163.447208,48.3780449 163.272413,48.8104605 162.89932,48.9678363 L141.085149,58.1941728 C140.99261,58.2324136 140.895665,58.251534 140.800188,58.251534"/><path id="Fill-90" fill="#231F20" d="M196.236768,52.7158792 L187.812805,52.7158792 C187.407397,52.7158792 187.078371,52.3864197 187.078371,51.9804785 C187.078371,51.5745374 187.407397,51.2450779 187.812805,51.2450779 L196.236768,51.2450779 C196.642176,51.2450779 196.971202,51.5745374 196.971202,51.9804785 C196.971202,52.3864197 196.642176,52.7158792 196.236768,52.7158792"/><path id="Fill-92" fill="#231F20" d="M208.346711,52.7158792 L201.238854,52.7158792 C200.833446,52.7158792 200.50442,52.3864197 200.50442,51.9804785 C200.50442,51.5745374 200.833446,51.2450779 201.238854,51.2450779 L208.346711,51.2450779 C208.752118,51.2450779 209.081145,51.5745374 209.081145,51.9804785 C209.081145,52.3864197 208.752118,52.7158792 208.346711,52.7158792"/><path id="Fill-94" fill="#231F20" d="M220.983389,52.7158792 L214.138461,52.7158792 C213.733053,52.7158792 213.404026,52.3864197 213.404026,51.9804785 C213.404026,51.5745374 213.733053,51.2450779 214.138461,51.2450779 L220.983389,51.2450779 C221.388797,51.2450779 221.717824,51.5745374 221.717824,51.9804785 C221.717824,52.3864197 221.388797,52.7158792 220.983389,52.7158792"/><path id="Fill-96" fill="#231F20" d="M230.72434,52.7158792 L224.93259,52.7158792 C224.527182,52.7158792 224.198156,52.3864197 224.198156,51.9804785 C224.198156,51.5745374 224.527182,51.2450779 224.93259,51.2450779 L230.72434,51.2450779 C231.129748,51.2450779 231.458775,51.5745374 231.458775,51.9804785 C231.458775,52.3864197 231.129748,52.7158792 230.72434,52.7158792"/><path id="Fill-98" fill="#231F20" d="M242.30784,52.453047 L236.253163,52.453047 C235.847755,52.453047 235.518728,52.1235875 235.518728,51.7176464 C235.518728,51.3117052 235.847755,50.9822457 236.253163,50.9822457 L242.30784,50.9822457 C242.713248,50.9822457 243.042275,51.3117052 243.042275,51.7176464 C243.042275,52.1235875 242.713248,52.453047 242.30784,52.453047"/><path id="Fill-100" fill="#231F20" d="M254.154855,52.453047 L247.309926,52.453047 C246.904518,52.453047 246.575492,52.1235875 246.575492,51.7176464 C246.575492,51.3117052 246.904518,50.9822457 247.309926,50.9822457 L254.154855,50.9822457 C254.560263,50.9822457 254.88929,51.3117052 254.88929,51.7176464 C254.88929,52.1235875 254.560263,52.453047 254.154855,52.453047"/><path id="Fill-102" fill="#231F20" d="M143.138774,65.8870519 L143.52068,110.281718 L256.553077,108.328494 L255.023985,64.3250609 L143.138774,65.8870519 Z M142.065031,111.777523 L141.658154,64.4368418 L256.441443,62.8336684 L258.071888,109.774292 L142.065031,111.777523 Z"/><path id="Fill-104" fill="#231F20" d="M142.793443,111.764874 C142.507014,111.764874 142.233804,111.595732 142.116295,111.313338 C141.959126,110.938284 142.13539,110.50881 142.508483,110.351434 L255.448341,62.9004428 C255.822903,62.7445378 256.253281,62.921034 256.41045,63.2946175 C256.567619,63.6696719 256.391355,64.1006166 256.016793,64.2565216 L143.076935,111.707513 C142.984396,111.745754 142.887451,111.764874 142.793443,111.764874"/><path id="Fill-106" fill="#231F20" d="M257.312483,109.787088 C257.225819,109.787088 257.136218,109.770909 257.051024,109.738551 L142.137006,65.8483698 C141.758037,65.7042313 141.567085,65.2791697 141.712503,64.899703 C141.856452,64.5187654 142.280955,64.3290321 142.659923,64.4746414 L257.573941,108.364823 C257.952909,108.508961 258.143862,108.934023 257.998444,109.31349 C257.88681,109.60765 257.607725,109.787088 257.312483,109.787088"/><path id="Fill-108" fill="#231F20" d="M174.384112,122.836037 C173.986049,122.836037 173.65996,122.518344 173.649678,122.118286 C173.640864,121.712345 173.961078,121.375531 174.366486,121.365236 L223.729293,120.178299 C224.121481,120.169474 224.471072,120.488638 224.479885,120.897521 C224.490167,121.301991 224.169954,121.640275 223.763077,121.6491 L174.401739,122.836037 L174.384112,122.836037 Z"/><path id="Fill-110" fill="#231F20" d="M164.511844,129.16313 C164.113781,129.16313 163.787692,128.843966 163.77741,128.445379 C163.768597,128.037967 164.090279,127.702624 164.495687,127.692329 L234.391812,126.111217 C234.761967,126.136221 235.133591,126.424498 235.142404,126.828968 C235.151217,127.234909 234.831004,127.571723 234.424127,127.582018 L164.528002,129.16313 L164.511844,129.16313 Z"/><path id="Fill-112" fill="#231F20" d="M172.804344,134.303727 C172.40628,134.303727 172.080191,133.986034 172.069909,133.585976 C172.061096,133.178564 172.381309,132.843222 172.786717,132.832926 L222.543181,131.64599 C222.9339,131.669522 223.28496,131.957799 223.295242,132.365211 C223.305524,132.771153 222.983842,133.107966 222.578434,133.116791 L172.82197,134.303727 L172.804344,134.303727 Z"/><path id="Fill-114" fill="#231F20" d="M223.295683,143.598162 L223.295683,165.301306 L254.841111,164.718869 C253.903972,159.340148 253.520598,146.294141 253.436872,143.015725 L223.295683,143.598162 Z M221.826814,166.797111 L221.826814,142.156777 L254.871957,141.516978 L254.888114,142.250908 C254.891052,142.428875 255.293522,160.2241 256.448053,165.274832 L256.650757,166.157312 L221.826814,166.797111 Z"/><path id="Fill-116" fill="#231F20" d="M215.453539,167.089359 C215.059882,167.089359 214.733793,166.776079 214.719104,166.378962 L213.953824,143.916885 L183.46745,143.916885 C183.062043,143.916885 182.733016,143.587425 182.733016,143.181484 C182.733016,142.775543 183.062043,142.446083 183.46745,142.446083 L215.37422,142.446083 L216.187973,166.328955 C216.201193,166.734896 215.883917,167.074651 215.47851,167.089359 L215.453539,167.089359 Z"/><path id="Fill-118" fill="#231F20" d="M147.069761,144.513148 L146.699606,166.822262 L175.636323,166.241295 L176.006478,143.932181 L147.069761,144.513148 Z M145.205766,168.32395 L145.624394,143.071762 L177.501786,142.430493 L177.08169,167.684151 L145.205766,168.32395 Z"/><path id="Fill-120" fill="#231F20" d="M222.561983,166.784903 C222.338715,166.784903 222.118384,166.684889 221.974435,166.492214 C221.730603,166.167167 221.795233,165.706806 222.119853,165.462653 L253.712285,141.679796 C254.036905,141.434172 254.496661,141.500358 254.740493,141.823935 C254.984325,142.148982 254.918226,142.609342 254.595075,142.853495 L223.002643,166.636352 C222.870445,166.737838 222.714745,166.784903 222.561983,166.784903"/><path id="Fill-122" fill="#231F20" d="M255.731686,166.174374 C255.589206,166.174374 255.446725,166.133191 255.318934,166.047885 L222.148937,143.485793 C221.812566,143.257819 221.725903,142.798929 221.953577,142.463586 C222.182721,142.126772 222.63807,142.044408 222.974441,142.267969 L256.144438,164.830061 C256.480809,165.058036 256.567472,165.516926 256.339798,165.852268 C256.197317,166.062593 255.966705,166.174374 255.731686,166.174374"/><path id="Fill-124" fill="#231F20" d="M145.952686,168.308801 C145.736763,168.308801 145.520839,168.213198 145.37689,168.030819 C145.124244,167.711655 145.178592,167.248353 145.497337,166.995375 L176.298048,142.603606 C176.616793,142.355041 177.078018,142.40799 177.330663,142.724212 C177.58184,143.043376 177.527491,143.506678 177.210216,143.759656 L146.408036,168.151425 C146.2729,168.257322 146.112793,168.308801 145.952686,168.308801"/><path id="Fill-126" fill="#231F20" d="M176.359006,167.698418 C176.201837,167.698418 176.044668,167.648411 175.911001,167.545455 L145.899073,144.374451 C145.57739,144.127356 145.517167,143.664054 145.765406,143.341949 C146.013644,143.022785 146.4734,142.961011 146.796551,143.211047 L176.80848,166.38058 C177.128694,166.627675 177.188917,167.090977 176.940678,167.413083 C176.796729,167.599874 176.579337,167.698418 176.359006,167.698418"/><path id="Fill-128" fill="#0751CF" d="M276.771323,97.7434313 C276.43789,97.7434313 276.135303,97.5154571 276.055984,97.1742312 C275.964914,96.7800565 276.210215,96.3844109 276.605341,96.2917504 C287.272266,93.8002131 298.200651,91.9337662 309.084969,90.7409464 C309.480095,90.6953515 309.85025,90.988041 309.894316,91.3925113 C309.938382,91.7955109 309.647546,92.1587988 309.243607,92.2029228 C298.418043,93.3898595 287.549883,95.2474815 276.938774,97.7243109 C276.882957,97.7375481 276.82714,97.7434313 276.771323,97.7434313"/><path id="Fill-130" fill="#0751CF" d="M277.531316,91.292791 C277.175849,91.292791 276.86298,91.0324592 276.807163,90.6706421 C276.744002,90.2691133 277.01868,89.8925882 277.419682,89.8308145 C279.555417,89.4984134 281.463478,89.2321984 283.242278,88.9821622 C290.398607,87.9805465 295.569025,87.2569122 305.260622,83.6284454 C305.642528,83.4872485 306.064093,83.6799235 306.205105,84.060861 C306.347585,84.4417986 306.155163,84.8653893 305.774726,85.0080571 C295.931836,88.6909435 290.695318,89.4234026 283.446451,90.4397263 C281.673526,90.6868209 279.772809,90.9545067 277.644418,91.2839662 C277.607697,91.2898494 277.569506,91.292791 277.531316,91.292791"/><path id="Fill-132" fill="#0751CF" d="M275.191995,85.9237779 C274.852686,85.9237779 274.54863,85.6884497 274.473718,85.3413406 C274.389993,84.9456951 274.642638,84.5544619 275.039233,84.4691555 C276.778373,84.0970427 279.979039,83.6631564 283.684995,83.1616131 C290.056948,82.2997236 297.987371,81.2260386 300.807599,80.0935216 C301.18363,79.9420291 301.612539,80.1244084 301.762364,80.5009336 C301.913657,80.8789295 301.731518,81.3069327 301.355487,81.4584252 C298.36487,82.6585991 290.670935,83.6999264 283.881823,84.6191772 C280.205244,85.116308 277.02955,85.545782 275.346226,85.9075991 C275.294816,85.9178947 275.243405,85.9237779 275.191995,85.9237779"/><path id="Fill-134" fill="#0751CF" d="M267.926529,155.317213 C264.507002,155.317213 262.036365,154.500918 258.920894,153.016879 L258.697626,153.041883 L258.679999,152.899215 L258.563959,152.843325 L258.218775,152.675654 L258.158551,152.294716 C257.090683,145.445194 259.264609,143.883203 261.011094,142.627139 C261.376843,142.363866 261.722027,142.116771 262.014332,141.835848 L263.092482,142.83158 C260.687943,145.771712 259.670017,147.699933 259.984355,151.379878 C265.45736,150.347375 269.407149,145.389304 272.986782,140.372401 C279.407208,131.378451 288.763903,113.624408 288.229234,101.584429 C288.211608,101.177017 288.525946,100.83432 288.931354,100.816671 C289.301509,100.754897 289.679008,101.112302 289.696634,101.518243 C290.212207,113.141986 282.015919,130.251817 274.182441,141.228407 C270.831952,145.920263 266.852786,150.945991 261.459099,152.534457 C264.061935,153.58755 266.413594,154.039086 269.809619,153.766988 C270.203276,153.727276 270.567555,154.036145 270.59987,154.440615 C270.632185,154.846556 270.331067,155.201019 269.927128,155.231906 C269.220602,155.289267 268.556674,155.317213 267.926529,155.317213"/><path id="Fill-136" fill="#0751CF" d="M207.237861,25.0608437 C206.413826,25.0608437 205.583915,24.984362 204.743722,24.813749 C203.016332,24.4622275 201.325664,23.7268269 199.690813,23.0149591 C196.753075,21.7368327 193.978382,20.5307757 191.369671,21.6544679 C190.836472,21.8853837 190.334118,22.2104307 189.803857,22.5545982 C189.128177,22.992897 188.431933,23.444433 187.619649,23.7268269 C185.46188,24.4739939 183.287955,23.8106626 181.187472,23.1738056 C180.785002,23.0517291 180.384001,22.9296526 179.987406,22.8193425 C175.849603,21.6706467 171.343113,21.8397888 167.299317,23.2988237 C166.91888,23.4311958 166.497314,23.2370501 166.359241,22.8561125 C166.222636,22.4737042 166.420933,22.0515842 166.80137,21.9133289 C171.128658,20.3528087 175.950955,20.1689585 180.381063,21.4029608 C180.78794,21.5147417 181.199223,21.6397598 181.613444,21.7662488 C183.578791,22.3619233 185.433972,22.926711 187.139329,22.3354489 C187.782693,22.1133579 188.376116,21.7280079 189.004792,21.320596 C189.562962,20.957308 190.141697,20.5822537 190.787999,20.3042723 C193.979851,18.9261315 197.180516,20.3189803 200.276892,21.6662343 C201.841237,22.3472153 203.459931,23.0517291 205.036027,23.3723638 C209.342751,24.2460197 213.418862,22.3751605 217.737336,20.3910495 C221.256746,18.7746389 224.895134,17.1038086 228.771479,16.9581993 C229.188638,16.9537869 229.517664,17.2611844 229.532353,17.6671255 C229.547042,18.0730667 229.231235,18.4128218 228.825827,18.4290006 C225.241787,18.5613727 221.738535,20.1719001 218.349854,21.7265371 C214.77169,23.3723638 211.093642,25.0608437 207.237861,25.0608437"/><path id="Fill-138" fill="#0751CF" d="M443.179477,29.4760421 C442.790227,29.4760421 442.465607,29.1701154 442.446511,28.7759407 C442.427416,28.3699995 442.740285,28.025832 443.145693,28.0067116 C445.823441,27.8758103 448.483562,26.2844033 451.057021,24.7444743 C454.436888,22.7206517 457.934265,20.6262307 461.716602,21.630788 C463.075306,21.9911343 464.387006,22.7353597 465.65464,23.4531108 C467.934324,24.7444743 469.904077,25.8622833 471.766603,24.813602 C472.158791,24.5944526 472.537759,24.2738179 472.93876,23.9340628 C473.466084,23.48841 474.012503,23.0265784 474.663212,22.7324181 C476.430262,21.9381854 478.232564,22.6500533 479.824818,23.281027 C480.130342,23.4016327 480.434398,23.5222384 480.736985,23.6310777 C483.839236,24.7562407 487.219103,24.5885694 490.253787,23.1633629 C490.621004,22.9898084 491.058727,23.1486549 491.230584,23.5148844 C491.402442,23.8825847 491.245273,24.3208835 490.878056,24.4929673 C487.487906,26.0887867 483.709976,26.2741076 480.23757,25.0151017 C479.921763,24.90185 479.604487,24.7753611 479.284274,24.6488722 C477.835969,24.0752597 476.466983,23.5310632 475.266917,24.0737889 C474.802755,24.2841135 474.357688,24.6606386 473.886181,25.057755 C473.449927,25.4269261 473.000453,25.8078636 472.486349,26.0961407 C469.899671,27.5478216 467.374685,26.1196735 464.931956,24.7327079 C463.743641,24.0605517 462.515667,23.3648627 461.340572,23.0530528 C458.151657,22.2014589 455.072908,24.0517269 451.809082,26.0078926 C449.082861,27.6390113 446.262633,29.3274911 443.21473,29.4745713 C443.204448,29.4760421 443.191228,29.4760421 443.179477,29.4760421"/><polygon id="Fill-140" fill="#FFF" points="130.247 82.831 138.154 92.415 133.318 95.461"/><path id="Fill-142" fill="#FFF" d="M73.4168569,130.320798 C76.3090597,129.908973 79.4377504,126.873239 82.8014601,121.22095 C86.1651698,115.565719 93.7298445,98.9544891 105.495484,71.3872604 L130.215078,78.1661836 L134.275032,93.0889335 C135.613171,100.741513 135.936323,105.983449 135.244485,108.816212 C134.451296,112.053445 133.91369,115.611314 130.215078,117.304206 C129.059079,117.835165 125.852538,118.32053 124.205936,118.804423 C119.592219,120.161973 114.880087,119.661901 110.069542,117.304206 L111.022838,136.046627 C106.927631,134.334614 101.764557,132.971182 95.5292089,131.954858 C89.2953294,130.938534 81.9245454,130.394338 73.4168569,130.320798"/><path id="Fill-144" fill="#DBE3F4" d="M111.980834,110.051244 C107.70055,109.545288 105.197598,109.545288 104.473445,110.051244 C103.38942,110.808706 105.510467,113.45909 105.510467,114.503359 C105.510467,115.547628 103.304226,116.500707 102.521318,117.795012 C101.738411,119.087847 102.521318,119.645281 101.628246,120.917524 C101.031885,121.764705 99.4616646,122.991353 96.9161149,124.598939 L113.100112,129.240788 L111.980834,110.051244 Z"/><path id="Fill-146" fill="#113984" d="M70.7423405,79.1573566 C73.099875,87.829201 72.6694964,100.203052 75.9582938,104.666934 C79.9492106,110.083895 81.7147909,112.05624 83.3099825,114.555131 C84.582023,116.548067 85.1739771,119.669107 90.8511553,119.372006 C92.8209084,119.267579 98.6317537,117.343771 100.253385,116.047995 C102.945822,113.899154 104.488134,112.291568 107.060123,110.688395 C107.840093,110.20156 109.684992,106.442191 112.593352,99.4102904 C108.617124,93.6285705 106.429979,89.5500385 106.033384,87.1776361 C105.636789,84.8052336 109.358903,81.5665291 117.198256,77.4629935 C122.362799,80.1825051 126.148074,81.1135223 128.558488,80.2560452 C132.171905,78.9720356 137.913714,74.4507924 137.214532,63.6801145 C136.515351,52.9079658 134.856998,48.3264198 126.008532,40.9915337 C120.108085,36.0996486 116.330155,39.7487066 114.670333,51.937237 C99.3911589,49.6913234 89.1443297,51.019457 83.9298452,55.9245793 C76.1066496,63.2829982 68.3833371,70.4855121 70.7423405,79.1573566"/><path id="Fill-148" fill="#113984" d="M116.580744,97.5164867 C116.580744,90.0462869 112.382716,80.5449105 112.951169,77.0591115 C113.161217,75.7721603 115.075153,77.0591115 116.580744,77.0591115 C119.098385,77.0591115 119.981175,96.7899108 124.781439,103.020225 C126.314938,105.013161 129.995923,103.177601 135.825864,97.5164867 C137.526814,108.419537 136.135795,115.151394 131.652807,117.712059 C127.169819,120.272724 121.363381,121.047837 114.232022,120.037396 C113.04077,119.928557 112.15798,119.469667 111.583652,118.656314 C111.010793,117.842961 110.399744,116.188309 109.75491,113.692359 C114.305466,109.727079 116.580744,104.335121 116.580744,97.5164867"/><path id="Fill-150" fill="#DBE3F4" d="M114.921803,298.287924 C114.921803,298.287924 118.491155,338.696718 115.067221,355.044675 C115.067221,355.044675 111.953219,379.490863 112.858042,385.537327 C113.764335,391.585262 113.216446,412.553005 108.23845,423.557541 C108.23845,423.557541 96.6035396,528.816906 100.150858,550.981882 C100.150858,550.981882 93.4087498,557.009226 89.8584937,552.414442 C86.3097065,547.82113 74.016743,481.630659 73.0355386,455.99018 C72.055803,430.349701 64.6130445,368.646645 63.0340104,362.625185 C63.0340104,362.625185 61.8251314,392.22359 59.3353986,397.724387 C56.8471348,403.228125 36.5179896,449.420111 37.9662943,469.637745 C37.9662943,469.637745 31.6237185,531.279028 33.2291922,537.974115 C33.2291922,537.974115 23.4891227,541.481976 21.4165488,540.208262 C19.3439748,538.93749 1.14175177,446.582935 20.5131944,388.402448 C20.5131944,388.402448 29.8698891,365.481481 24.841951,355.709477 C27.9647662,361.778003 18.3994921,316.793545 30.2606082,287.973194 L22.0981039,298.06142 L114.921803,298.287924 Z"/><path id="Fill-152" fill="#DBE3F4" d="M87.0071255,544.612724 C87.0071255,544.612724 80.5073807,561.935822 92.4610356,562.377062 C104.41469,562.816832 135.183087,557.410166 138.258898,554.596523 C138.258898,554.596523 143.587954,546.638017 135.089079,546.364448 C126.588735,546.09235 101.128831,545.429019 95.648481,540.844531 C95.648481,540.844531 90.495689,545.679055 87.0071255,544.612724"/><g id="Group-156" transform="translate(52.302302, 313.280676)"><mask id="mask-2" fill="#fff"><use xlink:href="#path-1"/></mask><path id="Fill-154" fill="#BEC9DE" d="M40.159027,249.096533 C35.017986,248.934745 28.8369858,243.704575 34.7051169,231.332195 C34.7051169,231.332195 18.4124234,160.807273 19.1762353,124.078423 C19.1762353,124.078423 16.883331,101.888444 16.883331,95.7669685 C16.883331,89.6454936 11.6894106,53.9020804 11.6894106,53.9020804 C11.6894106,53.9020804 -6.04130549,31.4929519 3.12884286,2.41521026 C4.98402424,-3.46799493 29.1087265,3.94631441 29.1087265,3.94631441 C29.1087265,3.94631441 37.516532,39.1440602 32.9307233,50.6221936 C28.3463836,62.0988561 34.4598158,88.1158602 35.9874395,94.2373352 C37.516532,100.357339 35.9874395,124.84471 35.9874395,124.84471 C35.9874395,124.84471 32.1522228,236.955068 40.0297666,242.111698 C40.0297666,242.111698 51.0389388,247.878709 68.1923894,244.384086 C68.1923894,244.384086 85.7732809,241.402771 87.3317508,238.342034 C87.3317508,238.342034 87.1143582,241.264516 84.2882545,242.211712 C84.2882545,242.211712 62.7091019,249.803988 40.159027,249.096533" mask="url(#mask-2)"/></g><path id="Fill-157" fill="#DBE3F4" d="M32.0404366,530.362866 C32.0404366,530.362866 47.0405255,532.152831 62.9219357,533.679522 C62.9219357,533.679522 67.7221992,536.707902 61.8628813,539.928957 C56.0020945,543.14707 49.555229,543.694209 44.2452681,544.748773 C36.9082681,546.204866 32.2930821,550.078957 20.2307309,547.546237 C20.2307309,547.546237 18.0156767,544.748773 19.8400118,535.073842 C20.5612264,531.249759 27.0874108,534.895875 32.0404366,530.362866"/><path id="Fill-159" fill="#BEC9DE" d="M54.6670396,317.991513 C56.1946632,320.287434 56.1946632,347.834071 50.8465117,360.841838 C45.4968912,373.849605 35.5629311,392.21403 31.7424031,410.576984 C27.9218752,428.94288 24.0998784,526.885009 25.6289709,531.47685 L19.8401587,535.07443 C19.8401587,535.07443 -1.88147413,454.958413 24.0998784,375.380709 C24.0998784,375.380709 27.9218752,365.432209 26.3927827,360.841838 C24.8636902,356.251467 21.0431623,323.348171 24.0998784,313.401142 L54.6670396,317.991513 Z"/><polyline id="Fill-161" fill="#899CB8" points="195.834 99.721 202.986 90.801 199.091 87.58 191.066 96.65"/><path id="Fill-163" fill="#DBE3F4" d="M196.287297,126.280359 C196.287297,126.280359 201.716236,118.924882 204.348449,113.107863 C204.348449,113.107863 210.984799,99.9883153 196.566382,96.2524801 C196.566382,96.2524801 192.236157,93.662399 186.752869,99.591199 C186.752869,99.591199 177.814802,99.1661374 179.267514,110.49572 C180.176743,117.579099 179.649419,120.486873 179.649419,120.486873 L179.813933,124.768376 L196.287297,126.280359 Z"/><path id="Fill-165" fill="#BEC9DE" d="M185.775337,125.31522 L196.286563,126.280065 C196.286563,126.280065 201.716971,118.924588 204.349184,113.107569 C204.349184,113.107569 210.984065,99.9880212 196.567117,96.2521859 C196.567117,96.2521859 201.746348,101.057294 197.743681,108.358351 L185.775337,125.31522 Z"/><path id="Fill-167" fill="#899CB8" d="M185.822635,101.923154 L168.98646,121.60983 L174.851653,125.672183 L190.550924,105.569271 C190.550924,105.569271 191.414618,98.8491797 185.822635,101.923154"/><path id="Fill-169" fill="#0751CF" d="M195.799633,128.203579 C195.843699,129.346392 194.247038,141.117214 191.661829,152.276184 C188.315746,166.719453 181.481099,182.286414 180.636499,184.183747 C178.296591,189.428625 173.644684,197.188572 166.270962,198.740268 C158.898709,200.290492 161.141672,199.958091 150.681856,198.627016 C140.222041,197.297412 125.310085,180.846499 124.813607,188.090195 C124.161429,197.612163 118.023026,207.718039 117.1608,215.685369 C116.82296,218.810822 117.632307,222.064235 117.451636,223.312945 C116.883184,227.25028 117.373786,230.747845 116.599692,235.392636 C115.846162,239.925646 113.824999,245.629413 113.481284,247.872385 C111.289731,262.153866 119.928149,311.034476 119.546243,312.442033 C118.923443,314.729129 106.117844,314.910037 89.3977095,318.750299 C72.6761063,322.589091 72.6261648,312.900923 64.9968599,316.838258 C57.3690239,320.775593 49.3534064,315.017406 42.5951408,317.004458 C35.8368751,318.992982 32.5950815,314.655589 27.1499846,316.066087 C21.7048877,317.475115 21.5212791,316.024905 20.0832565,313.637794 C19.3400088,312.403792 22.5685826,291.240432 23.1458481,282.998062 C23.684923,275.294004 25.4490345,263.914415 26.518371,251.206692 C26.7901118,247.982695 28.8788433,241.886224 28.4499336,234.81314 C28.3691458,233.465886 28.5454101,227.791535 27.7125614,225.511793 C27.4334763,224.749918 26.709324,224.777863 25.5401043,225.595629 C8.96098142,226.916408 0.470919359,222.346628 0.071387027,211.88629 C-0.52938034,196.197252 35.4960975,137.310781 48.9377166,132.370359 C62.3793356,127.431408 72.2442589,125.906187 82.0313322,126.087096 C101.371929,126.44303 123.75749,130.865729 134.273122,136.86954 C139.007287,139.571402 143.19797,147.219569 147.187417,152.321779 C148.272912,153.711686 152.296143,155.04129 155.251508,156.625343 C158.763573,158.507969 161.226866,160.570032 161.881982,160.961266 C163.086454,161.686371 163.139333,159.04187 166.181361,151.593732 C169.223388,144.148536 179.486375,123.735285 180.40148,123.148435 C181.315117,122.561585 184.692046,123.104311 189.589255,124.713368 C194.484995,126.320953 195.702687,125.673801 195.799633,128.203579"/><path id="Fill-171" fill="#0C47B0" d="M195.799633,128.203579 C195.843699,129.346392 194.247038,141.117214 191.661829,152.276184 C188.315746,166.719453 181.481099,182.286414 180.636499,184.183747 C178.296591,189.428625 173.644684,197.188572 166.270962,198.740268 C165.893463,198.819691 164.367308,199.296231 161.655776,199.733059 C161.385504,199.777183 155.627538,199.878668 148.146589,197.960743 C146.423606,197.519503 144.039631,196.392869 140.991729,194.585254 C148.106929,196.247259 152.851376,197.182689 155.228006,197.394484 C160.388142,197.851904 163.00126,196.650259 163.527115,196.170778 C166.929015,193.068858 170.144369,190.208149 171.619113,188.085783 C177.38883,179.778697 180.355945,170.049347 182.274288,163.932284 C183.53164,159.924351 183.932641,156.27088 184.858028,152.537987 C185.953805,148.107933 187.588656,143.583748 189.495247,138.493305 C190.212055,136.57538 189.45265,133.604361 189.843369,131.368743 C190.110704,129.840581 190.025509,127.621142 189.589255,124.713368 C194.484995,126.320953 195.702687,125.673801 195.799633,128.203579"/><polygon id="Fill-173" fill="#0751CF" points="199.834 88.369 202.753 84.683 205.865 86.095 202.264 90.253"/><g id="Group-177" transform="translate(0.000000, 125.595260)"><mask id="mask-4" fill="#fff"><use xlink:href="#path-3"/></mask><path id="Fill-175" fill="#0C47B0" d="M79.7578169,191.41817 C79.7578169,191.41817 72.924639,159.801825 71.2310332,144.014244 C69.5374273,128.223722 69.8752672,120.421121 71.2310332,113.296559 C72.5867991,106.171998 76.7231339,80.9418724 74.9928063,74.5571239 C73.2639477,68.1738463 70.4143421,42.6054366 70.3115212,32.4274916 C70.2072316,22.2495466 76.9096802,0.490512232 82.0316259,0.489771805 C82.0316259,0.489771805 57.9950558,0.264008833 47.0417006,7.73420862 C47.0417006,7.73420862 36.0442794,14.4013509 17.2941683,45.7205937 C17.2941683,45.7205937 -1.28408517,76.7133186 0.0702119319,86.2911767 C0.0702119319,86.2911767 -1.87310158,104.529113 26.7125555,99.0959728 C26.7125555,99.0959728 28.118263,99.9063843 28.2607433,103.145089 C28.4017547,106.385264 28.1461715,115.171831 27.2354728,121.497747 C26.3247741,127.825134 25.0512648,139.835698 25.0512648,139.835698 C25.0512648,139.835698 23.7087186,152.443407 23.0315701,158.813447 C22.3558904,165.183487 21.1719821,174.926075 21.1719821,174.926075 C21.1719821,174.926075 14.9263517,194.993688 27.1502784,190.469503 C27.1502784,190.469503 31.7111162,189.319337 34.0701196,191.068119 C36.4305919,192.816902 42.5954346,191.409345 42.5954346,191.409345 C42.5954346,191.409345 47.7849483,190.056208 52.2091813,191.818228 C56.6334143,193.581719 61.7098251,192.64776 63.3534894,191.944717 C64.9971537,191.243145 68.7060476,188.798673 73.8191801,192.175633 C73.8191801,192.175633 78.96169,194.94221 81.964058,194.071496 L79.7578169,191.41817 Z" mask="url(#mask-4)"/></g><path id="Fill-178" fill="#003F7E" d="M27.8773685,225.331031 L27.7833609,222.864498 C29.6943593,219.525779 30.8312638,217.054833 31.1940744,215.45313 C33.4487881,205.506101 34.4814029,199.733206 36.1368181,194.914861 C39.4197401,185.366419 44.9955663,177.588821 45.2056145,175.297313 C45.3451571,173.76915 42.6336251,175.004623 37.0724876,179.002261 C33.5986127,177.328489 31.1617593,177.009326 29.7633961,178.046241 C27.6658514,179.597936 29.9866642,188.396269 28.2049262,193.071947 C26.4231883,197.749095 23.7689423,196.540096 21.307118,200.243574 C18.8452938,203.948522 18.3914133,208.157955 17.6922318,208.888944 C17.2266003,209.37725 12.1149367,210.964244 2.35577189,213.65434 C2.35870963,218.484451 3.02851383,221.452528 4.36371564,222.558571 C7.78324236,225.395747 14.2873937,225.851695 17.4131467,225.731089 C19.1111591,225.667845 20.5624015,225.82375 21.7639363,225.804629 C22.9052474,225.78698 24.1155953,225.739914 25.3935112,225.666374 C25.9311172,225.061875 26.3717779,224.738298 26.7125555,224.691233 C27.0548019,224.645638 27.4425833,224.858904 27.8773685,225.331031"/><path id="Fill-180" fill="#DBE3F4" d="M381.979056,308.565 C381.979056,308.565 378.549247,347.400038 381.839513,363.114079 C381.839513,363.114079 384.833068,386.61013 383.962029,392.421266 C383.090989,398.232402 383.618313,418.385321 388.402419,428.958911 C388.402419,428.958911 399.583449,530.126508 396.175673,551.426652 C396.175673,551.426652 402.654854,557.220138 406.067036,552.804793 C409.479219,548.389447 421.293331,484.77435 422.234876,460.131074 C423.176421,435.489269 430.329812,376.186561 431.848623,370.398958 C431.848623,370.398958 433.010498,398.847196 435.401816,404.134727 C437.794604,409.420787 457.332029,453.818395 455.94101,473.24768 C455.94101,473.24768 462.035347,532.490085 460.493034,538.926312 C460.493034,538.926312 469.854136,542.295918 471.845922,541.073682 C473.839177,539.851446 491.331936,451.090059 472.714023,395.173135 C472.714023,395.173135 463.721608,373.143473 468.554187,363.752407 C465.553288,369.584134 474.745469,326.351401 463.347047,298.653271 L471.190806,308.348793 L381.979056,308.565 Z"/><path id="Fill-182" fill="#DBE3F4" d="M408.807505,545.306501 C408.807505,545.306501 415.054604,561.954501 403.566581,562.378092 C392.077088,562.801682 362.50582,557.605341 359.550456,554.900538 C359.550456,554.900538 354.42851,547.252371 362.59689,546.990568 C370.76527,546.727295 395.235156,546.088967 400.50252,541.685388 C400.50252,541.685388 405.454077,546.328708 408.807505,545.306501"/><g id="Group-186" transform="translate(357.827027, 322.682634)"><mask id="mask-6" fill="#fff"><use xlink:href="#path-5"/></mask><path id="Fill-184" fill="#BEC9DE" d="M45.7389661,239.696046 C50.680241,239.541612 56.6203467,234.514413 50.9798902,222.624455 C50.9798902,222.624455 66.6395012,154.842578 65.9050668,119.543347 C65.9050668,119.543347 68.1083701,98.2167277 68.1083701,92.3335226 C68.1083701,86.4503174 73.1010554,52.0968115 73.1010554,52.0968115 C73.1010554,52.0968115 90.1414031,30.5598681 81.3281899,2.61464346 C79.5449831,-3.04058752 56.358888,4.08544476 56.358888,4.08544476 C56.358888,4.08544476 48.2786404,37.9138746 52.685247,48.9448843 C57.0918536,59.975894 51.2163781,84.9795161 49.7475092,90.8627213 C48.2786404,96.7459264 49.7475092,120.278747 49.7475092,120.278747 C49.7475092,120.278747 53.4329012,228.026709 45.8623511,232.983309 C45.8623511,232.983309 35.2820886,238.525288 18.7969733,235.167449 C18.7969733,235.167449 1.89910585,232.302328 0.402328468,229.362196 C0.402328468,229.362196 0.610907848,232.169956 3.32684639,233.080382 C3.32684639,233.080382 24.0658059,240.377027 45.7389661,239.696046" mask="url(#mask-6)"/></g><path id="Fill-187" fill="#DBE3F4" d="M461.635814,531.609664 C461.635814,531.609664 447.220335,533.330501 431.954381,534.79689 C431.954381,534.79689 427.342133,537.707606 432.973776,540.803643 C438.605419,543.896738 444.802577,544.424756 449.906896,545.436667 C456.957467,546.83687 461.391982,550.559468 472.985764,548.125292 C472.985764,548.125292 475.114155,545.436667 473.361795,536.138261 C472.668488,532.462729 466.396418,535.967648 461.635814,531.609664"/><path id="Fill-189" fill="#BEC9DE" d="M439.889651,327.502891 C438.420783,329.709093 438.420783,356.183516 443.561824,368.685327 C448.702865,381.187138 458.250512,398.836754 461.922684,416.486369 C465.594857,434.135985 469.267029,528.268739 467.79816,532.681143 L473.362235,536.138996 C473.362235,536.138996 494.2378,459.139607 469.267029,382.65794 C469.267029,382.65794 465.594857,373.097731 467.063725,368.685327 C468.532594,364.272923 472.204767,332.650695 469.267029,323.090487 L439.889651,327.502891 Z"/><polyline id="Fill-191" fill="#899CB8" points="304.215 117.726 297.341 109.151 301.086 106.056 308.798 114.774"/><path id="Fill-193" fill="#DBE3F4" d="M303.779709,143.250612 C303.779709,143.250612 298.562286,136.181941 296.031425,130.589954 C296.031425,130.589954 289.653597,117.980775 303.510906,114.39202 C303.510906,114.39202 307.672211,111.901953 312.942513,117.599837 C312.942513,117.599837 321.532458,117.192425 320.137032,128.080767 C319.264524,134.886165 319.769815,137.682158 319.769815,137.682158 L319.612646,141.79746 L303.779709,143.250612 Z"/><path id="Fill-195" fill="#BEC9DE" d="M313.882589,142.322683 L303.779709,143.250759 C303.779709,143.250759 298.562286,136.182088 296.031425,130.58863 C296.031425,130.58863 289.653597,117.980922 303.510906,114.392167 C303.510906,114.392167 298.532909,119.009012 302.379876,126.024734 L313.882589,142.322683 Z"/><path id="Fill-197" fill="#899CB8" d="M313.837347,119.841338 L330.018407,138.761726 L324.380888,142.666704 L309.292667,123.346258 C309.292667,123.346258 308.462756,116.886499 313.837347,119.841338"/><path id="Fill-199" fill="#DBE3F4" d="M424.854603,151.933193 C422.091661,151.428708 419.197989,148.400328 416.175057,142.845112 C413.152125,137.291366 406.49668,121.061074 396.210192,94.1527641 L370.753225,99.6947434 L367.774359,113.935042 C366.207076,121.234628 365.704723,126.258886 366.265831,129.003401 C366.907727,132.142091 367.294039,135.579353 370.784071,137.341373 C371.875441,137.891453 374.936564,138.476832 376.500909,139.003379 C380.881076,140.477122 383.955419,140.169724 388.663143,138.082657 L387.088516,150.984526 C391.083839,149.491663 397.532174,153.434881 403.557474,152.687714 C409.582774,151.940547 416.681817,151.68904 424.854603,151.933193"/><path id="Fill-201" fill="#0751CF" d="M304.248131,145.099115 C304.207002,146.197803 305.740502,157.509736 308.225828,168.234819 C311.441182,182.114771 318.008494,197.077233 318.822248,198.899555 C321.071086,203.941462 325.542323,211.401366 332.628146,212.891288 C339.71397,214.379739 337.559139,214.062046 347.610609,212.78392 C357.663547,211.502852 371.995301,195.691738 372.472683,202.655982 C373.09989,211.807308 378.998868,221.520479 379.82731,229.176 C380.153398,232.179376 379.373429,235.307771 379.546756,236.506474 C380.094644,240.292316 379.623137,243.653097 380.366384,248.11845 C381.090537,252.474963 383.03385,257.955169 383.364346,260.111364 C385.469235,273.836882 377.167188,320.815746 377.535874,322.168883 C378.133704,324.367731 390.441356,324.541285 406.510781,328.231526 C422.580207,331.920296 422.630148,322.610123 429.961273,326.394495 C437.292397,330.177396 444.995146,324.642771 451.491953,326.553342 C457.987291,328.463912 461.102762,324.295662 466.336342,325.65174 C471.568453,327.006348 471.744717,325.612029 473.128391,323.317579 C473.842262,322.132113 470.738542,301.790931 470.184778,293.870666 C469.666267,286.466652 467.971193,275.528303 466.942984,263.31624 C466.681526,260.218732 464.675051,254.357589 465.086334,247.561016 C465.164184,246.26524 464.995264,240.811509 465.795798,238.621486 C466.063132,237.889027 466.759376,237.915501 467.883061,238.700909 C483.81735,239.970211 491.976917,235.579869 492.36176,225.526942 C492.937557,210.448287 458.314849,153.851853 445.396147,149.104107 C432.475976,144.35636 422.997366,142.891442 413.589261,143.063526 C395.002194,143.407693 373.487672,147.656838 363.380385,153.428263 C358.831298,156.025698 354.80366,163.375292 350.969912,168.280414 C349.925546,169.614431 346.059483,170.892557 343.218691,172.414837 C339.84323,174.225393 337.475413,176.205091 336.846738,176.583087 C335.6878,177.278776 335.637859,174.735761 332.713341,167.580313 C329.790292,160.423394 319.926837,140.804375 319.048454,140.241058 C318.17007,139.67627 314.92387,140.199876 310.217614,141.744217 C305.511358,143.290029 304.34067,142.669351 304.248131,145.099115"/><path id="Fill-203" fill="#0C47B0" d="M304.248131,145.099115 C304.207002,146.197803 305.740502,157.509736 308.225828,168.234819 C311.441182,182.114771 318.008494,197.077233 318.822248,198.899555 C321.071086,203.941462 325.542323,211.401366 332.628146,212.891288 C332.990957,212.96777 334.458357,213.425189 337.06413,213.845838 C337.32412,213.888491 342.857349,213.985564 350.047462,212.14118 C351.702877,211.717589 353.994313,210.63655 356.924706,208.896592 C350.085653,210.495353 345.524815,211.394012 343.240724,211.596983 C338.281822,212.038223 335.771526,210.883644 335.266235,210.421813 C331.996533,207.439028 328.906032,204.693042 327.488574,202.65157 C321.942125,194.66806 319.091051,185.318176 317.24762,179.437913 C316.038741,175.587355 315.653898,172.075081 314.765232,168.486326 C313.712053,164.229827 312.140363,159.882139 310.307215,154.988783 C309.618315,153.14734 310.348343,150.289573 309.972313,148.142203 C309.71673,146.672872 309.797517,144.54021 310.217614,141.744217 C305.511358,143.290029 304.34067,142.669351 304.248131,145.099115"/><polygon id="Fill-205" fill="#0751CF" points="300.371 106.814 297.567 103.272 294.575 104.63 298.035 108.624"/><path id="Fill-207" fill="#DBE3F4" d="M371.090184,103.389543 C368.662144,96.4282408 372.272623,85.2810378 372.272623,85.2810378 C377.209491,71.4878632 403.735794,63.1851899 418.556681,79.2080992 C433.379037,95.2295378 417.152443,115.950186 413.963528,122.452599 C410.776083,128.953541 416.175645,142.845259 416.175645,142.845259"/><path id="Fill-209" fill="#113984" d="M384.604806,118.83884 C384.879484,111.662801 389.259651,102.692384 388.841023,99.3242486 C388.686792,98.0814215 386.802233,99.2477669 385.355398,99.1918764 C382.939108,99.0977452 381.364481,118.015191 376.527496,123.823386 C374.980777,125.679537 372.486637,123.818973 367.095889,118.166684 C365.061505,128.575545 365.177546,135.054424 369.388793,137.679805 C373.598571,140.303714 379.147958,141.261206 386.034015,140.553751 C387.18267,140.494918 388.046365,140.083094 388.628037,139.325631 C389.208241,138.565227 389.125984,134.446984 389.838385,132.07311 C385.613918,128.099005 384.355098,125.386848 384.604806,118.83884"/><polygon id="Fill-211" fill="#DBE3F4" points="373.362 102.811 364.13 111.674 370.249 116.233"/><path id="Fill-213" fill="#0C47B0" d="M415.775231,326.562166 C415.775231,326.562166 422.342544,296.176882 423.970051,281.001155 C425.597557,265.826898 425.272937,258.327282 423.970051,251.480702 C422.667164,244.632651 418.692405,220.385021 420.353695,214.248838 C422.016455,208.114126 424.754427,183.541448 424.85431,173.757678 C424.954193,163.976849 418.511734,143.063526 413.589554,143.062815 C413.589554,143.062815 436.691924,142.845847 447.217838,150.026299 C447.217838,150.026299 457.789287,156.43311 475.807902,186.534529 C475.807902,186.534529 493.663472,216.319726 492.362054,225.526942 C492.362054,225.526942 494.228986,243.054481 466.756732,237.833137 C466.756732,237.833137 465.405373,238.61119 465.268768,241.723406 C465.132163,244.838563 465.378933,253.282433 466.25291,259.364197 C467.128356,265.443019 468.351923,276.987338 468.351923,276.987338 C468.351923,276.987338 469.643059,289.103799 470.293768,295.225274 C470.943008,301.34822 472.081382,310.712812 472.081382,310.712812 C472.081382,310.712812 478.08318,329.997958 466.335167,325.65174 C466.335167,325.65174 461.952062,324.545698 459.684128,326.225353 C457.416195,327.906479 451.490778,326.553342 451.490778,326.553342 C451.490778,326.553342 446.502499,325.253153 442.251593,326.947516 C437.999217,328.640409 433.121104,327.744691 431.540601,327.069593 C429.961567,326.394495 426.396622,324.044155 421.483256,327.290213 C421.483256,327.290213 416.540512,329.950893 413.654185,329.111065 L415.775231,326.562166 Z"/><path id="Fill-215" fill="#003F7E" d="M465.63716,238.447637 L465.72823,236.078176 C463.890675,232.867417 462.797836,230.493544 462.449715,228.953615 C460.281664,219.393407 459.290178,213.844073 457.697924,209.213991 C454.544262,200.039132 449.18436,192.56452 448.983125,190.36126 C448.847989,188.8934 451.453762,190.078866 456.798976,193.92207 C460.137715,192.313013 462.480561,192.007086 463.824576,193.002819 C465.839864,194.494211 463.610121,202.949848 465.322822,207.444617 C467.035523,211.939386 469.58548,210.777453 471.951827,214.335321 C474.316706,217.896131 474.75296,221.942305 475.425702,222.645348 C475.872238,223.114534 480.785605,224.639755 490.165801,227.223953 C490.161395,231.865802 489.51803,234.720627 488.235708,235.782545 C484.948379,238.509411 478.698342,238.94771 475.693036,238.832987 C474.061123,238.769743 472.667166,238.921235 471.512635,238.903586 C470.413922,238.885936 469.252046,238.841812 468.024072,238.769743 C467.50703,238.188776 467.083996,237.876966 466.756438,237.832842 C466.427411,237.790189 466.054319,237.99316 465.63716,238.447637"/><path id="Fill-217" fill="#0C47B0" d="M396.770271,543.483737 C396.770271,543.483737 401.657198,546.032635 408.807652,545.30606 L410.608485,537.147525 C410.608485,537.147525 402.122829,538.763935 396.770271,534.247105 L396.770271,543.483737 Z"/><path id="Fill-219" fill="#0C47B0" d="M460.692654,531.852346 L460.202051,522.812801 C460.202051,522.812801 466.692983,529.294623 475.114008,527.972372 L473.361648,536.138261 C473.361648,536.138261 463.420343,536.713344 460.692654,531.852346"/><path id="Fill-221" fill="#BEC9DE" d="M467.205765,535.71467 C467.205765,535.71467 466.640251,539.750549 463.279479,539.841739 C459.920175,539.932928 447.220335,538.709222 447.220335,538.709222 C447.220335,538.709222 431.062778,536.661866 432.973776,540.803643 C432.973776,540.803643 439.945028,543.559924 448.756772,545.220459 C449.906896,545.436667 455.350524,547.019249 457.260054,547.547267 C459.168115,548.075284 469.260713,549.593151 473.535121,548.001744 C473.535121,548.001744 474.958455,541.146339 473.361795,536.138261 C473.361795,536.138261 470.642918,536.269162 467.205765,535.71467"/><path id="Fill-223" fill="#053A86" d="M467.205765,535.71467 C467.205765,535.71467 468.270695,528.718068 468.348545,527.488479 C468.348545,527.488479 472.665551,528.679828 475.299233,527.679683 L473.361795,536.138261 C473.361795,536.138261 471.622654,536.529494 467.205765,535.71467"/><path id="Fill-225" fill="#053A86" d="M407.388724,537.425359 C407.388724,537.425359 406.686605,544.964687 406.626381,545.433872 L408.807652,545.305913 L410.608485,537.148849 L407.388724,537.425359 Z"/><path id="Fill-227" fill="#0C47B0" d="M99.0346644,543.413433 C99.0346644,543.413433 93.9700046,546.054992 86.56103,545.301941 L84.6940977,536.846305 C84.6940977,536.846305 93.4882156,538.523018 99.0346644,533.839987 L99.0346644,543.413433 Z"/><path id="Fill-229" fill="#0C47B0" d="M32.7888253,531.358304 L33.297054,521.992241 C33.297054,521.992241 26.5696345,528.70792 17.8430846,527.338604 L19.6600754,535.800124 C19.6600754,535.800124 29.9612528,536.395798 32.7888253,531.358304"/><path id="Fill-231" fill="#053A86" d="M26.0387853,535.361384 C26.0387853,535.361384 24.9356648,528.110333 24.854877,526.835149 C24.854877,526.835149 20.3807024,528.070622 17.6515441,527.033707 L19.6594878,535.799683 C19.6594878,535.799683 21.4617899,536.205624 26.0387853,535.361384"/><path id="Fill-233" fill="#053A86" d="M88.0306333,537.13517 C88.0306333,537.13517 88.7591923,544.948067 88.8208847,545.434902 L86.5602956,545.30253 L84.6948321,536.846893 L88.0306333,537.13517 Z"/></g></g></g></g></svg>