<svg xmlns="http://www.w3.org/2000/svg" xmlns:xlink="http://www.w3.org/1999/xlink" width="105" height="197" version="1.1" viewBox="0 0 105 197"><title>Group 25</title><desc>Created with Sketch.</desc><g id="Page-1" fill="none" fill-rule="evenodd" stroke="none" stroke-width="1"><g id="About-us---about-us--Copy-3" transform="translate(-873.000000, -3045.000000)"><g id="Group-4" transform="translate(709.000000, 3045.000000)"><g id="Group-25" transform="translate(164.000000, 0.000000)"><path id="Fill-12" fill="#DBE3F3" d="M74.4115643,101.678864 C67.8497358,100.315226 57.4306311,100.227273 57.4306311,100.227273 C57.4306311,100.227273 32.3762438,112.448284 29.6227173,113.915397 C26.8691907,115.38251 21.8891598,118.231 21.0807179,118.959752 C21.0807179,118.959752 18.3556988,120.355911 14.9340748,124.207359 C11.2946246,128.304188 11.76317,132.465319 11.76317,132.465319 C11.76317,132.465319 11.1053059,138.998959 11.7105409,148.600602 C11.7105409,148.600602 12.8530314,167.764715 16.8981645,186.129862 C16.8981645,186.129862 19.5625139,185.458759 24.9314156,184.602882 C24.9314156,184.602882 24.6368387,143.392167 25.2808145,135.500801 C25.2808145,135.500801 32.1956967,118.603506 29.9896592,127.548828 C27.0819001,139.33451 31.1701597,184.328676 31.1701597,184.328676 C32.428142,187.907396 39.0652594,185.067776 39.0652594,185.067776 C38.7874946,141.64937 45.2119026,138.522979 45.2119026,138.522979 C49.3915323,136.055125 52.3833518,134.084686 55.1149496,133.004861 C57.8458164,131.924298 85.5850199,124.985631 85.5850199,124.985631 C85.5850199,124.985631 95.6349899,122.393609 97.6239322,110.271636 C99.1859939,100.753512 97.6239322,110.271636 97.6239322,110.271636 C97.6239322,110.271636 86.5813185,101.361052 75.6943993,102.075022"/><path id="Fill-14" fill="#BEC9DD" d="M25.2000035,154.273191 C25.2000035,154.273191 24.8089953,141.22011 25.3929686,136.746075 C25.975491,132.270565 28.5863232,130.610699 30.2337808,128.740491 C30.2337808,128.740491 37.1311947,122.064865 38.9737937,120.881777 C40.8171181,119.697213 59.9765206,108.636118 62.0454545,106.909091 C62.0454545,106.909091 38.7619674,115.622462 32.3259287,119.010831 C32.3259287,119.010831 22.05888,123.544647 18.7255168,126.431145 C15.1034315,129.56784 14.1690742,131.35465 14.3366491,135.687717 C14.462149,138.944714 14.9554432,146.105236 15.0461223,149.248574 C15.367489,160.480896 17.2659463,166.134328 19.1738342,185.181818 L24.2424323,184.682899 C24.2424323,184.682899 24.4317703,176.455163 24.3846171,170.53013 C24.3505218,166.233964 24.8285819,163.942331 25.2000035,154.273191"/><path id="Fill-16" fill="#DBE3F3" d="M86.0927026,33.0244303 C86.0927026,33.0244303 81.0784642,29.6374865 80.545628,23.6707505 L80.5551691,22.0181517 C80.5551691,22.0181517 85.1628079,15.8812952 81.3940559,13.4046064 C81.3940559,13.4046064 79.9188482,7.87753237 76.6528411,5.07680453 C75.3200166,3.93456712 70.4268774,0.663246301 65.1080564,2.41452971 C59.7899693,4.16507666 53.8128093,9.95727347 55.7298454,16.2833981 C55.7298454,16.2833981 55.9140629,20.3095825 58.06449,21.7883786 C58.06449,21.7883786 58.9430092,25.7976245 59.369425,27.2042483 C59.7951068,28.6101356 64.9120959,36.1941207 70.6448559,35.7426755 C70.6448559,35.7426755 70.0577085,38.4447187 70.3366035,41.0480773 L71.1123719,44.8636364 L87.8181818,37.845983 L86.0927026,33.0244303 Z"/><path id="Fill-18" fill="#1255CC" d="M99.7766045,88.1232257 C101.790155,78.1242384 104.847742,67.4345025 104.980712,61.1261065 C105.112952,54.8169771 104.564997,53.6283325 103.343424,47.4079299 C102.094087,41.0408716 89.6847419,36.4476142 89.6847419,36.4476142 L86.4452343,34.3636364 C86.4452343,34.3636364 77.256401,43.6960735 70.8256058,36.357421 L66.9585075,36.3830857 C66.9585075,36.3830857 66.1679917,36.8003212 62.4155986,37.4331407 C58.6632055,38.0666934 54.9276163,47.4211289 54.9276163,47.4211289 C54.9276163,47.4211289 52.4260209,57.8248861 48.8745445,66.3433839 C45.3216068,74.8618817 31.5,90.0671474 31.5,90.0671474 C35.7879274,91.0827383 36.6463896,93.9447248 36.6463896,93.9447248 C48.035078,88.6783176 59.888432,69.0403827 59.888432,69.0403827 C61.0150266,70.3624841 61.8844479,70.7540549 62.4177904,70.8479145 C62.7385265,70.9058435 62.965745,71.1903556 62.9102189,71.5137315 C61.7565918,78.223231 58.7369967,96.8653735 57.3422696,98.0408192 L55.4171224,101.795206 C55.4171224,101.795206 79.4621009,101.24598 92.7971241,108.220193 L97.6505406,110.727273 L99.7766045,88.1232257 Z"/><path id="Fill-20" fill="#134AAD" d="M60.1363636,68.4255852 C60.1363636,68.4255852 56.3106957,63.9709576 58.5546466,53.4545455 C58.5546466,53.4545455 54.1071698,63.0664234 53.3177813,69.3952045 C52.5276577,75.723246 51.2017202,80.220031 46.437459,82.1407795 C41.6731978,84.0615279 34.3636364,90.0338205 34.3636364,90.0338205 C34.3636364,90.0338205 36.6061172,92.2104715 36.7545869,93.5454545 C36.7545869,93.5454545 48.7872497,88.5346456 60.1363636,68.4255852"/><path id="Fill-22" fill="#134AAD" d="M56.2458899,99.7476984 C56.2458899,99.7476984 87.4869214,95.599598 90.4054837,94.6791854 C93.3255152,93.7587728 95.9928447,92.1368487 95.9928447,92.1368487 C105.708653,73.046919 104.827868,53.4545455 104.827868,53.4545455 C105.674861,56.6124494 103.222769,72.6833083 101.254044,81.169762 C99.0054357,90.8616402 97.9667125,110.727273 97.9667125,110.727273 C95.7254506,108.829886 78.8928463,101.23887 59.5501168,101.520209 L55.3636364,101.461443 L56.2458899,99.7476984 Z"/><path id="Stroke-24" stroke="#134AAD" d="M85.9090909,38.1818182 C85.9090909,38.1818182 76.3026167,46.3616462 68.7272727,38.7761307"/><path id="Fill-26" fill="#143B82" d="M77.2020049,14.3181818 L68.8459281,16.9535708 L67.1920311,17.4091727 L61.89119,20.0196282 L59.9746321,21.0328325 L57.4331725,22.6187503 L55.3636364,23.6840881 L56.3969612,24.8181818 L58.3604228,23.7913775 C58.3604228,23.7913775 60.9841443,21.6093238 61.4315336,22.6338615 L63.3235572,21.8171024 C63.3235572,21.8171024 62.838645,20.6852754 64.3756435,20.0249171 L67.1747128,18.4170881 C67.1747128,18.4170881 68.9520027,17.8277522 69.6165922,18.4261548 L76.3844371,15.5406759 L77.3181818,15.0004514 L77.2020049,14.3181818 Z"/><path id="Stroke-28" stroke="#143B82" d="M69.8142322,17.1818182 C69.8142322,17.1818182 71.1604604,20.5172781 70.4075347,21.7289032 C70.4075347,21.7289032 67.3200293,24.2685069 65.0073158,23.807748 C65.0073158,23.807748 63.5597743,22.9630234 63,21.363554"/><path id="Stroke-30" stroke="#143B82" d="M61.0909091,21.9545455 L61.04508,26.0955459 C61.04508,26.0955459 58.7187388,27.9008847 57.5839549,27.6596251 C57.5839549,27.6596251 55.6947005,26.1313987 55.3636364,23.6807092"/><polygon id="Fill-32" fill="#143B82" points="50.591 114.545 37.346 84.057 14.318 81.136 27.918 110.978"/><path id="Fill-34" fill="#143B82" d="M55.6304387,21.5758715 C55.6304387,21.5758715 49.466644,8.4450004 64.8328557,2.51540574 C64.8328557,2.51540574 71.2072551,-0.0663371205 76.1781038,5.18350192 C76.1781038,5.18350192 76.5509896,-0.558624853 80.3058123,0.0443722646 C80.3058123,0.0443722646 86.8655727,-0.360824085 87.8702727,4.68826194 C87.8702727,4.68826194 89.6748379,2.90141246 91.5955242,5.87654267 C94.2518846,9.98828923 92.7451952,11.259233 91.9006126,12.8718997 C89.9496338,16.5976395 93.4440856,20.2975472 93.4440856,20.2975472 C93.4440856,20.2975472 97.8826525,22.8505056 95.8984962,26.1370982 C93.9136188,29.4244289 93.2385296,35.5230399 96.2252221,40.0909091 C96.2252221,40.0909091 91.6972203,37.7232044 91.1642173,37.5379507 C90.6312142,37.352697 85.3192147,35.9068324 81.6494993,28.9033567 C78.4060422,22.713964 79.010449,23.8217959 80.0122639,22.1618932 C80.0122639,22.1618932 82.3642572,18.8834193 81.7374917,16.3252944 C81.7374917,16.3252944 80.962149,13.807025 79.13234,14.1553905 C79.13234,14.1553905 76.4117885,15.0395894 76.9520041,17.9032722 L76.2697024,19.1815966 C75.1517664,13.9893264 72.0951127,14.9820206 72.0951127,14.9820206 C68.7391408,13.9701368 70.0539778,12.1980486 70.0539778,12.1980486 C70.0539778,12.1980486 68.8365094,15.1001106 66.1354316,15.5023547 C63.4357963,15.9038607 57.154438,16.3334131 55.6304387,21.5758715"/><path id="Fill-36" fill="#134AAD" d="M69.8840305,90.3062426 C80.0280793,84.343744 79.4241626,82.3472711 80.051419,79.8611383 C80.6794048,77.3742781 75.5402786,72.8400143 75.5402786,72.8400143 C87.7754251,74.3744755 90.8694037,62.942776 90.8694037,62.942776 L91.6914013,61.4454213 C92.6096755,57.8053505 92.6096755,58.9432819 92.8591194,56.6688742 L93.5454545,56.3181818 C93.5454545,56.3181818 92.4791187,66.2510714 91.248675,71.2480745 C91.248675,71.2480745 91.1640684,71.5369228 91.0378877,71.9523697 L91.4441456,70.7780594 C91.4441456,70.7780594 89.2195735,79.4915289 88.5383439,80.4366522 C87.442104,82.0795225 85.5362656,85.0123879 84.2737298,86.0695582 C78.8443152,90.4561236 69.276467,91.0971195 58.2272727,94.5 L58.4176377,93.6974819 C58.4176377,93.6974819 67.4968094,91.2695554 69.8840305,90.3062426"/><path id="Fill-38" fill="#082D63" d="M87.9721007,4.38349613 C87.9721007,4.38349613 88.811207,5.95007712 87.8181818,7.63636364 C87.8181818,7.63636364 90.1900934,5.26158448 91.6363636,5.57980786 C91.6363636,5.57980786 90.1567561,2.60873163 87.9721007,4.38349613"/><path id="Fill-40" fill="#082D63" d="M76.3636364,4.98227295 C76.3636364,4.98227295 80.071906,5.71243764 81.1353388,9.54545455 C81.1353388,9.54545455 81.3248758,4.7959071 76.5488328,3.81818182 L76.3636364,4.98227295 Z"/><path id="Fill-42" fill="#082D63" d="M82.3429626,20.4910191 C82.3429626,20.4910191 83.19312,27.3875368 90.3641058,35.4747188 L93.5454545,39.1363636 C93.5454545,39.1363636 90.3406874,37.6293249 89.4202749,37.2284851 C88.953327,37.0247311 86.0281609,35.308011 83.9900539,32.5784481 C81.9512373,29.8503671 79.9386776,26.1968724 79.2765767,23.9540964 C79.2765767,23.9540964 78.9948467,23.763679 79.7782973,22.8145558 C80.5624575,21.8646916 81.7936956,18.1363636 81.7936956,18.1363636 L82.3429626,20.4910191 Z"/><path id="Fill-44" fill="#BEC9DD" d="M70.7714004,36.3054952 C70.7714004,36.3054952 72.3682635,36.7044227 75.7548993,34.3636364 C75.7548993,34.3636364 77.6139766,37.8422574 79.2272727,38.455043 C79.2272727,38.455043 74.52385,40.7039801 70.6363636,37.0300079 L70.7714004,36.3054952 Z"/><path id="Fill-46" fill="#134AAD" d="M62.4239492,70.6363636 C62.4239492,70.6363636 63.5663336,71.0830822 66.1998629,71.3924031 C68.8473427,71.7038378 62.2046176,77.4949732 61.0909091,81.1363636 L62.4239492,70.6363636 Z"/><path id="Fill-48" fill="#1255CC" d="M60.7690189,93.5454545 C60.7690189,93.5454545 53.8772475,94.5570355 54.4419962,94.6220559 C54.9684829,94.6836542 57.2886973,97.6759625 56.3688761,99.2727273 L59.5400399,98.8921867 C59.5400399,98.8921867 61.9398394,94.2387776 60.7690189,93.5454545"/><path id="Fill-50" fill="#134AAD" d="M75.7298795,72.7248872 C75.7298795,72.7248872 73.5802099,71.8741586 73.5019082,73.8775102 C73.4243316,75.8815754 75.7378547,79.0204211 75.7378547,79.0204211 C75.7378547,79.0204211 78.15868,84.8620429 74.1333964,87.3599874 L77.0001059,87.8181818 C77.0001059,87.8181818 82.7378751,83.9406582 82.9858302,83.1241872 C83.2337854,82.3077162 85.9090909,77.6065845 85.9090909,77.6065845 L75.7298795,72.7248872 Z"/><path id="Fill-52" fill="#BEC9DD" d="M20.2555786,93.5454545 C20.2555786,93.5454545 25.4959822,95.4237859 24.7444363,99.9953338 C24.7444363,99.9953338 24.2850273,102.040314 22.6138781,100.760789 C22.6138781,100.760789 19.1749859,97.7717002 20.2555786,93.5454545"/><polygon id="Fill-54" fill="#2262BF" points="14.318 80.571 16.42 79.227 38.831 81.833 51.545 112.853 50.356 114.545 37.197 83.541"/><path id="Fill-56" fill="#BEC9DD" d="M53.5699081,95.1373646 C53.5699081,95.1373646 50.7245644,95.1643172 49.0036261,94.6769241 C47.2819495,94.1887824 46.024653,92.1912943 45.2501939,92.6622163 C44.476473,93.133887 45.0183729,94.9389634 45.6082613,95.6150248 L46.0955282,96.2102283 C46.0955282,96.2102283 43.7595999,95.9856232 42.8662772,96.6122714 C41.9729544,97.2389197 39.1755991,100.068944 39.1755991,100.068944 C39.1755991,100.068944 37.1054528,102.952125 38.940825,103.844556 C41.4989766,105.088119 41.9648333,105.293259 44.2741834,104.626182 C47.2310079,103.771934 48.4528667,102.705059 48.4528667,102.705059 C48.4528667,102.705059 48.8234849,102.174991 51.1106865,101.480961 C53.4901735,100.75923 52.7120229,100.774204 55.9220786,100.092902 C55.9220786,100.092902 57.7449,95.832143 53.5699081,95.1373646"/><path id="Fill-58" fill="#DBE3F3" d="M54.1755334,95.4717436 C54.1755334,95.4717436 50.1783419,95.6102472 48.9019525,94.6340869 C47.6255632,93.6570971 46.9792621,93.094789 46.9792621,93.094789 C46.9792621,93.094789 46.1826242,92.2712315 45.8708963,92.7298692 C45.5599054,93.1893364 46.7264898,94.2086236 46.7264898,94.2086236 C46.7264898,94.2086236 49.852612,96.5324989 51.4274642,96.4039476 C53.0023164,96.2753964 55.1556707,95.9378456 55.1556707,95.9378456 C55.1556707,95.9378456 56.0355835,95.7147469 54.1755334,95.4717436"/><path id="Fill-60" fill="#BEC9DD" d="M24.6842413,185.181818 C24.6842413,185.181818 27.7409913,192.639808 23.609574,194.161986 C18.2024936,196.154972 3.18209237,197.238889 1.4090747,196.28592 C1.4090747,196.28592 -2.04526548,193.162087 1.86314915,191.947221 C5.77083021,190.733112 14.850852,189.201851 16.8270662,186.312665 C16.8270662,186.312665 23.1973126,186.136302 24.6842413,185.181818"/><path id="Fill-62" fill="#1255CC" d="M24.7960894,184.740912 C24.7960894,184.740912 21.8875063,186.834836 16.6363636,185.892724 L15.2727273,179.291775 C15.2727273,179.291775 18.626968,181.088109 24.8181818,178.5 L24.7960894,184.740912 Z"/><path id="Fill-64" fill="#DBE3F3" d="M39.0028924,185.181818 C39.0028924,185.181818 42.0589162,192.639601 37.9274889,194.161737 C32.5211289,196.154667 17.5006911,197.238555 15.7269356,196.286369 C15.7269356,196.286369 12.2733206,193.162623 16.1810111,191.947034 C20.0894353,190.732958 29.1694792,189.202497 31.1456981,186.312634 C31.1456981,186.312634 37.51596,186.136275 39.0028924,185.181818"/><path id="Fill-66" fill="#1255CC" d="M39.114677,185.695457 C39.114677,185.695457 36.2595159,187.789381 31.1048208,186.84727 L30.5454545,179.69971 C30.5454545,179.69971 33.0588638,182.042654 39.1363636,179.454545 L39.114677,185.695457 Z"/></g></g></g></g></svg>