<svg xmlns="http://www.w3.org/2000/svg" xmlns:xlink="http://www.w3.org/1999/xlink" width="105" height="156" version="1.1" viewBox="0 0 105 156"><title>Group 27</title><desc>Created with Sketch.</desc><g id="Page-1" fill="none" fill-rule="evenodd" stroke="none" stroke-width="1"><g id="About-us---about-us--Copy-3" transform="translate(-149.000000, -2351.000000)"><g id="Group-3" transform="translate(110.000000, 2347.000000)"><g id="Group-27" transform="translate(39.000000, 4.000000)"><path id="Fill-68" fill="#DBE3F3" d="M5.2360556,92.3545001 C5.2360556,92.3545001 35.9042587,101.990772 37.9205869,102.856414 C39.9363681,103.722055 44.61379,105.452245 45.3635556,107.635476 C45.3635556,107.635476 57.734415,140.868127 63.79379,146.659836 C63.79379,146.659836 68.2721494,145.500183 69.3002744,142.886864 C69.3002744,142.886864 59.9235556,103.187587 62.50754,114.691765 C63.8577744,120.705896 71.0584775,134.477464 71.0584775,134.477464 C74.0373056,139.61557 82.43129,148.036993 82.43129,148.036993 C84.5553525,146.983359 87.2230087,143.801689 87.2230087,143.801689 C84.0839462,140.230919 77.3207431,123.149256 77.3207431,123.149256 C76.9351962,121.769913 69.958165,103.955953 69.958165,103.955953 C69.958165,103.955953 67.8658212,99.9425247 66.5888681,96.8111325 C65.311915,93.6808333 62.85754,91.4292912 62.85754,91.4292912 C62.2707431,90.8702311 57.0486337,87.4475593 55.0251962,86.2950103 C53.0023056,85.1435542 41.0596494,77.1850088 41.0596494,77.1850088 C41.0596494,77.1850088 26.4126962,76.3876788 21.4722275,77.234193 C16.5323056,78.0801607 11.5814462,80.2929019 10.3608212,82.7012868 C9.14019623,85.1102182 5.2360556,92.3545001 5.2360556,92.3545001"/><path id="Fill-70" fill="#BEC9DD" d="M21.05354,79.4687392 C21.05354,79.4687392 29.6181494,85.9555848 36.47104,88.3705276 C43.3244775,90.7849239 52.1154931,95.7426884 52.1154931,95.7426884 C52.1154931,95.7426884 55.2206494,97.1225776 55.3644775,100.643618 C55.5083056,104.165204 57.4283837,114.914132 58.000415,117.294646 C58.5718994,119.674613 64.2708837,141.318927 67.2644775,145.124142 C67.2644775,145.124142 65.0972119,146.509497 63.7940087,146.659782 C63.7940087,146.659782 59.7701025,142.990642 53.4072119,127.527686 L46.8671337,111.571794 L45.3637744,107.635421 C45.3637744,107.635421 44.07479,104.571794 39.34104,103.45258 C34.6083837,102.333914 26.2220556,99.0019594 26.2220556,99.0019594 L5.8039306,92.4828708 C5.8039306,92.4828708 11.8430712,80.3174394 18.1654931,78.9632352 L19.9318994,78.8648669 L21.05354,79.4687392 Z"/><path id="Fill-72" fill="#BEC9DD" d="M61.5842509,112.606684 C61.5842509,112.606684 61.1254228,110.308143 59.8605009,106.675073 C58.7612822,103.517995 58.8777665,99.4329767 57.6822978,98.0071822 C57.6822978,98.0071822 56.9844853,95.3025993 55.624954,94.3806694 C54.2648759,93.4587394 41.6659697,84.1864302 40.1494853,82.8568181 C40.1494853,82.8568181 49.0695634,87.0773665 53.0103447,90.1989219 C53.0103447,90.1989219 59.8479228,94.5872429 61.9955009,97.0907172 C64.143079,99.594738 64.1961259,99.8187992 64.9256572,102.119525 C65.6557353,104.420252 67.7606572,113.681085 69.099954,115.587244 C70.4392509,117.493404 81.9520634,142.887192 85.4613603,145.682492 L82.4316728,148.036774 C82.4316728,148.036774 72.4282353,137.596614 70.5705009,133.877745 C69.1486259,131.031074 63.5207353,118.024047 61.5842509,112.606684"/><path id="Fill-74" fill="#9DAEC6" d="M40.8077587,77.6281036 C40.8077587,77.6281036 39.0867431,80.2386901 35.7267431,79.8790991 C32.36729,79.5200547 20.2676806,79.9873043 18.2825244,81.7683178 C16.2973681,83.5498777 11.5368212,93.3577479 8.1992431,93.3058313 L5.8039306,92.4833626 C5.8039306,92.4833626 7.13447748,89.3956897 7.26025873,89.1137005 C7.3854931,88.8317112 15.3726025,80.5758749 15.64604,80.3195707 C15.9189306,80.0632665 19.3347119,77.6024185 19.7864306,77.5761869 C20.2381494,77.5499554 33.6267431,77.540665 33.6267431,77.540665 L40.8077587,77.6281036 Z"/><path id="Fill-76" fill="#1255CC" d="M87.2232822,143.801525 C87.2232822,143.801525 85.7500009,144.973748 81.6889072,147.499082 L85.4076572,150.440296 C85.4076572,150.440296 88.6560947,149.779042 89.157579,146.914337 L87.2232822,143.801525 Z"/><path id="Fill-78" fill="#DBE3F3" d="M41.194454,10.6792113 C41.194454,10.6792113 38.7280478,12.4394581 38.2555478,13.5411835 C37.7835947,14.6440019 37.501954,14.8046702 37.261329,16.5753004 C37.020704,18.345384 36.7106259,20.2422536 35.5260947,21.5286929 C33.5699228,23.6518096 31.0466415,27.6559476 28.0557822,26.506131 L26.7914072,38.3447609 L24.4053915,31.6535277 L16.8027353,22.8648629 C16.8027353,22.8648629 18.9678134,21.6986515 19.2532822,20.2553693 L19.1417197,16.3026015 L19.4698447,14.8265299 L21.0421103,9.03645995 C21.0421103,9.03645995 24.1729697,7.49262348 24.5470322,7.3488964 C24.9205478,7.20516932 31.2823447,4.26122345 31.8893759,4.61808193 C32.496954,4.97494042 35.695079,6.23132274 36.1216415,6.58490228 C36.5476572,6.93793533 41.194454,10.6792113 41.194454,10.6792113"/><path id="Fill-80" fill="#143B82" d="M18.0721415,17.4180438 C18.0721415,17.4180438 19.5230009,19.8777989 20.9344853,15.802617 C20.9344853,15.802617 20.7272197,15.8354065 20.7190165,14.0915544 C20.7190165,14.0915544 20.8967509,12.8756124 21.0848759,12.0028666 C21.272454,11.1290278 21.0301884,9.90160952 22.5428447,10.0273024 C22.5428447,10.0273024 24.5996415,10.4562977 24.5214384,11.6973782 C24.4437822,12.9390053 23.3565947,14.6041627 23.228079,15.4211665 C23.1608134,15.8501617 24.5176103,17.1191134 24.5176103,17.1191134 C24.5176103,17.1191134 26.5722197,15.5894856 27.3345634,13.3827558 C28.3358915,10.4852617 27.4362822,10.257375 27.6632353,10.1579137 C27.8896415,10.0579059 27.2131572,9.71580265 29.042454,11.2208383 C30.871204,12.7264204 35.0531572,14.2757218 38.8419072,13.7532766 C38.8419072,13.7532766 43.226204,11.9881113 42.4102665,9.4758932 C41.5948759,6.96258206 38.6428447,2.80433366 34.0523759,1.93158787 C29.4613603,1.05884208 27.3728447,-1.21947801 24.3622978,0.833141386 C21.3522978,2.88630728 22.1376103,2.81635646 20.673079,4.59463748 C18.8082353,6.85984179 18.402454,9.17477677 18.402454,9.17477677 C18.402454,9.17477677 18.0376884,12.2056147 17.597454,13.5226575 C17.1572197,14.8402468 17.5969072,16.1501852 18.0721415,17.4180438"/><path id="Fill-82" fill="#1255CC" d="M27.977579,27.1192936 C27.977579,27.1192936 29.6362509,27.6373669 32.4275009,28.2013454 C35.2192978,28.7658704 37.7841415,35.8254384 37.7841415,35.8254384 C37.7841415,35.8254384 40.2264853,48.1187486 42.6748447,54.5514917 C45.1226572,60.9842348 49.6655478,73.5671852 49.6655478,73.5671852 C46.4329697,74.2180557 45.0608603,75.2777013 45.0608603,75.2777013 C36.8976572,67.7142688 33.5409384,51.8064685 33.5409384,51.8064685 C32.7310165,59.0376346 34.1977353,64.9949307 34.1977353,64.9949307 C34.6549228,69.3307886 39.549454,74.8235675 40.6010947,75.7679036 C41.6527353,76.7116932 40.8078134,77.6281582 40.8078134,77.6281582 C39.0217197,79.1392052 27.1731259,79.0435694 27.1731259,79.0435694 C27.1731259,79.0435694 22.1992978,78.7812538 18.6161728,80.131086 C15.0330478,81.4803718 12.9095322,85.0724557 9.74148529,89.9793965 C7.61632904,93.271457 6.87750092,93.0681624 6.87750092,93.0681624 C0.357657167,92.0795606 1.79429779,74.2710653 1.52851654,71.1604397 C1.32890717,68.8247381 -0.0541397079,49.5024633 0.00164154209,44.8004566 C0.0579696671,40.0973569 0.497110292,39.2257041 1.56351654,34.6220657 C2.65453217,29.9102221 12.4222665,26.9067087 12.4222665,26.9067087 L18.1272665,22.1276468 C18.1272665,22.1276468 22.7374228,29.2429568 25.1305478,30.3452288 L26.8132822,35.5046483 C26.8132822,35.5046483 26.7170322,29.1030552 27.977579,27.1192936"/><path id="Fill-84" fill="#134AAD" d="M33.6353837,51.2684483 C33.6353837,51.2684483 33.7928837,44.8958192 35.082415,40.788941 C35.082415,40.788941 38.1553056,47.996608 38.5884306,52.6893244 C39.0215556,57.3825872 38.2821806,60.453319 41.7783525,61.9878651 C45.2745244,63.5235042 46.2671025,73.1390096 46.2671025,73.1390096 C46.2671025,73.1390096 45.2028837,74.2953841 45.0606962,75.2779746 C45.0606962,75.2779746 37.479915,71.4104593 33.6353837,51.2684483"/><path id="Fill-86" fill="#134AAD" d="M0.45494623,39.4068111 C0.45494623,39.4068111 -0.27130377,63.7218257 6.08010248,68.3850316 C6.08010248,68.3850316 8.0439306,70.6945017 9.89127435,72.0273927 C14.3969775,75.2790129 23.0108056,79.1825966 23.0108056,79.1825966 C23.0108056,79.1825966 19.8515087,79.7760856 18.6161181,80.1313046 C14.5424462,81.3002484 4.16002435,73.6417265 1.86752435,70.9393296 C1.86752435,70.9393296 0.990336855,63.7289301 0.61791498,58.0547163 C0.19353998,51.5875443 -0.25271002,41.7337689 0.45494623,39.4068111"/><path id="Fill-88" fill="#134AAD" d="M27.977579,27.1192936 L28.8864853,30.2424885 L26.8132822,35.5046483 C26.8132822,35.5046483 26.4982822,30.5086295 27.977579,27.1192936"/><polyline id="Fill-90" fill="#092F66" points="37.71 91.557 24.009 84.862 44.703 82.377 61.824 88.762"/><polygon id="Fill-92" fill="#143B82" points="70.522 72.092 45.93 74.113 37.71 91.557 62.028 88.797"/><path id="Fill-94" fill="#DBE3F3" d="M89.1576337,146.914501 C89.1576337,146.914501 96.9735712,141.564903 99.5203681,137.39791 C99.5203681,137.39791 101.988415,133.222721 104.648415,135.527819 C104.648415,135.527819 104.324665,136.32187 102.201696,140.009043 C100.316071,143.284163 94.4891181,151.602845 92.1107587,154.522746 C91.7284931,154.992181 91.0388837,155.058853 90.5707587,154.67467 L85.4077119,150.440459 L89.1576337,146.914501 Z"/><path id="Fill-96" fill="#DBE3F3" d="M70.6207587,147.526625 C70.6207587,147.526625 79.8487275,145.384928 83.7381025,142.429506 C83.7381025,142.429506 87.5563837,139.437469 89.1953681,142.551373 C89.1953681,142.551373 88.6047431,143.17328 85.284665,145.836329 C82.5338837,148.043059 74.2607587,153.316149 70.3495087,155.567144 C69.4132587,156.105984 68.2166962,155.704313 67.78904,154.712433 L65.7497431,149.98638 L70.6207587,147.526625 Z"/><path id="Fill-98" fill="#1255CC" d="M63.7938994,146.659891 L65.7500712,149.98638 C65.7500712,149.98638 68.2924931,149.297255 70.62054,147.526625 C70.62054,147.526625 69.9763212,144.917132 69.3003837,142.886918 C69.3003837,142.886918 66.1044462,145.877863 63.7938994,146.659891"/><polygon id="Fill-100" fill="#134AAD" points="85.285 145.836 87.421 148.548 85.408 150.441 82.431 148.037"/><path id="Fill-102" fill="#BEC9DD" d="M87.4208681,148.547525 C87.4208681,148.547525 88.3292275,149.906101 90.06829,150.957003 C90.06829,150.957003 91.9971181,152.409575 94.1157119,149.274904 L101.663134,139.915156 L103.485868,137.742309 C103.485868,137.742309 96.07954,151.001268 92.0572744,154.587887 C92.0572744,154.587887 91.5350087,155.465552 90.4871962,154.606468 L85.4078212,150.440569 L87.4208681,148.547525 Z"/><path id="Fill-104" fill="#134AAD" d="M13.8635009,63.3777005 C20.9663134,73.3167284 32.6688915,78.475055 32.6688915,78.475055 L31.1463915,78.208914 C23.0340478,74.3250039 17.4427978,68.8628285 14.1763134,64.9625238 C13.2564697,64.1378692 12.1802197,62.5546854 11.4003759,61.2939311 C10.9125634,60.5670984 10.6702978,60.1441145 10.6702978,60.1441145 L10.7025634,60.1260803 C10.4728759,59.728235 10.3312353,59.4697449 10.3312353,59.4697449 C9.18006342,57.82754 8.84701654,46.3572449 8.84701654,46.3572449 L9.28561029,43.8515846 C9.94295404,54.0294291 12.3672509,60.353967 13.8635009,63.3777005"/><path id="Fill-106" fill="#134AAD" d="M67.0193134,144.780837 C67.0193134,144.780837 64.7393915,146.47004 63.7938447,146.659672 L65.7500165,149.986162 C65.7500165,149.986162 68.2443134,149.192657 69.2576728,148.439593 L67.0193134,144.780837 Z"/><path id="Fill-108" fill="#BEC9DD" d="M69.2578369,148.439757 C69.2578369,148.439757 69.8747119,149.248017 71.781665,149.427812 C73.6886181,149.607608 81.1348681,145.743918 82.3243212,144.752583 C83.5132275,143.761249 87.2817431,141.539218 88.3858837,141.574193 C88.3858837,141.574193 88.9458837,142.179705 89.1952587,142.551865 C89.1952587,142.551865 85.1511181,147.023253 70.469165,155.497685 C70.469165,155.497685 68.5993994,156.591213 67.83104,154.809107 L65.7496337,149.986326 C65.7496337,149.986326 69.165415,148.67748 69.2578369,148.439757"/><path id="Fill-110" fill="#BEC9DD" d="M28.0555634,26.506131 C28.0555634,26.506131 23.200954,24.6660965 22.514079,20.8559627 C22.514079,20.8559627 22.0366572,23.7042727 21.345954,24.7130947 L20.7564228,25.8563534 C20.7564228,25.8563534 23.2638447,29.7151249 25.130329,30.3452288 L26.8130634,35.5046483 C26.8130634,35.5046483 27.1160322,27.6991204 28.0555634,26.506131"/><path id="Fill-112" fill="#1255CC" d="M32.0358837,78.9190788 C32.0358837,78.9190788 29.1040869,79.4764994 28.6594775,82.2422892 C28.6594775,82.2422892 24.5901806,79.9814568 21.696665,78.5698711 L32.0358837,78.9190788 Z"/><polygon id="Fill-114" fill="#092F66" points="24.009 84.862 23.769 86.235 37.479 92.876 61.624 89.905 62.028 88.797 37.71 91.557"/><polygon id="Fill-116" fill="#2262BF" points="70.522 72.092 69.51 71.574 45.252 73.48 36.97 91.196 37.71 91.557 45.93 74.113"/><polygon id="Fill-118" fill="#134AAD" points="26.813 35.505 25.13 30.346 24.077 32.185"/><path id="Fill-120" fill="#FFF" d="M38.4825009,82.5657025 C36.5514853,80.6835882 32.0359384,78.9189695 32.0359384,78.9189695 C32.0359384,78.9189695 28.848204,79.6108268 28.6595322,82.2421799 C28.6595322,82.2421799 31.5776572,86.0031295 35.4489853,86.2829328 C38.5940634,86.510273 41.238204,85.2517047 38.4825009,82.5657025"/><path id="Fill-122" fill="#FFF" d="M32.0358837,78.9190788 C32.0358837,78.9190788 34.2911962,78.6999359 36.3365087,79.6710501 C38.3818212,80.6421642 35.3488525,80.7405325 35.3488525,80.7405325 L32.0358837,78.9190788 Z"/></g></g></g></g></svg>