<svg xmlns="http://www.w3.org/2000/svg" xmlns:xlink="http://www.w3.org/1999/xlink" width="105" height="156" version="1.1" viewBox="0 0 105 156"><title>Group 27</title><desc>Created with Sketch.</desc><g id="Page-1" fill="none" fill-rule="evenodd" stroke="none" stroke-width="1"><g id="Service---Software-Dev-Copy-19" transform="translate(-103.000000, -2151.000000)"><g id="Group-27" transform="translate(155.500000, 2229.000000) scale(-1, 1) translate(-155.500000, -2229.000000) translate(103.000000, 2151.000000)"><path id="Fill-68" fill="#DBE3F3" d="M5.2360556,92.4378275 C5.2360556,92.4378275 35.9042587,102.082794 37.9205869,102.949216 C39.9363681,103.815639 44.61379,105.54739 45.3635556,107.73259 C45.3635556,107.73259 57.734415,140.995226 63.79379,146.792161 C63.79379,146.792161 68.2721494,145.631461 69.3002744,143.015784 C69.3002744,143.015784 59.9235556,103.280689 62.50754,114.795246 C63.8577744,120.814803 71.0584775,134.598797 71.0584775,134.598797 C74.0373056,139.741539 82.43129,148.17056 82.43129,148.17056 C84.5553525,147.115975 87.2230087,143.931435 87.2230087,143.931435 C84.0839462,140.357443 77.3207431,123.260368 77.3207431,123.260368 C76.9351962,121.879781 69.958165,104.049748 69.958165,104.049748 C69.958165,104.049748 67.8658212,100.032698 66.5888681,96.8984809 C65.311915,93.7653573 62.85754,91.5117838 62.85754,91.5117838 C62.2707431,90.9522193 57.0486337,87.5264594 55.0251962,86.3728704 C53.0023056,85.2203754 41.0596494,77.2546494 41.0596494,77.2546494 C41.0596494,77.2546494 26.4126962,76.4566 21.4722275,77.303878 C16.5323056,78.150609 11.5814462,80.3653467 10.3608212,82.7759045 C9.14019623,85.1870094 5.2360556,92.4378275 5.2360556,92.4378275"/><path id="Fill-70" fill="#BEC9DD" d="M21.05354,79.5404403 C21.05354,79.5404403 29.6181494,86.0331387 36.47104,88.4502604 C43.3244775,90.8668351 52.1154931,95.8290727 52.1154931,95.8290727 C52.1154931,95.8290727 55.2206494,97.210207 55.3644775,100.734424 C55.5083056,104.259188 57.4283837,115.017814 58.000415,117.400475 C58.5718994,119.78259 64.2708837,141.446433 67.2644775,145.255082 C67.2644775,145.255082 65.0972119,146.641686 63.7940087,146.792106 C63.7940087,146.792106 59.7701025,143.119657 53.4072119,127.642748 L46.8671337,111.67246 L45.3637744,107.732536 C45.3637744,107.732536 44.07479,104.666144 39.34104,103.545921 C34.6083837,102.426245 26.2220556,99.0912845 26.2220556,99.0912845 L5.8039306,92.566314 C5.8039306,92.566314 11.8430712,80.3899062 18.1654931,79.0344802 L19.9318994,78.9360231 L21.05354,79.5404403 Z"/><path id="Fill-72" fill="#BEC9DD" d="M61.5842509,112.708284 C61.5842509,112.708284 61.1254228,110.40767 59.8605009,106.771321 C58.7612822,103.611395 58.8777665,99.5226907 57.6822978,98.0956098 C57.6822978,98.0956098 56.9844853,95.3885866 55.624954,94.4658249 C54.2648759,93.5430631 41.6659697,84.2623879 40.1494853,82.9315762 C40.1494853,82.9315762 49.0695634,87.1559325 53.0103447,90.2803043 C53.0103447,90.2803043 59.8479228,94.6725848 61.9955009,97.1783178 C64.143079,99.6845979 64.1961259,99.9088613 64.9256572,102.211663 C65.6557353,104.514465 67.7606572,113.783654 69.099954,115.691534 C70.4392509,117.599413 81.9520634,143.016112 85.4613603,145.813935 L82.4316728,148.170341 C82.4316728,148.170341 72.4282353,137.720762 70.5705009,133.998537 C69.1486259,131.149298 63.5207353,118.130535 61.5842509,112.708284"/><path id="Fill-74" fill="#9DAEC6" d="M40.8077587,77.698144 C40.8077587,77.698144 39.0867431,80.3110859 35.7267431,79.9511705 C32.36729,79.5918021 20.2676806,80.0594733 18.2825244,81.8420937 C16.2973681,83.6252611 11.5368212,93.4419805 8.1992431,93.390017 L5.8039306,92.5668063 C5.8039306,92.5668063 7.13447748,89.4763475 7.26025873,89.1941038 C7.3854931,88.9118601 15.3726025,80.6485749 15.64604,80.3920395 C15.9189306,80.135504 19.3347119,77.6724357 19.7864306,77.6461805 C20.2381494,77.6199253 33.6267431,77.6106265 33.6267431,77.6106265 L40.8077587,77.698144 Z"/><path id="Fill-76" fill="#1255CC" d="M87.2232822,143.931271 C87.2232822,143.931271 85.7500009,145.104552 81.6889072,147.632164 L85.4076572,150.576031 C85.4076572,150.576031 88.6560947,149.914181 89.157579,147.046891 L87.2232822,143.931271 Z"/><path id="Fill-78" fill="#DBE3F3" d="M41.194454,10.6888466 C41.194454,10.6888466 38.7280478,12.4506817 38.2555478,13.5534011 C37.7835947,14.6572146 37.501954,14.8180278 37.261329,16.5902555 C37.020704,18.3619363 36.7106259,20.2605172 35.5260947,21.5481173 C33.5699228,23.6731496 31.0466415,27.6809003 28.0557822,26.5300463 L26.7914072,38.3793577 L24.4053915,31.6820873 L16.8027353,22.8854928 C16.8027353,22.8854928 18.9678134,21.7182292 19.2532822,20.2736449 L19.1417197,16.3173106 L19.4698447,14.8399072 L21.0421103,9.04461315 C21.0421103,9.04461315 24.1729697,7.49938374 24.5470322,7.35552698 C24.9205478,7.21167023 31.2823447,4.26506816 31.8893759,4.62224862 C32.496954,4.97942909 35.695079,6.23694499 36.1216415,6.59084354 C36.5476572,6.94419512 41.194454,10.6888466 41.194454,10.6888466"/><path id="Fill-80" fill="#143B82" d="M18.0721415,17.4337593 C18.0721415,17.4337593 19.5230009,19.8957337 20.9344853,15.816875 C20.9344853,15.816875 20.7272197,15.8496941 20.7190165,14.1042686 C20.7190165,14.1042686 20.8967509,12.8872295 21.0848759,12.0136963 C21.272454,11.1390691 21.0301884,9.9105433 22.5428447,10.0363496 C22.5428447,10.0363496 24.5996415,10.4657319 24.5214384,11.7079323 C24.4437822,12.9506796 23.3565947,14.6173394 23.228079,15.4350803 C23.1608134,15.8644626 24.5176103,17.1345592 24.5176103,17.1345592 C24.5176103,17.1345592 26.5722197,15.6035513 27.3345634,13.3948305 C28.3358915,10.4947221 27.4362822,10.2666298 27.6632353,10.1670787 C27.8896415,10.0669807 27.2131572,9.72456879 29.042454,11.2309623 C30.871204,12.7379029 35.0531572,14.2886021 38.8419072,13.7656856 C38.8419072,13.7656856 43.226204,11.9989277 42.4102665,9.48444287 C41.5948759,6.96886409 38.6428447,2.80686388 34.0523759,1.93333066 C29.4613603,1.05979743 27.3728447,-1.22057829 24.3622978,0.833893093 C21.3522978,2.88891146 22.1376103,2.81889753 20.673079,4.59878302 C18.8082353,6.86603113 18.402454,9.18305477 18.402454,9.18305477 C18.402454,9.18305477 18.0376884,12.2166273 17.597454,13.5348584 C17.1572197,14.8536365 17.5969072,16.1647568 18.0721415,17.4337593"/><path id="Fill-82" fill="#1255CC" d="M27.977579,27.1437622 C27.977579,27.1437622 29.6362509,27.6623029 32.4275009,28.2267902 C35.2192978,28.7918245 37.7841415,35.8577621 37.7841415,35.8577621 C37.7841415,35.8577621 40.2264853,48.1621641 42.6748447,54.6007111 C45.1226572,61.0392581 49.6655478,73.6335616 49.6655478,73.6335616 C46.4329697,74.2850194 45.0608603,75.3456211 45.0608603,75.3456211 C36.8976572,67.7753644 33.5409384,51.8532112 33.5409384,51.8532112 C32.7310165,59.0909016 34.1977353,65.0535727 34.1977353,65.0535727 C34.6549228,69.3933427 39.549454,74.8910775 40.6010947,75.8362656 C41.6527353,76.7809067 40.8078134,77.6981987 40.8078134,77.6981987 C39.0217197,79.210609 27.1731259,79.1148869 27.1731259,79.1148869 C27.1731259,79.1148869 22.1992978,78.8523346 18.6161728,80.2033847 C15.0330478,81.5538879 12.9095322,85.1492128 9.74148529,90.0605809 C7.61632904,93.3556117 6.87750092,93.1521337 6.87750092,93.1521337 C0.357657167,92.1626399 1.79429779,74.3380768 1.52851654,71.2246446 C1.32890717,68.8868356 -0.0541397079,49.5471272 0.00164154209,44.840878 C0.0579696671,40.1335349 0.497110292,39.2610957 1.56351654,34.6533036 C2.65453217,29.9372088 12.4222665,26.9309854 12.4222665,26.9309854 L18.1272665,22.1476116 C18.1272665,22.1476116 22.7374228,29.2693415 25.1305478,30.3726079 L26.8132822,35.5366826 C26.8132822,35.5366826 26.7170322,29.1293136 27.977579,27.1437622"/><path id="Fill-84" fill="#134AAD" d="M33.6353837,51.3147056 C33.6353837,51.3147056 33.7928837,44.9363267 35.082415,40.825743 C35.082415,40.825743 38.1553056,48.0399132 38.5884306,52.7368636 C39.0215556,57.434361 38.2821806,60.5078633 41.7783525,62.043794 C45.2745244,63.5808187 46.2671025,73.2049997 46.2671025,73.2049997 C46.2671025,73.2049997 45.2028837,74.3624176 45.0606962,75.3458946 C45.0606962,75.3458946 37.479915,71.4748898 33.6353837,51.3147056"/><path id="Fill-86" fill="#134AAD" d="M0.45494623,39.4423661 C0.45494623,39.4423661 -0.27130377,63.7793191 6.08010248,68.4467324 C6.08010248,68.4467324 8.0439306,70.7582862 9.89127435,72.0923798 C14.3969775,75.3469338 23.0108056,79.2540396 23.0108056,79.2540396 C23.0108056,79.2540396 19.8515087,79.848064 18.6161181,80.2036035 C14.5424462,81.373602 4.16002435,73.7081702 1.86752435,71.003335 C1.86752435,71.003335 0.990336855,63.7864299 0.61791498,58.1070965 C0.19353998,51.6340894 -0.25271002,41.7714234 0.45494623,39.4423661"/><path id="Fill-88" fill="#134AAD" d="M27.977579,27.1437622 L28.8864853,30.2697749 L26.8132822,35.5366826 C26.8132822,35.5366826 26.4982822,30.5361561 27.977579,27.1437622"/><polyline id="Fill-90" fill="#092F66" points="37.71 91.64 24.009 84.938 44.703 82.451 61.824 88.843"/><polygon id="Fill-92" fill="#143B82" points="70.522 72.157 45.93 74.179 37.71 91.64 62.028 88.877"/><path id="Fill-94" fill="#DBE3F3" d="M89.1576337,147.047055 C89.1576337,147.047055 96.9735712,141.69263 99.5203681,137.521878 C99.5203681,137.521878 101.988415,133.342922 104.648415,135.6501 C104.648415,135.6501 104.324665,136.444867 102.201696,140.135367 C100.316071,143.413442 94.4891181,151.73963 92.1107587,154.662165 C91.7284931,155.132024 91.0388837,155.198756 90.5707587,154.814226 L85.4077119,150.576195 L89.1576337,147.047055 Z"/><path id="Fill-96" fill="#DBE3F3" d="M70.6207587,147.659732 C70.6207587,147.659732 79.8487275,145.516102 83.7381025,142.558013 C83.7381025,142.558013 87.5563837,139.563277 89.1953681,142.679991 C89.1953681,142.679991 88.6047431,143.302459 85.284665,145.967911 C82.5338837,148.176632 74.2607587,153.454479 70.3495087,155.707506 C69.4132587,156.246832 68.2166962,155.844798 67.78904,154.852023 L65.7497431,150.121706 L70.6207587,147.659732 Z"/><path id="Fill-98" fill="#1255CC" d="M63.7938994,146.792216 L65.7500712,150.121706 C65.7500712,150.121706 68.2924931,149.43196 70.62054,147.659732 C70.62054,147.659732 69.9763212,145.047884 69.3003837,143.015839 C69.3003837,143.015839 66.1044462,146.009482 63.7938994,146.792216"/><polygon id="Fill-100" fill="#134AAD" points="85.285 145.968 87.421 148.682 85.408 150.576 82.431 148.17"/><path id="Fill-102" fill="#BEC9DD" d="M87.4208681,148.681553 C87.4208681,148.681553 88.3292275,150.041354 90.06829,151.093204 C90.06829,151.093204 91.9971181,152.547087 94.1157119,149.409588 L101.663134,140.041395 L103.485868,137.866588 C103.485868,137.866588 96.07954,151.13751 92.0572744,154.727365 C92.0572744,154.727365 91.5350087,155.605821 90.4871962,154.745963 L85.4078212,150.576305 L87.4208681,148.681553 Z"/><path id="Fill-104" fill="#134AAD" d="M13.8635009,63.4348834 C20.9663134,73.3828789 32.6688915,78.5458595 32.6688915,78.5458595 L31.1463915,78.2794784 C23.0340478,74.3920641 17.4427978,68.9249604 14.1763134,65.0211366 C13.2564697,64.1957379 12.1802197,62.6111257 11.4003759,61.3492339 C10.9125634,60.6217454 10.6702978,60.1983799 10.6702978,60.1983799 L10.7025634,60.1803294 C10.4728759,59.7821251 10.3312353,59.5234018 10.3312353,59.5234018 C9.18006342,57.8797153 8.84701654,46.399071 8.84701654,46.399071 L9.28561029,43.89115 C9.94295404,54.0781774 12.3672509,60.4084217 13.8635009,63.4348834"/><path id="Fill-106" fill="#134AAD" d="M67.0193134,144.911466 C67.0193134,144.911466 64.7393915,146.602193 63.7938447,146.791997 L65.7500165,150.121488 C65.7500165,150.121488 68.2443134,149.327267 69.2576728,148.573523 L67.0193134,144.911466 Z"/><path id="Fill-108" fill="#BEC9DD" d="M69.2578369,148.573687 C69.2578369,148.573687 69.8747119,149.382676 71.781665,149.562634 C73.6886181,149.742592 81.1348681,145.875416 82.3243212,144.883187 C83.5132275,143.890958 87.2817431,141.666922 88.3858837,141.701929 C88.3858837,141.701929 88.9458837,142.307987 89.1952587,142.680483 C89.1952587,142.680483 85.1511181,147.155905 70.469165,155.637984 C70.469165,155.637984 68.5993994,156.732499 67.83104,154.948784 L65.7496337,150.121652 C65.7496337,150.121652 69.165415,148.811625 69.2578369,148.573687"/><path id="Fill-110" fill="#BEC9DD" d="M28.0555634,26.5300463 C28.0555634,26.5300463 23.200954,24.6883516 22.514079,20.8747801 C22.514079,20.8747801 22.0366572,23.72566 21.345954,24.7353922 L20.7564228,25.8796825 C20.7564228,25.8796825 23.2638447,29.7419355 25.130329,30.3726079 L26.8130634,35.5366826 C26.8130634,35.5366826 27.1160322,27.724112 28.0555634,26.5300463"/><path id="Fill-112" fill="#1255CC" d="M32.0358837,78.9902839 C32.0358837,78.9902839 29.1040869,79.5482075 28.6594775,82.3164928 C28.6594775,82.3164928 24.5901806,80.0536206 21.696665,78.6407612 L32.0358837,78.9902839 Z"/><polygon id="Fill-114" fill="#092F66" points="24.009 84.938 23.769 86.313 37.479 92.96 61.624 89.986 62.028 88.878 37.71 91.64"/><polygon id="Fill-116" fill="#2262BF" points="70.522 72.157 69.51 71.638 45.252 73.547 36.97 91.278 37.71 91.64 45.93 74.179"/><polygon id="Fill-118" fill="#134AAD" points="26.813 35.537 25.13 30.373 24.077 32.214"/><path id="Fill-120" fill="#FFF" d="M38.4825009,82.6401979 C36.5514853,80.7563854 32.0359384,78.9901745 32.0359384,78.9901745 C32.0359384,78.9901745 28.848204,79.6826561 28.6595322,82.3163834 C28.6595322,82.3163834 31.5776572,86.0807263 35.4489853,86.3607821 C38.5940634,86.5883274 41.238204,85.3286235 38.4825009,82.6401979"/><path id="Fill-122" fill="#FFF" d="M32.0358837,78.9902839 C32.0358837,78.9902839 34.2911962,78.7709434 36.3365087,79.7429337 C38.3818212,80.7149241 35.3488525,80.8133811 35.3488525,80.8133811 L32.0358837,78.9902839 Z"/></g></g></g></svg>