<svg xmlns="http://www.w3.org/2000/svg" xmlns:xlink="http://www.w3.org/1999/xlink" width="347" height="345" version="1.1" viewBox="0 0 347 345"><title>Group 16</title><desc>Created with Sketch.</desc><g id="Page-1" fill="none" fill-rule="evenodd" stroke="none" stroke-width="1"><g id="Approach---Process-Copy-13" stroke="#DBDFE7" transform="translate(-508.000000, -4311.000000)"><g id="Group-16" transform="translate(465.123240, 4276.722443)"><path id="Path-11" d="M142.803711,19 C169.130405,53.2346939 206.96407,74.0848852 256.304707,81.550574" transform="translate(199.554209, 50.275287) scale(-1, 1) rotate(-202.000000) translate(-199.554209, -50.275287)"/><path id="Path-12" d="M297.356692,143.062382 C336.409848,133.417739 369.770878,112.716273 397.439783,80.9579818" transform="translate(347.398238, 112.010182) scale(-1, 1) rotate(-202.000000) translate(-347.398238, -112.010182)"/><path id="Path-13" d="M364.556598,337.536997 C379.699601,297.638145 378.16244,254.720607 359.945114,208.784382" transform="translate(367.406168, 273.160689) scale(-1, 1) rotate(-202.000000) translate(-367.406168, -273.160689)"/><path id="Path-14" d="M287.013498,387.587293 C248.667212,345.892522 199.586743,327.470328 139.772091,332.320711" transform="translate(213.392795, 359.574915) scale(-1, 1) rotate(-202.000000) translate(-213.392795, -359.574915)"/><path id="Path-16" d="M255.941549,105.468465 C229.391855,71.2814748 193.118493,49.5669977 147.121463,40.3250334" transform="translate(201.531506, 72.896749) scale(-1, 1) rotate(-202.000000) translate(-201.531506, -72.896749)"/><path id="Path-17" d="M360.563988,181.832971 C276.832171,121.664094 194.315637,119.788902 113.014385,176.207397" transform="translate(236.789187, 158.543825) scale(-1, 1) rotate(-202.000000) translate(-236.789187, -158.543825)"/><path id="Path-18" d="M328.638254,148.161454 C190.680825,129.481097 105.444805,176.727781 72.9301952,289.901505" transform="translate(200.784225, 217.046583) scale(-1, 1) rotate(-202.000000) translate(-200.784225, -217.046583)"/><path id="Path-19" d="M135.395334,97.7089679 C47.9328149,145.428483 18.7786418,217.038624 47.9328149,312.539389" transform="translate(86.197667, 205.124178) scale(-1, 1) rotate(-202.000000) translate(-86.197667, -205.124178)"/><polyline id="Path-4" points="81.694 90.555 88.151 97.009 94.619 90.543" transform="translate(88.156459, 93.775912) scale(-1, 1) rotate(-229.000000) translate(-88.156459, -93.775912)"/><polyline id="Path-4" points="253.575 38.22 260.032 44.673 266.5 38.208" transform="translate(260.037378, 41.440712) scale(-1, 1) rotate(-289.000000) translate(-260.037378, -41.440712)"/><polyline id="Path-4" points="373.898 151.84 380.355 158.294 386.823 151.829" transform="translate(380.360314, 155.061403) scale(-1, 1) rotate(-339.000000) translate(-380.360314, -155.061403)"/><polyline id="Path-4" points="333.594 323.455 340.051 329.909 346.519 323.443" transform="translate(340.056459, 326.675912) scale(-1, 1) rotate(-409.000000) translate(-340.056459, -326.675912)"/><polyline id="Path-4" points="132.728 356.324 139.185 362.778 145.654 356.313" transform="translate(139.190768, 359.545415) scale(-1, 1) rotate(-479.000000) translate(-139.190768, -359.545415)"/><polyline id="Path-4" points="102.564 102.428 109.021 108.882 115.49 102.417" transform="translate(109.027242, 105.649424) scale(-1, 1) rotate(-186.100000) translate(-109.027242, -105.649424)"/><polyline id="Path-4" points="124.781 96.644 131.238 103.098 137.707 96.633" transform="translate(131.243968, 99.865299) scale(-1, 1) rotate(-146.099998) translate(-131.243968, -99.865299)"/><polyline id="Path-4" points="136.254 80.431 142.711 86.885 149.18 80.419" transform="translate(142.717035, 83.652150) scale(-1, 1) rotate(-106.099998) translate(-142.717035, -83.652150)"/></g></g></g></svg>