<svg xmlns="http://www.w3.org/2000/svg" width="64" height="64" viewBox="0 0 64 64"><title>blog-icon</title><path d="M49.21,42.4H12.84a1.34,1.34,0,0,1,0-2.68H49.21a1.34,1.34,0,1,1,0,2.68Z" fill="#2969f6"/><path d="M37.73,50.06H12.84a1.34,1.34,0,0,1,0-2.68H37.73a1.34,1.34,0,1,1,0,2.68Z" fill="#2969f6"/><path d="M47.3,27.09H12.84a1.34,1.34,0,0,1,0-2.68H47.3a1.34,1.34,0,1,1,0,2.68Z" fill="#2969f6"/><path d="M51.13,34.74H12.84a1.34,1.34,0,1,1,0-2.68H51.13a1.34,1.34,0,1,1,0,2.68Z" fill="#2969f6"/><path d="M58.78,64H5.18A5.2,5.2,0,0,1,0,58.81V5.21A5.19,5.19,0,0,1,5.18,0h53.6A5.19,5.19,0,0,1,64,5.21v53.6A5.2,5.2,0,0,1,58.78,64ZM5.18,2.74A2.48,2.48,0,0,0,2.71,5.21v53.6a2.48,2.48,0,0,0,2.47,2.48h53.6a2.48,2.48,0,0,0,2.48-2.48V5.21a2.48,2.48,0,0,0-2.48-2.47Z" fill="#a8c5dd"/><path d="M49.21,16.14H12.84a1.36,1.36,0,0,1,0-2.71H49.21a1.36,1.36,0,1,1,0,2.71Z" fill="#032663"/></svg>