<svg width="20" height="16" viewBox="0 0 20 16" fill="none" xmlns="http://www.w3.org/2000/svg">
<path fill-rule="evenodd" clip-rule="evenodd" d="M20 1.89354C19.2644 2.21526 18.4735 2.43227 17.6433 2.52979C18.4906 2.03022 19.1414 1.23852 19.4475 0.294942C18.6546 0.757737 17.7765 1.09424 16.8419 1.27528C16.0937 0.489971 15.0272 0 13.847 0C11.5813 0 9.74383 1.80842 9.74383 4.03887C9.74383 4.35539 9.77996 4.66392 9.85019 4.95926C6.4404 4.79101 3.41629 3.18321 1.3925 0.738953C1.0397 1.33563 0.837528 2.02942 0.837528 2.76958C0.837528 4.17115 1.56138 5.40727 2.6628 6.13183C1.9905 6.11065 1.35718 5.92921 0.804238 5.62628C0.803832 5.64346 0.803832 5.66025 0.803832 5.67823C0.803832 7.63412 2.21785 9.26669 4.09549 9.63837C3.75122 9.73029 3.38828 9.77944 3.01397 9.77944C2.74968 9.77944 2.49269 9.75467 2.24221 9.70751C2.76429 11.3117 4.27939 12.4795 6.07462 12.5123C4.67035 13.5957 2.90151 14.2411 0.978808 14.2411C0.647938 14.2411 0.321127 14.2224 0 14.1852C1.81674 15.3314 3.97288 16 6.29019 16C13.8373 16 17.9644 9.84499 17.9644 4.50726C17.9644 4.33261 17.9608 4.15796 17.9527 3.98451C18.7545 3.41541 19.4503 2.70363 20 1.89354Z" fill="#262626"/>
</svg>
