<?xml version="1.0" encoding="UTF-8"?>
<svg width="68px" height="171px" viewBox="0 0 68 171" version="1.1" xmlns="http://www.w3.org/2000/svg" xmlns:xlink="http://www.w3.org/1999/xlink">
    <!-- Generator: Sketch 54.1 (76490) - https://sketchapp.com -->
    <title>Group 4</title>
    <desc>Created with Sketch.</desc>
    <g id="Page-1" stroke="none" stroke-width="1" fill="none" fill-rule="evenodd">
        <g id="Service---Software-Dev-Copy-19" transform="translate(-106.000000, -4173.000000)">
            <g id="Group-4" transform="translate(140.000000, 4258.500000) scale(-1, 1) translate(-140.000000, -4258.500000) translate(106.000000, 4173.000000)">
                <path d="M62.850557,81.9351032 C62.850557,81.9351032 64.1396256,95.2955447 63.0469367,100.71384 C63.0469367,100.71384 62.0778767,108.810876 62.3940813,110.809241 C62.7102858,112.808081 62.5833285,119.747243 60.9609375,123.400459 C60.9609375,123.400459 57.3780781,158.259713 58.6115137,165.583725 C58.6115137,165.583725 56.3919002,167.595393 55.2031612,166.084504 C54.0139467,164.57409 49.7653934,142.705157 49.3735851,134.224222 C48.9817767,125.742812 46.353237,105.345808 45.8140249,103.358372 C45.8140249,103.358372 45.4902124,113.15492 44.6794924,114.981766 C43.8682969,116.808136 37.2479716,132.145562 37.7810022,138.831009 C37.7810022,138.831009 35.8386026,159.243217 36.388751,161.453961 C36.388751,161.453961 33.1682193,162.639867 32.4777997,162.22461 C31.7869045,161.808878 25.5113135,131.298419 31.7826251,111.997522 C31.7826251,111.997522 34.8253215,104.389387 33.1325571,101.169008 C34.1838779,103.168798 31.8910381,88.3022183 35.7482584,78.735629 L33.0678897,82.0942692 L62.850557,81.9351032 Z" id="Fill-203" fill="#DBE3F3" transform="translate(46.253890, 122.691277) scale(-1, 1) translate(-46.253890, -122.691277) "></path>
                <path d="M21.277469,163.510909 C21.277469,163.510909 19.1672195,169.259414 23.1319019,169.373919 C27.0965843,169.488423 37.2845531,167.618817 38.2968833,166.679975 C38.2968833,166.679975 40.0429032,164.033068 37.2241652,163.96465 C34.4049517,163.896708 25.9620517,163.743243 24.1328201,162.241382 C24.1328201,162.241382 22.4367273,163.853947 21.277469,163.510909" id="Fill-205" fill="#DBE3F3" transform="translate(29.773957, 165.810164) scale(-1, 1) translate(-29.773957, -165.810164) "></path>
                <path d="M35.4794125,171 C33.7742853,170.96009 30.7853119,167.619672 32.6991817,163.510814 C32.6991817,163.510814 27.1130593,140.217939 27.2704484,128.063833 C27.2704484,128.063833 26.452596,120.726993 26.4364291,118.702021 C26.4207377,116.676575 24.60482,104.864082 24.60482,104.864082 C24.60482,104.864082 18.6677819,97.4949337 21.6320215,87.8499493 C22.2320969,85.8990968 30.2508549,88.2889624 30.2508549,88.2889624 C30.2508549,88.2889624 33.1299808,99.9133066 31.6397775,103.722363 C30.1490988,107.532369 32.2446079,116.124482 32.7667021,118.145653 C33.2897473,120.167299 32.8465854,128.272887 32.8465854,128.272887 C32.8465854,128.272887 31.8675399,165.377569 34.4927512,167.063304 C34.4927512,167.063304 38.1578713,168.942888 43.8362398,167.741303 C43.8362398,167.741303 49.6582081,166.709337 50.1665129,165.693051 C50.1665129,165.693051 50.1018455,166.6604 49.1670211,166.981107 C49.1670211,166.981107 45.9973433,167.95662 41.9794125,169 C40.6181538,169.353493 38.4514871,170.02016 35.4794125,171 Z" id="Fill-207" fill="#BEC9DD" transform="translate(35.484718, 129.041859) scale(-1, 1) translate(-35.484718, -129.041859) "></path>
                <path d="M59.2135496,161 C61.4309687,161.99741 61.1244164,163.792894 59.418983,163.548538 C57.7135496,163.304183 55.0125652,163.304183 53.254658,163.667176 C51.5818598,164.012008 50.1326857,164.502857 48.2135496,164.654956 C47.3456365,164.723741 46.5468105,164.906188 45.299141,164.654956 C45.299141,164.654956 44.5578433,163.735594 45.1374725,160.529468 C45.3666614,159.262317 47.5396763,160.452023 49.1706262,158.938758 C49.1706262,158.938758 56.9961305,160.00259 59.2135496,161 Z" id="Fill-209" fill="#DBE3F3" transform="translate(52.851787, 161.861142) scale(-1, 1) translate(-52.851787, -161.861142) "></path>
                <path d="M63.2651749,88.6118555 C63.7777592,89.3673001 63.849559,98.4815728 62.1097206,102.799485 C60.3703577,107.117397 57.1241492,113.219869 55.9049784,119.306187 C54.6862832,125.39203 53.6744285,157.809155 54.1931942,159.32432 L52.2831284,160.529231 C52.2831284,160.529231 44.8720539,134.077742 53.2797672,107.679942 C53.2797672,107.679942 54.5203352,104.378792 54.002045,102.863151 C53.4832793,101.348461 53.1261821,90.4638826 54.1137865,87.1646327 L63.2651749,88.6118555 Z" id="Fill-211" fill="#BEC9DD" transform="translate(56.424781, 123.846932) scale(-1, 1) translate(-56.424781, -123.846932) "></path>
                <path d="M5.74337282,24.809951 C5.74337282,24.809951 7.52410387,22.3625956 8.38189794,20.4302728 C8.38189794,20.4302728 10.5477804,16.0724503 5.75763769,14.8741917 C5.75763769,14.8741917 4.31498401,14.0284738 2.51238017,16.0040327 C2.51238017,16.0040327 -0.451859445,15.8871526 0.0592983326,19.6315921 C0.37883138,21.9725201 0.211456927,22.9365434 0.211456927,22.9365434 L0.277075321,24.3524081 L5.74337282,24.809951 Z" id="Fill-213" fill="#DBE3F3" transform="translate(4.435183, 19.752104) scale(-1, 1) translate(-4.435183, -19.752104) "></path>
                <path d="M1.13686838e-13,24.5181308 L3.48776028,24.809856 C3.48776028,24.809856 5.26849133,22.3625006 6.1262854,20.4301778 C6.1262854,20.4301778 8.29216789,16.0728304 3.50202515,14.8740966 C3.50202515,14.8740966 5.23235366,16.4505527 3.92378975,18.8760525 L1.13686838e-13,24.5181308 Z" id="Fill-215" fill="#BEC9DD" transform="translate(3.307353, 19.841976) scale(-1, 1) translate(-3.307353, -19.841976) "></path>
                <path d="M24.6532222,28.127493 C25.6051644,27.9469465 26.5951462,26.8959758 27.6226922,24.9755311 C28.6507137,23.0550865 30.9031364,17.4491174 34.3790093,8.15809918 L43.1761535,9.99729793 L44.2426902,14.8915336 C44.802824,17.4001798 44.9901693,19.1281999 44.803775,20.0751189 C44.5912285,21.1569725 44.4671241,22.3409775 43.2674487,22.9572112 C42.8927581,23.1496358 41.8385844,23.3596399 41.3003234,23.5444625 C39.7930023,24.0642464 38.7307451,23.9668463 37.1016971,23.2612896 L37.6798998,27.6989326 C36.2971586,27.1953029 34.083251,28.5703071 32.0024823,28.3298952 C29.922189,28.0890081 27.4724356,28.0215407 24.6532222,28.127493" id="Fill-217" fill="#DBE3F3" transform="translate(34.763366, 18.258238) scale(-1, 1) translate(-34.763366, -18.258238) "></path>
                <path d="M67.9664164,25.4474702 C67.9835342,25.8261427 67.4847393,29.7245219 66.6569015,33.4238248 C65.5846589,38.2106828 63.3598149,43.3795393 63.0840275,44.0090764 C62.3222835,45.7508751 60.8002221,48.3312648 58.3595031,48.8634018 C55.9187842,49.3955389 56.6615083,49.2796091 53.1899149,48.8667277 C49.7183215,48.4538463 44.7313235,43.0493292 44.5853464,45.447747 C44.3937217,48.5997089 42.3852282,51.9602495 42.1199017,54.598129 C42.0157681,55.6329456 42.2929821,56.7076724 42.2363981,57.1210289 C42.0580872,58.4252398 42.2297411,59.5812126 41.9853364,61.1206091 C41.7471131,62.6219959 41.0918802,64.5148835 40.9839427,65.2579749 C40.294474,69.9887685 43.2862924,86.1396037 43.1626635,86.6061739 C42.9620044,87.3649443 38.7167796,87.4580683 33.1829617,88.7717817 C27.6491439,90.0859702 27.6068247,86.8807946 25.087649,88.2030602 C22.5684733,89.5253258 19.896188,87.6409904 17.6604076,88.3166145 C15.4246273,88.9917634 15.3342831,87.557844 13.5321548,88.0381928 C11.7305019,88.5190166 11.6658345,88.0396181 11.182731,87.2532906 C10.9330958,86.8470609 11.9482789,79.836155 12.1185063,77.1075272 C12.2768464,74.5570702 12.8322252,70.7869741 13.1541358,66.5797653 C13.2354455,65.5121653 12.916388,63.4976464 12.756146,61.1586189 C12.7252387,60.7129541 12.7694598,58.8347953 12.4870154,58.0826766 C12.3923918,57.8313369 12.152742,57.8427398 11.7671151,58.1159352 C6.27323885,58.596759 3.44641746,57.1067752 3.28665094,53.646934 C3.04700115,48.4571722 14.8383412,28.8792792 19.2818477,27.2096991 C23.7263051,25.5396439 26.9929599,25.0098825 30.2386929,25.0436162 C36.6521777,25.1110836 44.0856005,26.5160204 47.5885766,28.4754252 C49.1653201,29.3572523 50.5746891,31.8763512 51.9103562,33.5544835 C52.2741104,34.0110761 53.6116795,34.4410618 54.5954799,34.9575199 C55.7651991,35.5718531 56.587331,36.2465269 56.805108,36.3752851 C57.2069018,36.6114209 57.2173627,35.7362455 58.206869,33.2641837 C59.1958999,30.792597 62.5457665,24.0121255 62.8472307,23.8149497 C63.1486949,23.618249 64.270389,23.7897682 65.897535,24.309077 C67.5251564,24.8279106 67.9274257,24.6112548 67.9664164,25.4474702" id="Fill-219" fill="#1255CC" transform="translate(35.624947, 56.415386) scale(-1, 1) translate(-35.624947, -56.415386) "></path>
                <path d="M21.2829375,25.4474702 C21.3000553,25.8261427 20.8012605,29.7245219 19.9734226,33.4238248 C18.90118,38.2106828 16.6763361,43.3795393 16.4005486,44.0090764 C15.6388047,45.7508751 14.1167432,48.3312648 11.6760243,48.8634018 C11.5509689,48.8904838 11.0459926,49.0525006 10.1477814,49.2040646 C10.0583882,49.2192685 8.14974884,49.2682061 5.66385781,48.6529226 C5.09183659,48.5113362 4.29823442,48.1450168 3.2830513,47.5539645 C5.64626447,48.0856265 7.22253241,48.3830531 8.01090412,48.4467195 C9.72268831,48.5849801 10.5861883,48.180651 10.7592687,48.0205347 C11.8795364,46.9847679 12.9375141,46.0302471 13.4210931,45.3242152 C15.3126147,42.5613785 16.2712138,39.3338722 16.8917356,37.3046244 C17.2978088,35.975232 17.4214377,34.7655704 17.7181469,33.5278766 C18.0695382,32.0592733 18.6001913,30.5583617 19.2188111,28.8688265 C19.4518039,28.2326376 19.1921833,27.2510348 19.3158122,26.5107941 C19.4004504,26.0043136 19.3666902,25.2702495 19.2140561,24.309077 C20.8416776,24.8279106 21.2439469,24.6112548 21.2829375,25.4474702" id="Fill-221" fill="#134AAD" transform="translate(12.283208, 36.760366) scale(-1, 1) translate(-12.283208, -36.760366) "></path>
                <path d="M44.703354,11.2694381 C45.522633,8.8662691 44.2464027,5.03868316 44.2464027,5.03868316 C42.5056133,0.303613466 33.3318766,-2.48297932 28.2621424,3.07357697 C23.1919328,8.62965815 28.846051,15.7189593 29.9639412,17.9487086 C31.0818314,20.178458 29.2564037,24.9757687 29.2564037,24.9757687" id="Fill-223" fill="#DBE3F3" transform="translate(35.580127, 12.487884) scale(-1, 1) translate(-35.580127, -12.487884) "></path>
                <path d="M26.3363622,16.6247801 C26.2222432,14.1555691 24.6863924,11.0791516 24.8214332,9.91842762 C24.8718357,9.48986723 25.5246912,9.88564417 26.0239615,9.86331342 C26.8575053,9.82435339 27.4518749,16.3330549 29.1365558,18.3190665 C29.6748168,18.95383 30.5302334,18.3067133 32.3746809,16.3463584 C33.1045666,19.9240299 33.0826938,22.1552047 31.6367117,23.0698152 C30.191205,23.984901 28.2797127,24.3298398 25.9022347,24.1046318 C25.5056713,24.0870523 25.2061091,23.9483165 25.0040235,23.6884246 C24.8014623,23.4285326 24.8190557,22.0107674 24.5665675,21.1954574 C26.0130251,19.815702 26.4404957,18.8787607 26.3363622,16.6247801" id="Fill-225" fill="#143B82" transform="translate(28.706779, 16.944718) scale(-1, 1) translate(-28.706779, -16.944718) "></path>
                <polygon id="Fill-227" fill="#DBE3F3" transform="translate(25.637573, 13.383115) scale(-1, 1) translate(-25.637573, -13.383115) " points="24.0330128 11.076871 27.2421326 14.1029255 25.143295 15.6893591"></polygon>
                <path d="M67.2515792,88.2225878 C67.2515792,88.2225878 64.9035819,77.7798729 64.3006535,72.5597032 C63.6977251,67.3400087 63.7899712,64.7572434 64.2207702,62.3963603 C64.6510938,60.0354771 65.9568047,51.676649 65.3671902,49.5690061 C64.7771001,47.4608881 63.7657209,39.008936 63.7048575,35.6412685 C63.6435186,32.2740761 65.8094011,25.0574422 67.5078714,25.0436637 C67.5078714,25.0436637 59.5371385,25.0313105 55.9247984,27.5318796 C55.9247984,27.5318796 52.2958159,29.7663802 46.1609716,40.1782121 C46.1609716,40.1782121 40.0808093,50.480766 40.5553539,53.6469815 C40.5553539,53.6469815 39.9590824,59.685787 49.4228715,57.81428 C49.4228715,57.81428 49.8907591,58.078448 49.9459166,59.149849 C50.0020251,60.22125 50.9358985,63.121397 50.6501256,65.2171619 C50.3643528,67.3124516 50.4713393,71.2863752 50.4713393,71.2863752 C50.4713393,71.2863752 49.5612407,75.4650766 49.3534491,77.57462 C49.1456575,79.6836882 48.7780994,82.9107195 48.7780994,82.9107195 C48.7780994,82.9107195 46.7600961,89.566709 50.8013332,88.0382403 C50.8013332,88.0382403 52.3105563,87.6453141 53.0975015,88.2178365 C53.8849222,88.790359 54.9295861,88.316662 54.9295861,88.316662 C54.9295861,88.316662 56.6466007,87.8553182 58.1182596,88.4268904 C59.5899185,88.9984626 61.2707955,88.6763296 61.813336,88.4397187 C62.3568275,88.2031077 63.5798022,87.3844719 65.2839784,88.4891314 C65.2839784,88.4891314 66.9967136,89.3909137 67.9900239,89.0944373 L67.2515792,88.2225878 Z" id="Fill-229" fill="#134AAD" transform="translate(54.259489, 57.098964) scale(-1, 1) translate(-54.259489, -57.098964) "></path>
                <path d="M61.5847324,58.0226211 L61.5471682,57.206836 C62.171494,56.0969501 62.5423805,55.2764138 62.6584015,54.745702 C63.3802038,51.4483527 63.7078203,49.53551 64.2441793,47.9367231 C65.3073875,44.7690822 67.1361436,42.1815657 67.19986,41.4227952 C67.2417036,40.9167899 66.3468209,41.332522 64.5128343,42.6699915 C63.356429,42.1250261 62.547611,42.0262007 62.0868558,42.3725649 C61.3954851,42.8913985 62.1876608,45.7962968 61.6089827,47.3480465 C61.0303045,48.9002713 60.1477847,48.5073451 59.3408686,49.7388623 C58.5344281,50.9708547 58.3946324,52.3653389 58.164968,52.6086016 C58.0113829,52.7715685 56.320996,53.3103573 53.0919054,54.225443 C53.1056947,55.8237547 53.3353591,56.8044073 53.7808985,57.1669257 C54.922088,58.0962651 57.0794115,58.2302496 58.1159919,58.1822623 C58.6794542,58.1566057 59.1601803,58.204593 59.5591211,58.1950906 C59.9371401,58.1865384 60.3384584,58.1680086 60.762125,58.1399764 C60.9390094,57.9389996 61.08356,57.8306717 61.1972035,57.8145175 C61.3103714,57.7978882 61.4392307,57.8677312 61.5847324,58.0226211" id="Fill-231" fill="#06417C" transform="translate(60.146584, 49.705407) scale(-1, 1) translate(-60.146584, -49.705407) "></path>
                <path d="M38.9139807,162.850631 C38.9139807,162.850631 37.2354812,163.741485 34.7662325,163.511051 L34.1228869,160.706404 C34.1228869,160.706404 37.0547928,161.239966 38.8887794,159.670637 L38.9139807,162.850631 Z" id="Fill-233" fill="#134AAD" transform="translate(36.518434, 161.609881) scale(-1, 1) translate(-36.518434, -161.609881) "></path>
                <path d="M61.0474928,159.019529 L61.192519,155.906527 C61.192519,155.906527 58.9700525,158.155757 56.0619214,157.72292 L56.6881491,160.529468 C56.6881491,160.529468 60.1198009,160.700512 61.0474928,159.019529" id="Fill-235" fill="#134AAD" transform="translate(58.627220, 158.220443) scale(-1, 1) translate(-58.627220, -158.220443) "></path>
                <path d="M49.9388271,161.777092 C51.0985609,161.799423 55.4769245,161.344255 55.4769245,161.344255 C55.4769245,161.344255 61.411141,162.157665 60.7630405,163.589209 C60.7630405,163.589209 58.0629457,163.404197 55.0269062,164 C54.6312939,164.07792 52.6938487,164.226348 52.0367138,164.413546 C51.3795788,164.600744 47.901804,165.149986 46.4230126,164.614523 C46.4230126,164.614523 45.9132813,162.257916 46.4505914,160.529421 C46.4505914,160.529421 47.3887442,160.566955 48.5732037,160.366929 C48.5732037,160.366929 48.7795688,161.754761 49.9388271,161.777092 Z" id="Fill-237" fill="#BEC9DD" transform="translate(53.508465, 162.604908) scale(-1, 1) translate(-53.508465, -162.604908) "></path>
                <path d="M61.2577094,160.366929 C61.2577094,160.366929 60.871607,157.961859 60.8416508,157.53805 C60.8416508,157.53805 59.3552515,157.959959 58.4437264,157.622622 L59.135097,160.529421 C59.135097,160.529421 59.736599,160.659129 61.2577094,160.366929" id="Fill-239" fill="#0B3C84" transform="translate(59.850718, 159.048079) scale(-1, 1) translate(-59.850718, -159.048079) "></path>
                <path d="M38.6293014,160.793779 C38.6293014,160.793779 38.8922505,163.386997 38.9141233,163.548538 L38.1614138,163.511004 L37.5175927,160.706356 L38.6293014,160.793779 Z" id="Fill-241" fill="#0B3C84" transform="translate(38.215858, 162.127447) scale(-1, 1) translate(-38.215858, -162.127447) "></path>
                <path d="M3.25483964,17.3731929 C3.6057554,16.3502544 6.21527529,8.92171588 7.95749119,9.64627752 C9.51901877,10.2957698 5.44211943,17.4530134 5.44211943,17.4530134 L3.25483964,17.3731929 Z" id="Fill-243" fill="#DBE3F3" transform="translate(5.784317, 13.524819) scale(-1, 1) translate(-5.784317, -13.524819) "></path>
                <path d="M30.3198842,12.8934064 L29.9932187,12.5479925 C30.6765059,11.9032514 30.7021827,11.5768423 30.6565351,11.4385817 C30.614216,11.3107738 30.4225913,11.0817648 29.6161507,10.9853149 L29.5619442,10.9786632 L23.7233337,10.6403761 L23.7513879,10.1662039 L29.6722592,10.5135184 C30.4867832,10.6104434 30.9698867,10.8717607 31.1077804,11.2898684 C31.2537576,11.730782 30.996039,12.2553171 30.3198842,12.8934064" id="Fill-245" fill="#143B82" transform="translate(27.435308, 11.529805) scale(-1, 1) translate(-27.435308, -11.529805) "></path>
            </g>
        </g>
    </g>
</svg>