<svg width="100" height="75" xmlns="http://www.w3.org/2000/svg"><g fill-rule="nonzero" fill="none"><path d="M5.644 64.145A4.26 4.26 0 019.9 68.368a3.58 3.58 0 01-.07.73 4.243 4.243 0 01-4.12 3.544 4.244 4.244 0 01-4.236-3.405 5.056 5.056 0 01-.079-.869 4.26 4.26 0 014.248-4.223m0-1.382C2.537 62.77.016 65.272 0 68.368a5.64 5.64 0 005.741 5.63 5.638 5.638 0 005.467-4.672c.058-.326.085-.656.08-.987 0-3.108-2.526-5.63-5.644-5.635v.06zM99.01 68.556a.57.57 0 000-.188.58.58 0 000-.128.305.305 0 000-.128l-.07-.119a.464.464 0 00-.059-.088l-4.485-4.866a.694.694 0 00-.99-.049.68.68 0 000 .987l3.445 3.75H71.465a.699.699 0 100 1.391h25.258l-3.376 3.74c-.257.29-.23.73.059.987a.694.694 0 00.99 0l4.337-4.815a.67.67 0 00.277-.474z" fill="#032663"/><path d="M50.584 69.079C69.688 69.03 85.15 53.58 85.15 34.539v-.986l3.683 3.276c.129.112.294.175.465.178.2 0 .39-.082.525-.227a.699.699 0 00-.06-.987l-4.722-4.214a33.71 33.71 0 00-4.347-14.063A41.5 41.5 0 0069.941 5.921a29.224 29.224 0 00-5.228-2.96A34.371 34.371 0 0050.584 0C37.713 0 25.891 7.638 18.99 20.428a28.442 28.442 0 00-3.148 14.368l-3.783-3.365a.695.695 0 00-.87.114.69.69 0 00-.06.873L15.95 36.7c.21 2.788.765 5.539 1.654 8.19a34.68 34.68 0 0013.861 18.366.694.694 0 001.239-.44.691.691 0 00-.486-.646A33.277 33.277 0 0118.9 44.497a34.311 34.311 0 01-1.554-7.895l4.564-4.145a.69.69 0 00-.054-.887.695.695 0 00-.887-.1l-3.722 3.385a27.113 27.113 0 012.97-13.687C26.87 8.832 38.218 1.43 50.584 1.43A33.093 33.093 0 0164.14 4.263c1.74.753 3.4 1.683 4.95 2.773a40.997 40.997 0 0110.396 11.161 32.489 32.489 0 014.159 13.382l-4.684 4.253a.699.699 0 000 .987c.13.147.319.23.515.227a.734.734 0 00.475-.178l3.842-3.503v1.145c.006 18.293-14.854 33.135-33.208 33.168H10.703a.699.699 0 100 1.391h39.881v.01z" fill="#A8C5DD"/><path d="M67.04 36.089v-4.51h-4.664a12.45 12.45 0 00-1.435-3.484l3.297-3.286-4.08-4.085L56.861 24a14.631 14.631 0 00-3.505-1.43v-4.64h-5.703v4.64A14.502 14.502 0 0044.15 24l-3.307-3.276-4.06 4.036 3.297 3.286a15.554 15.554 0 00-1.465 3.533H33.97v4.54h4.644c.19 1.615.68 3.18 1.445 4.618l-3.297 3.286 4.06 4.046 3.307-3.286a36.564 36.564 0 003.505 1.43v4.649h5.703v-4.678a37.635 37.635 0 003.505-1.43l3.297 3.285 4.069-4.046-3.297-3.286a8.861 8.861 0 001.465-4.618h4.664zM61 35.94a7.492 7.492 0 01-1.198 3.947v.08l-.564.917.762.76 2.337 2.319-2.13 2.102-2.326-2.31-.762-.76-.93.563c-.683.355-1.395.65-2.13.879-.45.144-.89.318-1.316.523l-.763.434v4.085h-2.97v-4.085l-.713-.385c-.424-.203-.86-.378-1.307-.523a12.439 12.439 0 01-2.148-.888l-.921-.563-.772.77-2.327 2.31-2.119-2.103 2.327-2.319.772-.76-.564-.918a11.587 11.587 0 01-1.258-4.095l-.158-1.184h-4.475V32.92h4.376l.247-1.046c.306-1.08.738-2.12 1.287-3.099l.565-.917-.772-.76-2.327-2.32 2.119-2.082 2.336 2.31.763.76.92-.553a13.38 13.38 0 013.08-1.273l1.089-.227v-4.401H52v4.371l1.109.217c1.066.29 2.09.715 3.05 1.263l.93.553.762-.76 2.307-2.26 2.13 2.102-2.338 2.32-.762.76.564.917a11.298 11.298 0 011.278 3.099l.257 1.046h4.376v1.796H61.14L61 35.94z" fill="#2969F6"/><path d="M50.495 28.155c-3.455.005-6.251 2.8-6.247 6.243.003 3.443 2.806 6.232 6.26 6.23 3.455-.002 6.254-2.793 6.254-6.237-.005-3.446-2.81-6.236-6.267-6.236zm0 11.102c-2.695-.033-4.855-2.232-4.831-4.918.023-2.686 2.222-4.846 4.917-4.832 2.694.014 4.87 2.199 4.865 4.884a4.867 4.867 0 01-1.457 3.462 4.9 4.9 0 01-3.494 1.404z" fill="#2969F6"/></g></svg>