<svg width="100" height="75" xmlns="http://www.w3.org/2000/svg"><g fill-rule="nonzero" fill="none"><path d="M99.02 56.62V5.39a5.487 5.487 0 00-1.353-4A5.278 5.278 0 0093.745.02L6.265.05C2.804.06.98 1.93.98 5.46v57.82a5.507 5.507 0 001.363 4 5.25 5.25 0 003.922 1.37H39.96c-.167 4.11-1.961 4.76-3.383 5h-2.156V75h30.676v-1.42h-1.373c-1.44-.19-3.215-.83-3.401-4.95h33.421c3.46 0 5.284-1.88 5.284-5.41l-.01-6.6zM6.265 1.45l87.421-.06a4.018 4.018 0 012.941 1 4.203 4.203 0 01.98 3v52.49L2.392 58V5.47C2.353 2.69 3.56 1.45 6.265 1.45zM60.47 73.6l-20.667.09c.794-.82 1.421-2.63 1.52-5H58.97a8.284 8.284 0 001.5 4.91zm33.274-6.38H6.323a4.143 4.143 0 01-2.94-1 4.203 4.203 0 01-.981-3v-3.88l95.265-.07v3.93c-.01 2.74-1.255 4.01-3.922 4.02z" fill="#A8C5DD"/><path d="M74.412 17v13.32H87.5C87.484 22.959 81.629 17 74.412 17zm1.372 1.48c5.367.661 9.601 4.968 10.265 10.44H75.784V18.48z" fill="#2969F6"/><path d="M72.549 20.05c-5.93-.002-11.121 4.06-12.656 9.903-1.534 5.842.971 12.008 6.108 15.03 5.136 3.022 11.623 2.147 15.813-2.133l-9.265-9.44V20.05zm7.265 22.74a11.455 11.455 0 01-7.265 2.57c-6.02-.277-10.862-5.148-11.215-11.284-.353-6.136 3.896-11.552 9.842-12.546V34l.402.41 8.236 8.38z" fill="#2969F6"/><path d="M83.667 41.82c2.46-2.5 3.84-5.898 3.833-9.44H74.412l9.255 9.44zm0-2l-5.883-6h8.324a11.922 11.922 0 01-2.49 5.96l.049.04zM41.176 44.4h-1.49v-21H33.98v21h-1.882V33.34h-5.706V44.4H24.51V30h-5.706v14.4h-1.882v-6.64h-5.706v6.64h-1.49a.693.693 0 00-.687.7c0 .387.307.7.686.7h31.451a.693.693 0 00.687-.7c0-.387-.308-.7-.687-.7zm-5.823-19.61h2.941V44.4h-2.941V24.79zm-7.588 10h2.94v9.61h-2.94v-9.61zm-7.589-3.32h2.942v13h-2.942v-13zm-7.588 7.74h2.941v5.19h-2.94v-5.19z" fill="#2969F6"/><path d="M38.059 13.44l-5.353.73a.709.709 0 00-.598.8.7.7 0 00.784.61l2.941-.4-6.764 8.88-7.53-3.3-7.921 8.08a.72.72 0 000 1c.273.27.707.27.98 0l7.255-7.4 7.647 3.34 7.52-9.86.411 3.15a.69.69 0 00.687.61h.088a.683.683 0 00.461-.267.71.71 0 00.137-.523l-.745-5.45z" fill="#032663"/><path d="M50.176 50.44a.703.703 0 01-.696-.71v-39a.715.715 0 01.32-.684.685.685 0 01.743 0 .715.715 0 01.32.684v39a.707.707 0 01-.198.501.68.68 0 01-.489.209z" fill="#A8C5DD"/></g></svg>