<?xml version="1.0" encoding="UTF-8"?>
<svg width="100px" height="75px" viewBox="0 0 100 75" version="1.1" xmlns="http://www.w3.org/2000/svg" xmlns:xlink="http://www.w3.org/1999/xlink">
    <!-- Generator: sketchtool 59 (101010) - https://sketch.com -->
    <title>87912928-DFB0-4E27-A0D1-665CE3016AE1</title>
    <desc>Created with sketchtool.</desc>
    <g id="Page-1" stroke="none" stroke-width="1" fill="none" fill-rule="evenodd">
        <g id="Icons" transform="translate(-374.000000, -3145.000000)" fill-rule="nonzero">
            <g id="mid-icon-angelinvestor" transform="translate(374.000000, 3145.000000)">
                <path d="M39.86,35.0032895 C39.86,35.0032895 34.86,34.0164474 26.32,28.0953947 C17.32,21.8190789 5.37,25.2335526 0.67,27 L0,27.2072368 L0.28,27.8585526 C0.4,28.1348684 3.15,34.1151316 12.69,35.2105263 C9.67361525,35.9054186 6.56089252,36.0988632 3.48,35.7828947 L3.27,35.7828947 L3.18,35.7828947 L3.11,35.7828947 L3,35.9013158 L2.91,35.9605263 C2.87140814,35.9953696 2.83776982,36.0352044 2.81,36.0789474 L2.75,36.1677632 C2.74557567,36.2137123 2.74557567,36.2599719 2.75,36.3059211 L2.75,36.375 C2.73998708,36.4205226 2.73998708,36.4676353 2.75,36.5131579 C2.74081186,36.5554404 2.74081186,36.5991649 2.75,36.6414474 C4.45,40.3519737 9.63,41.0723684 12.49,41.1809211 C10.2379942,42.670334 7.74084839,43.7622342 5.11,44.4078947 L5.11,44.4078947 C5.07337272,44.405523 5.03662728,44.405523 5,44.4078947 L4.89,44.4078947 L4.89,44.4078947 C4.86159589,44.4293729 4.83780147,44.4562087 4.82,44.4868421 C4.78157041,44.5181132 4.74789301,44.5546709 4.72,44.5953947 L4.72,44.7138158 C4.72,44.7138158 4.72,44.7927632 4.72,44.8421053 C4.71498744,44.8913234 4.71498744,44.9409134 4.72,44.9901316 L4.72,45.0888158 L4.72,45.0888158 C4.72,45.0888158 4.72,45.0888158 4.72,45.1677632 C4.69850722,45.24143 4.69171484,45.3185147 4.7,45.3947368 L4.7,45.3947368 C6.25278204,47.0545365 8.46237011,47.9627839 10.75,47.8815789 C12.2007655,47.8751886 13.6391782,47.6180111 15,47.1217105 C13.9545358,48.4913128 12.6875715,49.6815925 11.25,50.6447368 C11.25,50.6447368 11.25,50.6447368 11.25,50.6447368 L11.16,50.7335526 C11.1245635,50.7687022 11.0942713,50.8085604 11.07,50.8519737 L11.07,50.8519737 C11.071277,50.8749828 11.071277,50.8980436 11.07,50.9210526 C11.0653022,50.9702858 11.0653022,51.0198457 11.07,51.0690789 C11.0650835,51.1084035 11.0650835,51.1481754 11.07,51.1875 C11.07,51.1875 11.07,51.2763158 11.07,51.3157895 C11.0805198,51.3606453 11.0973498,51.4038273 11.12,51.4440789 C11.12,51.4440789 11.12,51.4440789 11.12,51.5131579 L11.12,51.5131579 C11.1682453,51.5837715 11.2335411,51.6414253 11.31,51.6809211 L11.36,51.6809211 L11.36,51.6809211 C12.6087291,52.2058955 13.9526852,52.4745077 15.31,52.4703947 C17.3759482,52.5242396 19.393576,51.848882 21,50.5657895 C21.0165328,51.9225511 20.5372813,53.239792 19.65,54.2763158 C19.6211444,54.3050385 19.5974708,54.3384129 19.58,54.375 C19.5508246,54.4143987 19.5272712,54.4575652 19.51,54.5032895 L19.51,54.5032895 L19.51,54.5921053 C19.4996665,54.6375934 19.4996665,54.684775 19.51,54.7302632 C19.5051826,54.7695937 19.5051826,54.8093537 19.51,54.8486842 C19.5043427,54.8912652 19.5043427,54.9343927 19.51,54.9769737 L19.59,55.0953947 L19.59,55.1644737 L19.59,55.1644737 L19.7,55.2434211 C19.7403594,55.2689789 19.7841074,55.2889046 19.83,55.3026316 L19.83,55.3026316 C20.3798422,55.4342656 20.9442554,55.4972581 21.51,55.4901316 C23.4834266,55.4906388 25.3813214,54.7414698 26.81,53.3980263 C26.9363245,54.6815272 26.6531312,55.9719063 26,57.0888158 C26,57.0888158 26,57.0888158 26,57.1480263 C25.9742021,57.1807828 25.9539406,57.21744 25.94,57.2565789 C25.9353216,57.3025159 25.9353216,57.3487999 25.94,57.3947368 C25.94,57.3947368 25.94,57.3947368 25.94,57.4440789 C25.94,57.4934211 25.94,57.4440789 25.94,57.5131579 C25.94,57.5822368 25.94,57.6118421 25.94,57.6513158 C25.9523446,57.6924344 25.9691065,57.7321334 25.99,57.7697368 C26.0018311,57.8127514 26.0222282,57.8530088 26.05,57.8881579 L26.14,57.9868421 C26.14,57.9868421 26.14,57.9868421 26.2,58.0361842 L26.2,58.0361842 L26.28,58.0361842 L26.46,58.0361842 L26.46,58.0361842 C26.46,58.0361842 26.71,58.0361842 27.04,58.0361842 C28.23,58.0361842 30.94,57.8585526 32.49,56.3980263 C32.6778763,56.2327144 32.7596253,55.9795577 32.7033113,55.7374536 C32.6469972,55.4953494 32.4615564,55.3027171 32.2194326,55.2348095 C31.9773088,55.166902 31.7169243,55.2344955 31.54,55.4111842 C30.4150808,56.2314158 29.0485248,56.6647625 27.65,56.6447368 C28.3077934,55.0616185 28.4408156,53.3136295 28.03,51.6513158 L28.03,51.5723684 C28.0107309,51.5244173 27.9873109,51.4781937 27.96,51.4342105 C27.9357109,51.3966498 27.9053016,51.3633062 27.87,51.3355263 C27.87,51.3355263 27.87,51.3355263 27.81,51.2664474 L27.81,51.2664474 L27.68,51.3157895 L27.57,51.3157895 L27.3,51.3157895 C27.3,51.3157895 27.3,51.3157895 27.3,51.3157895 L27.22,51.3157895 L27.08,51.375 L26.98,51.4638158 L26.91,51.5230263 C25.649647,53.3117899 23.5565216,54.3482971 21.35,54.2763158 C22.2553478,52.6776609 22.5599014,50.8149728 22.21,49.0164474 L22.21,48.9276316 C22.21,48.9276316 22.21,48.8486842 22.16,48.7993421 L22.06,48.6809211 L22.06,48.6217105 L22.06,48.6217105 C22.0146303,48.5876013 21.9639789,48.5609426 21.91,48.5427632 L21.83,48.5427632 C21.7838386,48.5331791 21.7361614,48.5331791 21.69,48.5427632 C21.6434653,48.537865 21.5965347,48.537865 21.55,48.5427632 L21.55,48.5427632 L21.46,48.5427632 C21.4170469,48.5347517 21.3729531,48.5347517 21.33,48.5427632 L21.22,48.6217105 C21.1923124,48.6357983 21.1683422,48.6560738 21.15,48.6809211 C19.1977084,50.9698719 16.0586356,51.9030748 13.15,51.0592105 C14.9284319,49.690541 16.3880499,47.9606998 17.43,45.9868421 L17.43,45.9868421 L17.43,45.8486842 C17.4348174,45.8093537 17.4348174,45.7695937 17.43,45.7302632 C17.4340912,45.6875953 17.4340912,45.6446415 17.43,45.6019737 C17.4343442,45.559318 17.4343442,45.5163399 17.43,45.4736842 C17.43,45.4736842 17.43,45.4736842 17.43,45.4736842 L17.38,45.4144737 C17.3556247,45.3740826 17.3252923,45.3374975 17.29,45.3059211 L17.18,45.2269737 L17.12,45.2269737 L17,45.2269737 L16.87,45.2269737 L16.74,45.2269737 L16.61,45.2269737 L16.48,45.2269737 L16.43,45.2269737 C11.17,47.6743421 8,46.3815789 6.65,45.3947368 C8.65,44.8322368 12.53,43.4901316 14.89,41.0822368 L14.89,41.0822368 C14.9256033,41.0435788 14.955866,41.0004412 14.98,40.9539474 C14.9854118,40.9212694 14.9854118,40.8879411 14.98,40.8552632 C14.9902815,40.8197902 14.9902815,40.7821835 14.98,40.7467105 C14.989706,40.6978333 14.989706,40.6475615 14.98,40.5986842 C14.98,40.5986842 14.98,40.5986842 14.98,40.5986842 L14.98,40.5 C14.9832707,40.4540039 14.9832707,40.4078382 14.98,40.3618421 C14.9490751,40.3030538 14.9085303,40.2497053 14.86,40.2039474 L14.86,40.2039474 L14.86,40.2039474 C14.7546138,40.1036513 14.6161887,40.0441062 14.47,40.0361842 L14.36,40.0361842 C14.36,40.0361842 14.36,40.0361842 14.36,40.0361842 C14.36,40.0361842 7.48,40.4506579 4.75,37.3717105 C5.25,37.3717105 5.85,37.3717105 6.53,37.3717105 C9.23,37.3717105 13.11,37.0361842 16.07,35.3980263 L16.07,35.3980263 L16.14,35.3980263 L16.21,35.3388158 L16.32,35.25 C16.3490515,35.2177322 16.3726835,35.1810847 16.39,35.1414474 L16.45,35.0328947 L16.45,34.8947368 C16.45,34.8947368 16.45,34.8355263 16.45,34.8059211 L16.45,34.8059211 L16.45,34.6776316 C16.4543442,34.6349759 16.4543442,34.5919978 16.45,34.5493421 C16.45,34.5493421 16.45,34.5493421 16.45,34.5493421 L16.39,34.4901316 L16.3,34.3815789 L16.19,34.3125 L16,34.0953947 C15.9535045,34.0898163 15.9064955,34.0898163 15.86,34.0953947 L15.78,34.0953947 C6.59,34.0460526 3,29.6052632 1.89,27.9572368 C6.8,26.2302632 17.47,23.5657895 25.53,29.1611842 C34.35,35.2993421 39.39,36.2960526 39.61,36.3355263 L39.73,36.3355263 C40.073104,36.3198569 40.3522884,36.0575399 40.3849712,35.720126 C40.417654,35.382712 40.1938828,35.0729509 39.86,34.9934211 L39.86,35.0032895 Z" id="Path" fill="#2969F6"></path>
                <path d="M99.72,27.8585526 L100,27.2072368 L99.33,26.9605263 C94.63,25.1940789 82.71,21.7796053 73.68,28.0559211 C65.14,33.9769737 60.18,34.9638158 60.14,34.9638158 C59.8061172,35.0433457 59.582346,35.3531068 59.6150288,35.6905207 C59.6477116,36.0279346 59.926896,36.2902517 60.27,36.3059211 L60.39,36.3059211 C60.61,36.3059211 65.65,35.3190789 74.47,29.1315789 C82.53,23.5361842 93.18,26.1710526 98.1,27.9276316 C97,29.6052632 93.33,34.0460526 84.2,34.0460526 L84.13,34.0460526 C84.0770949,34.0366208 84.0229051,34.0366208 83.97,34.0460526 L83.87,34.0953947 L83.75,34.1743421 L83.66,34.2730263 C83.66,34.2730263 83.66,34.2730263 83.6,34.3421053 C83.54,34.4111842 83.6,34.3421053 83.6,34.3421053 C83.5943427,34.3846862 83.5943427,34.4278138 83.6,34.4703947 L83.6,34.5986842 L83.6,34.5986842 C83.6,34.5986842 83.6,34.6578947 83.6,34.6875 L83.6,34.8256579 L83.66,34.9342105 C83.6773165,34.9738478 83.7009485,35.0104953 83.73,35.0427632 L83.84,35.1315789 L83.91,35.1907895 L83.98,35.1907895 L83.98,35.1907895 C86.98,36.7993421 90.82,37.1644737 93.52,37.1644737 C94.2,37.1644737 94.8,37.1644737 95.3,37.1644737 C92.57,40.2434211 85.76,39.8289474 85.69,39.8289474 L85.69,39.8289474 C85.6207579,39.8145712 85.5492421,39.8145712 85.48,39.8289474 L85.48,39.8289474 C85.4403392,39.8427046 85.4031932,39.8626994 85.37,39.8881579 L85.24,39.9671053 L85.24,39.9671053 C85.24,39.9671053 85.24,39.9671053 85.24,40.0263158 C85.1956868,40.0675057 85.1614849,40.1181335 85.14,40.1743421 C85.1357019,40.2137018 85.1357019,40.2534034 85.14,40.2927632 C85.1444983,40.3288112 85.1444983,40.3652677 85.14,40.4013158 C85.14,40.4013158 85.14,40.4013158 85.14,40.4013158 C85.130294,40.4501931 85.130294,40.5004648 85.14,40.5493421 C85.1297185,40.584815 85.1297185,40.6224218 85.14,40.6578947 C85.1504683,40.693508 85.1674105,40.7269465 85.19,40.7565789 C85.214134,40.8030728 85.2443967,40.8462104 85.28,40.8848684 L85.28,40.8848684 C87.64,43.2927632 91.52,44.625 93.51,45.1875 C92.11,46.1743421 88.97,47.4769737 83.76,44.8519737 L83.76,44.8519737 L83.64,44.8519737 L83.49,44.8519737 L83.39,44.8519737 L83.23,44.8519737 L83.23,44.8519737 L83.17,44.8519737 L83.06,44.9407895 C83.0247077,44.9723659 82.9943753,45.0089511 82.97,45.0493421 L82.97,45.1085526 C82.97,45.1085526 82.97,45.1085526 82.97,45.1085526 C82.9656558,45.1512083 82.9656558,45.1941864 82.97,45.2368421 C82.9431707,45.3203194 82.9431707,45.4099438 82.97,45.4934211 L82.97,45.6217105 L82.97,45.6217105 C84.0112702,47.5903624 85.4671668,49.3164693 87.24,50.6842105 C84.3333838,51.5197827 81.2005439,50.5922972 79.24,48.3157895 C79.24,48.3157895 79.24,48.3157895 79.17,48.2565789 L79.06,48.1776316 L78.92,48.1184211 C78.92,48.1184211 78.92,48.1184211 78.84,48.1184211 L78.84,48.1184211 C78.7938704,48.1085399 78.7461296,48.1085399 78.7,48.1184211 C78.6573134,48.1079726 78.6126866,48.1079726 78.57,48.1184211 L78.47,48.1184211 L78,48.5526316 L78,48.5526316 L77.95,48.6118421 L77.86,48.7302632 C77.86,48.7796053 77.86,48.8190789 77.81,48.8585526 L77.81,48.9473684 C77.4323723,50.7655922 77.7305466,52.6572053 78.65,54.2763158 C76.4670739,54.3537903 74.390269,53.3457286 73.12,51.5921053 L73.05,51.5328947 L72.95,51.4440789 C72.9061218,51.4184555 72.8590631,51.3985529 72.81,51.3848684 L72.73,51.3848684 C72.73,51.3848684 72.73,51.3848684 72.73,51.3848684 L72.46,51.3848684 L72.34,51.3848684 L72.22,51.4440789 L72.22,51.4440789 C72.22,51.4440789 72.22,51.4440789 72.15,51.5230263 L72.07,51.6118421 C72.0426891,51.6558253 72.0192691,51.7020488 72,51.75 L72,51.8289474 C71.5736414,53.5450162 71.7317857,55.3518845 72.45,56.9703947 C71.13,57.0888158 69.16,57.0394737 68.19,56.1217105 C68.0612564,55.9838734 67.8799579,55.9054626 67.69,55.9054626 C67.5000421,55.9054626 67.3187436,55.9838734 67.19,56.1217105 C67.0530356,56.2502497 66.9754997,56.4286077 66.9754997,56.6151316 C66.9754997,56.8016554 67.0530356,56.9800134 67.19,57.1085526 C68.3830572,58.021248 69.8737771,58.4706548 71.38,58.3717105 C72.1278751,58.3731254 72.8743152,58.3070609 73.61,58.1743421 L73.61,58.1743421 L73.77,58.1052632 L73.84,58.1052632 L73.84,58.1052632 L73.84,58.1052632 C73.89757,58.0601693 73.9481102,58.006969 73.99,57.9473684 L73.99,57.8684211 C74.0203418,57.8166432 74.0406861,57.7597596 74.05,57.7006579 C74.0549288,57.667943 74.0549288,57.6346886 74.05,57.6019737 C74.0599664,57.5531217 74.0599664,57.5027994 74.05,57.4539474 L74.05,57.4539474 L74.05,57.3651316 C74.0273854,57.3105938 74.0006432,57.2578131 73.97,57.2072368 L73.97,57.2072368 C73.2967421,56.1279021 72.9755997,54.8705691 73.05,53.6052632 C74.4761754,54.9463547 76.3700307,55.6953424 78.34,55.6973684 C78.9090646,55.7049052 79.4768371,55.6419126 80.03,55.5098684 L80.03,55.5098684 C80.0758926,55.4961414 80.1196406,55.4762157 80.16,55.4506579 L80.27,55.3717105 L80.27,55.3717105 C80.2888872,55.3468294 80.3056132,55.32042 80.32,55.2927632 C80.352207,55.2608897 80.3791961,55.224268 80.4,55.1842105 C80.4043442,55.1415548 80.4043442,55.0985768 80.4,55.0559211 C80.4048174,55.0165905 80.4048174,54.9768305 80.4,54.9375 C80.4099664,54.888648 80.4099664,54.8383257 80.4,54.7894737 C80.4048892,54.7633791 80.4048892,54.7366209 80.4,54.7105263 L80.4,54.7105263 L80.33,54.5723684 L80.37,54.2763158 L80.37,54.2763158 C79.5021062,53.2397497 79.0407194,51.9298411 79.07,50.5855263 C80.6553,51.9219158 82.6750784,52.6505381 84.76,52.6381579 C86.1341378,52.6490154 87.4957968,52.3802669 88.76,51.8486842 L88.76,51.8486842 L88.76,51.8486842 C88.8342573,51.8061261 88.8989144,51.7490362 88.95,51.6809211 L88.95,51.6809211 C88.95,51.6809211 88.95,51.6315789 88.95,51.6118421 C88.9540912,51.5691742 88.9540912,51.5262205 88.95,51.4835526 C88.95,51.4835526 88.95,51.4046053 88.95,51.3552632 C88.9545556,51.3126182 88.9545556,51.2696187 88.95,51.2269737 C88.9556573,51.1843927 88.9556573,51.1412652 88.95,51.0986842 C88.95,51.0986842 88.95,51.0986842 88.95,51.0197368 L88.95,51.0197368 L88.87,50.9210526 C88.8385212,50.8829325 88.8014449,50.8496702 88.76,50.8223684 L88.76,50.8223684 C87.3043242,49.8066987 86.0330849,48.5555228 85,47.1217105 C86.35207,47.6292202 87.7835883,47.8997339 89.23,47.9210526 C91.5273811,47.9951205 93.7422282,47.0717866 95.29,45.3947368 L95.29,45.3947368 C95.324512,45.3463459 95.3514783,45.293123 95.37,45.2368421 C95.37,45.2368421 95.37,45.2368421 95.37,45.1578947 L95.37,45.1578947 L95.37,45.0592105 C95.3750126,45.0099924 95.3750126,44.9604023 95.37,44.9111842 C95.37,44.8618421 95.37,44.8223684 95.37,44.7828947 L95.37,44.6644737 L95.27,44.5460526 L95.2,44.4769737 L95.2,44.4769737 L95,44.4078947 C94.9668863,44.4025542 94.9331137,44.4025542 94.9,44.4078947 L94.9,44.4078947 C92.2719676,43.8100772 89.7684392,42.7684241 87.5,41.3289474 C90.36,41.2203947 95.5,40.5 97.24,36.7894737 C97.2501988,36.7473027 97.2501988,36.7033552 97.24,36.6611842 C97.2500129,36.6156616 97.2500129,36.5685489 97.24,36.5230263 C97.24,36.5230263 97.24,36.5230263 97.24,36.5230263 L97.24,36.4539474 C97.2444243,36.4079982 97.2444243,36.3617386 97.24,36.3157895 C97.2225292,36.2792023 97.1988556,36.2458279 97.17,36.2171053 C97.148573,36.1774812 97.1176813,36.1436088 97.08,36.1184211 C97.0480026,36.0835931 97.0109296,36.0536598 96.97,36.0296053 L96.91,36.0296053 L96.91,36.0296053 C96.8604474,36.0202708 96.8095526,36.0202708 96.76,36.0296053 L96.63,36.0296053 C96.63,36.0296053 96.63,36.0296053 96.63,36.0296053 C93.5483945,36.333973 90.4370618,36.1372811 87.42,35.4473684 C96.86,34.1151316 99.6,28.1348684 99.72,27.8585526 Z" id="Path" fill="#2969F6"></path>
                <path d="M46.25,24.671061 L46.32,24.671061 C46.6534382,24.6722306 46.974974,24.5488342 47.22,24.3256579 C47.6536987,24.0286601 47.8740606,23.5108214 47.7852731,22.9972966 C47.6964856,22.4837718 47.31459,22.0673401 46.8056334,21.9290649 C46.2966768,21.7907897 45.7526133,21.9556534 45.41,22.3519737 C45.1401714,22.5882155 44.9809944,22.9238012 44.97,23.2796053 C44.9415183,24.0100085 45.5105607,24.6285965 46.25,24.671061 L46.25,24.671061 Z" id="Path" fill="#A8C5DD"></path>
                <path d="M52.68,25.1447452 L52.75,25.1447452 C53.0834382,25.1459148 53.404974,25.0225184 53.65,24.7993421 C53.9142711,24.5590447 54.0722899,24.225901 54.09,23.8717105 L54.09,23.8717105 C54.1297776,23.1337814 53.5575903,22.502952 52.81,22.4605263 C52.4433754,22.4397692 52.0834872,22.5640727 51.81,22.8059211 C51.5401714,23.0421629 51.3809944,23.3777485 51.37,23.7335526 C51.3510035,24.092899 51.4790262,24.4447224 51.7253324,24.7100533 C51.9716387,24.9753842 52.3155958,25.1319963 52.68,25.1447452 L52.68,25.1447452 Z" id="Path" fill="#A8C5DD"></path>
                <path d="M55.32,28.3914474 C55.4822611,28.2890378 55.5945929,28.1251743 55.6305453,27.9384411 C55.6664977,27.7517078 55.6228935,27.5586063 55.51,27.4046053 C55.4065869,27.2436739 55.2395699,27.1328703 55.049522,27.0991118 C54.8594741,27.0653533 54.6637876,27.1117293 54.51,27.2269737 C51.7400224,29.3028752 47.9282369,29.3746773 45.08,27.4046053 C44.7757655,27.2249807 44.3834853,27.2981773 44.1667104,27.5750184 C43.9499355,27.8518594 43.9771199,28.2449229 44.23,28.4901316 C45.8246308,29.5831808 47.7184437,30.1717277 49.66,30.1776316 C51.6877029,30.1695158 53.663772,29.5459074 55.32,28.3914474 Z" id="Path" fill="#A8C5DD"></path>
                <path d="M68.5,65.6644737 C68.5,38.7138158 65.32,36.9868421 64.06,36.3059211 C63.38,35.9210526 58.06,34.6184211 55.13,33.9375 C57.1372444,32.9196898 58.8220536,31.3765408 60,29.4769737 L60.22,29.0625 L59.92,28.7072368 L59.92,28.7072368 L59.92,28.7072368 L59.79,28.6184211 L59.79,28.6184211 C59.47,28.125 58.57,26.4276316 58.53,23.0131579 L58.53,23.0131579 C58.53,22.8552632 58.53,22.6973684 58.53,22.5394737 C59.47,21.9177632 61.98,20.0131579 62.38,17.0230263 C62.4387756,16.6609439 62.4622163,16.2941321 62.45,15.9276316 C62.45,15.8388158 62.45,15.7401316 62.45,15.6315789 C62.4453215,15.6121121 62.4453215,15.5918353 62.45,15.5723684 L62.45,15.5723684 C62.3232505,13.9429686 61.6634621,12.398321 60.57,11.1710526 C59.3007901,9.83628296 57.6804123,8.87616538 55.89,8.39802632 C54.1943328,7.77662443 52.385122,7.51436149 50.58,7.62828947 L50.58,7.62828947 C49.79,7.62828947 43.81,7.62828947 42.29,10.6776316 C41.1758502,10.3592804 39.979463,10.4869177 38.96,11.0328947 C38.6579096,11.2324096 38.3938618,11.4829611 38.18,11.7730263 C37.5979738,12.5140633 37.2940743,13.4312019 37.32,14.3684211 C37.1436993,16.3846578 37.6425391,18.4022964 38.74,20.1118421 C39.1754696,20.9009551 39.9202398,21.4789417 40.8,21.7105263 L40.86,21.7105263 C40.86,21.8289474 40.86,21.9671053 40.86,22.0855263 L40.86,22.0855263 C40.6987234,23.2412838 40.4103561,24.3762669 40,25.4703947 C39.9807482,25.5087564 39.9640463,25.5483137 39.95,25.5888158 L39.84,25.8453947 L39.64,26.2203947 L39.64,26.2203947 C39.5904442,26.3071906 39.533577,26.3897184 39.47,26.4671053 L39.37,26.5855263 L39.26,26.6940789 C39.1927732,26.7616141 39.1151481,26.8182343 39.03,26.8618421 L39.03,26.8618421 L38.33,27.2171053 L38.77,27.8585526 C40.4066421,30.214574 42.5003294,32.227047 44.93,33.7796053 C42.14,34.4407895 36.38,35.8322368 35.6,36.2664474 C34.3,36.7796053 31.25,37.9934211 31.25,65.5065789 C31.0598743,67.6931853 31.7334662,69.8676972 33.13,71.5756579 C34.573539,73.1133581 36.5959775,73.9952354 38.72,74.0134732 L38.72,74.0134732 L61,74.0134732 L61,74.0134732 C63.1308774,74.0322643 65.1752284,73.1824351 66.65,71.6644737 C68.0305519,69.9762548 68.6937301,67.8254065 68.5,65.6644737 L68.5,65.6644737 Z M59.5,18.1085526 C59.8388707,17.9368737 59.9800777,17.5318906 59.82,17.1907895 C59.7382179,17.0254986 59.5930113,16.8992214 59.4165613,16.8399437 C59.2401112,16.780666 59.0469909,16.7932835 58.88,16.875 C58.6390726,16.9871166 58.3920262,17.0859528 58.14,17.1710526 L58.07,17.1710526 C55.1469741,18.113169 52.0683607,18.4950257 49,18.2960526 C49,18.2960526 45.61,18.1282895 41.48,14.8717105 C41.2883226,14.6914897 41.0100144,14.633405 40.7608107,14.721611 C40.511607,14.8098171 40.3341525,15.0292197 40.3022422,15.2885798 C40.2703319,15.5479398 40.3894265,15.8028745 40.61,15.9473684 L41.21,16.4013158 C41.2051833,16.4472458 41.2051833,16.4935437 41.21,16.5394737 C41.21,17.6743421 41.21,18.9769737 41.07,20.2697368 C40.6412367,20.0361574 40.2665846,19.7168516 39.97,19.3322368 C39.2131064,17.7726286 38.7877094,16.076638 38.72,14.3486842 L38.72,14.3486842 C38.7317508,13.7341004 38.9114039,13.1340443 39.24,12.6118421 C39.3061644,12.5235769 39.3834531,12.4439889 39.47,12.375 C40.11,11.8519737 41.17,11.7631579 42.61,12.1282895 L43.28,12.3848684 L43.49,11.6546053 C43.96,9.96710526 46.76,9.26644737 48.88,9.02960526 C49.55,8.97039474 50.14,8.94078947 50.57,8.93092105 L50.57,8.93092105 C52.2096683,8.95040894 53.8398819,9.17928456 55.42,9.61184211 C58.1113526,10.6706174 60.1659835,12.8835317 61,15.6217105 C61,15.9868421 61,16.2434211 61,16.2631579 C60.982292,16.5954771 60.9354503,16.9256583 60.86,17.25 C60.4016161,18.5303749 59.6163203,19.6724255 58.58,20.5657895 C58.65,19.8947368 58.75,19.1644737 58.88,18.3947368 L59.5,18.1085526 Z M40.3,27.6315789 C40.9234452,26.918878 41.3656768,26.0697337 41.59,25.1546053 L41.71,24.7302632 L41.8,24.4046053 C42.3036905,22.0658181 42.5517755,19.6804697 42.54,17.2894737 C44.4392329,18.5628932 46.6202108,19.3683065 48.9,19.6381579 C49.47,19.6381579 50.03,19.6381579 50.56,19.6381579 C52.8827612,19.6601303 55.1976212,19.3679394 57.44,18.7697368 C57.29,19.8059211 57.2,20.7434211 57.16,21.6217105 L57.16,21.6217105 L57.16,21.9671053 C57.1549951,22.0459754 57.1549951,22.1250772 57.16,22.2039474 C57.16,22.5690789 57.16,22.9144737 57.16,23.25 C57.16,23.4078947 57.16,23.5657895 57.16,23.7138158 C57.16,23.8618421 57.16,24.2171053 57.21,24.4440789 C57.26,24.6710526 57.21,24.7401316 57.21,24.8782895 C57.21,25.0164474 57.27,25.3322368 57.31,25.5394737 C57.35,25.7467105 57.31,25.7664474 57.31,25.8651316 C57.37,26.1710526 57.43,26.4473684 57.49,26.7138158 L57.49,26.7138158 C57.56,26.9901316 57.63,27.2368421 57.71,27.4736842 L57.77,27.6217105 C57.83,27.7993421 57.89,27.9572368 57.95,28.1052632 L58.01,28.2434211 C58.07,28.3815789 58.13,28.5197368 58.19,28.6381579 L58.19,28.7171053 C58.26,28.8552632 58.33,28.9736842 58.39,29.0723684 C56.4129153,32.0512502 52.9954531,33.7862118 49.39,33.6414474 L48.52,33.6414474 C45,33.5526316 41.44,29.1809211 40.3,27.6315789 Z M48.62,35.0328947 L49.49,35.0328947 L50.11,35.0328947 C51.148309,35.0324362 52.1815191,34.8896237 53.18,34.6085526 C53.2825732,34.7550746 53.4352422,34.8601864 53.61,34.9046053 L55.5,35.3486842 C53.8491242,36.7516484 51.7385944,37.5160282 49.56,37.5 C47.5854379,37.3650827 45.7051976,36.6152808 44.19,35.3585526 L46.13,34.9046053 C46.3285771,34.8569876 46.4942759,34.722539 46.58,34.5394737 C47.2308262,34.8101521 47.9179672,34.9863251 48.62,35.0625 L48.62,35.0328947 Z M61.05,72.6118421 L61.84,44.0921053 C61.8481116,43.9098177 61.7817487,43.7319439 61.6557918,43.5983683 C61.529835,43.4647927 61.3548234,43.3866921 61.17,43.3815789 L61.17,43.3815789 C60.7910784,43.3814263 60.4808263,43.6788484 60.47,44.0526316 L59.68,72.6710526 L40.08,72.6710526 L39.28,44.0526316 C39.2800197,43.8729343 39.207006,43.7007367 39.0773102,43.5746023 C38.9476144,43.448468 38.7720736,43.3789363 38.59,43.3815789 L38.59,43.3815789 C38.4043231,43.3867393 38.2283377,43.4645161 38.100797,43.5977823 C37.9732563,43.7310485 37.9046192,43.9088757 37.91,44.0921053 L38.7,72.6118421 C37.0011742,72.6118275 35.373191,71.940057 34.18,70.7467105 C33.0374991,69.3043141 32.490847,67.4884869 32.65,65.6644737 C32.65,48.2269737 33.85,38.5263158 36.13,37.6184211 C36.2208515,37.5885917 36.3080553,37.5488734 36.39,37.5 C36.79,37.2927632 39.46,36.6019737 42.56,35.8519737 C44.4464705,37.6738113 46.9271716,38.7754384 49.56,38.9605263 L49.94,38.9605263 C52.6867962,38.8669137 55.295463,37.7490144 57.24,35.8322368 C60.34,36.5822368 63.04,37.2828947 63.43,37.4802632 L63.52,37.5394737 C64.89,38.2697368 67.18,42.9078947 67.18,65.7335526 C67.3298464,67.5046823 66.7978277,69.266489 65.69,70.6677632 C64.4800077,71.9178363 62.8017499,72.620997 61.05,72.6118421 Z" id="Shape" fill="#A8C5DD"></path>
                <path d="M50.76,5.12171053 C49.02,5.12171053 40.33,4.99342105 40.33,2.55592105 C40.33,0.118421053 49,0 50.76,0 C52.52,0 61.2,0.128289474 61.2,2.55592105 C61.2,4.98355263 52.51,5.12171053 50.76,5.12171053 Z M41.85,2.55592105 C42.64,3.02960526 45.66,3.74013158 50.76,3.74013158 C55.86,3.74013158 58.89,3.02960526 59.67,2.55592105 C58.89,2.09210526 55.86,1.37171053 50.76,1.37171053 C45.66,1.37171053 42.64,2.09210526 41.85,2.55592105 L41.85,2.55592105 Z" id="Shape" fill="#032663"></path>
            </g>
        </g>
    </g>
</svg>