<svg width="100" height="75" xmlns="http://www.w3.org/2000/svg"><g fill-rule="nonzero" fill="none"><path d="M39.86 35.003s-5-.987-13.54-6.908C17.32 21.82 5.37 25.234.67 27l-.67.207.28.652c.12.276 2.87 6.256 12.41 7.352-3.016.694-6.13.888-9.21.572h-.37L3 35.9l-.09.06a.574.574 0 00-.1.118l-.06.089a.72.72 0 000 .138v.069a.321.321 0 000 .138.302.302 0 000 .128c1.7 3.711 6.88 4.431 9.74 4.54a23.556 23.556 0 01-7.38 3.227.851.851 0 00-.11 0h-.11a.268.268 0 00-.07.079.516.516 0 00-.1.108v.247a.73.73 0 000 .148v.178a.585.585 0 00-.02.227 7.902 7.902 0 006.05 2.487c1.45-.007 2.89-.264 4.25-.76a15.733 15.733 0 01-3.75 3.523l-.09.089a.534.534 0 00-.09.118.623.623 0 010 .07.78.78 0 000 .147.477.477 0 000 .118v.129a.49.49 0 00.05.128v.07c.048.07.114.127.19.167h.05c1.249.525 2.593.794 3.95.79A8.755 8.755 0 0021 50.565a5.6 5.6 0 01-1.35 3.71.355.355 0 00-.07.099.53.53 0 00-.07.128v.09a.312.312 0 000 .137.487.487 0 000 .119.487.487 0 000 .128l.08.118v.07l.11.078c.04.026.084.046.13.06.55.131 1.114.194 1.68.187a7.735 7.735 0 005.3-2.092 6.12 6.12 0 01-.81 3.69v.06a.383.383 0 00-.06.109.682.682 0 000 .138v.256c.012.041.03.081.05.119a.334.334 0 00.06.118l.09.099.06.05h.84c1.19 0 3.9-.178 5.45-1.639a.675.675 0 00-.27-1.163.696.696 0 00-.68.176 6.448 6.448 0 01-3.89 1.234 8.002 8.002 0 00.38-4.994v-.079a.893.893 0 00-.07-.138.407.407 0 00-.09-.098l-.06-.07-.13.05h-.46l-.14.059-.1.089-.07.059a6.539 6.539 0 01-5.56 2.753 7.688 7.688 0 00.86-5.26v-.088s0-.08-.05-.129l-.1-.118v-.06a.532.532 0 00-.15-.078h-.08a.344.344 0 00-.14 0 .669.669 0 00-.14 0h-.09a.355.355 0 00-.13 0l-.11.079a.2.2 0 00-.07.059c-1.952 2.289-5.091 3.222-8 2.378a15.583 15.583 0 004.28-5.072v-.138a.487.487 0 000-.119.672.672 0 000-.128.633.633 0 000-.128l-.05-.06a.475.475 0 00-.09-.108l-.11-.079H16.43c-5.26 2.447-8.43 1.155-9.78.168 2-.563 5.88-1.905 8.24-4.313a.592.592 0 00.09-.128.302.302 0 000-.099.195.195 0 000-.108.38.38 0 000-.148V40.5a.974.974 0 000-.138.614.614 0 00-.51-.326h-.11s-6.88.415-9.61-2.664h1.78c2.7 0 6.58-.336 9.54-1.974h.07l.07-.06.11-.088a.404.404 0 00.07-.109l.06-.108v-.138-.217a.633.633 0 000-.129l-.06-.059-.09-.108-.11-.07-.19-.217a.588.588 0 00-.14 0h-.08C6.59 34.046 3 29.605 1.89 27.957c4.91-1.727 15.58-4.391 23.64 1.204 8.82 6.138 13.86 7.135 14.08 7.175h.12a.686.686 0 00.655-.616.682.682 0 00-.525-.727v.01zM99.72 27.859l.28-.652-.67-.246c-4.7-1.767-16.62-5.181-25.65 1.095-8.54 5.921-13.5 6.908-13.54 6.908a.682.682 0 00-.525.727c.033.337.312.6.655.615h.12c.22 0 5.26-.987 14.08-7.174 8.06-5.596 18.71-2.96 23.63-1.204-1.1 1.677-4.77 6.118-13.9 6.118h-.07a.456.456 0 00-.16 0l-.1.05-.12.078-.09.099-.06.07c-.06.068 0 0 0 0a.487.487 0 000 .127v.356l.06.108c.017.04.04.076.07.109l.11.089.07.059h.07c3 1.608 6.84 1.973 9.54 1.973h1.78c-2.73 3.08-9.54 2.665-9.61 2.665a.517.517 0 00-.21 0 .392.392 0 00-.11.06l-.13.078v.06a.394.394 0 00-.1.147.545.545 0 000 .119.438.438 0 010 .108.38.38 0 000 .148.195.195 0 000 .109c.01.036.027.069.05.099.024.046.054.09.09.128 2.36 2.408 6.24 3.74 8.23 4.303-1.4.986-4.54 2.289-9.75-.336H83.17l-.11.089a.475.475 0 00-.09.108v.06a.633.633 0 000 .128.419.419 0 000 .256v.129a15.622 15.622 0 004.27 5.062c-2.907.836-6.04-.092-8-2.368l-.07-.06-.11-.078-.14-.06h-.08a.334.334 0 00-.14 0 .273.273 0 00-.13 0h-.1l-.47.435-.05.059-.09.118c0 .05 0 .09-.05.129v.088a7.639 7.639 0 00.84 5.33 6.54 6.54 0 01-5.53-2.685l-.07-.06-.1-.088a.594.594 0 00-.14-.06H72.34l-.12.06-.07.079-.08.089a.893.893 0 00-.07.138v.079a7.945 7.945 0 00.45 5.141c-1.32.119-3.29.07-4.26-.848a.684.684 0 00-1 0 .677.677 0 000 .987 6.227 6.227 0 004.19 1.263c.748.001 1.494-.065 2.23-.198l.16-.069h.07a.744.744 0 00.15-.158v-.079a.48.48 0 00.06-.167.331.331 0 000-.099.37.37 0 000-.148v-.089a1.168 1.168 0 00-.08-.158 6.124 6.124 0 01-.92-3.602 7.735 7.735 0 005.29 2.092 6.887 6.887 0 001.69-.187.523.523 0 00.13-.06l.11-.078a.552.552 0 00.05-.08.435.435 0 00.08-.108.633.633 0 000-.128.487.487 0 000-.118.37.37 0 000-.149.214.214 0 000-.078l-.07-.139.04-.296a5.56 5.56 0 01-1.3-3.69 8.75 8.75 0 005.69 2.052c1.374.011 2.736-.258 4-.79a.627.627 0 00.19-.167v-.07a.672.672 0 000-.127v-.129a.604.604 0 000-.128.487.487 0 000-.128v-.08l-.08-.098a.498.498 0 00-.11-.099 15.718 15.718 0 01-3.76-3.7c1.352.507 2.784.778 4.23.8a7.9 7.9 0 006.06-2.527.59.59 0 00.08-.158v-.178a.73.73 0 000-.148v-.247l-.1-.118-.07-.069-.2-.07a.314.314 0 00-.1 0 23.569 23.569 0 01-7.4-3.078c2.86-.109 8-.829 9.74-4.54a.273.273 0 000-.128.321.321 0 000-.138v-.07a.72.72 0 000-.137.355.355 0 00-.07-.099.278.278 0 00-.09-.099.479.479 0 00-.11-.088h-.06a.405.405 0 00-.15 0h-.13a28.678 28.678 0 01-9.21-.583c9.44-1.332 12.18-7.312 12.3-7.588z" fill="#2969F6"/><path d="M46.25 24.671h.07a1.33 1.33 0 00.9-.345 1.334 1.334 0 00-.414-2.397 1.371 1.371 0 00-1.396.423c-.27.236-.429.572-.44.928a1.35 1.35 0 001.28 1.391zM52.68 25.145h.07a1.33 1.33 0 00.9-.346c.264-.24.422-.573.44-.927a1.349 1.349 0 00-1.28-1.411 1.391 1.391 0 00-1 .345c-.27.236-.429.572-.44.928-.019.359.109.71.355.976.247.265.59.422.955.435zM55.32 28.391a.684.684 0 00.19-.987.697.697 0 00-1-.178 8.086 8.086 0 01-9.43.179.706.706 0 00-.913.17.684.684 0 00.063.915 9.659 9.659 0 005.43 1.688 9.97 9.97 0 005.66-1.787z" fill="#A8C5DD"/><path d="M68.5 65.664c0-26.95-3.18-28.677-4.44-29.358-.68-.385-6-1.688-8.93-2.368A12.238 12.238 0 0060 29.477l.22-.415-.3-.355-.13-.089c-.32-.493-1.22-2.19-1.26-5.605v-.474c.94-.621 3.45-2.526 3.85-5.516a5.66 5.66 0 00.07-1.095v-.296a.127.127 0 010-.06 7.49 7.49 0 00-1.88-4.4 10.026 10.026 0 00-4.68-2.774 13.047 13.047 0 00-5.31-.77c-.79 0-6.77 0-8.29 3.05a4.462 4.462 0 00-3.33.355c-.302.2-.566.45-.78.74a4.02 4.02 0 00-.86 2.595 9.151 9.151 0 001.42 5.744 3.313 3.313 0 002.06 1.599h.06v.375A15.893 15.893 0 0140 25.47a.98.98 0 00-.05.119l-.11.256-.2.375c-.05.087-.106.17-.17.247l-.1.119-.11.108a.91.91 0 01-.23.168l-.7.355.44.642a21.77 21.77 0 006.16 5.92c-2.79.662-8.55 2.053-9.33 2.487-1.3.514-4.35 1.727-4.35 29.24a8.43 8.43 0 001.88 6.07 7.759 7.759 0 005.59 2.437H61a7.782 7.782 0 005.65-2.349 8.303 8.303 0 001.85-6zm-9-47.555a.696.696 0 00.32-.918.709.709 0 00-.94-.316c-.24.112-.488.211-.74.296h-.07A24.421 24.421 0 0149 18.296s-3.39-.168-7.52-3.424a.707.707 0 00-.72-.15.687.687 0 00-.15 1.226l.6.453a.662.662 0 000 .138c0 1.135 0 2.438-.14 3.73a3.507 3.507 0 01-1.1-.937 12.536 12.536 0 01-1.25-4.983 3.382 3.382 0 01.52-1.737 1.3 1.3 0 01.23-.237c.64-.523 1.7-.612 3.14-.247l.67.257.21-.73c.47-1.688 3.27-2.389 5.39-2.625.67-.06 1.26-.09 1.69-.1 1.64.02 3.27.25 4.85.682a9.423 9.423 0 015.58 6.01v.641a5.692 5.692 0 01-.14.987 7.891 7.891 0 01-2.28 3.316c.07-.671.17-1.402.3-2.171l.62-.286zm-19.2 9.523a5.894 5.894 0 001.29-2.477l.12-.425.09-.325a33.02 33.02 0 00.74-7.116 14.477 14.477 0 006.36 2.35h1.66a25.75 25.75 0 006.88-.87 29.068 29.068 0 00-.28 2.853v.345a1.87 1.87 0 000 .237v1.51c0 .148 0 .503.05.73.05.227 0 .296 0 .434s.06.454.1.661c.04.208 0 .227 0 .326.06.306.12.582.18.849.07.276.14.523.22.76l.06.148c.06.177.12.335.18.483l.06.138c.06.139.12.277.18.395v.08c.07.137.14.256.2.354-1.977 2.98-5.395 4.714-9 4.57h-.87c-3.52-.09-7.08-4.461-8.22-6.01zm8.32 7.4h1.49a11.35 11.35 0 003.07-.423.75.75 0 00.43.296l1.89.444a9.072 9.072 0 01-5.94 2.151 9.418 9.418 0 01-5.37-2.141l1.94-.454a.668.668 0 00.45-.366c.65.271 1.338.447 2.04.523v-.03zm12.43 37.58l.79-28.52a.676.676 0 00-.184-.494.694.694 0 00-.486-.216.696.696 0 00-.7.67l-.79 28.62h-19.6l-.8-28.62a.667.667 0 00-.203-.477.685.685 0 00-.487-.193.704.704 0 00-.49.216.686.686 0 00-.19.494l.79 28.52a6.393 6.393 0 01-4.52-1.865 7.177 7.177 0 01-1.53-5.083c0-17.437 1.2-27.138 3.48-28.046.09-.03.178-.07.26-.118.4-.207 3.07-.898 6.17-1.648a11.208 11.208 0 007 3.109h.38a10.93 10.93 0 007.3-3.129c3.1.75 5.8 1.45 6.19 1.648l.09.06c1.37.73 3.66 5.368 3.66 28.194a7.001 7.001 0 01-1.49 4.934 6.411 6.411 0 01-4.64 1.944z" fill="#A8C5DD"/><path d="M50.76 5.122c-1.74 0-10.43-.129-10.43-2.566C40.33.118 49 0 50.76 0 52.52 0 61.2.128 61.2 2.556s-8.69 2.566-10.44 2.566zm-8.91-2.566c.79.474 3.81 1.184 8.91 1.184s8.13-.71 8.91-1.184c-.78-.464-3.81-1.184-8.91-1.184s-8.12.72-8.91 1.184z" fill="#032663"/></g></svg>