<?xml version="1.0" encoding="UTF-8"?>
<svg width="100px" height="74px" viewBox="0 0 100 74" version="1.1" xmlns="http://www.w3.org/2000/svg" xmlns:xlink="http://www.w3.org/1999/xlink">
    <!-- Generator: sketchtool 59 (101010) - https://sketch.com -->
    <title>06E44D0D-EF0F-4FE5-ABB4-1818483AD919</title>
    <desc>Created with sketchtool.</desc>
    <g id="Page-1" stroke="none" stroke-width="1" fill="none" fill-rule="evenodd">
        <g id="Icons" transform="translate(-134.000000, -2931.000000)" fill-rule="nonzero">
            <g id="mid-icon-architecture" transform="translate(134.000000, 2930.000000)">
                <path d="M53.11,5.11363636 L52.72,1.57792208 C52.6606785,1.21990463 52.3240102,0.969763928 51.9538386,1.00867293 C51.583667,1.04758194 51.3095385,1.36192393 51.33,1.72402597 L51.7,5.11363636 L48.36,5.11363636 L48.73,1.72402597 C48.7708693,1.35031576 48.4935618,1.01486315 48.11,0.974025974 C47.7279789,0.939631861 47.3870031,1.20705259 47.34,1.57792208 L47,5.11363636 L0,5.11363636 L0,62.5811688 L40.68,62.5811688 L39.51,73.2954545 C39.4691307,73.6691648 39.7464382,74.0046174 40.13,74.0454694 L40.2,74.0454694 C40.557397,74.0477346 40.8591614,73.7873998 40.9,73.4415584 L42.08,62.5616883 L49.35,62.5616883 C49.3180467,62.6425479 49.3011163,62.7282993 49.3,62.8149351 L49.3,70.5097403 C49.3,70.886298 49.6134007,71.1915584 50,71.1915584 C50.3865993,71.1915584 50.7,70.886298 50.7,70.5097403 L50.7,62.8149351 C50.6988837,62.7282993 50.6819533,62.6425479 50.65,62.5616883 L58,62.5616883 L59.19,73.4415584 C59.2303997,73.7837086 59.5264209,74.0427899 59.88,74.0454694 L59.96,74.0454694 C60.3407593,73.9996723 60.6153113,73.667553 60.58,73.2954545 L59.41,62.5811688 L100,62.5811688 L100,5.11363636 L53.11,5.11363636 Z M98.6,6.46753247 L98.6,57.5941558 L1.4,57.5941558 L1.4,6.46753247 L98.6,6.46753247 Z M1.4,61.1883117 L1.4,58.9480519 L98.6,58.9480519 L98.6,61.1883117 L1.4,61.1883117 Z" id="Shape" fill="#A8C5DD"></path>
                <path d="M8.93,51.2142857 L9.24,50.2987013 C11,45.0194805 10.24,14.0357143 10.19,13.724026 L10.19,13.0519481 L39.39,12.3214286 L39.39,13.0227273 C39.39,13.2662338 39.33,37.6168831 41.39,49.5876623 L41.52,50.3474026 L22.31,50.9318182 L8.93,51.2142857 Z M11.6,14.3668831 C11.71,18.8571429 12.22,43.0422078 10.8,49.8116883 L22.21,49.5779221 L39.82,49.0422078 C38.09,37.9285714 38,17.7175325 38,13.7142857 L11.6,14.3668831 Z" id="Shape" fill="#032663"></path>
                <path d="M85,29.8246753 C85.131913,29.4389909 85.131913,29.022048 85,28.6363636 C84.6559257,27.5746394 83.8984568,26.6864888 82.89,26.1623377 L82.89,26.1623377 C81.2,25.1883117 79.36,25.1883117 78.51,26.0746753 L78.44,26.0746753 L78.32,26.25 L78.32,26.25 L78.04,26.6785714 C78.04,26.6785714 78.04,26.6785714 78.04,26.6785714 L66.43,44.4058442 L66.43,44.4058442 L66.32,44.5811688 L66.5,51.1461039 L72.5,48.0974026 L72.5,48.0974026 L72.65,48.0194805 L72.75,47.8733766 L72.75,47.8733766 L84.75,30.0779221 L84.75,30.0779221 L84.88,29.8733766 L85,29.8246753 Z M72.33,46.1201299 L71.52,44.4253247 L82.71,27.711039 C83.1566879,28.2384737 83.4348245,28.8818903 83.51,29.5616883 L76.32,40.2077922 L72.33,46.1201299 Z M79.33,27.1850649 C80.0213292,26.9707533 80.7558973,26.9239457 81.47,27.0487013 L70.33,43.7337662 L68.33,43.9480519 L79.33,27.1850649 Z M67.72,45.3701299 L70.32,45.0876623 L71.32,47.2012987 L67.82,48.974026 L67.72,45.3701299 Z" id="Shape" fill="#2969F6"></path>
                <path d="M64,50.9220779 L64,50.9220779 L46.76,50.7662338 L46.86,50.0064935 C46.86,49.9188312 48.14,40.538961 48.19,12.9935065 L48.19,12.3214286 L72.79,12.3214286 C73.0582053,12.2900361 73.3210199,12.4117627 73.4653037,12.6342056 C73.6095874,12.8566486 73.6095874,13.1401047 73.4653037,13.3625476 C73.3210199,13.5849906 73.0582053,13.7067171 72.79,13.6753247 L49.62,13.6753247 C49.56,36.525974 48.62,46.7142857 48.37,49.4123377 L64,49.5584416 C64.3842901,49.5689896 64.6901526,49.8755429 64.69,50.25 C64.69,50.6211784 64.3810765,50.9220779 64,50.9220779 Z" id="Path" fill="#032663"></path>
                <path d="M14.75,28.4220779 L14.47,17.7662338 L35.31,17.25 L35.59,27.8961039 L14.75,28.4220779 Z M15.9,19.0909091 L16.11,27.0292208 L34.11,26.5811688 L34,18.6331169 L15.9,19.0909091 Z" id="Shape" fill="#032663"></path>
                <line x1="28.88" y1="33.2045455" x2="21.99" y2="33.3701299" id="Path" fill="#FFFFFF"></line>
                <path d="M22,34.0909092 C21.6265993,34.0910619 21.3208232,33.8018609 21.31,33.4383117 C21.3046243,33.2609757 21.3725148,33.0889522 21.4984598,32.9607858 C21.6244047,32.8326193 21.7978743,32.7590252 21.98,32.7564935 L28.87,32.5811688 C29.2490444,32.5755565 29.5637972,32.864862 29.58,33.2337662 C29.5853757,33.4111022 29.5174852,33.5831257 29.3915402,33.7112922 C29.2655953,33.8394586 29.0921257,33.9130527 28.91,33.9155844 L22,34.0909092 Z" id="Path" fill="#2969F6"></path>
                <line x1="33.76" y1="37.3344156" x2="17.34" y2="37.7435065" id="Path" fill="#FFFFFF"></line>
                <path d="M17.33,38.4155844 C16.9583172,38.4156236 16.6554659,38.1249766 16.65,37.762987 C16.6446181,37.5847201 16.7122013,37.4116792 16.8378668,37.2819701 C16.9635324,37.1522611 17.1369748,37.0765209 17.32,37.0714286 L33.75,36.6623377 C34.1310765,36.6623377 34.44,36.9632372 34.44,37.3344156 C34.44,37.705594 34.1310765,38.0064935 33.75,38.0064935 L17.32,38.4155844 L17.33,38.4155844 Z" id="Path" fill="#2969F6"></path>
            </g>
        </g>
    </g>
</svg>