<svg width="100" height="74" xmlns="http://www.w3.org/2000/svg"><g fill-rule="nonzero" fill="none"><path d="M53.11 4.114L52.72.578a.697.697 0 00-.766-.57.687.687 0 00-.624.716l.37 3.39h-3.34l.37-3.39a.686.686 0 00-.62-.75.706.706 0 00-.77.604L47 4.114H0V61.58h40.68l-1.17 10.714c-.04.374.236.71.62.75h.07a.694.694 0 00.7-.603l1.18-10.88h7.27a.714.714 0 00-.05.253v7.695c0 .376.313.682.7.682.387 0 .7-.306.7-.682v-7.695a.714.714 0 00-.05-.253H58l1.19 10.88c.04.342.336.6.69.603h.08a.696.696 0 00.62-.75l-1.17-10.714H100V4.114H53.11zM98.6 5.468v51.126H1.4V5.468h97.2zM1.4 60.188v-2.24h97.2v2.24H1.4z" fill="#A8C5DD"/><path d="M8.93 50.214l.31-.915c1.76-5.28 1-36.263.95-36.575v-.672l29.2-.73v.7c0 .244-.06 24.595 2 36.566l.13.76-19.21.584-13.38.282zm2.67-36.847c.11 4.49.62 28.675-.8 35.445l11.41-.234 17.61-.536C38.09 36.93 38 16.718 38 12.714l-26.4.653z" fill="#032663"/><path d="M85 28.825a1.834 1.834 0 000-1.189 4.285 4.285 0 00-2.11-2.474c-1.69-.974-3.53-.974-4.38-.087h-.07l-.12.175-.28.429-11.61 17.727-.11.175.18 6.565 6-3.049.15-.078.1-.146 12-17.795.13-.205.12-.048zM72.33 45.12l-.81-1.695 11.19-16.714a3.45 3.45 0 01.8 1.85l-7.19 10.647-3.99 5.912zm7-18.935a4.574 4.574 0 012.14-.136L70.33 42.734l-2 .214 11-16.763zM67.72 44.37l2.6-.282 1 2.113-3.5 1.773-.1-3.604z" fill="#2969F6"/><path d="M64 49.922l-17.24-.156.1-.76c0-.087 1.28-9.467 1.33-37.012v-.673h24.6a.707.707 0 01.675.313.667.667 0 010 .729.707.707 0 01-.675.312H49.62c-.06 22.851-1 33.04-1.25 35.737l15.63.146a.7.7 0 01.69.692.681.681 0 01-.69.672zM14.75 27.422l-.28-10.656 20.84-.516.28 10.646-20.84.526zm1.15-9.331l.21 7.938 18-.448-.11-7.948-18.1.458z" fill="#032663"/><path fill="#FFF" d="M28.88 32.205l-6.89.165"/><path d="M22 33.09a.682.682 0 01-.69-.652.653.653 0 01.188-.477.689.689 0 01.482-.205l6.89-.175a.692.692 0 01.71.653.653.653 0 01-.188.477.689.689 0 01-.482.205L22 33.09z" fill="#2969F6"/><path fill="#FFF" d="M33.76 36.334l-16.42.41"/><path d="M17.33 37.416a.672.672 0 01-.68-.653.662.662 0 01.188-.481c.126-.13.299-.205.482-.21l16.43-.41c.381 0 .69.301.69.672a.681.681 0 01-.69.672l-16.43.41h.01z" fill="#2969F6"/></g></svg>