<svg xmlns="http://www.w3.org/2000/svg" width="100" height="75"><g fill="none" fill-rule="nonzero"><path fill="#A8C5DD" d="M63.73 27.14a6.26 6.26 0 00-1.65-4.68 5.34 5.34 0 00-3.48-1.45H42.02a5.64 5.64 0 00-4.43 1.68 5.75 5.75 0 00-1.24 4.2V68.6a4.94 4.94 0 004.9 5.42h17.17A4.92 4.92 0 0062 72.68a6.8 6.8 0 001.74-4.4V27.14zm-25.1-3.6a4.33 4.33 0 013.39-1.22h16.59a4 4 0 012.5 1.07 5 5 0 011.25 3.7c0 4.08-.1 29.07 0 37.98H37.74V26.64c-.11-1.1.2-2.21.86-3.1h.03zm22.39 48.18a3.57 3.57 0 01-2.6.97H41.25a3.64 3.64 0 01-3.57-4.06V66.5H62.3v1.8a5.46 5.46 0 01-1.29 3.42z"/><path fill="#A8C5DD" d="M51.81 68.83h-4.35c-.38 0-.69.31-.69.69 0 .37.31.68.7.68h4.35c.38 0 .69-.3.69-.68a.66.66 0 00-.7-.69zM28.43 7.14a6.23 6.23 0 00-1.66-4.68A5.25 5.25 0 0023.28.97H6.71a5.59 5.59 0 00-4.44 1.68 5.75 5.75 0 00-1.23 4.17L.98 45.78v2.72a5.3 5.3 0 001.45 3.97c.95.89 2.19 1.4 3.5 1.44h17.16a4.92 4.92 0 003.57-1.34 6.8 6.8 0 001.77-4.3V7.14zM3.31 3.54A4.31 4.31 0 016.7 2.33h16.6a4 4 0 012.5 1.06 5 5 0 011.25 3.7c0 4.08-.12 29.08 0 37.99H2.42V6.72c-.12-1.14.2-2.27.9-3.18zm22.43 48.18a3.57 3.57 0 01-2.6.97l-17.18-.1a4.02 4.02 0 01-2.52-.97A4.04 4.04 0 012.4 48.6v-2.1h24.64v1.81a5.46 5.46 0 01-1.3 3.41z"/><path fill="#A8C5DD" d="M16.53 48.84h-4.35c-.38 0-.69.3-.69.68 0 .37.3.67.68.67h4.36a.69.69 0 00.69-.68.67.67 0 00-.7-.67zM99.02 17.4a6.26 6.26 0 00-1.65-4.68 5.34 5.34 0 00-3.48-1.45H77.31a5.62 5.62 0 00-4.43 1.67 5.75 5.75 0 00-1.23 4.2V58.87a4.94 4.94 0 004.9 5.42h17.17a4.92 4.92 0 003.56-1.35 6.8 6.8 0 001.74-4.4V17.4zm-25.1-3.6a4.33 4.33 0 013.4-1.22H93.9a4 4 0 012.5 1.07 5 5 0 011.26 3.7c0 4.08-.12 29.07 0 37.98H73.03V16.9c-.1-1.1.23-2.22.92-3.1h-.03zm22.45 48.18a3.57 3.57 0 01-2.6.97H76.6a4.02 4.02 0 01-2.52-1.04 4.03 4.03 0 01-1.05-3.02v-2.13h24.64v1.8a5.46 5.46 0 01-1.3 3.42z"/><path fill="#A8C5DD" d="M87.17 59.1H82.8c-.38 0-.68.3-.68.68 0 .37.3.68.68.68h4.37c.38 0 .68-.3.68-.68a.66.66 0 00-.7-.69z"/><path fill="#032663" d="M80.07 23.6v-.13a.5.5 0 000-.12v-.13-.13l-.07-.11a.46.46 0 00-.06-.09l-3.82-4.14a.68.68 0 00-.98 0 .67.67 0 000 .97l2.8 3.03h-3.92a6.45 6.45 0 00-5.13 2.05c-2.22 2.47-1.8 6.37-1.72 6.89v7.57c0 2.7-.76 4.69-2.23 5.93a7.88 7.88 0 01-5.6 1.43.69.69 0 00-.78.56.67.67 0 00.57.77c.39.06.79.08 1.18.08 2 .06 3.95-.58 5.51-1.8 1.79-1.51 2.7-3.9 2.7-6.96v-7.72s-.51-3.75 1.4-5.93a5.2 5.2 0 014.1-1.58h3.85l-2.75 3.02a.69.69 0 000 .97c.13.1.29.17.46.17.2 0 .38-.07.5-.22l3.82-4.17v-.1a.36.36 0 00.17-.1zM44.05 47.73v-.13-.13-.12-.13a.36.36 0 00-.07-.12l-.05-.08-3.83-4.16a.7.7 0 00-1.2.48c0 .19.08.36.22.5l2.63 2.83H39.1a5.6 5.6 0 01-4.27-1.64c-2.07-2.2-1.84-5.92-1.84-6V31.4a8.38 8.38 0 00-2.32-6.24 9.56 9.56 0 00-6.28-2.5h-4.2a.69.69 0 00-.67.32.68.68 0 000 .73c.15.22.4.34.67.3h4.23c1.97.06 3.85.8 5.32 2.1a7.1 7.1 0 011.9 5.3v7.57c0 .18-.27 4.33 2.2 6.96a6.89 6.89 0 005.27 2.08h2.94l-2.94 3.22a.68.68 0 00-.11.73.67.67 0 001.12.18l3.81-4.17a.2.2 0 00.05-.09l.06-.16z"/><path fill="#2969F6" d="M54.36 52.72a5.53 5.53 0 01-5.45-5.47 5.5 5.5 0 015.51-5.47 5.5 5.5 0 015.42 6.44 5.48 5.48 0 01-5.48 4.5zm0-9.56a4.16 4.16 0 00-4.16 4.1 4.15 4.15 0 008.31.02c0-2.26-1.84-4.1-4.12-4.12h-.03zM15.35 28.71a5.5 5.5 0 01-5.5-5.46 5.5 5.5 0 015.51-5.47 5.5 5.5 0 015.42 6.44 5.47 5.47 0 01-5.43 4.5zm0-9.55a4.14 4.14 0 00-4.08 4.93 4.15 4.15 0 008.23-.81c0-2.27-1.84-4.11-4.13-4.12h-.02z"/></g></svg>