<svg width="100" height="75" xmlns="http://www.w3.org/2000/svg"><g fill-rule="nonzero" fill="none"><path d="M87.16 22.68a8.23 8.23 0 108.32 8.23 8.28 8.28 0 00-8.32-8.23zm0 15.07a6.84 6.84 0 116.92-6.84 6.89 6.89 0 01-6.92 6.84zM12.84 22.68a8.23 8.23 0 108.32 8.23 8.28 8.28 0 00-8.32-8.23zm0 15.07a6.84 6.84 0 116.92-6.84 6.89 6.89 0 01-6.92 6.84zM50 0a8.28 8.28 0 00-8.32 8.23 8.32 8.32 0 0016.64 0A8.28 8.28 0 0050 0zm0 15.07a6.89 6.89 0 01-6.92-6.84 6.92 6.92 0 1113.84 0A6.89 6.89 0 0150 15.07z" fill="#002465"/><path d="M87.16 41.9c-7.047-.033-12.79 5.644-12.84 12.69V74.3a.7.7 0 001.4 0V54.59c0-6.318 5.122-11.44 11.44-11.44S98.6 48.272 98.6 54.59V74.3a.7.7 0 001.4 0V54.59c-.05-7.046-5.793-12.723-12.84-12.69z" fill="#A6C4DD"/><path d="M81.31 52.94a.7.7 0 00-.7.7V74.3a.7.7 0 001.4 0V53.64a.7.7 0 00-.7-.7zM93 52.94a.7.7 0 00-.7.7V74.3a.7.7 0 001.4 0V53.64a.7.7 0 00-.7-.7zM12.84 41.9C5.793 41.867.05 47.544 0 54.59V74.3a.7.7 0 001.4 0V54.59c0-6.318 5.122-11.44 11.44-11.44s11.44 5.122 11.44 11.44V74.3a.7.7 0 001.4 0V54.59c-.05-7.046-5.793-12.723-12.84-12.69z" fill="#A6C4DD"/><path d="M7 52.94a.7.7 0 00-.7.7V74.3a.7.7 0 001.4 0V53.64a.7.7 0 00-.7-.7zM18.69 52.94a.7.7 0 00-.7.7V74.3a.7.7 0 001.4 0V53.64a.7.7 0 00-.7-.7zM50 19.21c-7.048-.028-12.79 5.652-12.84 12.7v19.71a.7.7 0 001.4 0V31.91c0-6.318 5.122-11.44 11.44-11.44s11.44 5.122 11.44 11.44v19.71a.7.7 0 001.4 0V31.91c-.05-7.048-5.792-12.728-12.84-12.7z" fill="#A6C4DD"/><path d="M44.15 30.26a.7.7 0 00-.7.7v20.66a.7.7 0 001.4 0V31a.7.7 0 00-.7-.74zM55.85 30.26a.7.7 0 00-.7.7v20.66a.7.7 0 001.4 0V31a.7.7 0 00-.7-.74z" fill="#A6C4DD"/><path d="M63.37 65.17a.27.27 0 000-.12.43.43 0 000-.26.35.35 0 000-.13l-.07-.11v-.09l-3.92-4.24a.69.69 0 00-1 0 .68.68 0 000 1l2.9 3.14H37.87v1.37h23.27l-2.79 3.1a.67.67 0 000 1 .68.68 0 00.97-.05l3.88-4.3v-.08a.33.33 0 00.17-.23zM32.34 7.56H21.16c-.19 0-4.47-.26-7.18 2.26a7 7 0 00-2.12 5.34V18l-3.17-2.84a.69.69 0 00-.92 1l4.32 3.86.13.07.07.05a.8.8 0 00.26 0 .75.75 0 00.26 0l.08-.05A.46.46 0 0013 20l4.26-3.9a.68.68 0 000-1 .69.69 0 00-1 0L13.24 18v-2.85a5.65 5.65 0 011.68-4.33c2.26-2.12 6.1-1.9 6.19-1.89h11.23a.69.69 0 100-1.38v.01zM85.76 9.81c-2.71-2.52-7-2.27-7.13-2.26H68.05L71 4.43a.68.68 0 000-1 .69.69 0 00-1 0l-4 4.3s0 .07-.05.1a.41.41 0 00-.07.11.5.5 0 000 .13.51.51 0 000 .13.69.69 0 000 .13.27.27 0 000 .12.37.37 0 00.07.12l.05.09L69.89 13a.67.67 0 00.51.22.67.67 0 00.46-1.17l-2.79-3.1h10.61s3.88-.23 6.15 1.89a5.64 5.64 0 011.67 4.33v3.92a.69.69 0 101.38 0v-3.94a7 7 0 00-2.12-5.34z" fill="#2364F9"/></g></svg>