<svg width="100" height="75" xmlns="http://www.w3.org/2000/svg"><g fill-rule="nonzero" fill="none"><path d="M27.069 16.322v4.846h.382l18.147 17.881v19.106l7.843-3.642V39.05l18.53-18.276v-4.45H27.069zm24.96 22.165v15.148l-5.058 2.358V38.487l-17.56-17.32h40.197l-17.579 17.32zm18.56-18.69H28.43v-2.103h42.157v2.102zM12.745 23.684h-.176c-7.618.681-7.314 8.566-7.304 8.675l.833 9.68 6.147-.592-.127-1.41a4.203 4.203 0 001.804.424H14.627a5.004 5.004 0 001.893-.533l.098 1.154 5.637-.503-.843-9.7c-.01-.09-1.079-7.895-8.667-7.195zM14.51 39.09h-.441c-1.5.128-3.383-1.698-4.294-2.763a6.524 6.524 0 00.254-3.494 19.878 19.878 0 006.922-2.526c0 1.931.454 3.835 1.324 5.556a4.774 4.774 0 01-3.765 3.227zm3.363.493l-.06-.582a7.536 7.536 0 001.873-2.96l.089-.316-.167-.277a10.915 10.915 0 01-1.275-6.098l.236-.188a.692.692 0 00.068-.987.693.693 0 00-.98-.069c-3.657 3.178-9.402 3.602-9.46 3.612a.665.665 0 00-.475.228.674.674 0 00-.163.502c.025.359.32.638.676.642h.383c.206 1.056.206 2.437-.187 2.842l-.411.424.362.464c.664.862 1.431 1.638 2.285 2.31l.088 1.085-3.422.306-.715-8.29c0-.266-.236-6.651 6.068-7.204h.167c6.294-.562 7.167 5.763 7.196 6.01l.716 8.31-2.892.236z" fill="#A8C5DD"/><path d="M13.049 33.72a.756.756 0 00-.82-.684.758.758 0 00-.683.824.753.753 0 001.332.419.763.763 0 00.171-.559zM15.755 32.635a.766.766 0 00-.667.532.773.773 0 00.235.823.76.76 0 00.845.096.77.77 0 00.41-.75.762.762 0 00-.265-.525.752.752 0 00-.558-.176z" fill="#A8C5DD"/><path d="M24.088 25.658a12.694 12.694 0 00-3.059-2.96 12.74 12.74 0 00-8.284-2.142c-5.213.49-9.623 4.086-11.18 9.119-1.555 5.032.047 10.512 4.062 13.894a12.695 12.695 0 008.197 2.96h1.147a12.257 12.257 0 009.225-5.24c5.902-8.832-.088-15.631-.108-15.631zm-1.03 14.852a10.886 10.886 0 01-8.215 4.638c-3.016.28-6.018-.67-8.333-2.635a11.732 11.732 0 01-3.644-12.42c1.384-4.5 5.318-7.724 9.977-8.175h.98c2.288 0 4.524.687 6.422 1.973 1.063.727 2 1.624 2.775 2.655.068.03 5.353 6.02.039 13.964z" fill="#A8C5DD"/><path d="M15.686 35.99h-2.362a.685.685 0 00-.663.317.695.695 0 000 .738c.142.225.4.349.663.317h2.362a.685.685 0 00.662-.317.695.695 0 000-.738.685.685 0 00-.662-.317zM39.98 56.112a13.004 13.004 0 00-4.607-8.882 12.612 12.612 0 00-9.334-2.96c-5.21.496-9.613 4.096-11.164 9.126-1.552 5.031.052 10.508 4.066 13.887a12.695 12.695 0 008.196 2.96h1.147c7.101-.662 12.332-6.981 11.696-14.131zm-11.764 12.75a11.303 11.303 0 01-8.343-2.635 11.732 11.732 0 01-3.645-12.42c1.384-4.5 5.319-7.724 9.978-8.175.343 0 .686-.05.98-.05 2.679 0 5.272.95 7.324 2.684a11.732 11.732 0 013.644 12.42c-1.384 4.501-5.318 7.725-9.978 8.176h.04z" fill="#A8C5DD"/><path d="M28.882 48.188h-.186c-8.314-1.806-10.54 6.621-10.559 6.69-.02.07-1.206 4.234.461 6.908a4.44 4.44 0 002.941 1.974 6.146 6.146 0 003.432 2.822l.48.109c.413.088.833.134 1.255.138a6.041 6.041 0 003.343-1.056l.167.05h.333c4.451 0 5.186-6.82 5.206-7.066.04-.129 1.5-8.764-6.873-10.57zm-3.127 17.111l-.48-.108c-1.697-.365-3.167-3.03-3.795-4.48a7.033 7.033 0 001.432-3.72c1.098.144 2.205.216 3.313.216 1.737.017 3.468-.199 5.148-.641a13.714 13.714 0 00-.422 6.523c-.559.72-2.52 2.793-5.196 2.21zm8.667-6.77s-.422 3.948-2.393 5.389l.226-.296.176-.267-.098-.316a12.391 12.391 0 01.638-7.026l.343-.138a.669.669 0 00.353-.898.685.685 0 00-.902-.355c-4.99 2.19-11.324.72-11.383.71a.686.686 0 00-.324 1.332l.5.109c-.176 1.234-.617 2.783-1.225 3.118l-.53.306.207.553c0 .06.176.464.45.987a2.854 2.854 0 01-.705-.75c-1.333-2.102-.314-5.714-.294-5.773.078-.296 1.902-7.263 8.941-5.744h.196c7.02 1.58 5.882 8.754 5.824 9.06z" fill="#A8C5DD"/><path d="M25.03 59.615a.772.772 0 10-.257-1.408.78.78 0 00.257 1.408zM28.608 58.875a.772.772 0 00-.805.314.784.784 0 00-.016.87.772.772 0 001.41-.266.774.774 0 00-.59-.918zM27.559 62.22l-2.647-.434a.673.673 0 00-.785.573.684.684 0 00.57.789l2.646.424h.108a.677.677 0 00.613-.293.687.687 0 00.054-.681.679.679 0 00-.56-.387v.01z" fill="#A8C5DD"/><path d="M53.04 9.76a.693.693 0 00-.981 0l-2.451 2.457a13.45 13.45 0 00-3.53-7.628C43.138 1.539 38.706 0 32.951 0c-14.54 0-19.96 4.016-20 14.803a.684.684 0 00.195.488c.127.13.3.202.481.202a.675.675 0 00.485-.195.683.683 0 00.202-.486c0-8.723 3.02-13.45 18.627-13.45 5.353 0 9.422 1.401 12.088 4.154a12.12 12.12 0 013.138 6.425l-1.961-1.974a.693.693 0 00-.98 0 .683.683 0 000 .987l3.794 3.79 4.01-4.007a.704.704 0 00.01-.977zM89.03 63.286l-3.53-3.543-.48-.473-3.834 3.888a.683.683 0 000 .987c.272.27.71.27.98 0l2.03-2.023a12.229 12.229 0 01-3.137 6.424c-2.667 2.763-6.735 4.165-12.108 4.165-12.04 0-18.578-2.142-18.627-13.451a.683.683 0 00-.202-.485.675.675 0 00-.485-.196.684.684 0 00-.485.202.693.693 0 00-.201.489c0 10.796 5.47 14.802 20 14.802 5.755 0 10.167-1.54 13.088-4.588a13.478 13.478 0 003.579-7.629l2.46 2.458c.126.13.3.201.48.197a.674.674 0 00.491-.198.684.684 0 00-.02-1.026z" fill="#032663"/><path d="M99.02 39.7c-.65-6.848-6.573-11.947-13.395-11.531-6.823.415-12.091 6.196-11.916 13.073.175 6.878 5.731 12.38 12.566 12.442h1.127a12.719 12.719 0 008.705-4.553 12.886 12.886 0 002.913-9.43zM87.314 52.304a11.157 11.157 0 01-8.226-2.606 11.573 11.573 0 01-3.619-12.243c1.356-4.443 5.23-7.63 9.825-8.086.343 0 .677-.049.98-.049 2.64.001 5.194.938 7.216 2.645a11.573 11.573 0 013.638 12.239c-1.35 4.444-5.22 7.638-9.814 8.1z" fill="#2969F6"/><path d="M93.951 36.928a4.822 4.822 0 00-1.206-2.833 6.345 6.345 0 00-3.04-1.825 8.166 8.166 0 00-3.264-.464c-.47 0-4.098 0-5.235 1.855a2.807 2.807 0 00-2.04.296 2.143 2.143 0 00-.529.504 2.676 2.676 0 00-.588 1.776 5.95 5.95 0 00.98 3.74c.269.501.712.885 1.246 1.076 0 .296-.089.572-.138.809-.264 1.391-.617 1.825-.764 1.974l-.07.059-.627.316.344.621c.127.207 2.94 5.152 6.274 5.32h.873c4.274 0 6.255-4.215 6.333-4.402l.186-.395-.284-.325a4.838 4.838 0 01-.696-2.23v-.613-.74a5.371 5.371 0 002.372-3.66.616.616 0 000-.13.338.338 0 000-.098c.018-.2.018-.401 0-.602l-.127-.03zm-1.96 1.914a.608.608 0 00.195-.148 4.341 4.341 0 01-.52.72c0-.148 0-.305.08-.463l.244-.109zm.352-.454a.665.665 0 000-.454.674.674 0 00-.902-.306 13.487 13.487 0 01-5.98.849 8.68 8.68 0 01-4.47-2.072.693.693 0 00-.981.108.684.684 0 00.108.987l.255.188c0 .601 0 1.233-.05 1.845a2.057 2.057 0 01-.245-.257 7.193 7.193 0 01-.725-2.96c.009-.33.1-.652.265-.938a.56.56 0 01.107-.108 2.076 2.076 0 011.697-.109l.647.267.206-.73c.313-1.136 2.862-1.5 4.117-1.51.994.007 1.983.146 2.941.414a5.59 5.59 0 013.294 3.553v.345a2.978 2.978 0 01-.098.612 3.016 3.016 0 01-.147.276h-.039zM85.823 48.8h-.529c-1.902-.098-3.921-2.704-4.902-4.154a4.534 4.534 0 00.824-1.816v-.188a.358.358 0 000-.098c.283-1.297.43-2.62.44-3.948a9 9 0 003.638 1.283h1.03c1.32.01 2.637-.142 3.921-.454-.059.464-.088.898-.118 1.303v.345a8.565 8.565 0 00.824 4.46c-.441.899-2.157 3.415-5.127 3.267z" fill="#2969F6"/><path d="M83.784 42.375c.2.01.395-.06.542-.195a.752.752 0 00.243-.525.76.76 0 00-.432-.726.751.751 0 00-.831.125.763.763 0 00-.2.822c.104.29.372.487.678.499zM87.725 42.651a.754.754 0 00.728-.427.764.764 0 00-.118-.84.752.752 0 00-.817-.206.76.76 0 00-.498.684c-.014.2.054.396.187.545.133.149.32.237.518.244zM88.137 44.28c-2.784 1.894-4.46-.218-4.637-.464a.695.695 0 00-.98-.148.691.691 0 00-.147.987 4.47 4.47 0 003.549 1.727 5.28 5.28 0 002.94-.987.684.684 0 00.14-.914.674.674 0 00-.894-.211l.03.01z" fill="#2969F6"/></g></svg>