<?xml version="1.0" encoding="UTF-8"?>
<svg width="100px" height="75px" viewBox="0 0 100 75" version="1.1" xmlns="http://www.w3.org/2000/svg" xmlns:xlink="http://www.w3.org/1999/xlink">
    <!-- Generator: sketchtool 59 (101010) - https://sketch.com -->
    <title>33A28447-362B-46F1-BC51-30F1BE87E501</title>
    <desc>Created with sketchtool.</desc>
    <g id="Page-1" stroke="none" stroke-width="1" fill="none" fill-rule="evenodd">
        <g id="Icons" transform="translate(-374.000000, -2501.000000)" fill-rule="nonzero">
            <g id="mid-icon-convertleads" transform="translate(374.000000, 2501.000000)">
                <path d="M27.0686275,16.3223684 L27.0686275,21.1677632 L27.4509804,21.1677632 L45.5980392,39.0493421 L45.5980392,58.1546053 L53.4411765,54.5131579 L53.4411765,39.0493421 L71.9705882,20.7730263 L71.9705882,16.3223684 L27.0686275,16.3223684 Z M52.0294118,38.4868421 L52.0294118,53.6348684 L46.9705882,55.9934211 L46.9705882,38.4868421 L29.4117647,21.1677632 L69.6078431,21.1677632 L52.0294118,38.4868421 Z M70.5882353,19.7960526 L28.4313725,19.7960526 L28.4313725,17.6940789 L70.5882353,17.6940789 L70.5882353,19.7960526 Z" id="Shape" fill="#A8C5DD"></path>
                <path d="M12.745098,23.6842105 L12.5686275,23.6842105 C4.95098039,24.3651316 5.25490196,32.25 5.26470588,32.3585526 L6.09803922,42.0394737 L12.245098,41.4473684 L12.1176471,40.0361842 C12.6803687,40.3102024 13.2964809,40.4551324 13.9215686,40.4605263 L14.1862745,40.4605263 L14.627451,40.4605263 C15.2868419,40.4098393 15.9298286,40.2287527 16.5196078,39.9276316 L16.6176471,41.0822368 L22.254902,40.5789474 L21.4117647,30.8782895 C21.4019608,30.7894737 20.3333333,22.9835526 12.745098,23.6842105 Z M14.5098039,39.0888158 L14.0686275,39.0888158 C12.5686275,39.2171053 10.6862745,37.3914474 9.7745098,36.3256579 C10.1762925,35.2067808 10.2644785,33.9981959 10.0294118,32.8322368 C12.4722673,32.4294258 14.8193756,31.5727505 16.9509804,30.3059211 C16.9511807,32.2369848 17.4046774,34.1406766 18.2745098,35.8618421 C17.7157198,37.56006 16.2643974,38.8040827 14.5098039,39.0888158 Z M17.872549,39.5822368 L17.8137255,39 C18.6608695,38.1754047 19.3024802,37.1610091 19.6862745,36.0394737 L19.7745098,35.7236842 L19.6078431,35.4473684 C18.5999344,33.5835652 18.1568336,31.463274 18.3333333,29.3486842 L18.5686275,29.1611842 C18.7098147,29.040798 18.7967243,28.868125 18.8096451,28.6823276 C18.8225659,28.4965302 18.760403,28.3133535 18.6372549,28.1743421 C18.385175,27.8833698 17.9467568,27.8524786 17.6568627,28.1052632 C14,31.2828947 8.25490196,31.7072368 8.19607843,31.7171053 C8.01374734,31.7244791 7.84238869,31.8067608 7.72196385,31.9447618 C7.60153901,32.0827628 7.54257541,32.2644193 7.55882353,32.4473684 C7.58429319,32.8057201 7.87839929,33.0845993 8.23529412,33.0888158 L8.23529412,33.0888158 L8.61764706,33.0888158 C8.82352941,34.1447368 8.82352941,35.5263158 8.43137255,35.9309211 L8.01960784,36.3552632 L8.38235294,36.8190789 C9.04599106,37.68094 9.81328863,38.4566004 10.6666667,39.1282895 L10.754902,40.2138158 L7.33333333,40.5197368 L6.61764706,32.2302632 C6.61764706,31.9638158 6.38235294,25.5789474 12.6862745,25.0263158 L12.8529412,25.0263158 C19.1470588,24.4638158 20.0196078,30.7894737 20.0490196,31.0361842 L20.7647059,39.3453947 L17.872549,39.5822368 Z" id="Shape" fill="#A8C5DD"></path>
                <path d="M13.0490196,33.7203947 C13.0096348,33.3034286 12.6424734,32.9971691 12.2281256,33.0356642 C11.8137779,33.0741593 11.5085097,33.4428911 11.5456116,33.8600693 C11.5827134,34.2772475 11.9481929,34.5855387 12.3627451,34.5493421 C12.5632857,34.5318319 12.7485734,34.4344278 12.8774385,34.2787724 C13.0063035,34.123117 13.0680721,33.922103 13.0490196,33.7203947 L13.0490196,33.7203947 Z" id="Path" fill="#A8C5DD"></path>
                <path d="M15.754902,32.6348684 C15.4462106,32.6600163 15.1830675,32.870095 15.0884483,33.1669279 C14.9938291,33.4637608 15.0864185,33.7887307 15.3229466,33.9899685 C15.5594747,34.1912063 15.893233,34.2289726 16.1682452,34.0856179 C16.4432575,33.9422632 16.6052157,33.6460966 16.5784314,33.3355263 C16.5635157,33.1318944 16.4678112,32.942873 16.3128883,32.8110647 C16.1579653,32.6792564 15.9568613,32.6157534 15.754902,32.6348684 L15.754902,32.6348684 Z" id="Path" fill="#A8C5DD"></path>
                <path d="M24.0882353,25.6578947 C23.2414117,24.5048127 22.2072728,23.5039065 21.0294118,22.6973684 C18.5934717,21.0488096 15.6687607,20.2927886 12.745098,20.5559211 C7.53181114,21.0455964 3.12226493,24.642347 1.56588815,29.6745078 C0.00951136546,34.7066686 1.61156099,40.1872664 5.62745098,43.5690789 C7.92944625,45.4938914 10.830928,46.541943 13.8235294,46.529713 C14.2058824,46.529713 14.5882353,46.529713 14.9705882,46.529713 C18.6748131,46.2771938 22.0664904,44.3507015 24.1960784,41.2894737 C30.0980392,32.4572368 24.1078431,25.6578947 24.0882353,25.6578947 Z M23.0588235,40.5098684 C21.1593609,43.2284814 18.1381855,44.9340831 14.8431373,45.1480263 C11.8269486,45.4280157 8.82517822,44.4789033 6.50980392,42.5131579 C2.91843952,39.4914758 1.48147265,34.5942341 2.86554324,30.0933688 C4.24961383,25.5925035 8.18387465,22.3687839 12.8431373,21.9177632 C13.1764706,21.9177632 13.5098039,21.9177632 13.8235294,21.9177632 C16.1114434,21.9180254 18.3472802,22.6052151 20.245098,23.8914474 C21.3077075,24.6179178 22.2449476,25.5146537 23.0196078,26.5460526 C23.0882353,26.5756579 28.372549,32.5657895 23.0588235,40.5098684 Z" id="Shape" fill="#A8C5DD"></path>
                <path d="M15.6862745,35.9901316 L13.3235294,35.9901316 C13.060583,35.9583261 12.8029216,36.0816543 12.661467,36.3070241 C12.5200124,36.532394 12.5200124,36.8195797 12.661467,37.0449496 C12.8029216,37.2703194 13.060583,37.3936476 13.3235294,37.3618421 L15.6862745,37.3618421 C15.9492209,37.3936476 16.2068823,37.2703194 16.3483369,37.0449496 C16.4897916,36.8195797 16.4897916,36.532394 16.3483369,36.3070241 C16.2068823,36.0816543 15.9492209,35.9583261 15.6862745,35.9901316 L15.6862745,35.9901316 Z" id="Path" fill="#A8C5DD"></path>
                <path d="M39.9803922,56.1118421 C39.6876361,52.6497665 38.0278115,49.4504686 35.372549,47.2302632 C32.7810512,45.0247544 29.418709,43.958222 26.0392157,44.2697368 C20.8293366,44.7663135 16.4262722,48.365666 14.8746213,53.3964057 C13.3229703,58.4271453 14.9267281,63.9036637 18.9411765,67.2828947 C21.2431717,69.2077072 24.1446535,70.2557588 27.1372549,70.2435288 C27.5196078,70.2435288 27.9019608,70.2435288 28.2843137,70.2435288 C35.385288,69.58134 40.6158767,63.2615742 39.9803922,56.1118421 Z M28.2156863,68.8618421 C25.1966885,69.1400615 22.1925453,68.191315 19.872549,66.2269737 C16.2811846,63.2052916 14.8442178,58.3080498 16.2282883,53.8071846 C17.6123589,49.3063193 21.5466197,46.0825997 26.2058824,45.6315789 C26.5490196,45.6315789 26.8921569,45.5822368 27.1862745,45.5822368 C29.8650491,45.5822368 32.4580747,46.5328389 34.5098039,48.2664474 C38.1011683,51.2881295 39.5381352,56.1853712 38.1540646,60.6862365 C36.769994,65.1871018 32.8357332,68.4108213 28.1764706,68.8618421 L28.2156863,68.8618421 Z" id="Shape" fill="#A8C5DD"></path>
                <path d="M28.8823529,48.1875 L28.6960784,48.1875 C20.3823529,46.3815789 18.1568627,54.8092105 18.1372549,54.8782895 C18.1176471,54.9473684 16.9313725,59.1118421 18.5980392,61.7861842 C19.2648855,62.8253833 20.3297454,63.5399603 21.5392157,63.7598684 C22.2938975,65.0979746 23.5175176,66.1044251 24.9705882,66.5822368 L25.4509804,66.6907895 C25.8636243,66.7790568 26.284039,66.8253422 26.7058824,66.8289474 C27.8991639,66.8154952 29.062021,66.4482099 30.0490196,65.7730263 L30.2156863,65.8223684 L30.5490196,65.8223684 C35,65.8223684 35.7352941,59.0032895 35.754902,58.7565789 C35.7941176,58.6282895 37.254902,49.9934211 28.8823529,48.1875 Z M25.754902,65.2993421 L25.2745098,65.1907895 C23.5784314,64.8256579 22.1078431,62.1611842 21.4803922,60.7105263 C22.3056123,59.6362218 22.8028997,58.3436826 22.9117647,56.9901316 C24.0104966,57.1347281 25.1174074,57.2072495 26.2254902,57.2072368 C27.9618247,57.2237677 29.6926479,57.0080655 31.372549,56.5657895 C30.7083819,58.6735089 30.5636973,60.9122464 30.9509804,63.0888158 C30.3921569,63.8092105 28.4313725,65.8815789 25.754902,65.2993421 Z M34.4215686,58.5296053 C34.4215686,58.5296053 34,62.4769737 32.0294118,63.9177632 L32.254902,63.6217105 L32.4313725,63.3552632 L32.3333333,63.0394737 C31.8604492,60.6849321 32.0819589,58.2425863 32.9705882,56.0131579 L33.3137255,55.875 C33.4810028,55.8056112 33.6130784,55.6707674 33.6796341,55.5014224 C33.7461899,55.3320774 33.7415093,55.1427763 33.6666667,54.9769737 C33.5144807,54.6287685 33.1112535,54.4699459 32.7647059,54.6217105 C27.7745098,56.8125 21.4411765,55.3421053 21.3823529,55.3322368 C21.0168704,55.2423089 20.6481637,55.4676393 20.5588235,55.8355263 C20.4694833,56.2034134 20.693341,56.5745457 21.0588235,56.6644737 L21.5588235,56.7730263 C21.3823529,58.0065789 20.9411765,59.5559211 20.3333333,59.8914474 L19.8039216,60.1973684 L20.0098039,60.75 C20.0098039,60.8092105 20.1862745,61.2138158 20.4607843,61.7368421 C20.1822373,61.5320162 19.9430464,61.277876 19.754902,60.9868421 C18.4215686,58.8848684 19.4411765,55.2730263 19.4607843,55.2138158 C19.5392157,54.9177632 21.3627451,47.9506579 28.4019608,49.4703947 L28.5980392,49.4703947 C35.6176471,51.0493421 34.4803922,58.2236842 34.4215686,58.5296053 Z" id="Shape" fill="#A8C5DD"></path>
                <path d="M25.0294118,59.6151316 C25.4436253,59.7050595 25.8518363,59.439965 25.9411765,59.0230263 C26.0305167,58.6060877 25.7671547,58.1951911 25.3529412,58.1052632 C25.1537474,58.0585444 24.944246,58.0951825 24.7723805,58.206793 C24.600515,58.3184034 24.4809965,58.4954328 24.4411765,58.6973684 C24.356034,59.1135268 24.6176347,59.5216755 25.0294118,59.6151316 L25.0294118,59.6151316 Z" id="Path" fill="#A8C5DD"></path>
                <path d="M28.6078431,58.875 C28.3009708,58.8053529 27.982731,58.929457 27.8025726,59.1890317 C27.6224142,59.4486064 27.6161294,59.7920817 27.7866696,60.0581581 C27.9572098,60.3242345 28.2706936,60.4600502 28.5799058,60.4018249 C28.8891179,60.3435995 29.1326269,60.1029007 29.1960784,59.7927632 C29.2396875,59.5924823 29.2021113,59.382965 29.0916829,59.2106749 C28.9812545,59.0383848 28.8071009,58.9175618 28.6078431,58.875 L28.6078431,58.875 Z" id="Path" fill="#A8C5DD"></path>
                <path d="M27.5588235,62.2203947 L24.9117647,61.7861842 C24.7320265,61.7549791 24.5473856,61.798154 24.399719,61.9059166 C24.2520524,62.0136792 24.1538741,62.1768973 24.127451,62.3585526 C24.0964499,62.5394733 24.1393425,62.725329 24.2464008,62.873967 C24.3534591,63.0226051 24.5156104,63.1214294 24.6960784,63.1480263 L27.3431373,63.5723684 L27.4509804,63.5723684 C27.6926601,63.5917595 27.9262587,63.4798947 28.0637819,63.2789126 C28.2013051,63.0779304 28.2218599,62.8183647 28.1177035,62.5979915 C28.013547,62.3776183 27.8005032,62.2299174 27.5588235,62.2105263 L27.5588235,62.2203947 Z" id="Path" fill="#A8C5DD"></path>
                <path d="M53.0392157,9.75986842 C52.7678453,9.48892543 52.3301939,9.48892543 52.0588235,9.75986842 L49.6078431,12.2171053 C49.2748925,9.35904961 48.0374862,6.68458318 46.0784314,4.58881579 C43.1372549,1.53947368 38.7058824,0 32.9509804,0 C18.4117647,0 12.9901961,4.01644737 12.9509092,14.8026316 C12.9483554,14.9849268 13.0184657,15.1606678 13.1456142,15.2905076 C13.2727627,15.4203474 13.4463282,15.4934927 13.627451,15.4934927 L13.627451,15.4934927 C13.8085547,15.4960633 13.9831471,15.4254917 14.1121383,15.2975068 C14.2411295,15.1695218 14.3137445,14.9948144 14.3137255,14.8125 C14.3137255,6.08881579 17.3333333,1.36184211 32.9411765,1.36184211 C38.2941176,1.36184211 42.3627451,2.76315789 45.0294118,5.51644737 C46.6955234,7.28997484 47.7892387,9.52964018 48.1666667,11.9407895 L46.2058824,9.96710526 C45.934512,9.69616227 45.4968606,9.69616227 45.2254902,9.96710526 C45.0912114,10.0956445 45.0151958,10.2740025 45.0151958,10.4605263 C45.0151958,10.6470502 45.0912114,10.8254082 45.2254902,10.9539474 L49.0196078,14.7434211 L53.0294118,10.7368421 C53.2949123,10.4675629 53.2992582,10.0344911 53.0392157,9.75986842 Z" id="Path" fill="#032663"></path>
                <path d="M89.0294118,63.2861842 L85.5,59.7434211 L85.5,59.7434211 L85.0196078,59.2697368 L81.1862745,63.1578947 C81.0519957,63.2864339 80.9759801,63.4647919 80.9759801,63.6513158 C80.9759801,63.8378397 81.0519957,64.0161976 81.1862745,64.1447368 C81.4576449,64.4156798 81.8952963,64.4156798 82.1666667,64.1447368 L84.1960784,62.1217105 C83.8122061,64.5308015 82.7193799,66.7686462 81.0588235,68.5460526 C78.3921569,71.3092105 74.3235294,72.7105263 68.9509804,72.7105263 C56.9117647,72.7105263 50.372549,70.5690789 50.3235294,59.2598684 C50.3235484,59.077554 50.2509334,58.9028466 50.1219422,58.7748616 C49.992951,58.6468767 49.8183587,58.5763051 49.6372549,58.5788758 L49.6372549,58.5788758 C49.4552436,58.5788758 49.280687,58.6517268 49.1519855,58.7812749 C49.0232841,58.9108231 48.9509804,59.0865281 48.9509804,59.2697368 C48.9509804,70.0657895 54.4215686,74.0723684 68.9509804,74.0723684 C74.7058824,74.0723684 79.1176471,72.5328947 82.0392157,69.4835526 C84.01441,67.3932325 85.2690391,64.718688 85.6176471,61.8552632 L88.0784314,64.3125 C88.2041979,64.4428642 88.3783513,64.5144149 88.5588235,64.5098684 C88.7420355,64.5136263 88.9189236,64.4424056 89.0490196,64.3125 C89.1938786,64.1803583 89.2748617,63.9915975 89.2712281,63.7948534 C89.267344,63.5981093 89.1792109,63.4126221 89.0294118,63.2861842 L89.0294118,63.2861842 Z" id="Path" fill="#032663"></path>
                <path d="M99.0196078,39.7006579 C98.3696613,32.8522443 92.4467196,27.7530587 85.6245715,28.1685881 C78.8024233,28.5841175 73.5335392,34.3649847 73.7087197,41.2423158 C73.8839003,48.1196468 79.4401705,53.6211337 86.2745098,53.6842105 C86.6470588,53.6842105 87.0294118,53.6842105 87.4019608,53.6842105 C90.7911143,53.3963668 93.9253761,51.7569043 96.1072933,49.1306449 C98.2892106,46.5043855 99.3377583,43.1092196 99.0196078,39.7006579 L99.0196078,39.7006579 Z M87.3137255,52.3026316 C84.3364204,52.5733635 81.3750686,51.6354133 79.0882353,49.6973684 C75.540062,46.7237573 74.1131083,41.8961567 75.4692465,37.4537807 C76.8253848,33.0114047 80.6992945,29.8233778 85.2941176,29.3684211 C85.6372549,29.3684211 85.9705882,29.3190789 86.2745098,29.3190789 C88.9136801,29.3202379 91.468214,30.2565411 93.4901961,31.9638158 C97.0432251,34.9321079 98.4775436,39.7579595 97.1277768,44.2026758 C95.7780099,48.6473921 91.9082741,51.8412504 87.3137255,52.3026316 L87.3137255,52.3026316 Z" id="Shape" fill="#2969F6"></path>
                <path d="M93.9509804,36.9276316 L93.9509804,36.9276316 C93.8687409,35.8759169 93.4449899,34.8806597 92.745098,34.0953947 C91.9242859,33.2093421 90.8703078,32.5762171 89.7058824,32.2697368 C88.6599636,31.8946636 87.549368,31.7368816 86.4411765,31.8059211 L86.4411765,31.8059211 C85.9705882,31.8059211 82.3431373,31.8059211 81.2058824,33.6611842 C80.513362,33.4978019 79.7850945,33.6035316 79.1666667,33.9572368 C78.9628932,34.0932809 78.783824,34.2635144 78.6372549,34.4605263 C78.2341424,34.9615015 78.0251501,35.5926033 78.0490196,36.2368421 C77.9506263,37.5588743 78.2958547,38.8758977 79.0294118,39.9769737 C79.2977755,40.4783682 79.7414542,40.8616685 80.2745098,41.0526316 C80.2745098,41.3486842 80.1862745,41.625 80.1372549,41.8618421 L80.1372549,41.8618421 C79.872549,43.2532895 79.5196078,43.6875 79.372549,43.8355263 L79.3039216,43.8947368 L78.6764706,44.2105263 L79.0196078,44.8322368 C79.1470588,45.0394737 81.9607843,49.9835526 85.2941176,50.1513158 L85.8235294,50.1513158 L86.1666667,50.1513158 C90.4411765,50.1513158 92.4215686,45.9375 92.5,45.75 L92.6862745,45.3552632 L92.4019608,45.0296053 C91.9914751,44.3550152 91.7524055,43.5890266 91.7058824,42.7993421 L91.7058824,42.5625 L91.7058824,42.1875 C91.7058824,41.9802632 91.7058824,41.7532895 91.7058824,41.5164474 L91.7058824,41.4473684 C92.9768783,40.6209911 93.8393385,39.2900911 94.0784314,37.7861842 C94.0828976,37.7435392 94.0828976,37.7005397 94.0784314,37.6578947 C94.0832635,37.6251798 94.0832635,37.5919255 94.0784314,37.5592105 C94.0958361,37.358935 94.0958361,37.1575123 94.0784314,36.9572368 L93.9509804,36.9276316 Z M91.9901961,38.8421053 C92.064863,38.8066766 92.1315786,38.7563108 92.1862745,38.6940789 C92.0380495,38.9514957 91.863932,39.1928957 91.6666667,39.4144737 C91.6666667,39.2664474 91.6666667,39.1085526 91.745098,38.9506579 L91.9901961,38.8421053 Z M92.3431373,38.3881579 C92.3963591,38.2415838 92.3963591,38.0807847 92.3431373,37.9342105 C92.1766497,37.6005777 91.7743075,37.464114 91.4411765,37.6282895 C89.5363703,38.3598372 87.4922755,38.649917 85.4607843,38.4769737 C83.8035779,38.2334042 82.2513398,37.5138547 80.9901961,36.4046053 C80.8460256,36.2877868 80.6615722,36.233571 80.4776038,36.2539406 C80.2936354,36.2743103 80.1253003,36.3675881 80.0098039,36.5131579 C79.8884219,36.6560813 79.8311568,36.8431659 79.8515817,37.0300683 C79.8720066,37.2169707 79.9683032,37.3870523 80.1176471,37.5 L80.372549,37.6875 C80.372549,38.2894737 80.372549,38.9210526 80.3235294,39.5328947 C80.2346372,39.4546377 80.1526325,39.3687918 80.0784314,39.2763158 C79.6280642,38.353414 79.380615,37.3436416 79.3529412,36.3157895 C79.3529412,36.3157895 79.3529412,36.3157895 79.3529412,36.3157895 C79.36193,35.9859292 79.4529401,35.6636019 79.6176471,35.3782895 C79.6484974,35.3373144 79.684783,35.3007901 79.7254902,35.2697368 C80.2499914,34.9931446 80.8664884,34.9536874 81.4215686,35.1611842 L82.0686275,35.4276316 L82.2745098,34.6973684 C82.5882353,33.5625 85.1372549,33.1973684 86.3921569,33.1875 C87.3863998,33.1947418 88.3753398,33.3341042 89.3333333,33.6019737 C90.9107824,34.220595 92.1229932,35.527937 92.627451,37.1546053 C92.627451,37.3421053 92.627451,37.4703947 92.627451,37.5 C92.616127,37.7068382 92.5832673,37.9119089 92.5294118,38.1118421 C92.4851936,38.206456 92.4361074,38.2986863 92.3823529,38.3881579 L92.3431373,38.3881579 Z M85.8235294,48.7993421 L85.2941176,48.7993421 C83.3921569,48.7006579 81.372549,46.0953947 80.3921569,44.6447368 C80.7976736,44.1088147 81.0790442,43.4884242 81.2156863,42.8289474 C81.2156863,42.7697368 81.2156863,42.7105263 81.2156863,42.6414474 C81.2202472,42.6087128 81.2202472,42.5754977 81.2156863,42.5427632 C81.4985366,41.2459665 81.6463935,39.9230358 81.6568627,38.5953947 C82.7635603,39.2812515 84.0041745,39.7188281 85.2941176,39.8782895 C85.6470588,39.8782895 85.9901961,39.8782895 86.3235294,39.8782895 C87.644191,39.8879932 88.9611003,39.7355523 90.245098,39.4243421 C90.1862745,39.8881579 90.1568627,40.3223684 90.127451,40.7269737 L90.127451,40.7269737 L90.127451,41.0723684 C89.996225,42.6068128 90.2808344,44.1483577 90.9509804,45.5328947 C90.5098039,46.4309211 88.7941176,48.9473684 85.8235294,48.7993421 Z" id="Shape" fill="#2969F6"></path>
                <path d="M83.7843137,42.375 C83.9836206,42.3857194 84.1788675,42.3155019 84.3263026,42.1800823 C84.4737376,42.0446628 84.5610332,41.855364 84.5686275,41.6546053 C84.5842793,41.3469178 84.4138081,41.0601699 84.1370331,40.9286247 C83.8602582,40.7970795 83.5319657,40.8467757 83.3058712,41.0544443 C83.0797767,41.2621128 83.0006344,41.5866467 83.105501,41.8760903 C83.2103675,42.1655339 83.4784851,42.3625934 83.7843137,42.375 L83.7843137,42.375 Z" id="Path" fill="#2969F6"></path>
                <path d="M87.7254902,42.6513158 C88.0317767,42.6711166 88.3194843,42.5022896 88.4532756,42.224251 C88.5870668,41.9462123 88.5403057,41.6143154 88.3349887,41.3846846 C88.1296717,41.1550537 87.8066745,41.073405 87.5179353,41.178146 C87.229195,41.2828871 87.0321967,41.5531653 87.0196078,41.8618421 C87.0062131,42.061493 87.0737025,42.2580957 87.2066912,42.4068331 C87.3396799,42.5555704 87.5268339,42.6437663 87.7254902,42.6513158 L87.7254902,42.6513158 Z" id="Path" fill="#2969F6"></path>
                <path d="M88.1372549,44.2796053 C85.3529412,46.1743421 83.6764706,44.0625 83.5,43.8157895 C83.3903169,43.6641806 83.2248281,43.5631627 83.0405667,43.5353417 C82.8563054,43.5075207 82.6686549,43.5552191 82.5196078,43.6677632 C82.3667085,43.7764379 82.2645414,43.9432602 82.2367758,44.1295823 C82.2090101,44.3159044 82.2580553,44.5055577 82.372549,44.6546053 C83.2269071,45.751324 84.5370122,46.3888288 85.9215686,46.3815789 C86.9777224,46.3548267 88.0018756,46.0111963 88.8627451,45.3947368 C89.1386311,45.173285 89.1990665,44.7755751 89.0015589,44.4812376 C88.8040514,44.1869 88.4149546,44.094819 88.1078431,44.2697368 L88.1372549,44.2796053 Z" id="Path" fill="#2969F6"></path>
            </g>
        </g>
    </g>
</svg>