<?xml version="1.0" encoding="UTF-8"?>
<svg width="99px" height="74px" viewBox="0 0 99 74" version="1.1" xmlns="http://www.w3.org/2000/svg" xmlns:xlink="http://www.w3.org/1999/xlink">
    <!-- Generator: sketchtool 59 (101010) - https://sketch.com -->
    <title>6586A5D7-9548-4C55-8782-8786789FC6E2</title>
    <desc>Created with sketchtool.</desc>
    <g id="Page-1" stroke="none" stroke-width="1" fill="none" fill-rule="evenodd">
        <g id="Icons" transform="translate(-1094.000000, -2071.000000)" fill-rule="nonzero">
            <g id="mid-icon-costeffective" transform="translate(1093.000000, 2071.000000)">
                <path d="M96.4257426,29.2697368 L92.6633663,29.2697368 C91.1640403,25.7924677 89.0057993,22.6361199 86.3069307,19.9736842 L93.8316832,7.14473684 L93.009901,6.90789474 C86.6863022,4.74629433 79.6893705,6.98661951 75.8118812,12.4144737 C68.2162975,8.67423625 59.8263423,6.81894418 51.3564356,7.00657895 C51.1726162,7.0091776 50.9973635,7.08446122 50.8692406,7.21586418 C50.7411176,7.34726713 50.6706226,7.52402262 50.6732673,7.70723684 C50.6730883,7.89046129 50.7480844,8.06579082 50.8808458,8.19252437 C51.0136073,8.31925792 51.1925874,8.386373 51.3762376,8.37828947 L52.2970297,8.37828947 C60.4384151,8.3111222 68.4753735,10.2071035 75.7227723,13.9046053 C75.7227723,13.9046053 75.7227723,13.9046053 75.7821782,13.9046053 C75.855454,13.9332957 75.9319015,13.953173 76.009901,13.9638158 L76.009901,13.9638158 L76.0693069,13.9638158 C76.1553331,13.9559285 76.2392045,13.9325218 76.3168317,13.8947368 L76.3861386,13.8947368 C76.478423,13.8373829 76.5563181,13.759744 76.6138614,13.6677632 C79.8812484,8.69099351 86.0008959,6.38921369 91.7524752,7.97368421 L84.8415842,19.7368421 C84.8354897,19.7527286 84.8354897,19.7702977 84.8415842,19.7861842 C84.8002005,19.865733 84.7765583,19.9532581 84.7722772,20.0427632 C84.7628696,20.0850123 84.7628696,20.1288035 84.7722772,20.1710526 C84.7682265,20.2137205 84.7682265,20.2566742 84.7722772,20.2993421 C84.7882239,20.3374936 84.8081344,20.3738762 84.8316832,20.4078947 C84.8510377,20.4516252 84.8778354,20.4916894 84.9108911,20.5263158 C84.9108911,20.5263158 84.9108911,20.5263158 84.9108911,20.5263158 C87.7663475,23.2428624 90.0164042,26.5278311 91.5148515,30.1677632 C91.5357687,30.2084676 91.5589057,30.2480005 91.5841584,30.2861842 C91.6016324,30.3172723 91.6214937,30.3469662 91.6435644,30.375 L91.7326733,30.4539474 C91.7650476,30.4826166 91.801816,30.5059377 91.8415842,30.5230263 L91.9306931,30.5723684 C92.0029357,30.5826255 92.0762722,30.5826255 92.1485149,30.5723684 L96.3861386,30.5723684 C97.5385162,30.5163583 98.5202213,31.3978681 98.5841584,32.5460526 L98.5841584,44.0625 C98.5202213,45.2106845 97.5385162,46.0921943 96.3861386,46.0361842 L92.7425743,46.0361842 C92.6899161,46.0306286 92.6368166,46.0306286 92.5841584,46.0361842 L92.4752475,46.0361842 L92.3663366,46.1151316 L92.2673267,46.1940789 C92.2409721,46.2245813 92.2177536,46.2576415 92.1980198,46.2927632 C92.1654927,46.3297601 92.1417974,46.373621 92.1287129,46.4210526 L92.1287129,46.4210526 C90.0603288,52.4062238 86.1306338,57.5778792 80.9108911,61.1842105 L80.8514851,61.1842105 C80.658568,61.2390214 80.4971828,61.3712793 80.4059406,61.5493421 C77.4128146,63.632578 74.1655368,65.3271482 70.7425743,66.5921053 L70.6138614,66.5921053 C70.5162611,66.6118481 70.4266975,66.659916 70.3564356,66.7302632 C68.7785802,67.3015577 67.1725365,67.7923259 65.5445545,68.2006579 L63.7425743,61.6578947 C63.6370337,61.2940329 63.2572098,61.0827355 62.8910891,61.1842105 C62.7146016,61.2304406 62.5640054,61.345124 62.4728694,61.5026971 C62.3817334,61.6602701 62.3576331,61.8476348 62.4059406,62.0230263 L64.1980198,68.5263158 C62.0680725,68.9843505 59.9123417,69.3138965 57.7425743,69.5131579 L56.8415842,59.4473684 C56.7952028,59.0743909 56.4654282,58.8019244 56.0891089,58.8256579 C55.9050312,58.8407054 55.7345934,58.9283624 55.6156243,59.0691736 C55.4966551,59.2099847 55.4389964,59.3923012 55.4554455,59.5756579 L56.3663366,69.6217105 C55.029703,69.7203947 53.6732673,69.7796053 52.2970297,69.7796053 C51.3069307,69.7796053 50.3168317,69.7796053 49.2574257,69.6907895 L50.1782178,59.5756579 C50.2137609,59.1941454 49.9322765,58.8561499 49.5495049,58.8207237 C49.1667334,58.7852976 48.8276223,59.0658559 48.7920792,59.4473684 L47.8811881,69.6710526 C45.696897,69.4836296 43.5272474,69.1539783 41.3861386,68.6842105 L43.2277228,62.0131579 C43.2760303,61.8377663 43.25193,61.6504017 43.160794,61.4928286 C43.0696579,61.3352556 42.9190618,61.2205722 42.7425743,61.1743421 C42.3764536,61.0728671 41.9966297,61.2841645 41.8910891,61.6480263 L40.029703,68.3782895 C24.1881188,64.5098684 13.2970297,53.1907895 13.2970297,39.0690789 C13.2970297,27.1480263 20.2277228,17.3585526 32.2376238,12.2763158 C32.4992913,12.0857999 32.590677,11.7382744 32.456405,11.4443255 C32.322133,11.1503767 31.999149,10.9908867 31.6831683,11.0625 C19.0792079,16.3914474 11.8811881,26.6447368 11.8811881,39.1085526 C11.8811881,48.3552632 16.3069307,56.4375 23.6534653,62.1710526 L23.6534653,62.1710526 L21.990099,68.7138158 C21.7777991,69.5479192 21.9173319,70.4322861 22.3762376,71.1611842 C22.8925401,71.9745735 23.7178712,72.5443509 24.6633663,72.7401316 L30.019802,73.875 C30.2864064,73.9338052 30.5586287,73.963585 30.8316832,73.9638158 C32.4355662,73.9995393 33.8624458,72.9541719 34.3069307,71.4177632 L35.1188119,68.3289474 C39.4120831,69.8389036 43.8927103,70.7553238 48.4356436,71.0526316 L48.5148515,71.0526316 C49.7623762,71.1315789 51.019802,71.1809211 52.2970297,71.1809211 C53.8415842,71.1809211 55.3564356,71.1118421 56.8514851,70.9934211 C56.9369056,71.0270793 57.0271287,71.0470629 57.1188119,71.0526316 L57.1881188,71.0526316 C57.2929756,71.0408585 57.3941759,71.0072361 57.4851485,70.9539474 C59.9411408,70.7309267 62.3790963,70.3418732 64.7821782,69.7894737 C64.8826355,69.8441053 64.9945355,69.8745231 65.1089109,69.8782895 L65.2871287,69.8782895 C65.4452299,69.8303847 65.5817233,69.7292235 65.6732673,69.5921053 C67.2673267,69.1973684 68.8118812,68.7236842 70.3168317,68.2006579 L71.1683168,71.4375 C71.6076778,72.9815227 73.0335426,74.0382934 74.6435644,74.0135968 C74.9166189,74.0135968 75.1888411,73.9831473 75.4554455,73.9243421 L80.8217822,72.7894737 C81.7654784,72.5955173 82.5883703,72.0249538 83.0990099,71.2105263 C83.5619051,70.4867865 83.7017984,69.6037098 83.4851485,68.7730263 L81.8217822,62.2302632 C87.0678974,58.5575368 91.0589234,53.3707715 93.2574257,47.3684211 L96.4257426,47.3684211 C98.3230369,47.4242499 99.9143026,45.952448 100,44.0625 L100,32.5657895 C99.9090786,30.6797486 98.3193586,29.2137656 96.4257426,29.2697368 Z M32.950495,71.1217105 C32.5938173,72.2371653 31.4233615,72.8790152 30.2871287,72.5822368 L24.9306931,71.4473684 C24.3497483,71.3220494 23.8454186,70.9655454 23.5346535,70.4605263 C23.2710116,70.050771 23.1919883,69.5495495 23.3168317,69.0789474 L24.8415842,63.0592105 C27.597304,65.0282877 30.5912362,66.6430086 33.7524752,67.8651316 L32.950495,71.1217105 Z M82.1782178,69.0789474 C82.3059892,69.552612 82.2268676,70.0580409 81.960396,70.4703947 C81.6496309,70.9754138 81.1453012,71.3319178 80.5643564,71.4572368 L75.1980198,72.5921053 C74.0643179,72.8882013 72.8969377,72.2456492 72.5445545,71.1315789 L71.6633663,67.7467105 C74.827842,66.5394641 77.8439966,64.9767527 80.6534653,63.0888158 L82.1782178,69.0789474 Z" id="Shape" fill="#A6C4DD"></path>
                <path d="M82.8811881,31.6974051 C84.842509,31.7060116 86.4684953,30.1850388 86.5841584,28.2335526 C86.6223197,27.2613516 86.2653447,26.3149218 85.5940594,25.6085526 C84.5813938,24.5633848 83.0498609,24.2035028 81.6754353,24.6877481 C80.3010097,25.1719934 79.3366202,26.4112527 79.2079208,27.8585526 C79.1624347,28.8348572 79.5202587,29.7871045 80.1980198,30.4934211 C80.8567339,31.2136157 81.7757264,31.6431983 82.7524752,31.6875 L82.8811881,31.6974051 Z M80.5643564,27.9276316 C80.6379806,26.7081737 81.6555152,25.7589983 82.8811881,25.7664038 L83,25.7664038 C83.616713,25.7921893 84.1976239,26.0621526 84.6138614,26.5164474 C85.0253744,26.9557924 85.2367316,27.5449319 85.1980198,28.1447368 C85.1434882,29.0671972 84.5447138,29.8693601 83.6739253,30.1865274 C82.8031367,30.5036947 81.8265324,30.2753321 81.1881188,29.6052632 C80.7533553,29.1579846 80.5270337,28.5492843 80.5643564,27.9276316 Z" id="Shape" fill="#A6C4DD"></path>
                <path d="M35.3960396,17.9407895 C35.2366514,17.9412145 35.082281,17.8852644 34.960396,17.7828947 C32.6925797,15.8883935 31.3777107,13.0940109 31.3663366,10.1447368 C31.610709,4.53340289 36.2460337,0.109516996 41.8811881,0.109516996 C47.5163425,0.109516996 52.1516673,4.53340289 52.3960396,10.1447368 C52.3938189,11.2962417 52.189415,12.4384739 51.7920792,13.5197368 C51.6620561,13.8698796 51.2733967,14.0503639 50.9207921,13.9243421 C50.7503357,13.8642776 50.611279,13.7384067 50.5349252,13.5750645 C50.4585714,13.4117222 50.4513373,13.224636 50.5148515,13.0559211 C50.8591334,12.1067566 51.0334005,11.1046772 51.029703,10.0953947 C50.8022669,5.22424004 46.7737084,1.39144737 41.8811881,1.39144737 C36.9886678,1.39144737 32.9601093,5.22424004 32.7326733,10.0953947 C32.7178337,12.6729678 33.857788,15.1226825 35.8415842,16.7763158 C35.990645,16.8919541 36.0841121,17.0646853 36.0991752,17.2523552 C36.1142384,17.4400251 36.0495119,17.6253703 35.9207921,17.7631579 C35.7789065,17.8935986 35.5882796,17.9581269 35.3960396,17.9407895 L35.3960396,17.9407895 Z" id="Path" fill="#2364F9"></path>
                <path d="M34.2277228,18.6710526 C33.9945213,18.6704512 33.7763593,18.5562007 33.6435644,18.3651316 C33.5355293,18.209005 33.4956109,18.015895 33.5329288,17.8299194 C33.5702467,17.6439437 33.6816126,17.4809911 33.8415842,17.3782895 C39.4982336,13.705161 46.2415572,12.0622926 52.960396,12.7203947 C53.3349654,12.7776216 53.5920692,13.1266628 53.5346534,13.5 C53.4772377,13.8733372 53.1270446,14.1295953 52.7524752,14.0723684 C46.3885754,13.5321685 40.0243277,15.1075864 34.6534653,18.5526316 C34.5289658,18.6387347 34.3789638,18.680458 34.2277228,18.6710526 Z" id="Path" fill="#002465"></path>
                <path d="M12.8712871,34.4013158 C12.8156479,34.4115132 12.7586095,34.4115132 12.7029703,34.4013158 C10.049505,33.7302632 8.21782178,32.4276316 7.27722772,30.6611842 C7.17821782,30.4638158 7.07920792,30.2565789 7,30.0592105 C3.89108911,29.4177632 1.24752475,25.9638158 1.12871287,25.8059211 C1.0120668,25.6581159 0.960919147,25.4693004 0.987078105,25.2830653 C1.01323706,25.0968302 1.11444145,24.9292738 1.26732673,24.8190789 C1.57988242,24.5880966 2.02052784,24.649584 2.25742574,24.9572368 C3.40543827,26.4649489 4.89931725,27.6764249 6.61386139,28.4901316 C6.47313125,27.3751005 6.58132049,26.2428502 6.93069307,25.1743421 C7.77227723,23.1019737 8.83168317,21.8585526 10.0792079,21.4638158 C10.7779951,21.2351693 11.541425,21.3141326 12.1782178,21.6809211 C12.9399074,22.128491 13.4460169,22.9070903 13.5445545,23.7828947 C13.7623762,25.9934211 11.4158416,28.3519737 11.1485149,28.6085526 C10.4614319,29.3968735 9.51914661,29.920583 8.48514851,30.0888158 C9.50300468,31.6579694 11.1328223,32.7313987 12.980198,33.0493421 C13.1581375,33.0913652 13.3117463,33.2027369 13.4066499,33.3585346 C13.5015535,33.5143322 13.5298289,33.7015489 13.4851485,33.8782895 C13.4141009,34.1657191 13.1672072,34.3760791 12.8712871,34.4013158 L12.8712871,34.4013158 Z M10.8910891,22.6973684 C10.7428515,22.6935472 10.5951749,22.7169639 10.4554455,22.7664474 C9.9009901,22.9736842 9.07920792,23.6842105 8.24752475,25.6578947 C7.92466982,26.6514429 7.85324421,27.7091326 8.03960396,28.7368421 C8.87348708,28.6731815 9.64551949,28.2741852 10.1782178,27.6315789 C10.8019802,27.0197368 12.3267327,25.2138158 12.1584158,23.8914474 C12.0988965,23.4322193 11.823,23.0289022 11.4158416,22.8059211 C11.2542626,22.7223424 11.0726928,22.6847821 10.8910891,22.6973684 Z" id="Shape" fill="#002465"></path>
            </g>
        </g>
    </g>
</svg>