<svg width="99" height="74" xmlns="http://www.w3.org/2000/svg"><g fill-rule="nonzero" fill="none"><path d="M95.426 29.27h-3.763a29.424 29.424 0 00-6.356-9.296l7.525-12.83-.822-.236c-6.324-2.162-13.32.079-17.198 5.506a52.719 52.719 0 00-24.456-5.407.694.694 0 00-.683.7.67.67 0 00.703.671h.921a50.63 50.63 0 0123.426 5.527h.06c.072.028.149.048.227.059h.06a.715.715 0 00.247-.07h.07a.712.712 0 00.227-.226 13.745 13.745 0 0115.138-5.694l-6.91 11.763a.069.069 0 000 .05.62.62 0 00-.07.256.295.295 0 000 .128.679.679 0 000 .128.592.592 0 00.06.109c.019.044.046.084.079.118a28.043 28.043 0 016.604 9.642c.02.04.044.08.07.118a.69.69 0 00.059.089l.089.079c.032.029.069.052.109.069l.089.05c.072.01.145.01.218 0h4.237a2.096 2.096 0 012.198 1.973v11.517a2.096 2.096 0 01-2.198 1.973h-3.643a.755.755 0 00-.159 0h-.109l-.109.08-.099.078a.602.602 0 00-.069.099.325.325 0 00-.07.128 29.764 29.764 0 01-11.217 14.763h-.06a.722.722 0 00-.445.365 43.02 43.02 0 01-9.663 5.043h-.13a.505.505 0 00-.257.138 49.527 49.527 0 01-4.811 1.47l-1.802-6.542a.693.693 0 00-.852-.474.683.683 0 00-.485.839l1.792 6.503c-2.13.458-4.286.788-6.455.987l-.901-10.066a.712.712 0 00-.753-.621.694.694 0 00-.634.75l.911 10.046a55.217 55.217 0 01-4.069.158c-.99 0-1.98 0-3.04-.09l.921-10.114a.695.695 0 00-1.386-.128l-.91 10.223a50.422 50.422 0 01-6.496-.987l1.842-6.67a.679.679 0 00-.485-.84.693.693 0 00-.852.474l-1.861 6.73C23.188 64.51 12.297 53.191 12.297 39.07c0-11.921 6.93-21.71 18.94-26.793a.68.68 0 00-.554-1.213C18.08 16.39 10.881 26.645 10.881 39.108c0 9.246 4.426 17.328 11.772 23.062l-1.663 6.543a3.14 3.14 0 00.386 2.447 3.564 3.564 0 002.287 1.58l5.357 1.134c.266.059.539.089.812.089a3.533 3.533 0 003.475-2.546l.812-3.09a49.975 49.975 0 0013.317 2.725h.079c1.247.079 2.505.128 3.782.128 1.545 0 3.06-.07 4.554-.188a.874.874 0 00.268.06h.07a.754.754 0 00.296-.1 54.621 54.621 0 007.297-1.164c.1.055.213.086.327.09h.178a.713.713 0 00.386-.287 52.783 52.783 0 004.644-1.391l.851 3.237a3.554 3.554 0 003.476 2.576c.273 0 .545-.03.811-.09l5.367-1.135a3.525 3.525 0 002.277-1.578 3.08 3.08 0 00.386-2.438l-1.663-6.543a31.276 31.276 0 0011.435-14.862h3.169A3.47 3.47 0 0099 44.062V32.566a3.47 3.47 0 00-3.574-3.296zM31.95 71.122a2.21 2.21 0 01-2.663 1.46l-5.356-1.135a2.178 2.178 0 01-1.396-.986 1.732 1.732 0 01-.218-1.382l1.525-6.02a40.36 40.36 0 008.91 4.806l-.802 3.257zm49.228-2.043c.128.474.049.979-.218 1.391-.31.505-.815.862-1.396.987l-5.366 1.135a2.2 2.2 0 01-2.653-1.46l-.882-3.385a44.657 44.657 0 008.99-4.658l1.525 5.99z" fill="#A6C4DD"/><path d="M81.881 31.697a3.688 3.688 0 003.703-3.463 3.605 3.605 0 00-.99-2.625 3.731 3.731 0 00-3.919-.921 3.713 3.713 0 00-2.467 3.17 3.566 3.566 0 00.99 2.635 3.688 3.688 0 002.554 1.195l.13.01zm-2.317-3.77a2.304 2.304 0 012.317-2.16H82a2.32 2.32 0 011.614.75c.411.439.623 1.028.584 1.628a2.32 2.32 0 01-1.524 2.042 2.332 2.332 0 01-2.486-.582 2.216 2.216 0 01-.624-1.677z" fill="#A6C4DD"/><path d="M34.396 17.94a.675.675 0 01-.436-.157 10.003 10.003 0 01-3.594-7.638C30.611 4.533 35.246.11 40.881.11c5.635 0 10.27 4.423 10.515 10.035a9.84 9.84 0 01-.604 3.375.684.684 0 01-1.257.055.669.669 0 01-.02-.52 8.59 8.59 0 00.515-2.96c-.228-4.87-4.256-8.704-9.149-8.704-4.892 0-8.92 3.833-9.148 8.704a8.633 8.633 0 003.109 6.681.67.67 0 01.079.987.685.685 0 01-.525.178z" fill="#2364F9"/><path d="M33.228 18.671a.714.714 0 01-.584-.306.699.699 0 01.198-.987A29.78 29.78 0 0151.96 12.72a.684.684 0 11-.208 1.352 28.985 28.985 0 00-18.099 4.48.675.675 0 01-.425.12zM11.871 34.401a.467.467 0 01-.168 0c-2.653-.67-4.485-1.973-5.426-3.74A8.143 8.143 0 016 30.06C2.891 29.418.248 25.964.129 25.806a.69.69 0 01.138-.987.714.714 0 01.99.138 11.873 11.873 0 004.357 3.533 7.604 7.604 0 01.317-3.316c.841-2.072 1.9-3.315 3.148-3.71a2.592 2.592 0 012.1.217 2.802 2.802 0 011.366 2.102c.217 2.21-2.13 4.569-2.396 4.826a4.489 4.489 0 01-2.664 1.48 6.714 6.714 0 004.495 2.96.683.683 0 01.505.83.692.692 0 01-.614.522zm-1.98-11.704a1.212 1.212 0 00-.436.07c-.554.207-1.376.917-2.207 2.89a6.316 6.316 0 00-.208 3.08 3.082 3.082 0 002.138-1.105c.624-.612 2.149-2.418 1.98-3.74a1.45 1.45 0 00-.742-1.086.993.993 0 00-.525-.109z" fill="#002465"/></g></svg>