<svg width="100" height="75" xmlns="http://www.w3.org/2000/svg"><g fill-rule="nonzero" fill="none"><path d="M13.4 50.46H2.52A2.51 2.51 0 010 48V2.51A2.52 2.52 0 012.52 0H64a2.52 2.52 0 012.52 2.51v6a.7.7 0 01-1.4 0v-6A1.12 1.12 0 0064 1.39H2.52A1.12 1.12 0 001.4 2.51V48a1.12 1.12 0 001.12 1.12H13.4a.7.7 0 110 1.39v-.05z" fill="#A8C5DD"/><path d="M25.48 62.37H15.36a2.65 2.65 0 01-2.65-2.65v-49a2.65 2.65 0 012.65-2.65h66.2a2.65 2.65 0 012.65 2.65v7.87h-1.38v-7.83a1.28 1.28 0 00-1.27-1.28h-66.2a1.28 1.28 0 00-1.27 1.28v49c.016.69.58 1.24 1.27 1.24h10.12v1.37z" fill="#2969F6"/><path d="M97.23 75H27.55a2.77 2.77 0 01-2.77-2.76V20.7a2.76 2.76 0 012.77-2.76h69.68A2.76 2.76 0 01100 20.7v51.54A2.77 2.77 0 0197.23 75zM27.55 19.33a1.37 1.37 0 00-1.37 1.37v51.54c0 .757.613 1.37 1.37 1.37h69.68a1.37 1.37 0 001.37-1.37V20.7a1.37 1.37 0 00-1.37-1.37H27.55z" fill="#A8C5DD"/><path d="M59.85 28.94H50.5a.7.7 0 010-1.39h9.35a.7.7 0 110 1.39zM46.4 30.5a2.11 2.11 0 110-4.22 2.11 2.11 0 010 4.22zm0-2.83a.72.72 0 10.71.72.71.71 0 00-.71-.72zM56.47 33.86h-6a.7.7 0 010-1.39h6a.7.7 0 110 1.39zM92.39 28.94H83a.7.7 0 110-1.39h9.35a.7.7 0 110 1.39h.04zM89 33.46h-6a.7.7 0 110-1.39h6a.7.7 0 010 1.39zM46.4 35.28a2.12 2.12 0 112.11-2.11 2.11 2.11 0 01-2.11 2.11zm0-2.83a.72.72 0 10.71.72.71.71 0 00-.71-.72zM74.07 36.11c-.24 0-4.72-.08-5-5.3a5.61 5.61 0 011.38-3.73 6 6 0 018-.28A5.8 5.8 0 0180 31.23a5 5 0 01-.77 2.46c-.69 1.1-2.15 2.42-5.19 2.42h.03zm.6-9.3h-.1A4.28 4.28 0 0071.45 28a4.18 4.18 0 00-1 2.71c.23 4 3.49 4 3.62 4 1.94 0 3.29-.6 4-1.77.321-.52.51-1.11.55-1.72a4.44 4.44 0 00-1.2-3.4 4.25 4.25 0 00-2.75-1.01zM94.51 41h-53l-.05 28.5h53l.05-28.5zm-1.4 1.4v17.76c-1.67-6.65-4.79-13.79-9.32-13.79h-.17c-6.11.24-8.51 5.52-10.63 10.18-1.7 3.75-3.32 7.3-6.55 7.65-4.11.45-6.31-1.09-8.44-2.58-1.82-1.27-3.52-2.46-6.13-2.24a10.91 10.91 0 00-9 6.06V42.38l50.24.02zm0 25.71H43.18c1.78-4.57 4.67-7 8.81-7.33 2.09-.17 3.54.83 5.2 2 2.24 1.56 4.77 3.33 9.4 2.82 4-.44 5.8-4.33 7.68-8.46 2-4.5 4.16-9.15 9.41-9.36h.11c4.91-.01 8.72 12.88 9.28 20.32l.04.01z" fill="#032663"/><path d="M37.44 75a.69.69 0 01-.69-.7V18.63a.7.7 0 011.39 0V74.3a.7.7 0 01-.7.7z" fill="#A8C5DD"/></g></svg>