<svg width="100" height="75" xmlns="http://www.w3.org/2000/svg"><g fill-rule="nonzero" fill="none"><path d="M99.02 55.875V5.319a5.37 5.37 0 00-1.363-3.947A5.312 5.312 0 0093.735.02L6.265.05C2.814.06.98 1.904.98 5.387v57.059a5.39 5.39 0 001.363 3.948 5.331 5.331 0 003.922 1.352H39.97c-.177 4.056-1.961 4.697-3.383 4.934h-2.157v1.372h30.677v-1.441h-1.383c-1.44-.188-3.215-.82-3.392-4.885h33.422c3.45 0 5.284-1.855 5.274-5.339l-.01-6.513zM6.265 1.431l87.421-.06h.06a4.061 4.061 0 012.94.988c.699.82 1.05 1.882.98 2.96v51.8l-95.264.118V5.398c-.05-2.743 1.157-3.967 3.863-3.967zm54.215 71.2l-20.676.09c.804-.81 1.421-2.596 1.53-4.935H58.98a8.1 8.1 0 001.5 4.846zm33.275-6.295H6.333a4.178 4.178 0 01-2.94-.987 4.113 4.113 0 01-.981-2.96v-3.83l95.255-.069v3.878c0 2.704-1.245 3.958-3.912 3.968z" fill="#A8C5DD"/><path d="M80.97 30.148l-27.303-.138.098-20.635 27.304.138-.098 20.635zm-25.93-1.53l24.568.129.088-17.892-24.569-.098-.088 17.861zM44.99 51.503l-27.343-.138.108-20.349 27.343.139-.108 20.348zm-25.921-1.5l24.558.129.089-17.566-24.56-.129-.087 17.566z" fill="#032663"/><path d="M45.46 13.609l-24.98-.119a.679.679 0 01-.676-.68c0-.377.303-.682.676-.682l24.971.129a.679.679 0 01.481 1.155.664.664 0 01-.471.197zM38.725 18.385l-18.264-.089a.679.679 0 01-.677-.68c0-.377.303-.682.677-.682l18.274.099c.26-.032.514.09.653.312.14.222.14.506 0 .728a.675.675 0 01-.653.312h-.01zM42.53 23.21l-22.099-.108a.665.665 0 01-.475-.2.674.674 0 01-.191-.48c0-.377.303-.682.676-.682l22.098.119c.26-.032.514.09.653.312.14.222.14.505 0 .727a.675.675 0 01-.653.313h-.01zM78.324 38.329l-24.01-.118a.679.679 0 01-.478-1.16.664.664 0 01.478-.192l24.02.118a.679.679 0 01.474 1.163.664.664 0 01-.484.189zM75.431 43.125l-21.147-.109a.68.68 0 01-.595-.676.68.68 0 01.595-.676l21.138.109c.259-.032.513.09.653.312s.14.506 0 .728a.675.675 0 01-.653.312h.01zM65.824 47.882l-11.56-.06a.679.679 0 01-.477-1.159.664.664 0 01.478-.193l11.559.06a.679.679 0 01.477 1.159.664.664 0 01-.477.193z" fill="#2969F6"/></g></svg>