<svg width="99" height="75" xmlns="http://www.w3.org/2000/svg"><g fill-rule="nonzero" fill="none"><path d="M49.495 1.42c19.426 0 35.228 16.18 35.228 36.08S68.92 73.58 49.495 73.58c-19.426 0-35.228-16.18-35.228-36.08S30.07 1.42 49.495 1.42m0-1.42C29.277 0 12.861 16.79 12.861 37.5S29.277 75 49.495 75s36.634-16.79 36.634-37.5S69.713 0 49.495 0z" fill="#A8C5DD"/><path d="M28.218 21.49a.667.667 0 000-.14v-.11l-.743-5.93a.715.715 0 00-.752-.61.709.709 0 00-.604.79l.544 4.32L1.1.18a.688.688 0 00-.99.14.715.715 0 00.139 1L25.89 21l-4.337 1a.71.71 0 00-.524.84.685.685 0 00.673.55h.148l5.664-1.27a.728.728 0 00.366-.12l.08-.07.089-.07a.341.341 0 00.059-.12.613.613 0 00.109-.25zM98.861.32a.692.692 0 00-.99-.14L72.327 19.81l.544-4.32a.709.709 0 00-.604-.79.714.714 0 00-.772.61l-.743 5.93v.11a.717.717 0 000 .14.613.613 0 00.05.12.673.673 0 00.06.12.268.268 0 00.079.07l.079.07c.11.072.236.114.366.12l5.664 1.27h.148a.685.685 0 00.673-.55.71.71 0 00-.524-.84l-4.337-1L98.723 1.31a.715.715 0 00.138-.99zM98.723 73.73L73.099 54.06l4.337-1a.711.711 0 00-.297-1.38L71.436 53a.758.758 0 00-.386.14.517.517 0 00-.11.1.673.673 0 00-.059.12.613.613 0 00-.05.12.717.717 0 000 .14v.11l.743 5.93c.05.349.344.609.693.61a.709.709 0 00.604-.79l-.544-4.32 25.564 19.7c.121.089.266.138.416.14a.704.704 0 00.651-.487.714.714 0 00-.235-.783zM28.228 53.69a.667.667 0 000-.14.613.613 0 00-.05-.12.341.341 0 00-.06-.12 1.083 1.083 0 01-.108-.1.758.758 0 00-.386-.14l-5.703-1.28a.711.711 0 00-.297 1.38l4.336 1L.267 73.73a.711.711 0 00-.138 1 .71.71 0 00.554.27.718.718 0 00.416-.14l25.564-19.63-.544 4.32a.709.709 0 00.604.79h.079a.705.705 0 00.693-.61l.743-5.93s-.01-.07-.01-.11z" fill="#032663"/><path d="M49.495 16.55c8.356-.065 15.924 4.969 19.166 12.747 3.243 7.778 1.517 16.764-4.368 22.755-5.886 5.99-14.769 7.802-22.495 4.587C34.072 53.425 29.03 45.82 29.03 37.38c-.033-11.455 9.123-20.775 20.465-20.83m0-1.41c-8.922-.073-17.006 5.3-20.47 13.604-3.465 8.304-1.625 17.9 4.658 24.297 6.284 6.398 15.769 8.334 24.019 4.903 8.25-3.432 13.634-11.552 13.635-20.564a22.266 22.266 0 00-6.36-15.689 21.823 21.823 0 00-15.482-6.551z" fill="#A8C5DD"/><path d="M58.406 43.74l-.119-.19v-.07l-.119-.23-.069-.16c0-.12-.099-.26-.158-.42l-.07-.21c0-.12-.069-.25-.109-.38-.04-.13 0-.19-.069-.29-.07-.1-.099-.44-.139-.68-.04-.24 0-.24 0-.36s0-.39-.059-.6c-.06-.21 0-.25 0-.38V38.6a7.313 7.313 0 003.208-4.82c.05-.297.07-.599.06-.9v-.09-.25a6.574 6.574 0 00-1.585-3.81 8.382 8.382 0 00-3.96-2.44 10.616 10.616 0 00-4.396-.64h-.07c-.792 0-5.584.07-6.93 2.59a3.71 3.71 0 00-2.763.35c-.264.177-.496.4-.683.66a3.614 3.614 0 00-.732 2.29 8.123 8.123 0 001.207 4.95 2.818 2.818 0 001.773 1.46c-.357 2.87-.99 3.83-1.287 4.16a.99.99 0 01-.179.13l-.683.36.426.65c.158.24 3.96 6 8.287 6.2h1.248a9.884 9.884 0 008.297-4.9l.217-.42-.297-.36-.247-.03zm-.297-8.88a.703.703 0 00.317-.93.68.68 0 00-.911-.32s-.218.1-.604.24a19.796 19.796 0 01-7.604 1 12.086 12.086 0 01-6.208-2.92.679.679 0 00-.99.11.715.715 0 00.109 1l.455.35v.08c0 .92 0 2-.099 3a2.762 2.762 0 01-.732-.67 10.607 10.607 0 01-.99-4.23 2.79 2.79 0 01.405-1.44c.052-.07.112-.134.179-.19.77-.43 1.689-.5 2.514-.19l.595.25.207-.75c.525-1.85 4.406-2.25 5.832-2.25 1.401.004 2.795.21 4.139.61a7.843 7.843 0 014.515 5.08v.52c-.011.263-.048.524-.11.78a6.417 6.417 0 01-1.663 2.6c0-.48.12-1 .208-1.51.156-.065.308-.138.456-.22h-.02zm-8.317 13.21h-.723c-2.97-.16-5.861-3.72-6.861-5.07a6.23 6.23 0 001.228-2.81 29.39 29.39 0 00.614-5.88 11.907 11.907 0 005.188 1.93h1.386a20.921 20.921 0 005.604-.71c-.12.82-.178 1.56-.218 2.25v2.88c0 .15 0 .31.07.47l.059.36c0 .17.059.32.089.48l.06.25a10.342 10.342 0 00.356 1.15v.11c0 .12.099.24.148.34.013.032.03.062.05.09 0 .1.089.18.128.26.04.08 0 0 0 0a8.464 8.464 0 01-7.178 3.9z" fill="#2969F6"/><path d="M47.04 40a.995.995 0 00.984-.97.996.996 0 00-.925-1.028.993.993 0 00-1.05.898c-.028.282.064.563.253.773.189.21.457.328.738.327zM52.386 40.34c.573.027 1.06-.42 1.087-1a1.046 1.046 0 00-.989-1.098 1.044 1.044 0 00-1.088.998c-.028.282.064.563.253.773.188.21.456.328.737.327zM53.881 42.53a6.522 6.522 0 01-7.732.16.669.669 0 00-.99.12.695.695 0 00.118 1 8.044 8.044 0 004.584 1.46 8.242 8.242 0 004.743-1.57.7.7 0 00.188-1 .679.679 0 00-.91-.17z" fill="#2969F6"/></g></svg>