<?xml version="1.0" encoding="UTF-8"?>
<svg width="99px" height="75px" viewBox="0 0 99 75" version="1.1" xmlns="http://www.w3.org/2000/svg" xmlns:xlink="http://www.w3.org/1999/xlink">
    <!-- Generator: sketchtool 59 (101010) - https://sketch.com -->
    <title>F7E15A7A-BEF3-45D8-9929-50ED0403AFC9</title>
    <desc>Created with sketchtool.</desc>
    <g id="Page-1" stroke="none" stroke-width="1" fill="none" fill-rule="evenodd">
        <g id="Icons" transform="translate(-1094.000000, -2713.000000)" fill-rule="nonzero">
            <g id="mid-icon-designedforyouruser" transform="translate(1093.000000, 2713.000000)">
                <path d="M50.4950495,1.42 C69.9207921,1.42 85.7227723,17.6 85.7227723,37.5 C85.7227723,57.4 69.9207921,73.58 50.4950495,73.58 C31.0693069,73.58 15.2673267,57.4 15.2673267,37.5 C15.2673267,17.6 31.0693069,1.42 50.4950495,1.42 M50.4950495,0 C30.2772277,0 13.8613861,16.79 13.8613861,37.5 C13.8613861,58.21 30.2772277,75 50.4950495,75 C70.7128713,75 87.1287129,58.21 87.1287129,37.5 C87.1287129,16.79 70.7128713,0 50.4950495,0 Z" id="Shape" fill="#A8C5DD"></path>
                <path d="M29.2178218,21.49 C29.2227361,21.4434653 29.2227361,21.3965347 29.2178218,21.35 C29.2178218,21.35 29.2178218,21.28 29.2178218,21.24 L28.4752475,15.31 C28.4194759,14.9400674 28.0924327,14.6749473 27.7227723,14.7 C27.3412381,14.751878 27.0719923,15.1040603 27.1188119,15.49 L27.6633663,19.81 L2.0990099,0.18 C1.95071696,0.0621874703 1.76127826,0.0105283383 1.57442856,0.0369488861 C1.38757886,0.063369434 1.21946944,0.165585869 1.10891089,0.32 C0.994954402,0.470788357 0.945479711,0.66136408 0.971520124,0.849227055 C0.997560536,1.03709003 1.09695036,1.20661631 1.24752475,1.32 L26.8910891,21 L22.5544554,22 C22.1824693,22.0892749 21.9493389,22.4624595 22.029703,22.84 C22.0957399,23.161918 22.3774769,23.3920723 22.7029703,23.3900139 L22.8514851,23.3900139 L28.5148515,22.12 L28.5148515,22.12 C28.6453738,22.1137101 28.7718557,22.0722787 28.8811881,22 C28.8811881,22 28.8811881,22 28.8811881,22 L28.960396,21.93 L29.049505,21.86 L29.049505,21.86 L29.049505,21.86 C29.0770018,21.8243822 29.0971969,21.7835881 29.1089109,21.74 C29.163457,21.6660522 29.200694,21.5805765 29.2178218,21.49 Z" id="Path" fill="#032663"></path>
                <path d="M99.8613861,0.32 C99.7508276,0.165585869 99.5827182,0.063369434 99.3958685,0.0369488861 C99.2090188,0.0105283383 99.0195801,0.0621874703 98.8712871,0.18 L73.3267327,19.81 L73.8712871,15.49 C73.9181067,15.1040603 73.648861,14.751878 73.2673267,14.7 C72.8903505,14.6638991 72.5512107,14.9317761 72.4950495,15.31 L71.7524752,21.24 C71.7524752,21.24 71.7524752,21.31 71.7524752,21.35 C71.7479087,21.3965527 71.7479087,21.4434473 71.7524752,21.49 C71.7646976,21.5316668 71.7812935,21.5718952 71.8019802,21.61 C71.8177571,21.6519067 71.8376588,21.6921082 71.8613861,21.73 L71.8613861,21.73 L71.8613861,21.73 C71.8829352,21.7584041 71.9098596,21.7821985 71.9405941,21.8 L72.019802,21.87 L72.019802,21.87 C72.1291344,21.9422787 72.2556163,21.9837101 72.3861386,21.99 L72.3861386,21.99 L78.049505,23.2600139 L78.1980198,23.2600139 C78.5235132,23.2620723 78.8052502,23.031918 78.8712871,22.71 C78.9516512,22.3324595 78.7185208,21.9592749 78.3465347,21.87 L74.009901,20.87 L99.7227723,1.31 C100.030206,1.07437622 100.092077,0.632483092 99.8613861,0.32 Z" id="Path" fill="#032663"></path>
                <path d="M99.7227723,73.73 L74.0990099,54.06 L78.4356436,53.06 C78.7773377,52.9461296 78.9787379,52.5900465 78.9023029,52.2349292 C78.8258678,51.8798118 78.4962758,51.6403161 78.1386139,51.68 L72.4356436,53 C72.2966829,53.0101538 72.163134,53.0585739 72.049505,53.14 L72.049505,53.14 C72.0086467,53.167893 71.9719684,53.2015704 71.9405941,53.24 L71.9405941,53.24 C71.9405941,53.24 71.9405941,53.24 71.9405941,53.24 C71.9168667,53.2778918 71.896965,53.3180933 71.8811881,53.36 C71.8605014,53.3981048 71.8439056,53.4383332 71.8316832,53.48 C71.8271167,53.5265527 71.8271167,53.5734473 71.8316832,53.62 C71.8316832,53.62 71.8316832,53.69 71.8316832,53.73 L72.5742574,59.66 C72.6233942,60.0088689 72.9184375,60.2685491 73.2673267,60.27 L73.2673267,60.27 C73.648861,60.218122 73.9181067,59.8659397 73.8712871,59.48 L73.3267327,55.16 L98.8910891,74.86 C99.0120126,74.9490176 99.1573102,74.9979344 99.3069307,75 C99.6041399,74.9931384 99.8649428,74.7981892 99.9582861,74.5131142 C100.051629,74.2280391 99.9573297,73.91448 99.7227723,73.73 L99.7227723,73.73 Z" id="Path" fill="#032663"></path>
                <path d="M29.2277228,53.69 C29.2326371,53.6434653 29.2326371,53.5965347 29.2277228,53.55 C29.2155004,53.5083332 29.1989045,53.4681048 29.1782178,53.43 C29.1665038,53.3864119 29.1463087,53.3456178 29.1188119,53.31 C29.1188119,53.31 29.1188119,53.31 29.1188119,53.31 L29.1188119,53.31 C29.0802973,53.2792088 29.0439091,53.2457978 29.009901,53.21 L29.009901,53.21 C28.8962719,53.1285739 28.7627231,53.0801538 28.6237624,53.07 L22.9207921,51.79 C22.5631301,51.7503161 22.2335382,51.9898118 22.1571031,52.3449292 C22.080668,52.7000465 22.2820683,53.0561296 22.6237624,53.17 L26.960396,54.17 L1.26732673,73.73 C1.11675234,73.8433837 1.01736252,74.01291 0.991322104,74.2007729 C0.965281692,74.3886359 1.01475638,74.5792116 1.12871287,74.73 C1.26355579,74.9001048 1.46741912,74.9993789 1.68316832,75 C1.83278882,74.9979344 1.97808642,74.9490176 2.0990099,74.86 L27.6633663,55.23 L27.1188119,59.55 C27.0719923,59.9359397 27.3412381,60.288122 27.7227723,60.34 L27.8019802,60.34 C28.1508695,60.3385491 28.4459127,60.0788689 28.4950495,59.73 L29.2376238,53.8 C29.2376238,53.8 29.2277228,53.73 29.2277228,53.69 Z" id="Path" fill="#032663"></path>
                <path d="M50.4950495,16.55 C58.8506992,16.4851746 66.4193542,21.5189337 69.6614945,29.2972143 C72.9036349,37.0754948 71.1784705,46.060965 65.2927832,52.0515241 C59.4070959,58.0420831 50.5241575,59.8537319 42.7981193,56.6392437 C35.0720811,53.4247555 30.0296146,45.8194551 30.0296146,37.38 C29.9968071,25.924584 39.153137,16.6051057 50.4950495,16.55 M50.4950495,15.14 C41.5730081,15.0670647 33.4892542,20.4391791 30.0247831,28.7436567 C26.560312,37.0481343 28.3999881,46.6433274 34.6833439,53.0412989 C40.9666997,59.4392704 50.4516275,61.3752551 58.7017643,57.9437393 C66.9519011,54.5122235 72.3363414,46.391557 72.3368157,37.38 C72.3603149,31.5054401 70.0724471,25.8619907 65.9763451,21.6911711 C61.8802432,17.5203515 56.3114459,15.1638211 50.4950495,15.14 Z" id="Shape" fill="#A8C5DD"></path>
                <path d="M59.4059406,43.74 L59.4059406,43.74 L59.2871287,43.55 L59.2871287,43.48 L59.1683168,43.25 L59.0990099,43.09 C59.0990099,42.97 59,42.83 58.9405941,42.67 L58.8712871,42.46 C58.8712871,42.34 58.8019802,42.21 58.7623762,42.08 C58.7227723,41.95 58.7623762,41.89 58.6930693,41.79 C58.6237624,41.69 58.5940594,41.35 58.5544554,41.11 C58.5148515,40.87 58.5544554,40.87 58.5544554,40.75 C58.5544554,40.63 58.5544554,40.36 58.4950495,40.15 C58.4356436,39.94 58.4950495,39.9 58.4950495,39.77 C58.4950495,39.46 58.4950495,39.11 58.4950495,38.77 L58.4950495,38.6 C60.177513,37.5097112 61.3385871,35.7651615 61.7029703,33.78 C61.7529703,33.4828146 61.772875,33.1812589 61.7623762,32.88 L61.7623762,32.79 C61.7623762,32.71 61.7623762,32.62 61.7623762,32.54 L61.7623762,32.54 C61.6558963,31.1304546 61.1000877,29.7937002 60.1782178,28.73 C59.111171,27.5571432 57.7386415,26.7115278 56.2178218,26.29 C54.8128311,25.7688421 53.3153051,25.5508239 51.8217822,25.65 L51.7524752,25.65 C50.960396,25.65 46.1683168,25.72 44.8217822,28.24 C43.8906875,27.9935517 42.9013769,28.1188999 42.0594059,28.59 C41.7946703,28.7672614 41.5633309,28.9907554 41.3762376,29.25 C40.8784211,29.9054575 40.6196485,30.7142618 40.6435644,31.54 L40.6435644,31.54 L40.6435644,31.54 C40.5053263,33.2785397 40.9291775,35.0154612 41.8514851,36.49 C42.2107565,37.2082949 42.8548791,37.7389224 43.6237624,37.95 C43.2673267,40.82 42.6336634,41.78 42.3366337,42.11 C42.2821898,42.1598807 42.2224155,42.2034827 42.1584158,42.24 L42.1584158,42.24 L41.4752475,42.6 L41.9009901,43.25 C42.0594059,43.49 45.8613861,49.25 50.1881188,49.45 L50.9108911,49.45 L51.4356436,49.45 C54.8534147,49.3729261 57.9900274,47.520528 59.7326733,44.55 L59.950495,44.13 L59.6534653,43.77 L59.4059406,43.74 Z M59.1089109,34.86 C59.4486744,34.6897754 59.5898645,34.2753383 59.4257426,33.93 C59.2612141,33.5881324 58.8539196,33.445048 58.5148515,33.61 C58.5148515,33.61 58.2970297,33.71 57.9108911,33.85 L57.9108911,33.85 C55.4639362,34.6760624 52.8817362,35.0156486 50.3069307,34.85 C48.0030376,34.4986046 45.8479565,33.4849259 44.0990099,31.93 C43.9556148,31.8061904 43.7679128,31.74778 43.5803935,31.7686134 C43.3928743,31.7894468 43.2222313,31.8876693 43.1089109,32.04 C42.9917069,32.1870539 42.9373121,32.3751963 42.957749,32.5628441 C42.9781859,32.7504918 43.0717716,32.9221937 43.2178218,33.04 L43.6732673,33.39 C43.6732673,33.39 43.6732673,33.39 43.6732673,33.47 C43.6732673,34.39 43.6732673,35.47 43.5742574,36.47 C43.2920078,36.2931456 43.0437824,36.0661535 42.8415842,35.8 C42.223601,34.4749872 41.886371,33.0342393 41.8514851,31.57 L41.8514851,31.57 C41.8533587,31.0614647 41.993803,30.5632642 42.2574257,30.13 C42.3089099,30.0595396 42.3687635,29.995729 42.4356436,29.94 C43.20637,29.5092462 44.1248954,29.4398505 44.950495,29.75 L45.5445545,30 L45.7524752,29.25 C46.2772277,27.4 50.1584158,27 51.5841584,27 L51.5841584,27 C52.9853486,27.0041955 54.3788312,27.2095841 55.7227723,27.61 C57.9143656,28.5216705 59.5759689,30.3912656 60.2376238,32.69 C60.2376238,32.97 60.2376238,33.17 60.2376238,33.21 C60.2268177,33.4729859 60.1903372,33.7342524 60.1287129,33.99 C59.7928905,34.9809013 59.2217824,35.8735975 58.4653465,36.59 C58.4653465,36.11 58.5841584,35.59 58.6732673,35.08 C58.8289684,35.0151721 58.9810141,34.9417274 59.1287129,34.86 L59.1089109,34.86 Z M50.7920792,48.07 L50.0693069,48.07 C47.0990099,47.91 44.2079208,44.35 43.2079208,43 C43.8440318,42.1821602 44.2662275,41.2158429 44.4356436,40.19 C44.8373237,38.2561226 45.0430048,36.2859627 45.049505,34.31 C46.6062345,35.3530885 48.3829159,36.0140207 50.2376238,36.24 L51.6237624,36.24 C53.514798,36.2578177 55.3996358,36.0190161 57.2277228,35.53 C57.1089109,36.35 57.049505,37.09 57.009901,37.78 L57.009901,37.78 L57.009901,39.2 C57.009901,39.37 57.009901,39.53 57.009901,39.7 C57.009901,39.87 57.009901,40.05 57.009901,40.21 C57.009901,40.37 57.009901,40.51 57.009901,40.66 C57.009901,40.81 57.009901,40.97 57.0792079,41.13 L57.1386139,41.49 C57.1386139,41.66 57.1980198,41.81 57.2277228,41.97 L57.2871287,42.22 C57.3465347,42.4533333 57.4059406,42.6633333 57.4653465,42.85 L57.4653465,42.85 C57.5247525,43.04 57.5841584,43.21 57.6435644,43.37 L57.6435644,43.48 C57.6435644,43.6 57.7425743,43.72 57.7920792,43.82 C57.8047711,43.8519817 57.8214038,43.8822201 57.8415842,43.91 C57.8415842,44.01 57.9306931,44.09 57.970297,44.17 C58.009901,44.25 57.970297,44.17 57.970297,44.17 C56.3929037,46.6216159 53.6868493,48.0918433 50.7920792,48.07 L50.7920792,48.07 Z" id="Shape" fill="#2969F6"></path>
                <path d="M48.039604,40.0000126 C48.5729045,39.9972994 49.0082679,39.568456 49.0242918,39.0300588 C49.0403157,38.4916617 48.631242,38.0371808 48.0990649,38.0021318 C47.5668879,37.9670828 47.1028424,38.3640603 47.049505,38.9 C47.021433,39.18207 47.113217,39.4629188 47.3020258,39.6726854 C47.4908347,39.882452 47.758923,40.0014214 48.039604,40.0000126 Z" id="Path" fill="#2969F6"></path>
                <path d="M53.3861386,40.34 C53.9593702,40.3669118 54.4457774,39.919623 54.472856,39.3406795 C54.4999347,38.7617361 54.0574422,38.2701269 53.4842515,38.2423399 C52.9110608,38.2145529 52.4239848,38.6610986 52.3960396,39.24 C52.3679676,39.52207 52.4597517,39.8029188 52.6485605,40.0126854 C52.8373693,40.222452 53.1054576,40.3414214 53.3861386,40.34 Z" id="Path" fill="#2969F6"></path>
                <path d="M54.8811881,42.53 C52.6106017,44.2710087 49.4877948,44.335624 47.1485149,42.69 C47.0050521,42.5643213 46.8157091,42.5056822 46.6271527,42.5285352 C46.4385963,42.5513883 46.2683653,42.6536078 46.1584158,42.81 C46.0368935,42.956118 45.9807108,43.1465417 46.0032218,43.3360095 C46.0257329,43.5254774 46.1249273,43.6970693 46.2772277,43.81 C47.6237932,44.7539813 49.2222601,45.263074 50.8613861,45.27 C52.5643124,45.2506625 54.2200989,44.7025246 55.6039604,43.7 C55.7646149,43.596225 55.8758346,43.4301766 55.911431,43.2409536 C55.9470274,43.0517306 55.9038549,42.8560544 55.7920792,42.7 C55.5786473,42.4123386 55.1823079,42.3383696 54.8811881,42.53 L54.8811881,42.53 Z" id="Path" fill="#2969F6"></path>
            </g>
        </g>
    </g>
</svg>