<svg width="100" height="75" xmlns="http://www.w3.org/2000/svg"><g fill-rule="nonzero" fill="none"><path d="M65.19 61.34H13.42a.7.7 0 100 1.39h51.77a.7.7 0 100-1.39z" fill="#A8C5DD"/><path d="M96.54 0H3.46A3.45 3.45 0 000 3.42v68.16A3.45 3.45 0 003.46 75h93.08a3.45 3.45 0 003.46-3.42V3.42A3.45 3.45 0 0096.54 0zM3.46 1.39h93.08a2 2 0 012.06 2v8.85h-6.16a.7.7 0 100 1.39h6.16v10.91H33a.7.7 0 100 1.39h65.6V36.8H52.69a.7.7 0 000 1.4H98.6v10.87h-97a.53.53 0 00-.18 0v-11c.06.01.12.01.18 0h44.6a.7.7 0 000-1.4H1.58a.531.531 0 00-.18 0v-11c.06.01.12.01.18 0h24.9a.7.7 0 100-1.39H1.58a1.003 1.003 0 00-.18 0v-11c.06.01.12.01.18 0h84.08a.7.7 0 100-1.39H1.58a1.003 1.003 0 00-.18 0V3.42a2.001 2.001 0 012.06-2.03zm93.08 72.22H3.46a2 2 0 01-2.06-2V62.7a1 1 0 00.18 0h5.07a.7.7 0 100-1.39H1.58a.53.53 0 00-.18 0v-11a1 1 0 00.18 0h97v11.03H73a.7.7 0 100 1.39h25.6v8.85a2.001 2.001 0 01-2.06 2.03z" fill="#A8C5DD"/><path d="M9.8 59.42a.7.7 0 01-.7-.65c0-.47 0-1-.07-1.6-.32-8.88.73-29.8 17.22-32.38a.7.7 0 11.22 1.38c-15.38 2.41-16.35 22.44-16 30.95 0 .58 0 1.11.07 1.57a.69.69 0 01-.66.73H9.8zM47.86 35.11a.71.71 0 01-.62-.36A16.83 16.83 0 0033 25.85a.7.7 0 01-.416-1.22.69.69 0 01.506-.17 18.23 18.23 0 0115.43 9.63.69.69 0 01-.29.94.64.64 0 01-.37.08zM65.81 62.84h-.12C53.37 60.62 50 46.65 49.07 40.75a.69.69 0 01.58-.79.7.7 0 01.8.58c.85 5.61 4.06 18.87 15.48 20.92a.693.693 0 11-.12 1.38zM72.45 62.73a.69.69 0 01-.17-1.37C78.78 59.74 83.4 52.85 86 40.9a115.62 115.62 0 002.21-25 .72.72 0 01.69-.71.7.7 0 01.7.69c.14 10-.67 42.73-17 46.81a.52.52 0 01-.15.04z" fill="#032663"/><path d="M10 65.84A3.85 3.85 0 1113.87 62 3.87 3.87 0 0110 65.84zm0-6.31A2.47 2.47 0 1012.48 62 2.49 2.49 0 0010 59.53zM29.69 29.34a3.85 3.85 0 113.91-3.85 3.88 3.88 0 01-3.91 3.85zm0-6.33a2.48 2.48 0 101.777.712A2.5 2.5 0 0029.69 23v.01zM49.41 41.22a3.91 3.91 0 11.4 0h-.4zm0-6.33a2.5 2.5 0 100 5h.26a2.47 2.47 0 002.26-2.46 2.5 2.5 0 00-2.52-2.54zM69.13 65.57a3.91 3.91 0 01-3.87-3.31 4.89 4.89 0 010-.54 3.91 3.91 0 113.9 3.85h-.03zm0-6.33a2.5 2.5 0 00-2.52 2.48v.34a2.52 2.52 0 102.5-2.82h.02zM88.85 16.46a3.85 3.85 0 113.91-3.85 3.88 3.88 0 01-3.91 3.85zm0-6.33a2.48 2.48 0 102.53 2.48 2.5 2.5 0 00-2.53-2.48z" fill="#2969F6"/></g></svg>