<svg width="100" height="75" xmlns="http://www.w3.org/2000/svg"><g fill-rule="nonzero" fill="none"><path d="M17.891 28.773h19.04v-10.91H17.89C8.048 17.864.07 25.714.07 35.397c0 9.683 7.98 17.533 17.822 17.533h11.594a.533.533 0 00.168 0H36.941V41.99H17.89c-2.461.093-4.778-1.146-6.036-3.229a6.521 6.521 0 010-6.76c1.258-2.082 3.575-3.321 6.036-3.228zm17.654-1.354h-5.208v-8.201h5.208v8.2zm0 24.204h-5.208v-8.27h5.208v8.27zM9.802 35.377c.01 4.407 3.649 7.973 8.129 7.967h11.02v8.28H17.89c-5.872 0-11.298-3.082-14.234-8.085a15.942 15.942 0 010-16.169c2.936-5.003 8.362-8.084 14.234-8.084h11.06v8.201H17.89c-4.453-.006-8.08 3.519-8.129 7.9l.04-.01z" fill="#A8C5DD"/><path d="M74.386 19.208a1.37 1.37 0 001.31-.761 1.327 1.327 0 00-.218-1.482 1.382 1.382 0 00-1.476-.364c-.521.184-.878.66-.903 1.204-.019.354.106.701.348.964.241.263.58.421.94.439zM81.515 19.705a1.357 1.357 0 001.413-1.29 1.353 1.353 0 00-1.303-1.397 1.358 1.358 0 00-1.427 1.274c-.016.36.114.71.36.975.248.265.592.422.957.438zM84.396 23.805a.665.665 0 00.14-.901.69.69 0 00-.902-.21 9.16 9.16 0 01-10.565.205.69.69 0 00-.744-.2.673.673 0 00-.459.61.671.671 0 00.411.642 10.726 10.726 0 005.94 1.831 11.013 11.013 0 006.179-1.977z" fill="#2969F6"/><path d="M99.01 64.919c0-29.63-3.663-31.578-4.95-32.25-.753-.429-6.931-1.948-10.12-2.66a13.309 13.309 0 005.545-4.977l.228-.399-.297-.35a.287.287 0 010-.069l-.05-.068v-.049l-.109-.175c-.445-.78-1.346-2.834-1.287-6.623.99-.643 3.812-2.718 4.268-6.01.081-.43.108-.869.079-1.305a1.85 1.85 0 000-.224v-.078a8.05 8.05 0 00-2.139-4.812 10.744 10.744 0 00-4.95-2.98 14.441 14.441 0 00-6.08-.916c-.366 0-7.495 0-9.158 3.37a4.953 4.953 0 00-3.653.39 3.335 3.335 0 00-.862.798 4.365 4.365 0 00-.93 2.806 9.99 9.99 0 001.524 6.272 3.554 3.554 0 002.297 1.812h.139c-.426 3.458-1.139 4.87-1.654 5.494-.047.06-.1.115-.158.165a1.297 1.297 0 01-.277.195l-.683.34.425.634a23.89 23.89 0 007.01 6.643c-2.97.701-9.663 2.289-10.455 2.737l-.109.049c-1.426.555-4.772 1.88-4.772 32.142a9.142 9.142 0 002.06 6.604 8.604 8.604 0 006.227 2.601h24.554a8.606 8.606 0 006.287-2.562 8.93 8.93 0 002.05-6.545zm-9.901-52.442a.677.677 0 00.317-.896.708.708 0 00-.921-.312c-.275.13-.56.242-.852.332a27.368 27.368 0 01-10.207 1.237s-3.852-.176-8.456-3.78a.69.69 0 00-.99.108.646.646 0 00.109.974c.238.194.475.36.713.535a.623.623 0 000 .195c0 1.237 0 2.737-.159 4.247a3.942 3.942 0 01-1.336-1.14 13.7 13.7 0 01-1.436-5.571 3.784 3.784 0 01.604-1.948c.081-.098.17-.19.267-.273.733-.594 1.98-.682 3.565-.282l.653.253.208-.72c.703-2.494 5.94-3.05 7.92-3.05a20.63 20.63 0 015.446.76c3.046 1.165 5.374 3.65 6.307 6.73a4.57 4.57 0 010 .702 4.49 4.49 0 01-.158 1.042 9.046 9.046 0 01-2.713 3.896c.07-.818.188-1.714.357-2.669.445-.243.683-.35.762-.37zM67.663 23.065a5.32 5.32 0 001.179-1.948v-.146c.079-.205.148-.41.217-.633.07-.224.159-.517.228-.79.583-2.642.865-5.34.842-8.045a16.18 16.18 0 007.148 2.65h1.832c2.617.03 5.227-.297 7.752-.974a31.638 31.638 0 00-.346 3.311v2.25c0 .166 0 .585.07.857.068.273 0 .283 0 .42 0 .301.078.584.128.856a2.08 2.08 0 000 .244c.06.35.138.682.218.974a.182.182 0 000 .078c.069.273.148.526.227.75l.06.165c.07.195.138.38.208.546l.06.117c.078.185.158.35.227.497l.237.399c-2.194 3.339-6.021 5.284-10.059 5.113l-.99-.048c-3.98-.117-8.01-5.016-9.238-6.643zm9.357 8.104h1.673c1.17.003 2.334-.161 3.456-.487.089.175.252.303.445.35l2.287.536a10.226 10.226 0 01-6.831 2.523 10.758 10.758 0 01-6.149-2.484l2.356-.545a.679.679 0 00.466-.429 7.658 7.658 0 002.297.536zm13.693 41.493l.881-31.5a.666.666 0 00-.186-.48.688.688 0 00-.477-.211.708.708 0 00-.703.652l-.881 31.569H67.455l-.88-31.569a.708.708 0 00-.704-.652.688.688 0 00-.477.21.666.666 0 00-.186.481l.871 31.5a7.27 7.27 0 01-5.178-2.094 7.945 7.945 0 01-1.713-5.65c0-13.421.683-29.687 3.96-30.963.096-.035.189-.077.278-.127.425-.224 3.435-.974 6.93-1.831a12.419 12.419 0 007.694 3.438h.415a12.155 12.155 0 008.08-3.448c3.475.838 6.505 1.617 6.93 1.84l.1.05c2.643 1.422 4.098 12.448 4.108 31.168A7.849 7.849 0 0196 70.607a7.272 7.272 0 01-5.287 2.055z" fill="#2969F6"/><path d="M63.02 22.724a.48.48 0 000-.117.412.412 0 000-.107.728.728 0 000-.156.585.585 0 000-.107l-.07-.107-.079-.098-.089-.068-.138-.078-13.396-4.772h-.238a.533.533 0 00-.168 0h-.1l-.108.078a.407.407 0 00-.11.068l-.059.097a.554.554 0 00-.079.127.48.48 0 000 .117.412.412 0 000 .117v3.798l-7.604.263-.198.049h-.06a.445.445 0 00-.138.097.237.237 0 00-.08.059l-.058.097a.554.554 0 00-.08.127v.234a.546.546 0 000 .136.403.403 0 000 .117.35.35 0 00.07.097c.026.041.056.08.089.117l.079.049a.707.707 0 00.148.078l12.753 4.237c.072.01.146.01.218 0a.694.694 0 00.237 0h.07a.703.703 0 00.138-.098l.06-.058a.625.625 0 00.099-.127v-.078c0-.029 0 0 0 0a.47.47 0 000-.117.364.364 0 000-.097v-3.526h8.247a.703.703 0 00.248-.049h.07l.138-.087.06-.059a.692.692 0 00.098-.136v-.068s.03-.04.03-.049zm-10.188-.906v3.896l-8.228-2.688 5.099-.175v-4.13l8.713 3.097h-5.584zM56.327 48.097a.738.738 0 000-.146.268.268 0 000-.117v-.107a.976.976 0 00-.12-.156v-.058a.587.587 0 00-.187-.107.362.362 0 00-.149 0 .251.251 0 00-.119 0l-13.841 1.217a.453.453 0 00-.109 0 .533.533 0 00-.119 0 .405.405 0 00-.129.098.266.266 0 00-.079.068.399.399 0 00-.07.107.648.648 0 00-.058.117.22.22 0 000 .117.652.652 0 000 .146c.01.054.027.106.049.156v.078L43 52.802l-6.525 3.331a.534.534 0 00-.119.088l-.089.078a.436.436 0 00-.06.117.582.582 0 00-.058.107.431.431 0 000 .107.958.958 0 000 .156c.013.063.033.125.059.185a.648.648 0 00.228.234h.069a.661.661 0 00.307.087h.089l12.97-1.568a.936.936 0 00.129 0h.08a.496.496 0 00.118-.078.798.798 0 00.099-.088l.06-.107a.436.436 0 00.059-.117.24.24 0 000-.116.364.364 0 000-.147.278.278 0 000-.097.508.508 0 000-.117l-1.475-3.039 7.128-3.321.129-.098.09-.068.059-.117.069-.107a.493.493 0 00-.09-.01zm-7.683 6.614l-8.208.974 4.316-2.201-1.762-3.624 8.822-.837-4.822 2.25 1.654 3.438zM56.95 35.961v-.117a.456.456 0 00-.079-.136s0-.068-.069-.088a.277.277 0 00-.109-.078.385.385 0 00-.099-.078H46.317v-4.412-.107-.107c0-.04 0 0 0 0a.554.554 0 00-.08-.127l-.059-.097-.109-.078-.109-.078h-.109a.765.765 0 00-.158 0h-.218L30.04 35.425a.641.641 0 00-.387.312.585.585 0 000 .107.403.403 0 000 .156.24.24 0 000 .117.546.546 0 000 .127v.058c.028.055.06.108.1.156h.049l.139.097h.069c.066.01.132.01.198 0h.06l9.267.322v4.909a.48.48 0 000 .117v.116a.201.201 0 000 .059c.02.05.05.097.089.136l.06.059a.546.546 0 00.138.087h.07a.703.703 0 00.247.05c.075.01.152.01.227 0l16.09-5.718a.566.566 0 00.128-.078l.1-.059a.975.975 0 00.078-.107l.07-.107v-.107a.728.728 0 000-.156s.118-.039.118-.117zM34.1 35.532l10.832-3.535v4.753h7.406L40.88 40.821v-5.055l-6.782-.234z" fill="#032663"/></g></svg>