<?xml version="1.0" encoding="UTF-8"?>
<svg width="100px" height="75px" viewBox="0 0 100 75" version="1.1" xmlns="http://www.w3.org/2000/svg" xmlns:xlink="http://www.w3.org/1999/xlink">
    <!-- Generator: sketchtool 59 (101010) - https://sketch.com -->
    <title>28143619-E8F6-4E76-B69A-0C87D92D70DB</title>
    <desc>Created with sketchtool.</desc>
    <g id="Page-1" stroke="none" stroke-width="1" fill="none" fill-rule="evenodd">
        <g id="Icons" transform="translate(-614.000000, -2716.000000)" fill-rule="nonzero">
            <g id="mid-icon-engaging" transform="translate(614.000000, 2716.000000)">
                <path d="M17.8910891,28.7727273 L36.9306931,28.7727273 L36.9306931,17.8636364 L17.8910891,17.8636364 C8.0483906,17.8636364 0.0693069307,25.7131895 0.0693069307,35.3961039 C0.0693069307,45.0790183 8.0483906,52.9285714 17.8910891,52.9285714 L29.4851485,52.9285714 C29.5408886,52.9374811 29.5977252,52.9374811 29.6534653,52.9285714 L29.8118812,52.9285714 L36.9405941,52.9285714 L36.9405941,41.9902597 L17.8910891,41.9902597 C15.429529,42.0832436 13.1134033,40.8443516 11.854526,38.7613117 C10.5956487,36.6782717 10.5956487,34.0847153 11.854526,32.0016753 C13.1134033,29.9186354 15.429529,28.6797434 17.8910891,28.7727273 Z M35.5445545,27.4188312 L30.3366337,27.4188312 L30.3366337,19.2175325 L35.5445545,19.2175325 L35.5445545,27.4188312 Z M35.5445545,51.6233766 L30.3366337,51.6233766 L30.3366337,43.3538961 L35.5445545,43.3538961 L35.5445545,51.6233766 Z M9.8019802,35.3766234 C9.81290378,39.783924 13.4506547,43.3495437 17.9306931,43.3441558 L28.950495,43.3441558 L28.950495,51.6233766 L17.8910891,51.6233766 L17.8910891,51.6233766 C12.0191992,51.6233766 6.59334905,48.5416149 3.65740405,43.5389611 C0.721459049,38.5363073 0.721459049,32.3727836 3.65740405,27.3701298 C6.59334905,22.367476 12.0191992,19.2857143 17.8910891,19.2857143 L28.950495,19.2857143 L28.950495,27.487013 L17.8910891,27.487013 C13.4379058,27.4814066 9.81124903,31.0057325 9.76237624,35.3863636 L9.8019802,35.3766234 Z" id="Shape" fill="#A8C5DD"></path>
                <path d="M74.3861386,19.2077922 C74.9393467,19.2388382 75.4568368,18.9381229 75.6962148,18.4465023 C75.9355929,17.9548816 75.8494533,17.3697146 75.4781442,16.9650952 C75.106835,16.5604758 74.5238891,16.4165335 74.0023601,16.6006914 C73.4808311,16.7848492 73.1240009,17.2606372 73.0990099,17.8051948 C73.0801514,18.1592217 73.2052679,18.5060799 73.4467481,18.7692234 C73.6882282,19.0323668 74.0262217,19.1901642 74.3861386,19.2077922 Z" id="Path" fill="#2969F6"></path>
                <path d="M81.5148515,19.7045455 C82.2660783,19.7303633 82.8974175,19.1543763 82.9277767,18.4154973 C82.958136,17.6766182 82.3761121,17.0523817 81.6252179,17.0184676 C80.8743237,16.9845534 80.236607,17.5537003 80.1980198,18.2922078 C80.1819197,18.6513714 80.3116879,19.0020872 80.5587123,19.2670276 C80.8057367,19.531968 81.1497317,19.689376 81.5148515,19.7045455 Z" id="Path" fill="#2969F6"></path>
                <path d="M84.3960396,23.8051948 C84.6746572,23.586619 84.7356909,23.1940741 84.5362278,22.9035591 C84.3367648,22.6130442 83.9438155,22.522159 83.6336634,22.6948052 C80.5235193,24.9913654 76.2688975,25.0737427 73.0693069,22.8993506 C72.8868757,22.688173 72.5913856,22.6088125 72.325184,22.6994999 C72.0589825,22.7901872 71.876662,23.0323242 71.8660524,23.3092655 C71.8554428,23.5862067 72.0187199,23.8411571 72.2772277,23.9512987 C74.0265933,25.1326521 76.0959905,25.7705371 78.2178218,25.7824675 C80.4337499,25.7570827 82.5890787,25.0672927 84.3960396,23.8051948 L84.3960396,23.8051948 Z" id="Path" fill="#2969F6"></path>
                <path d="M99.009901,64.9188312 C99.009901,35.288961 95.3465347,33.3409091 94.0594059,32.6688312 C93.3069307,32.2402597 87.1287129,30.7207792 83.9405941,30.0097403 C86.2334589,28.9047836 88.1572842,27.1777913 89.4851485,25.0324675 L89.7128713,24.6331169 L89.4158416,24.2824675 C89.4131371,24.2598181 89.4131371,24.2369351 89.4158416,24.2142857 L89.3663366,24.1461039 L89.3663366,24.0974026 L89.2574257,23.9220779 L89.2574257,23.9220779 C88.8118812,23.1428571 87.9108911,21.0876623 87.970297,17.2987013 C88.960396,16.6558442 91.7821782,14.5811688 92.2376238,11.288961 C92.3191063,10.8588306 92.3457145,10.4203787 92.3168317,9.98376623 C92.3213587,9.90915731 92.3213587,9.83434918 92.3168317,9.75974026 L92.3168317,9.68181818 L92.3168317,9.68181818 C92.1658873,7.88903862 91.4135924,6.19644308 90.1782178,4.87012987 C88.8382733,3.44741726 87.1252339,2.41605634 85.2277228,1.88961039 C83.2934053,1.15205896 81.2185356,0.839564578 79.1485149,0.974025974 L79.1485149,0.974025974 C78.7821782,0.974025974 71.6534653,0.974025974 69.990099,4.34415584 C68.7671848,4.00086296 67.4563651,4.14065051 66.3366337,4.73376623 C66.0036751,4.9476962 65.7120118,5.21813461 65.4752475,5.53246753 C64.8469607,6.33474566 64.5183426,7.32523099 64.5445545,8.33766234 L64.5445545,8.33766234 L64.5445545,8.33766234 L64.5445545,8.33766234 C64.343814,10.536205 64.8792679,12.7390257 66.0693069,14.6103896 C66.5338481,15.5116919 67.3710665,16.1720137 68.3663366,16.4220779 L68.4356436,16.4220779 L68.5049505,16.4220779 C68.0792079,19.8798701 67.3663366,21.2922078 66.8514851,21.9155844 L66.8514851,21.9155844 C66.8037155,21.9752405 66.7507061,22.0306487 66.6930693,22.0811688 C66.6097686,22.1578128 66.5165554,22.2233127 66.4158416,22.275974 L66.4158416,22.275974 L65.7326733,22.6168831 L66.1584158,23.25 C68.0106095,25.9109837 70.3960481,28.1715189 73.1683168,29.8928571 C70.1980198,30.5941558 63.5049505,32.1818182 62.7128713,32.6298701 L62.6039604,32.6785714 C61.1782178,33.2337662 57.8316832,34.5584416 57.8316832,64.8214286 C57.6248514,67.2018283 58.3629095,69.568559 59.8910891,71.4253247 C61.5141729,73.0992025 63.7673666,74.0401189 66.1188119,74.025974 L66.1188119,74.025974 L90.6732673,74.025974 L90.6732673,74.025974 C93.0393526,74.0664863 95.3163231,73.1387355 96.960396,71.4642857 C98.4908393,69.6319226 99.2270294,67.2807699 99.009901,64.9188312 Z M89.1089109,12.4772727 C89.4430963,12.3116847 89.5833383,11.9150343 89.4257426,11.5811688 C89.253497,11.2511 88.8471774,11.1135607 88.5049505,11.2694805 C88.2296111,11.3999251 87.94504,11.5106036 87.6534653,11.6006494 L87.6534653,11.6006494 C84.3630945,12.6538182 80.897355,13.0738023 77.4455446,12.8376623 C77.4455446,12.8376623 73.5940594,12.6623377 68.990099,9.05844156 C68.8467039,8.93784777 68.6590019,8.88095452 68.4714826,8.90124678 C68.2839634,8.92153905 68.1133204,9.01721034 68,9.16558442 C67.8714897,9.30413436 67.8097884,9.49038154 67.8306349,9.67681799 C67.8514813,9.86325444 67.9528599,10.031854 68.1089109,10.1396104 C68.3465347,10.3344156 68.5841584,10.5 68.8217822,10.6753247 C68.8115665,10.7398709 68.8115665,10.8055837 68.8217822,10.8701299 C68.8217822,12.1071429 68.8217822,13.6071429 68.6633663,15.1168831 C68.1361894,14.8409998 67.6792502,14.4514146 67.3267327,13.9772727 C66.4582787,12.2390146 65.9692473,10.3411873 65.8910891,8.40584416 L65.8910891,8.40584416 C65.9098997,7.71475402 66.1186073,7.04157545 66.4950495,6.45779221 C66.5764118,6.3598308 66.6658218,6.26861458 66.7623762,6.18506494 C67.4950495,5.59090909 68.7425743,5.50324675 70.3267327,5.9025974 L70.980198,6.15584416 L71.1881188,5.43506494 C71.8910891,2.94155844 77.1287129,2.38636364 79.1089109,2.38636364 L79.1089109,2.38636364 C80.9507065,2.39561415 82.7826705,2.65120232 84.5544554,3.1461039 C87.6002503,4.31142154 89.9280408,6.79555217 90.8613861,9.87662338 C90.8793456,10.1100558 90.8793456,10.3444897 90.8613861,10.5779221 C90.8497136,10.9301812 90.7965532,11.2799202 90.7029703,11.6201299 C90.1651844,13.1321729 89.2290099,14.4766647 87.990099,15.5162338 C88.0594059,14.6980519 88.1782178,13.8019481 88.3465347,12.8474026 C88.7920792,12.6038961 89.029703,12.4967532 89.1089109,12.4772727 Z M67.6633663,23.0649351 C68.1933512,22.5060607 68.5951499,21.8417313 68.8415842,21.1168831 L68.8415842,20.9707792 C68.9207921,20.7662338 68.990099,20.5616883 69.0594059,20.3376623 C69.1287129,20.1136364 69.2178218,19.8214286 69.2871287,19.5487013 L69.2871287,19.5487013 C69.8701058,16.9058896 70.1523703,14.2074711 70.1287129,11.5032468 C72.2595287,12.9405204 74.7120899,13.8494777 77.2772277,14.1525974 C77.9108911,14.1525974 78.5247525,14.1525974 79.1089109,14.1525974 C81.7264998,14.1835068 84.3357136,13.8556835 86.8613861,13.1785714 C86.6878019,14.2758375 86.5721352,15.3812159 86.5148515,16.4902597 L86.5148515,16.4902597 L86.5148515,17.1233766 C86.5148515,17.512987 86.5148515,17.8928571 86.5148515,18.2532468 C86.5148515,18.4188312 86.5148515,18.5746753 86.5148515,18.7402597 C86.5148515,18.9058442 86.5148515,19.3246753 86.5841584,19.5974026 C86.6534653,19.8701299 86.5841584,19.8798701 86.5841584,20.0162338 C86.5841584,20.3181818 86.6633663,20.6006494 86.7128713,20.8733766 C86.7081146,20.954478 86.7081146,21.0357817 86.7128713,21.1168831 C86.7722772,21.4675325 86.8514851,21.7987013 86.9306931,22.0909091 C86.9250716,22.1165888 86.9250716,22.1431515 86.9306931,22.1688312 C87,22.4415584 87.0792079,22.6948052 87.1584158,22.9188312 L87.2178218,23.0844156 C87.2871287,23.2792208 87.3564356,23.4642857 87.4257426,23.6298701 L87.4851485,23.7467532 C87.5643564,23.9318182 87.6435644,24.0974026 87.7128713,24.2435065 L87.7128713,24.2435065 L87.950495,24.6428571 L87.950495,24.6428571 C85.7562396,27.9815349 81.9287019,29.9272398 77.8910891,29.7564935 L76.9009901,29.7077922 C72.9207921,29.5909091 68.8910891,24.6915584 67.6633663,23.0649351 Z M77.019802,31.1688312 L78.009901,31.1688312 C78.2475248,31.1688312 78.4752475,31.1688312 78.6930693,31.1688312 C79.8627785,31.1719411 81.0267448,31.0078909 82.1485149,30.6818182 C82.2379299,30.857039 82.4006636,30.9851126 82.5940594,31.0324675 L84.8811881,31.5681818 C83.0016572,33.2148968 80.5662444,34.1142187 78.049505,34.0909091 C75.7833556,33.9285602 73.6291651,33.0583491 71.9009901,31.6071429 L74.2574257,31.0616883 C74.4749342,31.0031416 74.649063,30.8427737 74.7227723,30.6331169 C75.4551813,30.9290034 76.2303198,31.1097815 77.019802,31.1688312 Z M90.7128713,72.6623377 L91.5940594,41.1623377 C91.599388,40.9840707 91.532474,40.8110299 91.4080527,40.6813208 C91.2836313,40.5516117 91.1119061,40.4758716 90.9306931,40.4707792 C90.5593513,40.474973 90.2534876,40.7589194 90.2277228,41.1233766 L89.3465347,72.6915584 L67.4554455,72.6915584 L66.5742574,41.1233766 C66.5484926,40.7589194 66.2426288,40.474973 65.8712871,40.4707792 C65.6900741,40.4758716 65.5183489,40.5516117 65.3939275,40.6813208 C65.2695062,40.8110299 65.2025922,40.9840707 65.2079208,41.1623377 L66.0792079,72.6623377 C64.136814,72.6792169 62.2697151,71.9241316 60.9009901,70.5681818 C59.6231333,68.9665474 59.0109389,66.9474225 59.1881188,64.9188312 C59.1881188,51.4967532 59.8712871,35.2305195 63.1485149,33.9545455 C63.2443136,33.9199264 63.3370387,33.8775744 63.4257426,33.8279221 C63.8514851,33.6038961 66.8613861,32.8538961 70.3564356,31.9967532 C72.4289341,33.9987111 75.1534655,35.216403 78.049505,35.4350649 L78.4653465,35.4350649 C81.5039694,35.3287855 84.3896361,34.0972379 86.5445545,31.987013 C90.019802,32.8246753 93.049505,33.6038961 93.4752475,33.8279221 L93.5742574,33.8766234 C96.2178218,35.2987013 97.6732673,46.3246753 97.6831683,65.0454545 C97.8556851,67.0418848 97.2544187,69.0286479 96,70.6071429 C94.5982625,71.9758631 92.6870315,72.7187904 90.7128713,72.6623377 L90.7128713,72.6623377 Z" id="Shape" fill="#2969F6"></path>
                <path d="M63.019802,22.724026 C63.0245717,22.6852062 63.0245717,22.6459626 63.019802,22.6071429 C63.0244646,22.5715759 63.0244646,22.535567 63.019802,22.5 L63.019802,22.5 C63.0253759,22.4481967 63.0253759,22.3959592 63.019802,22.3441558 C63.0230819,22.3085144 63.0230819,22.2726544 63.019802,22.237013 L62.950495,22.1298701 L62.8712871,22.0324675 L62.7821782,21.9642857 L62.6435644,21.8863636 L62.6435644,21.8863636 L49.2475248,17.1136364 L49.1386139,17.1136364 L49.009901,17.1136364 L49.009901,17.1136364 C48.9541609,17.1047267 48.8973243,17.1047267 48.8415842,17.1136364 L48.7425743,17.1136364 L48.6336634,17.1915584 C48.5938952,17.2084251 48.5571268,17.2314434 48.5247525,17.2597403 L48.4653465,17.3571429 C48.4332925,17.3956662 48.4066511,17.4382557 48.3861386,17.4837662 C48.3861386,17.4837662 48.3861386,17.4837662 48.3861386,17.4837662 C48.3813689,17.522586 48.3813689,17.5618296 48.3861386,17.6006494 C48.3805853,17.6394189 48.3805853,17.6787629 48.3861386,17.7175325 L48.3861386,21.5162338 L40.7821782,21.7792208 L40.7821782,21.7792208 L40.5841584,21.8279221 L40.5247525,21.8279221 C40.4726101,21.8513174 40.4255455,21.8843892 40.3861386,21.9253247 C40.3558577,21.9391178 40.3288693,21.9590305 40.3069307,21.9837662 L40.2475248,22.0811688 C40.2154708,22.1196921 40.1888293,22.1622817 40.1683168,22.2077922 L40.1683168,22.2077922 C40.1682444,22.285363 40.1682444,22.3634788 40.1682444,22.4415947 L40.1682444,22.4415947 C40.1625486,22.4868765 40.1625486,22.5326764 40.1682444,22.5779583 C40.1625575,22.6167185 40.1625575,22.6560812 40.1682444,22.6948414 C40.1855422,22.7309534 40.2089814,22.7638944 40.2375513,22.792244 C40.2640419,22.833478 40.2938397,22.8725635 40.3266602,22.9091271 L40.4058681,22.9578284 C40.4520221,22.9895602 40.5018844,23.0157217 40.554383,23.0357505 L40.554383,23.0357505 L53.3069307,27.2727273 C53.3791733,27.2828511 53.4525099,27.2828511 53.5247525,27.2727273 C53.6033522,27.286383 53.6837765,27.286383 53.7623762,27.2727273 L53.8316832,27.2727273 C53.8817304,27.2459074 53.9282767,27.2131998 53.970297,27.1753247 L54.029703,27.1168831 C54.06809,27.0790274 54.1013664,27.0364703 54.1287129,26.9902597 C54.1287129,26.9902597 54.1287129,26.9415584 54.1287129,26.9123377 C54.1287129,26.8831169 54.1287129,26.9123377 54.1287129,26.9123377 C54.1335807,26.8735238 54.1335807,26.8342684 54.1287129,26.7954545 C54.1330744,26.7631288 54.1330744,26.7303777 54.1287129,26.6980519 L54.1287129,23.1720779 L62.3762376,23.1720779 C62.4610806,23.1708871 62.5449802,23.1543796 62.6237624,23.1233766 L62.6930693,23.1233766 L62.8316832,23.0357143 L62.8910891,22.9772727 C62.9295892,22.9359345 62.9628366,22.8901439 62.990099,22.8409091 L62.990099,22.7727273 C62.990099,22.7727273 63.019802,22.7337662 63.019802,22.724026 Z M52.8316832,21.8181818 L52.8316832,25.7142857 L44.6039604,23.025974 L49.7029703,22.8506494 L49.7029703,18.7207792 L58.4158416,21.8181818 L52.8316832,21.8181818 Z" id="Shape" fill="#032663"></path>
                <path d="M56.3267327,48.0974026 C56.3315661,48.0488174 56.3315661,47.9998839 56.3267327,47.9512987 L56.3267327,47.9512987 C56.335319,47.9127955 56.335319,47.8729188 56.3267327,47.8344156 C56.3267327,47.8344156 56.3267327,47.7564935 56.3267327,47.7272727 L56.3267327,47.7272727 C56.292522,47.6715493 56.252719,47.6193402 56.2079208,47.5714286 L56.2079208,47.512987 C56.1525808,47.4660088 56.0887699,47.4296654 56.019802,47.4058442 L56.019802,47.4058442 C55.9708462,47.3955855 55.9202429,47.3955855 55.8712871,47.4058442 C55.8322705,47.3963548 55.7914919,47.3963548 55.7524752,47.4058442 L55.7524752,47.4058442 L41.9108911,48.6233766 L41.9108911,48.6233766 C41.8747241,48.6189951 41.8381472,48.6189951 41.8019802,48.6233766 C41.7625039,48.6189517 41.7226446,48.6189517 41.6831683,48.6233766 L41.6831683,48.6233766 C41.6340334,48.6469844 41.5902533,48.6801147 41.5544554,48.7207792 C41.5237209,48.7381183 41.4967966,48.7612947 41.4752475,48.788961 C41.4464837,48.8208098 41.4230856,48.8569814 41.4059406,48.8961039 C41.3822133,48.9330115 41.3623115,48.9721688 41.3465347,49.012987 C41.3360212,49.0512616 41.3360212,49.0915955 41.3465347,49.1298701 C41.3410578,49.1784224 41.3410578,49.2274217 41.3465347,49.275974 L41.3465347,49.275974 C41.3570647,49.3295787 41.3736701,49.3818532 41.3960396,49.4318182 C41.3960396,49.4318182 41.3960396,49.4318182 41.3960396,49.5097403 L41.3960396,49.5097403 L43,52.8019481 L36.4752475,56.1331169 L36.4752475,56.1331169 C36.4316909,56.1567578 36.3917012,56.1862631 36.3564356,56.2207792 L36.2673267,56.2987013 C36.241699,56.3345231 36.2216745,56.373922 36.2079208,56.4155844 C36.184372,56.4491612 36.1644615,56.4850712 36.1485149,56.5227273 C36.144061,56.5583072 36.144061,56.5942902 36.1485149,56.6298701 C36.1442836,56.6817348 36.1442836,56.7338496 36.1485149,56.7857143 L36.1485149,56.7857143 C36.1623664,56.8491007 36.1822562,56.9110627 36.2079208,56.9707792 C36.2079208,56.9707792 36.2079208,56.9707792 36.2079208,56.9707792 L36.2079208,56.9707792 C36.2623115,57.0665386 36.3407056,57.1470131 36.4356436,57.2045455 L36.5049505,57.2045455 C36.5983079,57.2583086 36.7037724,57.2884302 36.8118812,57.2922078 L36.9009901,57.2922078 L49.8712871,55.724026 C49.9141389,55.7269796 49.9571482,55.7269796 50,55.724026 L50.0792079,55.724026 L50.0792079,55.724026 C50.1224316,55.703837 50.1624518,55.67759 50.1980198,55.6461039 C50.233437,55.6196347 50.2665545,55.5903128 50.2970297,55.5584416 L50.3564356,55.4512987 C50.3820634,55.4154769 50.4020878,55.376078 50.4158416,55.3344156 C50.4254875,55.2960323 50.4254875,55.2559157 50.4158416,55.2175325 C50.4257094,55.1693149 50.4257094,55.1196461 50.4158416,55.0714286 C50.4158416,55.0714286 50.4158416,55.0714286 50.4158416,55.0714286 C50.4215747,55.039206 50.4215747,55.0062486 50.4158416,54.974026 C50.4203395,54.9351906 50.4203395,54.8959783 50.4158416,54.8571429 L48.9405941,51.8181818 L56.0693069,48.4967532 L56.0693069,48.4967532 L56.1980198,48.3993506 L56.2871287,48.3311688 L56.3465347,48.2142857 L56.4158416,48.1071429 C56.3865079,48.1011972 56.3566776,48.0979365 56.3267327,48.0974026 L56.3267327,48.0974026 Z M48.6435644,54.711039 L40.4356436,55.6850649 L44.7524752,53.4837662 L42.990099,49.8603896 L51.8118812,49.0227273 L46.990099,51.2727273 L48.6435644,54.711039 Z" id="Shape" fill="#032663"></path>
                <path d="M56.950495,35.961039 C56.950495,35.961039 56.950495,35.8831169 56.950495,35.8441558 L56.950495,35.8441558 C56.9322745,35.7945519 56.9054776,35.7484186 56.8712871,35.7077922 C56.8712871,35.7077922 56.8712871,35.6396104 56.8019802,35.6201299 C56.7727386,35.5857444 56.7353314,35.5589808 56.6930693,35.5422078 C56.6646559,35.5110442 56.6312017,35.4847153 56.5940594,35.4642857 L56.4752475,35.4642857 L56.3267327,35.4642857 L46.3168317,35.4642857 L46.3168317,31.0519481 C46.3168317,31.0519481 46.3168317,30.9837662 46.3168317,30.9448052 C46.3168317,30.9058442 46.3168317,30.8766234 46.3168317,30.8376623 C46.3168317,30.7987013 46.3168317,30.8376623 46.3168317,30.8376623 C46.2963192,30.7921519 46.2696778,30.7495623 46.2376238,30.711039 L46.1782178,30.6136364 L46.0693069,30.5357143 L45.960396,30.4577922 L45.8514851,30.4577922 C45.798827,30.4523088 45.7457275,30.4523088 45.6930693,30.4577922 L45.6930693,30.4577922 L45.5841584,30.4577922 L45.4752475,30.4577922 L30.039604,35.4253247 C29.8734854,35.4738422 29.7342744,35.5862123 29.6534653,35.737013 L29.6534653,35.737013 C29.6501854,35.7726544 29.6501854,35.8085144 29.6534653,35.8441558 C29.6433143,35.895624 29.6433143,35.9485319 29.6534653,36 L29.6534653,36 C29.6438194,36.0383832 29.6438194,36.0784999 29.6534653,36.1168831 C29.6485567,36.1589528 29.6485567,36.2014368 29.6534653,36.2435065 L29.6534653,36.2435065 L29.6534653,36.3019481 C29.6805586,36.3573113 29.7137617,36.4095738 29.7524752,36.4577922 L29.8019802,36.4577922 L29.9405941,36.5551948 L30.009901,36.5551948 C30.075577,36.5643864 30.1422448,36.5643864 30.2079208,36.5551948 L30.2673267,36.5551948 L39.5346535,36.8766234 L39.5346535,41.7857143 C39.5298838,41.824534 39.5298838,41.8637776 39.5346535,41.9025974 C39.5346535,41.9025974 39.5346535,41.9805195 39.5346535,42.0194805 L39.5346535,42.0194805 C39.53181,42.0388606 39.53181,42.058542 39.5346535,42.0779221 C39.5548127,42.1287692 39.5851104,42.1751339 39.6237624,42.2142857 L39.6831683,42.2727273 C39.7245853,42.3086961 39.7713249,42.3382552 39.8217822,42.3603896 L39.8910891,42.3603896 C39.9698713,42.3913926 40.0537708,42.4079001 40.1386139,42.4090909 C40.2141709,42.4192407 40.2907796,42.4192407 40.3663366,42.4090909 L56.4554455,36.6915584 L56.4554455,36.6915584 C56.501707,36.671379 56.5449994,36.64517 56.5841584,36.6136364 L56.6831683,36.5551948 C56.7120121,36.5212904 56.738476,36.4854933 56.7623762,36.4480519 L56.8316832,36.3409091 L56.8316832,36.2337662 C56.8372571,36.1819629 56.8372571,36.1297254 56.8316832,36.0779221 L56.8316832,36.0779221 C56.8316832,36.0779221 56.950495,36.038961 56.950495,35.961039 Z M34.0990099,35.5324675 L44.9306931,31.9967532 L44.9306931,36.75 L52.3366337,36.75 L40.8811881,40.8214286 L40.8811881,35.7662338 L34.0990099,35.5324675 Z" id="Shape" fill="#032663"></path>
            </g>
        </g>
    </g>
</svg>