<svg width="100" height="75" xmlns="http://www.w3.org/2000/svg"><g fill-rule="nonzero" fill="none"><path fill="#032663" d="M41.57 62.24V74.3h1.4V63.63h6.6V74.3h1.4V63.63h6.61V74.3h1.39V62.24zM20.64 75h-9.28v-9.61h9.28V75zm-7.89-1.39h6.49v-6.83h-6.49v6.83zM88.64 75h-9.28v-9.61h9.28V75zm-7.88-1.39h6.49v-6.83h-6.49v6.83z"/><path d="M38.1 25.92h23.8a.7.7 0 100-1.39H38.1a.7.7 0 100 1.39zM38.1 19.79h23.8a.7.7 0 100-1.39H38.1a.7.7 0 100 1.39zM38.1 32.06h23.8a.7.7 0 000-1.4H38.1a.7.7 0 000 1.4zM38.1 38.19h23.8a.7.7 0 100-1.39H38.1a.7.7 0 100 1.39zM38.1 44.33h23.8a.7.7 0 000-1.4H38.1a.7.7 0 000 1.4zM38.1 50.46h23.8a.7.7 0 100-1.39H38.1a.7.7 0 100 1.39zM38.1 56.6h23.8a.7.7 0 000-1.4H38.1a.7.7 0 000 1.4zM7.5 35.12h17a.7.7 0 100-1.39h-17a.7.7 0 100 1.39zM7.5 29.23h17a.7.7 0 100-1.39h-17a.7.7 0 100 1.39zM7.5 41.26h17a.7.7 0 100-1.39h-17a.7.7 0 100 1.39zM7.5 47.39h17a.7.7 0 100-1.39h-17a.7.7 0 100 1.39zM7.5 59.66h17a.7.7 0 100-1.39h-17a.7.7 0 100 1.39zM7.5 53.53h17a.7.7 0 100-1.39h-17a.7.7 0 100 1.39zM75.5 47.39h17a.7.7 0 100-1.39h-17a.7.7 0 100 1.39zM75.5 41.5h17a.7.7 0 100-1.39h-17a.7.7 0 100 1.39zM75.5 53.53h17a.7.7 0 100-1.39h-17a.7.7 0 100 1.39zM75.5 59.66h17a.7.7 0 100-1.39h-17a.7.7 0 100 1.39z" fill="#A8C5DD"/><path d="M84.79 33.86a1.1 1.1 0 000-.16V14.3a.7.7 0 00-1.4 0v19.4a1.1 1.1 0 000 .16h-14V11.28H30.6v10.18H0V75h100V33.86H84.79zM30.6 73.61H1.4V22.85h29.2v50.76zm37.4 0H32V12.67h36v60.94zm30.6 0H69.4V35.25h29.2v38.36z" fill="#A8C5DD"/><path d="M62.59 12.66H37.41V0h25.18v12.66zm-23.8-1.37h22.42V1.37H38.79v9.92z" fill="#2969F6"/><path d="M49.76 9.73a3.4 3.4 0 113.42-3.4 3.41 3.41 0 01-3.42 3.4zm0-5.43a2 2 0 100 4 2 2 0 000-4z" fill="#2969F6"/></g></svg>