<svg width="100" height="74" xmlns="http://www.w3.org/2000/svg"><g fill-rule="nonzero" fill="none"><path d="M50.495 32.25a2.273 2.273 0 00-2.257 2.276 2.274 2.274 0 002.27 2.263 2.274 2.274 0 002.284-2.25 2.235 2.235 0 00-.317-1.075l4.693-4.737a.696.696 0 000-.987.702.702 0 00-.99 0l-4.693 4.747a2.244 2.244 0 00-.99-.237zm0 3.178a.91.91 0 01-.91-.908.91.91 0 01.91-.908.91.91 0 01.644 1.55.912.912 0 01-.644.266z" fill="#2969F6"/><path d="M55.683 19.125a.695.695 0 00-.73.094.69.69 0 00.295 1.209c6.959 2.322 11.195 9.338 9.996 16.555-1.2 7.216-7.48 12.496-14.82 12.457-7.338-.039-13.562-5.385-14.685-12.613-1.123-7.229 3.188-14.2 10.172-16.449a.682.682 0 00.35-1.177.684.684 0 00-.716-.125c-7.622 2.457-12.324 10.068-11.096 17.957 1.23 7.89 8.025 13.721 16.035 13.76 8.01.039 14.863-5.727 16.168-13.604 1.306-7.877-3.322-15.533-10.92-18.064h-.049z" fill="#2969F6"/><path d="M48.901 19.322h.91v3.217c-6.51.369-11.546 5.834-11.36 12.332.184 6.497 5.522 11.669 12.044 11.669s11.86-5.172 12.045-11.67c.185-6.497-4.85-11.962-11.362-12.33v-3.257h.921a.689.689 0 100-1.372h-3.198a.689.689 0 100 1.372v.04zM61.178 34.54c.006 5.876-4.768 10.643-10.663 10.648-5.895.006-10.678-4.753-10.683-10.628-.006-5.875 4.768-10.642 10.663-10.648 5.892 0 10.672 4.755 10.683 10.628z" fill="#2969F6"/><path d="M99.01 68.566a.57.57 0 000-.188.58.58 0 000-.128.305.305 0 000-.128l-.07-.119a.464.464 0 00-.059-.089l-4.485-4.865a.694.694 0 00-.99-.049.68.68 0 000 .987l3.445 3.75H71.465a.704.704 0 00-.677.321.699.699 0 000 .749.704.704 0 00.677.321h25.258l-3.376 3.74a.699.699 0 001.04.938l4.336-4.816a.69.69 0 00.287-.424z" fill="#032663"/><path d="M50.584 69.079C69.688 69.03 85.15 53.58 85.15 34.539v-.986l3.683 3.276c.129.112.294.175.465.178.2 0 .39-.082.525-.227a.699.699 0 00-.06-.987l-4.722-4.214a33.71 33.71 0 00-4.347-14.063A41.5 41.5 0 0069.941 5.921a28.917 28.917 0 00-5.238-2.96A34.36 34.36 0 0050.584 0C37.713 0 25.891 7.638 18.99 20.428a28.54 28.54 0 00-3.148 14.368l-3.783-3.365a.705.705 0 00-.99 0 .69.69 0 00.05.987l4.822 4.293c.209 2.787.764 5.539 1.653 8.19a34.68 34.68 0 0013.861 18.365.705.705 0 00.99-.187.689.689 0 00-.197-.987A33.337 33.337 0 0118.93 44.428a34.311 34.311 0 01-1.555-7.895l4.565-4.145a.69.69 0 00-.054-.888.695.695 0 00-.887-.099l-3.723 3.385a27.113 27.113 0 012.97-13.687c6.654-12.336 18-19.737 30.367-19.737 4.663.005 9.272.994 13.525 2.901a28.422 28.422 0 014.95 2.773 40.997 40.997 0 0110.396 11.161 32.83 32.83 0 013.178 7.747c.493 1.856.825 3.751.99 5.665l-4.683 4.253a.709.709 0 00.515 1.204.734.734 0 00.475-.178l3.842-3.493v1.135c-.005 18.29-14.868 33.12-33.218 33.148H10.703a.699.699 0 100 1.391h39.881v.01z" fill="#A8C5DD"/><path d="M5.644 64.145A4.26 4.26 0 019.9 68.368a3.58 3.58 0 01-.07.73 4.243 4.243 0 01-4.12 3.544 4.244 4.244 0 01-4.236-3.405 5.056 5.056 0 01-.079-.869 4.26 4.26 0 014.248-4.223m0-1.382C2.537 62.77.016 65.272 0 68.368a5.64 5.64 0 005.741 5.63 5.638 5.638 0 005.467-4.672c.059-.326.085-.656.08-.987 0-3.108-2.526-5.63-5.644-5.635v.06z" fill="#032663"/></g></svg>