<svg width="100" height="75" xmlns="http://www.w3.org/2000/svg"><g fill-rule="nonzero" fill="none"><path d="M96.34 75H3.66A3.65 3.65 0 010 71.36V3.64A3.65 3.65 0 013.66 0h92.68A3.65 3.65 0 01100 3.64v67.72A3.65 3.65 0 0196.34 75zM3.66 1.39A2.26 2.26 0 001.4 3.64v67.72a2.26 2.26 0 002.26 2.25h92.68a2.26 2.26 0 002.26-2.25V3.64a2.26 2.26 0 00-2.26-2.25H3.66z" fill="#A8C5DD"/><path d="M14 20.94l7.11-9.85a.69.69 0 10-1.12-.8l-6.19 8.54-2.64-2.64a.69.69 0 00-1 0 .68.68 0 000 1L14 20.94zM20 25l-6.2 8.55-2.64-2.63a.69.69 0 00-1 0 .68.68 0 000 1L14 35.67l7.11-9.85a.69.69 0 00-.16-1A.7.7 0 0020 25zM20 39.74l-6.2 8.53-2.64-2.63a.69.69 0 00-1 0 .68.68 0 000 1L14 50.39l7.11-9.85a.69.69 0 00-1.12-.8H20zM20 54.46L13.8 63l-2.64-2.64a.69.69 0 00-1 0 .68.68 0 000 1L14 65.11l7.11-9.85a.69.69 0 00-1.12-.8H20z" fill="#2969F6"/><path d="M28.89 14h41.28a.7.7 0 000-1.39H28.89a.7.7 0 100 1.39zM28.89 18.93h34.37a.7.7 0 100-1.39H28.89a.7.7 0 100 1.39zM28.89 28.74h38.32a.7.7 0 100-1.39H28.89a.7.7 0 100 1.39zM28.89 33.65H53.4a.7.7 0 100-1.39H28.89a.7.7 0 100 1.39zM75.1 42.08H28.89a.7.7 0 100 1.39H75.1a.7.7 0 000-1.39zM72.14 47H28.89a.7.7 0 100 1.39h43.25a.7.7 0 100-1.39zM70.17 56.8H28.89a.7.7 0 100 1.39h41.28a.7.7 0 000-1.39zM40.58 61.71H28.89a.7.7 0 100 1.39h11.69a.7.7 0 100-1.39z" fill="#032663"/></g></svg>