<svg width="100" height="75" xmlns="http://www.w3.org/2000/svg"><g fill-rule="nonzero" fill="none"><path d="M21.634 24.592a.798.798 0 00-.327.987l4.218 9.306c.105.252.35.418.624.424a.665.665 0 00.297-.079.768.768 0 00.316-.987l-4.208-9.315a.662.662 0 00-.92-.336z" fill="#A8C5DD"/><path d="M41.05 33.829a.751.751 0 100 1.5c2.069 0 3.356-.622 3.356-3.72a3.073 3.073 0 00-.802-2.172 3.84 3.84 0 00-2.743-.986H30.396l-4.752-12.435a.672.672 0 00-.901-.404.544.544 0 00-.189.138 5.262 5.262 0 00-5.534.227c-4.871 3.227-5.733 12.553-5.772 12.977l-.525 12.69c-.139 4.422.752 7.757 2.663 9.87a9.424 9.424 0 01-5.574-6.415L7.168 22.747c-.802-6.958-5.93-9.336-6.178-9.434a.685.685 0 00-.9.414.769.769 0 00.375.987 10.25 10.25 0 015.307 8.23l2.693 22.45c1.278 5.09 5.926 8.617 11.188 8.488h1.585v18.552H13.94a.751.751 0 100 1.5h15.99a.751.751 0 100-1.5h-7.307V53.882h8.91l3.763 16.944a4.399 4.399 0 001.525 2.565 3.14 3.14 0 001.93.623c.304-.001.606-.034.901-.1a4.08 4.08 0 002.822-1.875c.47-.858.627-1.851.446-2.812 0-.168-3.337-16.668-4.03-21.197a6.18 6.18 0 00-5.693-5.438h-4.792a2.974 2.974 0 01-2.09-1.066c-1.197-1.302-1.742-3.71-1.583-6.908a.696.696 0 00-1.386-.079c-.179 3.73.495 6.445 1.98 8.083a4.332 4.332 0 003.109 1.5h4.732a4.725 4.725 0 014.357 4.233c.703 4.52 4.06 21.05 4.06 21.237a2.48 2.48 0 01-.258 1.668 2.764 2.764 0 01-1.931 1.184 2.204 2.204 0 01-1.836-.345 2.189 2.189 0 01-.907-1.629l-4.049-18.088H20.04a5.362 5.362 0 01-3.654-1.905c-1.643-1.855-2.406-4.816-2.277-8.813l.515-12.641c0-.089.841-8.97 5.148-11.842a3.97 3.97 0 015.03.503l4.663 12.217h11.416a2.62 2.62 0 011.763.622c.266.297.402.688.376 1.086 0 2.131-.565 2.22-1.97 2.22z" fill="#A8C5DD"/><path d="M24.752 16.914c-4.326 0-7.851-3.799-7.851-8.457C16.901 3.8 20.455 0 24.752 0c4.298 0 7.921 3.79 7.921 8.457 0 4.668-3.564 8.457-7.92 8.457zm0-15.414c-3.697.166-6.57 3.27-6.435 6.957-.106 3.679 2.776 6.758 6.465 6.908 3.688-.15 6.567-3.23 6.456-6.908a6.698 6.698 0 00-1.796-4.818 6.742 6.742 0 00-4.69-2.139z" fill="#032663"/><path d="M72.99 35.329a.693.693 0 00.624-.424l4.208-9.306a.778.778 0 00-.317-.987.675.675 0 00-.92.345l-4.209 9.296a.768.768 0 00.317.987c.09.053.192.083.297.089z" fill="#A8C5DD"/><path d="M99.01 13.727a.672.672 0 00-.901-.415 11.603 11.603 0 00-6.139 9.385L89.317 45.07a9.621 9.621 0 01-5.555 6.434c1.901-2.151 2.792-5.477 2.654-9.868l-.525-12.622c0-.316.228-7.747-3.812-11.556-2.03-1.904-4.742-2.546-8.07-1.895h-.068l-.13.06-.108.079-.09.098a.562.562 0 00-.078.129v.059l-.337.888a.704.704 0 00-.564-.217l-12.238 1.569-4.95-8.26c-.654-1.283-2.545-3.345-5.01-1.974a3.486 3.486 0 00-1.733 2.142 4.506 4.506 0 00.386 3.02l4.703 9.414a5.18 5.18 0 004.594 2.96c.333.001.665-.035.99-.108l11.06-1.44-1.693 4.43H58.297a3.82 3.82 0 00-2.762.987 3.073 3.073 0 00-.802 2.171c0 3.099 1.287 3.72 3.356 3.72a.751.751 0 100-1.5c-1.406 0-1.98-.088-1.98-2.22-.026-.397.11-.789.376-1.085a2.63 2.63 0 011.782-.622h11.406l4.95-12.957c2.724-.444 4.951.088 6.545 1.618 3.545 3.326 3.347 10.293 3.337 10.421l.525 12.681c.128 3.947-.624 6.908-2.258 8.783a5.352 5.352 0 01-3.673 1.974H66.535l-4.03 18.167a2.89 2.89 0 01-.99 1.609 2.154 2.154 0 01-1.792.286 2.754 2.754 0 01-1.921-1.164 2.549 2.549 0 01-.267-1.708c0-.167 3.336-16.697 4.04-21.266a4.765 4.765 0 014.316-4.184h4.743a4.312 4.312 0 003.138-1.5c1.485-1.638 2.159-4.352 1.98-8.083a.741.741 0 00-.722-.71.731.731 0 00-.664.79c.159 3.217-.386 5.615-1.554 6.907a2.974 2.974 0 01-2.149 1.086h-4.762a6.16 6.16 0 00-5.653 5.427c-.694 4.53-3.96 21.03-4.02 21.168a4.212 4.212 0 00.435 2.832 4.08 4.08 0 002.842 1.875c.293.065.591.098.891.1a3.136 3.136 0 001.98-.623 4.36 4.36 0 001.515-2.526l3.733-16.983h8.91v18.552h-7.326a.751.751 0 100 1.5h15.99a.751.751 0 100-1.5h-7.297V53.882h1.376c9.664-.109 11.376-8.418 11.406-8.556l2.654-22.392c.722-6.098 5.118-8.131 5.307-8.23a.769.769 0 00.366-.977zM59.178 24a3.766 3.766 0 01-4.188-2.112l-4.713-9.424a2.952 2.952 0 01-.257-1.875c.15-.527.507-.972.99-1.234 1.841-1.046 3.03 1.096 3.188 1.382l5.455 9.089 12.96-1.678-1.623 4.243L59.178 24z" fill="#A8C5DD"/><path d="M75.248 33.839H23.762a.741.741 0 100 1.48h25.05v37.204h-3.267a.746.746 0 100 1.49h8.04a.741.741 0 100-1.48h-3.347V35.319h25.01a.741.741 0 100-1.48z" fill="#2969F6"/><path d="M74.356 16.914c-4.326 0-7.841-3.799-7.841-8.457C66.515 3.8 70.03 0 74.356 0c4.327 0 7.822 3.79 7.822 8.457 0 4.668-3.495 8.457-7.822 8.457zm0-15.414c-3.707.15-6.594 3.261-6.455 6.957a6.447 6.447 0 002.993 6.18 6.493 6.493 0 006.885 0 6.447 6.447 0 002.993-6.18c.135-3.679-2.726-6.781-6.416-6.957z" fill="#032663"/></g></svg>