<svg width="100" height="75" xmlns="http://www.w3.org/2000/svg"><g fill-rule="nonzero" fill="none"><path d="M96.34 0H3.66A3.65 3.65 0 000 3.64v54.6a3.65 3.65 0 003.66 3.64h39.68l-.27 12.41a.69.69 0 00.68.71.7.7 0 00.7-.68L45 50.65a2.72 2.72 0 00-.62-2.31 3.17 3.17 0 00-2.31-.83c-6.33 0-8.3-1.86-8.34-1.89l-10-9.36a2.48 2.48 0 01-.79-1.56 2.43 2.43 0 01.87-1.78 2.66 2.66 0 011.84-.86 3.13 3.13 0 012 .91l8.18 7.93c.42.48 2.6 2.19 12.46 2.19h8.39c9.87 0 12.05-1.71 12.47-2.19l8.13-7.9a3.12 3.12 0 012-.89 2.57 2.57 0 011.84.86 2.5 2.5 0 01.87 1.77 2.45 2.45 0 01-.82 1.59l-10 9.36s-2 1.87-8.27 1.88a3.1 3.1 0 00-2.36.82 2.61 2.61 0 00-.63 2.24l.23 10.56.28 13.09a.72.72 0 00.72.68.7.7 0 00.68-.71l-.25-12.41h34.8a3.65 3.65 0 003.63-3.6V3.64A3.65 3.65 0 0096.34 0zm2.26 58.24a2.26 2.26 0 01-2.26 2.25H61.51l-.25-10a1.41 1.41 0 01.25-1.18 1.79 1.79 0 011.3-.39c7 0 9.23-2.21 9.29-2.28l10-9.31a3.87 3.87 0 001.28-2.57 3.7 3.7 0 00-1.28-2.81 4.09 4.09 0 00-2.85-1.27A4.49 4.49 0 0076.29 32L68 40s-1.71 1.7-11.38 1.7h-8.39c-9.61 0-11.38-1.7-11.39-1.7l-8.25-8a4.51 4.51 0 00-2.93-1.33 4.06 4.06 0 00-2.85 1.27 3.75 3.75 0 00-1.29 2.81 3.84 3.84 0 001.26 2.55l9.95 9.31c.09.09 2.29 2.29 9.36 2.29a1.81 1.81 0 011.25.4c.259.361.347.818.24 1.25l-.22 9.94H3.66a2.26 2.26 0 01-2.26-2.25V3.64a2.26 2.26 0 012.26-2.25h92.68a2.26 2.26 0 012.26 2.25v54.6z" fill="#A8C5DD"/><path d="M60.9 35.53h-1.83a.7.7 0 110-1.39h1.74v-4.85h-1.59a.7.7 0 010-1.4h1.68c.76 0 1.31.43 1.31 1v5.64c0 .58-.55 1-1.31 1zM45.78 35.53H44c-.75 0-1.3-.42-1.3-1v-5.64c0-.57.55-1 1.3-1h1.66a.7.7 0 010 1.4h-1.61v4.85h1.73a.7.7 0 110 1.39z" fill="#032663"/><path d="M52.43 39.69a7.9 7.9 0 118-7.9 8 8 0 01-8 7.9zm0-14.41a6.51 6.51 0 106.63 6.51 6.58 6.58 0 00-6.63-6.51z" fill="#A8C5DD"/><path d="M52.52 32a34.27 34.27 0 01-7.52-.8.695.695 0 11.33-1.35 35.05 35.05 0 0014.08 0 .71.71 0 01.84.52.71.71 0 01-.53.84 33.6 33.6 0 01-7.2.79z" fill="#032663"/><path d="M25.52 44.53c-5.692-.033-10.282-4.668-10.26-10.36.022-5.691 4.648-10.29 10.34-10.28 5.692.011 10.3 4.628 10.3 10.32a.69.69 0 11-1.38 0 9 9 0 10-9 8.95.69.69 0 110 1.37zM38.87 25.27a.7.7 0 01-.57-.27 15.54 15.54 0 00-3.84-3.79.692.692 0 11.8-1.13 17.36 17.36 0 014.17 4.12.68.68 0 01-.17 1 .65.65 0 01-.39.07z" fill="#2969F6"/><path d="M9.11 31.9H9a.67.67 0 01-.56-.79A17.27 17.27 0 0131.4 18a.69.69 0 01.41.89.7.7 0 01-.89.4 15.87 15.87 0 00-21.13 12 .69.69 0 01-.68.61zM19.8 50.23a.69.69 0 01-.24 0A17.06 17.06 0 018.62 38a.71.71 0 111.38-.34 15.71 15.71 0 0010 11.23.69.69 0 01-.2 1.34zM25.38 51.19c-.49 0-1 0-1.45-.06a.69.69 0 11.12-1.37 16.47 16.47 0 002.33 0 .69.69 0 01.73.65.67.67 0 01-.64.72c-.36.05-.72.06-1.09.06z" fill="#2969F6"/><path d="M69.59 34.91a.7.7 0 01-.7-.7 10.4 10.4 0 011.2-4.83.72.72 0 011-.29.7.7 0 01.29.94 9 9 0 00-1 4.18.7.7 0 01-.79.7zM72.55 28a.71.71 0 01-.5-1.21 10.46 10.46 0 0112.25-1.6.7.7 0 01.27.95.71.71 0 01-1 .27A9 9 0 0073 27.78a.69.69 0 01-.45.22zM89 34.91a.69.69 0 01-.69-.7 8.81 8.81 0 00-2-5.56.69.69 0 01.11-1 .7.7 0 011 .11 10.14 10.14 0 012.26 6.42.7.7 0 01-.68.73zM79.28 44.54a11.09 11.09 0 01-2.17-.22.7.7 0 11.29-1.32 9 9 0 009.34-3.76.71.71 0 011-.19.7.7 0 01.19 1 10.38 10.38 0 01-5.56 4.11 10.22 10.22 0 01-3.09.38z" fill="#032663"/></g></svg>