<svg width="99" height="75" xmlns="http://www.w3.org/2000/svg"><g fill-rule="nonzero" fill="none"><path d="M48.149 41.664a.691.691 0 00-.575.79 4.127 4.127 0 01-3.425 4.717 4.075 4.075 0 01-3.96-1.638l-.09-.07s-.05-.068-.09-.088l-.138-.06h-.485a.516.516 0 00-.129.06l-.089.089-.079.079a4.127 4.127 0 01-5.216 1.4 4.1 4.1 0 01-2.12-4.953.689.689 0 00-.095-.728.694.694 0 00-1.212.294 5.521 5.521 0 00.757 4.932 5.56 5.56 0 004.43 2.321c.286-.004.57-.027.852-.069a5.5 5.5 0 003.178-1.717 5.465 5.465 0 003.891 1.579c.285 0 .57-.02.852-.06a5.478 5.478 0 003.544-2.16 5.532 5.532 0 00.99-4.096.68.68 0 00-.791-.622z" fill="#A8C5DD"/><path d="M74.683 33.76a7 7 0 00-3.208-5.872v-.227c-.016-3.703-2.932-6.749-6.643-6.937a6.828 6.828 0 00-4.41-4.703 6.86 6.86 0 00-6.372 1.051 6.827 6.827 0 00-10.496 1.58 6.842 6.842 0 00-5.793.192 6.803 6.803 0 00-3.553 4.564 5.351 5.351 0 00-2.456-.523c-3.216.016-5.812 2.626-5.802 5.832.008.435.061.869.159 1.293a5.817 5.817 0 00-4.654 5.714c.006.33.036.66.09.987a6.893 6.893 0 001.574 10.5 5.736 5.736 0 00-.357 2.062 5.751 5.751 0 003.267 5.267 5.788 5.788 0 006.169-.737 5.77 5.77 0 0010.06-1.264 6.78 6.78 0 002.89.672 5.775 5.775 0 003.416-1.106c.897.27 1.826.415 2.763.434.179-.006.357-.022.534-.049h.06c4.277 0 6.148 2.092 6.228 2.181l3.801 4.431a4.56 4.56 0 002.486 2.19c.187.051.38.078.574.08a3.046 3.046 0 002.832-2.566 2.582 2.582 0 00-.862-1.974 5.824 5.824 0 01-1.871-4.105 5.478 5.478 0 011.436-3.405 7.01 7.01 0 005.254-3.652 6.966 6.966 0 00.082-6.384 6.999 6.999 0 002.802-5.526zM62.01 37.786a3.68 3.68 0 01-1.624 2.546 4.638 4.638 0 01-2.97.355 5.593 5.593 0 001.554-5.851.672.672 0 00-.861-.445.683.683 0 00-.446.869 4.25 4.25 0 01-2.752 5.339 4.188 4.188 0 01-4.277-.987.684.684 0 00-.99 0 .699.699 0 000 .987 5.593 5.593 0 003.96 1.638 5.69 5.69 0 001.713-.267c.17-.062.334-.134.495-.217.853.3 1.75.456 2.653.464a5.192 5.192 0 002.585-.622 4.631 4.631 0 002.069-2.546 6.944 6.944 0 004.614 1.767 7.019 7.019 0 002.97-.691 5.57 5.57 0 01-.35 5.967 5.613 5.613 0 01-9.967-1.822.672.672 0 00-.871-.425.69.69 0 00-.426.879 6.926 6.926 0 005.772 4.667 6.479 6.479 0 00-1.079 3.356 7.174 7.174 0 002.307 5.17c.244.22.396.523.426.85a1.52 1.52 0 01-.723.986 1.161 1.161 0 01-.99.237c-.762-.187-1.436-1.194-1.634-1.569l-3.96-4.608a8.604 8.604 0 00-4.683-2.418c2.079-2.112.99-6.227.92-6.395a.681.681 0 00-.85-.484.69.69 0 00-.466.859c.267.987.683 3.77-.575 5.043-.762.78-2.089.987-3.96.552a.684.684 0 00-1.178-.513 4.784 4.784 0 01-5.842.75c.035-.262.055-.525.06-.79a.682.682 0 00-1.367 0 4.448 4.448 0 01-4.435 4.451 4.408 4.408 0 01-3.96-2.407l.01-.158s0-.08-.08-.109a.327.327 0 00-.099-.06.327.327 0 00-.129-.068h-.347l-.168.05-.079.068a.406.406 0 00-.109.07 4.402 4.402 0 01-3.267 1.46 4.448 4.448 0 01-4.436-4.45 4.291 4.291 0 01.485-1.975.787.787 0 000-.148.443.443 0 000-.108.984.984 0 000-.158v-.109a.552.552 0 00-.069-.128.523.523 0 00-.06-.099.475.475 0 00-.108-.088l-.09-.08a5.52 5.52 0 01-2.994-6.18 5.54 5.54 0 015.351-4.32 5.505 5.505 0 013.683 1.422.684.684 0 00.99 0 .699.699 0 00-.059-.987 6.83 6.83 0 00-8.406-.612 4.438 4.438 0 014.188-4.312l.188-.05a.594.594 0 00.208-.138.562.562 0 00.12-.178c.008-.048.008-.099 0-.148a.502.502 0 00.118-.276v-.089a.669.669 0 000-.138 4.438 4.438 0 01.475-4.102 4.47 4.47 0 013.654-1.947 3.97 3.97 0 012.277.622v.108a6.906 6.906 0 003.851 6.197.683.683 0 00.92-.316.71.71 0 00-.316-.927 5.517 5.517 0 01-3.166-4.629 5.51 5.51 0 012.53-5.003 5.55 5.55 0 015.616-.217h.08c.062.01.126.01.188 0h.07a.893.893 0 00.276-.079h.06a.652.652 0 00.227-.236 5.536 5.536 0 014.95-3.168c1.548 0 3.023.652 4.06 1.796.044.05.098.09.159.118H54.04a.894.894 0 00.158 0 .664.664 0 00.208-.128 5.445 5.445 0 013.743-1.48 5.494 5.494 0 015.257 3.75 6.875 6.875 0 00-4.396 2.615.69.69 0 00.119.987.675.675 0 00.99-.119 5.57 5.57 0 014.426-2.18c3.082.032 5.564 2.532 5.564 5.605.005.075.005.151 0 .227a.69.69 0 00.277.927 5.607 5.607 0 012.703 6.763 5.635 5.635 0 01-6.266 3.74 5.62 5.62 0 01-4.704-5.569.682.682 0 00-1.367 0 7.05 7.05 0 001.258 4.066z" fill="#A8C5DD"/><path d="M53.04 24.8a5.466 5.466 0 00-3.634 1.39 5.47 5.47 0 00-2.753-.76c-3.038.023-5.486 2.49-5.475 5.517 0 .495.07.986.208 1.46a5.51 5.51 0 00-4.514 5.914 5.518 5.518 0 005.504 5.011.692.692 0 100-1.381 4.132 4.132 0 01-4.138-4.125 4.132 4.132 0 014.138-4.125.705.705 0 00.188-.05h.05a.652.652 0 00.277-.987 4.162 4.162 0 01-.327-1.717 4.122 4.122 0 014.11-4.125 4.04 4.04 0 011.831.435 5.465 5.465 0 00-.99 3.049.695.695 0 101.376 0A4.102 4.102 0 0153 26.21a4.102 4.102 0 014.109 4.095.682.682 0 001.366 0c.011-3.011-2.414-5.469-5.435-5.507z" fill="#A8C5DD"/><path d="M64.347 11.586a.654.654 0 01-.525-.247.69.69 0 01.099-.987s4.663-3.898 5.653-8.882a.67.67 0 01.792-.532c.37.079.608.439.535.809-1.09 5.427-5.94 9.464-6.129 9.631a.694.694 0 01-.425.208zM80.267 28.52a.681.681 0 01-.168-1.342c2.832-.74 10.485-3.178 11.792-5.675a.673.673 0 01.92-.286.69.69 0 01.278.928c-1.832 3.513-11.554 6.069-12.653 6.355a.516.516 0 01-.169.02zM90.564 60.414c-4.257 0-13.168-5.92-13.544-6.138a.681.681 0 01-.198-.987.673.673 0 01.99-.197c.089.06 8.91 5.921 12.802 5.921a.692.692 0 010 1.372l-.05.03z" fill="#2969F6"/><path d="M58.723 71.595a.693.693 0 01-.614-.394c-1.832-3.8-5.594-10.165-5.644-10.224a.699.699 0 01.238-.987.685.685 0 01.99.247c0 .06 3.832 6.474 5.683 10.332a.689.689 0 01-.317.928.774.774 0 01-.336.098zM29.693 72.641a.702.702 0 01-.683-.611c-.555-4.757 1.465-9.869 1.544-10.066a.672.672 0 01.892-.375.692.692 0 01.386.898s-1.98 4.983-1.456 9.375a.701.701 0 01-.604.77l-.079.01z" fill="#A8C5DD"/><path d="M.663 60.03a.715.715 0 01-.336-.09.691.691 0 01-.248-.986c1.891-3.286 13.545-9.02 14.862-9.612a.688.688 0 01.981.669.684.684 0 01-.387.565c-3.485 1.697-12.872 6.651-14.287 9.167a.654.654 0 01-.585.287zM17.139 24.07a.685.685 0 01-.238-.05A146.401 146.401 0 01.356 16.865a.68.68 0 01-.287-.918.663.663 0 01.911-.286 146.96 146.96 0 0016.386 7.036.69.69 0 01.406.879.683.683 0 01-.633.493z" fill="#2969F6"/><path d="M39.208 12a.644.644 0 01-.535-.266S34.97 7.076 30.356 2.15a.699.699 0 010-.987.684.684 0 01.99 0C36 6.1 39.694 10.786 39.734 10.836a.69.69 0 01-.139 1.006.655.655 0 01-.386.158z" fill="#A8C5DD"/><path d="M51.366 7.658a3.321 3.321 0 01-3.287-3.336 3.282 3.282 0 013.287-3.276 3.282 3.282 0 013.288 3.276 3.321 3.321 0 01-3.288 3.336zm0-5.29a1.98 1.98 0 00-1.87 1.177 1.969 1.969 0 00.39 2.17 1.985 1.985 0 002.164.456 1.974 1.974 0 001.237-1.829c0-1.067-.85-1.942-1.92-1.974zM7.238 38.122a3.347 3.347 0 01-3.134-2.018 3.327 3.327 0 01.687-3.655 3.355 3.355 0 013.654-.75 3.336 3.336 0 012.08 3.087 3.321 3.321 0 01-3.287 3.336zm0-5.28a1.98 1.98 0 00-1.872 1.177 1.969 1.969 0 00.39 2.17 1.985 1.985 0 002.166.455 1.974 1.974 0 001.236-1.828c0-1.068-.85-1.942-1.92-1.974zM44.267 69.079a3.347 3.347 0 01-3.163-1.994 3.327 3.327 0 01.67-3.67 3.354 3.354 0 013.665-.756 3.336 3.336 0 012.076 3.104c0 1.801-1.441 3.273-3.248 3.316zm0-5.28a1.98 1.98 0 00-1.87 1.177 1.969 1.969 0 00.39 2.17 1.985 1.985 0 002.164.455 1.974 1.974 0 001.237-1.828 1.977 1.977 0 00-1.92-1.964v-.01z" fill="#032663"/><path d="M78.93 17.763a3.347 3.347 0 01-3.126-2.024 3.327 3.327 0 01.693-3.652 3.355 3.355 0 013.653-.745 3.335 3.335 0 012.078 3.086 3.3 3.3 0 01-.954 2.35 3.322 3.322 0 01-2.343.985zm0-5.28a1.98 1.98 0 00-1.87 1.177 1.969 1.969 0 00.39 2.17 1.985 1.985 0 002.165.456 1.974 1.974 0 001.236-1.829 1.977 1.977 0 00-1.92-2.023v.05z" fill="#A8C5DD"/><path d="M91.871 47.368h-1.366c0-.296.198-7.095-5.535-7.49l.07-1.391c.217 0 5.257.06 6.089-6.395l1.366.128c0 .168-.168 4.175 5.119 6.316L99 39.1l-1.327.7s-5.515 2.931-5.802 7.57zm-4.02-8.19a7.443 7.443 0 013.604 4.776 13.834 13.834 0 014.446-4.747 8.896 8.896 0 01-4.139-4.154 7.342 7.342 0 01-3.91 4.154v-.03z" fill="#032663"/><path d="M17.248 75h-1.416c0-.296.198-7.401-5.535-7.796l.07-1.382c.227 0 5.257.07 6.088-6.394l1.367.128c0 .168-.169 4.174 5.119 6.316l1.386.562-1.277.671c-.06 0-5.525 3.267-5.802 7.895zm-4.03-8.487a7.443 7.443 0 013.604 4.806 13.834 13.834 0 014.445-4.747 8.797 8.797 0 01-4.128-4.154 7.382 7.382 0 01-3.921 4.125v-.03zM21.158 17.349l-1.366-.07c0-.286.198-7.085-5.525-7.48l.06-1.381c.218 0 5.257.059 6.089-6.405l1.356.138c0 .168-.168 4.175 5.129 6.316l1.376.563-1.317.69c-.059.03-5.524 2.97-5.802 7.629zm-4.02-8.191a7.473 7.473 0 013.644 4.786 13.834 13.834 0 014.456-4.747 8.827 8.827 0 01-4.139-4.154 7.343 7.343 0 01-3.96 4.115z" fill="#A8C5DD"/></g></svg>