<?xml version="1.0" encoding="UTF-8"?>
<svg width="99px" height="75px" viewBox="0 0 99 75" version="1.1" xmlns="http://www.w3.org/2000/svg" xmlns:xlink="http://www.w3.org/1999/xlink">
    <!-- Generator: sketchtool 59 (101010) - https://sketch.com -->
    <title>BB6A5545-DEB5-49D0-A362-43FD234A9C6D</title>
    <desc>Created with sketchtool.</desc>
    <g id="Page-1" stroke="none" stroke-width="1" fill="none" fill-rule="evenodd">
        <g id="Icons" transform="translate(-854.000000, -3145.000000)" fill-rule="nonzero">
            <g id="mid-icon-invent" transform="translate(853.000000, 3145.000000)">
                <path d="M49.1485149,41.6644737 C48.771609,41.7250702 48.5148459,42.0780613 48.5742574,42.4539474 C48.9308693,44.698401 47.399088,46.8076003 45.1485149,47.1710526 C43.6234036,47.4187509 42.089124,46.7841194 41.1881188,45.5328947 L41.0990099,45.4638158 C41.0990099,45.4638158 41.049505,45.3947368 41.009901,45.375 L41.009901,45.375 L40.8712871,45.3157895 L40.7524752,45.3157895 L40.4950495,45.3157895 L40.3861386,45.3157895 C40.3407004,45.3295165 40.2973856,45.3494421 40.2574257,45.375 L40.2574257,45.375 C40.2574257,45.375 40.1980198,45.4342105 40.1683168,45.4638158 L40.0891089,45.5427632 C38.942962,47.2394469 36.7185378,47.836335 34.8726737,46.9425089 C33.0268097,46.0486828 32.1227017,43.9368597 32.7524752,41.9901316 C32.8640023,41.7494277 32.8274691,41.4663399 32.6584566,41.2616026 C32.4894442,41.0568653 32.2177772,40.9666076 31.9593195,41.0293235 C31.7008617,41.0920394 31.5012218,41.2966618 31.4455446,41.5559211 C30.8984617,43.2264685 31.179593,45.0566831 32.2030734,46.4875677 C33.2265537,47.9184524 34.870818,48.7800519 36.6336634,48.8092105 C36.9187334,48.8054227 37.2032163,48.7823433 37.4851485,48.7401316 C38.7085369,48.5414236 39.8285862,47.9362912 40.6633663,47.0230263 C41.6969107,48.0459723 43.0979552,48.6144958 44.5544554,48.6019737 C44.839304,48.601546 45.123792,48.5817633 45.4059406,48.5427632 C46.8264711,48.3145652 48.0997853,47.5382007 48.950495,46.3815789 C49.8080956,45.1993707 50.1638188,43.7279755 49.9405941,42.2861842 C49.9264572,42.0955809 49.8326024,41.919674 49.6819533,41.8014281 C49.5313042,41.6831823 49.3377317,41.6334846 49.1485149,41.6644737 L49.1485149,41.6644737 Z" id="Path" fill="#A8C5DD"></path>
                <path d="M75.6831683,33.7598684 C75.6801298,31.387554 74.4729153,29.1778941 72.4752475,27.8881579 C72.4752475,27.8092105 72.4752475,27.7401316 72.4752475,27.6611842 C72.4590435,23.9577503 69.5425567,20.9122273 65.8316832,20.7236842 C65.2430626,18.5196762 63.5879016,16.7549037 61.4212594,16.0211842 C59.2546172,15.2874646 56.8634004,15.6819571 55.049505,17.0723684 C53.5311228,15.6811098 51.4620759,15.0504476 49.4226836,15.3572678 C47.3832912,15.664088 45.5931878,16.8753473 44.5544554,18.6513158 C42.6907527,17.8539303 40.5677118,17.9244328 38.7613927,18.8436932 C36.9550736,19.7629536 35.6527977,21.4356416 35.2079208,23.4078947 C34.4428229,23.0413876 33.6010433,22.8620829 32.7524752,22.8848684 C29.5355904,22.9011809 26.9395301,25.5107794 26.950495,28.7171053 C26.9580357,29.1523458 27.0111286,29.5856135 27.1089109,30.0098684 C24.391517,30.5685806 22.445338,32.958221 22.4554455,35.7236842 C22.4614106,36.0543335 22.4911902,36.384129 22.5445545,36.7105263 C21.1753046,38.2414895 20.559387,40.2997252 20.8635069,42.3281477 C21.1676268,44.3565701 22.3603353,46.1454208 24.1188119,47.2105263 C23.8744855,47.8705241 23.7536752,48.5695882 23.7623762,49.2730263 C23.7295756,51.5130174 25.0042893,53.5682938 27.0292785,54.5403951 C29.0542677,55.5124965 31.4612509,55.2246283 33.1980198,53.8026316 C34.4292675,55.5187819 36.5054101,56.4239479 38.6055553,56.160233 C40.7057004,55.8965181 42.4917168,54.5063815 43.2574257,52.5394737 C44.1593631,52.973818 45.1468479,53.2030237 46.1485149,53.2105263 C47.3761843,53.2141876 48.5729406,52.8269534 49.5643564,52.1052632 L49.5643564,52.1052632 C50.4611083,52.3742917 51.390436,52.5203703 52.3267327,52.5394737 C52.5057534,52.5332747 52.684267,52.5168 52.8613861,52.4901316 L52.9207921,52.4901316 C57.1980198,52.4901316 59.0693069,54.5822368 59.1485149,54.6710526 L62.950495,59.1019737 C63.4738445,60.1170829 64.3608787,60.8990503 65.4356436,61.2927632 C65.6229497,61.3431444 65.815905,61.3696714 66.009901,61.3717105 C67.4417513,61.2866622 68.620583,60.2185222 68.8415842,58.8059211 C68.8558963,58.0545145 68.5414754,57.3340856 67.980198,56.8322368 C66.8294668,55.7692078 66.1552532,54.2901059 66.1089109,52.7269737 C66.1783816,51.4608555 66.6856821,50.2578005 67.5445545,49.3223684 C69.7842949,49.0205022 71.7406069,47.6608109 72.7989935,45.6703871 C73.8573801,43.6799632 73.8879825,41.303022 72.8811881,39.2861842 C74.6254611,37.9776698 75.6607938,35.9356941 75.6831683,33.7598684 Z M63.009901,37.7861842 C62.8584735,38.8271201 62.2675001,39.7537638 61.3861386,40.3322368 C60.4628934,40.7754535 59.4180828,40.9004183 58.4158416,40.6875 C60.0371197,39.207395 60.6443635,36.9213373 59.970297,34.8355263 C59.9181029,34.6607761 59.7968131,34.5147174 59.6343306,34.4309512 C59.471848,34.3471849 59.2821623,34.3329233 59.1089109,34.3914474 C58.9328656,34.4456734 58.7862617,34.5684791 58.7023699,34.7319944 C58.6184782,34.8955097 58.604413,35.0858679 58.6633663,35.2598684 C59.3771176,37.4912787 58.1466548,39.8779355 55.9108911,40.5986842 C54.4126632,41.1029956 52.7571615,40.7210382 51.6336634,39.6118421 C51.5046999,39.4766799 51.3257533,39.4001642 51.1386139,39.4001642 C50.9514744,39.4001642 50.7725278,39.4766799 50.6435644,39.6118421 C50.3717272,39.8849978 50.3717272,40.3255285 50.6435644,40.5986842 C51.6923723,41.6482841 53.1177098,42.2378535 54.6039604,42.2368421 C55.185241,42.2360123 55.7629413,42.1461475 56.3168317,41.9703947 C56.4861438,41.9081761 56.6514703,41.8356717 56.8118812,41.7532895 C57.6646575,42.0526763 58.5612488,42.2093971 59.4653465,42.2171053 C60.3663363,42.2375346 61.2570755,42.0232358 62.049505,41.5953947 C63.027688,41.0266063 63.7636112,40.1211345 64.1188119,39.0493421 C65.3866979,40.1833052 67.0291782,40.8121396 68.7326733,40.8157895 C69.7616796,40.8059355 70.7758505,40.5700741 71.7029703,40.125 C72.7534246,42.0142269 72.6168688,44.3377846 71.3522977,46.0918508 C70.0877266,47.8459169 67.9218282,48.716056 65.7903133,48.3263509 C63.6587983,47.9366458 61.9437639,46.3569553 61.3861386,44.2697368 C61.3299502,44.0962348 61.2053522,43.9529878 61.0410048,43.8729459 C60.8766574,43.7929039 60.6867089,43.7829576 60.5148515,43.8453947 C60.1543738,43.9712196 59.9639729,44.3640088 60.0891089,44.7236842 C60.9425963,47.2633898 63.1921009,49.0824561 65.8613861,49.3914474 C65.198266,50.3893542 64.8247791,51.5505269 64.7821782,52.7467105 C64.8089394,54.7123877 65.642692,56.5812686 67.0891089,57.9177632 C67.333025,58.1372492 67.4850329,58.4402647 67.5148515,58.7664474 C67.423045,59.1816891 67.1609036,59.5396057 66.7920792,59.7532895 C66.5164134,59.9803219 66.1509994,60.0677328 65.8019802,59.9901316 C65.039604,59.8026316 64.3663366,58.7960526 64.1683168,58.4210526 L60.2079208,53.8125 C58.9396915,52.5372691 57.3014672,51.6915087 55.5247525,51.3947368 L55.5247525,51.3947368 C57.6039604,49.2828947 56.5148515,45.1677632 56.4455446,45 C56.3993239,44.8218588 56.282738,44.6699448 56.1223379,44.5788546 C55.9619378,44.4877645 55.7713791,44.4652532 55.5940594,44.5164474 C55.2279854,44.6258099 55.0198115,45.0098856 55.1287129,45.375 C55.3960396,46.3618421 55.8118812,49.1447368 54.5544554,50.4177632 C53.7920792,51.1973684 52.4653465,51.4046053 50.5940594,50.9703947 C50.6072149,50.7804906 50.5388321,50.5939532 50.4059406,50.4572368 C50.2769772,50.3220746 50.0980305,50.245559 49.9108911,50.245559 C49.7237516,50.245559 49.544805,50.3220746 49.4158416,50.4572368 C47.8741133,52.0178958 45.462468,52.3275265 43.5742574,51.2072368 C43.6091852,50.9454273 43.6290197,50.6818366 43.6336634,50.4177632 C43.6336634,50.0417008 43.3277985,49.7368421 42.950495,49.7368421 C42.5731916,49.7368421 42.2673267,50.0417008 42.2673267,50.4177632 C42.2728106,52.8665058 40.2884893,54.8575438 37.8316832,54.8684211 C36.1601637,54.8795633 34.6262675,53.9469645 33.8712871,52.4605263 L33.8811881,52.3026316 C33.8811881,52.3026316 33.8811881,52.2236842 33.8019802,52.1940789 L33.8019802,52.1940789 C33.7727653,52.1686402 33.7392386,52.1485903 33.7029703,52.1348684 C33.6658512,52.1024483 33.6218456,52.0788309 33.5742574,52.0657895 L33.4950495,52.0657895 L33.3168317,52.0657895 L33.2277228,52.0657895 L33.0594059,52.1151316 L33.0594059,52.1151316 L32.980198,52.1842105 C32.9404299,52.2012991 32.9036615,52.2246203 32.8712871,52.2532895 C32.0394817,53.1802227 30.85167,53.7111859 29.6039604,53.7138158 C27.1471542,53.7029386 25.162833,51.7119005 25.1683168,49.2631579 C25.169609,48.5760915 25.3359643,47.8993238 25.6534653,47.2894737 L25.6534653,47.2894737 C25.6581167,47.2402405 25.6581167,47.1906806 25.6534653,47.1414474 C25.6579192,47.1053993 25.6579192,47.0689428 25.6534653,47.0328947 C25.6576965,46.9803476 25.6576965,46.9275471 25.6534653,46.875 C25.6534653,46.875 25.6534653,46.8059211 25.6534653,46.7664474 C25.6361451,46.7208228 25.6128403,46.6776848 25.5841584,46.6381579 C25.5680587,46.6031853 25.5481362,46.5700903 25.5247525,46.5394737 C25.4930718,46.5046457 25.4563659,46.4747124 25.4158416,46.4506579 L25.3267327,46.3717105 L25.3267327,46.3717105 C23.0104382,45.2539474 21.7702742,42.6945381 22.332042,40.1913672 C22.8938097,37.6881963 25.1098229,35.8993362 27.6831683,35.8717105 C29.0451561,35.8740768 30.35773,36.3804985 31.3663366,37.2927632 C31.4953001,37.4279254 31.6742467,37.504441 31.8613861,37.504441 C32.0485256,37.504441 32.2274722,37.4279254 32.3564356,37.2927632 C32.6125359,37.003593 32.5859827,36.5624956 32.2970297,36.3059211 C29.9731517,34.1913342 26.4985322,33.9384276 23.8910891,35.6940789 C23.9490634,33.3895688 25.7702043,31.5143426 28.0792079,31.3815789 L28.2673267,31.3322368 L28.2673267,31.3322368 C28.3456776,31.3013984 28.4165523,31.254304 28.4752475,31.1940789 L28.4752475,31.1940789 C28.525865,31.1429707 28.5661951,31.0826745 28.5940594,31.0164474 L28.5940594,31.0164474 C28.6034246,30.9675467 28.6034246,30.9173217 28.5940594,30.8684211 C28.6609817,30.7905311 28.7024354,30.694124 28.7128713,30.5921053 L28.7128713,30.5921053 L28.7128713,30.5032895 C28.7176403,30.4573595 28.7176403,30.4110616 28.7128713,30.3651316 C28.1867371,29.0028152 28.364307,27.4699445 29.188071,26.2629752 C30.0118349,25.0560059 31.3770591,24.3283925 32.8415842,24.3157895 C33.6464248,24.2874314 34.4408128,24.5043089 35.1188119,24.9375 C35.1188119,24.9375 35.1188119,25.0065789 35.1188119,25.0460526 C35.115497,27.6738419 36.6083271,30.075933 38.970297,31.2434211 C39.0624537,31.2894781 39.1642359,31.3131492 39.2673267,31.3125 C39.5325825,31.3157972 39.7757722,31.1657465 39.8910891,30.9276316 C40.0505108,30.5836816 39.9111169,30.1755589 39.5742574,30 C37.7528831,29.1456891 36.5404895,27.3730946 36.4082316,25.3710744 C36.2759736,23.3690542 37.2447077,21.4533159 38.9379686,20.3683453 C40.6312296,19.2833747 42.7819994,19.2002657 44.5544554,20.1513158 L44.5544554,20.1513158 L44.6336634,20.1513158 C44.6959433,20.1616225 44.7595022,20.1616225 44.8217822,20.1513158 L44.8910891,20.1513158 C44.9871854,20.1401741 45.08082,20.1135093 45.1683168,20.0723684 L45.2277228,20.0723684 C45.3226607,20.014079 45.4010548,19.9325456 45.4554455,19.8355263 L45.4554455,19.8355263 L45.4554455,19.8355263 C46.3593518,17.9205447 48.2827453,16.689788 50.4059406,16.6677632 C51.9528774,16.6677632 53.4275282,17.3204421 54.4653465,18.4638158 L54.4653465,18.4638158 C54.5092237,18.5139381 54.5632005,18.5542876 54.6237624,18.5822368 L54.6831683,18.5822368 L54.8316832,18.5822368 L54.9405941,18.5822368 L55.039604,18.5822368 C55.0923045,18.5869245 55.1453192,18.5869245 55.1980198,18.5822368 L55.1980198,18.5822368 C55.2747041,18.5526855 55.3452087,18.5091833 55.4059406,18.4539474 L55.4059406,18.4539474 C56.4173531,17.5012039 57.7568713,16.9713976 59.1485149,16.9736842 C61.5313961,16.9552538 63.6546308,18.4697079 64.4059406,20.7236842 C62.6573279,20.9984506 61.0825691,21.9352487 60.009901,23.3388158 C59.8911526,23.4841281 59.836738,23.6712942 59.8591413,23.8573738 C59.8815445,24.0434534 59.9788425,24.2124738 60.1287129,24.3256579 C60.2721757,24.4496829 60.4615187,24.5075505 60.650075,24.4849981 C60.8386314,24.4624458 61.0088625,24.3615713 61.1188119,24.2072368 C62.1720194,22.8320277 63.8087695,22.0254686 65.5445545,22.0263158 C68.6272483,22.0587741 71.1090829,24.5588541 71.1089109,27.6315789 C71.113848,27.7071568 71.113848,27.7829748 71.1089109,27.8585526 C70.9322016,28.1913909 71.0555038,28.6039725 71.3861386,28.7861842 C73.8295595,30.0741397 74.9746019,32.9386956 74.0892323,35.5485213 C73.2038626,38.1583471 70.549625,39.7424828 67.823392,39.2881794 C65.097159,38.833876 63.1042781,36.4753378 63.1188119,33.7203947 C63.1188119,33.3443324 62.812947,33.0394737 62.4356436,33.0394737 C62.0583401,33.0394737 61.7524752,33.3443324 61.7524752,33.7203947 C61.7425667,35.1722332 62.1816176,36.5918705 63.009901,37.7861842 Z" id="Shape" fill="#A8C5DD"></path>
                <path d="M54.039604,24.7993421 C52.697924,24.802026 51.4042862,25.2974018 50.4059406,26.1907895 C49.5724304,25.6983683 48.6223792,25.4360902 47.6534653,25.4309211 C44.6154361,25.4526471 42.1672308,27.9192746 42.1782178,30.9473684 C42.1771402,31.4416126 42.2471595,31.9334581 42.3861386,32.4078947 C39.5729251,32.9176875 37.6148067,35.4827051 37.8720548,38.3210735 C38.1293029,41.159442 40.5169062,43.3331835 43.3762376,43.3322372 C43.7590092,43.3322372 44.0693069,43.0229599 44.0693069,42.6414474 C44.0693069,42.2599349 43.7590092,41.9506579 43.3762376,41.9506579 C41.0905443,41.9506579 39.2376238,40.1038325 39.2376238,37.8256579 C39.2376238,35.5474833 41.0905443,33.7006579 43.3762376,33.7006579 L43.3762376,33.7006579 C43.4409351,33.6929792 43.5042473,33.6763729 43.5643564,33.6513158 L43.6138614,33.6513158 C43.7992846,33.5748452 43.9391756,33.4177006 43.9932821,33.2250988 C44.0473885,33.0324971 44.0097104,32.8257967 43.8910891,32.6644737 C43.6618365,32.1214963 43.5504854,31.5363038 43.5643564,30.9473684 C43.5588713,28.6784804 45.3969108,26.8332438 47.6732673,26.8223684 C48.3096625,26.8209148 48.9373549,26.9697128 49.5049505,27.2565789 C48.8772384,28.1518865 48.532439,29.2138117 48.5148515,30.3059211 C48.482941,30.5705974 48.6066762,30.8299539 48.8327899,30.9723391 C49.0589035,31.1147244 49.3470371,31.1147244 49.5731507,30.9723391 C49.7992644,30.8299539 49.9229996,30.5705974 49.8910891,30.3059211 C49.8910891,28.044097 51.7307112,26.2105263 54,26.2105263 C56.2692888,26.2105263 58.1089109,28.044097 58.1089109,30.3059211 C58.1089109,30.6819834 58.4147758,30.9868421 58.7920792,30.9868421 C59.1693827,30.9868421 59.4752855,30.6819834 59.4752855,30.3059211 C59.4863542,27.2947105 57.0605337,24.8372329 54.039604,24.7993421 Z" id="Path" fill="#A8C5DD"></path>
                <path d="M65.3465347,11.5855263 C65.1425695,11.5894387 64.9484735,11.4981851 64.8217822,11.3388158 C64.7008472,11.1960102 64.6431211,11.0104613 64.6617773,10.8245127 C64.6804336,10.6385641 64.7738802,10.4680827 64.9207921,10.3519737 C64.9207921,10.3519737 69.5841584,6.45394737 70.5742574,1.47039474 C70.607785,1.29471548 70.7102789,1.13964138 70.8589905,1.03959124 C71.0077021,0.939541107 71.1903289,0.902791851 71.3663366,0.9375 C71.7362887,1.01655922 71.9742596,1.37673379 71.9009901,1.74671053 C70.8118812,7.17434211 65.960396,11.2105263 65.7722772,11.3782895 C65.6591953,11.4950734 65.5084679,11.5684423 65.3465347,11.5855263 Z" id="Path" fill="#2969F6"></path>
                <path d="M81.2673267,28.5197368 C80.920853,28.5223164 80.6273069,28.2659695 80.584331,27.9232926 C80.541355,27.5806158 80.7625598,27.2601367 81.0990099,27.1776316 C83.9306931,26.4375 91.5841584,24 92.8910891,21.5032895 C92.9733472,21.341902 93.117533,21.220483 93.2909154,21.1665953 C93.4642978,21.1127077 93.652169,21.1309226 93.8118812,21.2171053 C94.142516,21.3993169 94.2658182,21.8118985 94.0891089,22.1447368 C92.2574257,25.6578947 82.5346535,28.2138158 81.4356436,28.5 C81.381017,28.515801 81.324141,28.5224702 81.2673267,28.5197368 L81.2673267,28.5197368 Z" id="Path" fill="#2969F6"></path>
                <path d="M91.5643564,60.4144737 C87.3069307,60.4144737 78.3960396,54.4934211 78.019802,54.2763158 C77.8551807,54.1775522 77.7398977,54.0142582 77.7022154,53.8264663 C77.664533,53.6386744 77.7079354,53.4437477 77.8217822,53.2894737 C77.918698,53.1229167 78.0827244,53.0058764 78.27215,52.9681159 C78.4615756,52.9303554 78.6581486,52.975513 78.8118812,53.0921053 C78.9009901,53.1513158 87.7227723,59.0131579 91.6138614,59.0131579 C91.9621445,59.0548726 92.2242411,59.3493783 92.2242411,59.6990132 C92.2242411,60.048648 91.9621445,60.3431538 91.6138614,60.3848684 L91.5643564,60.4144737 Z" id="Path" fill="#2969F6"></path>
                <path d="M59.7227723,71.5953947 C59.4595391,71.5907057 59.2217011,71.4377665 59.1089109,71.2006579 C57.2772277,67.4013158 53.5148515,61.0361842 53.4653465,60.9769737 C53.3608065,60.8159636 53.3270532,60.6192804 53.3719582,60.4327921 C53.4168631,60.2463038 53.5365005,60.0863133 53.7029703,59.9901316 C53.8640547,59.880651 54.0643957,59.8449861 54.2535447,59.8921178 C54.4426937,59.9392495 54.6026263,60.0646865 54.6930693,60.2368421 C54.6930693,60.2960526 58.5247525,66.7105263 60.3762376,70.5690789 C60.4582238,70.7338726 60.470883,70.9244519 60.4114096,71.0985802 C60.3519363,71.2727085 60.2252423,71.4160045 60.0594059,71.4967105 C59.9562782,71.5549144 59.8410941,71.5886806 59.7227723,71.5953947 L59.7227723,71.5953947 Z" id="Path" fill="#A8C5DD"></path>
                <path d="M30.6930693,72.6414474 C30.3446756,72.6344565 30.0540019,72.3741306 30.009901,72.0296053 C29.4554455,67.2730263 31.4752475,62.1611842 31.5544554,61.9638158 C31.6203565,61.7944045 31.7523661,61.6588705 31.9203089,61.5881946 C32.0882516,61.5175186 32.2777706,61.5177428 32.4455446,61.5888158 C32.6162407,61.6568495 32.7528246,61.7896907 32.8252419,61.9581086 C32.8976593,62.1265265 32.8999763,62.3167213 32.8316832,62.4868421 C32.8316832,62.4868421 30.8514851,67.4703947 31.3762376,71.8618421 C31.4172596,72.2390981 31.1495083,72.5803423 30.7722772,72.6315789 L30.6930693,72.6414474 Z" id="Path" fill="#A8C5DD"></path>
                <path d="M1.66336634,60.0296053 C1.54551416,60.0281919 1.42985226,59.9976762 1.32673267,59.9407895 C1.15636042,59.8484002 1.03262505,59.6890822 0.985583823,59.5015363 C0.938542595,59.3139903 0.972500242,59.1153787 1.07920792,58.9539474 C2.97029703,55.6677632 14.6237624,49.9342105 15.9405941,49.3421053 C16.1616743,49.2363358 16.4225743,49.2561578 16.6250157,49.3941043 C16.8274571,49.5320509 16.9406842,49.7671647 16.9220454,50.0108806 C16.9034066,50.2545966 16.7557337,50.4698885 16.5346535,50.5756579 C13.049505,52.2730263 3.66336634,57.2269737 2.24752475,59.7434211 C2.1177189,59.9355658 1.89529066,60.0445353 1.66336634,60.0296053 Z" id="Path" fill="#2969F6"></path>
                <path d="M18.1386139,24.0690789 C18.0570859,24.0669006 17.9766081,24.0501896 17.9009901,24.0197368 C12.2436249,21.9766117 6.71825627,19.5871952 1.35643564,16.8651316 C1.02340362,16.6902891 0.895007568,16.2798906 1.06930693,15.9473684 C1.14956815,15.7866421 1.2919546,15.6653572 1.46374846,15.611383 C1.63554233,15.5574087 1.82197153,15.5753861 1.98019802,15.6611842 C7.29395793,18.3357694 12.7661219,20.6855087 18.3663366,22.6973684 C18.7189553,22.8311878 18.8993865,23.2215672 18.7722772,23.5756579 C18.6908243,23.8597337 18.4348668,24.0590427 18.1386139,24.0690789 L18.1386139,24.0690789 Z" id="Path" fill="#2969F6"></path>
                <path d="M40.2079208,12 C39.9966199,12.0040705 39.7967807,11.9044796 39.6732673,11.7335526 C39.6732673,11.7335526 35.970297,7.07565789 31.3564356,2.15131579 C31.0845985,1.8781601 31.0845985,1.43762937 31.3564356,1.16447368 C31.4853991,1.02931147 31.6643457,0.952795793 31.8514851,0.952795793 C32.0386246,0.952795793 32.2175712,1.02931147 32.3465347,1.16447368 C37,6.09868421 40.6930693,10.7861842 40.7326733,10.8355263 C40.8559156,10.9844022 40.9110473,11.1778796 40.8847152,11.3690971 C40.858383,11.5603146 40.7529887,11.7318314 40.5940594,11.8421053 C40.486124,11.9353928 40.35049,11.9908545 40.2079208,12 Z" id="Path" fill="#A8C5DD"></path>
                <path d="M52.3663366,7.65789474 C50.5367757,7.63621744 49.0681876,6.14600684 49.0791463,4.32236842 C49.0791463,2.51290917 50.5509056,1.04605263 52.3663366,1.04605263 C54.1817677,1.04605263 55.653527,2.51290917 55.653527,4.32236842 C55.6644856,6.14600684 54.1958976,7.63621744 52.3663366,7.65789474 Z M52.3663366,2.36842105 C51.5604555,2.34431338 50.8203727,2.80960056 50.4950709,3.54487858 C50.1697691,4.28015661 50.3242074,5.13859859 50.8855612,5.71541019 C51.446915,6.29222179 52.3030882,6.47222012 53.0503562,6.1705278 C53.7976241,5.86883547 54.2867658,5.14569711 54.2871289,4.34210526 C54.2876107,3.27478021 53.4367023,2.4004407 52.3663366,2.36842105 Z" id="Shape" fill="#032663"></path>
                <path d="M8.23762376,38.1217105 C6.87893085,38.1457538 5.64054919,37.3485002 5.10379973,36.1041965 C4.56705027,34.8598928 4.83851579,33.4156213 5.79076499,32.4493518 C6.74301418,31.4830823 8.18695815,31.1866877 9.44478091,31.6993014 C10.7026037,32.2119152 11.5245384,33.4317473 11.5248141,34.7861842 C11.5357728,36.6098226 10.0671847,38.1000332 8.23762376,38.1217105 Z M8.23762376,32.8421053 C7.4317426,32.8179976 6.69165981,33.2832848 6.36635801,34.0185628 C6.0410562,34.7538408 6.19549455,35.6122828 6.75684836,36.1890944 C7.31820217,36.765906 8.17437531,36.9459043 8.92164329,36.644212 C9.66891127,36.3425197 10.158053,35.6193813 10.158416,34.8157895 C10.1588978,33.7484644 9.30798946,32.8741249 8.23762376,32.8421053 Z" id="Shape" fill="#032663"></path>
                <path d="M45.2673267,69.0789474 C43.9036936,69.119156 42.6520756,68.3303195 42.1038921,67.0851821 C41.5557087,65.8400447 41.8207087,64.3878884 42.7736732,63.4148921 C43.7266377,62.4418957 45.176779,62.1428575 46.4388705,62.6590802 C47.700962,63.1753028 48.5223273,64.4034362 48.5149021,65.7631579 C48.5153637,67.5640248 47.073625,69.0360697 45.2673267,69.0789474 L45.2673267,69.0789474 Z M45.2673267,63.7993421 C44.4614456,63.7752344 43.7213628,64.2405216 43.396061,64.9757996 C43.0707592,65.7110777 43.2251975,66.5695196 43.7865513,67.1463312 C44.3479051,67.7231428 45.2040783,67.9031412 45.9513463,67.6014488 C46.6986142,67.2997565 47.1877559,66.5766182 47.1881188,65.7730263 C47.1832637,64.7095332 46.3338608,63.8411046 45.2673267,63.8092105 L45.2673267,63.7993421 Z" id="Shape" fill="#032663"></path>
                <path d="M79.9306931,17.7631579 C78.5728216,17.7831809 77.3374424,16.983324 76.8038283,15.7386427 C76.2702142,14.4939614 76.5441807,13.0512749 77.4972639,12.0870633 C78.4503471,11.1228518 79.8935515,10.8283175 81.1501541,11.3415686 C82.4067567,11.8548196 83.2275742,13.0740787 83.2277228,14.4276316 C83.2356316,15.3061241 82.8923915,16.151626 82.2737898,16.7774507 C81.655188,17.4032753 80.8121049,17.7579483 79.9306931,17.7631579 Z M79.9306931,12.4835526 C79.1248119,12.459445 78.3847291,12.9247321 78.0594273,13.6600102 C77.7341255,14.3952882 77.8885639,15.2537302 78.4499177,15.8305418 C79.0112715,16.4073534 79.8674446,16.5873517 80.6147126,16.2856594 C81.3619806,15.9839671 81.8511223,15.2608287 81.8514851,14.4572368 C81.8792243,13.3708176 81.0205705,12.4664619 79.9306931,12.4342105 L79.9306931,12.4835526 Z" id="Shape" fill="#A8C5DD"></path>
                <path d="M92.8712871,47.3684211 L91.5049505,47.3684211 C91.5049505,47.0723684 91.7029703,40.2730263 85.970297,39.8782895 L86.039604,38.4868421 C86.2574257,38.4868421 91.2970297,38.5460526 92.1287129,32.0921053 L93.4950495,32.2203947 C93.4950495,32.3881579 93.3267327,36.3947368 98.6138614,38.5361842 L100,39.0986842 L98.6732673,39.7993421 C98.6732673,39.7993421 93.1584158,42.7302632 92.8712871,47.3684211 Z M88.8514851,39.1776316 C90.6696928,40.1977974 91.9765852,41.9298172 92.4554455,43.9539474 C93.5379002,42.042163 95.0618361,40.4149871 96.9009901,39.2072368 C95.0899913,38.3283862 93.6311538,36.8639119 92.7623762,35.0526316 C92.0738806,36.9063011 90.6636698,38.4043918 88.8514851,39.2072368 L88.8514851,39.1776316 Z" id="Shape" fill="#032663"></path>
                <path d="M18.2475248,75 L16.8316832,75 C16.8316832,74.7039474 17.029703,67.5986842 11.2970297,67.2039474 L11.3663366,65.8223684 C11.5940594,65.8223684 16.6237624,65.8914474 17.4554455,59.4276316 L18.8217822,59.5559211 C18.8217822,59.7236842 18.6534653,63.7302632 23.9405941,65.8717105 L25.3267327,66.4342105 L24.049505,67.1052632 C23.990099,67.1052632 18.5247525,70.3717105 18.2475248,75 Z M14.2178218,66.5131579 C16.04264,67.5399739 17.3504487,69.2839512 17.8217822,71.3190789 C18.9042368,69.4072946 20.4281727,67.7801187 22.2673267,66.5723684 C20.4553672,65.6982023 18.9983275,64.232025 18.1386139,62.4177632 C17.4372361,64.25973 16.0252852,65.74522 14.2178218,66.5427632 L14.2178218,66.5131579 Z" id="Shape" fill="#A8C5DD"></path>
                <path d="M22.1584158,17.3486842 L20.7920792,17.2796053 C20.7920792,16.9934211 20.990099,10.1940789 15.2673267,9.79934211 L15.3267327,8.41776316 C15.5445545,8.41776316 20.5841584,8.47697368 21.4158416,2.01315789 L22.7722772,2.15131579 C22.7722772,2.31907895 22.6039604,6.32565789 27.9009901,8.46710526 L29.2772277,9.02960526 L27.960396,9.72039474 C27.9009901,9.75 22.4356436,12.6907895 22.1584158,17.3486842 Z M18.1386139,9.15789474 C19.9716366,10.174759 21.2931972,11.9107603 21.7821782,13.9440789 C22.8674373,12.0311819 24.3948574,10.4039101 26.2376238,9.19736842 C24.4233723,8.32305557 22.9632116,6.85725291 22.0990099,5.04276316 C21.3900228,6.89088919 19.9617422,8.37497379 18.1386139,9.15789474 L18.1386139,9.15789474 Z" id="Shape" fill="#A8C5DD"></path>
            </g>
        </g>
    </g>
</svg>