<svg width="100" height="74" xmlns="http://www.w3.org/2000/svg"><g fill-rule="nonzero" fill="none"><path d="M23.356 54.885l-5.851-4.194a6.256 6.256 0 00-3.772-1.796 2.78 2.78 0 00-.584.079l-4.773-20.24c0-.198-.89-4.935-4.356-4.935C.228 23.77 0 30.115 0 30.451l1.554 21.71c0 9.553 10.802 17.388 12.872 18.75V74h15.752v-5.813a16.404 16.404 0 00-6.822-13.302zm5.436 17.763h-13.01v-2.467l-.317-.207c-.128-.08-12.495-8.25-12.495-17.892l-1.584-21.66c0-.05.218-5.28 2.634-5.28s2.97 3.789 2.97 3.868l4.891 20.615c-.109.099-.218.197-.317.306a3.673 3.673 0 00-.99 2.901 5.278 5.278 0 002.06 3.247l8.307 6.977a.694.694 0 001.242-.37.69.69 0 00-.4-.676l-8.357-7.007a4.016 4.016 0 01-1.545-2.329 2.285 2.285 0 01.703-1.825c.119-.14.26-.26.416-.356a1.5 1.5 0 01.762-.177c1.07.14 2.06.641 2.802 1.42l5.99 4.303a15.034 15.034 0 016.238 12.188v4.421zM94.98 23.77c-3.465 0-4.317 4.766-4.336 4.934l-4.783 20.27a2.78 2.78 0 00-.584-.08h-.079a6.146 6.146 0 00-3.693 1.797l-5.861 4.194a16.424 16.424 0 00-6.812 13.303V74h15.782v-3.07c2.119-1.302 12.871-8.377 12.871-17.87l1.555-22.698c-.03-.247-.268-6.592-4.06-6.592zm1.06 29.25c0 9.562-12.367 16.865-12.495 16.934l-.347.197v2.477h-12.98v-4.44c-.001-4.825 2.319-9.357 6.237-12.188l5.941-4.234.09-.069a4.798 4.798 0 012.712-1.381c.259.002.512.073.733.207.156.096.297.216.416.355.513.455.8 1.112.782 1.796a4.045 4.045 0 01-1.575 2.359l-8.326 6.977a.69.69 0 00.2 1.209c.246.08.516.017.7-.163l8.268-6.908a5.376 5.376 0 002.099-3.286 3.654 3.654 0 00-1.05-2.901l-.316-.336L92 28.961s.713-3.82 2.97-3.82c2.258 0 2.644 5.211 2.644 5.211L96.04 53.02zM35.703 47.81a.689.689 0 00-.618 1.081.694.694 0 00.677.29c.208 0 5.11-.138 5.396 5.921a.692.692 0 00.693.651.684.684 0 00.654-.72c-.317-7.44-6.743-7.224-6.802-7.224zM44.129 40.043c-.248 0-5.881 0-7.921 4.845a.679.679 0 00.376.898c.082.032.17.048.258.05a.683.683 0 00.643-.425c1.624-3.947 6.228-3.997 6.584-3.997a.692.692 0 00.693-.67.702.702 0 00-.633-.701zM38.614 32.385a5.312 5.312 0 002.406.543h.109c-.169 2.605-3.337 3.227-3.476 3.256a.691.691 0 00.12 1.362h.128c1.594-.286 4.604-1.648 4.624-4.776a12.777 12.777 0 003.643-1.45.681.681 0 00.258-.938.694.694 0 00-.94-.257c-2.585 1.47-4.684 1.826-6.248 1.066-2.327-1.184-2.812-4.56-2.822-4.56a.693.693 0 00-1.366.178c.02.128.594 4.096 3.564 5.576z" fill="#A6C4DD"/><path d="M70.06 38.918a5.715 5.715 0 001.049-2.25 6.824 6.824 0 00-1.98-6.681c.356-1.135 1.069-4.096-.208-6.602a6.202 6.202 0 00-3.386-2.96c0-1.195-.386-4.214-2.525-5.517a4.168 4.168 0 00-1.703-.543c-.406-1.263-1.852-4.303-6.357-4.303a5.716 5.716 0 00-5.445 3.158 5.716 5.716 0 00-5.406-3.148 6.188 6.188 0 00-6.356 4.303c-.601.054-1.183.24-1.703.543-2.139 1.302-2.476 4.322-2.525 5.516a6.202 6.202 0 00-3.386 2.96c-1.278 2.507-.565 5.468-.208 6.603a6.824 6.824 0 00-1.98 6.68 5.577 5.577 0 001.05 2.25c-2.526 3.247-.902 7.106.494 8.951A7.433 7.433 0 0031 53.395a6.706 6.706 0 005.317 1.973 6.755 6.755 0 006.663 4.066c3.317 0 5.505-1.332 6.545-3.947 1.05 2.635 3.237 3.947 6.534 3.947a6.765 6.765 0 006.674-4.066c2.326 0 4.118-.631 5.317-1.973a7.433 7.433 0 001.514-5.517c1.396-1.855 3.02-5.714.495-8.96zM42.98 58.043c-4.544 0-5.475-3.415-5.515-3.553l-.128-.553h-.575c-2.148.119-3.732-.394-4.722-1.49-1.614-1.786-1.149-4.667-1.149-4.697l.05-.306-.198-.237c-.139-.168-3.208-3.947-.763-7.342a7.53 7.53 0 004.198 1.57.692.692 0 000-1.373s-4.128-.157-4.95-3.68a5.506 5.506 0 011.861-5.606l.426-.315-.188-.494s-1.307-3.404 0-5.92a5.326 5.326 0 013.594-2.606 4.617 4.617 0 014.119.464c1.98 1.54 2.059 5.062 2.059 5.092 0 .381.31.69.693.69.383 0 .693-.309.693-.69 0-.168 0-4.224-2.594-6.178a5.788 5.788 0 00-5-.78c.119-1.263.564-3.128 1.832-3.898 1.267-.77 2.97-.444 5.267.82a.695.695 0 00.99-.267.679.679 0 00-.267-.937 11.27 11.27 0 00-3.515-1.293c.426-1.066 1.644-2.96 4.95-2.96a4.53 4.53 0 014.703 4.095v.197a.62.62 0 00.05.296v9.128l-.06-.059a4.129 4.129 0 00-3.069-.839.683.683 0 00-.564.79c.06.371.409.626.782.572a2.67 2.67 0 011.98.533c.612.626.941 1.475.911 2.349v.385c0 .092.02.183.06.266v17.369a5.63 5.63 0 00-.585-.701 7.073 7.073 0 00-5.287-1.974.689.689 0 100 1.372 5.774 5.774 0 014.287 1.53 6.246 6.246 0 011.555 3.66v1.53c-.317 4.096-2.188 6.04-5.93 6.04zm25.178-10.254s.476 2.882-1.148 4.688c-.99 1.095-2.574 1.599-4.723 1.49h-.574l-.129.553s-.93 3.552-5.525 3.552c-3.732 0-5.604-1.973-5.841-6.098v-.888c.017-.21.017-.422 0-.632a6.236 6.236 0 011.554-3.661 5.754 5.754 0 014.287-1.53.689.689 0 100-1.372 7.073 7.073 0 00-5.287 1.974 5.224 5.224 0 00-.524.632V28.072a2.956 2.956 0 01.88-1.914 2.64 2.64 0 011.98-.533.693.693 0 00.676-1.085.683.683 0 00-.447-.277 4.129 4.129 0 00-3.07.839v-9.7a4.48 4.48 0 014.683-3.948c3.268 0 4.486 1.905 4.951 2.96a11.27 11.27 0 00-3.515 1.293.69.69 0 00-.227.915c.177.318.57.444.9.29 2.307-1.264 4.08-1.54 5.268-.82 1.188.72 1.723 2.753 1.831 3.898a5.788 5.788 0 00-4.95.78c-2.564 1.973-2.594 6.01-2.594 6.177a.68.68 0 00.683.691.684.684 0 00.683-.69s0-3.553 2.06-5.093a4.637 4.637 0 014.128-.464 5.345 5.345 0 013.594 2.606c1.307 2.546 0 5.92 0 5.92l-.188.494.426.316a5.565 5.565 0 011.861 5.605c-.802 3.504-4.772 3.681-4.95 3.681a.702.702 0 00-.663.71c.01.373.32.667.693.662a7.53 7.53 0 004.198-1.52c2.445 3.355-.624 7.174-.763 7.342l-.208.237-.01.345z" fill="#A6C4DD"/><path d="M63.366 47.81c-.06 0-6.485-.208-6.841 7.203a.68.68 0 00.653.72.682.682 0 00.683-.65c.297-6.03 5.189-5.922 5.406-5.922a.702.702 0 00.723-.651.692.692 0 00-.624-.7zM61.545 45.382c.106.26.361.428.643.424a.682.682 0 00.634-.947c-1.98-4.866-7.673-4.856-7.921-4.846a.702.702 0 00-.683.7c.01.375.318.672.693.672.238.05 5 .05 6.634 3.997zM61.129 37.487h.128a.692.692 0 00.13-1.313c-.14 0-3.308-.651-3.476-3.256h.109a5.242 5.242 0 002.376-.533c3.02-1.48 3.574-5.447 3.594-5.615a.693.693 0 00-1.356-.138s-.495 3.414-2.842 4.569c-1.564.76-3.673.404-6.247-1.066a.694.694 0 00-.941.256.679.679 0 00.257.938 12.777 12.777 0 003.644 1.45c.02 3.09 3.03 4.451 4.624 4.708z" fill="#A6C4DD"/><path d="M51.347 8.503a.724.724 0 01-.486-.197.68.68 0 010-.987A14.338 14.338 0 0054.08.54a.68.68 0 01.802-.552.674.674 0 01.565.819 15.107 15.107 0 01-3.585 7.5.704.704 0 01-.514.197z" fill="#2364F9"/><path d="M70.703 23.444a.69.69 0 01-.168-1.352c2.594-.661 9.594-2.862 10.782-5.112a.694.694 0 01.935-.29.69.69 0 01.293.932c-1.694 3.187-10.654 5.546-11.664 5.802a.546.546 0 01-.178.02z" fill="#A6C4DD"/><path d="M31.416 13.526a.655.655 0 01-.396-.128c-3.317-2.339-3.446-2.437-8.456-7.895a.68.68 0 01.05-.987.694.694 0 01.99.05c4.95 5.368 4.95 5.418 8.228 7.717a.68.68 0 01.158.987.664.664 0 01-.574.256z" fill="#2364F9"/><path d="M22.188 39.046a3.1 3.1 0 01-2.877-1.893 3.081 3.081 0 01.659-3.373 3.106 3.106 0 013.38-.678 3.089 3.089 0 011.917 2.855 3.094 3.094 0 01-3.079 3.09zm0-4.796a1.713 1.713 0 00-1.59 1.047 1.703 1.703 0 00.366 1.864c.489.49 1.226.638 1.867.374a1.707 1.707 0 00-.643-3.285zM39.277 6.155a3.1 3.1 0 01-2.87-1.9 3.081 3.081 0 01.665-3.37 3.106 3.106 0 013.379-.674 3.089 3.089 0 01-1.174 5.944zm0-4.796a1.713 1.713 0 00-1.59 1.047 1.703 1.703 0 00.366 1.863c.489.49 1.226.639 1.868.375a1.707 1.707 0 00-.644-3.285z" fill="#002465"/><path d="M78.594 33.47a3.09 3.09 0 01-2.862-1.896 3.072 3.072 0 01.668-3.36 3.097 3.097 0 013.37-.665 3.079 3.079 0 011.903 2.852 3.054 3.054 0 01-.899 2.173 3.075 3.075 0 01-2.18.896zm0-4.786a1.723 1.723 0 00-1.599 1.053 1.713 1.713 0 00.367 1.875 1.727 1.727 0 001.88.377 1.717 1.717 0 00-.648-3.305z" fill="#2364F9"/><path d="M71.287 16.813l-1.366-.05c0-.266.178-6.375-5.02-6.73l.07-1.372c.207 0 4.762.06 5.524-5.753l1.376.138c0 .148-.148 3.74 4.664 5.665l1.386.562-1.327.68s-5.04 2.665-5.307 6.86zm-3.604-7.431a6.792 6.792 0 013.188 4.174 12.729 12.729 0 013.96-4.145 8.086 8.086 0 01-3.673-3.622 6.72 6.72 0 01-3.475 3.593z" fill="#002465"/><path d="M20.208 27.007l-1.396-.07c0-.256.178-6.375-5.02-6.72l.07-1.372c.207 0 4.772.05 5.524-5.753l1.376.128c0 .148-.148 3.75 4.664 5.675l1.386.552-1.317.691c-.04.03-5.03 2.674-5.287 6.869zm-3.614-7.421a6.792 6.792 0 013.208 4.164 12.778 12.778 0 013.96-4.135 8.185 8.185 0 01-3.673-3.622 6.75 6.75 0 01-3.495 3.593z" fill="#A6C4DD"/></g></svg>