<?xml version="1.0" encoding="UTF-8"?>
<svg width="100px" height="74px" viewBox="0 0 100 74" version="1.1" xmlns="http://www.w3.org/2000/svg" xmlns:xlink="http://www.w3.org/1999/xlink">
    <!-- Generator: sketchtool 59 (101010) - https://sketch.com -->
    <title>FC187F5B-2305-45F4-9DF5-DFD0E54B7421</title>
    <desc>Created with sketchtool.</desc>
    <g id="Page-1" stroke="none" stroke-width="1" fill="none" fill-rule="evenodd">
        <g id="Icons" transform="translate(-614.000000, -2287.000000)" fill-rule="nonzero">
            <g id="mid-icon-ourknowledge" transform="translate(614.000000, 2286.000000)">
                <path d="M23.3564356,55.8848684 L17.5049505,51.6907895 C16.4917648,50.6781033 15.1597207,50.0438919 13.7326733,49.8947368 C13.5356921,49.9002845 13.3398658,49.9267499 13.1485149,49.9736842 L8.37623762,29.7335526 C8.37623762,29.5361842 7.48514851,24.7992388 4.01980198,24.7992388 C0.227722772,24.7697368 0,31.1151316 0,31.4506579 L1.55445545,53.1611842 C1.55445545,62.7138158 12.3564356,70.5493421 14.4257426,71.9111842 L14.4257426,75 L30.1782178,75 L30.1782178,69.1875 C30.176843,63.9193319 27.6396183,58.9716856 23.3564356,55.8848684 Z M28.7920794,73.6480263 L15.7821782,73.6480263 L15.7821782,71.1809211 L15.4653465,70.9736842 C15.3366337,70.8947368 2.97029703,62.7236842 2.97029703,53.0822368 L1.38613861,31.4210526 C1.38613861,31.3717105 1.6039604,26.1414474 4.01980198,26.1414474 C6.43564356,26.1414474 6.99009901,29.9309211 6.99009901,30.0098684 L11.8811881,50.625 C11.7722772,50.7236842 11.6633663,50.8223684 11.5643564,50.9309211 C10.8269006,51.7086098 10.4654894,52.7676636 10.5742574,53.8322368 C10.8273784,55.133811 11.5625468,56.2928243 12.6336634,57.0789474 L20.9405941,64.0559211 C21.1153781,64.2843968 21.4138017,64.3811866 21.6900157,64.2989861 C21.9662297,64.2167856 22.1625569,63.9727594 22.1830459,63.686171 C22.2035348,63.3995825 22.0439072,63.1302753 21.7821782,63.0098684 L13.4257426,56.0032895 C12.6480529,55.4360295 12.1000754,54.6097648 11.8811881,53.6743421 C11.8298637,52.99164 12.0877589,52.3218702 12.5841584,51.8486842 C12.7029988,51.7090382 12.8433659,51.5891193 13,51.4934211 L13,51.4934211 C13.2337826,51.3677628 13.4969315,51.3064498 13.7623762,51.3157895 C14.8320255,51.4558603 15.8210794,51.9574691 16.5643564,52.7368421 L22.5544554,57.0394737 C26.4733172,59.8706965 28.7928823,64.402823 28.7920794,69.2269737 L28.7920794,73.6480263 Z" id="Shape" fill="#A6C4DD"></path>
                <path d="M94.980198,24.7697368 C91.5148515,24.7697368 90.6633663,29.5361842 90.6435644,29.7039474 L85.8613861,49.9736842 C85.6700352,49.9267499 85.4742089,49.9002845 85.2772277,49.8947368 L85.1980198,49.8947368 C83.796538,50.0527746 82.492405,50.6870144 81.5049505,51.6907895 L75.6435644,55.8848684 C71.3666549,58.9759673 68.8339977,63.9218853 68.8316832,69.1875 L68.8316832,75 L84.6138614,75 L84.6138614,71.9309211 C86.7326733,70.6282895 97.4851485,63.5526316 97.4851485,54.0592105 L99.039604,31.3618421 C99.009901,31.1151316 98.7722772,24.7697368 94.980198,24.7697368 Z M96.039604,54.0197368 C96.039604,63.5822368 83.6732673,70.8848684 83.5445545,70.9539474 L83.1980198,71.1513158 L83.1980198,73.6282895 L70.2178216,73.6282895 L70.2178216,69.1875 C70.2170187,64.3633493 72.5365838,59.8312228 76.4554455,57 L82.3960396,52.7664474 L82.4851485,52.6973684 C83.2145854,51.9549772 84.167025,51.4699301 85.1980198,51.3157895 L85.1980198,51.3157895 C85.4565092,51.3178641 85.7096413,51.3894626 85.9306931,51.5230263 L85.9306931,51.5230263 C86.0873272,51.6187246 86.2276943,51.7386435 86.3465347,51.8782895 C86.8604726,52.3325433 87.1467635,52.9899298 87.1287129,53.6743421 C86.9062546,54.6239181 86.3472128,55.4614747 85.5544554,56.0328947 L77.2277228,63.0098684 C77.0211309,63.1645541 76.9180273,63.420943 76.9602385,63.6750246 C77.0024497,63.9291061 77.1829659,64.1386861 77.4285561,64.218743 C77.6741463,64.2987999 77.9440265,64.2360391 78.1287129,64.0559211 L86.3960396,57.1480263 C87.483131,56.3525526 88.2319669,55.1801844 88.4950495,53.8618421 C88.5909001,52.7878879 88.2069326,51.7264248 87.4455446,50.9605263 L87.1287129,50.625 L92,29.9605263 C92,29.9605263 92.7128713,26.1414474 94.970297,26.1414474 C97.2277228,26.1414474 97.6138614,31.3519737 97.6138614,31.3519737 L96.039604,54.0197368 Z" id="Shape" fill="#A6C4DD"></path>
                <path d="M35.7029703,48.8092105 C35.4374706,48.7910715 35.1849975,48.9260561 35.0533089,49.1565515 C34.9216203,49.3870468 34.9339759,49.6723418 35.085102,49.8906695 C35.2362282,50.1089972 35.4994323,50.2217956 35.7623762,50.1809211 C35.970297,50.1809211 40.8712871,50.0427632 41.1584158,56.1019737 C41.1794339,56.4679892 41.4836612,56.7538885 41.8514851,56.7532904 L41.8514851,56.7532904 C42.0345401,56.7456662 42.2068517,56.6650771 42.3297241,56.5296198 C42.4525965,56.3941625 42.5157313,56.2151903 42.5049505,56.0328947 C42.1881188,48.5921053 35.7623762,48.8092105 35.7029703,48.8092105 Z" id="Path" fill="#A6C4DD"></path>
                <path d="M44.1287129,41.0427632 C43.8811881,41.0427632 38.2475248,41.0427632 36.2079208,45.8881579 C36.1362973,46.0567769 36.1358281,46.2470416 36.206619,46.4160096 C36.2774099,46.5849775 36.4134944,46.7184074 36.5841584,46.7861842 C36.6663523,46.8177171 36.7535188,46.8344247 36.8415842,46.8355263 C37.1233877,46.8399335 37.3789833,46.6714035 37.4851485,46.4111842 C39.1089109,42.4638158 43.7128713,42.4144737 44.0693069,42.4144737 L44.0693069,42.4144737 C44.4444769,42.4146263 44.7516571,42.1172043 44.7623847,41.7434211 C44.764143,41.3819049 44.4896597,41.0784017 44.1287129,41.0427632 Z" id="Path" fill="#A6C4DD"></path>
                <path d="M38.6138614,33.3848684 C39.3618111,33.7519866 40.1861423,33.9379499 41.019802,33.9276316 L41.1287129,33.9276316 C40.960396,36.5328947 37.7920792,37.1546053 37.6534653,37.1842105 C37.3187401,37.2631135 37.0927168,37.5747594 37.1225138,37.9162981 C37.1523109,38.2578369 37.4289118,38.5259201 37.7722772,38.5460526 L37.9009901,38.5460526 C39.4950495,38.2598684 42.5049505,36.8980263 42.5247525,33.7697368 C43.807081,33.4764132 45.0361457,32.9870703 46.1683168,32.3190789 C46.3284926,32.2300176 46.4460109,32.080502 46.4944278,31.904176 C46.5428447,31.72785 46.5180931,31.5395253 46.4257426,31.3815789 C46.2358186,31.0534818 45.8162303,30.9390249 45.4851485,31.125 C42.9009901,32.5953947 40.8019802,32.9506579 39.2376238,32.1907895 C36.9108911,31.0065789 36.4257426,27.6315789 36.4158416,27.6315789 C36.3322341,27.2891475 36.0034033,27.0643496 35.6527849,27.109932 C35.3021665,27.1555144 35.0421897,27.4568606 35.049505,27.8092105 C35.0693069,27.9375 35.6435644,31.9046053 38.6138614,33.3848684 Z" id="Path" fill="#A6C4DD"></path>
                <path d="M70.0594059,39.9177632 C70.5700974,39.2532739 70.9283494,38.4852289 71.1089109,37.6677632 C71.7215825,35.2474798 70.9625899,32.6867412 69.1287129,30.9868421 C69.4851485,29.8519737 70.1980198,26.8914474 68.9207921,24.3848684 C68.2037436,23.0103008 66.9954228,21.9538569 65.5346535,21.4243421 C65.5346535,20.2302632 65.1485149,17.2105263 63.009901,15.9078947 C62.4884424,15.606044 61.9073565,15.4208429 61.3069307,15.3651316 C60.9009901,14.1019737 59.4554455,11.0625 54.950495,11.0625 C52.6643871,10.9322505 50.5211299,12.1751345 49.5049505,14.2203947 C48.491668,12.1926692 46.3688289,10.9564822 44.0990099,11.0723684 C41.2352629,10.8629486 38.6032016,12.6445745 37.7425743,15.375 C37.141828,15.4291392 36.5604085,15.6144466 36.039604,15.9177632 C33.9009901,17.2203947 33.5643564,20.2401316 33.5148515,21.4342105 C32.0540821,21.9637253 30.8457613,23.0201692 30.1287129,24.3947368 C28.8514851,26.9013158 29.5643564,29.8618421 29.9207921,30.9967105 C28.0869151,32.6966096 27.3279225,35.2573482 27.9405941,37.6776316 C28.1167533,38.4965737 28.4754376,39.2655456 28.990099,39.9276316 C26.4653465,43.1743421 28.0891089,47.0328947 29.4851485,48.8782895 C29.233702,50.8447458 29.7788666,52.8300043 31,54.3947368 C32.3910125,55.8058181 34.3386152,56.5287962 36.3168317,56.3684211 C37.4459735,58.996846 40.1180779,60.6272853 42.980198,60.4342105 C46.2970297,60.4342105 48.4851485,59.1019737 49.5247525,56.4868421 C50.5742574,59.1217105 52.7623762,60.4342105 56.0594059,60.4342105 C58.9242957,60.6285856 61.5999447,58.9984058 62.7326733,56.3684211 C65.0594059,56.3684211 66.8514851,55.7368421 68.049505,54.3947368 C69.2706383,52.8300043 69.8158029,50.8447458 69.5643564,48.8782895 C70.960396,47.0230263 72.5841584,43.1644737 70.0594059,39.9177632 Z M42.980198,59.0427632 C38.4356436,59.0427632 37.5049505,55.6282895 37.4653465,55.4901316 L37.3366337,54.9375 L36.7623762,54.9375 C34.6138614,55.0559211 33.029703,54.5427632 32.039604,53.4473684 C30.4257426,51.6611842 30.8910891,48.7796053 30.8910891,48.75 L30.9405941,48.4440789 L30.7425743,48.2072368 C30.6039604,48.0394737 27.5346535,44.2598684 29.980198,40.8651316 C31.1867548,41.8017279 32.6512916,42.3491226 34.1782178,42.4342105 L34.1782178,42.4342105 C34.526501,42.3924959 34.7885976,42.0979901 34.7885976,41.7483553 C34.7885976,41.3987204 34.526501,41.1042147 34.1782178,41.0625 C34.1782178,41.0625 30.049505,40.9046053 29.2277228,37.3815789 C28.7083481,35.3115932 29.4332411,33.1286952 31.0891089,31.7763158 L31.5148515,31.4605263 L31.3267327,30.9671053 C31.3267327,30.9671053 30.019802,27.5625 31.3267327,25.0460526 C32.0867279,23.6972121 33.3991751,22.7458449 34.9207921,22.4407895 C36.2898617,21.9358096 37.8180849,22.1079015 39.039604,22.9046053 C41.019802,24.4440789 41.0990099,27.9671053 41.0990099,27.9967105 C41.0990099,28.378223 41.4093076,28.6875 41.7920792,28.6875 L41.7920792,28.6875 C42.1748508,28.6875 42.4851485,28.378223 42.4851485,27.9967105 C42.4851485,27.8289474 42.4851485,23.7730263 39.8910891,21.8190789 C38.4336434,20.8060306 36.5893088,20.51846 34.8910891,21.0394737 C35.009901,19.7763158 35.4554455,17.9111842 36.7227723,17.1414474 C37.990099,16.3717105 39.6930693,16.6973684 41.990099,17.9605263 C42.1545618,18.0653998 42.3557764,18.096269 42.5442681,18.0455437 C42.7327597,17.9948183 42.8910426,17.8672041 42.980198,17.6940789 C43.0717679,17.5349233 43.0950257,17.3456715 43.0447031,17.1691927 C42.9943804,16.9927139 42.8747359,16.8439428 42.7128713,16.7565789 C41.6220063,16.1328309 40.4339103,15.6958489 39.1980198,15.4638158 C39.6237624,14.3980263 40.8415842,12.5032895 44.1485149,12.5032895 C46.5597958,12.4035746 48.6269783,14.2036983 48.8514851,16.5986842 C48.8514851,16.6677632 48.8514851,16.7368421 48.8514851,16.7960526 C48.8434816,16.8972856 48.8604785,16.9989316 48.9009901,17.0921053 L48.9009901,26.2203947 L48.8415842,26.1611842 C47.9725661,25.4829855 46.866814,25.1807927 45.7722772,25.3223684 C45.5918351,25.3513301 45.4305597,25.451148 45.3245047,25.5995074 C45.2184498,25.7478669 45.1764594,25.9323958 45.2079208,26.1118421 C45.2688108,26.4830692 45.6165089,26.7375015 45.990099,26.6842105 C46.6950726,26.5912323 47.4080759,26.7831099 47.970297,27.2171053 C48.5824705,27.8434955 48.9114932,28.6918632 48.8811881,29.5657895 C48.8811881,29.6940789 48.8811881,29.8125 48.8811881,29.9506579 C48.8809436,30.0427632 48.9012345,30.133772 48.9405941,30.2171053 L48.9405941,47.5855263 C48.7652011,47.3366159 48.5698411,47.102295 48.3564356,46.8848684 C46.9462134,45.5226202 45.0303994,44.8074472 43.0693069,44.9111842 C42.8037571,44.8793787 42.5435446,45.0027069 42.4006894,45.2280768 C42.2578343,45.4534466 42.2578343,45.7406323 42.4006894,45.9660022 C42.5435446,46.191372 42.8037571,46.3147002 43.0693069,46.2828947 C44.6484366,46.1845047 46.1986855,46.7376182 47.3564356,47.8125 C48.2601604,48.8319965 48.8058721,50.1173027 48.9108911,51.4736842 C48.9108911,51.8289474 48.9108911,52.0559211 48.9108911,52.0855263 C48.9108911,52.4013158 48.9108911,52.7072368 48.9108911,53.0032895 C48.5940594,57.0986842 46.7227723,59.0427632 42.980198,59.0427632 Z M68.1584158,48.7894737 C68.1584158,48.7894737 68.6336634,51.6710526 67.009901,53.4769737 C66.019802,54.5723684 64.4356436,55.0756579 62.2871287,54.9671053 L61.7128713,54.9671053 L61.5841584,55.5197368 C61.5841584,55.5197368 60.6534653,59.0723684 56.0594059,59.0723684 C52.3267327,59.0723684 50.4554455,57.0986842 50.2178218,52.9736842 C50.2178218,52.6875 50.2178218,52.3914474 50.2178218,52.0855263 C50.2350931,51.8753519 50.2350931,51.6641218 50.2178218,51.4539474 C50.3221293,50.0973935 50.867933,48.8118708 51.7722772,47.7927632 C52.9287801,46.715841 54.4799411,46.162402 56.0594059,46.2631579 C56.3249558,46.2949634 56.5851682,46.1716352 56.7280234,45.9462654 C56.8708786,45.7208955 56.8708786,45.4337098 56.7280234,45.2083399 C56.5851682,44.9829701 56.3249558,44.8596419 56.0594059,44.8914474 C54.0983135,44.7877103 52.1824994,45.5028834 50.7722772,46.8651316 C50.5810152,47.061618 50.4055565,47.2727957 50.2475248,47.4967105 L50.2475248,29.0723684 C50.295857,28.3481207 50.6094498,27.6668075 51.1287129,27.1578947 C51.6894086,26.7208502 52.4037156,26.5286217 53.1089109,26.625 C53.4860375,26.6842161 53.8401936,26.4282976 53.9009901,26.0526316 C53.9324515,25.8731853 53.8904611,25.6886564 53.7844062,25.5402969 C53.6783512,25.3919375 53.5170758,25.2921196 53.3366337,25.2631579 C52.2420969,25.1215822 51.1363448,25.4237749 50.2673267,26.1019737 L50.2673267,16.4013158 C50.5408319,14.0610655 52.5897052,12.3341026 54.950495,12.4539474 C58.2178218,12.4539474 59.4356436,14.3585526 59.9009901,15.4144737 C58.6650997,15.6465068 57.4770036,16.0834887 56.3861386,16.7072368 C56.0807929,16.9053531 55.9814821,17.3052859 56.1588653,17.6224854 C56.3362486,17.9396849 56.7297545,18.0658366 57.0594059,17.9111842 C59.3663366,16.6480263 61.1386139,16.3717105 62.3267327,17.0921053 C63.5148515,17.8125 64.049505,19.8453947 64.1584158,20.9901316 C62.4752324,20.4851593 60.6529145,20.7721384 59.2079208,21.7697368 C56.6435644,23.7434211 56.6138614,27.7796053 56.6138614,27.9473684 C56.6112104,28.1296637 56.6820149,28.3054046 56.8104222,28.4352445 C56.9388296,28.5650843 57.1141136,28.638177 57.2970297,28.6381579 L57.2970297,28.6381579 C57.4799458,28.638177 57.6552298,28.5650843 57.7836372,28.4352445 C57.9120445,28.3054046 57.982849,28.1296637 57.980198,27.9473684 C57.980198,27.9473684 57.980198,24.3947368 60.039604,22.8552632 C61.2647293,22.058359 62.795958,21.8863422 64.1683168,22.3914474 C65.6888479,22.6989655 67.000365,23.6496585 67.7623762,24.9967105 C69.0693069,27.5427632 67.7623762,30.9177632 67.7623762,30.9177632 L67.5742574,31.4111842 L68,31.7269737 C69.643538,33.0877662 70.3658298,35.2628313 69.8613861,37.3322368 C69.0594059,40.8355263 65.0891089,41.0131579 64.9108911,41.0131579 C64.5343414,41.0342895 64.2416164,41.3478248 64.2475248,41.7236842 C64.2583117,42.0958823 64.5670534,42.3904201 64.9405941,42.3848684 L64.9405941,42.3848684 C66.4621223,42.3140454 67.926138,41.784053 69.1386139,40.8651316 C71.5841584,44.2203947 68.5148515,48.0394737 68.3762376,48.2072368 L68.1683168,48.4440789 L68.1584158,48.7894737 Z" id="Shape" fill="#A6C4DD"></path>
                <path d="M63.3663366,48.8092105 C63.3069307,48.8092105 56.8811881,48.6019737 56.5247525,56.0131579 C56.5139716,56.1954535 56.5771064,56.3744257 56.6999789,56.509883 C56.8228513,56.6453403 56.9951628,56.7259294 57.1782178,56.7335529 L57.1782178,56.7335529 C57.5442195,56.7338976 57.8454732,56.4466898 57.8613861,56.0822368 C58.1584158,50.0526316 63.049505,50.1611842 63.2673267,50.1611842 C63.6446202,50.1727039 63.9636936,49.8851755 63.990099,49.5098684 C63.997061,49.1500157 63.7256408,48.8451356 63.3663366,48.8092105 L63.3663366,48.8092105 Z" id="Path" fill="#A6C4DD"></path>
                <path d="M61.5445545,46.3815789 C61.6507197,46.6417982 61.9063152,46.8103283 62.1881188,46.8059211 C62.2761842,46.8048195 62.3633507,46.7881118 62.4455446,46.7565789 C62.6162086,46.6888021 62.7522931,46.5553723 62.823084,46.3864043 C62.8938749,46.2174364 62.8934057,46.0271717 62.8217822,45.8585526 C60.8415842,40.9934211 55.1485149,41.0032895 54.9009901,41.0131579 C54.5205048,41.0238447 54.2176707,41.3344316 54.2178217,41.7138158 C54.2285409,42.087599 54.5357212,42.3850211 54.9108911,42.3848684 C54.9108911,42.3848684 54.9108911,42.3848684 54.9108911,42.3848684 C55.1485149,42.4342105 59.9108911,42.4342105 61.5445545,46.3815789 Z" id="Path" fill="#A6C4DD"></path>
                <path d="M61.1287129,38.4868421 L61.2574257,38.4868421 C61.5542382,38.4252417 61.7764306,38.1785068 61.8059241,37.8777586 C61.8354175,37.5770104 61.6653657,37.2920619 61.3861386,37.1743421 C61.2475248,37.1743421 58.0792079,36.5230263 57.9108911,33.9177632 L58.019802,33.9177632 C58.8429289,33.9290859 59.6571041,33.7464991 60.3960396,33.3848684 C63.4158416,31.9046053 63.970297,27.9375 63.990099,27.7697368 C63.9636405,27.4372256 63.7025793,27.1710507 63.3696569,27.1371413 C63.0367345,27.1032319 62.7270531,27.3112747 62.6336634,27.6315789 C62.6336634,27.6315789 62.1386139,31.0460526 59.7920792,32.2006579 C58.2277228,32.9605263 56.1188119,32.6052632 53.5445545,31.1348684 C53.2134727,30.9488933 52.7938844,31.0633503 52.6039604,31.3914474 C52.5116099,31.5493938 52.4868583,31.7377184 52.5352752,31.9140444 C52.5836921,32.0903704 52.7012104,32.2398861 52.8613861,32.3289474 C53.9935573,32.9969387 55.2226219,33.4862816 56.5049505,33.7796053 C56.5247525,36.8684211 59.5346535,38.2302632 61.1287129,38.4868421 Z" id="Path" fill="#A6C4DD"></path>
                <path d="M51.3465347,9.50328947 C51.1657421,9.50030175 50.9926396,9.42988009 50.8613861,9.30592105 C50.7257778,9.17738185 50.6490096,8.99902386 50.6490096,8.8125 C50.6490096,8.62597614 50.7257778,8.44761815 50.8613861,8.31907895 C52.5176597,6.38325787 53.6281507,4.04357253 54.0792079,1.53947368 C54.1104659,1.35938791 54.2130438,1.19938585 54.3638713,1.09545308 C54.5146988,0.991520313 54.701113,0.952382535 54.8811881,0.986842105 C55.0692826,1.01238817 55.2378164,1.11589213 55.345282,1.27186247 C55.4527477,1.42783281 55.4891576,1.62177395 55.4455446,1.80592105 C54.976397,4.59029346 53.7348639,7.18825296 51.8613861,9.30592105 C51.7239161,9.4388781 51.5379633,9.51016313 51.3465347,9.50328947 Z" id="Path" fill="#2364F9"></path>
                <path d="M70.7029703,24.4440789 C70.3649955,24.4293785 70.0870512,24.1736296 70.0453923,23.8390123 C70.0037334,23.504395 70.2105338,23.1886932 70.5346535,23.0921053 C73.1287129,22.4309211 80.1287129,20.2302632 81.3168317,17.9802632 C81.4945471,17.6423521 81.913449,17.512014 82.2524752,17.6891448 C82.5915015,17.8662756 82.7222698,18.2837995 82.5445545,18.6217105 C80.8514851,21.8092105 71.8910891,24.1677632 70.8811881,24.4243421 C70.8232845,24.4406914 70.7630623,24.4473608 70.7029703,24.4440789 L70.7029703,24.4440789 Z" id="Path" fill="#A6C4DD"></path>
                <path d="M31.4158416,14.5263158 C31.2733243,14.5277441 31.1342462,14.4826924 31.019802,14.3980263 C27.7029703,12.0592105 27.5742574,11.9605263 22.5643564,6.50328947 C22.434964,6.36810509 22.3669862,6.18586705 22.3763471,5.99926532 C22.3857079,5.8126636 22.4715851,5.63809299 22.6138614,5.51644737 C22.7507652,5.39011048 22.9329911,5.32412411 23.1193306,5.33341044 C23.30567,5.34269676 23.4803832,5.42647137 23.6039604,5.56578947 C28.5544554,10.9342105 28.5544554,10.9835526 31.8316832,13.2828947 C31.9900376,13.3881535 32.0971553,13.5544861 32.1272269,13.7418159 C32.1572986,13.9291458 32.1075977,14.1204867 31.990099,14.2697368 C31.854153,14.4460778 31.6383719,14.5424891 31.4158416,14.5263158 Z" id="Path" fill="#2364F9"></path>
                <path d="M22.1881188,40.0460526 C20.9329155,40.0540469 19.7968408,39.3065708 19.3109274,38.1530154 C18.8250141,36.9994599 19.0852421,35.667681 19.9699737,34.7801889 C20.8547053,33.8926967 22.1891839,33.6247931 23.3496375,34.1017036 C24.5100911,34.578614 25.2673267,35.7061369 25.2673267,36.9572368 C25.2673267,38.6554646 23.8919165,40.0352013 22.1881188,40.0460526 Z M22.1881188,35.2499713 C21.4944401,35.2460034 20.8668328,35.6594148 20.5985905,36.2970387 C20.3303481,36.9346626 20.4744401,37.6705883 20.9635293,38.1609029 C21.4526186,38.6512175 22.1901254,38.7990993 22.8313979,38.5354401 C23.4726704,38.271781 23.8910891,37.6486452 23.8910891,36.9572368 C23.8910891,36.0181964 23.1302426,35.255428 22.1881188,35.2499713 L22.1881188,35.2499713 Z" id="Shape" fill="#002465"></path>
                <path d="M39.2772277,7.15462114 C38.022902,7.15859953 36.8898554,6.40857147 36.4070664,5.25468204 C35.9242773,4.10079261 36.186966,2.77062251 37.0724925,1.88518003 C37.958019,0.999737559 39.2917317,0.73365782 40.4509683,1.21116382 C41.6102049,1.68866983 42.3663525,2.81558344 42.3663525,4.06578947 C42.368968,4.88408558 42.0446713,5.66976549 41.4650656,6.24931624 C40.8854598,6.828867 40.0982287,7.15462114 39.2772277,7.15462114 Z M39.2772277,2.35852391 C38.583549,2.35455605 37.9559417,2.76796745 37.6876994,3.40559132 C37.419457,4.04321519 37.563549,4.77914091 38.0526383,5.26945552 C38.5417275,5.75977012 39.2792343,5.90765192 39.9205068,5.64399276 C40.5617793,5.3803336 40.980198,4.75719787 40.980198,4.06578947 C40.980198,3.12674905 40.2193515,2.36398061 39.2772277,2.35852391 Z" id="Shape" fill="#002465"></path>
                <path d="M78.5940594,34.4704107 C77.3428385,34.4743855 76.2127778,33.7256907 75.7321048,32.5742751 C75.2514319,31.4228595 75.5150931,30.0961595 76.3998444,29.2143186 C77.2845957,28.3324776 78.6156742,28.0696838 79.7708899,28.5487755 C80.9261056,29.0278673 81.6772713,30.1542108 81.6732834,31.4013158 C81.6759086,32.2160903 81.3523412,32.9982531 80.7743042,33.5743887 C80.1962671,34.1505243 79.411523,34.4730273 78.5940594,34.4704107 Z M78.5940594,29.684182 C77.8963761,29.680214 77.2651585,30.0960298 76.9953836,30.7373413 C76.7256088,31.3786528 76.8705479,32.1188232 77.3624689,32.6119601 C77.8543899,33.1050971 78.5961553,33.2538231 79.2411276,32.9886364 C79.8860998,32.7234498 80.3069192,32.0967156 80.3069593,31.4013158 C80.3095665,30.946821 80.1302681,30.5100391 79.8087563,30.1877326 C79.4872445,29.865426 79.0500618,29.684182 78.5940594,29.684182 L78.5940594,29.684182 Z" id="Shape" fill="#2364F9"></path>
                <path d="M71.2871287,17.8125 L69.9207921,17.7631579 C69.9207921,17.4967105 70.0990099,11.3881579 64.9009901,11.0328947 L64.970297,9.66118421 C65.1782178,9.66118421 69.7326733,9.72039474 70.4950495,3.90789474 L71.8712871,4.04605263 C71.8712871,4.19407895 71.7227723,7.78618421 76.5346535,9.71052632 L77.9207921,10.2730263 L76.5940594,10.9539474 C76.5940594,10.9539474 71.5544554,13.6184211 71.2871287,17.8125 Z M67.6831683,10.3815789 C69.2640916,11.2910719 70.4126462,12.7949242 70.8712871,14.5559211 C71.8580947,12.8922003 73.2125648,11.4746851 74.8316832,10.4111842 C73.2433814,9.63604829 71.9532811,8.36405545 71.1584158,6.78947368 C70.5063407,8.38758273 69.2617879,9.67398453 67.6831683,10.3815789 Z" id="Shape" fill="#002465"></path>
                <path d="M20.2079208,28.0065789 L18.8118812,27.9375 C18.8118812,27.6809211 18.990099,21.5625 13.7920792,21.2171053 L13.8613861,19.8453947 C14.0693069,19.8453947 18.6336634,19.8947368 19.3861386,14.0921053 L20.7623762,14.2203947 C20.7623762,14.3684211 20.6138614,17.9703947 25.4257426,19.8947368 L26.8118812,20.4473684 L25.4950495,21.1381579 C25.4554455,21.1677632 20.4653465,23.8125 20.2079208,28.0065789 Z M16.5940594,20.5855263 C18.1803959,21.4887548 19.3362326,22.9892443 19.8019802,24.75 C20.791374,23.0909121 22.1454848,21.6771469 23.7623762,20.6151316 C22.178294,19.834088 20.8898552,18.5637334 20.0891089,16.9934211 C19.4296985,18.5934276 18.1783628,19.8795123 16.5940594,20.5855263 Z" id="Shape" fill="#A6C4DD"></path>
            </g>
        </g>
    </g>
</svg>