<svg width="100" height="74" xmlns="http://www.w3.org/2000/svg"><g fill-rule="nonzero" fill="none"><path d="M50 23.542c-6.449.043-11.715-5.008-11.77-11.289C38.23 5.922 43.5.79 50 .79s11.77 5.133 11.77 11.464c-.055 6.281-5.321 11.332-11.77 11.29zm0-21.214c-5.675-.043-10.315 4.397-10.37 9.925 0 5.579 4.643 10.1 10.37 10.1 5.727 0 10.37-4.521 10.37-10.1-.055-5.528-4.695-9.968-10.37-9.925z" fill="#032663"/><path d="M26.12 31.617c-4.76-.027-8.598-3.802-8.58-8.438.018-4.636 3.887-8.383 8.647-8.374 4.76.01 8.613 3.77 8.613 8.406-.017 4.655-3.901 8.417-8.68 8.406zm0-15.477c-4.004.021-7.235 3.197-7.22 7.097.015 3.9 3.269 7.052 7.273 7.045 4.005-.007 7.247-3.17 7.247-7.071a7 7 0 00-2.146-5.008 7.38 7.38 0 00-5.154-2.063z" fill="#2969F6"/><path d="M9.91 37.237c-3.575-.016-6.461-2.849-6.45-6.331.011-3.482 2.915-6.298 6.49-6.292 3.575.005 6.47 2.83 6.47 6.311-.011 3.493-2.924 6.317-6.51 6.312zm0-11.26c-2.06 0-3.916 1.21-4.703 3.063a4.864 4.864 0 001.107 5.404c1.458 1.417 3.65 1.84 5.55 1.069 1.902-.77 3.14-2.582 3.136-4.588-.011-2.732-2.285-4.942-5.09-4.948zM90.09 37.237c-3.575-.016-6.461-2.849-6.45-6.331.011-3.482 2.915-6.298 6.49-6.292 3.575.005 6.47 2.83 6.47 6.311-.011 3.493-2.924 6.317-6.51 6.312zm0-11.26c-2.81.011-5.08 2.237-5.07 4.974.01 2.737 2.294 4.949 5.103 4.942 2.81-.007 5.082-2.23 5.077-4.968-.017-2.737-2.3-4.948-5.11-4.948z" fill="#A8C5DD"/><path d="M73.88 31.617c-4.76-.027-8.598-3.802-8.58-8.438.018-4.636 3.887-8.383 8.647-8.374 4.76.01 8.613 3.77 8.613 8.406-.022 4.653-3.903 8.411-8.68 8.406zm0-15.477c-4.004.021-7.235 3.197-7.22 7.097.015 3.9 3.269 7.052 7.273 7.045 4.005-.007 7.247-3.17 7.247-7.071-.017-3.914-3.282-7.077-7.3-7.071z" fill="#2969F6"/><path d="M41.5 43.578a.681.681 0 00-.69.672v29.094a.676.676 0 00.321.658c.228.14.52.14.748 0a.676.676 0 00.321-.658V44.25a.663.663 0 00-.206-.479.7.7 0 00-.494-.193zM58.49 43.578c-.383 0-.695.3-.7.672v29.094c0 .377.313.682.7.682.387 0 .7-.305.7-.682V44.25a.663.663 0 00-.206-.479.7.7 0 00-.494-.193zM20.31 47.61a.7.7 0 00-.494.194.663.663 0 00-.206.478V65.26c.042.342.34.6.695.6a.694.694 0 00.695-.6V48.282a.691.691 0 00-.69-.672zM5.68 48.487a.701.701 0 00-.7.682v9.487c0 .376.313.682.7.682.387 0 .7-.306.7-.682v-9.487a.691.691 0 00-.7-.682z" fill="#A8C5DD"/><path d="M90.09 40.364c-.836.002-1.669.104-2.48.302-1.006.26-1.964.67-2.84 1.217-4.154-5.556-12.007-7.048-18-3.419-3.017-6.347-9.544-10.41-16.725-10.41-7.181 0-13.708 4.063-16.725 10.41a13.346 13.346 0 00-3.81-1.597 14.231 14.231 0 00-3.34-.4c-4.334-.022-8.412 1.995-10.95 5.416a9.766 9.766 0 00-2.83-1.188c-.811-.198-1.644-.3-2.48-.302C4.493 40.36.066 44.594 0 49.87v8.766c0 .377.313.682.7.682.387 0 .7-.305.7-.682V49.87c.046-2.531 1.276-4.904 3.342-6.44A8.69 8.69 0 0112 41.98c.857.2 1.677.529 2.43.975a12.276 12.276 0 00-1.71 6.253V65.26c.042.342.34.6.695.6a.694.694 0 00.695-.6V49.247c.032-3.07 1.314-6 3.564-8.148 2.25-2.149 5.285-3.338 8.436-3.307 2.359 0 4.665.678 6.63 1.948a16.66 16.66 0 00-1.08 5.844v27.76c0 .377.313.682.7.682.387 0 .7-.305.7-.682v-27.75c0-9.107 7.58-16.49 16.93-16.49s16.93 7.383 16.93 16.49v27.75c0 .377.313.682.7.682.387 0 .7-.305.7-.682v-27.75a16.851 16.851 0 00-1.08-5.844 12.23 12.23 0 016.63-1.948c3.152-.034 6.188 1.155 8.439 3.303 2.25 2.15 3.532 5.082 3.561 8.151V65.26c0 .376.313.682.7.682.387 0 .7-.306.7-.682V49.247a12.41 12.41 0 00-1.71-6.253 8.726 8.726 0 018.573-.256c2.697 1.422 4.403 4.146 4.467 7.132v8.766c0 .377.313.682.7.682.387 0 .7-.305.7-.682V49.87c-.05-5.287-4.482-9.539-9.91-9.506z" fill="#A8C5DD"/><path d="M94.32 48.487a.71.71 0 00-.495.2.673.673 0 00-.205.482v9.487c0 .376.313.682.7.682.387 0 .7-.306.7-.682v-9.487a.701.701 0 00-.7-.682zM79.69 47.61a.7.7 0 00-.494.194.663.663 0 00-.206.478V65.26c0 .376.313.682.7.682.387 0 .7-.306.7-.682V48.282a.691.691 0 00-.7-.672z" fill="#A8C5DD"/></g></svg>