<svg width="100" height="74" xmlns="http://www.w3.org/2000/svg"><g fill-rule="nonzero" fill="none"><path d="M38.74 9.286H9.25a.704.704 0 01-.626-.696c0-.354.269-.653.626-.695h29.49c.357.042.626.34.626.695a.704.704 0 01-.626.696zM46.77 15.316H9.25c-.387 0-.7-.31-.7-.691 0-.382.313-.69.7-.69h37.52c.387 0 .7.308.7.69 0 .382-.313.69-.7.69zM41.8 21.188H9.25a.704.704 0 01-.626-.696c0-.355.269-.654.626-.696H41.8a.713.713 0 01.684.322.693.693 0 010 .748.713.713 0 01-.684.322zM28.9 26.882H9.25a.704.704 0 01-.626-.696c0-.355.269-.654.626-.696H28.9c.357.042.626.341.626.696a.704.704 0 01-.626.696z" fill="#032663"/><path d="M60 27.168V.078H0v38.537h16.88v10.58l12.62-10.58h11.92v25.658h30l11.66 9.78v-9.74H100V27.167H60zM41.42 37.224H29l-10.71 8.97v-8.97H1.41V1.46h57.17v25.707H41.42v10.056zM98.59 62.93H81.71v8.122l-9.33-7.796-.4-.326H42.82V28.549h55.77v34.382z" fill="#A8C5DD"/><path d="M61.72 56.467c1.638.136 3.253.468 4.81.987 1.406.49 2.889.735 4.38.72h7.72a2.186 2.186 0 002.11-2.072 2.928 2.928 0 00-.28-1.293 2.31 2.31 0 001.69-2.418c0-.312-.076-.62-.22-.898a2.626 2.626 0 001.63-2.348 2.088 2.088 0 00-.6-1.392 2.519 2.519 0 001.493-2.823 2.552 2.552 0 00-2.493-2.022h-8.59c.42-1.91.68-3.85.78-5.803a3.911 3.911 0 00-.78-2.566 2.391 2.391 0 00-1.83-.888 2.015 2.015 0 00-1.485.567 1.96 1.96 0 00-.595 1.456c0 5.004-4.77 9.04-8.72 9.04h-4v11.585h.7c1.41 0 2.58 0 3.59.119l.69.05zm-1-1.45c-.77 0-1.62-.07-2.59-.08v-8.881h2.59v8.96zm21.19-8.428h-1.4v1.372c.7 0 1.66.68 1.66 1.164A1.26 1.26 0 0181 50.329h-1.43V51.7c.05 0 1.19 0 1.19.7 0 .987-.64 1.175-1.19 1.175h-1.41v1.361c1 0 1.19.632 1.19 1.175s-.61.7-.72.7h-7.72a11.345 11.345 0 01-4-.65 21.102 21.102 0 00-4.83-.988v-9.207c4.961-1.03 8.567-5.272 8.73-10.273a.637.637 0 01.2-.475.655.655 0 01.49-.176c.299.01.578.15.76.385.346.482.509 1.069.46 1.658a39.044 39.044 0 01-.89 6.335l-.19.829h10.28c.45-.04.883.173 1.12.551.238.38.238.858 0 1.236a1.195 1.195 0 01-1.12.552h-.01z" fill="#2969F6"/></g></svg>