<svg width="100" height="75" xmlns="http://www.w3.org/2000/svg"><g fill-rule="nonzero" fill="none"><path d="M61.89.974a.726.726 0 00-.78.604.696.696 0 00.62.75l6.05.078-39.84 33.691a.66.66 0 00-.204.754.69.69 0 00.664.435.764.764 0 00.46-.166L69.11 2.922v6.35c-.04.374.236.71.62.75h.08a.684.684 0 00.69-.593V.974h-8.61z" fill="#032663"/><path d="M73.87 72.672H71a.399.399 0 000-.156V16.471h-8.46v56.045a.721.721 0 000 .156h-4a.721.721 0 000-.156V28.841h-8.4v43.675a.399.399 0 000 .156h-4a.721.721 0 000-.156v-32.27h-8.39v32.27a.721.721 0 000 .156h-4a.721.721 0 000-.156V49.753h-8.4v22.763a.721.721 0 000 .156h-2.84a.707.707 0 00-.675.313.667.667 0 000 .728.707.707 0 00.675.313h51.36a.707.707 0 00.675-.313.667.667 0 000-.728.707.707 0 00-.675-.313zm-9.93-.156V17.825h5.69v54.691a.721.721 0 000 .156h-5.72a.723.723 0 00.03-.156zm-12.4 0V30.195h5.69v42.321a.721.721 0 000 .156h-5.72a.723.723 0 00.03-.156zm-12.39 0V41.61h5.68v30.906a.721.721 0 000 .156h-5.72a.4.4 0 00.04-.156zm-12.4 0V51.088h5.68v21.428a.721.721 0 000 .156h-5.71a.723.723 0 00.03-.156z" fill="#A8C5DD"/><path d="M100 44.805h-3.61v-4.704h-1v-3.322H99v-5.99h-2.4v-4.656h-2.41v-3.321h1.21v-5.99h-1.21V13.5h1.21V7.51H79.56v4.656h-1.21v5.99h1.21v3.321h-1.21v5.99h2.41v4.676h2.41v3.321h-3.61v5.99h1v4.656h3.62v3.322h-2.43v4.656h-2.41v5.99h1.2v3.321h-1.2v5.99h1.2v4.637h15.85v-5.99h-1.21v-3.322h1.21v-5.99h-1.21v-3.321h2.41v-4.656H100v-5.942zm-10.84 4.607v-3.321H95v3.321h-5.84zm-2.41 4.656v-3.321h5.84v3.321h-5.84zM90.4 36.78v3.322h-5.85v-3.322h5.85zm3.6-4.636v3.321h-5.83v-3.321H94zm-4.8-9.331v3.321h-5.85v-3.321h5.85zM79.73 13.5h7.17v3.321h-7.17V13.5zm4.82-1.334V8.844h5.85v3.322h-5.85zm4 5.99H94v3.321h-5.5l.05-3.321zM95 41.436v3.37h-6.17v-3.37H95zM91.78 40.1v-3.322H94v3.322h-2.22zm5.85-7.958v3.321H95.4v-3.321h2.23zm-2.41-4.675v3.321h-4.53v-3.321h4.53zm-2.41-1.335h-2.23v-3.321h2.23v3.321zm0-9.312h-4.53V13.5h4.53v3.321zM94 12.166h-2.22V8.844H94v3.322zM80.94 8.844h2.23v3.322h-2.23V8.844zm0 9.312h6.18v3.321h-6.18v-3.321zm-1.21 7.977v-3.321H82v3.321h-2.27zm2.41 4.656v-3.321h7.17v3.321h-7.17zm4.65 1.354v3.321h-2.24v-3.321h2.24zm-5.85 4.656h2.23v3.321h-2.23V36.8zm1 7.977v-3.34h5.51v3.37h-5.52l.01-.03zm3.61 1.334h2.23v3.322h-2.24l.01-3.322zm-2.42 4.637h2.23v3.321h-2.23v-3.321zm-2.41 4.656h6.51v3.321h-6.51v-3.321zM95 60.058v3.322h-2.23v-3.322H95zm-3.61 3.322h-5.85v-3.322h5.85v3.322zm0 5.99v3.322h-5.85V69.37h5.85zm-10.67-1.334v-3.322h6.51v3.322h-6.51zm1.21-7.978h2.23v3.322h-2.23v-3.322zm0 9.312h2.23v3.322h-2.23V69.37zM95 72.692h-2.23V69.37H95v3.322zm-1.2-4.656h-5.19v-3.322h5.19v3.322zm0-9.312h-5.19v-3.321h5.19v3.321zm2.41-4.656H94v-3.321h2.23l-.02 3.321zm2.41-4.656h-2.23v-3.321h2.23v3.321zM18.25 63.38h-2.41v-4.656H0v5.99h2.41v3.322H0v5.99h15.84V69.37h2.41v-5.99zM7.41 68.036v-3.322h5.84v3.322H7.41zm7.05-4.656H8.94v-3.322h5.52v3.322zm-13.08 0v-3.322h6.18v3.322H1.38zm2.41 1.334H6v3.322H3.79v-3.322zM1.38 69.37h7.17v3.322H1.38V69.37zm13.08 3.322H9.93V69.37h4.53v3.322zm2.41-4.656h-2.23v-3.322h2.23v3.322z" fill="#2969F6"/></g></svg>