<svg width="100" height="75" xmlns="http://www.w3.org/2000/svg"><g fill-rule="nonzero" fill="none"><path d="M35.14 58.934h-5.86v5.754h5.86v-5.754zm-1.4 4.382h-3.06v-2.96h3.06v2.96zM44.06 58.934H38.2v5.754h5.86v-5.754zm-1.4 4.382H39.6v-2.96h3.06v2.96zM53 58.934h-5.88v5.754H53v-5.754zm-1.4 4.382h-3.08v-2.96h3.06l.02 2.96zM61.9 58.934H56v5.754h5.9v-5.754zm-1.4 4.382h-3.06v-2.96h3.06v2.96zM70.82 58.934H65v5.754h5.86l-.04-5.754zm-1.4 4.382h-3.06v-2.96h3.06v2.96z" fill="#A8C5DD"/><path d="M94.72 50.329H76.23v-6.345h8.51l7.35-3.948a.663.663 0 00.28-.928.708.708 0 00-1-.276l-7 3.79h-8.14v-6.395h7.06V18.533a.695.695 0 00-.7-.69c-.387 0-.7.308-.7.69v16.322h-5.66v-4.154a3.578 3.578 0 00-1.076-2.544 3.675 3.675 0 00-2.584-1.048h-4.91v-8.882C67.66 8.629 59.776.849 50.05.849c-9.726 0-17.61 7.78-17.61 17.378v8.882h-5a3.675 3.675 0 00-2.584 1.048A3.578 3.578 0 0023.78 30.7v4.154H18.1V18.533a.695.695 0 00-.7-.69c-.387 0-.7.308-.7.69v17.694h7.11v6.375h-9.17l-6-3.76a.697.697 0 00-1 .207.674.674 0 00.21.987l6.38 3.948h9.57v6.345H5.28a.703.703 0 00-.675.317.683.683 0 000 .738.703.703 0 00.675.317h18.53v6.552h-9.57l-6.38 3.948a.674.674 0 00-.21.987c.127.2.35.32.59.315a.666.666 0 00.37-.108l6-3.76h9.17v6.247h-3.09a.703.703 0 00-.675.316.683.683 0 000 .738.703.703 0 00.675.317h3.12v2.813a.663.663 0 000 .552v.82c.022 1.977 1.656 3.568 3.66 3.562h45.1a3.675 3.675 0 002.584-1.048 3.578 3.578 0 001.076-2.544v-4.125h3.08a.703.703 0 00.675-.317.683.683 0 000-.738.703.703 0 00-.675-.317h-3.08v-6.247h8.16l7 3.79c.106.05.222.077.34.079a.712.712 0 00.61-.355.663.663 0 00-.28-.928l-7.35-3.947h-8.48v-4.846a.38.38 0 000-.296v-1.43h18.49a.703.703 0 00.675-.318.683.683 0 000-.738.703.703 0 00-.675-.316v-.03zM33.84 18.257c0-8.835 7.257-15.997 16.21-15.997 8.953 0 16.21 7.162 16.21 15.997v8.881h-4.85V18.75c0-6.191-5.086-11.21-11.36-11.21-6.274 0-11.36 5.019-11.36 11.21v8.408h-4.85v-8.901zM60 18.75v8.408H40.09V18.75c.489-5.065 4.8-8.933 9.955-8.933 5.156 0 9.466 3.868 9.955 8.933zm14.83 52.658c-.006 1.228-1.016 2.22-2.26 2.22h-45.1c-1.244 0-2.254-.992-2.26-2.22v-.415h49.62v.415zm0-1.786H25.21V54h49.62v15.622zm0-34.352a.79.79 0 000 .552V52.6H25.21V35.595v-4.894c.006-1.228 1.016-2.22 2.26-2.22h45.1c1.244 0 2.254.992 2.26 2.22v4.569z" fill="#A8C5DD"/><path d="M55.64 36.918c.024-2.726-1.943-5.074-4.661-5.563-2.718-.489-5.398 1.023-6.35 3.582-.953 2.56.099 5.423 2.491 6.787v7.993H53v-8.092a5.55 5.55 0 002.64-4.707zm-4.06 11.437h-3.06V41.35v-.109a.867.867 0 000-.138l-.07-.118a.602.602 0 00-.07-.1l-.13-.098-.08-.059a4.199 4.199 0 01-2.364-4.678c.406-1.912 2.09-3.297 4.068-3.348 1.978-.051 3.733 1.246 4.24 3.134A4.193 4.193 0 0152 40.628a.653.653 0 00-.35.444.732.732 0 00-.05.257l-.02 7.026z" fill="#032663"/><path d="M82.59 18.987c-1.657 0-3-1.326-3-2.96 0-1.636 1.343-2.961 3-2.961s3 1.325 3 2.96-1.343 2.96-3 2.96zm0-4.5a1.6 1.6 0 00-1.48.977 1.564 1.564 0 00.352 1.722c.46.45 1.15.583 1.747.336.598-.248.985-.827.981-1.466a1.59 1.59 0 00-1.6-1.57zM97 53.98c-1.657 0-3-1.325-3-2.96s1.343-2.96 3-2.96 3 1.325 3 2.96-1.343 2.96-3 2.96zm0-4.5a1.59 1.59 0 00-1.59 1.586 1.59 1.59 0 001.603 1.572 1.59 1.59 0 001.597-1.579c0-.42-.17-.823-.472-1.12A1.611 1.611 0 0097 49.48zM81.6 69.533c-1.657 0-3-1.326-3-2.96 0-1.636 1.343-2.961 3-2.961s3 1.325 3 2.96a2.94 2.94 0 01-.879 2.094 3.02 3.02 0 01-2.121.867zm0-4.5a1.59 1.59 0 00-1.59 1.585 1.59 1.59 0 001.603 1.573 1.59 1.59 0 001.597-1.58c0-.42-.17-.823-.472-1.12a1.611 1.611 0 00-1.138-.458zM94.05 40.46a3 3 0 01-2.772-1.827 2.932 2.932 0 01.65-3.226 3.03 3.03 0 013.27-.642A2.96 2.96 0 0197.05 37.5c0 1.635-1.343 2.96-3 2.96zm0-4.5a1.6 1.6 0 00-1.474.992 1.564 1.564 0 00.371 1.721c.467.447 1.16.57 1.756.313.595-.258.973-.845.957-1.486 0-.42-.17-.824-.472-1.12a1.611 1.611 0 00-1.138-.459v.04zM94.05 67.697a3 3 0 01-2.772-1.827 2.932 2.932 0 01.65-3.227 3.03 3.03 0 013.27-.641 2.96 2.96 0 011.852 2.735c0 1.635-1.343 2.96-3 2.96zm0-4.5a1.59 1.59 0 00-1.59 1.59 1.59 1.59 0 001.61 1.568 1.59 1.59 0 001.59-1.589 1.568 1.568 0 00-.461-1.139 1.61 1.61 0 00-1.149-.47v.04zM17.4 18.987c-1.657 0-3-1.326-3-2.96 0-1.636 1.343-2.961 3-2.961s3 1.325 3 2.96-1.343 2.96-3 2.96zm0-4.5a1.6 1.6 0 00-1.48.977 1.564 1.564 0 00.352 1.722c.46.45 1.15.583 1.747.336.598-.248.985-.827.981-1.466a1.59 1.59 0 00-1.6-1.57zM3 53.98c-1.657 0-3-1.325-3-2.96s1.343-2.96 3-2.96 3 1.325 3 2.96-1.343 2.96-3 2.96zm0-4.5a1.59 1.59 0 00-1.59 1.586 1.59 1.59 0 001.603 1.572A1.59 1.59 0 004.61 51.06c0-.42-.17-.823-.472-1.12A1.611 1.611 0 003 49.48zM18.39 69.533c-1.657 0-3-1.326-3-2.96 0-1.636 1.343-2.961 3-2.961s3 1.325 3 2.96a2.94 2.94 0 01-.879 2.094 3.02 3.02 0 01-2.121.867zm0-4.5a1.59 1.59 0 00-1.59 1.585 1.59 1.59 0 001.603 1.573A1.59 1.59 0 0020 66.61c0-.42-.17-.823-.472-1.12a1.611 1.611 0 00-1.138-.458zM5.94 40.46c-1.657 0-3-1.325-3-2.96s1.343-2.96 3-2.96 3 1.325 3 2.96a2.94 2.94 0 01-.879 2.093 3.02 3.02 0 01-2.121.868zm0-4.5a1.6 1.6 0 00-1.482.985c-.245.595-.1 1.277.366 1.725.465.448 1.16.573 1.757.317.596-.257.975-.845.959-1.487a1.59 1.59 0 00-1.6-1.579v.04zM5.94 67.697c-1.657 0-3-1.325-3-2.96s1.343-2.96 3-2.96 3 1.325 3 2.96a2.94 2.94 0 01-.879 2.093 3.02 3.02 0 01-2.121.867zm0-4.5a1.6 1.6 0 00-1.48.977 1.564 1.564 0 00.352 1.722c.46.451 1.15.584 1.747.336.598-.247.985-.826.981-1.466a1.568 1.568 0 00-.458-1.135 1.61 1.61 0 00-1.142-.473v.04z" fill="#2969F6"/></g></svg>