<svg width="100" height="75" xmlns="http://www.w3.org/2000/svg"><g fill-rule="nonzero" fill="none"><path d="M99.02 55.875V5.319a5.37 5.37 0 00-1.363-3.947A5.312 5.312 0 0093.735.02L6.265.05C2.814.06.98 1.904.98 5.387v57.059a5.39 5.39 0 001.363 3.948 5.331 5.331 0 003.922 1.352H39.97c-.177 4.056-1.961 4.697-3.383 4.934h-2.157v1.372h30.677v-1.441h-1.383c-1.44-.188-3.215-.82-3.392-4.885h33.422c3.45 0 5.284-1.855 5.274-5.339l-.01-6.513zM6.265 1.431l87.421-.06h.06a4.061 4.061 0 012.94.988c.699.82 1.05 1.882.98 2.96v51.8l-95.264.118V5.398c-.05-2.743 1.157-3.967 3.863-3.967zm54.215 71.2l-20.676.09c.804-.81 1.421-2.596 1.53-4.935H58.98a8.1 8.1 0 001.5 4.846zm33.275-6.295H6.333a4.178 4.178 0 01-2.94-.987 4.113 4.113 0 01-.981-2.96v-3.83l95.255-.069v3.878c0 2.704-1.245 3.958-3.912 3.968z" fill="#A8C5DD"/><path d="M82.863 32.753H45.02a.669.669 0 01-.667-.67c0-.371.298-.672.667-.672h37.843c2.046 0 3.706-1.67 3.706-3.73s-1.66-3.73-3.706-3.73H45.608a.669.669 0 01-.667-.671c0-.371.299-.671.667-.671h37.255c2.783 0 5.039 2.27 5.039 5.072 0 2.801-2.256 5.072-5.04 5.072zM43.069 34.658H27.696a.68.68 0 01-.595-.676.68.68 0 01.595-.676H43.07a.68.68 0 01.595.676.68.68 0 01-.595.676zM44.059 22.056H27.147a.68.68 0 01-.595-.676.68.68 0 01.595-.676H44.06a.68.68 0 01.595.676.68.68 0 01-.595.676zM26.412 32.753h-9.255c-2.783 0-5.04-2.27-5.04-5.072 0-2.801 2.257-5.072 5.04-5.072h8.657c.368 0 .666.3.666.67 0 .371-.298.672-.666.672h-8.657c-2.047 0-3.706 1.67-3.706 3.73s1.66 3.73 3.706 3.73h9.255c.368 0 .666.3.666.671 0 .37-.298.671-.666.671z" fill="#032663"/><path d="M24.863 28.352H17.45a.669.669 0 01-.667-.671c0-.37.299-.671.667-.671h7.412c.368 0 .666.3.666.67 0 .372-.298.672-.666.672z" fill="#A8C5DD"/><path d="M39.088 28.352H25.304a.669.669 0 01-.667-.671c0-.37.299-.671.667-.671h13.784c.368 0 .667.3.667.67 0 .372-.299.672-.667.672z" fill="#A8C5DD"/><path d="M50.137 41.141l-6.372-6.473a11.02 11.02 0 00.532-13.764c-3.066-4.142-8.587-5.568-13.255-3.425-4.668 2.144-7.217 7.276-6.12 12.32 1.098 5.046 5.545 8.636 10.676 8.619 2.678 0 5.26-1.002 7.245-2.813l6.363 6.484c.127.12.296.187.47.187a.645.645 0 00.461-.187.684.684 0 000-.948zM25.98 27.326c.049-5.335 4.376-9.625 9.676-9.592 5.3.032 9.575 4.375 9.56 9.71-.017 5.335-4.318 9.651-9.618 9.651-5.336-.032-9.64-4.408-9.618-9.78v.01z" fill="#2969F6"/></g></svg>