<svg width="100" height="75" xmlns="http://www.w3.org/2000/svg"><g fill-rule="nonzero" fill="none"><path d="M99.02 55.875V5.319a5.37 5.37 0 00-1.363-3.947A5.312 5.312 0 0093.735.02L6.265.05C2.814.06.98 1.904.98 5.387v57.059a5.39 5.39 0 001.363 3.948 5.331 5.331 0 003.922 1.352H39.97c-.177 4.056-1.961 4.697-3.383 4.934h-2.157v1.372h30.677v-1.441h-1.383c-1.44-.188-3.215-.82-3.392-4.885h33.422c3.45 0 5.284-1.855 5.274-5.339l-.01-6.513zM6.265 1.431l87.421-.06h.06a4.061 4.061 0 012.94.988c.699.82 1.05 1.882.98 2.96v51.8l-95.264.118V5.398c-.05-2.743 1.157-3.967 3.863-3.967zm54.215 71.2l-20.676.09c.804-.81 1.421-2.596 1.53-4.935H58.98a8.1 8.1 0 001.5 4.846zm33.275-6.295H6.333a4.178 4.178 0 01-2.94-.987 4.113 4.113 0 01-.981-2.96v-3.83l95.255-.069v3.878c0 2.704-1.245 3.958-3.912 3.968z" fill="#A8C5DD"/><path d="M32.265 30.148L8.882 30.01 8.99 9.375l23.363.138-.088 20.635zm-22-1.53l20.588.129L31 10.855l-20.647-.098-.088 17.861z" fill="#032663"/><path d="M29.627 38.329L9.53 38.21a.675.675 0 01-.653-.313.685.685 0 010-.727.675.675 0 01.653-.312l20.098.118c.26-.032.514.09.654.312s.14.506 0 .728a.675.675 0 01-.654.312zM26.725 43.125L9.51 43.016a.674.674 0 01-.485-.195.683.683 0 01-.003-.964.664.664 0 01.478-.193l17.225.109c.26-.032.514.09.654.312s.14.506 0 .728a.675.675 0 01-.654.312zM17.118 47.882l-7.638-.06a.675.675 0 01-.653-.312.685.685 0 010-.727.675.675 0 01.653-.313l7.638.06a.68.68 0 01.595.676.68.68 0 01-.595.676z" fill="#2969F6"/><path d="M61.676 30.148l-23.382-.138.108-20.635 23.363.138-.089 20.635zm-22-1.53l20.638.129.098-17.892-20.647-.098-.089 17.861z" fill="#032663"/><path d="M59.04 38.329L38.94 38.21a.675.675 0 01-.653-.313.685.685 0 010-.727.675.675 0 01.653-.312l20.098.118c.26-.032.514.09.653.312.14.222.14.506 0 .728a.675.675 0 01-.653.312zM56.137 43.125l-17.215-.109a.674.674 0 01-.485-.195.683.683 0 01-.003-.964.664.664 0 01.478-.193l17.225.109c.26-.032.514.09.653.312.14.222.14.506 0 .728a.675.675 0 01-.653.312zM46.53 47.882l-7.638-.06a.68.68 0 01-.595-.676.68.68 0 01.595-.676l7.637.06c.26-.032.514.09.653.312.14.222.14.505 0 .727a.675.675 0 01-.653.313z" fill="#2969F6"/><path d="M91.088 30.148l-23.382-.138.108-20.635 23.362.138-.088 20.635zm-22-1.53l20.588.129.148-17.892-20.648-.098-.088 17.861z" fill="#032663"/><path d="M88.451 38.329l-20.098-.118a.675.675 0 01-.653-.313.685.685 0 010-.727.675.675 0 01.653-.312l20.098.118c.26-.032.513.09.653.312s.14.506 0 .728a.675.675 0 01-.653.312zM85.549 43.125l-17.216-.109a.674.674 0 01-.484-.195.683.683 0 01-.003-.964.664.664 0 01.478-.193l17.225.109c.26-.032.514.09.653.312.14.222.14.506 0 .728a.675.675 0 01-.653.312zM75.941 47.882l-7.637-.06a.675.675 0 01-.653-.312.685.685 0 010-.727.675.675 0 01.653-.313l7.637.06c.26-.032.514.09.653.312.14.222.14.505 0 .727a.675.675 0 01-.653.313z" fill="#2969F6"/></g></svg>