<svg width="100" height="75" xmlns="http://www.w3.org/2000/svg"><g fill-rule="nonzero" fill="none"><path d="M52.735.05L52.55 0 6.137 13v10.4c0 .387.308.7.687.7a.693.693 0 00.686-.7v-9.32L52.549 1.44l45.049 12.64v59.53h-3.794v-41H54.588v41h-5.882V40.94c0-.387-.307-.7-.686-.7a.693.693 0 00-.687.7v32.67H5.57V41.19a.691.691 0 00-.682-.616.691.691 0 00-.681.616V75H99.02V13L52.735.05zM55.98 34h36.451v39.61h-36.45V34z" fill="#A8C5DD"/><path d="M59.176 39.32h30.04a.682.682 0 00.662-.321.712.712 0 000-.748.682.682 0 00-.662-.321h-30.04a.682.682 0 00-.662.321.712.712 0 000 .748c.142.228.4.353.662.321zM89.216 44h-30.04a.682.682 0 00-.662.321.712.712 0 000 .748c.142.228.4.353.662.321h30.04a.682.682 0 00.662-.321.712.712 0 000-.748.682.682 0 00-.662-.321zM89.216 50.05h-30.04a.682.682 0 00-.662.321.712.712 0 000 .748c.142.228.4.353.662.321h30.04a.682.682 0 00.662-.321.712.712 0 000-.748.682.682 0 00-.662-.321zM89.216 56.11h-30.04a.682.682 0 00-.662.321.712.712 0 000 .748c.142.228.4.353.662.321h30.04a.682.682 0 00.662-.321.712.712 0 000-.748.682.682 0 00-.662-.321zM89.216 62.17h-30.04a.682.682 0 00-.662.321.712.712 0 000 .748c.142.228.4.353.662.321h30.04a.682.682 0 00.662-.321.712.712 0 000-.748.682.682 0 00-.662-.321zM89.216 68.23h-30.04a.682.682 0 00-.662.321.712.712 0 000 .748c.142.228.4.353.662.321h30.04a.682.682 0 00.662-.321.712.712 0 000-.748.682.682 0 00-.662-.321zM61.863 15.83v12.68h25.764V15.83H61.863zm24.412 11.29h-23.04v-9.9h23.04v9.9z" fill="#A8C5DD"/><path d="M74.745 25.57c1.846-.006 3.339-1.537 3.333-3.42-.005-1.883-1.506-3.405-3.353-3.4-1.846.006-3.338 1.537-3.333 3.42.01 1.881 1.509 3.4 3.353 3.4zm0-5.42c1.083 0 1.96.895 1.96 2s-.877 2-1.96 2-1.96-.895-1.96-2 .877-2 1.96-2z" fill="#A8C5DD"/><path d="M25.03 63.05H8.577V50.83H25.03v12.22zM9.94 61.66h13.726v-9.44H9.94v9.44zM44.627 73.63h-1.362V50.61h-14.03v23.02h-1.372V49.22h16.764z" fill="#032663"/><path d="M52.265 32.26a.52.52 0 000-.13V32a.092.092 0 010-.05l-5.373-9.22h-40.5L.98 32a.64.64 0 00-.068.26v1.78c0 3.84 2.51 7.8 6.706 7.8 2.048.01 4.067-.491 5.882-1.46 1.412 2.11 2.941 3.24 6.196 3.24a7.895 7.895 0 006.05-2.36 10.01 10.01 0 006.862 2.36c3.176 0 5.431-1 7.04-3.23a9.053 9.053 0 005.028 1.45c4.135-.18 7.434-3.581 7.57-7.8V32.3s.019-.03.019-.04zm-1.853-.64H40.039l-2.186-7.52h8.225l4.334 7.52zM25.059 24.1v7.52h-10.48l2.186-7.52h8.294zm1.363 0h10.02l2.185 7.52H26.471l-.05-7.52zm-19.255 0h8.186l-2.186 7.52H2.794l4.373-7.52zm-4.902 10V33H13v6.1c-1.127.92-3.765 1.42-5.363 1.42-3.353-.01-5.353-3.28-5.353-6.44l-.02.02zm17.421 8.2c-2.608 0-3.921-.73-5.353-3.07V33H25.06v6.43c.004.159.063.31.166.43a6.578 6.578 0 01-5.52 2.42l-.019.02zm12.932 0c-2.736 0-5.069-.88-6.383-2.43a.688.688 0 00.167-.43V33h12.45v6.2c-1.362 2.13-3.283 3.08-6.215 3.08l-.02.02zm12.088-1.79a7.34 7.34 0 01-4.51-1.41V33h10.726v1.09c-.11 3.468-2.818 6.265-6.216 6.42z" fill="#2969F6"/></g></svg>