<?xml version="1.0" encoding="UTF-8"?>
<svg width="99px" height="75px" viewBox="0 0 99 75" version="1.1" xmlns="http://www.w3.org/2000/svg" xmlns:xlink="http://www.w3.org/1999/xlink">
    <!-- Generator: sketchtool 59 (101010) - https://sketch.com -->
    <title>2916FC02-DD8F-43E8-A291-137766ABBC10</title>
    <desc>Created with sketchtool.</desc>
    <g id="Page-1" stroke="none" stroke-width="1" fill="none" fill-rule="evenodd">
        <g id="Icons" transform="translate(-375.000000, -2930.000000)" fill-rule="nonzero">
            <g id="mid-icon-socialmeetup" transform="translate(374.000000, 2930.000000)">
                <path d="M92.5588235,74.0132285 C92.3751195,74.0157998 92.1980337,73.9441883 92.067204,73.8143527 C91.9363743,73.6845171 91.8627263,73.5072999 91.8627451,73.3223684 L91.8627451,19.7368421 C91.9045098,19.3844853 92.2013851,19.1191905 92.5539216,19.1191905 C92.906458,19.1191905 93.2033334,19.3844853 93.245098,19.7368421 L93.245098,73.3223684 C93.245098,73.5055772 93.1727943,73.6812822 93.0440929,73.8108303 C92.9153915,73.9403785 92.7408348,74.0132285 92.5588235,74.0132285 L92.5588235,74.0132285 Z" id="Path" fill="#A8C5DD"></path>
                <path d="M7.40196078,74.0131579 C7.02294184,74.0131579 6.71568627,73.7038809 6.71568627,73.3223684 L6.71568627,19.7368421 C6.71568627,19.3553296 7.02294184,19.0460526 7.40196078,19.0460526 C7.78097973,19.0460526 8.08823529,19.3553296 8.08823529,19.7368421 L8.08823529,73.3223684 C8.08823529,73.7038809 7.78097973,74.0131579 7.40196078,74.0131579 L7.40196078,74.0131579 Z" id="Path" fill="#A8C5DD"></path>
                <path d="M98.9607843,9.95723684 L98.9607843,9.82894737 L98.9607843,9.71052632 L98.8921569,9.60197368 C98.8646089,9.56428994 98.8315551,9.53101865 98.7941176,9.50328947 L98.7941176,9.50328947 L84.6960784,0 L15.254902,0 L1.28431373,9.46381579 C1.28431373,9.46381579 1.28431373,9.46381579 1.28431373,9.46381579 C1.24687628,9.49154497 1.21382245,9.52481626 1.18627451,9.5625 L1.07843137,9.71052632 C1.07502647,9.74990406 1.07502647,9.78956962 1.07843137,9.82894737 C1.0738915,9.87158844 1.0738915,9.91459577 1.07843137,9.95723684 C1.07843137,9.95723684 1.07843137,9.95723684 1.07843137,10.0263158 L1.07843137,11.8914474 C1.09858749,14.1021844 2.00150662,16.2118008 3.58380844,17.7451106 C5.16611027,19.2784205 7.29472813,20.1064773 9.49019608,20.0427632 C11.8100293,20.0842074 14.1017657,19.5270388 16.1470588,18.4243421 C18.1666667,20.8322368 20.9215686,21.9078947 24.9705882,21.9078947 C27.7861671,22.0676447 30.5572575,21.1472745 32.7254902,19.3322368 C34.6862745,20.8519737 42.1372549,25.8552632 49.8137255,19.6381579 L50.0882353,19.3519737 L50.3627451,19.6381579 C52.5758639,21.549873 55.3785437,22.630895 58.2941176,22.6973684 C61.5871774,22.5794274 64.7570735,21.4075266 67.3431373,19.3519737 C69.5132989,21.1616755 72.2847939,22.0751265 75.0980392,21.9078947 C79.127451,21.9078947 81.872549,20.8322368 83.9215686,18.4243421 C85.9668617,19.5270388 88.2585982,20.0842074 90.5784314,20.0427632 C92.7789132,20.1145992 94.9151916,19.2901566 96.5039421,17.7559621 C98.0926925,16.2217675 98.999646,14.1074796 99.0196078,11.8914474 L99.0196078,10.0263158 C99.0196078,10.0263158 98.9607843,9.97697368 98.9607843,9.95723684 Z M96.0784314,9.34539474 L84.3137255,9.34539474 L76.5980392,1.36184211 L84.3137255,1.36184211 L96.0784314,9.34539474 Z M35.1764706,1.36184211 L32.127451,9.34539474 L17.5196078,9.34539474 L25.254902,1.36184211 L35.1764706,1.36184211 Z M36.6372549,1.36184211 L49.2941176,1.36184211 L49.2941176,9.34539474 L33.6078431,9.34539474 L36.6372549,1.36184211 Z M50.6568627,1.36184211 L63.3137255,1.36184211 L66.372549,9.34539474 L50.6862745,9.34539474 L50.6568627,1.36184211 Z M67.8333333,9.34539474 L64.7745098,1.36184211 L74.7058824,1.36184211 L82.4411765,9.34539474 L67.8333333,9.34539474 Z M15.6862745,1.36184211 L23.372549,1.36184211 L15.627451,9.34539474 L3.92156863,9.34539474 L15.6862745,1.36184211 Z M2.35294118,11.8914474 L2.35294118,10.6973684 L15.5490196,10.6973684 L15.5490196,17.1118421 C14.0980392,18.1875 11.3921569,18.6907895 9.40196078,18.6907895 C7.56835085,18.7411223 5.79103329,18.0504905 4.46665803,16.7730249 C3.14228277,15.4955592 2.38108407,13.7375894 2.35294118,11.8914474 L2.35294118,11.8914474 Z M16.9117647,17.3092105 L16.9117647,10.6973684 L31.9117647,10.6973684 L31.9117647,18.1282895 C29.9775883,19.8510825 27.4399846,20.725015 24.8627451,20.5559211 C21.1470588,20.5559211 18.6764706,19.5394737 16.9117647,17.3092105 Z M33.2745098,18.1282895 L33.2745098,10.6973684 L49.2941176,10.6973684 L49.2941176,18.0789474 L48.8039216,18.6118421 C41.5098039,24.4835526 34.5882353,19.2335526 33.2745098,18.1282895 L33.2745098,18.1282895 Z M51.1470588,18.6118421 L50.6568627,18.0789474 L50.6568627,10.6973684 L66.6666667,10.6973684 L66.6666667,18.1282895 C65.372549,19.2434211 58.4705882,24.5032895 51.1470588,18.6118421 L51.1470588,18.6118421 Z M75.0980392,20.5855263 C72.5205065,20.7568418 69.9820758,19.8826245 68.0490196,18.1578947 L68.0490196,10.6973684 L83.0490196,10.6973684 L83.0490196,17.3092105 C81.2745098,19.5394737 78.8137255,20.5559211 75.0980392,20.5559211 L75.0980392,20.5855263 Z M90.5588235,18.7203947 C88.5980392,18.7203947 85.8627451,18.2171053 84.4117647,17.1414474 L84.4117647,10.7269737 L97.6078431,10.7269737 L97.6078431,11.9210526 C97.571941,13.7620167 96.8073443,15.5123672 95.4838291,16.7834446 C94.1603139,18.0545221 92.387424,18.7411228 90.5588235,18.6907895 L90.5588235,18.7203947 Z" id="Shape" fill="#2969F6"></path>
                <path d="M98.2843137,74.0131579 L1.66666667,74.0131579 C1.40372028,74.0449634 1.1460589,73.9216352 1.00460425,73.6962654 C0.863149608,73.4708955 0.863149608,73.1837098 1.00460425,72.9583399 C1.1460589,72.7329701 1.40372028,72.6096419 1.66666667,72.6414474 L98.2843137,72.6414474 C98.5472601,72.6096419 98.8049215,72.7329701 98.9463761,72.9583399 C99.0878308,73.1837098 99.0878308,73.4708955 98.9463761,73.6962654 C98.8049215,73.9216352 98.5472601,74.0449634 98.2843137,74.0131579 Z" id="Path" fill="#A8C5DD"></path>
                <path d="M63.8137255,52.5 C59.8921569,52.5 56.6960784,49.7072368 56.6960784,46.2730263 L56.6960784,40.4605263 L70.9313725,40.4605263 L70.9313725,46.2828947 C70.9313725,49.7072368 67.745098,52.5 63.8137255,52.5 Z M58.0784314,41.8322368 L58.0784314,46.2730263 C58.0784314,48.9473684 60.6568627,51.1282895 63.8137255,51.1282895 C66.9705882,51.1282895 69.6078431,48.9473684 69.6078431,46.2730263 L69.6078431,41.8322368 L58.0784314,41.8322368 Z" id="Shape" fill="#032663"></path>
                <path d="M72.2745098,46.875 L70.245098,46.875 C69.9821517,46.9068055 69.7244903,46.7834773 69.5830356,46.5581075 C69.441581,46.3327376 69.441581,46.0455519 69.5830356,45.820182 C69.7244903,45.5948122 69.9821517,45.471484 70.245098,45.5032895 L72.2745098,45.5032895 C73.2617444,45.6034057 74.1521179,44.9029531 74.2941176,43.9144737 C74.1474234,42.9299712 73.2584591,42.234971 72.2745098,42.3355263 L70.245098,42.3355263 C69.9821517,42.3673318 69.7244903,42.2440036 69.5830356,42.0186338 C69.441581,41.7932639 69.441581,41.5060782 69.5830356,41.2807083 C69.7244903,41.0553385 69.9821517,40.9320103 70.245098,40.9638158 L72.2745098,40.9638158 C74.0230959,40.8448742 75.5406828,42.1655408 75.6764706,43.9243421 C75.5356181,45.6791959 74.0195659,46.9941291 72.2745098,46.875 L72.2745098,46.875 Z" id="Path" fill="#032663"></path>
                <path d="M62.5588235,39.2171441 C62.3207958,39.2154899 62.1011282,39.088069 61.9803922,38.8815789 C61.3655714,37.7273194 61.7372085,36.2911884 62.8333333,35.5855263 C63.1002631,35.4170587 63.2931552,35.1522936 63.372549,34.8453947 C63.3730931,34.7185134 63.3277967,34.5957592 63.245098,34.5 C63.1133556,34.3700701 63.0391156,34.1922317 63.0391156,34.0065789 C63.0391156,33.8209262 63.1133556,33.6430878 63.245098,33.5131579 C63.3713173,33.3753208 63.5490609,33.2969099 63.7352941,33.2969099 C63.9215274,33.2969099 64.099271,33.3753208 64.2254902,33.5131579 C64.5690106,33.886713 64.7429956,34.3870835 64.7058824,34.8947368 C64.6472993,35.5955683 64.2896447,36.2363818 63.7254902,36.6513158 C62.8235294,37.3815789 63.127451,38.0625 63.1960784,38.1907895 C63.3799627,38.5178263 63.2658825,38.9329836 62.9411765,39.1184211 C62.8245012,39.1844294 62.692658,39.2184578 62.5588235,39.2171441 Z" id="Path" fill="#032663"></path>
                <path d="M65.6862745,39.2171258 C65.4447487,39.2189886 65.2205488,39.0911062 65.0980392,38.8815789 C64.4950534,37.7236939 64.8692721,36.2940196 65.9607843,35.5855263 C66.2254104,35.4167005 66.4150668,35.1515559 66.4901961,34.8453947 C66.5007527,34.716928 66.4540568,34.5903811 66.3627451,34.5 C66.2284663,34.3714608 66.1524507,34.1931028 66.1524507,34.0065789 C66.1524507,33.8200551 66.2284663,33.6416971 66.3627451,33.5131579 C66.4889643,33.3753208 66.6667079,33.2969099 66.8529412,33.2969099 C67.0391744,33.2969099 67.216918,33.3753208 67.3431373,33.5131579 C67.7055357,33.8743753 67.9010913,34.3718493 67.8823529,34.8848684 C67.8074076,35.5975511 67.4234513,36.2404845 66.8333333,36.6414474 C65.9215686,37.3717105 66.2352941,38.0526316 66.3039216,38.1809211 C66.3914426,38.3391771 66.4127179,38.5260109 66.3630415,38.7000962 C66.3133651,38.8741815 66.196831,39.0211714 66.0392157,39.1085526 C65.9328314,39.1747553 65.8112507,39.2121493 65.6862745,39.2171258 Z" id="Path" fill="#032663"></path>
                <path d="M85.9509804,57.2368421 L45.0980392,57.2368421 L45.0980392,29.6052632 L85.9509804,29.6052632 L85.9509804,57.2368421 Z M46.5098039,55.875 L84.5686275,55.875 L84.5686275,30.9276316 L46.5098039,30.9276316 L46.5098039,55.875 Z" id="Shape" fill="#A8C5DD"></path>
                <path d="M38.5294118,73.4802632 C38.348308,73.4829054 38.1737157,73.4123338 38.0447245,73.2843489 C37.9157333,73.1563639 37.8431182,72.9816565 37.8431373,72.7993421 L37.8431373,30.9276316 L13.4117647,30.9276316 L13.4117647,72.7993421 C13.4117647,73.1808546 13.1045091,73.4901316 12.7254902,73.4901316 C12.3464713,73.4901316 12.0392157,73.1808546 12.0392157,72.7993421 L12.0392157,29.6052632 L39.2156863,29.6052632 L39.2156863,72.7993421 C39.2103259,73.1769952 38.9046348,73.4803017 38.5294118,73.4802632 L38.5294118,73.4802632 Z" id="Path" fill="#A8C5DD"></path>
                <path d="M26.9705882,53.5361842 L26.2647059,53.3980263 C24.4093768,53.0472194 22.7419965,52.0346032 21.5686275,50.5460526 C19.6078431,47.9013158 18.745098,45.3552632 19.1078431,42.9967105 C19.3896012,41.2121349 20.3317695,39.600969 21.745098,38.4868421 L22.4901961,37.9638158 L22.7941176,38.8125 C23.6581555,41.1179773 24.6667195,43.3659187 25.8137255,45.5427632 C26.9324095,47.7799692 27.3722511,50.2990984 27.0784314,52.7861842 L26.9705882,53.5361842 Z M21.872549,40.2927632 C21.1397004,41.1260494 20.6599128,42.15359 20.4901961,43.2532895 C20.1862745,45.2269737 20.9313725,47.4276316 22.6960784,49.7664474 C23.4992015,50.7558241 24.5676896,51.4922455 25.7745098,51.8881579 C25.8724431,49.9422811 25.4670766,48.0041227 24.5980392,46.2631579 C23.5744047,44.328352 22.6643466,42.3347999 21.872549,40.2927632 L21.872549,40.2927632 Z" id="Shape" fill="#032663"></path>
                <path d="M28.6568627,52.8848684 L28.5196078,51.8980263 C28.0098039,48.4934211 27.7647059,47.3881579 26.6078431,45.2171053 C25.3235294,42.7993421 23.8137255,38.9309211 23.754902,38.7631579 L23.3823529,37.7763158 L24.3627451,37.7763158 C26.9539735,37.8385111 29.3712511,39.1024537 30.9117647,41.2006579 C32.5784314,43.7269737 33.1568627,46.0756579 32.627451,48.2072368 C32.1546442,49.9460775 31.0252467,51.4299742 29.4803922,52.3421053 L28.6568627,52.8848684 Z M25.4901961,39.3256579 C26.0392157,40.6578947 27.0196078,42.9868421 27.8627451,44.5855263 C28.8844753,46.4342979 29.5247263,48.4717412 29.745098,50.5756579 C30.5375686,49.8732118 31.1041524,48.9490326 31.372549,47.9210526 C31.8039216,46.1940789 31.2843137,44.2105263 29.8333333,42 C28.7678248,40.5943211 27.2186952,39.6404249 25.4901961,39.3256579 Z" id="Shape" fill="#032663"></path>
            </g>
        </g>
    </g>
</svg>