<svg width="99" height="75" xmlns="http://www.w3.org/2000/svg"><g fill-rule="nonzero" fill="none"><path d="M91.559 74.013a.684.684 0 01-.492-.199.693.693 0 01-.204-.492V19.737a.698.698 0 01.69-.618c.353 0 .65.265.692.618v53.585a.693.693 0 01-.2.489.684.684 0 01-.486.202zM6.402 74.013a.689.689 0 01-.686-.69V19.736c0-.382.307-.69.686-.69.379 0 .686.308.686.69v53.585c0 .382-.307.691-.686.691z" fill="#A8C5DD"/><path d="M97.96 9.957v-.246l-.068-.109a.462.462 0 00-.098-.099L83.696 0H14.255L.285 9.464a.462.462 0 00-.099.098l-.108.149a.688.688 0 000 .118.606.606 0 000 .128V11.891c.02 2.211.924 4.32 2.506 5.854a8.147 8.147 0 005.906 2.298c2.32.041 4.612-.516 6.657-1.619 2.02 2.408 4.775 3.484 8.824 3.484a11.1 11.1 0 007.754-2.576c1.961 1.52 9.412 6.523 17.089.306l.274-.286.275.286a12.57 12.57 0 007.931 3.06 15.429 15.429 0 009.05-3.346 11.08 11.08 0 007.754 2.556c4.03 0 6.775-1.076 8.824-3.484a13.517 13.517 0 006.656 1.619 8.147 8.147 0 005.926-2.287 8.256 8.256 0 002.516-5.865v-1.865s-.06-.049-.06-.069zm-2.882-.612H83.314l-7.716-7.983h7.716l11.764 7.983zM34.176 1.362l-3.049 7.983H16.52l7.735-7.983h9.921zm1.461 0h12.657v7.983H32.608l3.03-7.983zm14.02 0h12.657l3.059 7.983H49.686l-.03-7.983zm17.176 7.983l-3.058-7.983h9.93l7.736 7.983H66.833zM14.686 1.362h7.687l-7.746 7.983H2.922l11.764-7.983zM1.353 11.892v-1.195h13.196v6.415c-1.451 1.076-4.157 1.579-6.147 1.579a6.838 6.838 0 01-4.935-1.918 6.93 6.93 0 01-2.114-4.882zm14.559 5.417v-6.612h15v7.431a9.647 9.647 0 01-7.05 2.428c-3.715 0-6.186-1.017-7.95-3.247zm16.363.82v-7.432h16.02v7.382l-.491.533c-7.294 5.872-14.216.622-15.53-.484zm17.872.483l-.49-.533v-7.382h16.01v7.431c-1.294 1.115-8.196 6.375-15.52.484zm23.951 1.974a9.627 9.627 0 01-7.049-2.428v-7.46h15v6.611c-1.774 2.23-4.235 3.247-7.951 3.247v.03zm15.46-1.866c-1.96 0-4.695-.503-6.146-1.579v-6.414h13.196v1.194a6.929 6.929 0 01-2.124 4.862 6.838 6.838 0 01-4.925 1.908v.03z" fill="#2969F6"/><path d="M97.284 74.013H.667a.685.685 0 01-.662-.317.695.695 0 010-.738.685.685 0 01.662-.317h96.617a.685.685 0 01.662.317.695.695 0 010 .738.685.685 0 01-.662.317z" fill="#A8C5DD"/><path d="M62.814 52.5c-3.922 0-7.118-2.793-7.118-6.227v-5.812h14.235v5.822c0 3.424-3.186 6.217-7.117 6.217zm-5.736-10.668v4.441c0 2.674 2.579 4.855 5.736 4.855 3.157 0 5.794-2.18 5.794-4.855v-4.44h-11.53z" fill="#032663"/><path d="M71.275 46.875h-2.03a.685.685 0 01-.662-.317.695.695 0 010-.738.685.685 0 01.662-.317h2.03c.987.1 1.877-.6 2.02-1.589a1.855 1.855 0 00-2.02-1.578h-2.03a.685.685 0 01-.662-.317.695.695 0 010-.738.685.685 0 01.662-.317h2.03a3.203 3.203 0 013.401 2.96 3.203 3.203 0 01-3.401 2.951zM61.559 39.217a.676.676 0 01-.579-.335 2.516 2.516 0 01.853-3.296c.267-.169.46-.434.54-.74a.525.525 0 00-.128-.346.693.693 0 010-.987.665.665 0 01.98 0c.344.374.518.874.48 1.382a2.431 2.431 0 01-.98 1.756c-.901.73-.598 1.411-.529 1.54a.683.683 0 01-.255.927.761.761 0 01-.382.1zM64.686 39.217a.676.676 0 01-.588-.335 2.536 2.536 0 01.863-3.296c.264-.17.454-.434.53-.74a.436.436 0 00-.128-.346.683.683 0 010-.987.665.665 0 01.98 0c.363.361.558.859.54 1.372a2.43 2.43 0 01-1.05 1.756c-.911.73-.598 1.412-.53 1.54a.685.685 0 01-.264.928.722.722 0 01-.353.108z" fill="#032663"/><path d="M84.951 57.237H44.098V29.605h40.853v27.632zM45.51 55.875h38.059V30.928h-38.06v24.947zM37.53 73.48a.674.674 0 01-.485-.196.683.683 0 01-.202-.485V30.928H12.412v41.871c0 .382-.307.691-.687.691a.689.689 0 01-.686-.69V29.604h27.177V72.8a.688.688 0 01-.687.681z" fill="#A8C5DD"/><path d="M25.97 53.536l-.705-.138a7.835 7.835 0 01-4.696-2.852c-1.961-2.645-2.824-5.19-2.461-7.55a7.164 7.164 0 012.637-4.51l.745-.522.304.849a58.412 58.412 0 003.02 6.73 12.833 12.833 0 011.264 7.243l-.107.75zm-5.097-13.243a5.83 5.83 0 00-1.383 2.96c-.304 1.974.441 4.175 2.206 6.513a6.626 6.626 0 003.079 2.122 11.322 11.322 0 00-1.177-5.625 56.259 56.259 0 01-2.725-5.97zM27.657 52.885l-.137-.987c-.51-3.405-.755-4.51-1.912-6.68-1.284-2.419-2.794-6.287-2.853-6.455l-.373-.987h.98a8.376 8.376 0 016.55 3.425c1.666 2.526 2.245 4.875 1.715 7.006a6.902 6.902 0 01-3.147 4.135l-.823.543zm-3.167-13.56c.55 1.333 1.53 3.662 2.373 5.26a15.784 15.784 0 011.882 5.99 5.354 5.354 0 001.628-2.654c.43-1.727-.089-3.71-1.54-5.921a7.032 7.032 0 00-4.343-2.674z" fill="#032663"/></g></svg>