<svg width="100" height="75" xmlns="http://www.w3.org/2000/svg"><g fill-rule="nonzero" fill="none"><path d="M4.94 9.82V21h24.39V9.82H4.94zm23 9.82H6.32V11.2H28l-.06 8.44zM4.94 35.59h24.39V24.4H4.94v11.19zm1.38-9.81H28v8.44H6.32v-8.44z" fill="#2969F6"/><path d="M0 0v75h100V0H0zm32.87 73.61H1.4V1.39h31.47v72.22zm32.86 0H34.27V1.39h31.46v72.22zm32.87 0H67.13V1.39H98.6v72.22z" fill="#A8C5DD"/><path d="M62.2 9.82H37.8V21h24.4V9.82zm-1.4 9.81H39.2v-8.42h21.6v8.42zM62.2 24.4H37.8v11.2h24.4V24.4zm-1.4 9.81H39.2v-8.42h21.6v8.42zM62.2 39.12H37.8v11.21h24.4V39.12zm-1.4 9.82H39.2v-8.43h21.6v8.43zM95.07 9.82H70.66V21h24.41V9.82zm-1.4 9.81H72.06v-8.42h21.61v8.42zM95.07 24.4H70.66v11.06h24.41V24.4zm-1.4 9.67H72.06v-8.28h21.61v8.28zM95.07 39.12H70.66v11.06h24.41V39.12zm-1.4 9.67H72.06v-8.28h21.61v8.28zM95.07 53.84H70.66v11.07h24.41V53.84zm-1.4 9.68H72.06v-8.29h21.61v8.29z" fill="#A8C5DD"/><path d="M20.26 4.91H5.63a.7.7 0 100 1.39h14.63a.7.7 0 100-1.39zM58.06 4.91H38.5a.7.7 0 100 1.39h19.56a.7.7 0 100-1.39zM88 4.91H71.36a.7.7 0 100 1.39H88a.7.7 0 100-1.39z" fill="#032663"/></g></svg>