<?xml version="1.0" encoding="UTF-8"?>
<svg width="100px" height="75px" viewBox="0 0 100 75" version="1.1" xmlns="http://www.w3.org/2000/svg" xmlns:xlink="http://www.w3.org/1999/xlink">
    <!-- Generator: sketchtool 59 (101010) - https://sketch.com -->
    <title>68C383C7-8042-4312-B930-920AEEE7AFF4</title>
    <desc>Created with sketchtool.</desc>
    <g id="Page-1" stroke="none" stroke-width="1" fill="none" fill-rule="evenodd">
        <g id="Icons" transform="translate(-134.000000, -2071.000000)" fill-rule="nonzero">
            <g id="mid-icon-sprintplan" transform="translate(134.000000, 2071.000000)">
                <path d="M4.94,9.82 L4.94,21 L29.33,21 L29.33,9.82 L4.94,9.82 Z M27.94,19.64 L6.32,19.64 L6.32,11.2 L28,11.2 L27.94,19.64 Z" id="Shape" fill="#2969F6"></path>
                <path d="M4.94,35.59 L29.33,35.59 L29.33,24.4 L4.94,24.4 L4.94,35.59 Z M6.32,25.78 L28,25.78 L28,34.22 L6.32,34.22 L6.32,25.78 Z" id="Shape" fill="#2969F6"></path>
                <path d="M0,0 L0,75 L100,75 L100,0 L0,0 Z M32.87,73.61 L1.4,73.61 L1.4,1.39 L32.87,1.39 L32.87,73.61 Z M65.73,73.61 L34.27,73.61 L34.27,1.39 L65.73,1.39 L65.73,73.61 Z M98.6,73.61 L67.13,73.61 L67.13,1.39 L98.6,1.39 L98.6,73.61 Z" id="Shape" fill="#A8C5DD"></path>
                <path d="M62.2,9.82 L37.8,9.82 L37.8,21 L62.2,21 L62.2,9.82 Z M60.8,19.63 L39.2,19.63 L39.2,11.21 L60.8,11.21 L60.8,19.63 Z" id="Shape" fill="#A8C5DD"></path>
                <path d="M62.2,24.4 L37.8,24.4 L37.8,35.6 L62.2,35.6 L62.2,24.4 Z M60.8,34.21 L39.2,34.21 L39.2,25.79 L60.8,25.79 L60.8,34.21 Z" id="Shape" fill="#A8C5DD"></path>
                <path d="M62.2,39.12 L37.8,39.12 L37.8,50.33 L62.2,50.33 L62.2,39.12 Z M60.8,48.94 L39.2,48.94 L39.2,40.51 L60.8,40.51 L60.8,48.94 Z" id="Shape" fill="#A8C5DD"></path>
                <path d="M95.07,9.82 L70.66,9.82 L70.66,21 L95.07,21 L95.07,9.82 Z M93.67,19.63 L72.06,19.63 L72.06,11.21 L93.67,11.21 L93.67,19.63 Z" id="Shape" fill="#A8C5DD"></path>
                <path d="M95.07,24.4 L70.66,24.4 L70.66,35.46 L95.07,35.46 L95.07,24.4 Z M93.67,34.07 L72.06,34.07 L72.06,25.79 L93.67,25.79 L93.67,34.07 Z" id="Shape" fill="#A8C5DD"></path>
                <path d="M95.07,39.12 L70.66,39.12 L70.66,50.18 L95.07,50.18 L95.07,39.12 Z M93.67,48.79 L72.06,48.79 L72.06,40.51 L93.67,40.51 L93.67,48.79 Z" id="Shape" fill="#A8C5DD"></path>
                <path d="M95.07,53.84 L70.66,53.84 L70.66,64.91 L95.07,64.91 L95.07,53.84 Z M93.67,63.52 L72.06,63.52 L72.06,55.23 L93.67,55.23 L93.67,63.52 Z" id="Shape" fill="#A8C5DD"></path>
                <path d="M20.26,4.91 L5.63,4.91 C5.36179468,4.87777042 5.09898008,5.002743 4.95469634,5.23111778 C4.8104126,5.45949256 4.8104126,5.75050744 4.95469634,5.97888222 C5.09898008,6.207257 5.36179468,6.33222958 5.63,6.3 L20.26,6.3 C20.5282053,6.33222958 20.7910199,6.207257 20.9353037,5.97888222 C21.0795874,5.75050744 21.0795874,5.45949256 20.9353037,5.23111778 C20.7910199,5.002743 20.5282053,4.87777042 20.26,4.91 L20.26,4.91 Z" id="Path" fill="#032663"></path>
                <path d="M58.06,4.91 L38.5,4.91 C38.2317947,4.87777042 37.9689801,5.002743 37.8246963,5.23111778 C37.6804126,5.45949256 37.6804126,5.75050744 37.8246963,5.97888222 C37.9689801,6.207257 38.2317947,6.33222958 38.5,6.3 L58.06,6.3 C58.3282053,6.33222958 58.5910199,6.207257 58.7353037,5.97888222 C58.8795874,5.75050744 58.8795874,5.45949256 58.7353037,5.23111778 C58.5910199,5.002743 58.3282053,4.87777042 58.06,4.91 L58.06,4.91 Z" id="Path" fill="#032663"></path>
                <path d="M88,4.91 L71.36,4.91 C71.0917947,4.87777042 70.8289801,5.002743 70.6846963,5.23111778 C70.5404126,5.45949256 70.5404126,5.75050744 70.6846963,5.97888222 C70.8289801,6.207257 71.0917947,6.33222958 71.36,6.3 L88,6.3 C88.2682053,6.33222958 88.5310199,6.207257 88.6753037,5.97888222 C88.8195874,5.75050744 88.8195874,5.45949256 88.6753037,5.23111778 C88.5310199,5.002743 88.2682053,4.87777042 88,4.91 L88,4.91 Z" id="Path" fill="#032663"></path>
            </g>
        </g>
    </g>
</svg>