<svg width="100" height="75" xmlns="http://www.w3.org/2000/svg"><g fill-rule="nonzero" fill="none"><path d="M63.188 67.85c-1.98-1.8-4.861-2.42-8.643-1.87a13.708 13.708 0 00-2.377-4l9.773-11a.695.695 0 00-.114-.88.678.678 0 00-.877-.04L48.14 64.49a.715.715 0 00.05 1 .738.738 0 00.464.17.7.7 0 00.515-.23l2.07-2.34c1.059 1.29 3.415 4.64 2.178 8a.696.696 0 00.023.533c.078.167.22.296.393.357.078.014.159.014.237 0a.683.683 0 00.644-.45 7.5 7.5 0 00.237-4.25c3.238-.44 5.694.07 7.298 1.53a7.133 7.133 0 012.108 4.8H1.386V23.28a7.242 7.242 0 011.98-4.37 8.06 8.06 0 019.139-1.78 7.625 7.625 0 014.287 4.45c.608 2.334.391 4.81-.614 7a11.923 11.923 0 00-3.841-1.19.704.704 0 00-.783.59.699.699 0 00.595.78 9.321 9.321 0 017.237 4.74c.02.112.076.213.159.29a10.203 10.203 0 011.069 3.42.696.696 0 00.693.63h.06a.698.698 0 00.633-.75 12.192 12.192 0 00-.93-3.21 8.598 8.598 0 016.653 2.18c.287.24.574.5.851.78l-2.624 1.68a.693.693 0 00-.3.787c.088.3.366.503.677.493a.708.708 0 00.366-.11L42.99 29.27a.696.696 0 00.218-1 .697.697 0 00-.99-.21l-12.475 8c-.387-.39-.773-.76-1.169-1.09a9.835 9.835 0 00-8.208-2.44 10.4 10.4 0 00-3.03-3.28c.585-1.33 1.822-4.77.723-8.12a8.961 8.961 0 00-5.01-5.27c-.059 0-6.01-2.84-10.712 2A8.57 8.57 0 000 23.24V75h65.673v-.65a8.738 8.738 0 00-2.485-6.5z" fill="#A8C5DD"/><path d="M35.644 50.71a.68.68 0 00.98-.06l1.604-1.8c.762.51 2.247 1.66 2.425 3.11l-2.059 1.32a.703.703 0 00-.292.788c.087.299.36.503.668.502a.737.737 0 00.367-.11L55.584 44a.695.695 0 00.208-1 .678.678 0 00-.99-.22l-12.95 8.39a6.885 6.885 0 00-2.753-3.37l10.248-11.56a.703.703 0 00-.287-1.27.69.69 0 00-.704.34L35.545 49.73a.695.695 0 00.099.98zM19.158 54.92h.1c.34 0 .63-.25.683-.59a9.934 9.934 0 00-1.882-7.42A9.883 9.883 0 0011.515 43a.694.694 0 00-.655 1.099c.11.149.275.246.457.271a8.5 8.5 0 015.633 3.37 8.564 8.564 0 011.624 6.39.699.699 0 00.584.79zM21.178 61.38a.686.686 0 00-.307.93.69.69 0 00.921.31c5.522-2.783 12.234-.552 15.04 5a.692.692 0 00.614.38.697.697 0 00.316-.07.703.703 0 00.307-.93c-3.146-6.24-10.688-8.75-16.89-5.62z" fill="#A8C5DD"/><path d="M79.495 22.13a5.414 5.414 0 01-5.398-5.904 5.406 5.406 0 011.923-3.676 5.428 5.428 0 017.633.68 5.426 5.426 0 01-.683 7.64 5.374 5.374 0 01-3.475 1.26zm0-9.47c-.946 0-1.863.333-2.594.94a4.026 4.026 0 00-.505 5.71 4.061 4.061 0 005.703.51 4.026 4.026 0 00.515-5.7 4.053 4.053 0 00-3.129-1.46h.01zM95.455 13.1a.569.569 0 01-.257 0c-4.79-1.896-8.303-6.11-9.337-11.2a.696.696 0 01.066-.578.683.683 0 01.479-.322.678.678 0 01.514.106.69.69 0 01.288.444c.95 4.63 4.148 8.462 8.505 10.19a.681.681 0 01-.258 1.32v.04z" fill="#2969F6"/><path d="M48.822 37l-7.05-8.44 4.95-4.11a.689.689 0 01.99.09.715.715 0 01-.088 1l-3.852 3.21L48.99 35l3.861-3.22a.698.698 0 01.99.09.694.694 0 01-.089 1L48.822 37zM61.188 51.75l-7.06-8.45 4.951-4.19a.688.688 0 01.698-.15.703.703 0 01.193 1.22l-3.89 3.29 5.306 6.3 3.802-3.41a.698.698 0 01.99 0 .704.704 0 01-.06 1l-4.93 4.39z" fill="#032663"/><path d="M98.673.55a1.43 1.43 0 00-.91-.42c-.595-.06-14.674-1.3-22.773 5.33l-10.544 8.83s-.387.35-.99.8a5.471 5.471 0 00-6.238.53l-1.98 1.67a11.158 11.158 0 01-6.396-4.16l-.446-.53-6.812 5.67a1.708 1.708 0 00-.109.14l-.06.07a.747.747 0 000 .14.535.535 0 000 .12.869.869 0 000 .16v.1c0 .03.06.1.08.15a.47.47 0 00.06.09l11.197 13.51 17.476 20.92c.05.043.103.083.158.12a.465.465 0 00.09.06c.09.043.187.067.286.07.076.01.153.01.228 0l.139-.08h.079L78 48.17l-.446-.54a11.056 11.056 0 01-2.97-7.16l1.98-1.64a5.385 5.385 0 001.98-3.71 5.56 5.56 0 00-.326-2.41c.534-.52.93-.82.99-.85l10.535-8.8c7.97-6.77 9.247-20.85 9.307-21.45a1.428 1.428 0 00-.377-1.06zM58.08 16.69a4.13 4.13 0 015.802.52 4.097 4.097 0 01-.515 5.79l-9.99 8.33L48.11 25l9.97-8.31zm-4.188 1.7L47.218 24l-4.228-5.1 5.208-4.35a12.756 12.756 0 005.683 3.84h.01zM76.05 47.9l-5.199 4.34-4.297-5.13 6.713-5.62a12.562 12.562 0 002.783 6.41zm-.367-10.23L65.663 46l-5.267-6.24 10.04-8.36a4.09 4.09 0 015.762.52 4.086 4.086 0 01.99 3 4.01 4.01 0 01-1.505 2.75zM88.822 22l-10.505 8.77a8.724 8.724 0 00-.782.66c-.09-.13-.169-.28-.278-.41a5.487 5.487 0 00-7.712-.69l-10.01 8.37-5.268-6.3 9.97-8.33a5.506 5.506 0 00.693-7.75c-.108-.13-.237-.23-.356-.35.505-.38.782-.64.782-.64l10.525-8.79c7.396-6.07 20.703-5.11 21.782-5-.089.54-1.435 14.16-8.841 20.46z" fill="#A8C5DD"/></g></svg>