<svg width="100" height="75" xmlns="http://www.w3.org/2000/svg"><g fill-rule="nonzero" fill="none"><path d="M45.04 51.474H17.646V31.036H45.04v20.438zm-26.01-1.382h24.646V32.408H19.03v17.684z" fill="#002465"/><path d="M54.99 13.411H18.333a.674.674 0 01-.484-.196.683.683 0 01-.003-.963.664.664 0 01.478-.193H54.99a.664.664 0 01.478.193.683.683 0 010 .96.674.674 0 01-.478.2zM48.255 18.237H18.333a.674.674 0 01-.478-.2.683.683 0 010-.96.664.664 0 01.478-.192h29.922a.664.664 0 01.478.193.683.683 0 010 .96.674.674 0 01-.478.199zM52.098 23.063H18.333a.664.664 0 01-.477-.194.683.683 0 010-.96.674.674 0 01.477-.198h33.765a.674.674 0 01.485.195.683.683 0 01.201.485.683.683 0 01-.205.48.674.674 0 01-.481.192z" fill="#2364F9"/><path d="M99.02 55.589l-.324-50.28a5.43 5.43 0 00-1.382-3.947A5.321 5.321 0 0093.392.02H6.245C2.775 0 .98 1.885.98 5.378V62.674a5.38 5.38 0 001.383 3.948 5.146 5.146 0 003.921 1.342l33.736-.178c-.147 4.036-1.893 4.796-3.334 5.013H34.55v1.214h30.755v-1.372H63.863c-1.392-.177-3.118-.858-3.324-4.815h5.637v.74a5.468 5.468 0 001.471 3.987 5.345 5.345 0 003.5 1.46h17.235a4.826 4.826 0 003.569-1.381 6.934 6.934 0 001.716-4.48v-.682h.098c3.47 0 5.284-1.884 5.265-5.378l-.01-6.503zM60.608 72.67L40.02 72.8c.764-.838 1.343-2.615 1.431-5.003l17.725-.06c.099 2.33.677 4.116 1.432 4.935zm-.47-6.227a.595.595 0 00-.295-.079l-18.372.06-35.118.187a4.09 4.09 0 01-2.99-.987 4.172 4.172 0 01-.98-2.96v-3.948l63.784-.375v7.954l-6.03.148zm7.382-8.674v-.07-.059l-.069-31.578v-.08a4.64 4.64 0 01.902-3.256 4.327 4.327 0 013.402-1.234h16.314c.94.04 1.834.418 2.52 1.066a5.103 5.103 0 011.264 3.77c0 3.296.186 19.983.314 31.263 0 2.96.068 5.517.088 7.392l-24.716.098-.02-7.312zM88.382 72.64H71.147a4.055 4.055 0 01-2.52-1.055 4.161 4.161 0 01-1.068-3.07v-2.102l24.735-.098v1.845c0 .05-.049 4.48-3.912 4.48zm4.843-46.381a6.38 6.38 0 00-1.676-4.747 5.276 5.276 0 00-3.49-1.46H71.745a5.627 5.627 0 00-4.441 1.717 5.949 5.949 0 00-1.226 4.273V36.68H54.314a.685.685 0 00-.662.317.695.695 0 000 .738c.141.225.399.348.662.317h11.764v3.454H54.314a.685.685 0 00-.662.316.695.695 0 000 .738c.141.226.399.35.662.317h11.764v3.504a.76.76 0 00-.215 0h-11.54a.685.685 0 00-.662.316.695.695 0 000 .738c.142.226.4.35.663.317h11.588a.76.76 0 00.215 0v9.326l-63.784.375V5.378c0-2.753 1.186-3.947 3.922-4.006h87.098a4.08 4.08 0 012.94.987c.698.82 1.05 1.882.981 2.96l.294 51.533H93.49c-.088-11.26-.265-27.336-.265-30.563v-.03zm.52 39.858h-.108c0-1.766-.049-4.569-.088-7.894h4.078v3.898c.04 2.704-1.196 3.996-3.882 3.996z" fill="#A6C4DD"/><path d="M82.843 68.832l-4.363.099a.685.685 0 00-.662.317.695.695 0 000 .738c.142.225.4.348.662.317l4.363-.1a.69.69 0 00.605-.685.69.69 0 00-.605-.686z" fill="#A6C4DD"/><path d="M89.696 40.628H69.608v-13.45h20.088v13.45zM71.01 39.257h17.314V28.549H71.01v10.708z" fill="#002465"/><path d="M88.5 46.283H70.99a.679.679 0 01-.676-.681c0-.376.303-.68.676-.68H88.5c.374 0 .676.304.676.68 0 .376-.302.68-.676.68zM83.804 51.109H70.99a.679.679 0 01-.478-1.16.664.664 0 01.478-.192h12.814a.664.664 0 01.478.193.679.679 0 01-.478 1.159zM86.49 55.934h-15.5a.679.679 0 01-.478-1.159.664.664 0 01.478-.193h15.5a.664.664 0 01.478.193.679.679 0 01-.478 1.159z" fill="#2364F9"/></g></svg>