<?xml version="1.0" encoding="UTF-8"?>
<svg width="11px" height="11px" viewBox="0 0 11 11" version="1.1" xmlns="http://www.w3.org/2000/svg" xmlns:xlink="http://www.w3.org/1999/xlink">
    <!-- Generator: Sketch 63 (92445) - https://sketch.com -->
    <title>n</title>
    <desc>Created with Sketch.</desc>
    <g id="Page-1" stroke="none" stroke-width="1" fill="none" fill-rule="evenodd">
        <g id="telescope-future" transform="translate(-571.000000, -206.000000)" fill="#000000" fill-rule="nonzero">
            <g id="Planet_2" transform="translate(552.000000, 189.000000)">
                <path d="M22.18,28 L22.18,21.906 C22.18,21.07 22.4183333,20.4026667 22.895,19.904 C23.3716667,19.4053333 24.006,19.156 24.798,19.156 C25.4726667,19.156 25.9676667,19.3466667 26.283,19.728 C26.5983333,20.1093333 26.756,20.718 26.756,21.554 L26.756,28 L29.506,28 L29.506,21.4 C29.506,19.9186667 29.1906667,18.8113333 28.56,18.078 C27.9293333,17.3446667 26.9686667,16.978 25.678,16.978 C24.9006667,16.978 24.204,17.1393333 23.588,17.462 C22.972,17.7846667 22.4806667,18.2466667 22.114,18.848 L22.114,17.242 L19.43,17.242 L19.43,28 L22.18,28 Z" id="n"></path>
            </g>
        </g>
    </g>
</svg>