<?xml version="1.0" encoding="UTF-8"?>
<svg width="1004px" height="190px" viewBox="0 0 1004 190" version="1.1" xmlns="http://www.w3.org/2000/svg" xmlns:xlink="http://www.w3.org/1999/xlink">
    <title>newicon</title>
    <g id="Page-1" stroke="none" stroke-width="1" fill="none" fill-rule="evenodd">
        <g id="newicon" fill="#FFFFFF" fill-rule="nonzero">
            <path d="M121.4,55.74 C129.8,65.5 134,80.2233333 134,99.91 L134,187.66 L97.41,187.66 L97.41,102 C97.41,90.8933333 95.3133333,82.8033333 91.12,77.73 C86.9266667,72.6566667 80.3433333,70.12 71.37,70.12 C60.8366667,70.12 52.4033333,73.4533333 46.07,80.12 C39.7366667,86.7866667 36.5666667,95.66 36.56,106.74 L36.56,187.74 L0,187.74 L0,44.74 L35.69,44.74 L35.69,66 C40.3928268,58.161972 47.1777022,51.7821121 55.29,47.57 C63.8832715,43.1818108 73.4224586,40.9704226 83.07,41.13 C100.23,41.1166667 113.006667,45.9866667 121.4,55.74 Z" id="Path"></path>
            <path d="M289.3,122.73 L191.89,122.73 C193.056667,135.99 197.056667,145.836667 203.89,152.27 C210.723333,158.703333 220.476667,161.92 233.15,161.92 C248.943333,161.92 263.373333,156.85 276.44,146.71 L287,171.87 C280.333333,177.33 272,181.706667 262,185 C252.238931,188.27496 242.01575,189.963068 231.72,190 C208.32,190 189.843333,183.366667 176.29,170.1 C162.736667,156.833333 155.96,138.7 155.96,115.7 C155.96,101.073333 158.883333,88.1033333 164.73,76.79 C170.266757,65.8182609 178.854088,56.6788135 189.46,50.47 C200.08,44.2233333 212.12,41.1 225.58,41.1 C245.28,41.1 260.833333,47.4333333 272.24,60.1 C283.646667,72.7666667 289.35,90.22 289.35,112.46 L289.3,122.73 Z M202.86,76.21 C196.913333,82.4633333 193.246667,91.4333333 191.86,103.12 L258,103.12 C257.613333,91.2266667 254.686667,82.21 249.22,76.07 C243.753333,69.93 236.15,66.8566667 226.41,66.85 C216.65,66.85 208.8,69.97 202.86,76.21 L202.86,76.21 Z" id="Shape"></path>
            <polygon id="Path" points="496.48 44.62 529.13 44.62 480 187.66 448.13 187.66 413 95.52 378.78 187.66 347.18 187.66 300.34 44.66 333 44.66 364.76 144.12 401.33 44.66 427.66 44.66 464.22 144.66"></polygon>
            <path d="M556.54,0.11 L568.62,0.11 L568.62,12.2 L556.54,12.2 L556.54,0.11 Z M556.45,187.05 L556.45,44.63 L568.74,44.63 L568.74,187.05 L556.45,187.05 Z" id="Shape"></path>
            <path d="M632.5,180 C622.606453,173.800721 614.729811,164.857414 609.83,154.26 C604.496667,143.153333 601.83,130.38 601.83,115.94 C601.83,101.32 604.496667,88.4 609.83,77.18 C614.75322,66.4830018 622.68205,57.4492781 632.65,51.18 C642.49,45.06 653.94,42 667,42 C676.313412,41.9569753 685.549183,43.6948345 694.21,47.12 C702.17882,50.126587 709.379291,54.8676941 715.29,61 L709.44,71.53 C702.02,65.29 695,60.7566667 688.38,57.93 C681.719242,55.0936859 674.549428,53.6474729 667.31,53.68 C651.123333,53.68 638.35,59.24 628.99,70.36 C619.63,81.48 614.963333,96.7866667 614.99,116.28 C614.99,135.4 619.623333,150.32 628.89,161.04 C638.156667,171.76 650.86,177.116667 667,177.11 C674.269817,177.140578 681.475309,175.74772 688.21,173.01 C694.943333,170.283333 702.013333,165.8 709.42,159.56 L715.27,169.8 C709.226157,176.107596 701.830746,180.962651 693.64,184 C685.068438,187.372159 675.941026,189.108775 666.73,189.12 C653.663333,189.106667 642.253333,186.066667 632.5,180 Z" id="Path"></path>
            <path d="M762.38,180 C752.793333,174 745.383333,165.43 740.15,154.29 C734.916667,143.15 732.283333,130.183333 732.25,115.39 C732.25,100.763333 734.883333,87.89 740.15,76.77 C745.416667,65.65 752.826667,57.06 762.38,51 C771.926667,44.96 782.926667,41.9366667 795.38,41.93 C807.833333,41.9233333 818.87,44.9466667 828.49,51 C838.036667,57.0466667 845.446667,65.6266667 850.72,76.74 C855.993333,87.8533333 858.626667,100.726667 858.62,115.36 C858.62,130.18 855.986667,143.146667 850.72,154.26 C845.453333,165.373333 838.043333,173.953333 828.49,180 C818.93,186.053333 807.91,189.076667 795.43,189.07 C782.95,189.063333 771.933333,186.04 762.38,180 Z M832.44,161.14 C841.106667,150.513333 845.44,135.253333 845.44,115.36 C845.44,96.0266667 841.006667,80.96 832.14,70.16 C823.273333,59.36 811.036667,53.9733333 795.43,54 C779.83,54 767.593333,59.41 758.72,70.23 C749.846667,81.05 745.41,96.1166667 745.41,115.43 C745.41,135.323333 749.743333,150.583333 758.41,161.21 C767.076667,171.836667 779.313333,177.15 795.12,177.15 C811.326667,177.123333 823.766667,171.796667 832.44,161.17 L832.44,161.14 Z" id="Shape"></path>
            <path d="M1004,95.79 L1004,187.05 L991.71,187.05 L991.71,97 C991.71,81.98 988.69,71.01 982.65,64.09 C976.61,57.17 966.856667,53.7066667 953.39,53.7 C938.37,53.7 926.33,58.3333333 917.27,67.6 C908.21,76.8666667 903.676667,89.2 903.67,104.6 L903.67,187.09 L891.38,187.09 L891.38,45.47 L903.38,45.47 L903.38,70.92 C907.403649,61.8587072 914.223351,54.324093 922.84,49.42 C931.506667,44.4533333 941.403333,41.9666667 952.53,41.96 C986.843333,41.9866667 1004,59.93 1004,95.79 Z" id="Path"></path>
        </g>
    </g>
</svg>