<?xml version="1.0" encoding="UTF-8"?>
<svg width="202px" height="137px" viewBox="0 0 202 137" version="1.1" xmlns="http://www.w3.org/2000/svg" xmlns:xlink="http://www.w3.org/1999/xlink">
    <!-- Generator: Sketch 58 (84663) - https://sketch.com -->
    <title>Web Development</title>
    <desc>Created with Sketch.</desc>
    <g id="Web-Development" stroke="none" stroke-width="1" fill="none" fill-rule="evenodd">
        <g id="Group-92-Copy" transform="translate(1.000000, 1.000000)">
            <path d="M23.6498374,102.905357 L23.0905171,9.59835737 C23.0558374,3.84535737 25.8888374,0.954357367 31.6298374,0.918357367 L190.770837,-2.84217094e-13 C196.513837,-0.036642633 199.406837,2.79935737 199.441837,8.55335737 L200.000837,101.855357 L23.6498374,102.905357 Z" id="Stroke-147" stroke="#A8C5DD" stroke-width="1.417" stroke-linecap="round"></path>
            <path d="M23.6317374,103.572357 L23.6967374,115.642357 C23.7327374,121.372357 26.6487374,124.230357 32.3667374,124.194357 L98.3787374,123.844357 C98.4427374,133.930357 93.7207374,134.395357 90.8067374,134.811357 L86.7747374,134.826357 L88.5797374,134.999357 L136.054737,134.474357 L137.043737,134.474357 L137.419737,134.475357 L133.599737,134.490357 C130.680737,134.110357 125.941737,133.822357 125.878737,123.736357 L191.461737,123.276357 C197.178737,123.239357 200.035737,120.322357 200.000073,114.593357 L199.935737,99.5223574" id="Stroke-148" stroke="#A8C5DD" stroke-width="1.417" stroke-linecap="round"></path>
            <path d="M93.3695374,123.844757 L128.884537,123.736757" id="Stroke-149" stroke="#A8C5DD" stroke-width="1.417" stroke-linecap="round"></path>
            <polygon id="Fill-150" fill="#FFFFFF" points="118.603037 50.3456574 167.080037 50.3456574 167.080037 14.5546574 118.603037 14.5546574"></polygon>
            <polygon id="Stroke-151" stroke="#032663" stroke-width="1.417" stroke-linecap="round" points="118.603037 50.3456574 167.080037 50.3456574 167.080037 14.5546574 118.603037 14.5546574"></polygon>
            <polygon id="Fill-152" fill="#FFFFFF" points="51.5570374 90.3866574 100.034037 90.3866574 100.034037 55.1186574 51.5570374 55.1186574"></polygon>
            <polygon id="Stroke-153" stroke="#032663" stroke-width="1.417" stroke-linecap="round" points="51.5570374 90.3866574 100.034037 90.3866574 100.034037 55.1186574 51.5570374 55.1186574"></polygon>
            <g id="Group-156" transform="translate(54.790037, 19.440657)">
                <path d="M47.0361,0.5301 L0.3501,0.5301" id="Fill-154" fill="#FFFFFF"></path>
                <path d="M47.0361,0.5301 L0.3501,0.5301" id="Stroke-155" stroke="#2969F6" stroke-width="1.4" stroke-linecap="round"></path>
            </g>
            <g id="Group-159" transform="translate(54.790037, 24.440657)">
                <path d="M34.4941,1.2244 L0.3501,1.2244" id="Fill-157" fill="#FFFFFF"></path>
                <path d="M34.4941,1.2244 L0.3501,1.2244" id="Stroke-158" stroke="#2969F6" stroke-width="1.4" stroke-linecap="round"></path>
            </g>
            <g id="Group-162" transform="translate(54.790037, 31.440657)">
                <path d="M41.6606,0.9979 L0.3506,0.9979" id="Fill-160" fill="#FFFFFF"></path>
                <path d="M41.6606,0.9979 L0.3506,0.9979" id="Stroke-161" stroke="#2969F6" stroke-width="1.4" stroke-linecap="round"></path>
            </g>
            <g id="Group-165" transform="translate(54.790037, 37.440657)">
                <path d="M26.6108,1.4783 L0.3508,1.4783" id="Fill-163" fill="#FFFFFF"></path>
                <path d="M26.6108,1.4783 L0.3508,1.4783" id="Stroke-164" stroke="#2969F6" stroke-width="1.4" stroke-linecap="round"></path>
            </g>
            <g id="Group-168" transform="translate(118.790037, 62.440657)">
                <path d="M47.3945,1.4402 L0.7085,1.4402" id="Fill-166" fill="#FFFFFF"></path>
                <path d="M47.3945,1.4402 L0.7085,1.4402" id="Stroke-167" stroke="#2969F6" stroke-width="1.4" stroke-linecap="round"></path>
            </g>
            <g id="Group-171" transform="translate(118.790037, 68.440657)">
                <path d="M34.853,1.1346 L0.709,1.1346" id="Fill-169" fill="#FFFFFF"></path>
                <path d="M34.853,1.1346 L0.709,1.1346" id="Stroke-170" stroke="#2969F6" stroke-width="1.4" stroke-linecap="round"></path>
            </g>
            <g id="Group-174" transform="translate(118.790037, 75.440657)">
                <path d="M42.0195,0.908 L0.7085,0.908" id="Fill-172" fill="#FFFFFF"></path>
                <path d="M42.0195,0.908 L0.7085,0.908" id="Stroke-173" stroke="#2969F6" stroke-width="1.4" stroke-linecap="round"></path>
            </g>
            <g id="Group-177" transform="translate(118.790037, 81.440657)">
                <path d="M26.9692,1.3885 L0.7092,1.3885" id="Fill-175" fill="#FFFFFF"></path>
                <path d="M26.9692,1.3885 L0.7092,1.3885" id="Stroke-176" stroke="#2969F6" stroke-width="1.4" stroke-linecap="round"></path>
            </g>
            <path d="M116.622037,113.190457 C116.622037,115.856457 114.470037,118.018457 111.816037,118.018457 C109.162037,118.018457 107.011037,115.856457 107.011037,113.190457 C107.011037,110.523457 109.162037,108.362457 111.816037,108.362457 C114.470037,108.362457 116.622037,110.523457 116.622037,113.190457 Z" id="Stroke-178" stroke="#A8C5DD" stroke-width="1.417" stroke-linecap="round"></path>
            <path d="M165.817337,93.7881574 C165.817337,93.7881574 165.206337,89.2201574 170.161337,89.2201574 L186.075337,89.2161289 C186.075337,89.2161289 189.979337,89.1601574 189.979337,94.0161574 C189.979337,98.4471574 190.361338,130.398157 190.361338,130.398157 C190.361338,130.398157 190.374337,134.890158 186.352337,134.890158 L169.640337,134.890158 C169.640337,134.890158 165.900337,134.904157 165.900337,130.713157 L165.817337,93.7881574 Z" id="Fill-179" fill="#FFFFFF"></path>
            <path d="M165.817337,93.7881574 C165.817337,93.7881574 165.206337,89.2201574 170.161337,89.2201574 L186.075337,89.2161289 C186.075337,89.2161289 189.979337,89.1601574 189.979337,94.0161574 C189.979337,98.4471574 190.361338,130.398157 190.361338,130.398157 C190.361338,130.398157 190.374337,134.890158 186.352337,134.890158 L169.640337,134.890158 C169.640337,134.890158 165.900337,134.904157 165.900337,130.713157 L165.817337,93.7881574 Z" id="Stroke-180" stroke="#A8C5DD" stroke-width="1.417" stroke-linecap="round"></path>
            <polygon id="Fill-181" fill="#FFFFFF" points="169.473037 107.096657 186.068037 107.096657 186.068037 94.7096574 169.473037 94.7096574"></polygon>
            <polygon id="Stroke-182" stroke="#032663" stroke-width="1.417" stroke-linecap="round" points="169.473037 107.096657 186.068037 107.096657 186.068037 94.7096574 169.473037 94.7096574"></polygon>
            <path d="M165.890537,126.193357 L189.979537,126.106357" id="Stroke-183" stroke="#A8C5DD" stroke-width="1.417" stroke-linecap="round"></path>
            <g id="Group-186" transform="translate(169.790037, 111.440657)">
                <path d="M16.2778,0.6199 L0.5108,0.6199" id="Fill-184" fill="#FFFFFF"></path>
                <path d="M16.2778,0.6199 L0.5108,0.6199" id="Stroke-185" stroke="#2969F6" stroke-width="1.4" stroke-linecap="round"></path>
            </g>
            <g id="Group-189" transform="translate(169.790037, 115.440657)">
                <path d="M12.58,1.2293 L0.511,1.2293" id="Fill-187" fill="#FFFFFF"></path>
                <path d="M12.58,1.2293 L0.511,1.2293" id="Stroke-188" stroke="#2969F6" stroke-width="1.4" stroke-linecap="round"></path>
            </g>
            <g id="Group-192" transform="translate(169.790037, 120.440657)">
                <path d="M16.2778,0.8729 L0.5108,0.8729" id="Fill-190" fill="#FFFFFF"></path>
                <path d="M16.2778,0.8729 L0.5108,0.8729" id="Stroke-191" stroke="#2969F6" stroke-width="1.4" stroke-linecap="round"></path>
            </g>
            <path d="M180.758237,130.442457 C180.758237,131.669457 179.768237,132.664457 178.547237,132.664457 C177.325237,132.664457 176.335237,131.669457 176.335237,130.442457 C176.335237,129.214457 177.325237,128.220457 178.547237,128.220457 C179.768237,128.220457 180.758237,129.214457 180.758237,130.442457 Z" id="Stroke-193" stroke="#A8C5DD" stroke-width="1.417" stroke-linecap="round"></path>
            <path d="M6.1840374,134.863357 C6.1840374,134.863357 0.00503740185,135.697357 0.00503740185,128.932357 L2.84217094e-13,88.1083574 C2.84217094e-13,88.1083574 -0.0749625981,82.7783574 6.4920374,82.7783574 C12.4870374,82.7783574 69.7070374,82.2573567 69.7070374,82.2573567 C69.7070374,82.2573567 75.7830382,82.2403574 75.7830382,87.7313574 L75.7830382,129.642357 C75.7830382,129.642357 75.8020374,134.749357 70.1320374,134.749357 L6.1840374,134.863357 Z" id="Fill-194" fill="#FFFFFF"></path>
            <path d="M6.1840374,134.863357 C6.1840374,134.863357 0.00503740185,135.697357 0.00503740185,128.932357 L2.84217094e-13,88.1083574 C2.84217094e-13,88.1083574 -0.0749625981,82.7783574 6.4920374,82.7783574 C12.4870374,82.7783574 69.7070374,82.2573567 69.7070374,82.2573567 C69.7070374,82.2573567 75.7830382,82.2403574 75.7830382,87.7313574 L75.7830382,129.642357 C75.7830382,129.642357 75.8020374,134.749357 70.1320374,134.749357 L6.1840374,134.863357 Z" id="Stroke-195" stroke="#A8C5DD" stroke-width="1.417" stroke-linecap="round"></path>
            <path d="M6.1537374,106.465857 C7.8137374,106.465857 9.1587374,107.817857 9.1587374,109.485857 C9.1587374,111.152857 7.8137374,112.503857 6.1537374,112.503857 C4.4937374,112.503857 3.1487374,111.152857 3.1487374,109.485857 C3.1487374,107.817857 4.4937374,106.465857 6.1537374,106.465857 Z" id="Stroke-196" stroke="#A8C5DD" stroke-width="1.417" stroke-linecap="round"></path>
            <polygon id="Fill-197" fill="#FFFFFF" points="47.3120374 106.659657 70.6320374 106.659657 70.6320374 89.4416574 47.3120374 89.4416574"></polygon>
            <polygon id="Stroke-198" stroke="#032663" stroke-width="1.417" stroke-linecap="round" points="47.3120374 106.659657 70.6320374 106.659657 70.6320374 89.4416574 47.3120374 89.4416574"></polygon>
            <polygon id="Fill-199" fill="#FFFFFF" points="17.0650374 128.916657 40.3850374 128.916657 40.3850374 111.698657 17.0650374 111.698657"></polygon>
            <polygon id="Stroke-200" stroke="#032663" stroke-width="1.417" stroke-linecap="round" points="17.0650374 128.916657 40.3850374 128.916657 40.3850374 111.698657 17.0650374 111.698657"></polygon>
            <g id="Group-203" transform="translate(17.790037, 92.440657)">
                <path d="M23.4565,0.6121 L0.9985,0.6121" id="Fill-201" fill="#FFFFFF"></path>
                <path d="M23.4565,0.6121 L0.9985,0.6121" id="Stroke-202" stroke="#2969F6" stroke-width="1.4" stroke-linecap="round"></path>
            </g>
            <g id="Group-206" transform="translate(17.790037, 97.440657)">
                <path d="M20.871,0.6043 L0.998,0.6043" id="Fill-204" fill="#FFFFFF"></path>
                <path d="M20.871,0.6043 L0.998,0.6043" id="Stroke-205" stroke="#2969F6" stroke-width="1.4" stroke-linecap="round"></path>
            </g>
            <g id="Group-209" transform="translate(17.790037, 102.440657)">
                <path d="M13.6313,0.7313 L0.9983,0.7313" id="Fill-207" fill="#FFFFFF"></path>
                <path d="M13.6313,0.7313 L0.9983,0.7313" id="Stroke-208" stroke="#2969F6" stroke-width="1.4" stroke-linecap="round"></path>
            </g>
            <g id="Group-212" transform="translate(45.790037, 114.440657)">
                <path d="M23.2182,0.8074 L0.7602,0.8074" id="Fill-210" fill="#FFFFFF"></path>
                <path d="M23.2182,0.8074 L0.7602,0.8074" id="Stroke-211" stroke="#2969F6" stroke-width="1.4" stroke-linecap="round"></path>
            </g>
            <g id="Group-215" transform="translate(45.790037, 119.440657)">
                <path d="M20.6323,0.7996 L0.7603,0.7996" id="Fill-213" fill="#FFFFFF"></path>
                <path d="M20.6323,0.7996 L0.7603,0.7996" id="Stroke-214" stroke="#2969F6" stroke-width="1.4" stroke-linecap="round"></path>
            </g>
            <g id="Group-218" transform="translate(45.790037, 124.440657)">
                <path d="M13.3925,0.9276 L0.7605,0.9276" id="Fill-216" fill="#FFFFFF"></path>
                <path d="M13.3925,0.9276 L0.7605,0.9276" id="Stroke-217" stroke="#2969F6" stroke-width="1.4" stroke-linecap="round"></path>
            </g>
            <path d="M12.1532374,82.7695574 L12.1532374,134.759557" id="Stroke-219" stroke="#A8C5DD" stroke-width="1.417" stroke-linecap="round"></path>
        </g>
    </g>
</svg>