<?xml version="1.0" encoding="UTF-8"?>
<svg width="68px" height="171px" viewBox="0 0 68 171" version="1.1" xmlns="http://www.w3.org/2000/svg" xmlns:xlink="http://www.w3.org/1999/xlink">
    <!-- Generator: Sketch 54.1 (76490) - https://sketchapp.com -->
    <title>Group 2</title>
    <desc>Created with Sketch.</desc>
    <g id="Page-1" stroke="none" stroke-width="1" fill="none" fill-rule="evenodd">
        <g id="About-us---about-us--Copy-3" transform="translate(-156.000000, -3785.000000)">
            <g id="Group-2" transform="translate(190.000000, 3870.500000) scale(-1, 1) translate(-190.000000, -3870.500000) translate(156.000000, 3785.000000)">
                <path d="M38.3328015,81.9351032 C38.3328015,81.9351032 39.6218701,95.2955447 38.5291812,100.71384 C38.5291812,100.71384 37.5601212,108.810876 37.8763258,110.809241 C38.1925303,112.808081 38.065573,119.747243 36.443182,123.400459 C36.443182,123.400459 32.8603226,158.259713 34.0937582,165.583725 C34.0937582,165.583725 31.8741447,167.595393 30.6854057,166.084504 C29.4961912,164.57409 25.2476379,142.705157 24.8558296,134.224222 C24.4640212,125.742812 21.8354815,105.345808 21.2962694,103.358372 C21.2962694,103.358372 20.9724569,113.15492 20.1617369,114.981766 C19.3505414,116.808136 12.7302161,132.145562 13.2632467,138.831009 C13.2632467,138.831009 11.3208471,159.243217 11.8709955,161.453961 C11.8709955,161.453961 8.65046378,162.639867 7.96004416,162.22461 C7.26914904,161.808878 0.993558018,131.298419 7.26486958,111.997522 C7.26486958,111.997522 10.307566,104.389387 8.61480161,101.169008 C9.66612239,103.168798 7.37328258,88.3022183 11.2305029,78.735629 L8.5501342,82.0942692 L38.3328015,81.9351032 Z" id="Fill-203" fill="#DBE3F3"></path>
                <path d="M29.719579,163.510909 C29.719579,163.510909 27.6093295,169.259414 31.5740119,169.373919 C35.5386943,169.488423 45.7266631,167.618817 46.7389933,166.679975 C46.7389933,166.679975 48.4850132,164.033068 45.6662752,163.96465 C42.8470617,163.896708 34.4041617,163.743243 32.5749301,162.241382 C32.5749301,162.241382 30.8788373,163.853947 29.719579,163.510909" id="Fill-205" fill="#DBE3F3"></path>
                <path d="M32.5,171 C30.7948728,170.96009 27.8058994,167.619672 29.7197692,163.510814 C29.7197692,163.510814 24.1336468,140.217939 24.2910359,128.063833 C24.2910359,128.063833 23.4731834,120.726993 23.4570166,118.702021 C23.4413252,116.676575 21.6254075,104.864082 21.6254075,104.864082 C21.6254075,104.864082 15.6883694,97.4949337 18.652609,87.8499493 C19.2526844,85.8990968 27.2714423,88.2889624 27.2714423,88.2889624 C27.2714423,88.2889624 30.1505682,99.9133066 28.660365,103.722363 C27.1696863,107.532369 29.2651954,116.124482 29.7872896,118.145653 C30.3103348,120.167299 29.8671729,128.272887 29.8671729,128.272887 C29.8671729,128.272887 28.8881274,165.377569 31.5133387,167.063304 C31.5133387,167.063304 35.1784588,168.942888 40.8568273,167.741303 C40.8568273,167.741303 46.6787955,166.709337 47.1871003,165.693051 C47.1871003,165.693051 47.1224329,166.6604 46.1876086,166.981107 C46.1876086,166.981107 43.0179308,167.95662 39,169 C37.6387413,169.353493 35.4720746,170.02016 32.5,171 Z" id="Fill-207" fill="#BEC9DD"></path>
                <path d="M21.5,161 C23.7174191,161.99741 23.4108668,163.792894 21.7054334,163.548538 C20,163.304183 17.2990156,163.304183 15.5411084,163.667176 C13.8683102,164.012008 12.4191361,164.502857 10.5,164.654956 C9.63208689,164.723741 8.83326091,164.906188 7.58559137,164.654956 C7.58559137,164.654956 6.84429371,163.735594 7.42392286,160.529468 C7.65311174,159.262317 9.82612667,160.452023 11.4570766,158.938758 C11.4570766,158.938758 19.2825809,160.00259 21.5,161 Z" id="Fill-209" fill="#DBE3F3"></path>
                <path d="M18.4056366,88.6118555 C18.9182208,89.3673001 18.9900207,98.4815728 17.2501822,102.799485 C15.5108193,107.117397 12.2646108,113.219869 11.0454401,119.306187 C9.82674481,125.39203 8.81489016,157.809155 9.33365587,159.32432 L7.42359001,160.529231 C7.42359001,160.529231 0.0125154816,134.077742 8.4202288,107.679942 C8.4202288,107.679942 9.66079684,104.378792 9.14250663,102.863151 C8.62374092,101.348461 8.26664372,90.4638826 9.2542481,87.1646327 L18.4056366,88.6118555 Z" id="Fill-211" fill="#BEC9DD"></path>
                <path d="M64.8630314,24.809951 C64.8630314,24.809951 66.6437624,22.3625956 67.5015565,20.4302728 C67.5015565,20.4302728 69.667439,16.0724503 64.8772963,14.8741917 C64.8772963,14.8741917 63.4346426,14.0284738 61.6320387,16.0040327 C61.6320387,16.0040327 58.6677991,15.8871526 59.1789569,19.6315921 C59.49849,21.9725201 59.3311155,22.9365434 59.3311155,22.9365434 L59.3967339,24.3524081 L64.8630314,24.809951 Z" id="Fill-213" fill="#DBE3F3"></path>
                <path d="M61.3753187,24.5181308 L64.8630789,24.809856 C64.8630789,24.809856 66.64381,22.3625006 67.5016041,20.4301778 C67.5016041,20.4301778 69.6674866,16.0728304 64.8773438,14.8740966 C64.8773438,14.8740966 66.6076723,16.4505527 65.2991084,18.8760525 L61.3753187,24.5181308 Z" id="Fill-215" fill="#BEC9DD"></path>
                <path d="M23.1165142,28.127493 C24.0684564,27.9469465 25.0584382,26.8959758 26.0859842,24.9755311 C27.1140057,23.0550865 29.3664284,17.4491174 32.8423013,8.15809918 L41.6394455,9.99729793 L42.7059822,14.8915336 C43.266116,17.4001798 43.4534613,19.1281999 43.267067,20.0751189 C43.0545205,21.1569725 42.9304161,22.3409775 41.7307407,22.9572112 C41.3560502,23.1496358 40.3018764,23.3596399 39.7636154,23.5444625 C38.2562943,24.0642464 37.1940371,23.9668463 35.5649892,23.2612896 L36.1431918,27.6989326 C34.7604506,27.1953029 32.5465431,28.5703071 30.4657743,28.3298952 C28.385481,28.0890081 25.9357276,28.0215407 23.1165142,28.127493" id="Fill-217" fill="#DBE3F3"></path>
                <path d="M64.7065458,25.4474702 C64.7236636,25.8261427 64.2248687,29.7245219 63.3970309,33.4238248 C62.3247883,38.2106828 60.0999443,43.3795393 59.8241569,44.0090764 C59.0624129,45.7508751 57.5403515,48.3312648 55.0996325,48.8634018 C52.6589136,49.3955389 53.4016377,49.2796091 49.9300443,48.8667277 C46.4584509,48.4538463 41.4714529,43.0493292 41.3254758,45.447747 C41.1338511,48.5997089 39.1253576,51.9602495 38.8600311,54.598129 C38.7558975,55.6329456 39.0331115,56.7076724 38.9765275,57.1210289 C38.7982166,58.4252398 38.9698706,59.5812126 38.7254658,61.1206091 C38.4872425,62.6219959 37.8320096,64.5148835 37.7240721,65.2579749 C37.0346034,69.9887685 40.0264218,86.1396037 39.9027929,86.6061739 C39.7021338,87.3649443 35.456909,87.4580683 29.9230911,88.7717817 C24.3892733,90.0859702 24.3469542,86.8807946 21.8277784,88.2030602 C19.3086027,89.5253258 16.6363174,87.6409904 14.4005371,88.3166145 C12.1647567,88.9917634 12.0744125,87.557844 10.2722842,88.0381928 C8.47063134,88.5190166 8.40596394,88.0396181 7.9228604,87.2532906 C7.67322521,86.8470609 8.68840833,79.836155 8.85863575,77.1075272 C9.01697579,74.5570702 9.57235466,70.7869741 9.89426519,66.5797653 C9.97557493,65.5121653 9.65651738,63.4976464 9.49627536,61.1586189 C9.46536815,60.7129541 9.50958924,58.8347953 9.22714485,58.0826766 C9.13252122,57.8313369 8.89287144,57.8427398 8.5072445,58.1159352 C3.01336826,58.596759 0.186546874,57.1067752 0.0267803498,53.646934 C-0.212869436,48.4571722 11.5784706,28.8792792 16.0219771,27.2096991 C20.4664345,25.5396439 23.7330893,25.0098825 26.9788223,25.0436162 C33.3923071,25.1110836 40.8257299,26.5160204 44.3287061,28.4754252 C45.9054495,29.3572523 47.3148185,31.8763512 48.6504856,33.5544835 C49.0142398,34.0110761 50.3518089,34.4410618 51.3356093,34.9575199 C52.5053285,35.5718531 53.3274604,36.2465269 53.5452374,36.3752851 C53.9470312,36.6114209 53.9574921,35.7362455 54.9469985,33.2641837 C55.9360293,30.792597 59.2858959,24.0121255 59.5873601,23.8149497 C59.8888243,23.618249 61.0105184,23.7897682 62.6376644,24.309077 C64.2652859,24.8279106 64.6675551,24.6112548 64.7065458,25.4474702" id="Fill-219" fill="#1255CC"></path>
                <path d="M64.7065458,25.4474702 C64.7236636,25.8261427 64.2248687,29.7245219 63.3970309,33.4238248 C62.3247883,38.2106828 60.0999443,43.3795393 59.8241569,44.0090764 C59.0624129,45.7508751 57.5403515,48.3312648 55.0996325,48.8634018 C54.9745772,48.8904838 54.4696009,49.0525006 53.5713897,49.2040646 C53.4819965,49.2192685 51.5733571,49.2682061 49.0874661,48.6529226 C48.5154449,48.5113362 47.7218427,48.1450168 46.7066596,47.5539645 C49.0698727,48.0856265 50.6461407,48.3830531 51.4345124,48.4467195 C53.1462966,48.5849801 54.0097966,48.180651 54.182877,48.0205347 C55.3031447,46.9847679 56.3611224,46.0302471 56.8447014,45.3242152 C58.7362229,42.5613785 59.6948221,39.3338722 60.3153439,37.3046244 C60.7214171,35.975232 60.845046,34.7655704 61.1417552,33.5278766 C61.4931465,32.0592733 62.0237996,30.5583617 62.6424194,28.8688265 C62.8754122,28.2326376 62.6157916,27.2510348 62.7394205,26.5107941 C62.8240587,26.0043136 62.7902985,25.2702495 62.6376644,24.309077 C64.2652859,24.8279106 64.6675551,24.6112548 64.7065458,25.4474702" id="Fill-221" fill="#134AAD"></path>
                <path d="M41.5331247,11.2694381 C42.3524037,8.8662691 41.0761735,5.03868316 41.0761735,5.03868316 C39.335384,0.303613466 30.1616473,-2.48297932 25.0919131,3.07357697 C20.0217035,8.62965815 25.6758217,15.7189593 26.7937119,17.9487086 C27.9116021,20.178458 26.0861744,24.9757687 26.0861744,24.9757687" id="Fill-223" fill="#DBE3F3"></path>
                <path d="M36.912829,16.6247801 C36.7987101,14.1555691 35.2628593,11.0791516 35.3979,9.91842762 C35.4483025,9.48986723 36.101158,9.88564417 36.6004284,9.86331342 C37.4339722,9.82435339 38.0283417,16.3330549 39.7130226,18.3190665 C40.2512837,18.95383 41.1067003,18.3067133 42.9511477,16.3463584 C43.6810335,19.9240299 43.6591607,22.1552047 42.2131785,23.0698152 C40.7676719,23.984901 38.8561796,24.3298398 36.4787015,24.1046318 C36.0821382,24.0870523 35.782576,23.9483165 35.5804903,23.6884246 C35.3779292,23.4285326 35.3955225,22.0107674 35.1430344,21.1954574 C36.589492,19.815702 37.0169626,18.8787607 36.912829,16.6247801" id="Fill-225" fill="#143B82"></path>
                <polygon id="Fill-227" fill="#DBE3F3" points="40.7478913 11.076871 43.9570111 14.1029255 41.8581735 15.6893591"></polygon>
                <path d="M26.7226253,88.2225878 C26.7226253,88.2225878 24.374628,77.7798729 23.7716996,72.5597032 C23.1687711,67.3400087 23.2610173,64.7572434 23.6918163,62.3963603 C24.1221398,60.0354771 25.4278508,51.676649 24.8382362,49.5690061 C24.2481462,47.4608881 23.236767,39.008936 23.1759036,35.6412685 C23.1145646,32.2740761 25.2804471,25.0574422 26.9789174,25.0436637 C26.9789174,25.0436637 19.0081846,25.0313105 15.3958445,27.5318796 C15.3958445,27.5318796 11.766862,29.7663802 5.63201766,40.1782121 C5.63201766,40.1782121 -0.448144662,50.480766 0.0263999534,53.6469815 C0.0263999534,53.6469815 -0.569871538,59.685787 8.89391753,57.81428 C8.89391753,57.81428 9.36180521,58.078448 9.4169627,59.149849 C9.47307118,60.22125 10.4069445,63.121397 10.1211717,65.2171619 C9.83539883,67.3124516 9.94238534,71.2863752 9.94238534,71.2863752 C9.94238534,71.2863752 9.03228675,75.4650766 8.82449517,77.57462 C8.61670359,79.6836882 8.24914548,82.9107195 8.24914548,82.9107195 C8.24914548,82.9107195 6.23114213,89.566709 10.2723793,88.0382403 C10.2723793,88.0382403 11.7816023,87.6453141 12.5685476,88.2178365 C13.3559683,88.790359 14.4006322,88.316662 14.4006322,88.316662 C14.4006322,88.316662 16.1176468,87.8553182 17.5893057,88.4268904 C19.0609646,88.9984626 20.7418416,88.6763296 21.2843821,88.4397187 C21.8278735,88.2031077 23.0508482,87.3844719 24.7550245,88.4891314 C24.7550245,88.4891314 26.4677597,89.3909137 27.46107,89.0944373 L26.7226253,88.2225878 Z" id="Fill-229" fill="#134AAD"></path>
                <path d="M9.2815891,58.0226211 L9.24402494,57.206836 C9.86835068,56.0969501 10.2392372,55.2764138 10.3552582,54.745702 C11.0770605,51.4483527 11.404677,49.53551 11.941036,47.9367231 C13.0042442,44.7690822 14.8330003,42.1815657 14.8967167,41.4227952 C14.9385603,40.9167899 14.0436776,41.332522 12.209691,42.6699915 C11.0532857,42.1250261 10.2444677,42.0262007 9.78371246,42.3725649 C9.09234184,42.8913985 9.88451753,45.7962968 9.30583937,47.3480465 C8.72716122,48.9002713 7.84464137,48.5073451 7.03772533,49.7388623 C6.23128478,50.9708547 6.09148907,52.3653389 5.86182469,52.6086016 C5.70823961,52.7715685 4.01785273,53.3103573 0.78876206,54.225443 C0.802551433,55.8237547 1.03221581,56.8044073 1.47775519,57.1669257 C2.61894465,58.0962651 4.77626822,58.2302496 5.81284864,58.1822623 C6.37631094,58.1566057 6.857037,58.204593 7.25597781,58.1950906 C7.63399682,58.1865384 8.03531511,58.1680086 8.4589817,58.1399764 C8.63586606,57.9389996 8.78041673,57.8306717 8.89406018,57.8145175 C9.00722813,57.7978882 9.13608744,57.8677312 9.2815891,58.0226211" id="Fill-231" fill="#06417C"></path>
                <path d="M33.867137,162.850631 C33.867137,162.850631 32.1886375,163.741485 29.7193888,163.511051 L29.0760433,160.706404 C29.0760433,160.706404 32.0079492,161.239966 33.8419357,159.670637 L33.867137,162.850631 Z" id="Fill-233" fill="#134AAD"></path>
                <path d="M11.7830764,159.019529 L11.9281025,155.906527 C11.9281025,155.906527 9.70563608,158.155757 6.79750495,157.72292 L7.42373266,160.529468 C7.42373266,160.529468 10.8553845,160.700512 11.7830764,159.019529" id="Fill-235" fill="#134AAD"></path>
                <path d="M10.9119209,161.777092 C12.0716547,161.799423 16.4500182,161.344255 16.4500182,161.344255 C16.4500182,161.344255 22.3842347,162.157665 21.7361342,163.589209 C21.7361342,163.589209 19.0360395,163.404197 16,164 C15.6043877,164.07792 13.6669424,164.226348 13.0098075,164.413546 C12.3526726,164.600744 8.8748977,165.149986 7.39610637,164.614523 C7.39610637,164.614523 6.88637508,162.257916 7.42368511,160.529421 C7.42368511,160.529421 8.36183794,160.566955 9.5462975,160.366929 C9.5462975,160.366929 9.75266259,161.754761 10.9119209,161.777092 Z" id="Fill-237" fill="#BEC9DD"></path>
                <path d="M9.5462975,160.366929 C9.5462975,160.366929 9.16019507,157.961859 9.13023884,157.53805 C9.13023884,157.53805 7.64383958,157.959959 6.7323145,157.622622 L7.42368511,160.529421 C7.42368511,160.529421 8.02518705,160.659129 9.5462975,160.366929" id="Fill-239" fill="#0B3C84"></path>
                <path d="M30.1876093,160.793779 C30.1876093,160.793779 30.4505584,163.386997 30.4724312,163.548538 L29.7197217,163.511004 L29.0759006,160.706356 L30.1876093,160.793779 Z" id="Fill-241" fill="#0B3C84"></path>
                <path d="M59.6762302,17.3731929 C60.027146,16.3502544 62.6366659,8.92171588 64.3788818,9.64627752 C65.9404093,10.2957698 61.86351,17.4530134 61.86351,17.4530134 L59.6762302,17.3731929 Z" id="Fill-243" fill="#DBE3F3"></path>
                <path d="M43.4392915,12.8934064 L43.112626,12.5479925 C43.7959132,11.9032514 43.82159,11.5768423 43.7759424,11.4385817 C43.7336233,11.3107738 43.5419986,11.0817648 42.735558,10.9853149 L42.6813515,10.9786632 L36.842741,10.6403761 L36.8707952,10.1662039 L42.7916665,10.5135184 C43.6061905,10.6104434 44.089294,10.8717607 44.2271877,11.2898684 C44.3731649,11.730782 44.1154463,12.2553171 43.4392915,12.8934064" id="Fill-245" fill="#143B82"></path>
            </g>
        </g>
    </g>
</svg>