<svg xmlns="http://www.w3.org/2000/svg" xmlns:xlink="http://www.w3.org/1999/xlink" width="52" height="40" version="1.1" viewBox="0 0 52 40"><title>Group</title><desc>Created with Sketch.</desc><g id="Page-1" fill="none" fill-rule="evenodd" stroke="none" stroke-linecap="round" stroke-linejoin="round" stroke-width="1"><g id="Careers---Why-us?" stroke="#000" stroke-width="2" transform="translate(-1057.000000, -2970.000000)"><g id="Group" transform="translate(1058.000000, 2971.000000)"><path id="Stroke-1" d="M17.2413793,29.3103448 C17.2413793,34.0706897 13.3810345,37.9310345 8.62068966,37.9310345 C3.85948276,37.9310345 2.66453526e-14,34.0706897 2.66453526e-14,29.3103448 C2.66453526e-14,24.5491379 3.85948276,20.6896552 8.62068966,20.6896552 C13.3810345,20.6896552 17.2413793,24.5491379 17.2413793,29.3103448 Z"/><path id="Stroke-3" fill="#0167FF" d="M50,29.3103448 C50,34.0706897 46.1396552,37.9310345 41.3793103,37.9310345 C36.6181034,37.9310345 32.7586207,34.0706897 32.7586207,29.3103448 C32.7586207,24.5491379 36.6181034,20.6896552 41.3793103,20.6896552 C46.1396552,20.6896552 50,24.5491379 50,29.3103448 Z"/><path id="Stroke-5" d="M25,29.3103448 L8.62068966,29.3103448 C16.3793103,9.48275862 36.1275862,16.3534483 36.1275862,16.3534483 C26.6448276,20.6637931 25,29.3103448 25,29.3103448 Z"/><path id="Stroke-7" d="M23.2758621,29.3103448 L12.9310345,8.62068966"/><path id="Stroke-9" d="M10.3448276,8.62068966 L17.2413793,8.62068966"/><path id="Stroke-11" d="M41.3793103,29.3103448 L39.6551724,28.4482759 L33.6206897,7.75862069 C33.6206897,6.55603448 33.6206897,5.17241379 36.2068966,5.17241379 C37.9310345,5.17241379 38.7931034,3.78534483 38.7931034,2.5862069 C38.7931034,1.38534483 37.9310345,3.7658765e-13 36.2068966,3.7658765e-13 L31.0344828,3.7658765e-13"/></g></g></g></svg>