<svg xmlns="http://www.w3.org/2000/svg" xmlns:xlink="http://www.w3.org/1999/xlink" width="58" height="44" version="1.1" viewBox="0 0 58 44"><title>Group 9</title><desc>Created with Sketch.</desc><g id="Page-1" fill="none" fill-rule="evenodd" stroke="none" stroke-linejoin="round" stroke-width="1"><g id="Careers---Why-us?" stroke="#000" stroke-width="2" transform="translate(-1056.000000, -2634.000000)"><g id="Group-9" transform="translate(1057.000000, 2635.000000)"><path id="Stroke-1" stroke-linecap="round" d="M40,12 C45.936,16.463 48,22.301 48,30 C48,34.105 46.819,38.619 45,42 L3,42 C1.18,38.619 0,34.105 0,30 C0,24.67 2.053,19.977 5,16.002 L2,12 L40,12 Z"/><path id="Stroke-3" stroke-linecap="round" d="M8,6 L48,6 C55,11 58.359,21.146 54,27 C52.545,28.959 50.438,30 48,30"/><path id="Stroke-5" stroke-linecap="round" d="M38,6.002 L44,0"/><path id="Stroke-7" d="M1.5898,22.002 L47.0058,22.002"/></g></g></g></svg>