<svg xmlns="http://www.w3.org/2000/svg" xmlns:xlink="http://www.w3.org/1999/xlink" width="52" height="52" version="1.1" viewBox="0 0 52 52"><title>Group 11</title><desc>Created with Sketch.</desc><g id="Page-1" fill="none" fill-rule="evenodd" stroke="none" stroke-width="1"><g id="Careers---Why-us?" transform="translate(-1057.000000, -3309.000000)"><g id="Group-11" transform="translate(1058.000000, 3310.000000)"><polyline id="Stroke-1" fill="#0167FF" stroke="#000" stroke-linecap="round" stroke-linejoin="round" stroke-width="2" points="25 34.483 37.931 41.379 44.828 34.483"/><path id="Stroke-2" stroke="#000" stroke-linecap="round" stroke-linejoin="round" stroke-width="2" d="M50,38.7931034 C50,41.1939655 48.0922414,43.1034483 45.6896552,43.1034483 L4.31034483,43.1034483 C1.9112069,43.1034483 0,41.1939655 0,38.7931034 C0,36.3905172 1.9112069,34.4827586 4.31034483,34.4827586 L45.6896552,34.4827586 C48.0922414,34.4827586 50,36.3905172 50,38.7931034 Z"/><path id="Stroke-4" stroke="#000" stroke-linecap="round" stroke-linejoin="round" stroke-width="2" d="M4.31034483,43.1034483 L4.31034483,45.6896552 C4.31034483,48.0905172 6.22155172,50 8.62068966,50 L41.3793103,50 C43.7818966,50 45.6896552,48.0905172 45.6896552,45.6896552 L45.6896552,43.1034483 L4.31034483,43.1034483 Z"/><path id="Stroke-6" stroke="#000" stroke-linecap="round" stroke-linejoin="round" stroke-width="2" d="M45.6896552,18.9655172 C45.6896552,7.55862069 36.4051724,0 25,0 C13.5948276,0 4.31034483,7.55862069 4.31034483,18.9655172 L45.6896552,18.9655172 Z"/><path id="Stroke-8" stroke="#000" stroke-linecap="round" stroke-linejoin="round" stroke-width="2" d="M4.31034483,18.9655172 C4.31034483,18.9655172 0,21.5517241 0,23.2758621 C0,25.6767241 1.9112069,25.862069 4.31034483,25.862069 C5.46896552,25.862069 6.98103448,25.7387931 7.75862069,25 C8.86982759,27.0086207 10.4706897,28.4482759 12.9310345,28.4482759 C15.6068966,28.4482759 17.9586207,26.4431034 18.9655172,24.137931 C19.9689655,26.4431034 22.3232759,27.5862069 25,27.5862069 C27.6758621,27.5862069 30.0275862,26.4431034 31.0344828,24.137931 C32.037931,26.4431034 34.3922414,28.4482759 37.0689655,28.4482759 C39.5275862,28.4482759 41.9922414,27.0086207 43.1034483,25 C43.8827586,25.7387931 45.3931034,25.862069 46.5517241,25.862069 C48.9543103,25.862069 50,25.6767241 50,23.2758621 C50,21.5517241 45.6896552,18.9655172 45.6896552,18.9655172"/><path id="Stroke-10" stroke="#000" stroke-linecap="round" stroke-linejoin="round" stroke-width="2" d="M4.31034483,25.862069 C1.9112069,25.862069 0,27.7698276 0,30.1724138 C0,32.5732759 1.9112069,34.4827586 4.31034483,34.4827586 L45.6896552,34.4827586 C48.0922414,34.4827586 50,32.5732759 50,30.1724138 C50,27.7698276 48.0922414,25.862069 45.6896552,25.862069"/><path id="Fill-12" fill="#000" d="M13.7931034,7.75689655 C13.3163793,7.75689655 12.9301724,8.14224138 12.9301724,8.61896552 C12.9301724,9.09568966 13.3163793,9.48275862 13.7931034,9.48275862 C14.2698276,9.48275862 14.6560345,9.09568966 14.6560345,8.61896552 C14.6560345,8.14224138 14.2698276,7.75689655 13.7931034,7.75689655"/><path id="Fill-14" fill="#000" d="M25.862931,7.75689655 C25.3853448,7.75689655 25,8.14224138 25,8.61896552 C25,9.09568966 25.3853448,9.48275862 25.862931,9.48275862 C26.3396552,9.48275862 26.7258621,9.09568966 26.7258621,8.61896552 C26.7258621,8.14224138 26.3396552,7.75689655 25.862931,7.75689655"/><path id="Fill-16" fill="#000" d="M36.2068966,7.75689655 C35.7301724,7.75689655 35.3439655,8.14224138 35.3439655,8.61896552 C35.3439655,9.09568966 35.7301724,9.48275862 36.2068966,9.48275862 C36.6836207,9.48275862 37.0698276,9.09568966 37.0698276,8.61896552 C37.0698276,8.14224138 36.6836207,7.75689655 36.2068966,7.75689655"/><path id="Fill-18" fill="#000" d="M18.9646552,4.30862069 C18.487931,4.30862069 18.1017241,4.69396552 18.1017241,5.17068966 C18.1017241,5.64741379 18.487931,6.03448276 18.9646552,6.03448276 C19.4413793,6.03448276 19.8275862,5.64741379 19.8275862,5.17068966 C19.8275862,4.69396552 19.4413793,4.30862069 18.9646552,4.30862069"/><path id="Fill-20" fill="#000" d="M31.0344828,4.30862069 C30.5577586,4.30862069 30.1715517,4.69396552 30.1715517,5.17068966 C30.1715517,5.64741379 30.5577586,6.03448276 31.0344828,6.03448276 C31.5112069,6.03448276 31.8974138,5.64741379 31.8974138,5.17068966 C31.8974138,4.69396552 31.5112069,4.30862069 31.0344828,4.30862069"/></g></g></g></svg>