<?xml version="1.0" encoding="UTF-8"?>
<svg width="58px" height="44px" viewBox="0 0 58 44" version="1.1" xmlns="http://www.w3.org/2000/svg" xmlns:xlink="http://www.w3.org/1999/xlink">
    <!-- Generator: Sketch 54.1 (76490) - https://sketchapp.com -->
    <title>Group 9</title>
    <desc>Created with Sketch.</desc>
    <g id="Page-1" stroke="none" stroke-width="1" fill="none" fill-rule="evenodd" stroke-linejoin="round">
        <g id="Careers---Why-us?" transform="translate(-1056.000000, -2634.000000)" stroke="#000000" stroke-width="2">
            <g id="Group-9" transform="translate(1057.000000, 2635.000000)">
                <path d="M40,12 C45.936,16.463 48,22.301 48,30 C48,34.105 46.819,38.619 45,42 L3,42 C1.18,38.619 0,34.105 0,30 C0,24.67 2.053,19.977 5,16.002 L2,12 L40,12 Z" id="Stroke-1" stroke-linecap="round"></path>
                <path d="M8,6 L48,6 C55,11 58.359,21.146 54,27 C52.545,28.959 50.438,30 48,30" id="Stroke-3" stroke-linecap="round"></path>
                <path d="M38,6.002 L44,0" id="Stroke-5" stroke-linecap="round"></path>
                <path d="M1.5898,22.002 L47.0058,22.002" id="Stroke-7"></path>
            </g>
        </g>
    </g>
</svg>