<svg width="208" height="199" viewBox="0 0 208 199" fill="none" xmlns="http://www.w3.org/2000/svg">
<path fill-rule="evenodd" clip-rule="evenodd" d="M126.766 0L126 104L215 103.889L213.501 0.00051206L126.766 0Z" fill="#EBF5FC"/>
<path fill-rule="evenodd" clip-rule="evenodd" d="M147.694 22.4974C147.47 28.9862 147.488 31.8833 147.57 40.8943C147.622 46.4945 147.461 50.063 147.57 55.6616C147.694 62.0445 147.446 62.1696 147.529 71.389C159.432 71.0099 177.73 70.9173 189.638 70.9721C189.533 64.9343 189.308 62.5452 189.06 54.0354C188.56 36.8355 188.18 26.3421 187.763 12.8384C174.075 12.7085 161.374 12.4737 147.701 13.1342L147.694 22.4974Z" fill="white"/>
<path fill-rule="evenodd" clip-rule="evenodd" d="M149.94 15.2788L150.036 17.5624L156.377 17.4523V15.1686L149.94 15.2788ZM149.546 18.089L149.406 14.7709L156.888 14.6426V17.9607L149.546 18.089Z" fill="#231F20"/>
<path fill-rule="evenodd" clip-rule="evenodd" d="M156.633 17.9649C156.603 17.9649 156.572 17.9592 156.542 17.9478L149.583 15.2659C149.451 15.2157 149.385 15.0662 149.435 14.9328C149.485 14.7988 149.633 14.731 149.765 14.7833L156.724 17.4647C156.856 17.5154 156.922 17.6649 156.872 17.7983C156.833 17.9018 156.736 17.9649 156.633 17.9649Z" fill="#231F20"/>
<path fill-rule="evenodd" clip-rule="evenodd" d="M149.791 18.0856C149.691 18.0856 149.597 18.0267 149.556 17.9273C149.5 17.796 149.561 17.6439 149.692 17.5885L156.532 14.6687C156.663 14.6139 156.813 14.6739 156.868 14.8063C156.923 14.9377 156.862 15.0897 156.732 15.1451L149.89 18.0654C149.858 18.0789 149.824 18.0856 149.791 18.0856Z" fill="#231F20"/>
<path fill-rule="evenodd" clip-rule="evenodd" d="M167.18 16.3317H164.537C164.396 16.3317 164.281 16.2158 164.281 16.0731C164.281 15.9303 164.396 15.8145 164.537 15.8145H167.18C167.321 15.8145 167.435 15.9303 167.435 16.0731C167.435 16.2158 167.321 16.3317 167.18 16.3317Z" fill="#231F20"/>
<path fill-rule="evenodd" clip-rule="evenodd" d="M170.977 16.3317H168.748C168.606 16.3317 168.492 16.2158 168.492 16.0731C168.492 15.9303 168.606 15.8145 168.748 15.8145H170.977C171.119 15.8145 171.233 15.9303 171.233 16.0731C171.233 16.2158 171.119 16.3317 170.977 16.3317Z" fill="#231F20"/>
<path fill-rule="evenodd" clip-rule="evenodd" d="M174.942 16.3317H172.795C172.654 16.3317 172.539 16.2158 172.539 16.0731C172.539 15.9303 172.654 15.8145 172.795 15.8145H174.942C175.083 15.8145 175.198 15.9303 175.198 16.0731C175.198 16.2158 175.083 16.3317 174.942 16.3317Z" fill="#231F20"/>
<path fill-rule="evenodd" clip-rule="evenodd" d="M177.994 16.3317H176.178C176.037 16.3317 175.922 16.2158 175.922 16.0731C175.922 15.9303 176.037 15.8145 176.178 15.8145H177.994C178.136 15.8145 178.25 15.9303 178.25 16.0731C178.25 16.2158 178.136 16.3317 177.994 16.3317Z" fill="#231F20"/>
<path fill-rule="evenodd" clip-rule="evenodd" d="M181.628 16.2497H179.729C179.587 16.2497 179.473 16.1338 179.473 15.991C179.473 15.8483 179.587 15.7324 179.729 15.7324H181.628C181.769 15.7324 181.884 15.8483 181.884 15.991C181.884 16.1338 181.769 16.2497 181.628 16.2497Z" fill="#231F20"/>
<path fill-rule="evenodd" clip-rule="evenodd" d="M185.344 16.2497H183.197C183.056 16.2497 182.941 16.1338 182.941 15.991C182.941 15.8483 183.056 15.7324 183.197 15.7324H185.344C185.485 15.7324 185.6 15.8483 185.6 15.991C185.6 16.1338 185.485 16.2497 185.344 16.2497Z" fill="#231F20"/>
<path fill-rule="evenodd" clip-rule="evenodd" d="M150.552 20.5004L150.671 34.4991L186.069 33.8825L185.591 20.0069L150.552 20.5004ZM150.164 35.0257L150.035 19.9904L186.086 19.4824L186.599 34.3905L150.164 35.0257Z" fill="#231F20"/>
<path fill-rule="evenodd" clip-rule="evenodd" d="M150.416 35.0211C150.316 35.0211 150.221 34.9617 150.18 34.8624C150.125 34.7305 150.187 34.5794 150.317 34.5241L185.738 19.5064C185.868 19.4515 186.019 19.5131 186.073 19.6445C186.128 19.7764 186.066 19.9279 185.936 19.9833L150.515 35.001C150.483 35.0144 150.449 35.0211 150.416 35.0211Z" fill="#231F20"/>
<path fill-rule="evenodd" clip-rule="evenodd" d="M186.335 34.3966C186.305 34.3966 186.274 34.3909 186.244 34.3796L150.204 20.4879C150.072 20.4377 150.005 20.2882 150.056 20.1548C150.106 20.0208 150.255 19.9546 150.386 20.0053L186.427 33.8965C186.559 33.9471 186.625 34.0966 186.574 34.2301C186.536 34.3335 186.438 34.3966 186.335 34.3966Z" fill="#231F20"/>
<path fill-rule="evenodd" clip-rule="evenodd" d="M160.326 38.5256C160.188 38.5256 160.074 38.4139 160.07 38.2732C160.067 38.1304 160.179 38.012 160.32 38.0083L175.801 37.6328C175.96 37.6406 176.06 37.7425 176.064 37.8857C176.067 38.028 175.955 38.147 175.814 38.1501L160.332 38.5256H160.326Z" fill="#231F20"/>
<path fill-rule="evenodd" clip-rule="evenodd" d="M157.229 40.5288C157.09 40.5288 156.976 40.4165 156.973 40.2764C156.97 40.1331 157.081 40.0152 157.223 40.0115L179.144 39.5108C179.303 39.4969 179.403 39.621 179.406 39.7638C179.409 39.9065 179.297 40.0245 179.155 40.0281L157.234 40.5288H157.229Z" fill="#231F20"/>
<path fill-rule="evenodd" clip-rule="evenodd" d="M159.83 42.1545C159.692 42.1545 159.578 42.0428 159.574 41.9021C159.571 41.7588 159.683 41.6409 159.824 41.6372L175.429 41.2617C175.572 41.2659 175.688 41.3714 175.691 41.5147C175.694 41.6574 175.583 41.7759 175.441 41.779L159.836 42.1545H159.83Z" fill="#231F20"/>
<path fill-rule="evenodd" clip-rule="evenodd" d="M170.924 50.1643C170.786 50.1643 170.673 50.0541 170.668 49.9144C170.663 49.7717 170.774 49.6522 170.915 49.647L181.789 49.2715C181.927 49.2818 182.048 49.3786 182.053 49.5218C182.058 49.6641 181.948 49.7841 181.807 49.7887L170.933 50.1643H170.924Z" fill="#231F20"/>
<path fill-rule="evenodd" clip-rule="evenodd" d="M171.053 52.1664C170.916 52.1664 170.803 52.0578 170.797 51.9186C170.791 51.7759 170.901 51.6553 171.042 51.6491L182.827 51.1484C182.965 51.1526 183.088 51.2529 183.094 51.3962C183.1 51.539 182.99 51.66 182.849 51.6657L171.063 52.1664H171.053Z" fill="#231F20"/>
<path fill-rule="evenodd" clip-rule="evenodd" d="M153.416 67.3894C153.279 67.3894 153.165 67.2792 153.16 67.1395C153.155 66.9968 153.266 66.8773 153.407 66.8721L164.281 66.4961C164.423 66.4961 164.54 66.6032 164.546 66.7464C164.551 66.8887 164.44 67.0087 164.299 67.0133L153.425 67.3894H153.416Z" fill="#231F20"/>
<path fill-rule="evenodd" clip-rule="evenodd" d="M153.545 69.3929C153.408 69.3929 153.295 69.2843 153.289 69.1452C153.283 69.0024 153.393 68.8819 153.534 68.8757L165.319 68.375C165.46 68.3802 165.58 68.4795 165.586 68.6228C165.592 68.7655 165.482 68.8866 165.341 68.8922L153.555 69.3929H153.545Z" fill="#231F20"/>
<path fill-rule="evenodd" clip-rule="evenodd" d="M170.888 54.2605C170.751 54.2605 170.638 54.1508 170.633 54.0112C170.628 53.8679 170.738 53.7484 170.88 53.7433L181.417 53.3672C181.547 53.3651 181.677 53.4738 181.681 53.617C181.686 53.7598 181.576 53.8798 181.435 53.8845L170.898 54.2605H170.888Z" fill="#231F20"/>
<path fill-rule="evenodd" clip-rule="evenodd" d="M170.888 57.0534C170.751 57.0534 170.637 56.9427 170.633 56.8031C170.628 56.6598 170.739 56.5408 170.881 56.5362L182.8 56.1602C182.943 56.1674 183.059 56.2683 183.064 56.411C183.068 56.5538 182.957 56.6733 182.816 56.6774L170.897 57.0534H170.888Z" fill="#231F20"/>
<path fill-rule="evenodd" clip-rule="evenodd" d="M151.874 46.4558L151.669 58.9002L167.58 58.5785L167.784 46.1341L151.874 46.4558ZM151.148 59.4283L151.371 45.9489L168.305 45.6055L168.083 59.0854L151.148 59.4283Z" fill="#231F20"/>
<path fill-rule="evenodd" clip-rule="evenodd" d="M151.409 59.4227C151.333 59.4227 151.258 59.3891 151.207 59.325C151.12 59.2127 151.139 59.0498 151.249 58.9608L167.885 45.6666C167.996 45.5786 168.157 45.5978 168.245 45.709C168.333 45.8212 168.314 45.9842 168.203 46.0726L151.567 59.3674C151.52 59.4046 151.464 59.4227 151.409 59.4227Z" fill="#231F20"/>
<path fill-rule="evenodd" clip-rule="evenodd" d="M167.832 59.0899C167.778 59.0899 167.722 59.0723 167.676 59.0361L151.467 46.4065C151.355 46.3196 151.334 46.1567 151.42 46.0434C151.507 45.9317 151.667 45.9095 151.779 45.9974L167.989 58.6265C168.1 58.7134 168.121 58.8763 168.035 58.9896C167.985 59.0553 167.909 59.0899 167.832 59.0899Z" fill="#231F20"/>
<path fill-rule="evenodd" clip-rule="evenodd" d="M169.608 71.0611H169.599C169.458 71.0559 169.347 70.937 169.352 70.7937L169.573 64.1047L186.508 63.7617L186.286 70.4787C186.281 70.622 186.147 70.7275 186.022 70.7285C185.88 70.7238 185.77 70.6044 185.774 70.4616L185.978 64.2898L170.068 64.6116L169.863 70.8113C169.858 70.9509 169.745 71.0611 169.608 71.0611Z" fill="#231F20"/>
<path fill-rule="evenodd" clip-rule="evenodd" d="M177.948 71.1838C177.873 71.1838 177.8 71.1517 177.749 71.0891C177.66 70.9789 177.676 70.816 177.785 70.7255L186.077 63.8265C186.186 63.7354 186.347 63.752 186.437 63.8621C186.527 63.9723 186.511 64.1352 186.402 64.2258L178.11 71.1248C178.062 71.1646 178.005 71.1838 177.948 71.1838Z" fill="#231F20"/>
<path fill-rule="evenodd" clip-rule="evenodd" d="M177.949 71.183C177.893 71.183 177.836 71.1644 177.789 71.1266L169.659 64.5597C169.548 64.4702 169.53 64.3078 169.619 64.1961C169.706 64.0854 169.868 64.0673 169.978 64.1557L178.108 70.7222C178.219 70.8116 178.237 70.9746 178.149 71.0863C178.098 71.1499 178.024 71.183 177.949 71.183Z" fill="#231F20"/>
<path fill-rule="evenodd" clip-rule="evenodd" d="M193.588 15.6878C193.471 15.6878 193.366 15.6077 193.339 15.4877C193.307 15.349 193.392 15.2099 193.53 15.1773C196.875 14.389 200.303 13.7983 203.719 13.4197C203.86 13.4032 203.986 13.5066 204.001 13.6488C204.017 13.7906 203.915 13.9183 203.775 13.9339C200.38 14.3099 196.972 14.898 193.646 15.6811C193.627 15.6858 193.607 15.6878 193.588 15.6878Z" fill="#0751CF"/>
<path fill-rule="evenodd" clip-rule="evenodd" d="M193.826 13.6451C193.702 13.6451 193.593 13.5535 193.573 13.4263C193.552 13.2851 193.648 13.1527 193.787 13.1309C194.457 13.0259 195.055 12.9416 195.613 12.8625C197.856 12.5459 199.477 12.3168 202.514 11.169C202.646 11.1183 202.794 11.1871 202.843 11.3211C202.893 11.4551 202.826 11.604 202.693 11.6537C199.603 12.8211 197.96 13.0534 195.684 13.3751C195.128 13.4532 194.533 13.5375 193.866 13.642C193.852 13.6441 193.839 13.6451 193.826 13.6451Z" fill="#0751CF"/>
<path fill-rule="evenodd" clip-rule="evenodd" d="M193.095 11.9474C192.977 11.9474 192.871 11.8647 192.846 11.7426C192.816 11.6035 192.904 11.4659 193.042 11.4359C193.588 11.3174 194.593 11.1809 195.756 11.0216C197.753 10.749 200.238 10.4091 201.12 10.0522C201.251 9.99844 201.4 10.0626 201.452 10.1955C201.505 10.3284 201.442 10.479 201.31 10.5322C200.37 10.9134 197.955 11.2435 195.825 11.5341C194.672 11.6919 193.676 11.8279 193.149 11.9417C193.131 11.9454 193.113 11.9474 193.095 11.9474Z" fill="#0751CF"/>
<path fill-rule="evenodd" clip-rule="evenodd" d="M131.838 56.3474C131.7 56.3474 131.586 56.2362 131.582 56.096C131.579 55.9527 131.69 55.8343 131.831 55.8301C132.509 55.8115 133.112 55.8043 133.675 55.7975C135.94 55.7696 137.576 55.75 140.733 54.9999C140.869 54.9648 141.009 55.0527 141.041 55.1924C141.073 55.331 140.988 55.4706 140.85 55.5027C137.639 56.2667 135.979 56.2869 133.682 56.3148C133.121 56.3215 132.52 56.3288 131.845 56.3474H131.838Z" fill="#0751CF"/>
<path fill-rule="evenodd" clip-rule="evenodd" d="M131.322 54.568C131.191 54.568 131.079 54.4661 131.067 54.3311C131.056 54.1888 131.16 54.0637 131.301 54.0518C131.858 54.0042 132.871 53.9969 134.045 53.9876C136.06 53.9726 138.568 53.9535 139.487 53.7114C139.624 53.6757 139.764 53.7585 139.799 53.8966C139.835 54.0352 139.753 54.1759 139.616 54.2121C138.635 54.4702 136.198 54.4888 134.049 54.5049C132.886 54.5142 131.881 54.5214 131.344 54.5669C131.337 54.5675 131.329 54.568 131.322 54.568Z" fill="#0751CF"/>
<path fill-rule="evenodd" clip-rule="evenodd" d="M185.499 29.7772C185.469 29.7772 185.439 29.7721 185.409 29.7612C184.071 29.2559 183.386 28.6455 182.57 27.6462L182.486 27.6177L182.504 27.5639C182.498 27.5567 182.492 27.5495 182.487 27.5433L182.402 27.4383L182.44 27.3079C183.049 25.1851 183.883 25.0274 184.552 24.9006C184.685 24.8753 184.814 24.852 184.939 24.8091L185.132 25.287C184.075 25.8001 183.534 26.2113 183.138 27.28C184.814 27.6979 186.577 26.8139 188.246 25.8643C191.26 24.1486 196.268 20.3199 197.711 16.8006C197.764 16.6687 197.915 16.6051 198.045 16.6609C198.175 16.7152 198.237 16.8668 198.184 16.9987C196.786 20.4073 192.183 24.2174 188.497 26.3148C186.941 27.2008 185.166 28.0962 183.439 27.8629C184.02 28.4821 184.62 28.9109 185.588 29.276C185.721 29.3262 185.788 29.4752 185.738 29.6091C185.7 29.7131 185.603 29.7772 185.499 29.7772Z" fill="#0751CF"/>
<path fill-rule="evenodd" clip-rule="evenodd" d="M136.92 50.8686C136.887 50.8686 136.854 50.8624 136.822 50.849C136.692 50.7941 136.63 50.6426 136.683 50.5112C138.081 47.1031 142.684 43.2931 146.369 41.1946C147.926 40.3085 149.698 39.4122 151.428 39.647C150.847 39.0268 150.247 38.598 149.279 38.2334C149.146 38.1837 149.079 38.0347 149.129 37.9008C149.178 37.7668 149.325 37.699 149.458 37.7487C150.795 38.253 151.481 38.8634 152.297 39.8637L152.381 39.8916L152.363 39.946C152.369 39.9527 152.375 39.9599 152.38 39.9666L152.465 40.0716L152.427 40.202C151.818 42.3237 150.984 42.4815 150.315 42.6082C150.182 42.6336 150.053 42.6574 149.928 42.7003L149.735 42.2218C150.792 41.7098 151.333 41.2986 151.729 40.2299C150.054 39.8125 148.29 40.6949 146.621 41.6451C143.607 43.3608 138.599 47.191 137.156 50.7088C137.115 50.8086 137.02 50.8686 136.92 50.8686Z" fill="#0751CF"/>
<path fill-rule="evenodd" clip-rule="evenodd" d="M206.03 67.986H206.023C205.347 67.9674 204.744 67.9597 204.183 67.9535C201.887 67.925 200.228 67.9048 197.018 67.1414C196.88 67.1093 196.795 66.9697 196.827 66.831C196.859 66.6914 196.999 66.6034 197.135 66.6386C200.29 67.3881 201.925 67.4083 204.189 67.4362C204.753 67.4424 205.358 67.4502 206.037 67.4688C206.178 67.4729 206.29 67.5914 206.286 67.7347C206.282 67.8748 206.168 67.986 206.03 67.986Z" fill="#0751CF"/>
<path fill-rule="evenodd" clip-rule="evenodd" d="M206.548 66.207C206.541 66.207 206.534 66.2064 206.526 66.2059C205.989 66.1604 204.985 66.1527 203.822 66.1439C201.672 66.1273 199.235 66.1087 198.254 65.8511C198.117 65.8144 198.035 65.6737 198.071 65.5351C198.107 65.3975 198.246 65.3147 198.383 65.3499C199.303 65.592 201.811 65.6111 203.826 65.6266C204.999 65.6359 206.013 65.6432 206.569 65.6908C206.71 65.7026 206.815 65.8278 206.803 65.9701C206.792 66.1051 206.679 66.207 206.548 66.207Z" fill="#0751CF"/>
<path fill-rule="evenodd" clip-rule="evenodd" d="M200.486 63.4392C200.386 63.4392 200.291 63.3792 200.25 63.2793C198.807 59.7615 193.799 55.9313 190.785 54.2156C189.116 53.2654 187.351 52.3835 185.677 52.8004C186.073 53.8691 186.614 54.2803 187.671 54.7929L187.478 55.2713C187.353 55.2279 187.223 55.2041 187.091 55.1793C186.421 55.052 185.588 54.8937 184.979 52.7725L184.941 52.6422L185.026 52.5372C185.031 52.5304 185.037 52.5232 185.043 52.5165L185.025 52.4622L185.109 52.4342C185.925 51.4339 186.611 50.8235 187.948 50.3192C188.081 50.269 188.228 50.3373 188.277 50.4713C188.327 50.6053 188.26 50.7542 188.127 50.8039C187.159 51.1685 186.559 51.5973 185.978 52.2175C187.709 51.9837 189.48 52.8796 191.037 53.7651C194.722 55.8636 199.325 59.6736 200.723 63.0817C200.776 63.2131 200.714 63.3647 200.584 63.4195C200.552 63.4329 200.519 63.4392 200.486 63.4392Z" fill="#0751CF"/>
<path fill-rule="evenodd" clip-rule="evenodd" d="M170.439 53.0932C170.586 53.8049 170.752 54.6113 171.19 55.1652C171.677 55.7823 172.436 56.0239 173.305 56.2551C173.753 56.3746 174.412 56.6208 175.175 56.9058C177.655 57.8332 181.806 59.3834 183.053 57.9853C184.269 56.6197 182.985 53.9476 182.112 52.4766C180.392 49.5805 174.991 46.7414 172.029 47.9119C170.421 48.5486 169.871 50.3404 170.439 53.0932ZM181.357 59.0575C179.455 59.0575 176.894 58.1006 174.997 57.3915C174.247 57.1106 173.598 56.8685 173.174 56.7553C172.394 56.5478 171.423 56.2892 170.79 55.4875C170.276 54.8373 170.097 53.9668 169.938 53.1992C169.147 49.3669 170.537 47.9471 171.842 47.4309C174.565 46.3545 180.358 48.5186 182.55 52.2107C183.706 54.1576 184.797 56.7997 183.433 58.3313C182.967 58.8548 182.231 59.0575 181.357 59.0575Z" fill="#0751CF"/>
<path fill-rule="evenodd" clip-rule="evenodd" d="M24.7254 0.169922L117.209 0.170439L116.831 104.706L22.3359 104.829L24.7254 0.169922Z" fill="#EBF5FC"/>
<path fill-rule="evenodd" clip-rule="evenodd" d="M46.7338 25.4194C46.485 32.6288 46.5045 35.8486 46.5961 45.8609C46.6534 52.0834 46.4753 56.0481 46.5961 62.2695C46.7338 69.3615 46.4584 69.5006 46.5505 79.7442C59.7759 79.3231 80.1078 79.2202 93.3393 79.2812C93.2231 72.5725 92.9723 69.9175 92.6969 60.4618C92.141 41.3506 91.7192 29.6908 91.256 14.687C76.0465 14.5427 61.934 14.2815 46.7415 15.016L46.7338 25.4194Z" fill="white"/>
<path fill-rule="evenodd" clip-rule="evenodd" d="M49.2019 17.3684L49.3114 19.9634L56.4117 19.8398V17.2453L49.2019 17.3684ZM48.821 20.4895L48.668 16.8605L56.9235 16.7188V20.3483L48.821 20.4895Z" fill="#231F20"/>
<path fill-rule="evenodd" clip-rule="evenodd" d="M56.6685 20.3527C56.6383 20.3527 56.607 20.347 56.5774 20.3357L48.8444 17.3558C48.7123 17.3051 48.6463 17.1556 48.6965 17.0227C48.7471 16.8882 48.8951 16.8215 49.0271 16.8727L56.7596 19.8526C56.8916 19.9032 56.9582 20.0527 56.9075 20.1862C56.8686 20.2896 56.7714 20.3527 56.6685 20.3527Z" fill="#231F20"/>
<path fill-rule="evenodd" clip-rule="evenodd" d="M49.0686 20.486C48.9688 20.486 48.8741 20.4271 48.8326 20.3278C48.7778 20.1964 48.8388 20.0443 48.9688 19.989L56.5707 16.7448C56.7007 16.69 56.8507 16.7505 56.906 16.8824C56.9607 17.0138 56.8998 17.1658 56.7698 17.2212L49.1679 20.4659C49.1356 20.4793 49.1019 20.486 49.0686 20.486Z" fill="#231F20"/>
<path fill-rule="evenodd" clip-rule="evenodd" d="M68.3869 18.5387H65.4513C65.31 18.5387 65.1953 18.4229 65.1953 18.2801C65.1953 18.1373 65.31 18.0215 65.4513 18.0215H68.3869C68.5282 18.0215 68.6428 18.1373 68.6428 18.2801C68.6428 18.4229 68.5282 18.5387 68.3869 18.5387Z" fill="#231F20"/>
<path fill-rule="evenodd" clip-rule="evenodd" d="M72.604 18.5387H70.127C69.9858 18.5387 69.8711 18.4229 69.8711 18.2801C69.8711 18.1373 69.9858 18.0215 70.127 18.0215H72.604C72.7453 18.0215 72.86 18.1373 72.86 18.2801C72.86 18.4229 72.7453 18.5387 72.604 18.5387Z" fill="#231F20"/>
<path fill-rule="evenodd" clip-rule="evenodd" d="M77.0085 18.5387H74.6231C74.4818 18.5387 74.3672 18.4229 74.3672 18.2801C74.3672 18.1373 74.4818 18.0215 74.6231 18.0215H77.0085C77.1498 18.0215 77.2644 18.1373 77.2644 18.2801C77.2644 18.4229 77.1498 18.5387 77.0085 18.5387Z" fill="#231F20"/>
<path fill-rule="evenodd" clip-rule="evenodd" d="M80.4032 18.5387H78.3848C78.2436 18.5387 78.1289 18.4229 78.1289 18.2801C78.1289 18.1373 78.2436 18.0215 78.3848 18.0215H80.4032C80.5445 18.0215 80.6591 18.1373 80.6591 18.2801C80.6591 18.4229 80.5445 18.5387 80.4032 18.5387Z" fill="#231F20"/>
<path fill-rule="evenodd" clip-rule="evenodd" d="M84.4401 18.4469H82.3302C82.1889 18.4469 82.0742 18.3311 82.0742 18.1883C82.0742 18.0456 82.1889 17.9297 82.3302 17.9297H84.4401C84.5814 17.9297 84.6961 18.0456 84.6961 18.1883C84.6961 18.3311 84.5814 18.4469 84.4401 18.4469Z" fill="#231F20"/>
<path fill-rule="evenodd" clip-rule="evenodd" d="M88.571 18.4469H86.1856C86.0443 18.4469 85.9297 18.3311 85.9297 18.1883C85.9297 18.0456 86.0443 17.9297 86.1856 17.9297H88.571C88.7123 17.9297 88.8269 18.0456 88.8269 18.1883C88.8269 18.3311 88.7123 18.4469 88.571 18.4469Z" fill="#231F20"/>
<path fill-rule="evenodd" clip-rule="evenodd" d="M49.8832 23.1715L50.0162 38.784L89.4063 38.0971L88.8735 22.6221L49.8832 23.1715ZM49.509 39.31L49.3672 22.6615L89.3674 22.0977L89.9356 38.6056L49.509 39.31Z" fill="#231F20"/>
<path fill-rule="evenodd" clip-rule="evenodd" d="M49.7599 39.306C49.6601 39.306 49.5649 39.2465 49.5239 39.1472C49.4692 39.0153 49.5306 38.8642 49.6606 38.8089L89.0184 22.1215C89.149 22.0667 89.299 22.1288 89.3537 22.2601C89.4085 22.392 89.3471 22.5436 89.2165 22.5984L49.8587 39.2858C49.8265 39.2992 49.7927 39.306 49.7599 39.306Z" fill="#231F20"/>
<path fill-rule="evenodd" clip-rule="evenodd" d="M89.669 38.6088C89.6388 38.6088 89.6076 38.6031 89.5779 38.5917L49.5321 23.1566C49.4001 23.1059 49.3335 22.9564 49.3842 22.823C49.4343 22.689 49.5823 22.6223 49.7143 22.6735L89.7601 38.1086C89.8922 38.1593 89.9587 38.3088 89.9081 38.4422C89.8692 38.5457 89.7719 38.6088 89.669 38.6088Z" fill="#231F20"/>
<path fill-rule="evenodd" clip-rule="evenodd" d="M60.7716 43.1984C60.6329 43.1984 60.5193 43.0867 60.5157 42.946C60.5126 42.8032 60.6242 42.6848 60.7655 42.6812L77.9677 42.2637C78.1043 42.2606 78.2262 42.3729 78.2292 42.5167C78.2328 42.6589 78.1212 42.7779 77.9794 42.781L60.7778 43.1984H60.7716Z" fill="#231F20"/>
<path fill-rule="evenodd" clip-rule="evenodd" d="M57.3302 45.4229C57.1915 45.4229 57.0779 45.3107 57.0743 45.1705C57.0712 45.0272 57.1833 44.9093 57.3246 44.9056L81.6823 44.3496C81.8113 44.3584 81.9408 44.4598 81.9439 44.602C81.947 44.7448 81.8354 44.8632 81.6936 44.8669L57.3359 45.4229H57.3302Z" fill="#231F20"/>
<path fill-rule="evenodd" clip-rule="evenodd" d="M60.2208 47.2315C60.0821 47.2315 59.9685 47.1198 59.9649 46.9791C59.9618 46.8358 60.0734 46.7179 60.2147 46.7143L77.5541 46.2969C77.6902 46.3052 77.8126 46.4065 77.8162 46.5498C77.8197 46.6926 77.7076 46.811 77.5664 46.8141L60.227 47.2315H60.2208Z" fill="#231F20"/>
<path fill-rule="evenodd" clip-rule="evenodd" d="M77.8166 50.4995V58.132L88.8097 57.9271C88.4831 56.0356 88.3495 51.4476 88.3203 50.2947L77.8166 50.4995ZM77.3047 58.658V49.9926L88.8204 49.7676L88.826 50.0257C88.8271 50.0883 88.9673 56.3464 89.3697 58.1226L89.4403 58.433L77.3047 58.658Z" fill="#231F20"/>
<path fill-rule="evenodd" clip-rule="evenodd" d="M75.0823 58.7622C74.9451 58.7622 74.8315 58.652 74.8264 58.5123L74.5597 50.6129H63.9356C63.7943 50.6129 63.6797 50.4971 63.6797 50.3543C63.6797 50.2116 63.7943 50.0957 63.9356 50.0957H75.0547L75.3382 58.4947C75.3428 58.6375 75.2323 58.757 75.091 58.7622H75.0823Z" fill="#231F20"/>
<path fill-rule="evenodd" clip-rule="evenodd" d="M51.2511 50.8223L51.1221 58.6678L61.2062 58.4635L61.3351 50.618L51.2511 50.8223ZM50.6016 59.196L50.7474 50.3154L61.8562 50.0898L61.7098 58.971L50.6016 59.196Z" fill="#231F20"/>
<path fill-rule="evenodd" clip-rule="evenodd" d="M77.5609 58.6546C77.4831 58.6546 77.4063 58.6194 77.3562 58.5516C77.2712 58.4373 77.2937 58.2754 77.4068 58.1896L88.4163 49.8257C88.5294 49.7393 88.6897 49.7626 88.7746 49.8764C88.8596 49.9907 88.8366 50.1526 88.724 50.2385L77.7145 58.6023C77.6684 58.638 77.6141 58.6546 77.5609 58.6546Z" fill="#231F20"/>
<path fill-rule="evenodd" clip-rule="evenodd" d="M89.1201 58.4396C89.0704 58.4396 89.0208 58.4251 88.9762 58.3951L77.417 50.4606C77.2998 50.3804 77.2696 50.219 77.3489 50.1011C77.4288 49.9826 77.5875 49.9537 77.7047 50.0323L89.2639 57.9668C89.3811 58.047 89.4113 58.2084 89.332 58.3263C89.2823 58.4003 89.202 58.4396 89.1201 58.4396Z" fill="#231F20"/>
<path fill-rule="evenodd" clip-rule="evenodd" d="M50.8615 59.1906C50.7863 59.1906 50.7111 59.157 50.6609 59.0929C50.5728 58.9806 50.5918 58.8177 50.7029 58.7287L61.4364 50.1507C61.5475 50.0633 61.7083 50.0819 61.7963 50.1931C61.8838 50.3054 61.8649 50.4683 61.7543 50.5573L51.0202 59.1353C50.9731 59.1725 50.9173 59.1906 50.8615 59.1906Z" fill="#231F20"/>
<path fill-rule="evenodd" clip-rule="evenodd" d="M61.4569 58.9764C61.4022 58.9764 61.3474 58.9588 61.3008 58.9226L50.8421 50.7739C50.73 50.687 50.709 50.524 50.7955 50.4108C50.882 50.2985 51.0422 50.2768 51.1549 50.3647L61.6136 58.5129C61.7252 58.5998 61.7461 58.7627 61.6596 58.876C61.6095 58.9417 61.5337 58.9764 61.4569 58.9764Z" fill="#231F20"/>
<path fill-rule="evenodd" clip-rule="evenodd" d="M96.4512 34.3744C96.335 34.3744 96.2296 34.2942 96.2019 34.1742C96.1702 34.0356 96.2557 33.8965 96.3934 33.8639C100.111 32.9877 103.919 32.3313 107.712 31.9118C107.85 31.8958 107.979 31.9987 107.994 32.1409C108.009 32.2827 107.908 32.4104 107.767 32.4259C103.995 32.8434 100.207 33.4966 96.5096 34.3677C96.4901 34.3723 96.4707 34.3744 96.4512 34.3744Z" fill="#0751CF"/>
<path fill-rule="evenodd" clip-rule="evenodd" d="M96.7164 32.1062C96.5926 32.1062 96.4835 32.0146 96.4641 31.8874C96.4421 31.7462 96.5378 31.6138 96.6775 31.592C97.4218 31.4751 98.0867 31.3815 98.7066 31.2936C101.2 30.9413 103.002 30.6868 106.38 29.4108C106.513 29.3611 106.66 29.4289 106.709 29.5629C106.758 29.6968 106.691 29.8458 106.559 29.896C103.129 31.1912 101.304 31.4488 98.7778 31.8062C98.1599 31.8931 97.4976 31.9872 96.7559 32.1031C96.7431 32.1051 96.7298 32.1062 96.7164 32.1062Z" fill="#0751CF"/>
<path fill-rule="evenodd" clip-rule="evenodd" d="M95.9004 30.2175C95.7822 30.2175 95.6762 30.1348 95.6501 30.0127C95.6209 29.8736 95.709 29.736 95.8472 29.706C96.4533 29.5751 97.5686 29.4225 98.8601 29.2462C101.081 28.9431 103.844 28.5655 104.827 28.1672C104.958 28.1139 105.108 28.178 105.16 28.3105C105.213 28.4434 105.149 28.5939 105.018 28.6472C103.976 29.0693 101.295 29.4355 98.9287 29.7588C97.6475 29.9336 96.5408 30.0846 95.9542 30.2119C95.9363 30.2155 95.9183 30.2175 95.9004 30.2175Z" fill="#0751CF"/>
<path fill-rule="evenodd" clip-rule="evenodd" d="M93.3698 54.6221C92.1782 54.6221 91.3172 54.3351 90.2315 53.8132L90.1537 53.8219L90.1475 53.7718L90.1071 53.7521L89.9868 53.6932L89.9658 53.5592C89.5937 51.1504 90.3513 50.6011 90.9599 50.1593C91.0874 50.0667 91.2076 49.9798 91.3095 49.881L91.6852 50.2312C90.8473 51.2652 90.4926 51.9433 90.6021 53.2375C92.5094 52.8744 93.8858 51.1307 95.1332 49.3664C97.3707 46.2034 100.631 39.9598 100.445 35.7256C100.439 35.5823 100.548 35.4618 100.69 35.4556C100.819 35.4339 100.95 35.5595 100.956 35.7023C101.136 39.7901 98.2798 45.8072 95.5499 49.6674C94.3823 51.3174 92.9956 53.0849 91.116 53.6435C92.0231 54.0138 92.8426 54.1726 94.026 54.0769C94.1632 54.063 94.2902 54.1716 94.3014 54.3138C94.3127 54.4566 94.2078 54.5813 94.067 54.5921C93.8208 54.6123 93.5894 54.6221 93.3698 54.6221Z" fill="#0751CF"/>
<path fill-rule="evenodd" clip-rule="evenodd" d="M72.2177 8.81241C71.9305 8.81241 71.6413 8.78552 71.3485 8.72552C70.7465 8.6019 70.1574 8.34327 69.5876 8.09293C68.5639 7.64344 67.5969 7.2193 66.6878 7.61447C66.502 7.69568 66.327 7.80999 66.1422 7.93103C65.9067 8.08517 65.6641 8.24396 65.381 8.34327C64.6291 8.60603 63.8715 8.37276 63.1395 8.14879C62.9992 8.10586 62.8595 8.06292 62.7213 8.02413C61.2793 7.62016 59.7089 7.67965 58.2997 8.19275C58.1671 8.23931 58.0202 8.17103 57.9721 8.03706C57.9245 7.90258 57.9936 7.75413 58.1262 7.70551C59.6342 7.15671 61.3146 7.09205 62.8585 7.52602C63.0003 7.56533 63.1436 7.6093 63.2879 7.65378C63.9728 7.86327 64.6193 8.06189 65.2136 7.85396C65.4378 7.77585 65.6446 7.64034 65.8637 7.49706C66.0582 7.3693 66.2599 7.2374 66.4851 7.13964C67.5974 6.65498 68.7128 7.14481 69.7919 7.61861C70.337 7.8581 70.9011 8.10586 71.4504 8.21862C72.9512 8.52586 74.3716 7.86792 75.8766 7.17016C77.103 6.60171 78.371 6.01411 79.7218 5.96291C79.8672 5.96136 79.9818 6.06946 79.987 6.21222C79.9921 6.35498 79.882 6.47446 79.7407 6.48015C78.4918 6.52671 77.2709 7.09309 76.09 7.63982C74.8431 8.21862 73.5613 8.81241 72.2177 8.81241Z" fill="#0751CF"/>
<path fill-rule="evenodd" clip-rule="evenodd" d="M154.443 10.366C154.308 10.366 154.194 10.2584 154.188 10.1198C154.181 9.97699 154.29 9.85596 154.431 9.84923C155.365 9.8032 156.292 9.24354 157.188 8.70198C158.366 7.99025 159.585 7.25369 160.903 7.60697C161.377 7.7337 161.834 7.99542 162.275 8.24784C163.07 8.70198 163.756 9.09509 164.405 8.72629C164.542 8.64922 164.674 8.53646 164.814 8.41698C164.998 8.26025 165.188 8.09784 165.415 7.99439C166.031 7.71508 166.659 7.96542 167.214 8.18732C167.32 8.22974 167.426 8.27215 167.531 8.31043C168.613 8.70612 169.79 8.64715 170.848 8.14594C170.976 8.08491 171.128 8.14077 171.188 8.26956C171.248 8.39887 171.193 8.55301 171.065 8.61353C169.884 9.17474 168.567 9.23992 167.357 8.79715C167.247 8.75733 167.137 8.71284 167.025 8.66836C166.52 8.46663 166.043 8.27525 165.625 8.46612C165.463 8.54008 165.308 8.6725 165.144 8.81215C164.992 8.94198 164.835 9.07595 164.656 9.17733C163.755 9.68785 162.875 9.18561 162.024 8.69784C161.61 8.46146 161.182 8.2168 160.772 8.10715C159.661 7.80766 158.588 8.45836 157.451 9.14629C156.5 9.71992 155.518 10.3137 154.456 10.3654C154.452 10.366 154.447 10.366 154.443 10.366Z" fill="#0751CF"/>
<path fill-rule="evenodd" clip-rule="evenodd" d="M45.3906 29.1289L48.1461 32.4993L46.461 33.5705L45.3906 29.1289Z" fill="white"/>
<path fill-rule="evenodd" clip-rule="evenodd" d="M25.5859 45.831C26.5938 45.6862 27.6841 44.6186 28.8563 42.6308C30.0285 40.642 32.6647 34.8002 36.7649 25.1055L45.3793 27.4895L46.7941 32.7374C47.2604 35.4287 47.373 37.2721 47.1319 38.2683C46.8555 39.4068 46.6682 40.658 45.3793 41.2534C44.9764 41.4401 43.859 41.6108 43.2852 41.781C41.6774 42.2584 40.0352 42.0825 38.3588 41.2534L38.6911 47.8446C37.2639 47.2426 35.4647 46.7631 33.2918 46.4057C31.1193 46.0482 28.5507 45.8569 25.5859 45.831Z" fill="white"/>
<path fill-rule="evenodd" clip-rule="evenodd" d="M39.0233 38.7018C37.5316 38.5239 36.6594 38.5239 36.4071 38.7018C36.0293 38.9682 36.7684 39.9003 36.7684 40.2675C36.7684 40.6348 35.9996 40.9699 35.7268 41.4251C35.4539 41.8798 35.7268 42.0758 35.4155 42.5232C35.2077 42.8212 34.6605 43.2525 33.7734 43.8179L39.4133 45.4503L39.0233 38.7018Z" fill="#DBE3F4"/>
<path fill-rule="evenodd" clip-rule="evenodd" d="M24.6543 27.8368C25.4758 30.8865 25.3259 35.2381 26.472 36.8079C27.8627 38.7129 28.478 39.4066 29.0339 40.2854C29.4772 40.9862 29.6835 42.0838 31.6619 41.9794C32.3483 41.9426 34.3733 41.2661 34.9384 40.8104C35.8767 40.0547 36.4142 39.4893 37.3105 38.9255C37.5823 38.7543 38.2252 37.4322 39.2387 34.9593C37.8531 32.926 37.0909 31.4917 36.9527 30.6574C36.8145 29.823 38.1116 28.6841 40.8435 27.2409C42.6432 28.1973 43.9623 28.5248 44.8023 28.2232C46.0616 27.7716 48.0625 26.1816 47.8188 22.3938C47.5752 18.6055 46.9973 16.9943 43.9137 14.4148C41.8575 12.6944 40.5409 13.9777 39.9625 18.2641C34.638 17.4743 31.0671 17.9414 29.2499 19.6664C26.5237 22.2542 23.8322 24.7871 24.6543 27.8368Z" fill="#113984"/>
<path fill-rule="evenodd" clip-rule="evenodd" d="M40.6248 34.294C40.6248 31.6669 39.1618 28.3255 39.3599 27.0996C39.4331 26.647 40.1001 27.0996 40.6248 27.0996C41.5022 27.0996 41.8098 34.0384 43.4826 36.2295C44.017 36.9304 45.2998 36.2848 47.3314 34.294C47.9242 38.1283 47.4394 40.4957 45.8772 41.3963C44.3149 42.2968 42.2915 42.5694 39.8063 42.214C39.3912 42.1758 39.0835 42.0144 38.8834 41.7283C38.6837 41.4423 38.4708 40.8604 38.2461 39.9826C39.8319 38.5881 40.6248 36.6919 40.6248 34.294Z" fill="#113984"/>
<path fill-rule="evenodd" clip-rule="evenodd" d="M40.0467 104.901C40.0467 104.901 41.2905 119.112 40.0973 124.861C40.0973 124.861 39.0122 133.458 39.3275 135.584C39.6433 137.711 39.4524 145.085 37.7176 148.955C37.7176 148.955 33.663 185.972 34.8992 193.767C34.8992 193.767 32.5497 195.887 31.3125 194.271C30.0758 192.656 25.7919 169.378 25.4499 160.361C25.1085 151.344 22.5148 129.644 21.9646 127.527C21.9646 127.527 21.5433 137.936 20.6757 139.87C19.8085 141.806 12.7241 158.05 13.2288 165.161C13.2288 165.161 11.0186 186.838 11.578 189.193C11.578 189.193 8.18377 190.426 7.46151 189.979C6.73925 189.532 0.396049 157.053 7.1467 136.592C7.1467 136.592 10.4074 128.531 8.65521 125.095C9.74346 127.229 6.41011 111.409 10.5435 101.273L7.69902 104.821L40.0467 104.901Z" fill="#DBE3F4"/>
<path fill-rule="evenodd" clip-rule="evenodd" d="M30.3218 191.528C30.3218 191.528 28.0567 197.62 32.2224 197.776C36.388 197.93 47.1104 196.029 48.1822 195.039C48.1822 195.039 50.0393 192.241 47.0776 192.144C44.1153 192.049 35.243 191.815 33.3331 190.203C33.3331 190.203 31.5375 191.903 30.3218 191.528Z" fill="#DBE3F4"/>
<mask id="mask0" mask-type="alpha" maskUnits="userSpaceOnUse" x="18" y="110" width="31" height="88">
<path fill-rule="evenodd" clip-rule="evenodd" d="M18.3984 110.225H48.6593V197.791H18.3984V110.225Z" fill="white"/>
</mask>
<g mask="url(#mask0)">
<path fill-rule="evenodd" clip-rule="evenodd" d="M32.2203 197.775C30.4288 197.718 28.2748 195.878 30.3197 191.527C30.3197 191.527 24.642 166.725 24.9081 153.809C24.9081 153.809 24.1091 146.005 24.1091 143.852C24.1091 141.699 22.2991 129.129 22.2991 129.129C22.2991 129.129 16.1202 121.249 19.3159 111.023C19.9624 108.954 28.3695 111.561 28.3695 111.561C28.3695 111.561 31.2995 123.939 29.7014 127.976C28.1038 132.012 30.2342 141.162 30.7666 143.314C31.2995 145.467 30.7666 154.078 30.7666 154.078C30.7666 154.078 29.4301 193.505 32.1753 195.318C32.1753 195.318 36.0118 197.346 41.9895 196.117C41.9895 196.117 48.1162 195.069 48.6593 193.993C48.6593 193.993 48.5835 195.02 47.5987 195.353C47.5987 195.353 40.0787 198.023 32.2203 197.775Z" fill="#BEC9DE"/>
</g>
<path fill-rule="evenodd" clip-rule="evenodd" d="M11.1668 186.516C11.1668 186.516 16.3941 187.145 21.9286 187.682C21.9286 187.682 23.6014 188.747 21.5595 189.88C19.5171 191.012 17.2705 191.204 15.42 191.575C12.8632 192.087 11.2549 193.449 7.05134 192.559C7.05134 192.559 6.27942 191.575 6.91518 188.172C7.16651 186.828 9.44079 188.11 11.1668 186.516Z" fill="#DBE3F4"/>
<path fill-rule="evenodd" clip-rule="evenodd" d="M19.05 111.829C19.5823 112.637 19.5823 122.324 17.7186 126.899C15.8543 131.473 12.3925 137.931 11.0611 144.389C9.72968 150.848 8.39778 185.292 8.93064 186.907L6.91333 188.172C6.91333 188.172 -0.656331 159.997 8.39778 132.012C8.39778 132.012 9.72968 128.513 9.19682 126.899C8.66395 125.284 7.33256 113.713 8.39778 110.215L19.05 111.829Z" fill="#BEC9DE"/>
<path fill-rule="evenodd" clip-rule="evenodd" d="M68.2436 35.0687L70.7359 31.9316L69.3784 30.7988L66.582 33.9887" fill="#899CB8"/>
<path fill-rule="evenodd" clip-rule="evenodd" d="M68.4047 44.4105C68.4047 44.4105 70.2967 41.8237 71.2139 39.778C71.2139 39.778 73.5266 35.1642 68.502 33.8504C68.502 33.8504 66.993 32.9395 65.0821 35.0246C65.0821 35.0246 61.9674 34.8751 62.4736 38.8594C62.7905 41.3505 62.6067 42.3731 62.6067 42.3731L62.664 43.8788L68.4047 44.4105Z" fill="#DBE3F4"/>
<path fill-rule="evenodd" clip-rule="evenodd" d="M64.7383 44.0704L68.4013 44.4097C68.4013 44.4097 70.2937 41.823 71.211 39.7772C71.211 39.7772 73.5231 35.1634 68.4991 33.8496C68.4991 33.8496 70.3039 35.5395 68.9091 38.1071L64.7383 44.0704Z" fill="#BEC9DE"/>
<path fill-rule="evenodd" clip-rule="evenodd" d="M64.7578 35.8437L58.8906 42.767L60.9346 44.1956L66.4055 37.1259C66.4055 37.1259 66.7065 34.7626 64.7578 35.8437Z" fill="#899CB8"/>
<path fill-rule="evenodd" clip-rule="evenodd" d="M68.2344 45.0871C68.2497 45.489 67.6933 49.6285 66.7924 53.5529C65.6263 58.6322 63.2446 64.1067 62.9502 64.774C62.1348 66.6185 60.5137 69.3475 57.9441 69.8932C55.3749 70.4384 56.1566 70.3215 52.5115 69.8533C48.8664 69.3858 43.6698 63.6004 43.4968 66.1478C43.2695 69.4964 41.1304 73.0504 40.8299 75.8524C40.7122 76.9515 40.9942 78.0957 40.9313 78.5348C40.7332 79.9195 40.9041 81.1495 40.6344 82.7829C40.3718 84.3771 39.6674 86.383 39.5477 87.1718C38.7839 92.1942 41.7943 109.384 41.6612 109.879C41.4442 110.684 36.9816 110.747 31.1549 112.098C25.3277 113.448 25.3103 110.041 22.6516 111.425C19.9934 112.81 17.2001 110.785 14.8449 111.484C12.4898 112.183 11.36 110.658 9.46251 111.154C7.56497 111.649 7.50099 111.139 6.99986 110.3C6.74085 109.866 7.86596 102.423 8.06712 99.5246C8.25498 96.8153 8.86975 92.8134 9.2424 88.3444C9.3371 87.2106 10.065 85.0666 9.91552 82.5791C9.88736 82.1053 9.94879 80.1098 9.65856 79.3081C9.5613 79.0401 9.30894 79.05 8.90149 79.3376C3.12391 79.8021 0.165255 78.195 0.0260245 74.5163C-0.183334 68.9989 12.371 48.2899 17.0552 46.5525C21.7394 44.8155 25.1772 44.2792 28.5878 44.3428C35.3277 44.468 43.1288 46.0233 46.7933 48.1347C48.4431 49.0849 49.9035 51.7746 51.2937 53.5689C51.672 54.0577 53.074 54.5253 54.1039 55.0824C55.3278 55.7444 56.1863 56.4696 56.4146 56.6072C56.8343 56.8622 56.8527 55.9322 57.9128 53.3129C58.9729 50.6946 62.5494 43.5157 62.8683 43.3093C63.1867 43.1029 64.3635 43.2938 66.0701 43.8597C67.7762 44.425 68.2006 44.1974 68.2344 45.0871Z" fill="#0751CF"/>
<path fill-rule="evenodd" clip-rule="evenodd" d="M68.2325 45.0868C68.2479 45.4887 67.6915 49.6282 66.7906 53.5526C65.6245 58.6319 63.2427 64.1064 62.9484 64.7737C62.133 66.6182 60.5119 69.3472 57.9422 69.8929C57.8107 69.9208 57.2788 70.0884 56.3339 70.242C56.2397 70.2575 54.2332 70.2932 51.6262 69.6187C51.0257 69.4636 50.195 69.0673 49.1328 68.4317C51.6124 69.0161 53.2657 69.3451 54.0939 69.4196C55.8922 69.5805 56.8028 69.1579 56.9861 68.9892C58.1716 67.8984 59.2921 66.8923 59.806 66.1459C61.8167 63.2245 62.8506 59.803 63.5192 57.6517C63.9573 56.2422 64.0971 54.9574 64.4196 53.6446C64.8014 52.0867 65.3711 50.4956 66.0356 48.7055C66.2854 48.031 66.0207 46.9861 66.1569 46.1999C66.25 45.6625 66.2203 44.882 66.0683 43.8594C67.7744 44.4247 68.1988 44.1971 68.2325 45.0868Z" fill="#0C47B0"/>
<path fill-rule="evenodd" clip-rule="evenodd" d="M69.6406 31.0775L70.6577 29.7812L71.7424 30.2778L70.4873 31.7401L69.6406 31.0775Z" fill="#0751CF"/>
<mask id="mask1" mask-type="alpha" maskUnits="userSpaceOnUse" x="0" y="44" width="29" height="69">
<path fill-rule="evenodd" clip-rule="evenodd" d="M0 44.3398H28.5868V112.478H0V44.3398Z" fill="white"/>
</mask>
<g mask="url(#mask1)">
<path fill-rule="evenodd" clip-rule="evenodd" d="M27.7945 111.485C27.7945 111.485 25.4133 100.366 24.8231 94.814C24.2329 89.2608 24.3506 86.5168 24.8231 84.0113C25.2955 81.5058 26.737 72.6329 26.134 70.3876C25.5315 68.1427 24.5385 59.1509 24.5026 55.5716C24.4663 51.9922 26.802 44.3401 28.5869 44.3401C28.5869 44.3401 20.2105 44.2604 16.3935 46.8875C16.3935 46.8875 12.561 49.2322 6.02689 60.2464C6.02689 60.2464 -0.447348 71.1458 0.0246036 74.5142C0.0246036 74.5142 -0.652612 80.928 9.30906 79.0173C9.30906 79.0173 9.79892 79.3023 9.84858 80.4413C9.89772 81.5808 9.80865 84.6708 9.49129 86.8955C9.17392 89.1207 8.73012 93.3445 8.73012 93.3445C8.73012 93.3445 8.26227 97.7783 8.02629 100.019C7.79082 102.259 7.37825 105.685 7.37825 105.685C7.37825 105.685 5.20174 112.742 9.4616 111.151C9.4616 111.151 11.051 110.747 11.8731 111.362C12.6956 111.977 14.844 111.482 14.844 111.482C14.844 111.482 16.6525 111.006 18.1942 111.626C19.736 112.246 21.5051 111.917 22.0779 111.67C22.6507 111.423 23.9432 110.564 25.725 111.751C25.725 111.751 27.5171 112.724 28.5634 112.418L27.7945 111.485Z" fill="#0C47B0"/>
</g>
<path fill-rule="evenodd" clip-rule="evenodd" d="M9.7142 79.2443L9.68144 78.3769C10.3474 77.2028 10.7436 76.3338 10.87 75.7705C11.6558 72.2724 12.0156 70.2422 12.5925 68.5477C13.7365 65.1897 15.6796 62.4545 15.7528 61.6487C15.8015 61.1112 14.8565 61.5457 12.9186 62.9516C11.708 62.363 10.8588 62.2507 10.3715 62.6154C9.64049 63.1611 10.4493 66.2553 9.82835 67.8996C9.20744 69.5444 8.28248 69.1192 7.42457 70.4217C6.56666 71.7246 6.40849 73.205 6.16484 73.462C6.00257 73.6338 4.22123 74.1919 0.820312 75.1379C0.821336 76.8366 1.05475 77.8804 1.52005 78.2693C2.7117 79.2671 4.9783 79.4274 6.06758 79.385C6.65931 79.3628 7.16505 79.4176 7.58376 79.4109C7.98149 79.4047 8.40328 79.3881 8.84862 79.3623C9.03596 79.1497 9.18953 79.0359 9.30828 79.0193C9.42755 79.0033 9.56269 79.0783 9.7142 79.2443Z" fill="#003F7E"/>
<path fill-rule="evenodd" clip-rule="evenodd" d="M133.112 108.515C133.112 108.515 131.917 122.172 133.064 127.699C133.064 127.699 134.107 135.962 133.803 138.005C133.5 140.049 133.684 147.136 135.351 150.855C135.351 150.855 139.247 186.433 138.06 193.924C138.06 193.924 140.318 195.961 141.507 194.408C142.696 192.856 146.813 170.484 147.141 161.817C147.469 153.151 149.962 132.296 150.491 130.261C150.491 130.261 150.896 140.265 151.729 142.125C152.563 143.984 159.372 159.597 158.887 166.43C158.887 166.43 161.011 187.264 160.473 189.528C160.473 189.528 163.735 190.713 164.43 190.283C165.124 189.853 171.22 158.638 164.732 138.973C164.732 138.973 161.598 131.226 163.282 127.923C162.237 129.974 165.44 114.77 161.468 105.029L164.201 108.439L133.112 108.515Z" fill="#DBE3F4"/>
<path fill-rule="evenodd" clip-rule="evenodd" d="M142.464 191.772C142.464 191.772 144.641 197.626 140.638 197.775C136.634 197.924 126.328 196.097 125.299 195.146C125.299 195.146 123.514 192.456 126.36 192.364C129.207 192.271 137.734 192.047 139.57 190.498C139.57 190.498 141.295 192.131 142.464 191.772Z" fill="#DBE3F4"/>
<mask id="mask2" mask-type="alpha" maskUnits="userSpaceOnUse" x="124" y="113" width="30" height="85">
<path fill-rule="evenodd" clip-rule="evenodd" d="M124.84 113.633H153.923V197.792H124.84V113.633Z" fill="white"/>
</mask>
<g mask="url(#mask2)">
<path fill-rule="evenodd" clip-rule="evenodd" d="M140.639 197.776C142.361 197.722 144.431 195.954 142.465 191.772C142.465 191.772 147.922 167.935 147.667 155.521C147.667 155.521 148.434 148.021 148.434 145.952C148.434 143.883 150.174 131.802 150.174 131.802C150.174 131.802 156.113 124.228 153.041 114.4C152.42 112.411 144.34 114.917 144.34 114.917C144.34 114.917 141.524 126.814 143.06 130.693C144.595 134.573 142.548 143.366 142.036 145.435C141.524 147.504 142.036 155.78 142.036 155.78C142.036 155.78 143.32 193.672 140.682 195.415C140.682 195.415 136.995 197.364 131.25 196.183C131.25 196.183 125.361 195.176 124.84 194.142C124.84 194.142 124.913 195.129 125.859 195.449C125.859 195.449 133.086 198.015 140.639 197.776Z" fill="#BEC9DE"/>
</g>
<path fill-rule="evenodd" clip-rule="evenodd" d="M160.873 186.955C160.873 186.955 155.85 187.56 150.53 188.076C150.53 188.076 148.923 189.1 150.885 190.188C152.848 191.276 155.007 191.462 156.786 191.818C159.243 192.31 160.788 193.619 164.829 192.763C164.829 192.763 165.57 191.818 164.96 188.548C164.718 187.255 162.532 188.488 160.873 186.955Z" fill="#DBE3F4"/>
<path fill-rule="evenodd" clip-rule="evenodd" d="M153.294 115.175C152.783 115.951 152.783 125.261 154.574 129.658C156.366 134.054 159.693 140.261 160.973 146.468C162.252 152.675 163.532 185.779 163.02 187.331L164.959 188.547C164.959 188.547 172.234 161.468 163.532 134.572C163.532 134.572 162.252 131.209 162.764 129.658C163.276 128.106 164.556 116.985 163.532 113.623L153.294 115.175Z" fill="#BEC9DE"/>
<path fill-rule="evenodd" clip-rule="evenodd" d="M106.013 41.4007L103.617 38.3852L104.922 37.2969L107.61 40.3626" fill="#899CB8"/>
<path fill-rule="evenodd" clip-rule="evenodd" d="M105.863 50.3784C105.863 50.3784 104.045 47.8925 103.163 45.926C103.163 45.926 100.94 41.4916 105.769 40.2295C105.769 40.2295 107.22 39.3538 109.056 41.3577C109.056 41.3577 112.05 41.2144 111.563 45.0436C111.259 47.4368 111.435 48.4201 111.435 48.4201L111.381 49.8674L105.863 50.3784Z" fill="#DBE3F4"/>
<path fill-rule="evenodd" clip-rule="evenodd" d="M109.384 50.051L105.863 50.3774C105.863 50.3774 104.045 47.8915 103.163 45.9244C103.163 45.9244 100.94 41.4906 105.769 40.2285C105.769 40.2285 104.035 41.8522 105.375 44.3194L109.384 50.051Z" fill="#BEC9DE"/>
<path fill-rule="evenodd" clip-rule="evenodd" d="M109.369 42.1452L115.008 48.799L113.044 50.1723L107.786 43.3778C107.786 43.3778 107.496 41.106 109.369 42.1452Z" fill="#899CB8"/>
<path fill-rule="evenodd" clip-rule="evenodd" d="M148.057 53.4313C147.094 53.2539 146.086 52.1889 145.032 50.2353C143.979 48.2821 141.66 42.5743 138.075 33.1113L129.204 35.0603L128.166 40.0683C127.619 42.6354 127.444 44.4023 127.64 45.3675C127.864 46.4713 127.998 47.6801 129.214 48.2997C129.595 48.4932 130.661 48.699 131.207 48.8842C132.733 49.4025 133.804 49.2944 135.445 48.5604L134.896 53.0977C136.289 52.5727 138.536 53.9594 140.635 53.6967C142.735 53.4339 145.209 53.3455 148.057 53.4313Z" fill="#DBE3F4"/>
<path fill-rule="evenodd" clip-rule="evenodd" d="M106.028 51.0284C106.013 51.4148 106.548 55.3929 107.414 59.1646C108.534 64.0459 110.823 69.3078 111.106 69.9487C111.89 71.7218 113.448 74.3453 115.918 74.8693C118.387 75.3927 117.636 75.281 121.139 74.8315C124.642 74.381 129.636 68.8206 129.803 71.2698C130.021 74.4881 132.077 77.9039 132.366 80.5962C132.479 81.6524 132.208 82.7526 132.268 83.1742C132.459 84.5056 132.295 85.6875 132.554 87.2578C132.806 88.7899 133.483 90.7172 133.598 91.4754C134.332 96.3024 131.439 112.824 131.567 113.3C131.776 114.073 136.065 114.134 141.665 115.432C147.265 116.729 147.282 113.455 149.837 114.786C152.392 116.116 155.076 114.17 157.34 114.842C159.603 115.513 160.689 114.048 162.513 114.524C164.336 115.001 164.398 114.51 164.88 113.704C165.129 113.287 164.047 106.133 163.854 103.348C163.673 100.744 163.083 96.8972 162.724 92.6025C162.633 91.5132 161.934 89.452 162.077 87.0618C162.104 86.6061 162.046 84.6881 162.325 83.918C162.418 83.6604 162.66 83.6697 163.052 83.9459C168.605 84.3923 171.448 82.8483 171.582 79.3129C171.783 74.0101 159.718 54.1065 155.216 52.4368C150.713 50.7672 147.41 50.252 144.131 50.3125C137.654 50.4335 130.157 51.9279 126.634 53.9575C125.049 54.871 123.645 57.4557 122.309 59.1807C121.946 59.6498 120.598 60.0993 119.608 60.6347C118.432 61.2714 117.607 61.9676 117.388 62.1005C116.984 62.3452 116.966 61.4509 115.947 58.9345C114.929 56.4176 111.491 49.518 111.185 49.3199C110.879 49.1213 109.748 49.3054 108.108 49.8485C106.468 50.3922 106.06 50.1739 106.028 51.0284Z" fill="#0751CF"/>
<path fill-rule="evenodd" clip-rule="evenodd" d="M106.028 51.0275C106.013 51.4139 106.548 55.392 107.414 59.1638C108.534 64.045 110.823 69.307 111.106 69.9478C111.89 71.7209 113.448 74.3444 115.918 74.8684C116.044 74.8953 116.555 75.0561 117.464 75.2041C117.554 75.2191 119.482 75.2532 121.988 74.6046C122.565 74.4556 123.363 74.0755 124.385 73.4635C122.001 74.0258 120.412 74.3418 119.616 74.4132C117.888 74.5684 117.013 74.1623 116.837 73.9999C115.698 72.951 114.621 71.9853 114.127 71.2673C112.194 68.4597 111.2 65.1716 110.558 63.1036C110.136 61.7495 110.002 60.5143 109.693 59.2522C109.326 57.7553 108.778 56.2263 108.139 54.5055C107.899 53.8579 108.153 52.8529 108.022 52.0977C107.933 51.5809 107.962 50.8309 108.108 49.8477C106.468 50.3913 106.06 50.173 106.028 51.0275Z" fill="#0C47B0"/>
<path fill-rule="evenodd" clip-rule="evenodd" d="M104.676 37.5639L103.699 36.3184L102.656 36.7958L103.862 38.2006L104.676 37.5639Z" fill="#0751CF"/>
<path fill-rule="evenodd" clip-rule="evenodd" d="M129.32 36.3598C128.474 33.9117 129.732 29.9915 129.732 29.9915C131.452 25.1407 140.696 22.2209 145.861 27.8558C151.027 33.4901 145.372 40.7771 144.261 43.0638C143.15 45.35 145.032 50.2354 145.032 50.2354" fill="#DBE3F4"/>
<path fill-rule="evenodd" clip-rule="evenodd" d="M134.03 41.7937C134.125 39.27 135.652 36.1153 135.506 34.9308C135.452 34.4938 134.795 34.9039 134.291 34.8843C133.449 34.8512 132.901 41.504 131.215 43.5466C130.676 44.1994 129.807 43.545 127.928 41.5573C127.219 45.2178 127.26 47.4963 128.727 48.4196C130.194 49.3423 132.128 49.6791 134.528 49.4303C134.928 49.4096 135.229 49.2647 135.432 48.9984C135.634 48.731 135.605 47.2827 135.854 46.4478C134.381 45.0502 133.943 44.0964 134.03 41.7937Z" fill="#113984"/>
<path fill-rule="evenodd" clip-rule="evenodd" d="M130.112 36.1562L126.895 39.2732L129.027 40.8766L130.112 36.1562Z" fill="#DBE3F4"/>
<path fill-rule="evenodd" clip-rule="evenodd" d="M144.891 114.845C144.891 114.845 147.179 104.159 147.746 98.8221C148.314 93.4857 148.2 90.8483 147.746 88.4405C147.292 86.0322 145.907 77.5049 146.486 75.3469C147.066 73.1895 148.02 64.5479 148.055 61.1072C148.089 57.6675 145.844 50.3128 144.129 50.3128C144.129 50.3128 152.18 50.2362 155.848 52.7614C155.848 52.7614 159.532 55.0145 165.811 65.6005C165.811 65.6005 172.033 76.0752 171.58 79.3132C171.58 79.3132 172.231 85.4772 162.657 83.641C162.657 83.641 162.186 83.9146 162.138 85.0091C162.091 86.1046 162.177 89.0741 162.481 91.2129C162.786 93.3507 163.213 97.4106 163.213 97.4106C163.213 97.4106 163.663 101.672 163.889 103.824C164.116 105.978 164.512 109.271 164.512 109.271C164.512 109.271 166.604 116.053 162.51 114.525C162.51 114.525 160.983 114.136 160.192 114.726C159.402 115.318 157.337 114.842 157.337 114.842C157.337 114.842 155.599 114.385 154.117 114.98C152.635 115.576 150.935 115.261 150.385 115.023C149.834 114.786 148.592 113.959 146.88 115.101C146.88 115.101 145.157 116.037 144.151 115.741L144.891 114.845Z" fill="#0C47B0"/>
<path fill-rule="evenodd" clip-rule="evenodd" d="M162.266 83.8555L162.298 83.0222C161.658 81.893 161.277 81.0582 161.156 80.5166C160.4 77.1545 160.055 75.203 159.5 73.5747C158.401 70.3481 156.533 67.7195 156.463 66.9446C156.416 66.4284 157.324 66.8453 159.186 68.1969C160.35 67.631 161.166 67.5234 161.635 67.8736C162.337 68.3981 161.56 71.3717 162.157 72.9524C162.754 74.5331 163.642 74.1245 164.467 75.3757C165.291 76.628 165.443 78.0509 165.678 78.2982C165.833 78.4632 167.545 78.9995 170.814 79.9083C170.813 81.5408 170.588 82.5448 170.142 82.9182C168.996 83.8772 166.818 84.0313 165.771 83.991C165.202 83.9687 164.716 84.022 164.314 84.0158C163.931 84.0096 163.526 83.9941 163.098 83.9687C162.918 83.7644 162.771 83.6548 162.656 83.6392C162.542 83.6242 162.412 83.6956 162.266 83.8555Z" fill="#003F7E"/>
<path fill-rule="evenodd" clip-rule="evenodd" d="M138.27 191.131C138.27 191.131 139.973 192.028 142.464 191.772L143.092 188.903C143.092 188.903 140.135 189.471 138.27 187.883V191.131Z" fill="#0C47B0"/>
<path fill-rule="evenodd" clip-rule="evenodd" d="M160.546 187.04L160.375 183.861C160.375 183.861 162.637 186.141 165.572 185.676L164.961 188.548C164.961 188.548 161.497 188.75 160.546 187.04Z" fill="#0C47B0"/>
<path fill-rule="evenodd" clip-rule="evenodd" d="M162.812 188.398C162.812 188.398 162.615 189.818 161.444 189.85C160.273 189.882 155.848 189.452 155.848 189.452C155.848 189.452 150.217 188.732 150.883 190.188C150.883 190.188 153.312 191.157 156.383 191.741C156.784 191.817 158.681 192.374 159.346 192.56C160.011 192.745 163.528 193.279 165.018 192.72C165.018 192.72 165.514 190.309 164.957 188.547C164.957 188.547 164.01 188.593 162.812 188.398Z" fill="#BEC9DE"/>
<path fill-rule="evenodd" clip-rule="evenodd" d="M162.812 188.399C162.812 188.399 163.184 185.938 163.211 185.506C163.211 185.506 164.715 185.925 165.633 185.573L164.958 188.548C164.958 188.548 164.352 188.685 162.812 188.399Z" fill="#053A86"/>
<path fill-rule="evenodd" clip-rule="evenodd" d="M141.969 189C141.969 189 141.724 191.651 141.703 191.816L142.463 191.771L143.091 188.902L141.969 189Z" fill="#053A86"/>
<path fill-rule="evenodd" clip-rule="evenodd" d="M34.5131 191.105C34.5131 191.105 32.7481 192.034 30.1662 191.769L29.5156 188.796C29.5156 188.796 32.5802 189.385 34.5131 187.738V191.105Z" fill="#0C47B0"/>
<path fill-rule="evenodd" clip-rule="evenodd" d="M11.4271 186.866L11.6042 183.572C11.6042 183.572 9.25982 185.934 6.21875 185.452L6.85194 188.428C6.85194 188.428 10.4417 188.638 11.4271 186.866Z" fill="#0C47B0"/>
<path fill-rule="evenodd" clip-rule="evenodd" d="M9.07517 188.274C9.07517 188.274 8.69075 185.724 8.6626 185.275C8.6626 185.275 7.10341 185.71 6.15234 185.345L6.85208 188.428C6.85208 188.428 7.48016 188.571 9.07517 188.274Z" fill="#053A86"/>
<path fill-rule="evenodd" clip-rule="evenodd" d="M30.6781 188.898C30.6781 188.898 30.932 191.646 30.9535 191.817L30.1657 191.771L29.5156 188.797L30.6781 188.898Z" fill="#053A86"/>
</svg>
