<?xml version="1.0" encoding="UTF-8"?>
<svg width="347px" height="345px" viewBox="0 0 347 345" version="1.1" xmlns="http://www.w3.org/2000/svg" xmlns:xlink="http://www.w3.org/1999/xlink">
    <!-- Generator: Sketch 54.1 (76490) - https://sketchapp.com -->
    <title>Group 16</title>
    <desc>Created with Sketch.</desc>
    <g id="Page-1" stroke="none" stroke-width="1" fill="none" fill-rule="evenodd">
        <g id="Approach---Process-Copy-13" transform="translate(-508.000000, -4311.000000)" stroke="#DBDFE7">
            <g id="Group-16" transform="translate(465.123240, 4276.722443)">
                <path d="M142.803711,19 C169.130405,53.2346939 206.96407,74.0848852 256.304707,81.550574" id="Path-11" transform="translate(199.554209, 50.275287) scale(-1, 1) rotate(-202.000000) translate(-199.554209, -50.275287) "></path>
                <path d="M297.356692,143.062382 C336.409848,133.417739 369.770878,112.716273 397.439783,80.9579818" id="Path-12" transform="translate(347.398238, 112.010182) scale(-1, 1) rotate(-202.000000) translate(-347.398238, -112.010182) "></path>
                <path d="M364.556598,337.536997 C379.699601,297.638145 378.16244,254.720607 359.945114,208.784382" id="Path-13" transform="translate(367.406168, 273.160689) scale(-1, 1) rotate(-202.000000) translate(-367.406168, -273.160689) "></path>
                <path d="M287.013498,387.587293 C248.667212,345.892522 199.586743,327.470328 139.772091,332.320711" id="Path-14" transform="translate(213.392795, 359.574915) scale(-1, 1) rotate(-202.000000) translate(-213.392795, -359.574915) "></path>
                <path d="M255.941549,105.468465 C229.391855,71.2814748 193.118493,49.5669977 147.121463,40.3250334" id="Path-16" transform="translate(201.531506, 72.896749) scale(-1, 1) rotate(-202.000000) translate(-201.531506, -72.896749) "></path>
                <path d="M360.563988,181.832971 C276.832171,121.664094 194.315637,119.788902 113.014385,176.207397" id="Path-17" transform="translate(236.789187, 158.543825) scale(-1, 1) rotate(-202.000000) translate(-236.789187, -158.543825) "></path>
                <path d="M328.638254,148.161454 C190.680825,129.481097 105.444805,176.727781 72.9301952,289.901505" id="Path-18" transform="translate(200.784225, 217.046583) scale(-1, 1) rotate(-202.000000) translate(-200.784225, -217.046583) "></path>
                <path d="M135.395334,97.7089679 C47.9328149,145.428483 18.7786418,217.038624 47.9328149,312.539389" id="Path-19" transform="translate(86.197667, 205.124178) scale(-1, 1) rotate(-202.000000) translate(-86.197667, -205.124178) "></path>
                <polyline id="Path-4" transform="translate(88.156459, 93.775912) scale(-1, 1) rotate(-229.000000) translate(-88.156459, -93.775912) " points="81.6936489 90.5548679 88.1506515 97.0085654 94.6192687 90.5432592"></polyline>
                <polyline id="Path-4" transform="translate(260.037378, 41.440712) scale(-1, 1) rotate(-289.000000) translate(-260.037378, -41.440712) " points="253.574568 38.2196679 260.031571 44.6733653 266.500188 38.2080592"></polyline>
                <polyline id="Path-4" transform="translate(380.360314, 155.061403) scale(-1, 1) rotate(-339.000000) translate(-380.360314, -155.061403) " points="373.897505 151.840358 380.354507 158.294056 386.823124 151.82875"></polyline>
                <polyline id="Path-4" transform="translate(340.056459, 326.675912) scale(-1, 1) rotate(-409.000000) translate(-340.056459, -326.675912) " points="333.593649 323.454868 340.050652 329.908565 346.519269 323.443259"></polyline>
                <polyline id="Path-4" transform="translate(139.190768, 359.545415) scale(-1, 1) rotate(-479.000000) translate(-139.190768, -359.545415) " points="132.727958 356.32437 139.184961 362.778068 145.653578 356.312762"></polyline>
                <polyline id="Path-4" transform="translate(109.027242, 105.649424) scale(-1, 1) rotate(-186.100000) translate(-109.027242, -105.649424) " points="102.564432 102.428379 109.021434 108.882077 115.490052 102.416771"></polyline>
                <polyline id="Path-4" transform="translate(131.243968, 99.865299) scale(-1, 1) rotate(-146.099998) translate(-131.243968, -99.865299) " points="124.781158 96.6442546 131.238161 103.097952 137.706778 96.6326459"></polyline>
                <polyline id="Path-4" transform="translate(142.717035, 83.652150) scale(-1, 1) rotate(-106.099998) translate(-142.717035, -83.652150) " points="136.254225 80.4311052 142.711227 86.8848027 149.179845 80.4194965"></polyline>
            </g>
        </g>
    </g>
</svg>