<svg xmlns="http://www.w3.org/2000/svg" viewBox="0 0 200 135"><g fill="none" fill-rule="nonzero"><path fill="#FFF" d="M195.29 0H4.71C1.54 0 0 1.53 0 4.66v125.68c0 3.13 1.54 4.66 4.71 4.66h190.58c3.17 0 4.71-1.53 4.71-4.66V4.66c0-3.13-1.54-4.66-4.71-4.66zM4.71 1.4h190.58c2.37 0 3.3.92 3.3 3.26v17.61H178a.7.7 0 000 1.4h20.55v20.86H70.9a.7.7 0 000 1.4h127.69V66.8h-92.2a.7.7 0 000 1.4h92.2v20.87H1.41V68.18h89.68a.7.7 0 000-1.4H1.41V45.92h54a.7.7 0 000-1.4h-54V23.65H163a.7.7 0 000-1.4H1.41V4.66c0-2.34.93-3.26 3.3-3.26zm190.58 132.2H4.71c-2.37 0-3.3-.92-3.3-3.26v-17.62H20a.7.7 0 000-1.4H1.41V90.45h197.18v20.86h-56.14a.7.7 0 000 1.4h56.14v17.61c0 2.36-.93 3.28-3.3 3.28z"/><path fill="#FFF" d="M127 111.33H34.9a.7.7 0 000 1.4H127a.7.7 0 000-1.4z"/><path fill="#FFF" d="M27 104.73a.69.69 0 01-.7-.67c-.05-1.11-.09-2.35-.11-3.7-.1-8.4.62-20.72 4.6-31.67C35.65 55.46 44 47.57 55.6 45.25a.703.703 0 11.27 1.38c-11.09 2.22-19.07 9.8-23.71 22.54-3.91 10.75-4.62 22.89-4.52 31.18 0 1.33.06 2.56.1 3.65a.69.69 0 01-.67.73H27zM95.73 61.88a.72.72 0 01-.62-.35c-6.46-11.44-16.77-14.8-24.28-15.6a.7.7 0 01-.63-.77.69.69 0 01.78-.62c7.84.83 18.61 4.34 25.36 16.3a.69.69 0 01-.27.95.72.72 0 01-.34.09zM127.22 112.64a.47.47 0 01-.16 0c-19.26-4.44-25.72-25.26-27.86-37.27a.71.71 0 01.57-.82.72.72 0 01.82.57c2.08 11.68 8.32 31.9 26.79 36.14a.7.7 0 01.53.84.71.71 0 01-.69.54zM142.45 112.22a.701.701 0 01-.23-1.37c10.78-3.65 18.64-15.57 23.24-35.45 3.85-16.62 4.41-34.78 4.4-44.12v-.69a.7.7 0 011.4-.01v.7c0 21.42-2.74 72.18-28.59 80.9a.623.623 0 01-.22.04z"/><path fill="#FFF" d="M27.45 119.57a8.12 8.12 0 118.15-8.12 8.14 8.14 0 01-8.15 8.12zm0-14.84a6.73 6.73 0 106.76 6.72 6.74 6.74 0 00-6.76-6.72zM63.19 53.13A8.12 8.12 0 1171.34 45a8.14 8.14 0 01-8.15 8.13zm0-14.84A6.73 6.73 0 1070 45a6.75 6.75 0 00-6.81-6.71zM98.93 76a8.12 8.12 0 118.15-8.12A8.15 8.15 0 0198.93 76zm0-14.85a6.73 6.73 0 106.76 6.73 6.76 6.76 0 00-6.76-6.73zM134.68 119.57a8.15 8.15 0 01-8.14-7.59v-.53a8.16 8.16 0 118.16 8.12h-.02zm0-14.84a6.74 6.74 0 00-6.76 6.72v.44a6.76 6.76 0 106.75-7.16h.01zM170.42 31.08a8.2 8.2 0 11.36 0h-.36zm0-14.84a6.73 6.73 0 000 13.46h.3a6.73 6.73 0 00-.3-13.45v-.01z"/><path fill="#FFF" d="M27.34 114l-3-3a.707.707 0 011-1l2 2 2.15-2.15a.71.71 0 011 0 .69.69 0 010 1L27.34 114zM60.61 47a.7.7 0 01-.5-.21.69.69 0 010-1l3.14-3.12 3 3a.69.69 0 010 1 .71.71 0 01-1 0l-2-2-2.15 2.15a.7.7 0 01-.49.18zM167.83 25a.7.7 0 01-.49-1.19l3.14-3.12 3 3a.68.68 0 010 1 .69.69 0 01-1 0l-2-2-2.15 2.14a.7.7 0 01-.5.17z"/><path fill="#FFF" d="M98.87 70.87l-3-3a.707.707 0 111-1l2 2 2.13-2.12a.707.707 0 111 1l-3.13 3.12z"/><path fill="#FFF" d="M136.66 112.15h-4a.7.7 0 010-1.39h4a.7.7 0 010 1.39z"/><path fill="#FFF" d="M31.3 128.24h-7.88a.7.7 0 010-1.4h7.88a.7.7 0 010 1.4zM67.13 128.24h-7.88a.7.7 0 010-1.4h7.88a.7.7 0 010 1.4zM102.87 128.24H95a.7.7 0 010-1.4h7.88a.7.7 0 010 1.4h-.01zM138.62 128.24h-7.88a.7.7 0 010-1.4h7.88a.7.7 0 010 1.4zM174.36 128.24h-7.88a.7.7 0 010-1.4h7.88a.7.7 0 010 1.4z"/></g></svg>