<svg xmlns="http://www.w3.org/2000/svg" viewBox="0 0 200 135"><g fill="none" fill-rule="nonzero"><path fill="#fff" d="M167.473 50.883h-49.294V14.314h49.294v36.57zm-47.9-1.39h46.497v-33.75h-46.498v33.75zM101.224 90.251H76.617a.696.696 0 110-1.39H99.83V55.589H53.333v26.137a.696.696 0 01-.696.694.697.697 0 01-.707-.694V54.189h49.294V90.25z"/><path fill="#fff" d="M102.299 21.024h-46.13a.696.696 0 01-.686-.695c0-.378.307-.685.686-.685h46.13c.38 0 .69.306.696.685a.706.706 0 01-.696.695zM89.91 26.613H56.17a.687.687 0 01-.595-1.028.687.687 0 01.594-.342H89.91a.686.686 0 110 1.37zM96.985 33.274H56.19a.686.686 0 110-1.37h40.796a.686.686 0 110 1.37zM82.12 39.646H56.17a.695.695 0 010-1.38h25.95a.695.695 0 010 1.38zM165.88 64.185h-46.119a.687.687 0 01-.696-.685c0-.384.312-.695.696-.695h46.12c.384 0 .696.31.696.695a.684.684 0 01-.696.685zM153.493 69.783H119.76a.697.697 0 01-.672-1.06.697.697 0 01.672-.32h33.732a.697.697 0 01.671 1.061.697.697 0 01-.671.32zM160.577 76.434h-40.796a.697.697 0 01-.672-1.061.697.697 0 01.672-.319h40.796a.695.695 0 010 1.38zM145.701 82.817h-25.94a.697.697 0 01-.672-1.061.697.697 0 01.672-.32h25.94a.697.697 0 01.672 1.062.697.697 0 01-.672.319z"/><path fill="#fff" d="M186.229 106.68h-17.791V93.11h17.79v13.57zm-16.398-1.39h14.995V94.5H169.83v10.79z"/><path fill="#fff" d="M185.532 111.554H169.95a.695.695 0 010-1.38h15.582a.695.695 0 010 1.38zM181.88 116.08h-11.94a.686.686 0 01-.686-.685c0-.38.306-.69.686-.695h11.94c.381.006.687.315.687.695a.686.686 0 01-.686.685zM185.532 120.646H169.95a.695.695 0 010-1.38h15.582a.695.695 0 010 1.38z"/><path fill="#fff" d="M178.11 126.066a2.882 2.882 0 00-2.886 2.879 2.882 2.882 0 002.885 2.879 2.882 2.882 0 002.886-2.88 2.882 2.882 0 00-2.886-2.878zm0 4.368a1.493 1.493 0 01-1.387-.912 1.486 1.486 0 01.318-1.626 1.495 1.495 0 011.627-.328c.56.23.924.774.924 1.377a1.49 1.49 0 01-1.483 1.479v.01zM112.17 106.53a5.463 5.463 0 00-5.056 3.36 5.44 5.44 0 001.183 5.944 5.472 5.472 0 005.957 1.18 5.45 5.45 0 003.368-5.043 5.456 5.456 0 00-5.453-5.44zm0 9.49a4.06 4.06 0 01-3.759-2.493 4.043 4.043 0 01.874-4.417 4.067 4.067 0 014.425-.882 4.05 4.05 0 012.509 3.743 4.055 4.055 0 01-4.05 4.05zM7.771 104.665a3.667 3.667 0 00-3.671 3.663 3.667 3.667 0 003.671 3.662 3.667 3.667 0 003.672-3.662 3.667 3.667 0 00-3.672-3.663zm0 5.956a2.279 2.279 0 01-2.112-1.397 2.27 2.27 0 01.487-2.48 2.283 2.283 0 012.485-.498 2.273 2.273 0 011.409 2.101 2.276 2.276 0 01-2.269 2.254v.02z"/><path fill="#fff" d="M72.18 106.213H47.76V87.93H72.18v18.284zm-23.046-1.4h21.642V89.339H49.134v15.476zM42.299 128.13H17.85v-18.323h24.448v18.324zm-23.045-1.389h21.642v-15.565H19.254v15.565z"/><path fill="#fff" d="M42.448 92.862h-22.19a.686.686 0 110-1.37h22.19a.687.687 0 01.594 1.028.687.687 0 01-.594.342zM39.89 97.776H20.26a.697.697 0 01-.672-1.061.697.697 0 01.672-.319H39.89a.697.697 0 01.671 1.061.697.697 0 01-.671.319zM32.736 102.808H20.26a.686.686 0 110-1.37h12.477a.687.687 0 01.595 1.028.687.687 0 01-.595.342zM69.87 114.68H47.683a.686.686 0 110-1.37H69.87a.686.686 0 110 1.37zM67.323 119.594H47.682a.695.695 0 010-1.38h19.641a.695.695 0 010 1.38zM60.17 124.637H47.681a.695.695 0 010-1.38h12.487a.695.695 0 010 1.38z"/><path fill="#fff" d="M200 101.518V9.103c0-2.978-.816-5.301-2.378-6.83C196.06.744 193.772 0 190.726 0H33.403c-6.02 0-9.174 3.226-9.134 9.232v72.036c-7.96.07-14.359.11-16.13.11a7.304 7.304 0 00-5.452 1.915 6.078 6.078 0 00-1.692 4.06v40.133a6.464 6.464 0 001.99 5.132 6.448 6.448 0 004.2 1.39h.666l63.134-.12a5.74 5.74 0 004.408-1.465 5.711 5.711 0 001.87-4.242v-5.093l16.558.08c.04.004.08.004.12 0h4.248c-.14 8.447-3.92 8.933-6.706 9.38h-4.06v1.39h50v-1.39h-3.96c-2.747-.347-6.488-1.2-6.737-9.53H129.095l35.75-.257v6.432a4.39 4.39 0 001.136 3.362 4.413 4.413 0 003.253 1.433h16.517a4.284 4.284 0 003.154-1.212 5.948 5.948 0 001.503-3.9c0-.09 0-2.621-.07-6.294h.468c5.97 0 9.164-3.226 9.134-9.232l-.06-11.822.12-.01zM7.801 132.578h-.09a5.422 5.422 0 01-3.82-1.062 5.135 5.135 0 01-1.493-4.08V87.353a4.67 4.67 0 011.284-3.087 5.98 5.98 0 014.427-1.49h4.896v49.822l-5.204-.02zm68.07-4.427c0 .436-.16 4.318-4.886 4.318l-56.587.099v-49.83l10.17-.08c.108.08.242.119.377.109a.618.618 0 00.349-.12l45.273-.386a6.517 6.517 0 014.12 1.548 4.213 4.213 0 011.184 3.137v41.205zm53.164 4.1l-32.995.238c1.88-1.3 3.453-3.901 3.542-9.361l25.791-.04c.17 5.36 1.771 7.941 3.662 9.162zm-3.662-10.602l-28.408.08-19.691-.09v-19.396l87.562-.526v19.644l-39.463.288zm40.876-20.35a.664.664 0 00.06-.277c0-.09-.02-.178-.06-.258v-7.952a3.785 3.785 0 01.746-2.69 3.657 3.657 0 012.846-.992h15.741c.779.04 1.519.353 2.09.883a4.252 4.252 0 011.054 3.137c0 3.256.21 21.838.319 30.851l-22.727.09-.07-22.791zm19.572 31.309h-16.518a3.367 3.367 0 01-2.109-.874 3.41 3.41 0 01-.876-2.541v-3.742l22.737-.08v3.514c0 .387-.08 3.723-3.244 3.723h.01zm4.288-39.488a5.531 5.531 0 00-1.482-4.13 4.623 4.623 0 00-3.075-1.28h-15.741a4.982 4.982 0 00-3.9 1.5 5.123 5.123 0 00-1.085 3.732v7.395l-87.562.516V86.956a5.601 5.601 0 00-1.582-4.13 7.881 7.881 0 00-5.125-1.985c-.378 0-26.457.238-44.925.387V9.192c0-5.31 2.428-7.792 7.741-7.832h157.363c2.617 0 4.617.615 5.9 1.876 1.284 1.26 1.99 3.226 1.99 5.847v89.18a.693.693 0 000 .247v1.598l-8.387.05c-.12-3.355-.14-5.986-.14-7.038h.01zm.757 28.072h-.478c-.06-5.737-.15-13.59-.209-19.604l8.378-.06.05 11.832c.02 5.232-2.507 7.802-7.751 7.832h.01z"/></g></svg>