<svg xmlns="http://www.w3.org/2000/svg" xmlns:xlink="http://www.w3.org/1999/xlink" width="697" height="704" version="1.1" viewBox="0 0 697 704"><title>Group 78</title><desc>Created with Sketch.</desc><defs><filter id="filter-1" width="259.1%" height="177.7%" x="-79.5%" y="-38.9%" filterUnits="objectBoundingBox"><feMorphology in="SourceAlpha" operator="dilate" radius="13.2" result="shadowSpreadOuter1"/><feOffset dx="0" dy="30" in="shadowSpreadOuter1" result="shadowOffsetOuter1"/><feGaussianBlur in="shadowOffsetOuter1" result="shadowBlurOuter1" stdDeviation="35"/><feComposite in="shadowBlurOuter1" in2="SourceAlpha" operator="out" result="shadowBlurOuter1"/><feColorMatrix in="shadowBlurOuter1" result="shadowMatrixOuter1" type="matrix" values="0 0 0 0 0 0 0 0 0 0 0 0 0 0 0 0 0 0 0.2 0"/><feMerge><feMergeNode in="shadowMatrixOuter1"/><feMergeNode in="SourceGraphic"/></feMerge></filter><rect id="path-2" width="257.04" height="527.04" x="0" y="0" rx="20"/><rect id="path-4" width="257.04" height="535.091" x="0" y="0"/><path id="path-6" d="M6.18545504,7.00285593 L3.45720895,4.27460984 C3.25591141,4.07331231 2.92954362,4.07331231 2.72824609,4.27460984 C2.52694855,4.47590738 2.52694855,4.80227517 2.72824609,5.00357271 L5.8209736,8.09630023 C6.02227114,8.29759777 6.34863893,8.29759777 6.54993647,8.09630023 L9.64266399,5.00357271 C9.84396153,4.80227517 9.84396153,4.47590738 9.64266399,4.27460984 C9.44136645,4.07331231 9.11499866,4.07331231 8.91370112,4.27460984 L6.18545504,7.00285593 Z"/><path id="path-8" d="M6.18545504,7.00285593 L3.45720895,4.27460984 C3.25591141,4.07331231 2.92954362,4.07331231 2.72824609,4.27460984 C2.52694855,4.47590738 2.52694855,4.80227517 2.72824609,5.00357271 L5.8209736,8.09630023 C6.02227114,8.29759777 6.34863893,8.29759777 6.54993647,8.09630023 L9.64266399,5.00357271 C9.84396153,4.80227517 9.84396153,4.47590738 9.64266399,4.27460984 C9.44136645,4.07331231 9.11499866,4.07331231 8.91370112,4.27460984 L6.18545504,7.00285593 Z"/><linearGradient id="linearGradient-10" x1="12.581%" x2="90.361%" y1="48.497%" y2="51.475%"><stop offset="0%" stop-color="#47C5CA"/><stop offset="100%" stop-color="#00B1B8"/></linearGradient><filter id="filter-11" width="259.1%" height="177.7%" x="-79.5%" y="-38.9%" filterUnits="objectBoundingBox"><feMorphology in="SourceAlpha" operator="dilate" radius="13.2" result="shadowSpreadOuter1"/><feOffset dx="0" dy="30" in="shadowSpreadOuter1" result="shadowOffsetOuter1"/><feGaussianBlur in="shadowOffsetOuter1" result="shadowBlurOuter1" stdDeviation="35"/><feComposite in="shadowBlurOuter1" in2="SourceAlpha" operator="out" result="shadowBlurOuter1"/><feColorMatrix in="shadowBlurOuter1" result="shadowMatrixOuter1" type="matrix" values="0 0 0 0 0 0 0 0 0 0 0 0 0 0 0 0 0 0 0.2 0"/><feMerge><feMergeNode in="shadowMatrixOuter1"/><feMergeNode in="SourceGraphic"/></feMerge></filter><rect id="path-12" width="257.04" height="527.04" x="0" y="0" rx="20"/><rect id="path-14" width="257.04" height="528.611" x="0" y="0"/><filter id="filter-16" width="115.5%" height="107.6%" x="-7.8%" y="-3.8%" filterUnits="objectBoundingBox"><feOffset dx="0" dy="1" in="SourceAlpha" result="shadowOffsetOuter1"/><feGaussianBlur in="shadowOffsetOuter1" result="shadowBlurOuter1" stdDeviation="4.5"/><feColorMatrix in="shadowBlurOuter1" result="shadowMatrixOuter1" type="matrix" values="0 0 0 0 0 0 0 0 0 0 0 0 0 0 0 0 0 0 0.159476902 0"/><feMerge><feMergeNode in="shadowMatrixOuter1"/><feMergeNode in="SourceGraphic"/></feMerge></filter><rect id="path-17" width="257.04" height="527.04" x="0" y="0"/><circle id="path-19" cx="229.25" cy="535.97" r="156.89"/><filter id="filter-20" width="155.8%" height="155.8%" x="-27.9%" y="-28.2%" filterUnits="objectBoundingBox"><feMorphology in="SourceAlpha" operator="dilate" radius="10.5" result="shadowSpreadOuter1"/><feOffset dx="0" dy="-1" in="shadowSpreadOuter1" result="shadowOffsetOuter1"/><feGaussianBlur in="shadowOffsetOuter1" result="shadowBlurOuter1" stdDeviation="18.5"/><feColorMatrix in="shadowBlurOuter1" type="matrix" values="0 0 0 0 0 0 0 0 0 0 0 0 0 0 0 0 0 0 0.04 0"/></filter><circle id="path-21" cx="25.13" cy="-22.39" r="156.89"/><filter id="filter-22" width="155.8%" height="155.8%" x="-27.9%" y="-27.6%" filterUnits="objectBoundingBox"><feMorphology in="SourceAlpha" operator="dilate" radius="10.5" result="shadowSpreadOuter1"/><feOffset dx="0" dy="1" in="shadowSpreadOuter1" result="shadowOffsetOuter1"/><feGaussianBlur in="shadowOffsetOuter1" result="shadowBlurOuter1" stdDeviation="18.5"/><feColorMatrix in="shadowBlurOuter1" type="matrix" values="0 0 0 0 0 0 0 0 0 0 0 0 0 0 0 0 0 0 0.04 0"/></filter></defs><g id="Mini-case-study-assets" fill="none" fill-rule="evenodd" stroke="none" stroke-width="1"><g id="Group-78" transform="translate(69.000000, 39.000000)"><g id="Group-Copy" filter="url(#filter-1)" transform="translate(302.000000, 0.000000)"><mask id="mask-3" fill="#fff"><use xlink:href="#path-2"/></mask><use id="Mask" fill="#D8D8D8" xlink:href="#path-2"/><g mask="url(#mask-3)"><g transform="translate(0.000000, -7.560001)"><mask id="mask-5" fill="#fff"><use xlink:href="#path-4"/></mask><g id="Group" fill="none" fill-rule="evenodd" stroke="none" stroke-width="1" mask="url(#mask-5)"><g transform="translate(0.000000, 1.080000)"><rect id="Rectangle" width="257.727" height="482.76" x="0" y="18.556" fill="#F4F4F4" fill-rule="evenodd" stroke="none" transform="translate(128.863647, 259.936384) scale(1, -1) translate(-128.863647, -259.936384)"/><path id="Rectangle-8" fill="#47C5CA" fill-rule="nonzero" stroke="none" d="M8.93454616,325.080026 L248.792747,325.080026 C249.931458,325.080026 250.854565,326.003133 250.854565,327.141844 L250.854565,347.760028 L250.854565,347.760028 L6.87272782,347.760028 L6.87272782,327.141844 C6.87272782,326.003133 7.79583534,325.080026 8.93454616,325.080026 Z"/><polygon id="Rectangle-5" fill="#FFF" fill-rule="nonzero" stroke="none" points="6.873 347.76 250.855 347.76 250.855 388.996 6.873 388.996"/><path id="Path-4" fill="none" fill-rule="nonzero" stroke="#EBEBEB" stroke-width=".687" d="M6.87272782,388.652758 L250.854565,388.652758"/><polygon id="Rectangle-5" fill="#FFF" fill-rule="nonzero" stroke="none" points="6.873 388.996 250.855 388.996 250.855 430.233 6.873 430.233"/><path id="Path-4" fill="none" fill-rule="nonzero" stroke="#EBEBEB" stroke-width=".687" d="M6.87272782,429.889125 L250.854565,429.889125"/><polygon id="Rectangle-5" fill="#FFF" fill-rule="nonzero" stroke="none" points="6.873 430.233 250.855 430.233 250.855 471.469 6.873 471.469"/><text id="300" fill="none" stroke="none" font-family="Roboto-Regular, Roboto" font-size="8.247" font-weight="normal"><tspan x="202.745" y="369.505" fill="#383838">300</tspan></text><text id="GI-Score" fill="none" stroke="none" font-family="Roboto-Medium, Roboto" font-size="6.873" font-weight="400"><tspan x="202.745" y="339.327" fill="#FFF">GI Score</tspan></text><text id="298" fill="none" stroke="none" font-family="Roboto-Regular, Roboto" font-size="8.247" font-weight="normal"><tspan x="202.745" y="410.742" fill="#383838">298</tspan></text><text id="274" fill="none" stroke="none" font-family="Roboto-Regular, Roboto" font-size="8.247" font-weight="normal"><tspan x="202.745" y="455.218" fill="#383838">274</tspan></text><text id="Technology" fill="none" stroke="none" font-family="Roboto-Light, Roboto" font-size="7.56" font-weight="300"><tspan x="101.029" y="369.193" fill="#999">Technology</tspan></text><text id="Industry" fill="none" stroke="none" font-family="Roboto-Medium, Roboto" font-size="6.873" font-weight="400"><tspan x="101.029" y="339.327" fill="#FFF">Industry</tspan></text><text id="Technology" fill="none" stroke="none" font-family="Roboto-Light, Roboto" font-size="7.56" font-weight="300"><tspan x="101.029" y="410.429" fill="#999">Technology</tspan></text><text id="Retail" fill="none" stroke="none" font-family="Roboto-Light, Roboto" font-size="7.56" font-weight="300"><tspan x="101.029" y="454.905" fill="#999">Retail</tspan></text><text id="Name" fill="none" stroke="none" font-family="Roboto-Medium, Roboto" font-size="6.873" font-weight="400"><tspan x="30.24" y="339.327" fill="#FFF">Name</tspan></text><text id="1." fill="none" stroke="none" font-family="Roboto-Regular, Roboto" font-size="7.56" font-weight="normal"><tspan x="14.433" y="367.131" fill="#383838">1.</tspan></text><polygon id="Rectangle-5" fill="#FFF" fill-rule="nonzero" stroke="none" points="6.873 471.273 250.855 471.273 250.855 512.509 6.873 512.509"/><text id="2." fill="none" stroke="none" font-family="Roboto-Regular, Roboto" font-size="7.56" font-weight="normal"><tspan x="14.433" y="409.055" fill="#383838">2.</tspan></text><text id="3." fill="none" stroke="none" font-family="Roboto-Regular, Roboto" font-size="7.56" font-weight="normal"><tspan x="14.433" y="452.844" fill="#383838">3.</tspan></text><text id="#" fill="none" stroke="none" font-family="Roboto-Regular, Roboto" font-size="8.247" font-weight="normal"><tspan x="14.433" y="340.64" fill="#FFF">#</tspan></text><text id="Apple-Inc" fill="none" stroke="none" font-family="Roboto-Regular, Roboto" font-size="8.247" font-weight="normal"><tspan x="28.178" y="368.131" fill="#383838">Apple Inc</tspan></text><text id="International-Busine" fill="none" stroke="none" font-family="Roboto-Regular, Roboto" font-size="8.247" font-weight="normal"><tspan x="28.178" y="409.367" fill="#383838">International </tspan> <tspan x="28.178" y="419.367" fill="#383838">Business Mach…</tspan></text><text id="Walmart-Inc" fill="none" stroke="none" font-family="Roboto-Regular, Roboto" font-size="8.247" font-weight="normal"><tspan x="28.178" y="453.844" fill="#383838">Walmart Inc</tspan></text><text id="Stocks" fill="none" stroke="none" font-family="Roboto-Regular, Roboto" font-size="8.247" font-weight="normal"><tspan x="6.873" y="317.273" fill="#999">STOCKS</tspan></text><text id="USA" fill="none" stroke="none" font-family="Roboto-Light, Roboto" font-size="8.247" font-weight="300"><tspan x="158.073" y="370.88" fill="#999">USA</tspan></text><text id="Country" fill="none" stroke="none" font-family="Roboto-Medium, Roboto" font-size="6.873" font-weight="400"><tspan x="158.073" y="339.327" fill="#FFF">Country</tspan></text><text id="UK" fill="none" stroke="none" font-family="Roboto-Light, Roboto" font-size="8.247" font-weight="300"><tspan x="159.104" y="412.116" fill="#999">UK</tspan></text><text id="USA" fill="none" stroke="none" font-family="Roboto-Light, Roboto" font-size="8.247" font-weight="300"><tspan x="150.856" y="456.593" fill="#999">USA</tspan></text><text id="274" fill="none" stroke="none" font-family="Roboto-Regular, Roboto" font-size="8.247" font-weight="normal"><tspan x="202.745" y="496.258" fill="#383838">274</tspan></text><text id="Retail" fill="none" stroke="none" font-family="Roboto-Light, Roboto" font-size="7.56" font-weight="300"><tspan x="101.029" y="495.945" fill="#999">Retail</tspan></text><text id="4." fill="none" stroke="none" font-family="Roboto-Regular, Roboto" font-size="7.56" font-weight="normal"><tspan x="14.433" y="493.884" fill="#383838">4.</tspan></text><text id="Alphabet" fill="none" stroke="none" font-family="Roboto-Regular, Roboto" font-size="8.247" font-weight="normal"><tspan x="28.178" y="494.884" fill="#383838">Alphabet</tspan></text><text id="USA" fill="none" stroke="none" font-family="Roboto-Light, Roboto" font-size="8.247" font-weight="300"><tspan x="150.856" y="497.633" fill="#999">USA</tspan></text><g id="Group-23" fill="none" fill-rule="evenodd" stroke="none" stroke-width="1" transform="translate(6.872728, 142.265466)"><text id="Popular-Filters" fill="#999" font-family="Roboto-Regular, Roboto" font-size="8.247" font-weight="normal"><tspan x=".687" y="8">POPULAR FILTERS</tspan></text><path id="Rectangle-3" fill="#FFF" fill-rule="nonzero" stroke="#EBEBEB" stroke-width=".687" d="M0.343636391,41.5800033 L241.920019,41.5800033 C242.868945,41.5800033 243.638201,40.810747 243.638201,39.8618213 L243.638201,17.8690923 C243.638201,16.9201666 242.868945,16.1509104 241.920019,16.1509104 L2.06181835,16.1509104 C1.11289265,16.1509104 0.343636391,16.9201666 0.343636391,17.8690923 L0.343636391,41.5800033 Z"/><text id="Technology,-USA" fill="#383838" font-family="Roboto-Medium, Roboto" font-size="7.56" font-weight="400"><tspan x="9.655" y="27.618">Technology, </tspan> <tspan x="22.979" y="36.618">USA</tspan></text><text id="Technology,-UK" fill="#383838" font-family="Roboto-Medium, Roboto" font-size="7.56" font-weight="400"><tspan x="70.479" y="27.618">Technology, </tspan> <tspan x="86.217" y="36.618">UK</tspan></text><text id="Retail,-UK" fill="#383838" font-family="Roboto-Medium, Roboto" font-size="7.56" font-weight="400"><tspan x="141.781" y="27.618">Retail, </tspan> <tspan x="147.384" y="36.618">UK</tspan></text><text id="Energy,-China" fill="#383838" font-family="Roboto-Medium, Roboto" font-size="7.56" font-weight="400"><tspan x="201.675" y="27.618">Energy, </tspan> <tspan x="204.407" y="36.618">China</tspan></text><path id="Path-3" fill-rule="nonzero" stroke="#EBEBEB" stroke-width=".687" d="M61.1672776,15.807274 L61.1672776,41.9236397"/><path id="Path-3" fill-rule="nonzero" stroke="#EBEBEB" stroke-width=".687" d="M121.647282,15.807274 L121.647282,41.9236397"/><path id="Path-3" fill-rule="nonzero" stroke="#EBEBEB" stroke-width=".687" d="M182.81456,15.807274 L182.81456,41.9236397"/></g><g id="Group-14" fill="none" fill-rule="evenodd" stroke="none" stroke-width="1" transform="translate(6.185455, 87.283643)"><g id="Group-20"><path id="Rectangle-8-Copy" fill="#FFF" fill-rule="nonzero" stroke="#EBEBEB" stroke-width=".687" d="M2.06181835,16.1509104 C1.11289265,16.1509104 0.343636391,16.9201666 0.343636391,17.8690923 L0.343636391,39.1745486 C0.343636391,40.1234743 1.11289265,40.8927305 2.06181835,40.8927305 L241.920019,40.8927305 C242.868945,40.8927305 243.638201,40.1234743 243.638201,39.1745486 L243.638201,17.8690923 C243.638201,16.9201666 242.868945,16.1509104 241.920019,16.1509104 L2.06181835,16.1509104 Z"/><g id="Group-6" fill-rule="nonzero" stroke="#383838" stroke-width=".687" transform="translate(10.309092, 23.367275)"><g id="Group-12"><circle id="Oval-6" cx="4.467" cy="4.33" r="4.124"/><path id="Path-7" stroke-linecap="round" d="M7.39032672,7.37833253 L10.2137784,10.2017842"/></g><path id="Path-12-Copy" stroke-linecap="round" stroke-linejoin="round" d="M4.61167348,2.11515896 C3.76720405,1.94755266 3.10019347,2.17493439 2.61064176,2.79730416 C2.12109004,3.41967392 1.95904925,4.0244637 2.12451938,4.61167348"/></g><text id="search-for-a-Stock" fill="#999" font-family="Roboto-Regular, Roboto" font-size="8.247" font-weight="normal"><tspan x=".687" y="8">SEARCH FOR A STOCK</tspan></text></g></g><rect id="Rectangle-4" width="61.855" height="25.429" x="6.873" y="103.778" fill="none" fill-rule="nonzero" stroke="none"/><text id="Country" fill="none" stroke="none" font-family="Roboto-Regular, Roboto" font-size="8.247" font-weight="normal"><tspan x="6.873" y="205.935" fill="#999">COUNTRY</tspan></text><path id="Rectangle-3" fill="#FFF" fill-rule="nonzero" stroke="#EBEBEB" stroke-width=".687" d="M8.93454616,214.085472 C7.98562047,214.085472 7.21636421,214.854728 7.21636421,215.803654 L7.21636421,237.796383 C7.21636421,238.745308 7.98562047,239.514564 8.93454616,239.514564 L248.105474,239.514564 C249.0544,239.514564 249.823656,238.745308 249.823656,237.796383 L249.823656,215.803654 C249.823656,214.854728 249.0544,214.085472 248.105474,214.085472 L8.93454616,214.085472 Z"/><g id="chevron-down" fill="none" stroke="none" transform="translate(229.549109, 221.989109)"><mask id="mask-7" fill="#fff"><use xlink:href="#path-6"/></mask><use id="Shape" fill="#606060" fill-rule="nonzero" xlink:href="#path-6"/></g><text id="Select-a-country" fill="none" stroke="none" font-family="Roboto-Regular, Roboto" font-size="8.247" font-weight="normal"><tspan x="17.182" y="230.676" fill="#999">Select a country</tspan></text><text id="Sector" fill="none" stroke="none" font-family="Roboto-Regular, Roboto" font-size="8.247" font-weight="normal"><tspan x="6.873" y="261.604" fill="#999">SECTOR</tspan></text><path id="Rectangle-3" fill="#FFF" fill-rule="nonzero" stroke="#EBEBEB" stroke-width=".687" d="M8.93454616,269.754567 C7.98562047,269.754567 7.21636421,270.523823 7.21636421,271.472749 L7.21636421,293.465478 C7.21636421,294.414404 7.98562047,295.18366 8.93454616,295.18366 L248.105474,295.18366 C249.0544,295.18366 249.823656,294.414404 249.823656,293.465478 L249.823656,271.472749 C249.823656,270.523823 249.0544,269.754567 248.105474,269.754567 L8.93454616,269.754567 Z"/><text id="Select-a-sector" fill="none" stroke="none" font-family="Roboto-Regular, Roboto" font-size="8.247" font-weight="normal"><tspan x="17.182" y="286.345" fill="#999">Select a sector</tspan></text><g id="chevron-down" fill="none" stroke="none" transform="translate(229.549109, 277.658204)"><mask id="mask-9" fill="#fff"><use xlink:href="#path-8"/></mask><use id="Shape" fill="#606060" fill-rule="nonzero" xlink:href="#path-8"/></g><rect id="Rectangle" width="258.415" height="48.109" x="0" y="0" fill="url(#linearGradient-10)" fill-rule="nonzero" stroke="none" transform="translate(129.207283, 24.054547) scale(1, -1) translate(-129.207283, -24.054547)"/><g id="Group-4" fill="none" fill-rule="evenodd" stroke="none" stroke-width="1" transform="translate(0.000000, 48.109095)"><rect id="Rectangle" width="258.415" height="24.742" x="0" y="0" fill="#FFF" transform="translate(129.207283, 12.370910) scale(1, -1) translate(-129.207283, -12.370910)"/><path id="Line-3" stroke="#E5E6EC" stroke-linecap="square" stroke-width=".687" d="M258.07093,25.0854565 L0.342720029,25.0854565"/></g><path id="Rectangle-11" fill="none" fill-rule="nonzero" stroke="#EBEBEB" stroke-width=".687" d="M8.93454616,325.423662 C7.98562047,325.423662 7.21636421,326.192918 7.21636421,327.141844 L7.21636421,621.294595 C7.21636421,622.243521 7.98562047,623.012777 8.93454616,623.012777 L248.792747,623.012777 C249.741673,623.012777 250.510929,622.243521 250.510929,621.294595 L250.510929,327.141844 C250.510929,326.192918 249.741673,325.423662 248.792747,325.423662 L8.93454616,325.423662 Z"/><text id="Stock" fill="none" stroke="none" font-family="Roboto-Regular, Roboto" font-size="10.309" font-weight="normal"><tspan x="52.986" y="64.982" fill="#383838">Stock</tspan></text><text id="Fund" fill="none" stroke="none" font-family="Roboto-Regular, Roboto" font-size="10.309" font-weight="normal"><tspan x="183.057" y="64.982" fill="#999">Fund</tspan></text><path id="Line" fill="none" fill-rule="nonzero" stroke="#E5E6EC" stroke-linecap="square" stroke-width=".687" d="M129.207283,48.7963675 L129.207283,72.8509149"/><rect id="Rectangle" width="127.145" height="25.429" x="130.582" y="48.109" fill="none" stroke="none"/><g id="Group-2" fill="none" fill-rule="evenodd" stroke="none" stroke-width="1" transform="translate(153.261830, 23.116366)"><circle id="Oval" cx="4.811" cy="4.811" r="4.811" fill-rule="nonzero" stroke="#FFF" stroke-width=".687"/><text id="i" fill="#FFF" font-family="Roboto-Medium, Roboto" font-size="7.56" font-weight="400"><tspan x="3.846" y="7.687">i</tspan></text></g><text id="Ranking" fill="none" stroke="none" font-family="Roboto-Bold, Roboto" font-size="9.622" font-weight="bold"><tspan x="104.923" y="31.429" fill="#FFF">RANKING</tspan></text><path id="Rectangle-4-Copy" fill="#48D0CC" fill-rule="nonzero" stroke="none" d="M0.687272782,72.1636421 L128.52001,72.1636421 C128.89958,72.1636421 129.207283,72.4713446 129.207283,72.8509149 C129.207283,73.2304852 128.89958,73.5381877 128.52001,73.5381877 L0.687272782,73.5381877 C0.307702505,73.5381877 -3.17316282e-15,73.2304852 0,72.8509149 C-4.64839524e-17,72.4713446 0.307702505,72.1636421 0.687272782,72.1636421 Z"/><g id="Nav/MVP-small/ranking" fill="none" stroke="none" transform="translate(-0.000000, 498.272767)"><rect id="Rectangle-7" width="257.727" height="35.051" x="0" y=".687" fill="#FFF" fill-rule="nonzero"/><path id="Path-10" fill-rule="nonzero" stroke="#F2F2F2" stroke-width=".687" d="M0,0.687272782 L257.727293,0.687272782"/><g id="Group-5" fill-rule="evenodd" stroke-width="1" transform="translate(27.178184, 9.621819)"><g id="Group" fill="#47C5CA" font-family="Roboto-Regular, Roboto" font-size="6.873" font-weight="normal" transform="translate(0.000000, 13.745456)"><text id="Ranking"><tspan x="1.09" y="6">RANKING</tspan></text></g><g id="Group-13" fill-rule="nonzero" transform="translate(8.247273, 0.000000)"><g id="Group-3-Copy"><path id="Path-15" fill="#47C5CA" stroke="#47C5CA" stroke-width=".687" d="M1.2457055,6.50360872 L1.2457055,9.42343414 L12.6077078,9.42343414 L12.6077078,3.77306502 L7.44657247,7.37148869 L3.7973158,4.27639689 L1.2457055,6.50360872 Z"/><polyline id="Path-16" stroke="#47C5CA" stroke-linecap="round" stroke-linejoin="round" stroke-width=".687" points=".247 4.603 3.445 1.883 7.445 5.19 12.694 1.473"/><path id="Path-22" stroke="#FFF" stroke-linecap="round" stroke-width=".687" d="M7.55074507,7.31489464 L7.55074507,9.38577602"/><path id="Path-24" stroke="#FFF" stroke-linecap="round" stroke-width=".687" d="M10.7108322,5.18985224 L10.7108322,9.30984335"/><polygon id="Path-26" fill="#47C5CA" points="11.977 .441 14.364 .241 13.265 2.473 13.05 1.812 12.506 .966"/><path id="Path-18" stroke="#FFF" stroke-linecap="round" stroke-width=".687" d="M3.77685789,9.33300925 L3.77685789,4.59000556"/></g></g></g><g id="Group-2" fill-rule="evenodd" stroke-width="1" transform="translate(198.309107, 8.934546)"><text id="Insights" fill="#383838" font-family="Roboto-Regular, Roboto" font-size="6.873" font-weight="normal"><tspan x="1.227" y="20.433">INSIGHTS</tspan></text><g id="Group-9" fill-rule="nonzero" stroke="#383838" stroke-width=".687" transform="translate(10.309092, 0.000000)"><rect id="Rectangle-6" width="10.996" height="10.996" x=".344" y=".344" rx=".687"/><rect id="Rectangle-6" width="7.102" height="3.856" x="2.291" y="5.536" rx=".687"/><path id="Path-2" stroke-linecap="round" stroke-linejoin="round" d="M4.11727713,2.59636384 L9.08727345,2.59636384 L4.11727713,2.59636384 Z"/><path id="Path-2" stroke-linecap="round" stroke-linejoin="round" d="M2.59636384,2.59636384 L3.09773487,2.59636384"/><path id="Path-2" stroke-linecap="round" stroke-linejoin="round" d="M2.59636384,3.89454576 L7.78909153,3.89454576"/></g></g><g id="Group-4" fill="#383838" fill-rule="evenodd" stroke-width="1" font-family="Roboto-Regular, Roboto" font-size="6.873" font-weight="normal" transform="translate(108.276372, 23.367275)"><g id="Group-5-Copy"><g id="Group-15"><text id="Portfolio"><tspan x="1.108" y="6">PORTFOLIO</tspan></text></g></g></g><g id="Group-12" fill-rule="evenodd" stroke-width="1" transform="translate(119.585464, 8.247273)"><rect id="Rectangle" width="13.745" height="9.498" x=".344" y="1.842" fill-rule="nonzero" stroke="#383838" stroke-width=".687" rx=".687"/><rect id="Rectangle" width="1.643" height="1.634" x="6.395" y="5.474" fill-rule="nonzero" stroke="#383838" stroke-width=".687" rx=".344"/><path id="Path-3" fill-rule="nonzero" stroke="#979797" stroke-width=".687"/><path id="Path-4" fill-rule="nonzero" stroke="#383838" stroke-linecap="round" stroke-linejoin="round" stroke-width=".687" d="M0.343636391,4.11585472 C0.343636391,4.55704542 0.343636391,4.93743591 0.343636391,5.25702619 C0.343636391,5.73641163 0.584698666,6.05124382 1.34547746,6.05124382 C1.58701636,6.05124382 3.27292664,6.05124382 6.40320831,6.05124382"/><path id="Path-4" fill-rule="nonzero" stroke="#383838" stroke-linecap="round" stroke-linejoin="round" stroke-width=".687" d="M8.1235512,6.08252004 C8.54583645,6.08252004 8.98754112,6.08252004 9.44866519,6.08252004"/><path id="Path-4" fill-rule="nonzero" stroke="#383838" stroke-linecap="round" stroke-linejoin="round" stroke-width=".687" d="M10.6519948,6.08252004 C10.8694194,6.08252004 11.0985103,6.08252004 11.3392676,6.08252004"/><path id="Path-4" fill-rule="nonzero" stroke="#383838" stroke-linecap="round" stroke-linejoin="round" stroke-width=".687" d="M12.4602555,4.11585472 C12.4602555,4.55704542 12.4602555,4.93743591 12.4602555,5.25702619 C12.4602555,5.73641163 12.5022646,6.06120412 13.4620966,6.05124382 C13.536042,6.05124382 13.7453591,6.05124382 14.0900477,6.05124382" transform="translate(13.275152, 5.083661) scale(-1, 1) translate(-13.275152, -5.083661)"/><path id="Path" fill-rule="nonzero" stroke="#383838" stroke-width=".687" d="M4.24713102,1.76438839 C4.24713102,1.55133536 4.24713102,1.29399264 4.24713102,0.992360219 C4.24713102,0.343636391 4.46727308,-7.32747196e-15 5.24313962,-7.32747196e-15 L9.22717403,-7.32747196e-15 C9.96545534,-7.32747196e-15 10.2231826,0.343636391 10.2231826,0.992360219 C10.2231826,1.32343046 10.2231826,1.59952123 10.2231826,1.82063251"/></g></g><path id="Path-4" fill="none" fill-rule="nonzero" stroke="#EBEBEB" stroke-width=".687" d="M6.87272782,470.929128 L250.854565,470.929128"/></g></g></g></g></g><g id="Group-Copy" filter="url(#filter-11)" transform="translate(0.000000, 39.000000)"><mask id="mask-13" fill="#fff"><use xlink:href="#path-12"/></mask><use id="Mask" fill="#D8D8D8" xlink:href="#path-12"/><g mask="url(#mask-13)"><g transform="translate(0.000000, -1.080000)"><mask id="mask-15" fill="#fff"><use xlink:href="#path-14"/></mask><g id="Group-3-Copy-2" fill="none" fill-rule="evenodd" stroke="none" stroke-width="1" filter="url(#filter-16)" mask="url(#mask-15)"><g transform="translate(0.000000, 1.080000)"><g id="Group-2-Copy" fill-rule="evenodd" stroke-width="1"><mask id="mask-18" fill="#fff"><use xlink:href="#path-17"/></mask><use id="Mask" fill="#47C5CA" transform="translate(128.520010, 263.520021) scale(1, -1) translate(-128.520010, -263.520021)" xlink:href="#path-17"/><g id="Oval-3-Copy-4" fill-rule="nonzero" mask="url(#mask-18)"><use fill="#000" fill-opacity="1" filter="url(#filter-20)" xlink:href="#path-19"/><use fill="#47C5CA" xlink:href="#path-19"/></g><g id="Oval-3-Copy-9" fill-rule="nonzero" mask="url(#mask-18)"><use fill="#000" fill-opacity="1" filter="url(#filter-22)" xlink:href="#path-21"/><use fill="#47C5CA" xlink:href="#path-21"/></g></g><text id="Empower-your-own-fin" font-family="Roboto-Regular, Roboto" font-size="12.305" font-weight="normal" line-spacing="14.356"><tspan x="33.644" y="283.384" fill="#F7F9FA">Empower your own financial future</tspan></text><g id="Group-Copy-3" fill-rule="evenodd" stroke-width="1" transform="translate(79.460432, 222.480018)"><text id="TM-Copy-4" fill="#FFF" font-family="NunitoSans-ExtraBold, Nunito Sans" font-size="4.785" font-weight="600"><tspan x="94.596" y="5">TM</tspan></text><text id="Genuine-Copy-2" fill="#FFF" font-family="Roboto-Medium, Roboto" font-size="15.723" font-weight="400" letter-spacing="-.137" line-spacing="13.672"><tspan x="36.915" y="16.367">Genuin</tspan> <tspan x="85.476" y="16.367">e</tspan></text><path id="Combined-Shape" fill="#FFF" fill-rule="nonzero" d="M13.6723415,1.36723415 C17.5279252,1.36723415 21.1287687,2.97297213 23.699161,5.74458969 L22.0765642,7.24938264 C19.9206873,4.92473124 16.9055983,3.58020101 13.6723415,3.58020101 C7.34350815,3.58020101 2.21296686,8.7107423 2.21296686,15.0395757 C2.21296686,21.368409 7.34350815,26.4989503 13.6723415,26.4989503 C19.5767805,26.4989503 24.4382474,22.033419 25.0636907,16.2954082 L17.02067,16.2951989 L17.02067,14.0629798 L27.344683,14.0629798 L27.344683,16.2951989 L27.2878104,16.29505 C26.6539517,23.2576031 20.8001038,28.7119172 13.6723415,28.7119172 C6.1213203,28.7119172 0,22.5905969 0,15.0395757 C0,7.48855445 6.1213203,1.36723415 13.6723415,1.36723415 Z M13.6025847,13.3654114 C14.4886894,13.3654114 15.2069921,14.083714 15.2069921,14.9698188 C15.2069921,15.8559236 14.4886894,16.5742262 13.6025847,16.5742262 C12.7164799,16.5742262 11.9981772,15.8559236 11.9981772,14.9698188 C11.9981772,14.083714 12.7164799,13.3654114 13.6025847,13.3654114 Z"/><text id="Impact-Copy-2" fill="#FFF" font-family="Roboto-Medium, Roboto" font-size="15.723" font-weight="400" letter-spacing="1.231" line-spacing="13.672"><tspan x="37.599" y="30.723">Impac</tspan> <tspan x="87.459" y="30.723">t</tspan></text></g></g></g></g></g></g></g></g></svg>