<svg xmlns="http://www.w3.org/2000/svg" xmlns:xlink="http://www.w3.org/1999/xlink" width="32" height="32" version="1.1" viewBox="0 0 32 32"><title>AD7297CF-5C69-45CC-ABDC-459B547B2EA4</title><desc>Created with sketchtool.</desc><g id="Page-1" fill="none" fill-rule="evenodd" stroke="none" stroke-width="1"><g id="Icons" fill-rule="nonzero" transform="translate(-134.000000, -813.000000)"><g id="micro-icon-aboutus" transform="translate(134.000000, 813.000000)"><path id="Path" fill="#A8C5DD" d="M22.72,19.5388235 L25.1388235,17.3552941 L29.9576471,22.3341176 C30.0780633,22.4600242 30.2446042,22.5313989 30.4188235,22.5317647 C30.5842006,22.5334208 30.7434104,22.4690594 30.8611765,22.3529412 C30.9926352,22.2317707 31.0674177,22.0611368 31.0674177,21.8823529 C31.0674177,21.703569 30.9926352,21.5329352 30.8611765,21.4117647 L25.6282353,16 C25.5960452,15.9718581 25.5613967,15.9466592 25.5247059,15.9247059 L25.4117647,15.8870588 L25.28,15.8870588 L25.1764706,15.8870588 L25.0352941,15.8870588 L24.9411765,15.8870588 C24.8972008,15.9065577 24.8560476,15.9318828 24.8188235,15.9623529 L24.7247059,16.0094118 L21.9011765,18.5505882 L16.4611765,11.6047059 C16.4611765,11.6047059 16.4611765,11.6047059 16.4047059,11.5576471 L16.4047059,11.4917647 L16.3576471,11.4917647 L16.2447059,11.4352941 L16.1317647,11.4352941 L15.8870588,11.4352941 L15.7741176,11.4352941 L15.6611765,11.4917647 L15.6141176,11.4917647 L15.5670588,11.5576471 C15.5670588,11.5576471 15.5670588,11.5576471 15.5105882,11.6047059 L10.0705882,18.5317647 L7.24705882,15.9905882 L7.14352941,15.9341176 L7.04,15.8682353 L6.91764706,15.8682353 L6.79529412,15.8682353 L6.68235294,15.8682353 C6.64174241,15.8629107 6.60061053,15.8629107 6.56,15.8682353 L6.47529412,16 C6.47529412,16 6.4,16 6.38117647,16.0658824 L1.12,21.4494118 C0.988541244,21.5705822 0.913758819,21.7412161 0.913758819,21.92 C0.913758819,22.0987839 0.988541244,22.2694178 1.12,22.3905882 C1.2377661,22.5067065 1.39697591,22.5710679 1.56235294,22.5694118 C1.73657229,22.5690459 1.90311321,22.4976712 2.02352941,22.3717647 L6.84235294,17.3929412 L9.26117647,19.5764706 L1.07294118,30.0235294 C0.954655373,30.1599034 0.899465602,30.3398907 0.920974337,30.5191301 C0.942483072,30.6983696 1.03868967,30.8601893 1.18588235,30.9647059 C1.30336953,31.0395071 1.44258651,31.072654 1.58117647,31.0588235 C1.77636189,31.058851 1.96055818,30.9684906 2.08,30.8141176 L16,13.0164706 L29.92,30.8141176 C30.0394418,30.9684906 30.2236381,31.058851 30.4188235,31.0588235 C30.5629778,31.0590576 30.7027257,31.0091476 30.8141176,30.9176471 C30.9613103,30.8131304 31.0575169,30.6513108 31.0790257,30.4720713 C31.1005344,30.2928319 31.0453446,30.1128446 30.9270588,29.9764706 L22.72,19.5388235 Z"/><path id="Path" fill="#032663" d="M24.0564706,21.6470588 C23.9655423,21.5033181 23.8211369,21.4016841 23.6551425,21.3646003 C23.4891481,21.3275164 23.3152196,21.3580332 23.1717647,21.4494118 L20.8094118,22.9552941 L18.6258824,20.8658824 L16,22.7482353 L13.3741176,20.8658824 L11.1905882,22.9552941 L8.82823529,21.4494118 C8.52935178,21.2596857 8.13325547,21.3481753 7.94352941,21.6470588 C7.75380336,21.9459423 7.84229296,22.3420387 8.14117647,22.5317647 L11.3411765,24.5741176 L13.4870588,22.5223529 L15.6235294,24.0752941 L15.6235294,24.0752941 L15.7458824,24.1411765 C15.7802623,24.1454102 15.8150318,24.1454102 15.8494118,24.1411765 L16.0941176,24.1411765 C16.1281995,24.1488628 16.1635652,24.1488628 16.1976471,24.1411765 C16.2422791,24.1321583 16.284181,24.112819 16.32,24.0847059 L16.32,24.0847059 L18.4564706,22.5317647 L20.7058824,24.5270588 L23.9058824,22.4847059 C24.1613525,22.2841494 24.2260919,21.9240362 24.0564706,21.6470588 Z"/><path id="Shape" fill="#2969F6" d="M22.5882353,4.70588235 C22.5920859,4.66518892 22.5920859,4.62422284 22.5882353,4.58352941 C22.592511,4.54600375 22.592511,4.50811389 22.5882353,4.47058824 C22.5882353,4.47058824 22.5882353,4.47058824 22.5882353,4.41411765 L22.5882353,4.36705882 L22.5035294,4.26352941 C22.47652,4.23341681 22.4447188,4.20797586 22.4094118,4.18823529 L22.4094118,4.18823529 L16.2917647,1.01647059 L16.2917647,1.01647059 L16.16,1.01647059 L16,0.941176471 L16,0.941176471 L15.9058824,0.941176471 C15.8652145,0.936818194 15.8241973,0.936818194 15.7835294,0.941176471 L15.6705882,0.997647059 L15.5858824,1.06352941 C15.5497133,1.09335348 15.5180169,1.1282195 15.4917647,1.16705882 C15.4917647,1.16705882 15.4917647,1.16705882 15.4447059,1.23294118 C15.4393813,1.2735517 15.4393813,1.31468359 15.4447059,1.35529412 C15.4394866,1.39591145 15.4394866,1.43702973 15.4447059,1.47764706 C15.4447059,1.47764706 15.4447059,1.47764706 15.4447059,1.47764706 L15.4447059,11.9811765 C15.4447059,12.3294407 15.7270299,12.6117647 16.0752941,12.6117647 C16.4235584,12.6117647 16.7058824,12.3294407 16.7058824,11.9811765 L16.7058824,8.27294118 L22.3529412,5.28941176 L22.3529412,5.28941176 L22.4,5.28941176 C22.4707503,5.24209828 22.53151,5.18133856 22.5788235,5.11058824 L22.5788235,5.11058824 C22.5788235,5.11058824 22.5788235,5.11058824 22.5788235,5.05411765 C22.5841481,5.01350712 22.5841481,4.97237523 22.5788235,4.93176471 C22.6002691,4.85835401 22.6034996,4.78082263 22.5882353,4.70588235 Z M16.6305882,2.61647059 L20.6494118,4.70588235 L16.6305882,6.85176471 L16.6305882,2.61647059 Z"/></g></g></g></svg>