<svg xmlns="http://www.w3.org/2000/svg" viewBox="0 0 32 32"><g fill-rule="nonzero" fill="none"><path d="M27.45 32H2.59A2.59 2.59 0 010 29.41v-23a2.6 2.6 0 012.59-2.6h20.87a.68.68 0 010 1.36H2.59a1.23 1.23 0 00-1.23 1.26v23c0 .68.55 1.23 1.23 1.23h24.86c.68 0 1.235-.55 1.24-1.23v-22a.68.68 0 111.35 0v22A2.59 2.59 0 0127.45 32z" fill="#A8C5DD"/><path d="M10.85 27.28H4.69l.1-.76a140.5 140.5 0 001-17.2v-.7h10.8a.68.68 0 110 1.36H7.11a140.58 140.58 0 01-.89 15.94h4.63a.68.68 0 010 1.36z" fill="#032663"/><path d="M31.93 4a5.06 5.06 0 00-2.3-3.26 5.75 5.75 0 00-4.08-.6l-.27.07-12.75 20.22.19 7.06 6.42-3.38L32 4.29 31.93 4zm-5.82-2.6a4.53 4.53 0 012.17.17l-11.56 18-2.2.24L26.11 1.4zM13.89 21.21l2.81-.31 1.1 2.4-3.8 2-.11-4.09zm4.88 1l-.9-2 11.57-18a3.92 3.92 0 011.11 1.81L18.77 22.21z" fill="#2969F6"/></g></svg>