<svg xmlns="http://www.w3.org/2000/svg" xmlns:xlink="http://www.w3.org/1999/xlink" width="32" height="32" version="1.1" viewBox="0 0 32 32"><title>C043EABB-38EF-4EB1-B678-F66552ABE367</title><desc>Created with sketchtool.</desc><g id="Page-1" fill="none" fill-rule="evenodd" stroke="none" stroke-width="1"><g id="Icons" fill-rule="nonzero" transform="translate(-822.000000, -1501.000000)"><g id="micro-icon-arvr" transform="translate(822.000000, 1501.000000)"><path id="Path" fill="#A8C5DD" d="M22.4941176,17.6775758 C22.3280049,17.649702 22.1579699,17.6914007 22.0218585,17.7933905 C21.8857471,17.8953803 21.7948547,18.0491975 21.7694118,18.2206061 L21.1952941,21.7987879 C20.2541176,26.3272727 17.3647059,26.6472727 16.9317647,26.6472727 L16.8752941,26.6472727 C16.8752941,26.6472727 13.9294118,26.8509091 11.8305882,22.6133333 C11.6640606,22.2927742 11.2795511,22.1678972 10.9647059,22.3321212 C10.6548039,22.4998548 10.5332018,22.8929969 10.6917647,23.2145455 C12.5741176,27.0254545 15.1435294,27.7915152 16.3388235,27.9369697 L16.4047059,30.6715152 L5.69411765,30.6715152 L6.58823529,23.2727273 L6.40941176,23.049697 C4.85286648,21.034681 3.68662473,18.7302764 2.97411765,16.2618182 L6.26823529,16.2618182 C6.62169753,16.2618182 6.90823529,15.9665975 6.90823529,15.6024242 C6.90823529,15.238251 6.62169753,14.9430303 6.26823529,14.9430303 L2.60705882,14.9430303 C2.4510493,14.2076239 2.34101915,13.4626579 2.27764706,12.7127273 L6.27764706,12.7127273 C6.6311093,12.7127273 6.91764706,12.4175066 6.91764706,12.0533333 C6.91764706,11.6891601 6.6311093,11.3939394 6.27764706,11.3939394 L2.22117647,11.3939394 L2.22117647,11.3163636 C2.22117647,4.72242424 7.86823529,2.32727273 11.6329412,2.32727273 C11.9623529,2.32727273 19.52,1.92969697 21.0447059,9.11515152 C21.1242929,9.46825039 21.462322,9.69183266 21.8070588,9.61939394 C21.9731332,9.58224963 22.11805,9.4785773 22.2098584,9.33123446 C22.3016668,9.18389162 22.3328276,9.00497772 22.2964706,8.83393939 C20.5458824,0.513939394 11.6611765,0.96969697 11.6047059,0.96969697 C7.32235294,0.96969697 0.941176471,3.72363636 0.941176471,11.2872727 C0.941176471,11.5006061 0.941176471,11.7139394 0.941176471,11.9175758 C0.941176471,11.9175758 0.941176471,11.9854545 0.941176471,12.0242424 C0.936754969,12.0726203 0.936754969,12.1213191 0.941176471,12.169697 C1.2284397,16.3651693 2.71893817,20.3781491 5.22352941,23.6993939 L4.25411765,32 L17.6752941,32 L17.5811765,27.8884848 C18.8329412,27.6169697 21.5529412,26.5212121 22.4564706,22.070303 L23.0211765,18.4630303 C23.0596889,18.2860712 23.0246612,18.1005815 22.9245622,17.951408 C22.8244632,17.8022345 22.6684047,17.7029561 22.4941176,17.6775758 Z"/><path id="Path" fill="#A8C5DD" d="M14.2305882,12.6836364 L11.6517647,12.6836364 C11.4231147,12.6836364 11.2118334,12.5579566 11.0975084,12.3539394 C10.9831834,12.1499222 10.9831834,11.8985626 11.0975084,11.6945454 C11.2118334,11.4905282 11.4231147,11.3648485 11.6517647,11.3648485 L14.2305882,11.3648485 C14.5840505,11.3648485 14.8705882,11.6600692 14.8705882,12.0242424 C14.8705882,12.3884156 14.5840505,12.6836364 14.2305882,12.6836364 L14.2305882,12.6836364 Z"/><path id="Path" fill="#A8C5DD" d="M13.7223529,16.2327273 L11.7082353,16.2327273 C11.3547731,16.2327273 11.0682353,15.9375066 11.0682353,15.5733333 C11.0682353,15.2091601 11.3547731,14.9139394 11.7082353,14.9139394 L13.7223529,14.9139394 C14.0758152,14.9139394 14.3623529,15.2091601 14.3623529,15.5733333 C14.3623529,15.9375065 14.0758152,16.2327273 13.7223529,16.2327273 L13.7223529,16.2327273 Z"/><path id="Shape" fill="#032663" d="M8.96,17.8036483 C7.39840074,17.8075606 5.98844769,16.8413903 5.38820852,15.3560665 C4.78796936,13.8707426 5.11578673,12.1591104 6.21865836,11.0200401 C7.32153,9.88096994 8.98201466,9.53903991 10.425114,10.1538391 C11.8682133,10.7686384 12.8094233,12.2189535 12.8094233,13.8278788 C12.8119119,14.8814226 12.407454,15.8926986 11.6852781,16.6385778 C10.9631022,17.384457 9.98256026,17.8036483 8.96,17.8036483 L8.96,17.8036483 Z M8.96,11.1805881 C7.91526008,11.1766847 6.97144941,11.8225929 6.56988462,12.8163103 C6.16831982,13.8100276 6.38835416,14.9551855 7.12710174,15.7163194 C7.86584933,16.4774533 8.97732614,16.7041553 9.94181652,16.2904219 C10.9063069,15.8766885 11.5332178,14.9042775 11.5294292,13.8278788 C11.5319246,13.1249879 11.2620264,12.4501385 10.7796225,11.9531162 C10.2972185,11.456094 9.64221759,11.1780171 8.96,11.1805881 Z"/><path id="Shape" fill="#2969F6" d="M22.8611765,18.9769697 L22.7482353,18.9769697 L15.3129412,17.5515152 C14.3563446,17.5149872 13.5993432,16.7050487 13.5999996,15.7187879 L13.5999996,11.7430303 C13.5993432,10.7567695 14.3563446,9.94683099 15.3129412,9.91030303 L22.8423529,8.47515152 C23.3141263,8.47515152 23.766577,8.66824187 24.1001711,9.01194491 C24.4337652,9.35564794 24.6211765,9.82180929 24.6211765,10.3078788 L24.6211765,17.0957576 C24.633815,17.586826 24.4545829,18.0625656 24.1236896,18.4162478 C23.7927962,18.7699299 23.3379443,18.971944 22.8611765,18.9769697 L22.8611765,18.9769697 Z M15.3788235,11.2193939 C15.092935,11.2193939 14.8611765,11.4581754 14.8611765,11.7527273 L14.8611765,15.7090909 C14.8611765,15.8505397 14.9157141,15.9861951 15.0127918,16.0862145 C15.1098694,16.1862339 15.241535,16.2424242 15.3788235,16.2424242 L15.4917647,16.2424242 L22.9082353,17.6678788 C23.1741264,17.6475315 23.3795559,17.4189444 23.378828,17.1442424 L23.378828,10.3563636 C23.379935,10.0797522 23.1756019,9.84817464 22.9082353,9.8230303 L15.3788235,11.2193939 Z"/><path id="Path" fill="#032663" d="M26.5223529,11.3842424 C26.2501387,11.3858866 26.0067029,11.2099383 25.9155487,10.9456619 C25.8243945,10.6813854 25.9054717,10.3866197 26.1176471,10.2109091 L28.2352941,8.51393939 C28.5118648,8.33333519 28.8761387,8.39694272 29.0795073,8.66135136 C29.282876,8.92575999 29.2597371,9.30567706 29.0258824,9.54181818 L26.9552941,11.2387879 C26.8331688,11.3403194 26.6790942,11.3920836 26.5223529,11.3842424 L26.5223529,11.3842424 Z"/><path id="Path" fill="#032663" d="M28.5647059,19.3357576 C28.4196963,19.3414023 28.2781431,19.2893156 28.1694118,19.190303 L26.1082353,17.4545455 C25.9745786,17.3475015 25.8883093,17.1895839 25.8688376,17.0163237 C25.849366,16.8430634 25.8983274,16.669013 26.0047059,16.5333333 C26.112139,16.3845427 26.275418,16.28924 26.4545176,16.2707873 C26.6336172,16.2523347 26.8119797,16.3124379 26.9458824,16.4363636 L29.0070588,18.1527273 C29.1514733,18.263416 29.2439729,18.4316428 29.2618829,18.6161696 C29.2797928,18.8006965 29.2214574,18.9844639 29.1011765,19.1224242 C28.9669891,19.2796679 28.7666336,19.3593414 28.5647059,19.3357576 Z"/><path id="Path" fill="#032663" d="M30.4188235,14.5454545 L27.1341176,14.5454545 C26.7806554,14.5454545 26.4941176,14.2502338 26.4941176,13.8860606 C26.4941176,13.5218874 26.7806554,13.2266667 27.1341176,13.2266667 L27.1341176,13.2266667 L30.4188235,13.2266667 C30.6642554,13.1958315 30.9049732,13.3134111 31.0371554,13.5286935 C31.1693377,13.743976 31.1693377,14.0184483 31.0371554,14.2337307 C30.9049732,14.4490132 30.6642554,14.5665928 30.4188235,14.5357576 L30.4188235,14.5454545 Z"/></g></g></g></svg>