<?xml version="1.0" encoding="UTF-8"?>
<svg width="32px" height="32px" viewBox="0 0 32 32" version="1.1" xmlns="http://www.w3.org/2000/svg" xmlns:xlink="http://www.w3.org/1999/xlink">
    <!-- Generator: sketchtool 59 (101010) - https://sketch.com -->
    <title>3A66A888-9256-447A-89B1-56B2FB816B43</title>
    <desc>Created with sketchtool.</desc>
    <g id="Page-1" stroke="none" stroke-width="1" fill="none" fill-rule="evenodd">
        <g id="Icons" transform="translate(-134.000000, -1673.000000)" fill-rule="nonzero">
            <g id="micro-icon-blog" transform="translate(134.000000, 1673.000000)">
                <path d="M23.66,19.86 L6.42,19.86 C6.04996922,19.86 5.75,20.1599692 5.75,20.53 C5.75,20.9000308 6.04996922,21.2 6.42,21.2 L23.66,21.2 C24.0300308,21.2 24.33,20.9000308 24.33,20.53 C24.33,20.1599692 24.0300308,19.86 23.66,19.86 L23.66,19.86 Z" id="Path" fill="#2969F6"></path>
                <path d="M18.87,23.69 L6.42,23.69 C6.04996922,23.69 5.75,23.9899692 5.75,24.36 C5.75,24.7300308 6.04996922,25.03 6.42,25.03 L18.87,25.03 C19.2400308,25.03 19.54,24.7300308 19.54,24.36 C19.54,23.9899692 19.2400308,23.69 18.87,23.69 Z" id="Path" fill="#2969F6"></path>
                <path d="M6.42,13.54 L23.66,13.54 C24.0316426,13.5345341 24.33,13.2316828 24.33,12.86 C24.33,12.4899692 24.0300308,12.19 23.66,12.19 L6.42,12.19 C6.04996922,12.19 5.75,12.4899692 5.75,12.86 C5.75,13.2316828 6.04835739,13.5345341 6.42,13.54 Z" id="Path" fill="#2969F6"></path>
                <path d="M25.58,16 L6.42,16 C6.07880672,16.0416056 5.82231039,16.3312794 5.82231039,16.675 C5.82231039,17.0187206 6.07880672,17.3083944 6.42,17.35 L25.58,17.35 C25.9211933,17.3083944 26.1776896,17.0187206 26.1776896,16.675 C26.1776896,16.3312794 25.9211933,16.0416056 25.58,16 L25.58,16 Z" id="Path" fill="#2969F6"></path>
                <path d="M29.41,32 L2.59,32 C1.1595825,32 0,30.8404175 0,29.41 L0,2.59 C0,1.1595825 1.1595825,0 2.59,0 L29.41,0 C30.8404175,0 32,1.1595825 32,2.59 L32,29.41 C32,30.8404175 30.8404175,32 29.41,32 Z M2.59,1.36 C1.91068976,1.36 1.36,1.91068976 1.36,2.59 L1.36,29.41 C1.36,30.0893102 1.91068976,30.64 2.59,30.64 L29.41,30.64 C30.0893102,30.64 30.64,30.0893102 30.64,29.41 L30.64,2.59 C30.64,1.91068976 30.0893102,1.36 29.41,1.36 L2.59,1.36 Z" id="Shape" fill="#A8C5DD"></path>
                <path d="M17,8.06 L6.42,8.06 C6.04444637,8.06 5.74,7.75555363 5.74,7.38 C5.74,7.00444637 6.04444637,6.7 6.42,6.7 L17,6.7 C17.2429406,6.7 17.467427,6.82960726 17.5888973,7.03999999 C17.7103676,7.25039273 17.7103676,7.50960727 17.5888973,7.72000001 C17.467427,7.93039274 17.2429406,8.06 17,8.06 Z" id="Path" fill="#032663"></path>
            </g>
        </g>
    </g>
</svg>