<svg xmlns="http://www.w3.org/2000/svg" xmlns:xlink="http://www.w3.org/1999/xlink" width="32" height="32" version="1.1" viewBox="0 0 32 32"><title>2601E3AE-DD3D-468D-9DEB-CC7B908ADB43</title><desc>Created with sketchtool.</desc><g id="Page-1" fill="none" fill-rule="evenodd" stroke="none" stroke-width="1"><g id="Icons" fill-rule="nonzero" transform="translate(-306.000000, -641.000000)"><g id="micro-icon-digitalmarketing" transform="translate(306.000000, 641.000000)"><path id="Shape" fill="#A8C5DD" d="M27.5,7.65 C27.1244464,7.65 26.82,7.95444637 26.82,8.33 L26.82,12.76 L1.36,12.76 L1.36,6.42 C1.35997786,5.73905322 1.90907536,5.18549151 2.59,5.18 L23.67,5.18 C24.0455536,5.18 24.35,4.87555363 24.35,4.5 C24.35,4.12444637 24.0455536,3.82 23.67,3.82 L2.59,3.82 C1.15796644,3.82550786 0,4.98795585 0,6.42 L0,29.42 C0.00550780437,30.8465107 1.16347866,32 2.59,32 L25.59,32 C27.0220442,32 28.1844921,30.8420336 28.19,29.41 L28.19,8.33 C28.1845333,7.95283447 27.8772051,7.64996038 27.5,7.65 Z M25.58,30.65 L2.58,30.65 C1.90068976,30.65 1.35,30.0993102 1.35,29.42 L1.35,23.06 L4.51,23.06 C4.88555363,23.06 5.19,22.7555536 5.19,22.38 C5.19,22.0044464 4.88555363,21.7 4.51,21.7 L1.36,21.7 L1.36,14.12 L26.82,14.12 L26.82,21.7 L12.17,21.7 C11.7944464,21.7 11.49,22.0044464 11.49,22.38 C11.49,22.7555536 11.7944464,23.06 12.17,23.06 L26.82,23.06 L26.82,29.41 C26.8145085,30.0909246 26.2609468,30.6400221 25.58,30.64 L25.58,30.65 Z"/><path id="Path" fill="#032663" d="M10.17,19.69 C10.0939242,19.7034615 10.0160758,19.7034615 9.94,19.69 C9.59179044,19.562983 9.40944325,19.1804986 9.53,18.83 C10.9937481,15.2186793 14.4933547,12.8487425 18.39,12.83 C23.27,12.83 25.04,7.91 25.11,7.7 C25.2514028,7.37170419 25.6228426,7.20893247 25.9600633,7.32748662 C26.297284,7.44604078 26.4851472,7.80544243 26.39,8.15 C26.39,8.21 24.25,14.15 18.39,14.15 C15.0580416,14.1279823 12.0499512,16.1413023 10.8,19.23 C10.7075685,19.5005155 10.4558148,19.6843356 10.17,19.69 Z"/><path id="Shape" fill="#2969F6" d="M27.5,9 C25.0147186,9 23,6.98528137 23,4.5 C23,2.01471863 25.0147186,0 27.5,0 C29.9852814,0 32,2.01471863 32,4.5 C31.9945005,6.98299985 29.9829999,8.99450053 27.5,9 Z M27.5,1.34 C25.7547802,1.34 24.34,2.75478019 24.34,4.5 C24.34,6.24521981 25.7547802,7.66 27.5,7.66 C29.2452198,7.66 30.66,6.24521981 30.66,4.5 C30.66,2.75478019 29.2452198,1.34 27.5,1.34 Z"/><path id="Shape" fill="#2969F6" d="M8.34,26.88 C5.85471863,26.88 3.84,24.8652814 3.84,22.38 C3.84,19.8947186 5.85471863,17.88 8.34,17.88 C10.8252814,17.88 12.84,19.8947186 12.84,22.38 C12.8345005,24.8629999 10.8229999,26.8745005 8.34,26.88 Z M8.34,19.22 C6.59478019,19.22 5.18,20.6347802 5.18,22.38 C5.18,24.1252198 6.59478019,25.54 8.34,25.54 C10.0852198,25.54 11.5,24.1252198 11.5,22.38 C11.4945104,20.6370591 10.0829409,19.2254896 8.34,19.22 L8.34,19.22 Z"/></g></g></g></svg>