<svg xmlns="http://www.w3.org/2000/svg" xmlns:xlink="http://www.w3.org/1999/xlink" width="32" height="32" version="1.1" viewBox="0 0 32 32"><title>868F05C3-384B-49CA-90E7-84526BC4F1C9</title><desc>Created with sketchtool.</desc><g id="Page-1" fill="none" fill-rule="evenodd" stroke="none" stroke-width="1"><g id="Icons" fill-rule="nonzero" transform="translate(-822.000000, -641.000000)"><g id="micro-icon-digitaltransformation" transform="translate(822.000000, 641.000000)"><path id="Path" fill="#A8C5DD" d="M10.62,10.83 C10.4405787,10.8326782 10.2675812,10.7632733 10.1397607,10.6373324 C10.0119402,10.5113916 9.93998001,10.3394413 9.94,10.16 C9.80699962,8.32321513 10.4741776,6.51855342 11.77,5.21 C12.9192162,4.24092418 14.4002816,3.75679868 15.9,3.86 C16.2537473,3.91965148 16.5003068,4.24384792 16.4633024,4.60067581 C16.4262981,4.95750369 16.1184601,5.22420707 15.76,5.21 C14.6409258,5.14313388 13.5377132,5.50016059 12.67,6.21 C11.6758847,7.27000326 11.1779907,8.70190266 11.3,10.15 C11.3,10.3303472 11.2283573,10.5033079 11.1008326,10.6308326 C10.9733079,10.7583573 10.8003472,10.83 10.62,10.83 Z"/><path id="Path" fill="#032663" d="M5,7.31 C4.84500962,7.3129612 4.69353732,7.26364463 4.57,7.17 L2.28,5.34 C2.078342,5.19223304 1.97402952,4.94572851 2.00836761,4.69809589 C2.0427057,4.45046326 2.21015603,4.24164285 2.44441256,4.15432218 C2.67866909,4.06700151 2.94194893,4.1152644 3.13,4.28 L5.42,6.1 C5.57233072,6.21445364 5.67055325,6.38680303 5.69138664,6.57619747 C5.71222002,6.76559191 5.65380962,6.95517092 5.53,7.1 C5.39341076,7.24541822 5.19912132,7.32240083 5,7.31 Z"/><path id="Path" fill="#032663" d="M2.73,15.86 C2.52432431,15.8624397 2.32892563,15.7702705 2.2,15.61 C1.96784976,15.3192941 2.01240744,14.8959961 2.3,14.66 L4.59,12.81 C4.88365157,12.5948238 5.29467849,12.6490893 5.52242502,12.9331026 C5.75017154,13.2171159 5.71383736,13.6301143 5.44,13.87 L3.16,15.71 C3.03739274,15.8065312 2.886046,15.8593265 2.73,15.86 Z"/><path id="Path" fill="#032663" d="M0.68,10.68 C0.498831205,10.6827248 0.324282862,10.6119575 0.19616269,10.4838373 C0.0680425185,10.3557171 -0.00272480729,10.1811688 1.88786703e-17,10 C-7.58722123e-05,9.62279485 0.302834465,9.31546674 0.68,9.31 L4.31,9.31 C4.49465912,9.30440037 4.67343565,9.37529688 4.80406938,9.50593062 C4.93470312,9.63656435 5.00559963,9.81534088 5,10 C5.00015689,10.3734007 4.70324383,10.6791768 4.33,10.69 L0.68,10.68 Z"/><path id="Path" fill="#032663" d="M27,7.31 C26.7943243,7.31243966 26.5989256,7.22027047 26.47,7.06 C26.3461904,6.91517092 26.28778,6.72559191 26.3086134,6.53619747 C26.3294468,6.34680303 26.4276693,6.17445364 26.58,6.06 L28.87,4.24 C29.0580511,4.0752644 29.3213309,4.02700151 29.5555874,4.11432218 C29.789844,4.20164285 29.9572943,4.41046326 29.9916324,4.65809589 C30.0259705,4.90572851 29.921658,5.15223304 29.72,5.3 L27.42,7.13 C27.3063989,7.23885399 27.1571709,7.30280884 27,7.31 L27,7.31 Z"/><path id="Path" fill="#032663" d="M29.27,15.86 C29.113954,15.8593265 28.9626073,15.8065312 28.84,15.71 L26.56,13.87 C26.2861626,13.6301143 26.2498285,13.2171159 26.477575,12.9331026 C26.7053215,12.6490893 27.1163484,12.5948238 27.41,12.81 L29.7,14.66 C29.9875926,14.8959961 30.0321502,15.3192941 29.8,15.61 C29.6710744,15.7702705 29.4756757,15.8624397 29.27,15.86 Z"/><path id="Path" fill="#032663" d="M31.32,10.68 L27.68,10.68 C27.3044464,10.68 27,10.3755536 27,10 C27,9.82055869 27.0719402,9.6486084 27.1997607,9.52266757 C27.3275812,9.39672675 27.5005787,9.32732177 27.68,9.33 L31.31,9.33 C31.6834007,9.32984311 31.9891768,9.62675617 32,10 C32.0027248,10.1811688 31.9319575,10.3557171 31.8038373,10.4838373 C31.6757171,10.6119575 31.5011688,10.6827248 31.32,10.68 Z"/><path id="Path" fill="#A8C5DD" d="M19.94,22.47 C19.5683574,22.4645341 19.2699598,22.1616828 19.27,21.79 C19.27,19.35 21.96,15.79 22.07,15.67 C23.4771989,14.169238 24.3277559,12.231662 24.48,10.18 C24.6246742,7.79553887 23.7904024,5.45524398 22.17,3.7 C20.6045249,2.26238842 18.5744192,1.43543981 16.45,1.37 L15.72,1.37 C13.5933281,1.43371721 11.5615589,2.26489553 10,3.71 C8.39043875,5.46663196 7.56387093,7.80195678 7.71,10.18 C7.8639794,12.2116582 8.69902695,14.1319152 10.08,15.63 C10.23,15.82 12.92,19.35 12.92,21.79 C12.9517988,22.0507714 12.8305448,22.306534 12.6085348,22.4469776 C12.3865248,22.5874213 12.1034752,22.5874213 11.8814652,22.4469776 C11.6594552,22.306534 11.5382012,22.0507714 11.57,21.79 C11.57,20.14 9.74,17.41 9.04,16.5 C7.43468673,14.7708878 6.48329643,12.5356511 6.35,10.18 C6.17510123,7.44144978 7.1332664,4.75135589 9,2.74 C10.8230795,1.01925622 13.2234456,0.0419897721 15.73,-1.77635684e-15 L16.44,-1.77635684e-15 C18.927068,0.0695874968 21.30431,1.0396728 23.13,2.73 C25.014897,4.73314108 25.9914967,7.42421604 25.83,10.17 C25.6909729,12.5419078 24.7290687,14.791066 23.11,16.53 C22.45,17.4 20.62,20.14 20.62,21.78 C20.6226778,21.9620736 20.5522191,22.1376144 20.424403,22.2673102 C20.2965868,22.397006 20.1220933,22.4700197 19.94,22.47 Z"/><path id="Path" fill="#2969F6" d="M11.66,26.63 C11.7760795,26.8352451 11.9942085,26.9615303 12.23,26.9600155 C12.3493258,26.9608127 12.4667034,26.9297421 12.57,26.87 L20.23,22.37 L20.31,22.3 C20.3381377,22.2820243 20.3620243,22.2581377 20.38,22.23 C20.4188851,22.1875594 20.4524649,22.1405477 20.48,22.09 L20.48,22.02 C20.4941673,21.957459 20.4941673,21.892541 20.48,21.83 C20.48,21.83 20.48,21.83 20.48,21.83 L20.48,21.83 C20.4856875,21.7667944 20.4856875,21.7032056 20.48,21.64 L20.48,21.56 C20.48,21.56 20.48,21.56 20.48,21.51 C20.4591171,21.478172 20.4357083,21.4480749 20.41,21.42 L20.34,21.35 L20.22,21.27 L20.12,21.22 L19.98,21.22 L12.28,21.22 C11.9099692,21.22 11.61,21.5199692 11.61,21.89 C11.61,22.2600308 11.9099692,22.56 12.28,22.56 L17.43,22.56 L11.89,25.81 C11.6271305,25.9931797 11.53074,26.3368327 11.66,26.63 L11.66,26.63 Z"/><path id="Path" fill="#2969F6" d="M20.47,25 C20.3802629,24.8457004 20.2326652,24.7335872 20.0599485,24.6885307 C19.8872319,24.6434742 19.7036763,24.6691995 19.55,24.76 L11.89,29.26 C11.7590958,29.3453781 11.6605285,29.4721075 11.61,29.62 C11.4952398,29.8833346 11.5639825,30.1906551 11.78,30.38 C12.9179161,31.4169928 14.4004627,31.9943306 15.94,32 C17.5482559,31.9709739 19.0964904,31.3842002 20.32,30.34 C20.5505761,30.0876129 20.554164,29.7021087 20.3283253,29.4454737 C20.1024866,29.1888388 19.7196547,29.143384 19.44,29.34 C19.31,29.46 16.44,31.87 13.44,29.9 L20.26,25.9 C20.5588122,25.7040085 20.6512147,25.3079978 20.47,25 L20.47,25 Z"/></g></g></g></svg>