<?xml version="1.0" encoding="UTF-8"?>
<svg width="32px" height="31px" viewBox="0 0 32 31" version="1.1" xmlns="http://www.w3.org/2000/svg" xmlns:xlink="http://www.w3.org/1999/xlink">
    <!-- Generator: sketchtool 59 (101010) - https://sketch.com -->
    <title>FF96571F-CA79-450F-806D-62BDADA738A8</title>
    <desc>Created with sketchtool.</desc>
    <g id="Page-1" stroke="none" stroke-width="1" fill="none" fill-rule="evenodd">
        <g id="Icons" transform="translate(-822.000000, -814.000000)" fill-rule="nonzero">
            <g id="micro-icon-dna" transform="translate(822.000000, 813.000000)">
                <path d="M25.2121212,15.1466667 C25.0301168,15.148674 24.8564063,15.0706816 24.7369697,14.9333333 L17.3672727,6.98181818 C17.123598,6.71404376 17.1431347,6.2994323 17.4109091,6.05575758 C17.6786835,5.81208285 18.093295,5.83161952 18.3369697,6.09939394 L25.7066667,14.0509091 C25.8877996,14.2424087 25.935276,14.5243705 25.8268417,14.7646271 C25.7184073,15.0048837 25.4755554,15.1558125 25.2121212,15.1466667 L25.2121212,15.1466667 Z" id="Path" fill="#2969F6"></path>
                <path d="M28.7612121,12.9939453 C28.5814792,12.9947066 28.4094588,12.9209835 28.2860606,12.790303 L19.8787879,3.72363636 C19.721158,3.55041669 19.6679135,3.30626054 19.7391112,3.08313919 C19.8103089,2.86001783 19.9951321,2.69182872 20.2239597,2.64192705 C20.4527873,2.59202539 20.6908549,2.66799243 20.8484848,2.84121212 L29.2557576,11.9078788 C29.4276332,12.0974486 29.472228,12.3702501 29.3696638,12.6046825 C29.2670997,12.8391149 29.0364811,12.9915105 28.7806061,12.9939453 L28.7612121,12.9939453 Z" id="Path" fill="#2969F6"></path>
                <path d="M16.2133333,25.2121212 C16.0323854,25.2092259 15.8605803,25.1320889 15.7381818,24.9987879 L7.69939394,16.3781818 C7.56657999,16.2518758 7.49139368,16.0766166 7.49139368,15.8933333 C7.49139368,15.7100501 7.56657999,15.5347908 7.69939394,15.4084848 C7.82423624,15.2730425 8.00004082,15.1959939 8.18424242,15.1959939 C8.36844403,15.1959939 8.54424861,15.2730425 8.66909091,15.4084848 L16.6981818,24.0775758 C16.8750618,24.2701437 16.9214481,24.5490347 16.8164238,24.78849 C16.7113996,25.0279453 16.4748077,25.1827231 16.2133333,25.1830303 L16.2133333,25.2121212 Z" id="Path" fill="#032663"></path>
                <path d="M14.1381818,28.9648485 C13.955769,28.9648745 13.7810223,28.891481 13.6533333,28.7612121 L4.02424242,18.3660606 C3.7959279,18.0961753 3.82105859,17.6942587 4.08121368,17.4549161 C4.34136878,17.2155734 4.74398282,17.2239648 4.99393939,17.4739394 L14.6230303,27.8593939 C14.7584727,27.9842362 14.8355212,28.1600408 14.8355212,28.3442424 C14.8355212,28.528444 14.7584727,28.7042486 14.6230303,28.8290909 C14.4862313,28.9376735 14.3114758,28.986605 14.1381818,28.9648485 L14.1381818,28.9648485 Z" id="Path" fill="#032663"></path>
                <path d="M31.7284848,9.09575758 C31.4301558,8.88907108 31.0214437,8.95790681 30.8072727,9.25090909 C26.8606061,14.7393939 20.5672727,15.2436364 17.5612121,15.1369697 C15.8739394,4.84848485 23.04,2.35636364 23.36,2.25939394 C23.7055464,2.14393586 23.8952068,1.77323595 23.7866667,1.42545455 C23.7393654,1.25470389 23.6253373,1.11017347 23.4702812,1.02443659 C23.3152252,0.938699705 23.132189,0.918971062 22.9624242,0.96969697 C22.8751515,0.96969697 14.5454545,3.77212121 16.1745455,15.0012121 L15.8060606,14.9527273 C3.81090909,12.9551515 1.02787879,21.6921212 0.96969697,21.7793939 C0.918241263,21.9465607 0.935309718,22.1273223 1.01714649,22.2819028 C1.09898326,22.4364834 1.23888275,22.5522168 1.40606061,22.6036364 C1.470364,22.6130551 1.53569661,22.6130551 1.6,22.6036364 C1.8894966,22.6036691 2.14515697,22.4148738 2.23030303,22.1381818 C2.32727273,21.8181818 4.73212121,14.3806061 15.5733333,16.2424242 C15.842802,16.2921639 16.1146889,16.3277682 16.3878788,16.3490909 C16.649697,18.3854545 17.1539394,26.1042424 10.7733333,30.7781818 C10.4835736,30.9953114 10.4191149,31.4035501 10.6278788,31.6993939 C10.7540107,31.867615 10.9509778,31.9678892 11.1612121,31.9709415 C11.3007927,31.9723125 11.4370049,31.9280436 11.5490909,31.8448485 C18.24,26.9381818 17.9975758,18.9963636 17.7260606,16.4266667 C21.0909091,16.5042424 27.6557576,15.8157576 31.8448485,9.98787879 C32.0464564,9.70611434 31.9956217,9.3163814 31.7284848,9.09575758 Z" id="Path" fill="#A8C5DD"></path>
            </g>
        </g>
    </g>
</svg>