<svg xmlns="http://www.w3.org/2000/svg" xmlns:xlink="http://www.w3.org/1999/xlink" width="32" height="32" version="1.1" viewBox="0 0 32 32"><title>04F0BAB7-96DD-459A-99E4-2D18A1990676</title><desc>Created with sketchtool.</desc><g id="Page-1" fill="none" fill-rule="evenodd" stroke="none" stroke-width="1"><g id="Icons" fill-rule="nonzero" transform="translate(-478.000000, -1501.000000)"><g id="micro-icon-ecommerce" transform="translate(478.000000, 1501.000000)"><path id="Shape" fill="#A8C5DD" d="M28.2375758,10.2206061 C27.8734025,10.2206061 27.5781818,10.5158268 27.5781818,10.88 L27.5781818,21.12 L3.45212121,21.12 L3.45212121,11.0351515 C3.48295642,10.7822823 3.36537681,10.5342701 3.15009435,10.3980823 C2.93481189,10.2618945 2.66033963,10.2618945 2.44505717,10.3980823 C2.22977471,10.5342701 2.1121951,10.7822823 2.1430303,11.0351515 L2.1430303,26.4242424 L12.7515152,26.4242424 L11.6363636,29.7406061 L9.80363636,29.7406061 C9.43946315,29.7406061 9.14424242,30.0358268 9.14424242,30.4 C9.14424242,30.7641732 9.43946315,31.0593939 9.80363636,31.0593939 L21.2266667,31.0593939 C21.5908399,31.0593939 21.8860606,30.7641732 21.8860606,30.4 C21.8860606,30.0358268 21.5908399,29.7406061 21.2266667,29.7406061 L19.3939394,29.7406061 L18.3175758,26.4242424 L28.9842424,26.4242424 L28.9842424,10.9090909 C28.9912322,10.7139949 28.9126668,10.5255764 28.7691462,10.3932392 C28.6256256,10.2609021 28.4314657,10.1978466 28.2375758,10.2206061 Z M17.9684848,29.7406061 L13.0618182,29.7406061 L14.1381818,26.4242424 L16.8921212,26.4242424 L17.9684848,29.7406061 Z M3.4230303,25.1054545 L3.4230303,22.4387879 L27.5781818,22.4387879 L27.5781818,25.1054545 L3.4230303,25.1054545 Z"/><path id="Shape" fill="#2969F6" d="M31.030303,5.81818182 C31.0342703,5.77625526 31.0342703,5.73404777 31.030303,5.69212121 C31.030303,5.69212121 31.030303,5.60484848 31.030303,5.56606061 C31.030303,5.52727273 31.030303,5.56606061 31.030303,5.56606061 L27.6751515,0 L3.35515152,0 L0.0872727273,5.51757576 C0.0872727273,5.51757576 0.0872727273,5.51757576 0.0872727273,5.51757576 C0.0872727273,5.51757576 0.0872727273,5.60484848 0.0872727273,5.64363636 C0.0498078698,5.69724038 0.0204042956,5.75604752 0,5.81818182 C0,5.81818182 0,5.81818182 0,5.81818182 L0,6.88484848 C0,9.30909091 2.56,11.7333333 5.16848485,11.7333333 C6.72547092,11.7057768 8.26272707,11.3798917 9.6969697,10.7733333 C11.4655213,11.7992926 13.4706217,12.3473534 15.5151515,12.3636364 C17.5623219,12.3571932 19.5707331,11.8048801 21.3333333,10.7636364 C22.9173503,11.3798852 24.5986982,11.7082735 26.2981818,11.7333333 C28.9121201,11.6215769 30.9907648,9.50051091 31.049697,6.88484848 L31.049697,5.81818182 C31.049697,5.81818182 31.030303,5.81818182 31.030303,5.81818182 Z M29.2460606,5.20727273 L21.8278788,5.20727273 L20.6836364,1.32848485 L26.9381818,1.32848485 L29.2460606,5.20727273 Z M19.3357576,1.32848485 L20.48,5.20727273 L10.56,5.20727273 L11.7042424,1.32848485 L19.3357576,1.32848485 Z M4.11151515,1.32848485 L10.3563636,1.32848485 L9.21212121,5.20727273 L1.79393939,5.20727273 L4.11151515,1.32848485 Z M1.29939394,6.88484848 L1.29939394,6.50666667 L9.0569697,6.50666667 L9.0569697,9.6969697 C7.81700916,10.1649513 6.50349891,10.4079507 5.17818182,10.4145455 C3.28727273,10.3854545 1.29939394,8.59151515 1.29939394,6.88484848 Z M10.3369697,9.6969697 L10.3369697,6.50666667 L20.6933333,6.50666667 L20.6933333,9.60969697 C17.5264872,11.5639376 13.5363003,11.5975628 10.3369697,9.6969697 Z M26.2787879,10.4339394 C24.8196737,10.4213929 23.3722314,10.1725114 21.9927273,9.6969697 L21.9927273,6.50666667 L29.750303,6.50666667 L29.750303,6.88484848 C29.6723882,8.77382616 28.1670496,10.2917793 26.2787879,10.3854545 L26.2787879,10.4339394 Z"/></g></g></g></svg>