<svg xmlns="http://www.w3.org/2000/svg" xmlns:xlink="http://www.w3.org/1999/xlink" width="32" height="32" version="1.1" viewBox="0 0 32 32"><title>40CB2381-C071-49CB-B11A-656274EBDFF2</title><desc>Created with sketchtool.</desc><g id="Page-1" fill="none" fill-rule="evenodd" stroke="none" stroke-width="1"><g id="Icons" fill-rule="nonzero" transform="translate(-822.000000, -1157.000000)"><g id="micro-icon-enterprise" transform="translate(822.000000, 1157.000000)"><path id="Shape" fill="#2969F6" d="M21.78,6.2 L10.22,6.2 L10.22,0 L21.78,0 L21.78,6.2 Z M11.56,4.86 L20.44,4.86 L20.44,1.34 L11.56,1.34 L11.56,4.86 Z"/><path id="Shape" fill="#A8C5DD" d="M23.88,15.26 L23.88,4.85 L8.12,4.85 L8.12,10.49 L0,10.49 L0,32 L32,32 L32,15.26 L23.88,15.26 Z M1.36,30.64 L1.36,11.84 L8.12,11.84 L8.12,30.64 L1.36,30.64 Z M9.48,6.21 L22.48,6.21 L22.48,30.64 L9.48,30.64 L9.48,6.21 Z M30.64,30.64 L23.88,30.64 L23.88,16.64 L30.64,16.64 L30.64,30.64 Z"/><path id="Path" fill="#A8C5DD" d="M20.45,12.91 L11.55,12.91 C11.1744464,12.91 10.87,13.2144464 10.87,13.59 C10.87,13.9655536 11.1744464,14.27 11.55,14.27 L20.45,14.27 C20.8255536,14.27 21.13,13.9655536 21.13,13.59 C21.13,13.2144464 20.8255536,12.91 20.45,12.91 L20.45,12.91 Z"/><path id="Path" fill="#A8C5DD" d="M20.45,16.86 L11.55,16.86 C11.3070594,16.86 11.082573,16.9896073 10.9611027,17.2 C10.8396324,17.4103927 10.8396324,17.6696073 10.9611027,17.88 C11.082573,18.0903927 11.3070594,18.22 11.55,18.22 L20.45,18.22 C20.8255536,18.22 21.13,17.9155536 21.13,17.54 C21.13,17.1644464 20.8255536,16.86 20.45,16.86 L20.45,16.86 Z"/><path id="Path" fill="#A8C5DD" d="M20.45,9 L11.55,9 C11.3070594,9 11.082573,9.12960726 10.9611027,9.33999999 C10.8396324,9.55039273 10.8396324,9.80960727 10.9611027,10.02 C11.082573,10.2303927 11.3070594,10.36 11.55,10.36 L20.45,10.36 C20.8255536,10.36 21.13,10.0555536 21.13,9.68 C21.13,9.30444638 20.8255536,9 20.45,9 L20.45,9 Z"/><path id="Path" fill="#A8C5DD" d="M20.45,20.81 L11.55,20.81 C11.3070594,20.81 11.082573,20.9396073 10.9611027,21.15 C10.8396324,21.3603927 10.8396324,21.6196073 10.9611027,21.83 C11.082573,22.0403927 11.3070594,22.17 11.55,22.17 L20.45,22.17 C20.8255536,22.17 21.13,21.8655536 21.13,21.49 C21.13,21.1144464 20.8255536,20.81 20.45,20.81 L20.45,20.81 Z"/><polygon id="Path" fill="#032663" points="18.95 30.64 17.59 30.64 17.59 26.71 14.41 26.71 14.41 30.64 13.05 30.64 13.05 25.36 18.95 25.36"/></g></g></g></svg>