<?xml version="1.0" encoding="UTF-8"?>
<svg width="32px" height="32px" viewBox="0 0 32 32" version="1.1" xmlns="http://www.w3.org/2000/svg" xmlns:xlink="http://www.w3.org/1999/xlink">
    <!-- Generator: sketchtool 59 (101010) - https://sketch.com -->
    <title>72158BDA-69F5-440F-B8C2-F29521CD42D5</title>
    <desc>Created with sketchtool.</desc>
    <g id="Page-1" stroke="none" stroke-width="1" fill="none" fill-rule="evenodd">
        <g id="Icons" transform="translate(-478.000000, -813.000000)" fill-rule="nonzero">
            <g id="micro-icon-history" transform="translate(478.000000, 813.000000)">
                <path d="M4.51,32.0000759 C4.32883121,32.0027248 4.15428286,31.9319575 4.02616269,31.8038373 C3.89804252,31.6757171 3.82727519,31.5011688 3.83,31.32 L3.83,19.83 C3.83,19.4544464 4.13444637,19.15 4.51,19.15 C4.88555363,19.15 5.19,19.4544464 5.19,19.83 L5.19,31.32 C5.19,31.6955536 4.88555363,32.0000759 4.51,32.0000759 Z" id="Path" fill="#A8C5DD"></path>
                <path d="M4.51,12.85 C4.32965279,12.85 4.15669213,12.7783573 4.02916739,12.6508326 C3.90164265,12.5233079 3.83,12.3503472 3.83,12.17 L3.83,0.68 C3.83,0.30444637 4.13444637,0 4.51,0 C4.88555363,0 5.19,0.30444637 5.19,0.68 L5.19,12.17 C5.18462786,12.5433058 4.88330578,12.8446279 4.51,12.85 Z" id="Path" fill="#A8C5DD"></path>
                <path d="M29.4,22.4800193 L17.1,22.4800193 C16.75,22.4800193 15.63,22.25 15.35,21.57 L10.35,16 L15.35,10.43 C15.63,9.75 16.75,9.51998067 17.1,9.51998067 L29.4,9.51998067 C30.0886417,9.51734113 30.7499903,9.78904111 31.2378744,10.2750488 C31.7257586,10.7610565 32,11.4213532 32,12.11 L32,19.89 C32,20.5786468 31.7257586,21.2389435 31.2378744,21.7249512 C30.7499903,22.2109589 30.0886417,22.4826589 29.4,22.4800193 Z M17.1,21.1200407 L29.4,21.1200407 C29.7279455,21.1226663 30.0433759,20.9942554 30.276213,20.7632961 C30.5090501,20.5323367 30.64,20.2179563 30.64,19.89 L30.64,12.11 C30.64,11.7820437 30.5090501,11.4676633 30.276213,11.2367039 C30.0433759,11.0057446 29.7279455,10.8773337 29.4,10.8799593 L17.1,10.8799593 C16.9418987,10.8987665 16.7871212,10.9391432 16.64,11 L16.64,11 L12.16,16 L16.64,21 C16.7871212,21.0608568 16.9418987,21.1012335 17.1,21.1200407 L17.1,21.1200407 Z" id="Shape" fill="#A8C5DD"></path>
                <path d="M25.54,14.76 L17.83,14.76 C17.4583574,14.7545341 17.16,14.4516828 17.16,14.08 C17.16,13.902305 17.2305891,13.7318878 17.3562385,13.6062385 C17.4818878,13.4805891 17.652305,13.41 17.83,13.41 L25.54,13.41 C25.9100308,13.41 26.21,13.7099692 26.21,14.08 C26.21,14.4516828 25.9116426,14.7545341 25.54,14.76 Z" id="Path" fill="#2969F6"></path>
                <path d="M28.44,18.59 L17.83,18.59 C17.652305,18.59 17.4818878,18.5194109 17.3562385,18.3937615 C17.2305891,18.2681122 17.16,18.097695 17.16,17.92 C17.16,17.5483172 17.4583574,17.2454659 17.83,17.24 L28.44,17.24 C28.8116426,17.2454659 29.11,17.5483172 29.11,17.92 C29.11,18.097695 29.0394109,18.2681122 28.9137615,18.3937615 C28.7881122,18.5194109 28.617695,18.59 28.44,18.59 Z" id="Path" fill="#2969F6"></path>
                <path d="M4.51,20.51 C2.3730166,20.4998176 0.532439881,19.0007053 0.09,16.91 C0.0303662555,16.6103319 0.000222398916,16.305544 8.8817842e-16,16 C0.158022618,13.6309765 2.12571199,11.7901666 4.5,11.7901666 C6.87428801,11.7901666 8.84197738,13.6309765 9.00006823,16 C9.0015065,16.2550099 8.97806151,16.5095556 8.93,16.76 C8.56511098,18.9188083 6.69941282,20.5016971 4.51,20.51 L4.51,20.51 Z M4.51,12.85 C2.77030304,12.85 1.36,14.260303 1.36,16 C1.3601547,16.2147303 1.38024086,16.4289826 1.42,16.64 C1.73567613,18.1163551 3.05157976,19.1631966 4.56111047,19.1388494 C6.07064119,19.1145021 7.35210004,18.0257676 7.62,16.54 C7.6348878,16.3603078 7.6348878,16.1796922 7.62,16 C7.62013902,14.275805 6.23405594,12.8718945 4.51,12.85 L4.51,12.85 Z" id="Shape" fill="#032663"></path>
            </g>
        </g>
    </g>
</svg>