<svg width="32" height="32" xmlns="http://www.w3.org/2000/svg"><g fill-rule="nonzero" fill="none"><path d="M5.818 13.42a6.255 6.255 0 01-2.996-1.018 5.818 5.818 0 01-.97-.795 6.233 6.233 0 119.503-8 6.196 6.196 0 011.115 2.977.663.663 0 11-1.318.136 4.848 4.848 0 00-.873-2.356 4.752 4.752 0 00-.582-.64 4.916 4.916 0 10-6.167 7.583 4.965 4.965 0 002.356.805.66.66 0 010 1.309h-.068z" fill="#032663"/><path d="M11.016 22.38a.737.737 0 01-.204 0 8.32 8.32 0 01-3.336-2.036 8.393 8.393 0 1111.84-11.898c.358.333.683.7.97 1.096a8.398 8.398 0 011.154 2.346.66.66 0 11-1.26.388 6.953 6.953 0 00-.97-1.939 8.67 8.67 0 00-.776-.921 7.07 7.07 0 10-7.176 11.723.66.66 0 01-.203 1.28l-.04-.038z" fill="#A8C5DD"/><path d="M20.732 32a10.241 10.241 0 01-5.644-1.687 10.987 10.987 0 01-1.61-1.32c-4.016-4.016-4.016-10.528 0-14.545 4.017-4.016 10.53-4.016 14.546 0A10.27 10.27 0 0120.732 32zm0-19.258a8.98 8.98 0 00-6.332 15.38c.43.428.901.814 1.406 1.153a8.98 8.98 0 0012.315-12.732 8.61 8.61 0 00-.97-1.164 8.94 8.94 0 00-6.419-2.637z" fill="#2969F6"/><path d="M27.52 8.562v-.077a.97.97 0 010-.097l.61-4.276a.66.66 0 00-.552-.747.67.67 0 00-.746.562l-.427 2.91C19.869.212 15.97 1.938 15.796 1.938a.66.66 0 00.543 1.203s3.24-1.203 8.95 4.402l-2.637-.136a.67.67 0 00-.688.621.66.66 0 00.62.689l4.306.232a.67.67 0 00.262-.048h.067a.65.65 0 00.136-.087l.049-.059.087-.116s.029-.068.029-.078z" fill="#032663"/></g></svg>