<?xml version="1.0" encoding="UTF-8"?>
<svg width="32px" height="32px" viewBox="0 0 32 32" version="1.1" xmlns="http://www.w3.org/2000/svg" xmlns:xlink="http://www.w3.org/1999/xlink">
    <!-- Generator: sketchtool 59 (101010) - https://sketch.com -->
    <title>985EAB16-AC77-4708-ADA8-94E6D1FEFA09</title>
    <desc>Created with sketchtool.</desc>
    <g id="Page-1" stroke="none" stroke-width="1" fill="none" fill-rule="evenodd">
        <g id="Icons" transform="translate(-306.000000, -1157.000000)" fill-rule="nonzero">
            <g id="micro-icon-jointheteam" transform="translate(306.000000, 1157.000000)">
                <path d="M16,32 L-4.16282298e-09,32 L-4.16282298e-09,16 C-4.16282298e-09,15.8205587 0.0719401555,15.6486084 0.199760698,15.5226676 C0.32758124,15.3967267 0.500578679,15.3273218 0.68,15.3299253 C1.0516828,15.3299253 1.35453408,15.6283574 1.36,16 L1.36,30.64 L16,30.64 C16.3755536,30.64 16.68,30.9444464 16.68,31.32 C16.68,31.6955536 16.3755536,32 16,32 Z" id="Path" fill="#032663"></path>
                <path d="M16,15.33 L10.44,15.33 C10.34,15.33 10.04,15.33 10.02,14.84 C10.02,14.62 10.44,14.13 10.85,13.84 C11.9885022,12.8067658 12.3740858,11.1796027 11.8202956,9.74535144 C11.2665054,8.31110015 9.88745255,7.36529493 8.35,7.36529493 C6.81254745,7.36529493 5.43349462,8.31110015 4.87970442,9.74535144 C4.32591422,11.1796027 4.71149776,12.8067658 5.85,13.84 L5.95,13.91 C6.09,14.01 6.65,14.45 6.65,14.91 C6.64580374,15.0329558 6.60391177,15.1516497 6.53,15.25 C6.44758852,15.3217331 6.33828835,15.3545231 6.23,15.34 L1.36,15.34 L1.36,1.34 L16,1.34 C16.325861,1.2834901 16.5638105,1.00072463 16.5638105,0.67 C16.5638105,0.339275366 16.325861,0.0565098971 16,0 L0,0 L0,16.68 L6.19,16.68 C6.66801844,16.7008916 7.13270943,16.5193717 7.47,16.18 C7.8103052,15.8288742 8.00041702,15.3589752 8,14.87 C7.91251453,14.0100128 7.43271749,13.2386467 6.7,12.78 C5.91462028,12.035897 5.73284878,10.854382 6.25824941,9.90862054 C6.78365003,8.96285905 7.88283629,8.49295692 8.92954939,8.7666398 C9.97626248,9.04032268 10.7047673,9.98810911 10.7,11.07 C10.7019593,11.7111599 10.4418607,12.3252815 9.98,12.77 C9.28359676,13.2565849 8.81164703,14.0023375 8.67,14.84 C8.64804718,15.3222232 8.82512303,15.7922968 9.15977784,16.1401865 C9.49443265,16.4880763 9.95728828,16.6832422 10.44,16.68 L16,16.68 C16.2607714,16.7117988 16.516534,16.5905448 16.6569776,16.3685348 C16.7974213,16.1465248 16.7974213,15.8634752 16.6569776,15.6414652 C16.516534,15.4194552 16.2607714,15.2982012 16,15.33 Z" id="Path" fill="#A8C5DD"></path>
                <path d="M31.32,15.31 C30.9466942,15.3153721 30.6453721,15.6166942 30.64,15.99 L30.64,30.64 L16.7,30.64 L16.7,25.78 C16.7208916,25.3019816 16.5393717,24.8372906 16.2,24.5 C15.8441513,24.170635 15.3748065,23.9914958 14.89,24 C14.0346399,24.0782668 13.2615813,24.542102 12.79,25.26 C12.3470171,25.7327501 11.7278627,26.0006883 11.08,26 C9.99810911,26.0047673 9.05032268,25.2762625 8.7766398,24.2295494 C8.50295692,23.1828363 8.97285905,22.08365 9.91862054,21.5582494 C10.864382,21.0328488 12.045897,21.2146203 12.79,22 C13.2765849,22.6964032 14.0223375,23.168353 14.86,23.31 C15.3422232,23.3319528 15.8122968,23.154877 16.1601865,22.8202222 C16.5080763,22.4855674 16.7032422,22.0227117 16.7,21.54 L16.7,16 C16.7,15.6244464 16.3955536,15.32 16.02,15.32 C15.6444464,15.32 15.34,15.6244464 15.34,16 L15.34,21.54 C15.34,21.64 15.34,21.94 14.86,21.96 C14.64,21.96 14.14,21.54 13.86,21.13 C12.7068698,19.877839 10.8509287,19.5681299 9.3536961,20.3780132 C7.85646351,21.1878964 7.0999641,22.9107272 7.5168834,24.5611195 C7.93380271,26.2115117 9.41776218,27.3683616 11.12,27.37 C12.1629624,27.3665159 13.1581386,26.9322572 13.87,26.17 L13.94,26.08 C14.06,25.89 14.5,25.37 14.94,25.37 C15.066161,25.3734444 15.1882663,25.4153091 15.29,25.49 C15.3530987,25.5765467 15.3816267,25.6835265 15.37,25.79 L15.37,32 L32.0000736,32 L32.0000736,16 C32.0026778,15.8179264 31.9322191,15.6423856 31.804403,15.5126898 C31.6765868,15.382994 31.5020933,15.31 31.32,15.31 Z" id="Path" fill="#A8C5DD"></path>
                <path d="M25.78,16.66 L32,16.66 L32,0 L15.33,0 L15.33,6.2 C15.3107056,6.6748016 15.4921964,7.13578819 15.83,7.47 C16.1908603,7.78342659 16.6520368,7.95725464 17.13,7.96 C17.9854597,7.88229172 18.7569529,7.4134896 19.22,6.69 C19.8931843,5.990216 20.9239836,5.76956248 21.8246437,6.13244838 C22.7253038,6.49533427 23.3151968,7.3689826 23.3151968,8.34 C23.3151968,9.3110174 22.7253038,10.1846657 21.8246437,10.5475516 C20.9239836,10.9104375 19.8931843,10.689784 19.22,9.99 C18.7334151,9.29359676 17.9876625,8.82164703 17.15,8.68 C16.6704299,8.65804286 16.2028978,8.83406302 15.856882,9.16684323 C15.5108662,9.49962344 15.3167543,9.95993849 15.3199599,10.44 L15.3199599,16.66 L21.53,16.66 C21.8,16.66 21.94,16.82 21.95,17.15 C21.96,17.48 21.53,17.86 21.12,18.15 C19.9883114,19.1821159 19.6072192,20.8035932 20.1606721,22.2317642 C20.7141249,23.6599352 22.08834,24.6011859 23.62,24.6011859 C25.15166,24.6011859 26.5258751,23.6599352 27.0793279,22.2317642 C27.6327808,20.8035932 27.2516886,19.1821159 26.12,18.15 L26.03,18.09 C25.85,17.97 25.33,17.52 25.33,17.09 C25.3311322,16.9650041 25.3694228,16.8431703 25.44,16.74 C25.539265,16.6715813 25.6606417,16.6430221 25.78,16.66 L25.78,16.66 Z M24,17.12 C24.0754503,17.970973 24.5407209,18.7390387 25.26,19.2 C25.7332865,19.646766 26.0010586,20.2691553 26,20.92 C26.0153004,22.0120369 25.2853903,22.9743403 24.2296575,23.2539952 C23.1739247,23.5336501 22.0633449,23.0588772 21.5360291,22.102469 C21.0087133,21.1460609 21.2000079,19.9534993 22,19.21 C22.6958152,18.7273358 23.1679857,17.9848386 23.31,17.15 C23.3318629,16.6695185 23.1561321,16.2010225 22.8236688,15.8534472 C22.4912055,15.5058719 22.0309784,15.3095029 21.55,15.31 L16.67,15.31 L16.67,10.44 C16.67,10.17 16.84,10.03 17.16,10.02 C17.48,10.01 17.88,10.43 18.16,10.85 C19.1932342,11.9885022 20.8203973,12.3740858 22.2546486,11.8202956 C23.6888999,11.2665054 24.6347051,9.88745255 24.6347051,8.35 C24.6347051,6.81254745 23.6888999,5.43349462 22.2546486,4.87970442 C20.8203973,4.32591422 19.1932342,4.71149776 18.16,5.85 L18.09,5.94 C17.99,6.09 17.54,6.65 17.09,6.65 C16.9646822,6.64211539 16.8437923,6.60066742 16.74,6.53 C16.6714808,6.44585091 16.6391165,6.33796991 16.65,6.23 L16.65,1.35 L30.65,1.35 L30.65,15.35 L25.78,15.35 C25.3030248,15.3294641 24.8402989,15.5152831 24.51,15.86 C24.1862698,16.2000658 24.0039512,16.6504999 24,17.12 Z" id="Shape" fill="#2969F6"></path>
            </g>
        </g>
    </g>
</svg>