<?xml version="1.0" encoding="UTF-8"?>
<svg width="32px" height="32px" viewBox="0 0 32 32" version="1.1" xmlns="http://www.w3.org/2000/svg" xmlns:xlink="http://www.w3.org/1999/xlink">
    <!-- Generator: sketchtool 59 (101010) - https://sketch.com -->
    <title>85D53B20-0022-45ED-8594-0AF09EDD7F80</title>
    <desc>Created with sketchtool.</desc>
    <g id="Page-1" stroke="none" stroke-width="1" fill="none" fill-rule="evenodd">
        <g id="Icons" transform="translate(-306.000000, -1501.000000)" fill-rule="nonzero">
            <g id="micro-icon-edgecomputing" transform="translate(306.000000, 1501.000000)">
                <path d="M20.26,22.1575758 L11.59,22.1575758 C10.1164015,22.1514265 8.8888409,21.0605352 8.7542596,19.6375497 C8.61967829,18.2145642 9.62213664,16.9253536 11.07,16.6593939 L11.07,16.5527273 C11.0588717,14.7125751 12.5824376,13.2091826 14.48,13.1878788 C15.4920587,13.1883195 16.4503309,13.6297944 17.09,14.390303 C17.8042357,14.1035837 18.6089335,14.1159506 19.3134406,14.4244738 C20.0179478,14.732997 20.5595759,15.3102234 20.81,16.0193939 C22.3944396,16.3417906 23.480966,17.7608951 23.3408273,19.3248895 C23.2006886,20.8888839 21.8780379,22.1050034 20.26,22.1575758 L20.26,22.1575758 Z M11.59,17.929697 C10.7615729,17.929697 10.09,18.5809192 10.09,19.3842424 C10.09,20.1875657 10.7615729,20.8387879 11.59,20.8387879 L20.26,20.8387879 C21.2706811,20.8387879 22.09,20.0442968 22.09,19.0642424 C22.09,18.084188 21.2706811,17.289697 20.26,17.289697 L19.63,17.289697 L19.57,16.5430303 C19.4498553,16.1338718 19.1498632,15.7968518 18.75,15.6218182 C18.2708504,15.4136813 17.7121247,15.4809386 17.3,15.7963636 L16.68,16.2618182 L16.18,15.4084848 C15.8113704,14.8439793 15.1690353,14.5032326 14.48,14.506641 C13.3335502,14.5278944 12.4188182,15.4408686 12.43,16.5527273 C12.4273719,16.7391956 12.4509212,16.9251437 12.5,17.1054545 L12.73,17.9393939 L11.59,17.929697 Z" id="Shape" fill="#032663"></path>
                <path d="M16,7.28242424 L25.73,14.7878788 L21.95,26.4242424 L10.26,26.4242424 L6.32,14.7878788 L16,7.28242424 M16,5.59515152 L4.79,14.3224242 L9.28,27.7721212 L22.9,27.7721212 L27.26,14.3127273 L16,5.59515152 Z" id="Shape" fill="#A8C5DD"></path>
                <path d="M16,6.27395715 C14.8899638,6.27786074 13.887165,5.63195257 13.4605024,4.6382352 C13.0338398,3.64451784 13.2676263,2.49935991 14.0525456,1.73822604 C14.8374649,0.977092165 16.018409,0.750390114 17.0431801,1.16412354 C18.0679511,1.57785697 18.7340439,2.55026796 18.7300183,3.62666667 C18.7245156,5.08650646 17.5054598,6.26862116 16,6.27395715 Z M16,2.26909091 C15.4328604,2.26516257 14.9193085,2.59342298 14.6994608,3.10039061 C14.4796131,3.60735824 14.5969102,4.19285909 14.9965087,4.58313623 C15.3961072,4.97341336 15.9990486,5.09135018 16.5234215,4.88180411 C17.0477944,4.67225804 17.3899855,4.17663422 17.39,3.62666667 C17.3926647,3.26750981 17.2473959,2.92217514 16.9864309,2.66729767 C16.725466,2.41242021 16.3703901,2.26905604 16,2.26909091 Z" id="Shape" fill="#2969F6"></path>
                <path d="M29.27,16.3393939 C28.8627405,16.3369174 28.4606195,16.2509994 28.09,16.0872727 C27.0939333,15.6221295 26.4837219,14.6220906 26.5427462,13.5515711 C26.6017705,12.4810516 27.3184655,11.5498064 28.36,11.190303 C29.0432894,10.9530389 29.7961702,10.9914634 30.45,11.2969697 C31.4140889,11.7746243 31.9977386,12.7579667 31.9393612,13.8062696 C31.8809838,14.8545725 31.1915268,15.7712504 30.18,16.1454545 C29.8894804,16.2574023 29.582154,16.3228998 29.27,16.3393939 L29.27,16.3393939 Z M29.27,12.3345455 C29.1133997,12.3366398 28.9581347,12.3628242 28.81,12.4121212 C28.1055462,12.6829277 27.7478105,13.4452406 28,14.1381818 C28.1242689,14.4760933 28.378757,14.7541511 28.71,14.9139394 C29.048556,15.0540776 29.431444,15.0540776 29.77,14.9139394 C30.4928625,14.6669047 30.8731077,13.8990941 30.62,13.1975758 C30.5015105,12.8563823 30.2452901,12.5764317 29.91,12.4218182 C29.7067011,12.3443703 29.4874415,12.3144713 29.27,12.3345455 L29.27,12.3345455 Z" id="Shape" fill="#2969F6"></path>
                <path d="M2.73,16.3393939 C2.42059277,16.3384587 2.11334795,16.2893486 1.82,16.1939394 C0.808473214,15.8197352 0.119016166,14.9030573 0.0606387986,13.8547544 C0.00226143136,12.8064515 0.585911098,11.8231091 1.55,11.3454545 C2.20266794,11.0355792 2.9573931,10.9970605 3.64,11.2387879 C4.68153454,11.5982913 5.39822946,12.5295365 5.45725377,13.600056 C5.51627808,14.6705755 4.90606671,15.6706144 3.91,16.1357576 C3.53566292,16.2828496 3.13368644,16.3522199 2.73,16.3393939 Z M2.73,12.3345455 C2.5220454,12.3357053 2.31700919,12.3820973 2.13,12.470303 C1.79470991,12.6249165 1.53848946,12.9048672 1.42,13.2460606 C1.1668923,13.947579 1.54713747,14.7153895 2.27,14.9624242 C2.60855599,15.1025624 2.99144401,15.1025624 3.33,14.9624242 C3.661243,14.8026359 3.91573106,14.5245781 4.04,14.1866667 C4.28791152,13.4828994 3.91027466,12.7160475 3.19,12.4606061 C3.04472387,12.3946931 2.88936458,12.3521177 2.73,12.3345455 L2.73,12.3345455 Z" id="Shape" fill="#2969F6"></path>
                <path d="M8,32 C6.96394151,31.9890782 6.0228511,31.4123853 5.56796657,30.5096687 C5.11308204,29.6069521 5.22221662,28.532632 5.85,27.7333333 L5.85,27.7333333 C6.28812168,27.1718362 6.94028949,26.8043172 7.6602946,26.7131701 C8.38029971,26.622023 9.10790883,26.8148728 9.68,27.2484848 C10.5645317,27.8971112 10.9586469,28.9988006 10.6783616,30.0392535 C10.3980763,31.0797064 9.49866578,31.8537346 8.4,32 L8,32 Z M7,28.5187879 C6.76227318,28.8068157 6.65566655,29.1762568 6.70471199,29.5420969 C6.75375743,29.907937 6.95423081,30.2386674 7.26,30.4581818 C7.54214796,30.6753469 7.90258123,30.77321 8.26,30.729697 C8.62665327,30.6817932 8.95811615,30.4931345 9.18,30.2060606 C9.64382538,29.6154879 9.53246036,28.7731634 8.93,28.3151515 C8.6463263,28.1009015 8.28716162,28.0033828 7.93,28.0436364 C7.56563935,28.0911678 7.23518153,28.2757714 7.01,28.5575758 L7,28.5187879 Z" id="Shape" fill="#2969F6"></path>
                <path d="M24.16,32 L23.8,32 C22.7066152,31.8557499 21.8091577,31.0895725 21.5230712,30.0561404 C21.2369846,29.0227084 21.6181022,27.9237076 22.49,27.2678788 C23.0620912,26.8342668 23.7897003,26.6414169 24.5097054,26.732564 C25.2297105,26.8237111 25.8818783,27.1912301 26.32,27.7527273 L26.32,27.7527273 C26.9370078,28.5533445 27.038475,29.6219967 26.5825973,30.5184027 C26.1267196,31.4148087 25.1906322,31.9872953 24.16,32 L24.16,32 Z M24.16,27.9951515 C23.6316531,27.9987606 23.1510998,28.2925274 22.9199141,28.7532279 C22.6887283,29.2139283 22.7468891,29.7618935 23.07,30.1672727 C23.2904628,30.4532916 23.6203848,30.6412056 23.9853654,30.6886382 C24.3503459,30.7360709 24.7196515,30.6390281 25.01,30.4193939 C25.3157692,30.1998796 25.5162426,29.8691491 25.565288,29.503309 C25.6143335,29.1374689 25.5077268,28.7680278 25.27,28.48 L25.27,28.48 C25.0427129,28.2005474 24.7133189,28.0165381 24.35,27.9660606 L24.16,27.9951515 Z" id="Shape" fill="#2969F6"></path>
            </g>
        </g>
    </g>
</svg>