<svg width="32" height="32" xmlns="http://www.w3.org/2000/svg"><g fill-rule="nonzero" fill="none"><path d="M29.41 32H2.59A2.59 2.59 0 010 29.41V2.59A2.59 2.59 0 012.59 0h26.82A2.59 2.59 0 0132 2.59v26.82A2.59 2.59 0 0129.41 32zM2.59 1.36c-.68 0-1.23.55-1.23 1.23v26.82c0 .68.55 1.23 1.23 1.23h26.82c.68 0 1.23-.55 1.23-1.23V2.59c0-.68-.55-1.23-1.23-1.23H2.59z" fill="#A8C5DD"/><path d="M23.62 25.41h-4.81V14.48c0-.1-.19-3.22-2.81-3.22a2.61 2.61 0 00-2 .74 5.47 5.47 0 00-1 3.5v9.88H8.37V6.59h5v1.23a8 8 0 014.06-1 5.68 5.68 0 014.31 1.68c2.08 2.21 1.89 5.74 1.88 5.89v11.02zm-3.47-1.34h2.13v-9.72c0-.07.16-3.15-1.52-4.94a4.37 4.37 0 00-3.33-1.28 5.77 5.77 0 00-4.23 1.48.67.67 0 01-.95.06A.65.65 0 0112 9a.59.59 0 010-.13v-1H9.72v16.2h1.94v-8.5A6.65 6.65 0 0113 11.12a3.91 3.91 0 013-1.2c3.12 0 4.08 3 4.15 4.53v9.62z" fill="#2969F6"/></g></svg>