<svg width="32" height="32" xmlns="http://www.w3.org/2000/svg"><g fill-rule="nonzero" fill="none"><path d="M16.57 6.555l-.1-.087v-.049h-.56a.299.299 0 00-.13 0v.049l-.1.087-8.81 12.218.26.369c0 .048 3.21 4.713 3.21 9.377v2.822c0 .364.304.659.68.659a.67.67 0 00.68-.66V28.52v-.272h8.62V31.341c0 .364.304.659.68.659a.67.67 0 00.68-.66V28.52c0-4.664 3.18-9.329 3.21-9.377l.26-.369-8.58-12.218zM20.4 26.92h-8.8a21.324 21.324 0 00-3.1-8.136l6.82-9.697v6.07c0 .365.304.66.68.66a.67.67 0 00.68-.66V9.047l6.82 9.697a21.322 21.322 0 00-3.1 8.184v-.01z" fill="#A8C5DD"/><path d="M16 19.52c-1.254 0-2.27-.986-2.27-2.201 0-1.216 1.016-2.201 2.27-2.201s2.27.985 2.27 2.2c0 1.216-1.016 2.202-2.27 2.202zm0-3.093c-.508 0-.92.4-.92.892s.412.892.92.892.92-.4.92-.892c0-.493-.412-.892-.92-.892z" fill="#032663"/><path d="M27.47.97v1.542h-9.32a2.092 2.092 0 00-.55-.902c-.424-.412-1-.644-1.6-.644-.6 0-1.176.232-1.6.644a2.064 2.064 0 00-.55.892H4.53V.97H0v4.392h4.53V3.821h9.32c.102.34.291.65.55.901.555.551 1.37.776 2.141.59a2.211 2.211 0 001.609-1.491h9.32v1.541H32V.97h-4.53zM3.19 4.063H1.34V2.269h1.85v1.794zm13.46-.262a.94.94 0 01-1.3 0 .882.882 0 01-.195-.973.925.925 0 011.495-.297c.36.352.36.919 0 1.27zm14 .262h-1.84V2.269h1.85l-.01 1.794z" fill="#2969F6"/></g></svg>