<?xml version="1.0" encoding="UTF-8"?>
<svg width="32px" height="32px" viewBox="0 0 32 32" version="1.1" xmlns="http://www.w3.org/2000/svg" xmlns:xlink="http://www.w3.org/1999/xlink">
    <!-- Generator: sketchtool 59 (101010) - https://sketch.com -->
    <title>4EF1DAAC-395C-44D3-BA7F-1F2419D9B563</title>
    <desc>Created with sketchtool.</desc>
    <g id="Page-1" stroke="none" stroke-width="1" fill="none" fill-rule="evenodd">
        <g id="Icons" transform="translate(-134.000000, -985.000000)" fill-rule="nonzero">
            <g id="micro-icon-approach" transform="translate(134.000000, 985.000000)">
                <path d="M27,32 C24.9485062,32.0202132 23.0886691,30.7972915 22.2942304,28.905757 C21.4997917,27.0142225 21.9286602,24.8300515 23.3793559,23.3793559 C24.8300515,21.9286602 27.0142225,21.4997917 28.905757,22.2942304 C30.7972915,23.0886691 32.0202132,24.9485062 32,27 C32,29.7614237 29.7614237,32 27,32 Z M27,23.24 C26.0021313,23.2318396 25.0430481,23.6260122 24.3393089,24.3335147 C23.6355698,25.0410172 23.2465178,26.002189 23.26,27 C23.2618598,27.252027 23.2886571,27.5032512 23.34,27.75 C23.6884339,29.5042611 25.2418014,30.758156 27.0300881,30.7286787 C28.8183748,30.6992015 30.3295724,29.3947918 30.62,27.63 C30.6519547,27.4214941 30.6686657,27.210936 30.67,27 C30.6833418,26.0143086 30.3038471,25.0638335 29.6152882,24.3583889 C28.9267292,23.6529444 27.9857253,23.2505381 27,23.24 L27,23.24 Z" id="Shape" fill="#2969F6"></path>
                <path d="M25.87,4.37 L9.41,4.37 C9.03444637,4.37 8.73,4.67444637 8.73,5.05 C8.73,5.42555363 9.03444637,5.73 9.41,5.73 L25.87,5.73 C28.5131621,5.73550088 30.6544991,7.87683794 30.66,10.52 C30.6619319,10.7949043 30.6384993,11.0694008 30.59,11.34 C30.2119561,13.6512446 28.2119502,15.3461649 25.87,15.34 L25.23,15.34 L27.23,13.19 C27.4346183,12.9095299 27.3950984,12.5199566 27.1383242,12.2862921 C26.88155,12.0526276 26.4899867,12.0499151 26.23,12.28 L23.23,15.56 C23.23,15.56 23.23,15.62 23.18,15.64 L23.18,15.64 C23.1597993,15.664288 23.1429799,15.6911991 23.13,15.72 C23.1255017,15.7565287 23.1255017,15.7934713 23.13,15.83 C23.13,15.83 23,16 23,16 L23,16 C23,16 23,16.07 23,16.11 C22.9942021,16.1464375 22.9942021,16.1835625 23,16.22 C23.0106858,16.2499685 23.0277446,16.2772626 23.05,16.3 L23.05,16.3 C23.05,16.3 23.05,16.35 23.1,16.38 L26.1,19.66 C26.2309354,19.8025838 26.4164349,19.8826032 26.61,19.8800616 C26.7753724,19.8782708 26.9347917,19.8180458 27.06,19.71 C27.2063414,19.588385 27.2950335,19.4110182 27.3045356,19.2209768 C27.3140376,19.0309353 27.2434804,18.8456061 27.11,18.71 L25.11,16.56 L25.75,16.56 C28.7477348,16.5675573 31.3112005,14.4059551 31.81,11.45 C32.1198379,9.66188062 31.6241159,7.82820646 30.4555175,6.43977273 C29.2869192,5.051339 27.5647646,4.25 25.75,4.25 L25.87,4.37 Z" id="Path" fill="#A8C5DD"></path>
                <path d="M20,26.93 C20.0047093,26.8934845 20.0047093,26.8565155 20,26.82 C20,26.82 20,26.74 20,26.71 L20,26.71 L19.95,26.63 L19.95,26.63 C19.9553878,26.6036055 19.9553878,26.5763945 19.95,26.55 L16.95,23.27 C16.828385,23.1236586 16.6510182,23.0349665 16.4609768,23.0254644 C16.2709353,23.0159624 16.0856061,23.0865196 15.95,23.22 C15.8074801,23.3471227 15.7259821,23.5290233 15.7259821,23.72 C15.7259821,23.9109767 15.8074801,24.0928773 15.95,24.22 L17.95,26.37 L6.16,26.37 C3.81957592,26.3719924 1.8219095,24.6790548 1.44,22.37 C1.39975349,22.0985261 1.37969847,21.8244409 1.38,21.55 C1.37999424,18.9084564 3.51846213,16.7655147 6.16,16.76 L11.66,16.76 C12.0355536,16.76 12.34,16.4555536 12.34,16.08 C12.34,15.7044464 12.0355536,15.4 11.66,15.4 L6.16,15.4 C2.85714162,15.533157 0.248143104,18.2494586 0.248143104,21.555 C0.248143104,24.8605414 2.85714162,27.576843 6.16,27.71 L17.81,27.71 L15.81,29.86 C15.6674801,29.9871227 15.5859821,30.1690233 15.5859821,30.36 C15.5859821,30.5509767 15.6674801,30.7328773 15.81,30.86 C15.9382749,30.9695037 16.1013422,31.0297677 16.27,31.03 C16.4600905,31.0297764 16.6414094,30.9499961 16.77,30.81 L19.77,27.53 C19.77181,27.503364 19.77181,27.476636 19.77,27.45 L19.77,27.45 C19.7902007,27.425712 19.8070201,27.3988009 19.82,27.37 L19.82,27.37 C19.82,27.37 19.82,27.29 19.82,27.25 C19.9144254,27.1978435 19.980486,27.1060926 20,27 L20,27 L20,26.93 Z" id="Path" fill="#A8C5DD"></path>
                <path d="M5.1,10.1 C3.05293719,10.0998997 1.20843962,8.8640264 0.429815953,6.97082506 C-0.348807716,5.07762371 0.0924924314,2.90166227 1.54716788,1.46138956 C3.00184332,0.0211168373 5.18208798,-0.398510643 7.0674483,0.39891184 C8.95280862,1.19633432 10.1702679,3.05303753 10.15,5.1 C10.1481894,5.38843758 10.1214229,5.67617752 10.07,5.96 C9.64929655,8.37006954 7.54641633,10.1217645 5.1,10.1 Z M5.1,1.34 C3.05492991,1.34551234 1.39993254,3.00492248 1.39993254,5.05 C1.39850214,5.30169849 1.42195004,5.55292598 1.47,5.8 C1.81843395,7.55426112 3.37180139,8.808156 5.16008811,8.77867875 C6.94837483,8.74920149 8.45957242,7.44479181 8.75,5.68 C8.78728428,5.47214755 8.80403159,5.26113148 8.8,5.05 C8.80000743,3.00492248 7.14507009,1.34551234 5.1,1.34 Z" id="Shape" fill="#2969F6"></path>
                <path d="M16,21.06 C13.5970396,21.0770778 11.5108178,19.4081004 11,17.06 C10.9381409,16.7301383 10.904685,16.3955791 10.9,16.06 C10.8172688,14.2003869 11.7622434,12.4455097 13.360339,11.4909962 C14.9584345,10.5364828 16.9515655,10.5364828 18.549661,11.4909962 C20.1477566,12.4455097 21.0927312,14.2003869 21.01,16.06 C21.0086477,16.3484601 20.9818775,16.6362399 20.93,16.92 C20.5118117,19.3150988 18.4313319,21.0621954 16,21.06 Z M16,12.3 C13.9721845,12.3219236 12.3398815,13.972066 12.34,16 C12.3434847,16.2514566 12.3668913,16.5022416 12.41,16.75 C12.7693791,18.4914976 14.3167619,19.7310598 16.0947119,19.7017126 C17.8726619,19.6723654 19.378292,18.3824097 19.68,16.63 C19.7115429,16.4214465 19.7282515,16.2109181 19.73,16 C19.73,15.013479 19.3360967,14.0677944 18.6357101,13.3730409 C17.9353235,12.6782875 16.9864886,12.2920012 16,12.3 L16,12.3 Z" id="Shape" fill="#032663"></path>
            </g>
        </g>
    </g>
</svg>