<?xml version="1.0" encoding="UTF-8"?>
<svg width="31px" height="32px" viewBox="0 0 31 32" version="1.1" xmlns="http://www.w3.org/2000/svg" xmlns:xlink="http://www.w3.org/1999/xlink">
    <!-- Generator: sketchtool 59 (101010) - https://sketch.com -->
    <title>69B2FA95-93AB-43D9-9FA1-B7E4A212163F</title>
    <desc>Created with sketchtool.</desc>
    <g id="Page-1" stroke="none" stroke-width="1" fill="none" fill-rule="evenodd">
        <g id="Icons" transform="translate(-478.000000, -985.000000)" fill-rule="nonzero">
            <g id="micro-icon-technologies" transform="translate(478.000000, 985.000000)">
                <path d="M29.0909091,15.93 C31.1272727,12.45 31.6024242,9 30.0606061,6.45 C29.0503424,4.87365576 27.4604888,3.79026156 25.6581818,3.45 C22.8072727,2.79 19.1709091,3.3 15.5151515,4.8 C11.7430303,3.34 8.0969697,2.86 5.25575758,3.56 C3.4631101,3.91178151 1.88331129,4.99308739 0.872727273,6.56 C-0.64,9.13 -0.096969697,12.56 1.91030303,16.04 C-0.096969697,19.55 -0.572121212,23 0.96969697,25.55 C1.97996059,27.1263442 3.56981422,28.2097384 5.37212121,28.55 C6.24741191,28.7510048 7.14209374,28.8483015 8.03878788,28.84 C10.6270026,28.7782264 13.1816838,28.222164 15.5733333,27.2 C17.9249062,28.176846 20.4279358,28.7086782 22.9624242,28.77 C23.9086105,28.7751825 24.8522192,28.6678063 25.7745455,28.45 C27.5671929,28.0982185 29.1469917,27.0169126 30.1575758,25.45 C31.670303,22.84 31.1563636,19.39 29.0909091,15.93 Z M22.9624242,4.51990426 C23.7708054,4.51659981 24.5771523,4.60377795 25.3672727,4.78 C26.8279307,5.04221439 28.1227686,5.90474701 28.9551515,7.17 C30.1381818,9.17 29.7890909,11.84 28.3054545,14.67 C26.1950265,11.7647636 23.561067,9.30653866 20.5478788,7.43 C19.4714846,6.74451454 18.3577236,6.12348757 17.2121212,5.57 C19.0634383,4.91041205 21.0040471,4.55605869 22.9624242,4.51990426 Z M11.0836364,8.63 C12.4903929,7.70722178 13.9733065,6.91415101 15.5151515,6.26 C17.0312974,6.90335261 18.4911852,7.67952628 19.8787879,8.58 C22.9023857,10.4625292 25.5168746,12.9680811 27.5587879,15.94 C25.5455283,18.9280866 22.9577617,21.4571623 19.9563636,23.37 C18.5616311,24.2872141 17.0917896,25.0768889 15.5636364,25.73 C14.0319815,25.090619 12.5559364,24.3178242 11.1515152,23.42 C8.12791738,21.5374708 5.5134284,19.0319189 3.47151515,16.06 C5.4859028,13.0693921 8.0773767,10.5399196 11.0836364,8.63 Z M1.99757576,7.3 C2.81520105,6.02765627 4.10025689,5.15380954 5.55636364,4.88 C6.39003262,4.68659392 7.24249539,4.59264406 8.0969697,4.6 C10.0006026,4.63665271 11.88755,4.97389959 13.6921212,5.6 C12.5516705,6.15864921 11.4442799,6.78641337 10.3757576,7.48 C7.39051299,9.39061608 4.7896889,11.8758023 2.71515152,14.8 C1.20242424,12 0.833939394,9.28 1.99757576,7.3 Z M5.6630303,27.22 C4.20382855,26.9607531 2.91097892,26.097211 2.08484848,24.83 C0.901818182,22.83 1.24121212,20.16 2.72484848,17.33 C4.83527655,20.2352364 7.469236,22.6934613 10.4824242,24.57 C11.5522865,25.2581767 12.6631793,25.8760703 13.8084848,26.42 C11.2086968,27.4202701 8.39917391,27.6962054 5.6630303,27.22 L5.6630303,27.22 Z M29.0327273,24.7 C28.215102,25.9723437 26.9300461,26.8461905 25.4739394,27.12 C22.7544373,27.6264103 19.9532628,27.377919 17.3575758,26.4 C18.4948012,25.8474549 19.5960999,25.2194717 20.6545455,24.52 C23.63979,22.6093839 26.2406141,20.1241977 28.3151515,17.2 C29.8278788,20 30.1963636,22.72 29.0327273,24.7 Z" id="Shape" fill="#A8C5DD"></path>
                <path d="M15.5151515,32 C12.8290909,32 10.3854545,30.45 8.63030303,27.64 C6.87515152,24.83 5.89575758,20.73 5.87636364,16.05 C5.87636364,6.63 9.75515152,0.05 15.4375758,0.05 L15.4375758,0.05 C18.1236364,0.05 20.5769697,1.6 22.3224242,4.41 C24.0678788,7.22 25.1345455,11.27 25.1539394,16 C25.1733333,20.73 24.2521212,24.7 22.4775758,27.62 C20.7030303,30.54 18.2981818,32 15.5927273,32 L15.5151515,32 Z M15.5151515,1.34 L15.5151515,1.34 C10.5309091,1.37 7.1369697,7.41 7.17575758,16 C7.17575758,20.43 8.08727273,24.19 9.75515152,26.87 C11.2581818,29.29 13.3236364,30.62 15.5733333,30.62 L15.5733333,30.62 C17.8230303,30.62 19.8787879,29.26 21.3915152,26.81 C23.04,24.11 23.8933333,20.35 23.8739394,15.92 C23.8545455,11.49 22.9624242,7.73 21.2945455,5.05 C19.7721212,2.67 17.7066667,1.34 15.5151515,1.34 Z" id="Shape" fill="#2969F6"></path>
                <path d="M15.3309091,20.8100041 C13.5654109,20.8124455 11.9724446,19.7175577 11.2952155,18.0361615 C10.6179865,16.3547653 10.9899543,14.4182084 12.2375758,13.13 C13.0464865,12.2762661 14.1540684,11.793446 15.3115152,11.79 C16.4742522,11.7954934 17.5897816,12.2649671 18.4242424,13.1 C19.6765877,14.3825 20.058655,16.3155951 19.392952,18.001252 C18.7272491,19.6869088 17.1442679,20.7947027 15.3793939,20.8100041 L15.3309091,20.8100041 Z M15.3309091,13.1499956 L15.3309091,13.1499956 C14.5199815,13.1526251 13.7435705,13.488734 13.1738076,14.0838109 C12.6040446,14.6788879 12.2880058,15.483765 12.2957576,16.32 C12.3063883,18.0479887 13.6649552,19.444549 15.3406061,19.4500173 L15.3406061,19.4500173 C16.1505765,19.4527965 16.9271418,19.1173124 17.4933333,18.52 C18.3633894,17.6167975 18.6206968,16.2622936 18.1454231,15.087304 C17.6701495,13.9123145 16.555747,13.1478757 15.3212121,13.1499956 L15.3309091,13.1499956 Z" id="Shape" fill="#032663"></path>
            </g>
        </g>
    </g>
</svg>