<?xml version="1.0" encoding="UTF-8"?>
<svg width="32px" height="32px" viewBox="0 0 32 32" version="1.1" xmlns="http://www.w3.org/2000/svg" xmlns:xlink="http://www.w3.org/1999/xlink">
    <!-- Generator: sketchtool 59 (101010) - https://sketch.com -->
    <title>AFA4E0BB-6F63-492B-A624-F3B46499DC53</title>
    <desc>Created with sketchtool.</desc>
    <g id="Page-1" stroke="none" stroke-width="1" fill="none" fill-rule="evenodd">
        <g id="Icons" transform="translate(-478.000000, -1157.000000)" fill-rule="nonzero">
            <g id="micro-icon-startup" transform="translate(478.000000, 1157.000000)">
                <path d="M30.5,8.65939394 L30.32,8.65939394 C27.2797244,7.86655797 24.9078478,5.55916089 24.1,2.60848485 C24.0499828,2.38329926 24.1276543,2.14934396 24.3037564,1.99474762 C24.4798586,1.84015129 24.7276372,1.7884008 24.9537564,1.85899005 C25.1798757,1.9295793 25.3499828,2.11178411 25.4,2.3369697 L25.4,2.3369697 C26.1112571,4.81196809 28.1196962,6.73741384 30.68,7.39878788 C31.0070761,7.47806271 31.21996,7.78363207 31.1737205,8.10746457 C31.1274809,8.43129706 30.8369841,8.66927964 30.5,8.65939394 L30.5,8.65939394 Z" id="Path" fill="#2969F6"></path>
                <path d="M21.65,14.2448486 C19.8297196,14.2448486 18.3509987,12.8196337 18.3399877,11.0545455 C18.3363471,9.75238576 19.1443752,8.5771267 20.3853581,8.07961737 C21.6263409,7.58210803 23.0543219,7.86095227 24,8.78545455 C25.2841338,10.0343626 25.2841338,12.0553344 24,13.3042424 C23.3757765,13.9068106 22.53079,14.2450231 21.65,14.2448486 Z M21.65,9.13454545 C20.7279928,9.10528009 19.9049551,9.69132845 19.657729,10.5531525 C19.410503,11.4149766 19.8032337,12.3289681 20.6083854,12.7655891 C21.413537,13.2022101 22.4222055,13.0481751 23.05,12.3927273 C23.4134129,12.0323335 23.6178515,11.5488975 23.62,11.0448485 C23.6148382,10.5316644 23.3903201,10.0435626 23,9.6969697 C22.6398887,9.35019021 22.1572901,9.14913453 21.65,9.13454545 L21.65,9.13454545 Z" id="Shape" fill="#2969F6"></path>
                <path d="M4.88,24.6690909 L0.14,20.0921212 L3.62,16.6012121 C3.74712267,16.463011 3.92902329,16.3839826 4.12,16.3839826 C4.31097671,16.3839826 4.49287733,16.463011 4.62,16.6012121 C4.87787291,16.8573749 4.87787291,17.2662614 4.62,17.5224242 L2,20.0727273 L4.84,22.8169697 L7.39,20.2569697 C7.5561285,20.08375 7.80493703,20.0096312 8.04270182,20.0625331 C8.28046661,20.115435 8.47106554,20.2873206 8.54270183,20.5134422 C8.61433812,20.7395638 8.55612851,20.9855682 8.39,21.1587879 L4.88,24.6690909 Z" id="Path" fill="#032663"></path>
                <path d="M12.49,32 L7.74,27.4327273 L11.22,23.9321212 C11.3861285,23.7589015 11.634937,23.6847827 11.8727018,23.7376847 C12.1104666,23.7905866 12.3010655,23.9624721 12.3727018,24.1885937 C12.4443381,24.4147153 12.3861285,24.6607197 12.22,24.8339394 L9.63,27.4133333 L12.47,30.1478788 L15,27.5878788 C15.1271227,27.4496776 15.3090233,27.3706493 15.5,27.3706493 C15.6909767,27.3706493 15.8728773,27.4496776 16,27.5878788 C16.2578729,27.8440416 16.2578729,28.2529281 16,28.5090909 L12.49,32 Z" id="Path" fill="#032663"></path>
                <path d="M22.44,19.3939394 L27.84,14.1478788 C32,10.0363636 32,2.30787879 32,1.93939394 C32.0007859,1.65421995 31.88161,1.38106748 31.67,1.1830303 C31.4807914,1.03538452 31.2426386,0.959554775 31,0.96969697 C30.65,0.96969697 22.67,0.96969697 18.43,5.03272727 L13,10.2981818 C12.8906844,10.4215033 12.7702036,10.535088 12.64,10.6375758 C11.3865082,10.1453122 9.95071888,10.4321832 9,11.3648485 L8.09,12.2472727 C6.76242273,12.0426223 5.54594142,11.4066543 4.64,10.4436364 L4.16,9.97818182 L0,14.0218182 L0.48,14.4775758 L0.48,14.4775758 L0.98,14.9624242 L3.63,17.5127273 L3.63,17.5127273 L7.42,21.1684848 L7.42,21.1684848 L15,28.4993939 L15,28.4993939 L17.19,30.6230303 L18.19,31.5345455 L18.19,31.5345455 L18.66,31.990303 L22.82,27.9563636 L22.34,27.5006061 C21.324173,26.6086058 20.6595987,25.4020028 20.46,24.0872727 L21.35,23.2145455 C21.9858003,22.612273 22.3460107,21.787937 22.35,20.9260606 C22.3456714,20.5207643 22.2643112,20.119716 22.11,19.7430303 C22.28,19.529697 22.42,19.3939394 22.44,19.3939394 Z M19.33,5.96363636 C22.72,2.72484848 29.12,2.32727273 30.65,2.27878788 C30.65,3.69454545 30.23,9.92969697 26.89,13.2266667 L21.52,18.4242424 C21.4490398,18.4811197 21.3822142,18.5426802 21.32,18.6084848 C20.0127562,17.3628453 17.9172438,17.3628453 16.61,18.6084848 L11.68,23.3987879 L8.85,20.7030303 L13.76,15.9418182 C14.3982703,15.3371908 14.7586906,14.5088794 14.76,13.6436364 C14.7551518,12.7875971 14.3946534,11.9695932 13.76,11.3745455 L13.94,11.2 L19.33,5.96363636 Z M10,12.2860606 C10.3755332,11.9189088 10.8867249,11.7123911 11.42,11.7123911 C11.9532751,11.7123911 12.4644668,11.9189088 12.84,12.2860606 C13.2155541,12.6498293 13.4265733,13.1434487 13.4265733,13.6581818 C13.4265733,14.1729149 13.2155541,14.6665343 12.84,15.030303 L7.89,19.7818182 L5.05,17.0472727 L10,12.2860606 Z M4.22,11.8109091 C5.02138095,12.5129445 5.96966397,13.0388726 7,13.3527273 L4.1,16.1357576 L1.9,14.0121212 L4.22,11.8109091 Z M20.92,27.9466667 L18.65,30.1575758 L16.41,27.9951515 L19.3,25.2121212 C19.6260379,26.228073 20.1791807,27.161773 20.92,27.9466667 L20.92,27.9466667 Z M20.39,22.3030303 L15.46,27.0933333 L12.64,24.3684848 L17.57,19.5781818 C18.3500749,18.826233 19.6099251,18.826233 20.39,19.5781818 C21.1588434,20.3334734 21.1588434,21.5477388 20.39,22.3030303 Z" id="Shape" fill="#A8C5DD"></path>
            </g>
        </g>
    </g>
</svg>