<?xml version="1.0" encoding="UTF-8"?>
<svg width="31px" height="32px" viewBox="0 0 31 32" version="1.1" xmlns="http://www.w3.org/2000/svg" xmlns:xlink="http://www.w3.org/1999/xlink">
    <!-- Generator: sketchtool 59 (101010) - https://sketch.com -->
    <title>302D0202-CAFF-434C-BAB2-52D17262EBDD</title>
    <desc>Created with sketchtool.</desc>
    <g id="Page-1" stroke="none" stroke-width="1" fill="none" fill-rule="evenodd">
        <g id="Icons" transform="translate(-307.000000, -813.000000)" fill-rule="nonzero">
            <g id="micro-icon-culture" transform="translate(306.000000, 813.000000)">
                <path d="M6.13818182,12.9357576 C6.05193115,12.9346751 5.96656078,12.9182578 5.88606061,12.8872727 C5.72377291,12.8207277 5.59468568,12.6922662 5.52735297,12.5303037 C5.46002026,12.3683413 5.45999139,12.1862262 5.52727273,12.0242424 C6.90018904,8.697727 9.70056672,6.16812375 13.1490909,5.13939394 C13.381605,5.04782655 13.6459025,5.09556454 13.8316916,5.26268673 C14.0174806,5.42980893 14.0928337,5.6875957 14.0263058,5.92847208 C13.9597779,6.16934846 13.7628017,6.35192031 13.5175758,6.4 C10.4445821,7.30551117 7.94811259,9.55590009 6.72969697,12.5187879 C6.63119116,12.7616193 6.39999452,12.924594 6.13818182,12.9357576 L6.13818182,12.9357576 Z" id="Path" fill="#A8C5DD"></path>
                <path d="M12.2666667,27.4812121 C12.180416,27.4801297 12.0950456,27.4637123 12.0145455,27.4327273 C8.66282778,26.0537534 6.12157026,23.2233922 5.11030303,19.7430303 C5.06003802,19.5897637 5.07799671,19.4222928 5.15961613,19.2831687 C5.24123556,19.1440447 5.378659,19.0466598 5.5369697,19.0157576 C5.69767997,18.9523975 5.87700684,18.9556497 6.03531405,19.0247954 C6.19362125,19.093941 6.31787296,19.2232864 6.38060606,19.3842424 C7.2907248,22.4578409 9.54415511,24.953729 12.5090909,26.1721212 C12.8468782,26.3110129 13.010879,26.6951201 12.8775758,27.0351515 C12.7855883,27.295725 12.5428764,27.4729432 12.2666667,27.4812121 L12.2666667,27.4812121 Z" id="Path" fill="#A8C5DD"></path>
                <path d="M19.5878788,27.859422 C19.2614811,27.8595141 18.9841101,27.6208234 18.9355734,27.2980546 C18.8870368,26.9752858 19.0819415,26.6655762 19.3939394,26.569697 C22.4568044,25.6688049 24.9503946,23.4352605 26.1818182,20.489697 C26.3244457,20.1556979 26.7074735,19.9964616 27.0448485,20.1309091 C27.3749924,20.2773287 27.5326766,20.656623 27.4036364,20.9939394 C26.0179951,24.3049105 23.2150009,26.8158519 19.7721212,27.830303 C19.7127543,27.8501872 19.650484,27.8600194 19.5878788,27.859422 Z" id="Path" fill="#A8C5DD"></path>
                <path d="M27.1515152,14.0315152 C26.860416,14.027126 26.6055652,13.8350078 26.5212121,13.5563636 C25.6032347,10.4903622 23.3570682,7.99857682 20.4024242,6.76848485 C20.1766029,6.68540082 20.0139672,6.48590617 19.9780856,6.24797602 C19.942204,6.01004588 20.038774,5.7714611 20.23005,5.62547571 C20.421326,5.47949032 20.6769354,5.44928529 20.8969697,5.54666667 C24.2341707,6.91986381 26.7670067,9.73452235 27.7818182,13.1975758 C27.832655,13.3647618 27.8140016,13.545378 27.7300694,13.6986455 C27.6461372,13.851913 27.5040031,13.9649089 27.3357576,14.0121212 C27.2756865,14.0279144 27.2135581,14.0344543 27.1515152,14.0315152 L27.1515152,14.0315152 Z" id="Path" fill="#A8C5DD"></path>
                <path d="M17.0569697,9.6969697 L16.8242424,9.6969697 C14.7532805,9.58313778 13.0456148,8.0332895 12.7321212,5.9830303 C12.6867255,5.69122572 12.6704839,5.39562757 12.6836364,5.10060606 C12.8192417,2.69402474 14.8726471,0.848559175 17.28,0.96969697 C18.4379528,1.02062858 19.5259104,1.53837047 20.2957576,2.40484848 C21.0774299,3.2624419 21.4826093,4.39764294 21.4206061,5.55636364 L21.4206061,5.55636364 C21.4116945,5.80719849 21.3825084,6.05690157 21.3333333,6.3030303 C20.8855959,8.300612 19.104039,9.71454607 17.0569697,9.6969697 Z M17.0569697,2.25939394 C15.4273135,2.26703165 14.0849551,3.54142254 13.9927273,5.16848485 C13.968305,5.37463273 13.968305,5.58294303 13.9927273,5.78909091 C14.2078522,7.25039917 15.434837,8.35027629 16.9108831,8.40494467 C18.3869291,8.45961304 19.6919131,7.45351253 20.0145455,6.01212121 C20.0514285,5.83972144 20.0741306,5.66459065 20.0824242,5.48848485 L20.0824242,5.48848485 C20.1299323,4.67421052 19.8487528,3.87491989 19.3018982,3.26973416 C18.7550437,2.66454842 17.9882419,2.30407315 17.1733333,2.26909091 L17.0569697,2.25939394 Z" id="Shape" fill="#2969F6"></path>
                <path d="M16.4848485,20.8581818 L16.2521212,20.8581818 C14.1789606,20.7451413 12.4680553,19.1960237 12.150303,17.1442424 C12.121327,16.8508146 12.121327,16.555246 12.150303,16.2618182 C12.104121,14.6137067 12.9867427,13.0791061 14.4345391,12.2902525 C15.8823354,11.5013989 17.650344,11.5917638 19.0101675,12.5241179 C20.369991,13.4564721 21.0915517,15.0730643 20.8775758,16.7078788 C20.8624443,16.9560606 20.8267666,17.2025612 20.7709091,17.4448485 C20.3303004,19.4537337 18.5413862,20.8783894 16.4848485,20.8581818 Z M16.4848485,13.4206041 C14.8530784,13.418755 13.5080054,14.6997769 13.430303,16.329697 C13.4061031,16.5326144 13.4061031,16.7376887 13.430303,16.9406061 C13.6562257,18.3903735 14.8781515,19.476531 16.344408,19.5309244 C17.8106646,19.5853178 19.109707,18.5926801 19.4424242,17.1636364 C19.4799334,16.9913446 19.5026424,16.8161611 19.510303,16.64 L19.510303,16.64 C19.5524732,15.8280152 19.2691703,15.0327253 18.7231406,14.4302726 C18.177111,13.8278199 17.4134203,13.4679268 16.6012121,13.430303 L16.4848485,13.4206041 Z" id="Shape" fill="#032663"></path>
                <path d="M15.8933333,32 L15.670303,32 C13.6919284,31.9004995 12.0274732,30.4836723 11.613305,28.5465788 C11.1991369,26.6094852 12.1386907,24.6358974 13.9034044,23.7360907 C15.6681181,22.836284 17.8172701,23.2349772 19.1418182,24.7078788 C19.9253249,25.5677002 20.3275689,26.7079744 20.2569697,27.8690909 L20.2569697,27.8690909 C20.1283676,30.1855154 18.2133244,31.998423 15.8933333,32 Z M15.8933333,24.5624242 C14.6735787,24.5442861 13.559249,25.2513807 13.0562002,26.3627187 C12.5531513,27.4740567 12.7572159,28.7779245 13.5757576,29.6824242 C14.1253975,30.2767511 14.8902913,30.6260177 15.6993939,30.6521212 C17.3886434,30.7291805 18.8248273,29.431424 18.9187879,27.7430303 L18.9187879,27.7430303 C18.968809,26.9269589 18.6853414,26.1255508 18.1333333,25.5224242 C17.5822627,24.9356672 16.8235971,24.5876555 16.0193939,24.5527273 L15.8933333,24.5624242 Z" id="Shape" fill="#2969F6"></path>
                <path d="M27.6169697,21.430303 L27.3939394,21.430303 C24.9368555,21.3692551 22.9855776,19.3438819 23.0161039,16.8862293 C23.0466302,14.4285767 25.0476124,12.4522942 27.5054545,12.4522942 C29.9632967,12.4522942 31.9642789,14.4285767 31.9948052,16.8862293 C32.0253315,19.3438819 30.0740536,21.3692551 27.6169697,21.430303 L27.6169697,21.430303 Z M27.6169697,13.9927273 C26.8586029,13.993697 26.1270154,14.2732187 25.5612121,14.7781818 C24.3053093,15.9147988 24.2055699,17.8532113 25.3381818,19.1127273 C26.2664089,20.1439192 27.7716842,20.4227575 29.0076852,19.7924688 C30.2436862,19.1621801 30.9019662,17.7800543 30.6124155,16.4231745 C30.3228647,15.0662947 29.1577412,14.0732733 27.7721212,14.0024242 L27.6169697,13.9927273 Z" id="Shape" fill="#2969F6"></path>
                <path d="M5.33333333,20.2764103 L5.10060606,20.2764103 C3.01660237,20.1677284 1.29969004,18.6018127 1.00020689,16.5365808 C0.700723737,14.4713489 1.90211593,12.4822444 3.86942012,11.7861214 C5.8367243,11.0899984 8.02178275,11.8808203 9.08786473,13.6747942 C10.1539467,15.4687681 9.80400556,17.7660319 8.25212121,19.1612121 C7.45215673,19.8836761 6.41123513,20.2813704 5.33333333,20.2764103 Z M5.33333333,12.8387879 C3.64099897,12.795944 2.23435906,14.1331202 2.19151515,15.8254545 C2.14867124,17.5177889 3.48584746,18.9244288 5.17818182,18.9672727 C5.99144148,19.0180137 6.79012386,18.7342713 7.38909091,18.1818182 C8.24553878,17.4145971 8.60038728,16.2324796 8.30806268,15.1204196 C8.01573809,14.0083596 7.12544705,13.1535489 6.00242424,12.9066667 C5.83586623,12.8738916 5.66747777,12.851224 5.49818182,12.8387879 L5.33333333,12.8387879 Z" id="Shape" fill="#2969F6"></path>
            </g>
        </g>
    </g>
</svg>