<?xml version="1.0" encoding="UTF-8"?>
<svg width="32px" height="32px" viewBox="0 0 32 32" version="1.1" xmlns="http://www.w3.org/2000/svg" xmlns:xlink="http://www.w3.org/1999/xlink">
    <!-- Generator: sketchtool 59 (101010) - https://sketch.com -->
    <title>696E1D22-A86E-4BF4-BA3B-8DDD2E25F38F</title>
    <desc>Created with sketchtool.</desc>
    <g id="Page-1" stroke="none" stroke-width="1" fill="none" fill-rule="evenodd">
        <g id="Icons" transform="translate(-650.000000, -1157.000000)" fill-rule="nonzero">
            <g id="micro-icon-sme" transform="translate(650.000000, 1157.000000)">
                <path d="M14.8266667,24.8 L5.12969697,24.8 L5.12969697,16.92 L14.8266667,16.92 L14.8266667,24.8 Z M6.43878788,23.44 L13.5078788,23.44 L13.5078788,18.28 L6.43878788,18.28 L6.43878788,23.44 Z" id="Shape" fill="#032663"></path>
                <polygon id="Path" fill="#032663" points="25.910303 30.68 24.5915152 30.68 24.5915152 17.31 17.9006061 17.31 17.9006061 30.68 16.5915152 30.68 16.5915152 15.95 25.910303 15.95"></polygon>
                <path d="M28.8872727,32 L2.1430303,32 L2.1430303,11.37 C2.1121951,11.1092286 2.22977471,10.853466 2.44505717,10.7130224 C2.66033963,10.5725787 2.93481189,10.5725787 3.15009435,10.7130224 C3.36537681,10.853466 3.48295642,11.1092286 3.45212121,11.37 L3.45212121,30.64 L27.5781818,30.64 L27.5781818,11.22 C27.5473466,10.9592286 27.6649262,10.703466 27.8802087,10.5630224 C28.0954911,10.4225787 28.3699634,10.4225787 28.5852459,10.5630224 C28.8005283,10.703466 28.9181079,10.9592286 28.8872727,11.22 L28.8872727,32 Z" id="Path" fill="#A8C5DD"></path>
                <path d="M31.030303,6 C31.0381753,5.95704689 31.0381753,5.91295311 31.030303,5.87 C31.0344709,5.83011546 31.0344709,5.78988454 31.030303,5.75 L27.6751515,0 L3.35515152,0 L0.0872727273,5.68 C0.0872727273,5.68 0.0872727273,5.76 0.0872727273,5.81 C0.0454530796,5.86623918 0.0157046481,5.93100399 0,6 C0,6 0,6 0,6 L0,7.09 C0,9.59 2.56,12 5.16848485,12 C6.71889071,12.0004131 8.2553857,11.69844 9.6969697,11.11 C11.4667959,12.1636707 13.4716159,12.7253336 15.5151515,12.74 C17.5623219,12.7333555 19.5707331,12.1637826 21.3333333,11.09 C22.9166882,11.692449 24.591099,12.0005529 26.2787879,12 C28.8602309,11.8876565 30.9266269,9.7523366 31.030303,7.09 L31.030303,6 C31.030303,6 31.030303,6 31.030303,6 Z M29.2460606,5.38 L21.8278788,5.38 L20.6836364,1.38 L26.9381818,1.38 L29.2460606,5.38 Z M19.3357576,1.38 L20.48,5.38 L10.56,5.38 L11.7042424,1.38 L19.3357576,1.38 Z M4.11151515,1.38 L10.3563636,1.38 L9.21212121,5.38 L1.79393939,5.38 L4.11151515,1.38 Z M1.29939394,7.09 L1.29939394,6.69 L9.0569697,6.69 L9.0569697,10 C7.81700916,10.482606 6.50349891,10.7331991 5.17818182,10.74 C3.28727273,10.7 1.29939394,8.85 1.29939394,7.09 Z M10.3369697,9.94 L10.3369697,6.69 L20.6933333,6.69 L20.6933333,9.91 C17.5150239,11.9045469 13.5260946,11.9161019 10.3369697,9.94 Z M26.2787879,10.7 C24.8228558,10.7063961 23.3754963,10.4700131 21.9927273,10 L21.9927273,6.69 L29.750303,6.69 L29.750303,7.09 C29.6723882,9.03800823 28.1670496,10.6033974 26.2787879,10.7 L26.2787879,10.7 Z" id="Shape" fill="#2969F6"></path>
            </g>
        </g>
    </g>
</svg>