<?xml version="1.0" encoding="UTF-8"?>
<svg width="32px" height="31px" viewBox="0 0 32 31" version="1.1" xmlns="http://www.w3.org/2000/svg" xmlns:xlink="http://www.w3.org/1999/xlink">
    <!-- Generator: sketchtool 59 (101010) - https://sketch.com -->
    <title>0D7FEF1A-2765-4C4F-BF3A-BB59EDB01D7D</title>
    <desc>Created with sketchtool.</desc>
    <g id="Page-1" stroke="none" stroke-width="1" fill="none" fill-rule="evenodd">
        <g id="Icons" transform="translate(-306.000000, -1674.000000)" fill-rule="nonzero">
            <g id="micro-icon-contact" transform="translate(306.000000, 1673.000000)">
                <path d="M0.669090909,32 C0.304917692,32 0.0096969697,31.7047793 0.0096969697,31.3406061 C0.0096969697,30.9764328 0.304917692,30.6812121 0.669090909,30.6812121 C6.24484848,30.6812121 8.88242424,24.9406061 8.90181818,24.8630303 C9.05177186,24.53099 9.44250517,24.3833797 9.77454545,24.5333333 C10.1065857,24.683287 10.2541961,25.0740203 10.1042424,25.4060606 C9.98787879,25.6775758 7.08848485,32 0.669090909,32 Z" id="Path" fill="#032663"></path>
                <path d="M24.0969697,15.4278788 L24.0969697,15.4278788 C23.736589,15.4225785 23.4472338,15.1289045 23.4472727,14.7684848 C23.6033474,12.9783475 22.9733885,11.2088 21.7212121,9.92 C20.466079,8.91117262 18.876776,8.41256775 17.270303,8.52363636 C16.9276501,8.53802037 16.6328288,8.28359483 16.5969266,7.94252447 C16.5610245,7.6014541 16.7964077,7.29121758 17.1345455,7.23393939 C19.1055294,7.07259473 21.0614416,7.68860267 22.5842424,8.95030303 C24.125304,10.4775096 24.9162085,12.605504 24.7466667,14.7684848 C24.7492637,14.9424692 24.6819619,15.1102243 24.5598375,15.2341714 C24.4377131,15.3581186 24.2709734,15.4278788 24.0969697,15.4278788 L24.0969697,15.4278788 Z" id="Path" fill="#2969F6"></path>
                <path d="M27.2484848,13.9927273 L27.2484848,13.9927273 C26.8896671,13.9927273 26.5987879,13.701848 26.5987879,13.3430303 C26.5987879,10.6181818 25.8715152,8.56242424 24.3975758,7.22424242 C22.8018191,5.94569351 20.784411,5.31244191 18.7442424,5.44969697 C18.5696445,5.46858692 18.3949554,5.4149008 18.2611008,5.30121611 C18.1272463,5.18753142 18.0459882,5.02383768 18.0363636,4.84848485 C18.0025631,4.49265286 18.2625396,4.17634813 18.6181818,4.14060606 C21.0199347,3.95300124 23.4008937,4.70378538 25.2606061,6.23515152 C27.0254545,7.83515152 27.9175758,10.2206061 27.8981818,13.3236364 C27.9034273,13.4992819 27.8373001,13.6695614 27.7148851,13.7956306 C27.5924701,13.9216998 27.4242087,13.9927273 27.2484848,13.9927273 Z" id="Path" fill="#2969F6"></path>
                <path d="M30.3806061,12.8775811 L30.3806061,12.8775811 C30.0217883,12.8775811 29.7309091,12.5866965 29.7309091,12.2278788 C29.7309091,8.80484848 28.809697,6.21575758 26.9381818,4.51878788 C24.0290909,1.90060606 19.8690909,2.29818182 19.830303,2.29818182 C19.472524,2.33220128 19.153395,2.0734481 19.1127273,1.71636364 C19.0937527,1.54386464 19.1445777,1.37094389 19.2538732,1.23614613 C19.3631686,1.10134837 19.5218496,1.01587842 19.6945455,0.998787879 C22.6289847,0.772785301 25.5371724,1.69006314 27.8109091,3.55878788 C29.9636364,5.49818182 31.049697,8.40727273 31.030303,12.2860606 C31.000102,12.6219806 30.7178782,12.8789306 30.3806061,12.8775811 Z" id="Path" fill="#2969F6"></path>
                <path d="M22.4484848,32 C19.6169697,32 14.5454545,30.8945455 8.32,24.6884848 L7.35030303,23.7187879 C-2.13333333,14.2739394 0.232727273,7.49575758 0.339393939,7.21454545 L0.387878788,7.07878788 L4.39272727,3.09333333 C4.77440883,2.69994706 5.29915451,2.47793393 5.84727273,2.47793393 C6.39539094,2.47793393 6.92013662,2.69994706 7.30181818,3.09333333 L12.4993939,8.27151515 C12.8952886,8.65183055 13.1190576,9.17708666 13.1190576,9.72606061 C13.1190576,10.2750346 12.8952886,10.8002907 12.4993939,11.1806061 L9.6969697,13.9151515 C9.6969697,14.2448485 9.99757576,15.5151515 12.790303,18.2981818 L13.76,19.2678788 C16.5527273,22.0509091 17.8327273,22.3224242 18.1624242,22.3418182 L20.9454545,19.5781818 C21.3284721,19.1872662 21.8527182,18.9669759 22.4,18.9669759 C22.9472818,18.9669759 23.4715279,19.1872662 23.8545455,19.5781818 L29.0521212,24.7563636 C29.4430368,25.1393811 29.6633272,25.6636272 29.6633272,26.2109091 C29.6633272,26.7581909 29.4430368,27.282437 29.0521212,27.6654545 L25.0084848,31.6121212 L24.8727273,31.6121212 C24.09224,31.8769482 23.272638,32.0080845 22.4484848,32 Z M1.53212121,7.75757576 C1.28969697,8.65939394 0.116363636,14.6230303 8.32,22.7393939 L9.28969697,23.7090909 C17.4351515,31.8351515 23.4084848,30.6715152 24.3393939,30.4290909 L28.1212121,26.6957576 C28.3681396,26.4196842 28.3681396,26.002134 28.1212121,25.7260606 L22.8848485,20.5090909 C22.750142,20.3734836 22.5668993,20.297224 22.3757576,20.297224 C22.1846158,20.297224 22.0013731,20.3734836 21.8666667,20.5090909 L18.7927273,23.5345455 C18.2787879,23.8157576 16.6884848,24.0484848 12.8193939,20.1987879 L11.849697,19.2290909 C7.97090909,15.350303 8.21333333,13.7793939 8.49454545,13.2751515 L8.61090909,13.129697 L11.52,10.2206061 C11.7669275,9.9445327 11.7669275,9.52698245 11.52,9.25090909 L6.34181818,4.02424242 C6.06748398,3.77280293 5.64645541,3.77280293 5.37212121,4.02424242 L1.53212121,7.75757576 Z" id="Shape" fill="#A8C5DD"></path>
            </g>
        </g>
    </g>
</svg>