<?xml version="1.0" encoding="UTF-8"?>
<svg width="32px" height="32px" viewBox="0 0 32 32" version="1.1" xmlns="http://www.w3.org/2000/svg" xmlns:xlink="http://www.w3.org/1999/xlink">
    <!-- Generator: sketchtool 59 (101010) - https://sketch.com -->
    <title>BC313F66-9A47-4608-8535-B57D11DD3E06</title>
    <desc>Created with sketchtool.</desc>
    <g id="Page-1" stroke="none" stroke-width="1" fill="none" fill-rule="evenodd">
        <g id="Icons" transform="translate(-134.000000, -1501.000000)" fill-rule="nonzero">
            <g id="micro-icon-cloudcomputing" transform="translate(134.000000, 1501.000000)">
                <path d="M24.1648485,17.18 C24.0617181,17.1915654 23.9576758,17.1915654 23.8545455,17.18 C23.4935591,17.1431158 23.2292551,16.812465 23.2630303,16.44 C23.2987968,16.0677328 23.6194279,15.7951693 23.9806061,15.83 C24.8989295,15.8958719 25.8071801,15.5991522 26.5212121,15 C27.3404091,14.098699 27.7493765,12.8807207 27.6460606,11.65 C27.6460606,11.2744464 27.9412813,10.97 28.3054545,10.97 C28.6696278,10.97 28.9648485,11.2744464 28.9648485,11.65 C29.069645,13.2651169 28.4976546,14.8490141 27.3939394,16 C26.4926759,16.7854445 25.3445896,17.2049873 24.1648485,17.18 Z" id="Path" fill="#032663"></path>
                <path d="M25.8424242,19.58 C29.1297475,19.4844504 31.7895734,16.7911511 31.9422495,13.4034095 C32.0949257,10.0156679 29.6888014,7.07956794 26.4242424,6.67 C25.8276087,4.16876482 23.6660575,2.40029086 21.1684848,2.37 C20.2257357,2.36979447 19.2994735,2.62497638 18.4824242,3.11 C17.2419344,1.17039721 15.1403418,0.0022514087 12.8872727,0 C10.8980609,0.0318596432 9.01915601,0.948288919 7.73333562,2.51381473 C6.44751523,4.07934053 5.88013082,6.14134364 6.1769697,8.17 C3.20281514,8.34451083 0.89561979,10.9144236 0.955656842,13.9858572 C1.01569389,17.0572907 3.42144194,19.5292323 6.4,19.58 L8.99878788,19.58 L8.99878788,28.42 L6.67151515,28.42 C6.30734193,28.42 6.01212121,28.7244464 6.01212121,29.1 C6.01212121,29.4755536 6.30734193,29.78 6.67151515,29.78 L10.3175758,29.78 L10.3175758,19.58 L15.8254545,19.58 L15.8254545,26.88 C15.8254545,27.2555536 16.1206753,27.56 16.4848485,27.56 C16.8490217,27.56 17.1442424,27.2555536 17.1442424,26.88 L17.1442424,19.58 L22.6521212,19.58 L22.6521212,29.78 L26.2981818,29.78 C26.662355,29.78 26.9575758,29.4755536 26.9575758,29.1 C26.9575758,28.7244464 26.662355,28.42 26.2981818,28.42 L23.9709091,28.42 L23.9709091,19.58 L25.8424242,19.58 Z M6.44848485,18.22 C4.11884736,18.22 2.23030303,16.2724387 2.23030303,13.87 C2.23030303,11.4675613 4.11884736,9.52 6.44848485,9.52 L7.83515152,9.52 L7.61212121,8.67 C7.48452026,8.17060558 7.4193456,7.65643864 7.41818182,7.14 C7.38582831,3.98857439 9.83147013,1.40390174 12.8872727,1.36 C14.7482048,1.37314974 16.4725,2.36983632 17.4545455,4 L18.0945455,5.14 L18.6860606,4.66 C19.3975129,4.08665724 20.2752669,3.77671103 21.1781818,3.78 C23.079257,3.77389252 24.7413011,5.10058133 25.2121212,7 L25.2121212,8 L25.8133333,8 C28.5499879,8.00000006 30.7684847,10.287825 30.7684847,13.11 C30.7684847,15.932175 28.5499879,18.22 25.8133333,18.22 L6.44848485,18.22 Z" id="Shape" fill="#A8C5DD"></path>
                <path d="M29.1878788,26.2 C27.6347871,26.2 26.3757576,27.4983742 26.3757576,29.1 C26.3757576,30.7016258 27.6347871,32 29.1878788,32 C30.7409704,32 32,30.7016258 32,29.1 C32,27.4983742 30.7409704,26.2 29.1878788,26.2 L29.1878788,26.2 Z M29.1878788,30.66 C28.5751706,30.6640504 28.0206062,30.2865475 27.7834064,29.7039478 C27.5462065,29.1213481 27.6732246,28.4487308 28.1050882,28.0004981 C28.5369519,27.5522654 29.1883566,27.4169553 29.7548155,27.657816 C30.3212743,27.8986766 30.6909091,28.4681317 30.6909091,29.1 C30.6909091,29.957674 30.0195456,30.6545021 29.1878788,30.66 Z" id="Shape" fill="#2969F6"></path>
                <path d="M16.4848485,26.2 C14.9317568,26.2 13.6727273,27.4983742 13.6727273,29.1 C13.6727273,30.7016258 14.9317568,32 16.4848485,32 C18.0379401,32 19.2969697,30.7016258 19.2969697,29.1 C19.2969697,27.4983742 18.0379401,26.2 16.4848485,26.2 L16.4848485,26.2 Z M16.4848485,30.66 C15.6493923,30.66 14.9721212,29.9615642 14.9721212,29.1 C14.9721212,28.2384358 15.6493923,27.54 16.4848485,27.54 C17.3203047,27.54 17.9975758,28.2384358 17.9975758,29.1 C17.9975758,29.9615642 17.3203047,30.66 16.4848485,30.66 Z" id="Shape" fill="#2969F6"></path>
                <path d="M3.78181818,26.2 C2.22872652,26.2 0.96969697,27.4983742 0.96969697,29.1 C0.96969697,30.7016258 2.22872652,32 3.78181818,32 C5.33490984,32 6.59393939,30.7016258 6.59393939,29.1 C6.59393939,27.4983742 5.33490984,26.2 3.78181818,26.2 L3.78181818,26.2 Z M3.78181818,30.66 C2.94636198,30.66 2.26909091,29.9615642 2.26909091,29.1 C2.26909091,28.2384358 2.94636198,27.54 3.78181818,27.54 C4.61727439,27.54 5.29454545,28.2384358 5.29454545,29.1 C5.29454545,29.9615642 4.61727439,30.66 3.78181818,30.66 Z" id="Shape" fill="#2969F6"></path>
            </g>
        </g>
    </g>
</svg>