<?xml version="1.0" encoding="UTF-8"?>
<svg width="32px" height="32px" viewBox="0 0 32 32" version="1.1" xmlns="http://www.w3.org/2000/svg" xmlns:xlink="http://www.w3.org/1999/xlink">
    <!-- Generator: sketchtool 59 (101010) - https://sketch.com -->
    <title>28BDB8C9-240E-40D8-8728-7F3B3558E534</title>
    <desc>Created with sketchtool.</desc>
    <g id="Page-1" stroke="none" stroke-width="1" fill="none" fill-rule="evenodd">
        <g id="Icons" transform="translate(-822.000000, -1673.000000)" fill-rule="nonzero">
            <g id="micro-icon-work" transform="translate(822.000000, 1673.000000)">
                <rect id="Rectangle" fill="#032663" x="0.64" y="15.32" width="30.68" height="1.36"></rect>
                <path d="M4.51,7.09 L15,7.09 C15.3700308,7.09 15.67,6.79003078 15.67,6.42 C15.67,6.04996922 15.3700308,5.75 15,5.75 L4.51,5.75 C4.13996922,5.75 3.84,6.04996922 3.84,6.42 C3.84,6.79003078 4.13996922,7.09 4.51,7.09 Z" id="Path" fill="#2969F6"></path>
                <path d="M4.51,10.92 L10.25,10.92 C10.6200308,10.92 10.92,10.6200308 10.92,10.25 C10.92,9.87996922 10.6200308,9.58 10.25,9.58 L4.51,9.58 C4.13996922,9.58 3.84,9.87996922 3.84,10.25 C3.84,10.6200308 4.13996922,10.92 4.51,10.92 Z" id="Path" fill="#2969F6"></path>
                <path d="M15,21.07 L4.51,21.07 C4.13996922,21.07 3.84,21.3699692 3.84,21.74 C3.84,22.1116828 4.13835739,22.4145341 4.51,22.42 L15,22.42 C15.3716426,22.4145341 15.67,22.1116828 15.67,21.74 C15.67,21.3699692 15.3700308,21.07 15,21.07 Z" id="Path" fill="#2969F6"></path>
                <path d="M10.25,24.9 L4.51,24.9 C4.13835739,24.9054659 3.84,25.2083172 3.84,25.58 C3.84,25.9500308 4.13996922,26.25 4.51,26.25 L10.25,26.25 C10.6200308,26.25 10.92,25.9500308 10.92,25.58 C10.92,25.2083172 10.6216426,24.9054659 10.25,24.9 L10.25,24.9 Z" id="Path" fill="#2969F6"></path>
                <path d="M29.41,32 L2.59,32 C1.1595825,32 0,30.8404175 0,29.41 L0,2.59 C0,1.1595825 1.1595825,0 2.59,0 L29.41,0 C30.8404175,0 32,1.1595825 32,2.59 L32,29.41 C32,30.8404175 30.8404175,32 29.41,32 Z M2.59,1.36 C1.91068976,1.36 1.36,1.91068976 1.36,2.59 L1.36,29.41 C1.36,30.0893102 1.91068976,30.64 2.59,30.64 L29.41,30.64 C30.0893102,30.64 30.64,30.0893102 30.64,29.41 L30.64,2.59 C30.64,1.91068976 30.0893102,1.36 29.41,1.36 L2.59,1.36 Z" id="Shape" fill="#A8C5DD"></path>
            </g>
        </g>
    </g>
</svg>