<svg xmlns="http://www.w3.org/2000/svg" xmlns:xlink="http://www.w3.org/1999/xlink" width="32" height="32" version="1.1" viewBox="0 0 32 32"><title>475DB6B8-1AFE-4254-8C6E-89AC27526F50</title><desc>Created with sketchtool.</desc><g id="Page-1" fill="none" fill-rule="evenodd" stroke="none" stroke-width="1"><g id="Icons" fill-rule="nonzero" transform="translate(-650.000000, -985.000000)"><g id="micro-icon-neon" transform="translate(650.000000, 985.000000)"><path id="Path" fill="#032663" d="M22.0705882,26.8121212 C21.8940186,26.4966873 21.505038,26.3846447 21.1952941,26.56 L16,29.6242424 L10.8047059,26.56 C10.4980254,26.3779134 10.1061429,26.4864504 9.92941176,26.8024242 C9.75268064,27.1183981 9.85802541,27.5221558 10.1647059,27.7042424 L15.68,30.9527273 L15.68,30.9527273 C15.7298271,30.9615949 15.7807611,30.9615949 15.8305882,30.9527273 C15.8826069,30.987871 15.9398233,31.0140711 16,31.030303 L16,31.030303 C16.0561599,31.0389345 16.1132519,31.0389345 16.1694118,31.030303 C16.2192389,31.0391707 16.2701729,31.0391707 16.32,31.030303 L16.32,31.030303 L21.8258824,27.7818182 C21.9939776,27.6974065 22.1178323,27.5414716 22.1648874,27.3550062 C22.2119425,27.1685408 22.1774905,26.9701989 22.0705882,26.8121212 L22.0705882,26.8121212 Z"/><path id="Path" fill="#032663" d="M3.27529412,17.454619 C3.10478231,17.4571877 2.94050152,17.3885648 2.81991783,17.2643271 C2.69933414,17.1400893 2.63272959,16.9708303 2.63522271,16.7951515 L2.63522271,9.44484848 L9.22352941,5.67272727 C9.53292933,5.49983486 9.91976731,5.61680366 10.0894118,5.93454545 C10.2444927,6.24044214 10.136241,6.61793546 9.84470588,6.78787879 L3.91529412,10.1818182 L3.91529412,16.7757576 C3.92038387,16.9539753 3.85520916,17.1267206 3.7346298,17.2546078 C3.61405043,17.382495 3.44834497,17.454619 3.27529412,17.454619 L3.27529412,17.454619 Z"/><path id="Path" fill="#032663" d="M28.7247059,17.454619 C28.5541941,17.4571877 28.3899133,17.3885648 28.2693296,17.2643271 C28.1487459,17.1400893 28.0821414,16.9708303 28.0847059,16.7951515 L28.0847059,10.2012121 L22.1552941,6.78787879 C21.8468977,6.6130936 21.7333691,6.21453324 21.9011765,5.89575758 C22.0778275,5.58108555 22.4637301,5.46565428 22.7764706,5.63393939 L29.3647059,9.40606061 L29.3647059,16.7757576 C29.3697956,16.9539753 29.3046209,17.1267206 29.1840416,17.2546078 C29.0634622,17.382495 28.8977567,17.454619 28.7247059,17.454619 Z"/><path id="Shape" fill="#A8C5DD" d="M14.1176471,18.4824242 L14.1176471,18.4824242 L14.1176471,18.3660606 L14.1176471,18.3660606 C14.2101718,18.0768375 14.0920814,17.7604981 13.8352941,17.609697 L7.83058824,14.0606061 C7.83058824,14.0606061 7.78352941,14.0606061 7.76470588,14.0606061 L7.63294118,14.0606061 L7.39764706,14.0606061 L7.27529412,14.0606061 C7.27529412,14.0606061 7.21882353,14.0606061 7.2,14.0606061 L1.26117647,17.5515152 C1.00438922,17.7023163 0.886298746,18.0186556 0.978823529,18.3078788 L0.978823529,18.3078788 C0.961543891,18.3448682 0.948893668,18.3839689 0.941176471,18.4242424 C0.941176471,18.4242424 0.941176471,18.4242424 0.941176471,18.4242424 L0.941176471,25.2121212 C0.911494883,25.4752519 1.0375285,25.7311384 1.26117647,25.8618182 L7.2,29.3624242 L7.2,29.3624242 C7.24667757,29.3711524 7.2944989,29.3711524 7.34117647,29.3624242 C7.39773527,29.3887695 7.45818099,29.4051583 7.52,29.4109091 L7.52941176,29.4109091 C7.58796363,29.4038054 7.64510416,29.3874521 7.69882353,29.3624242 C7.7455011,29.3711524 7.79332243,29.3711524 7.84,29.3624242 L7.84,29.3624242 L13.7788235,25.8618182 C14.0043989,25.7330438 14.1311357,25.4757296 14.0988235,25.2121212 L14.0988235,18.4242424 L14.1176471,18.4824242 Z M7.52941176,15.3890909 L12.48,18.2981818 L7.52941176,21.2266667 L2.56941176,18.3175758 L7.52941176,15.3890909 Z M2.22117647,19.6169697 L6.88,22.3612121 L6.88,27.7333333 L2.22117647,24.9890909 L2.22117647,19.6169697 Z M8.16,22.3612121 L12.8188235,19.6169697 L12.8188235,24.9890909 L8.16,27.7333333 L8.16,22.3612121 Z"/><path id="Shape" fill="#A8C5DD" d="M31.0588235,18.4824242 C31.0588235,18.4824242 31.0588235,18.4824242 31.0588235,18.4824242 C31.0633576,18.443777 31.0633576,18.4047078 31.0588235,18.3660606 L31.0588235,18.3660606 C31.1391196,18.0800374 31.0234131,17.7740581 30.7764706,17.6193939 L24.8376471,14.1284848 L24.7623529,14.1284848 L24.64,14.1284848 L24.3952941,14.1284848 L24.2729412,14.1284848 C24.2729412,14.1284848 24.2258824,14.1284848 24.2070588,14.1284848 L18.2682353,17.6193939 C18.0150329,17.7687658 17.8943542,18.0775994 17.9764706,18.3660606 L17.9764706,18.3660606 C17.9431163,18.3818285 17.9115527,18.4013406 17.8823529,18.4242424 C17.8823529,18.4242424 17.8823529,18.4242424 17.8823529,18.4242424 L17.8823529,25.2121212 C17.8823529,25.2121212 17.8823529,25.2121212 17.8823529,25.2121212 C17.8500408,25.4757296 17.9767776,25.7330438 18.2023529,25.8618182 L24.1411765,29.3624242 L24.1411765,29.3624242 C24.1877417,29.3723553 24.2357877,29.3723553 24.2823529,29.3624242 C24.3360723,29.3874521 24.3932128,29.4038054 24.4517647,29.4109091 L24.4517647,29.4109091 C24.5103166,29.4038054 24.5674571,29.3874521 24.6211765,29.3624242 C24.6709088,29.3723661 24.7220324,29.3723661 24.7717647,29.3624242 L24.7717647,29.3624242 L30.7105882,25.8618182 C30.9345282,25.7322351 31.0579697,25.4740167 31.0211765,25.2121212 C31.0211765,25.2121212 31.0211765,25.2121212 31.0211765,25.2121212 L31.0588235,18.4824242 Z M29.7788235,24.9890909 L25.12,27.7333333 L25.12,22.3612121 L29.7788235,19.6169697 L29.7788235,24.9890909 Z M24.4705882,15.3890909 L29.4305882,18.2981818 L24.4705882,21.2072727 L19.52,18.2981818 L24.4705882,15.3890909 Z M23.8305882,22.3612121 L23.8305882,27.7333333 L19.1717647,24.9890909 L19.1717647,19.6169697 L23.8305882,22.3612121 Z"/><path id="Shape" fill="#2969F6" d="M22.5882353,4.50909091 C22.5979462,4.44483156 22.5979462,4.37941086 22.5882353,4.31515152 C22.6672127,4.0319494 22.5513157,3.72944654 22.3058824,3.57818182 L16.3105882,0.0872727273 C16.3105882,0.0872727273 16.3105882,0.0872727273 16.2447059,0.0872727273 L16.1223529,0.0872727273 L15.8870588,0.0872727273 L15.7458824,0.135757576 L15.6894118,0.135757576 L9.75058824,3.57818182 C9.50515487,3.72944654 9.38925788,4.0319494 9.46823529,4.31515152 C9.4585244,4.37941086 9.4585244,4.44483156 9.46823529,4.50909091 L9.46823529,11.2969697 C9.43281019,11.5560412 9.55640705,11.8107257 9.77882353,11.9369697 L15.7176471,15.4278788 C15.7769982,15.4574408 15.8405383,15.4770805 15.9058824,15.4860606 C15.9361836,15.4991149 15.9677281,15.508865 16,15.5151515 L16,15.5151515 L16.1223529,15.5151515 C16.187697,15.5061714 16.2512371,15.4865318 16.3105882,15.4569697 L22.2494118,11.9660606 C22.4679082,11.8359751 22.5900903,11.5842059 22.56,11.3260606 L22.56,4.53818182 L22.5882353,4.50909091 Z M15.3694118,13.769697 L10.6635294,11.0157576 L10.6635294,5.62424242 L15.3694118,8.37818182 L15.3694118,13.769697 Z M16,7.25333333 L11.0305882,4.34424242 L16,1.43515152 L20.9694118,4.34424242 L16,7.25333333 Z M16.6305882,8.37818182 L21.3364706,5.62424242 L21.3364706,11.0157576 L16.6305882,13.769697 L16.6305882,8.37818182 Z"/></g></g></g></svg>