<svg width="32" height="32" xmlns="http://www.w3.org/2000/svg"><g fill-rule="nonzero" fill="none"><path d="M22.982 5.663h-7.467a.65.65 0 110-1.3h7.467a.65.65 0 010 1.3zM22.982 9.387h-7.467a.66.66 0 010-1.31h7.467a.66.66 0 010 1.31zM22.982 13.081h-7.467a.65.65 0 110-1.3h7.467a.65.65 0 110 1.3zM22.982 16.795h-7.467a.65.65 0 010-1.28h7.467a.65.65 0 010 1.3v-.02z" fill="#2969F6"/><path d="M29.73 9.348V7.195a2.521 2.521 0 00-2.375-2.502V2.55A2.512 2.512 0 0024.844 0H3.51A2.512 2.512 0 00.97 2.55v16.718a2.522 2.522 0 002.375 2.502v2.191a2.502 2.502 0 002.27 2.483v2.114a2.512 2.512 0 002.511 2.472H29.46A2.512 2.512 0 0032 28.558V11.84a2.512 2.512 0 00-2.27-2.492zm-27.442 9.92V2.55c0-.658.534-1.192 1.193-1.192h21.334c.658 0 1.192.534 1.192 1.192v16.718c0 .66-.532 1.197-1.192 1.202H3.48a1.202 1.202 0 01-1.193-1.202zm2.376 4.693V21.78h20.18a2.512 2.512 0 002.511-2.511V6.022a1.193 1.193 0 011.057 1.173v16.766c0 .659-.534 1.193-1.193 1.193H5.82a1.193 1.193 0 01-1.155-1.193zm26.017 4.597c0 .658-.534 1.192-1.193 1.192H8.155a1.193 1.193 0 01-1.193-1.192v-2.085H27.22a2.512 2.512 0 002.512-2.512V10.667c.556.105.961.588.97 1.154l-.02 16.737z" fill="#A8C5DD"/><path d="M13.13 13.78H4.684V4.353h8.446v9.425zm-7.128-1.32h5.819V5.674H6.002v6.788z" fill="#032663"/></g></svg>