<?xml version="1.0" encoding="UTF-8"?>
<svg width="32px" height="32px" viewBox="0 0 32 32" version="1.1" xmlns="http://www.w3.org/2000/svg" xmlns:xlink="http://www.w3.org/1999/xlink">
    <!-- Generator: sketchtool 59 (101010) - https://sketch.com -->
    <title>36B5B772-5543-4223-9310-00C875A9BB5C</title>
    <desc>Created with sketchtool.</desc>
    <g id="Page-1" stroke="none" stroke-width="1" fill="none" fill-rule="evenodd">
        <g id="Icons" transform="translate(-822.000000, -985.000000)" fill-rule="nonzero">
            <g id="micro-icon-whyjoinus" transform="translate(822.000000, 985.000000)">
                <path d="M12.16,14.8200034 C11.018261,14.8219131 10.0374425,14.0095109 9.82673694,12.8873813 C9.61603138,11.7652517 10.2353373,10.6523894 11.3,10.24 C11.8784491,9.994941 12.5315509,9.994941 13.11,10.24 C14.2985107,10.7688981 14.8385523,12.1569391 14.32,13.35 L14.32,13.35 C13.9557394,14.2198677 13.1030463,14.7843821 12.16,14.78 L12.16,14.8200034 Z M12.16,11.41 C12.0333466,11.4096919 11.9077876,11.4334463 11.79,11.48 C11.5360669,11.5827895 11.3317901,11.7798987 11.22,12.03 C11.097231,12.2804572 11.0846464,12.570808 11.1852846,12.8309483 C11.2859228,13.0910886 11.4906371,13.2973748 11.75,13.4 C11.9992816,13.5055802 12.2807184,13.5055802 12.53,13.4 C12.7876038,13.3029373 12.993802,13.1039742 13.1,12.85 L13.1,12.85 C13.222769,12.5995428 13.2353536,12.309192 13.1347154,12.0490517 C13.0340772,11.7889114 12.8293629,11.5826252 12.57,11.48 C12.4397501,11.4281884 12.3000623,11.4043392 12.16,11.41 Z" id="Shape" fill="#2969F6"></path>
                <path d="M8.87,19.5700153 C7.73628142,19.5645698 6.76518739,18.7569784 6.55316447,17.6432488 C6.34114155,16.5295192 6.94757793,15.4216101 8,15 C8.576,14.76 9.224,14.76 9.8,15 C10.3793382,15.2557279 10.832237,15.7326741 11.0576777,16.3244561 C11.2831185,16.9162381 11.2623483,17.5736296 11,18.15 L11,18.15 C10.6304971,19.0141547 9.77983204,19.5733882 8.84,19.5700153 L8.87,19.5700153 Z M8.87,16.16 C8.74644167,16.158088 8.6238391,16.1819274 8.51,16.23 C8.25239618,16.3270627 8.04619801,16.5260258 7.94,16.78 C7.81723102,17.0304572 7.80464639,17.320808 7.90528462,17.5809483 C8.00592285,17.8410886 8.2106371,18.0473748 8.47,18.15 C8.71637774,18.2527779 8.99362226,18.2527779 9.24,18.15 C9.49760382,18.0529373 9.70380199,17.8539742 9.81,17.6 L9.81,17.6 C9.93276898,17.3495428 9.94535361,17.059192 9.84471538,16.7990517 C9.74407715,16.5389114 9.5393629,16.3326252 9.28,16.23 C9.14975007,16.1781884 9.01006229,16.1543392 8.87,16.16 Z" id="Shape" fill="#2969F6"></path>
                <path d="M12.23,25.06 C11.0901426,25.0571058 10.1138027,24.2431938 9.90580818,23.1224701 C9.69781361,22.0017464 10.3170879,20.8917052 11.38,20.48 C11.9550851,20.2354681 12.6049149,20.2354681 13.18,20.48 C14.3685107,21.0088981 14.9085523,22.3969391 14.39,23.59 L14.39,23.59 C14.1474084,24.1725078 13.6780119,24.631072 13.09,24.86 C12.8170176,24.9757798 12.5260579,25.0434449 12.23,25.06 L12.23,25.06 Z M12.23,21.65 C12.1064417,21.648088 11.9838391,21.6719274 11.87,21.72 C11.6123962,21.8170627 11.406198,22.0160258 11.3,22.27 C11.177231,22.5204572 11.1646464,22.810808 11.2652846,23.0709483 C11.3659228,23.3310886 11.5706371,23.5373748 11.83,23.64 C12.0763777,23.7427779 12.3536223,23.7427779 12.6,23.64 C12.8595641,23.5406531 13.0660749,23.3377653 13.17,23.08 L13.17,23.08 C13.2894032,22.8305568 13.3001766,22.5428036 13.1997598,22.2851304 C13.099343,22.0274571 12.8967027,21.8228726 12.64,21.72 C12.5097501,21.6681884 12.3700623,21.6443392 12.23,21.65 Z" id="Shape" fill="#2969F6"></path>
                <path d="M18.17,23.66 C17.8258416,23.6696917 17.4839571,23.6013148 17.17,23.46 C15.9969034,22.9160862 15.4762995,21.5322587 16,20.35 C16.2425916,19.7674922 16.7119881,19.308928 17.3,19.08 C18.1892314,18.7505538 19.189239,18.9828857 19.8421492,19.6706178 C20.4950594,20.3583499 20.6751646,21.3690702 20.3,22.24 L20.3,22.24 C20.0523307,22.8167613 19.5842175,23.270471 19,23.5 C18.7359259,23.6052902 18.4542903,23.6595814 18.17,23.66 L18.17,23.66 Z M18.17,20.25 C18.0436773,20.2530255 17.9186976,20.2766703 17.8,20.32 C17.5423962,20.4170627 17.336198,20.6160258 17.23,20.87 C17.0248901,21.375539 17.2628292,21.9521813 17.7647569,22.1659764 C18.2666845,22.3797714 18.8473433,22.1518091 19.0697599,21.6536418 C19.2921765,21.1554746 19.0742587,20.570972 18.58,20.34 C18.4512398,20.2813311 18.3114949,20.2506554 18.17,20.25 Z" id="Shape" fill="#2969F6"></path>
                <path d="M27.41,12.46 L27.17,11.83 L15.46,16.46 L18.87,8.59 L18.87,8.59 L20.49,4.85 L19.88,4.58 C16.4180049,3.06869375 12.4958725,3.00226854 8.98468662,4.39547707 C5.47350072,5.78868559 2.66394276,8.52618793 1.18,12 C-1.92152448,19.2168513 1.34200836,27.5871675 8.51,30.8 C11.9682445,32.3131024 15.8872788,32.3838274 19.3978662,30.9964883 C22.9084537,29.6091492 25.7203931,26.8784298 27.21,23.41 C28.7292977,19.9316381 28.8012633,15.9915228 27.41,12.46 Z M23.23,14.84 C23.9186298,17.0339533 23.7907701,19.4029108 22.87,21.51 C21.8810779,23.8242349 20.0081262,25.647159 17.6679718,26.5730788 C15.3278174,27.4989987 12.7146384,27.4510846 10.41,26.44 C5.60983934,24.2935192 3.429696,18.6848887 5.52,13.86 C6.51825588,11.5313568 8.40977029,9.70109146 10.77,8.78 C12.8818476,7.94563128 15.2261543,7.91361495 17.36,8.69 L12.93,18.91 L23.23,14.84 Z M25.97,22.84 C24.6181087,26.0018161 22.0526764,28.4879794 18.85,29.74 C15.6899963,30.9826036 12.1638128,30.9069653 9.06,29.53 C2.5557834,26.6302109 -0.404750462,19.037155 2.42,12.5 C4.44081687,7.78703201 9.07206687,4.72836265 14.2,4.71999093 C15.744726,4.71814908 17.2767078,4.99946431 18.72,5.55 L17.89,7.45 C12.5145294,5.48822068 6.54243375,8.06398861 4.28,13.32 C1.9257404,18.8274927 4.41058613,25.2063006 9.87,27.67 C12.5084355,28.8226046 15.4983136,28.8718443 18.1732721,27.806745 C20.8482305,26.7416457 22.9859532,24.6507278 24.11,22 C25.168964,19.5645126 25.3005644,16.8258024 24.48,14.3 L26.39,13.55 C27.4174518,16.5979377 27.2784989,19.9185559 26,22.87 L25.97,22.84 Z" id="Shape" fill="#A8C5DD"></path>
                <path d="M28.27,10.25 L32,8.78 L31.76,8.16 C30.3962022,4.62503662 27.6735067,1.7834933 24.2,0.27 L23.58,0 L22,3.74 L22,3.74 L17.25,14.61 L28.16,10.3 L28.22,10.3 L28.27,10.25 Z M24.27,1.8 C26.9313111,3.11890913 29.0520865,5.32098088 30.27,8.03 L28.35,8.78 C27.3342971,6.58389797 25.608047,4.79423465 23.45,3.7 L24.27,1.8 Z M22.91,4.94 C24.7343598,5.89228795 26.1957981,7.41696154 27.07,9.28 L19.78,12.16 L22.91,4.94 Z" id="Shape" fill="#032663"></path>
            </g>
        </g>
    </g>
</svg>