<svg xmlns="http://www.w3.org/2000/svg" xmlns:xlink="http://www.w3.org/1999/xlink" width="32" height="32" version="1.1" viewBox="0 0 32 32"><title>71ACE414-A817-4805-876F-2F88D3787138</title><desc>Created with sketchtool.</desc><g id="Page-1" fill="none" fill-rule="evenodd" stroke="none" stroke-width="1"><g id="Icons" fill-rule="nonzero" transform="translate(-306.000000, -985.000000)"><g id="micro-icon-architectureprocess" transform="translate(306.000000, 985.000000)"><path id="Path" fill="#A8C5DD" d="M15.689697,28.74 C12.5508803,28.7497114 9.53698354,27.4726642 7.31151515,25.19 C7.17870121,25.0597469 7.1035149,24.8790108 7.1035149,24.69 C7.1035149,24.5009892 7.17870121,24.3202531 7.31151515,24.19 C7.43478562,24.0474801 7.6111741,23.9659821 7.79636364,23.9659821 C7.98155318,23.9659821 8.15794165,24.0474801 8.28121212,24.19 C12.4326015,28.4197887 19.1199594,28.3884824 23.2339394,24.12 C23.3984981,23.9413672 23.6429682,23.8668382 23.8752602,23.9244873 C24.1075522,23.9821364 24.2923754,24.1632054 24.3601087,24.3994873 C24.427842,24.6357692 24.3681951,24.8913672 24.2036364,25.07 C21.9656564,27.4333152 18.8928425,28.7578757 15.689697,28.74 L15.689697,28.74 Z"/><path id="Path" fill="#A8C5DD" d="M26.870303,17.2900952 C26.5061298,17.2900952 26.2109091,16.9855536 26.2109091,16.61 C26.1616956,12.1741255 23.5012051,8.21506215 19.4909091,6.61 C19.3264781,6.54958209 19.1931121,6.4225239 19.1217087,6.25826181 C19.0503053,6.09399971 19.047061,5.90678829 19.1127273,5.74 C19.1735553,5.57219788 19.297013,5.43650537 19.4555296,5.36322558 C19.6140463,5.2899458 19.7944179,5.2851827 19.9563636,5.35 C24.494085,7.15765099 27.4979245,11.6435786 27.529697,16.66 C27.5089705,17.0182192 27.2182363,17.2959932 26.870303,17.2900952 Z"/><path id="Path" fill="#A8C5DD" d="M4.49939394,17.2900759 C4.15045054,17.2687963 3.87818263,16.9704715 3.8787856,16.61 C3.87584907,11.7288557 6.71713727,7.32387908 11.0836364,5.44 C11.2427281,5.3675375 11.4235654,5.36496474 11.5845349,5.43287377 C11.7455045,5.5007828 11.8727425,5.63332485 11.9369697,5.8 C12.007546,5.96549022 12.0102754,6.15336977 11.9445379,6.32096597 C11.8788005,6.48856216 11.7501761,6.62164946 11.5878788,6.69 C7.69702636,8.35199808 5.15975823,12.2669683 5.15878788,16.61 C5.16143012,16.7911688 5.09280725,16.9657171 4.96856951,17.0938373 C4.84433177,17.2219575 4.67507277,17.2927248 4.49939394,17.2900759 Z"/><path id="Path" fill="#032663" d="M15.1757576,28 L17.6969697,25.22 C17.8351708,25.0928773 17.9141992,24.9109767 17.9141992,24.72 C17.9141992,24.5290233 17.8351708,24.3471227 17.6969697,24.22 C17.5706637,24.0830356 17.3954045,24.0054997 17.2121212,24.0054997 C17.028838,24.0054997 16.8535787,24.0830356 16.7272727,24.22 L13.8181818,27.45 C13.7954938,27.4775909 13.7759706,27.5077909 13.76,27.54 L13.6921212,27.66 C13.687716,27.699871 13.687716,27.740129 13.6921212,27.78 C13.6874777,27.823201 13.6874777,27.866799 13.6921212,27.91 C13.688154,27.9532368 13.688154,27.9967632 13.6921212,28.04 C13.6833926,28.0794936 13.6833926,28.1205064 13.6921212,28.16 C13.7055916,28.2027734 13.7252034,28.2432229 13.750303,28.28 C13.7662737,28.3122091 13.7857969,28.3424091 13.8084848,28.37 L16.7175758,31.66 C16.843538,31.8052386 17.023176,31.8887835 17.2121212,31.89 C17.3724823,31.8882708 17.5270707,31.8280458 17.6484848,31.72 C17.7903917,31.598385 17.8763961,31.4210182 17.8856103,31.2309768 C17.8948244,31.0409353 17.8264052,30.8556061 17.6969697,30.72 L15.1757576,28 Z"/><path id="Path" fill="#032663" d="M8.64,13.93 L6.92363636,9.93 C6.92837744,9.90355744 6.92837744,9.87644256 6.92363636,9.85 C6.88332195,9.78932478 6.83789316,9.73243739 6.78787879,9.68 L6.69090909,9.6 L6.59393939,9.53 C6.55203915,9.52536933 6.50977903,9.52536933 6.46787879,9.53 L6.35151515,9.53 L6.21575758,9.53 L6.11878788,9.53 L2.0169697,10.88 C1.67158257,10.998791 1.48492076,11.383781 1.6,11.74 C1.68486713,12.0198225 1.93630095,12.2102394 2.22060606,12.21 C2.28777847,12.2242817 2.35707002,12.2242817 2.42424242,12.21 L5.96363636,11 L7.43757576,14.49 C7.53935633,14.7392861 7.7765043,14.9010105 8.03878788,14.9000047 C8.12919038,14.8992943 8.21842221,14.8788453 8.30060606,14.84 C8.46432343,14.7677663 8.5927511,14.6303183 8.65667524,14.4589217 C8.72059938,14.2875251 8.71458493,14.0967527 8.64,13.93 Z"/><path id="Path" fill="#032663" d="M27.3939394,7.18 C27.0440703,7.09025176 26.6881561,7.30251384 26.5890909,7.66 L25.6193939,11.34 L21.9636364,10.7 C21.6062586,10.6454803 21.2714483,10.8933687 21.2072727,11.26 C21.1763807,11.4365381 21.2154281,11.6184782 21.3156726,11.7650858 C21.4159171,11.9116934 21.568985,12.0107219 21.7406061,12.04 L25.9975758,12.78 L26.1139394,12.78 C26.1842971,12.7950965 26.256915,12.7950965 26.3272727,12.78 L26.3951515,12.78 L26.5115152,12.71 C26.5359307,12.6916578 26.5558539,12.6676876 26.569697,12.64 C26.6062364,12.6144765 26.636192,12.5801524 26.6569697,12.54 C26.6606204,12.5101181 26.6606204,12.4798819 26.6569697,12.45 C26.6601723,12.4200909 26.6601723,12.3899091 26.6569697,12.36 L27.8593939,8 C27.9458664,7.6416785 27.7392472,7.27767361 27.3939394,7.18 Z"/><path id="Shape" fill="#2969F6" d="M4.84848485,26.1900166 C2.55144143,26.1810046 0.57575907,24.5109862 0.116363636,22.19 C0.0506860646,21.8610072 0.0181898469,21.52589 0.0193616703,21.19 C0.0193616703,18.4285763 2.19013455,16.19 4.86787879,16.19 C7.54562303,16.19 9.71636364,18.4285763 9.71636364,21.19 C9.71503899,21.4751471 9.68907774,21.7596054 9.63878788,22.04 C9.23684651,24.4428038 7.21288356,26.1962308 4.84848485,26.1900166 Z M4.84848485,17.58 C2.90286767,17.58 1.32413298,19.2035899 1.31878788,21.21 C1.32171894,21.4581677 1.34442161,21.7056674 1.38666667,21.95 C1.73392902,23.6370453 3.17611754,24.8451812 4.84848485,24.8500255 C6.56014907,24.8565754 8.02685188,23.589086 8.32,21.85 C8.35902201,21.6457948 8.37850942,21.4381322 8.37819516,21.23 C8.38075824,20.2628805 8.01001821,19.3344612 7.34779217,18.6496644 C6.68556613,17.9648677 5.78630122,17.58 4.84848485,17.58 L4.84848485,17.58 Z"/><path id="Shape" fill="#2969F6" d="M26.1818182,26.1900526 C23.8847748,26.1810046 21.9090924,24.5109862 21.449697,22.19 C21.3887351,21.8602837 21.3562844,21.5256362 21.3527273,21.19 C21.3527273,18.4285763 23.5234679,16.19 26.2012121,16.19 C28.8789564,16.19 31.0497642,18.4285763 31.0497642,21.19 C31.0511689,21.4748333 31.0284559,21.7592525 30.9818182,22.04 C30.5792687,24.4465429 28.5498764,26.2011216 26.1818182,26.1900526 Z M26.1818182,17.58 C24.3095282,17.5807833 22.7635805,19.0890043 22.6590577,21.0167925 C22.5545349,22.9445806 23.9278077,24.6211258 25.7883428,24.8371462 C27.6488779,25.0531667 29.3492672,23.7334939 29.6630303,21.83 C29.6939946,21.624849 29.7102004,21.4176168 29.7115152,21.21 C29.70617,19.2035899 28.1274354,17.58 26.1818182,17.58 L26.1818182,17.58 Z"/><path id="Shape" fill="#2969F6" d="M15.689697,10.000045 C13.3926536,9.99100463 11.4169712,8.32098624 10.9575758,6.00000011 C10.8917603,5.67102892 10.8592626,5.33589685 10.8605661,5.00000011 C10.8605661,2.23857629 13.0313467,1.05367125e-07 15.7090909,1.05367125e-07 C18.3868351,1.05367125e-07 20.5575758,2.23857629 20.5575758,5.00000011 C20.554073,5.28129478 20.5313908,5.56198726 20.489697,5.84 C20.0913611,8.2505201 18.0608479,10.0102982 15.689697,10.000045 Z M15.689697,1.39 C13.7516036,1.38993212 12.1759733,3.00140908 12.16,5 C12.1633728,5.24483009 12.1860741,5.48897032 12.2278788,5.73 C12.5751411,7.41704529 14.0173297,8.62518116 15.689697,8.63002547 C17.4013612,8.63657536 18.868064,7.36908602 19.1612121,5.63 C19.180795,5.42382668 19.180795,5.21617332 19.1612121,5.01 C19.1774492,3.01121854 17.6277151,1.37287797 15.689697,1.34 L15.689697,1.39 Z"/></g></g></g></svg>