<svg xmlns="http://www.w3.org/2000/svg" xmlns:xlink="http://www.w3.org/1999/xlink" width="32" height="32" version="1.1" viewBox="0 0 32 32"><title>C9EC3FE7-7741-4267-813A-F71F6B203E34</title><desc>Created with sketchtool.</desc><g id="Page-1" fill="none" fill-rule="evenodd" stroke="none" stroke-width="1"><g id="Icons" fill-rule="nonzero" transform="translate(-650.000000, -1329.000000)"><g id="micro-icon-socialmedia" transform="translate(650.000000, 1329.000000)"><path id="Path" fill="#A8C5DD" d="M8.72727273,14.7200691 C8.41898574,14.7245071 8.14882549,14.5081074 8.07678452,14.1989558 C8.00474356,13.8898042 8.15005633,13.5704421 8.42666667,13.43 L22.0606061,6.43 C22.3872909,6.26155317 22.7845364,6.39810632 22.9478788,6.73500001 C23.1112212,7.0718937 22.978806,7.48155314 22.6521212,7.65 L9.01818182,14.65 C8.92792411,14.6966712 8.82823922,14.7206578 8.72727273,14.7200691 L8.72727273,14.7200691 Z"/><path id="Shape" fill="#2969F6" d="M26.1818182,10.1 C23.867232,10.1010723 21.8666918,8.43395541 21.3818182,6.1 C21.3214022,5.77020227 21.2889564,5.43560449 21.2848485,5.1 C21.2848485,2.31096207 23.4772966,0.0500001505 26.1818182,0.0500001505 C28.8863398,0.0500001505 31.0787878,2.31096207 31.0787879,5.1 C31.0806778,5.3881654 31.0579638,5.67594296 31.0109091,5.96 C30.6023651,8.3738357 28.5577525,10.1266907 26.1818182,10.1 Z M26.1818182,1.35 C24.2733871,1.35115267 22.6979155,2.88888183 22.5919042,4.85391296 C22.485893,6.81894408 23.8862362,8.52740582 25.7827656,8.74686196 C27.6792951,8.96631809 29.4119795,7.62039337 29.7309091,5.68 C29.7622815,5.47154057 29.7784883,5.26095299 29.7793939,5.05 C29.7740486,3.00492991 28.1649237,1.35 26.1818182,1.35 L26.1818182,1.35 Z"/><path id="Path" fill="#A8C5DD" d="M22.3030303,25.67 C22.1993605,25.6671058 22.0972409,25.643326 22.0024242,25.6 L8.36848485,18.6 C8.21146673,18.5206516 8.09209211,18.3793831 8.03734517,18.2081278 C7.98259822,18.0368726 7.9971012,17.8500894 8.07757576,17.69 C8.24184474,17.3569789 8.63588881,17.2230147 8.96,17.39 L22.5939394,24.39 C22.8688442,24.529656 23.0142165,24.8462158 22.9448012,25.1540294 C22.8753859,25.4618429 22.6094814,25.679768 22.3030303,25.68 L22.3030303,25.67 Z"/><path id="Shape" fill="#2969F6" d="M26.1818182,32 C23.8503778,32.0209394 21.8253033,30.3502529 21.3333333,28 C21.2723715,27.6702837 21.2399208,27.3356362 21.2363636,27 C21.2363636,24.210962 23.4288116,21.95 26.1333333,21.95 C28.837855,21.95 31.0303702,24.210962 31.0303702,27 C31.0317749,27.2848333 31.009062,27.5692525 30.9624242,27.85 C30.5610992,30.2490741 28.5425554,32.0013534 26.1818182,32 Z M26.1818182,23.24 C25.2116452,23.2291829 24.2781485,23.6218501 23.5920925,24.3293454 C22.9060365,25.0368406 22.5252683,25.9995091 22.5357576,27 C22.5370968,27.2487483 22.5630905,27.4967038 22.6133333,27.74 C22.9601707,29.4869488 24.4631173,30.7323212 26.1920733,30.7054175 C27.9210293,30.6785137 29.3868555,29.3869451 29.6824242,27.63 C29.7130113,27.4214465 29.7292136,27.2109181 29.7309091,27 C29.7438551,26.0160206 29.3771867,25.0670482 28.7115845,24.3618918 C28.0459823,23.6567354 27.1359823,23.2531718 26.1818182,23.24 L26.1818182,23.24 Z"/><path id="Shape" fill="#032663" d="M4.90666667,21.060002 C2.19678949,21.060002 0,18.7945608 0,16 C0,13.2054392 2.19678949,10.9399097 4.90666667,10.9399097 C6.76768969,10.9284973 8.47086556,12.0165328 9.28969697,13.74 C9.75454266,14.705491 9.89769151,15.8021135 9.6969697,16.86 C9.31618233,19.282681 7.28659259,21.062167 4.90666667,21.060002 Z M4.90666667,12.2999609 C2.92513593,12.2999609 1.31872246,13.9565464 1.31872246,16 C1.31733541,16.2516985 1.34007276,16.502926 1.38666667,16.75 C1.73539902,18.4683338 3.20430172,19.6993744 4.90666667,19.7000164 C6.65321636,19.7053381 8.14686044,18.4062216 8.43636364,16.63 C8.47493439,16.4223554 8.49441471,16.21142 8.49458815,16 C8.49729037,15.4268383 8.36765471,14.8612404 8.11636364,14.35 C7.51508521,13.0895017 6.26884036,12.2935381 4.90666667,12.2999609 Z"/></g></g></g></svg>