<svg xmlns="http://www.w3.org/2000/svg" xmlns:xlink="http://www.w3.org/1999/xlink" width="32" height="32" version="1.1" viewBox="0 0 32 32"><title>31C7BE72-2E12-447D-8E3B-04A061463A66</title><desc>Created with sketchtool.</desc><g id="Page-1" fill="none" fill-rule="evenodd" stroke="none" stroke-width="1"><g id="Icons" fill-rule="nonzero" transform="translate(-650.000000, -1673.000000)"><g id="micro-icon-support" transform="translate(650.000000, 1673.000000)"><path id="Shape" fill="#A8C5DD" d="M23.7929412,6.07 C20.8470588,3 16.5647059,3.09 16,3.12 C13.1969598,2.95210845 10.4434972,3.95720675 8.32941176,5.92 C6.44705882,7.84 5.50588235,10.63 5.58117647,14.18 C5.56232862,14.2722591 5.56232862,14.3677409 5.58117647,14.46 C5.58117647,14.61 5.58117647,14.76 5.58117647,14.91 C6.18352941,27.45 12.1505882,32 16,32 C22.7952941,32 25.5623529,23.09 26.2682353,16.82 C26.2682353,16.82 26.2682353,16.76 26.2682353,16.72 C26.3247059,16.22 26.3623529,15.72 26.3905882,15.26 C26.6823529,11.27 25.7882353,8.18 23.7929412,6.07 Z M9.24235294,6.9 C10.9993837,5.2876718 13.2552861,4.42222485 15.5764706,4.47 L16.0658824,4.47 C16.0658824,4.47 20.2258824,4.2 22.8894118,7 C24.6211765,8.83 25.3835294,11.56 25.1576471,15.14 C25.1576471,15.47 25.1011765,15.77 25.0729412,16.14 C20.7152941,17.07 15.2376471,15.14 12.1694118,12.67 C11.2430509,11.8487187 10.0315232,11.4850893 8.83764706,11.67 C8.14993352,11.8121607 7.50439269,12.1276688 6.95529412,12.59 C7.04513474,10.4619272 7.8576298,8.44051135 9.24235294,6.9 Z M16,30.65 C12.6117647,30.65 7.38823529,26.44 6.87058824,14.84 C6.87058824,14.73 6.87058824,14.63 6.87058824,14.52 C7.41282394,13.762257 8.1837463,13.225602 9.05411765,13 C9.90097312,12.8906422 10.7526681,13.1585003 11.4070588,13.74 C14.7096275,16.245339 18.6443418,17.6388837 22.7011765,17.74 C23.448885,17.7354967 24.1949604,17.665257 24.9317647,17.53 C23.68,27.8 18.8235294,30.65 16,30.65 Z"/><path id="Shape" fill="#2969F6" d="M30.1835294,13.67 C29.8064537,13.2087662 29.3369168,12.8431465 28.8094118,12.6 C28.7950506,9.29829208 27.6279316,6.11973746 25.5341176,3.68 C23.3035294,1.23 20.1129412,0 16,0 C11.8870588,0 8.87529412,1.23 6.58823529,3.66 C4.45552054,6.12349409 3.22062072,9.31504261 3.10588235,12.66 C2.61388615,12.8963487 2.1744751,13.2405407 1.81647059,13.67 C0.980669824,14.8003557 0.707494521,16.2888109 1.08235294,17.67 L1.60941176,20.34 C1.72101981,21.2723908 2.17419396,22.1204013 2.87058824,22.7 C3.74996293,23.3931124 4.8259352,23.7459583 5.92,23.7 C6.52349698,23.6880918 7.12491906,23.6211796 7.71764706,23.5 L8.47058824,23.37 L7.94352941,21.8 C7.16523761,18.8325297 6.80057644,15.7598629 6.86117647,12.68 L6.86117647,12 L6.23058824,12 C5.61725752,11.9781522 5.00378349,12.03863 4.40470588,12.18 C4.61556783,9.35219509 5.71624498,6.68214128 7.52941176,4.6 C9.52470588,2.44 12.3952941,1.34 16,1.34 C19.6047059,1.34 22.5882353,2.44 24.5835294,4.6 C26.3523683,6.67990019 27.3840308,9.34953498 27.5011765,12.15 C26.9187999,12.0275948 26.3250409,11.9772595 25.7317647,12 L25.0823529,12 L25.1388235,12.68 C25.2795389,15.7438183 24.9618647,18.8119563 24.1976471,21.77 L23.7176471,23.36 L24.4235294,23.49 C25.012753,23.6122582 25.6114234,23.675867 26.2117647,23.68 C27.3004614,23.7295321 28.3715951,23.3760913 29.2423529,22.68 C29.9186433,22.0933687 30.3457168,21.2434585 30.4282353,20.32 L30.9552941,17.66 C31.3164793,16.2755064 31.0293272,14.7909388 30.1835294,13.67 Z M5.59058824,13.33 C5.59080164,16.3251838 5.97713729,19.3062225 6.73882353,22.19 L6.73882353,22.29 C5.67121618,22.5129547 4.56377069,22.2947896 3.64235294,21.68 C3.1971591,21.3287564 2.90239491,20.8031783 2.82352941,20.22 L2.27764706,17.42 C1.99116273,16.4413596 2.15880744,15.3763355 2.72941176,14.55 C3.03693339,14.1824398 3.42478566,13.9008429 3.85882353,13.73 C3.92210854,13.713776 3.98249969,13.6867589 4.03764706,13.65 C4.5398872,13.4716006 5.06199347,13.3640151 5.59058824,13.33 Z M29.6847059,17.42 L29.1764706,20.12 L29.1764706,20.24 C29.12281,20.8021959 28.8581709,21.3176908 28.4423529,21.67 C27.5365035,22.2982891 26.4337974,22.5211135 25.3741176,22.29 L25.3741176,22.17 C26.1299649,19.2938515 26.4851093,16.3155533 26.4282353,13.33 C27.4804108,13.3444494 28.4887246,13.780125 29.2517647,14.55 C29.8159371,15.379734 29.976556,16.4444887 29.6847059,17.42 Z"/><path id="Shape" fill="#032663" d="M24.7247059,22 C24.3820583,21.9040299 24.0302589,22.1176224 23.9341176,22.48 C23.2094118,25.34 21.8447059,26.03 19.4729412,26.23 C19.1554757,25.1089939 18.1125654,24.4046855 17.0225179,24.5751562 C15.9324704,24.7456269 15.1247892,25.739346 15.1247892,26.91 C15.1247892,28.080654 15.9324704,29.0743731 17.0225179,29.2448438 C18.1125654,29.4153145 19.1554757,28.7110061 19.4729412,27.59 C22.2964706,27.37 24.2447059,26.46 25.12,22.83 C25.2199175,22.4853897 25.0452155,22.1185675 24.7247059,22 Z M17.3647059,27.93 C16.8449085,27.93 16.4235294,27.4822847 16.4235294,26.93 C16.4235294,26.3777153 16.8449085,25.93 17.3647059,25.93 C17.8845033,25.93 18.3058824,26.3777153 18.3058824,26.93 C18.3083949,27.1969449 18.2103458,27.4538754 18.0335679,27.6435801 C17.85679,27.8332849 17.6159607,27.94 17.3647059,27.94 L17.3647059,27.93 Z"/></g></g></g></svg>