<svg xmlns="http://www.w3.org/2000/svg" xmlns:xlink="http://www.w3.org/1999/xlink" width="32" height="32" version="1.1" viewBox="0 0 32 32"><title>50F082FB-A8F1-4B25-A573-10BE1E735EDA</title><desc>Created with sketchtool.</desc><g id="Page-1" fill="none" fill-rule="evenodd" stroke="none" stroke-width="1"><g id="Icons" fill-rule="nonzero" transform="translate(-650.000000, -813.000000)"><g id="micro-icon-team" transform="translate(650.000000, 813.000000)"><path id="Shape" fill="#032663" d="M15.5151515,11.1903407 C12.6805027,11.2010452 10.3723886,8.91462386 10.3563636,6.08 C10.3563636,3.23088013 12.6660316,0.921212121 15.5151515,0.921212121 C18.3642714,0.921212121 20.6739394,3.23088013 20.6739394,6.08 C20.6579145,8.91462386 18.3498003,11.2010452 15.5151515,11.1903407 L15.5151515,11.1903407 Z M15.5151515,2.28848485 C14.496845,2.27294721 13.5144791,2.66461261 12.7861973,3.37650808 C12.0579154,4.08840356 11.6439996,5.06160359 11.6363636,6.08 C11.9087375,7.99149893 13.5455566,9.41161751 15.4763636,9.41161751 C17.4071706,9.41161751 19.0439898,7.99149893 19.3163636,6.08 C19.3004673,3.98884587 17.6063394,2.29903973 15.5151515,2.28848485 L15.5151515,2.28848485 Z"/><path id="Shape" fill="#2969F6" d="M5.81818182,14.5454545 C3.67598642,14.5454545 1.93939394,12.8088621 1.93939394,10.6666667 C1.93939394,8.52447127 3.67598642,6.78787879 5.81818182,6.78787879 C7.96037721,6.78787879 9.6969697,8.52447127 9.6969697,10.6666667 C9.6969697,11.6953852 9.28831286,12.68197 8.56089903,13.4093839 C7.8334852,14.1367977 6.84690032,14.5454545 5.81818182,14.5454545 Z M5.81818182,8.07757576 C4.75965947,8.06973453 3.80135692,8.70237922 3.39264741,9.67884612 C2.98393791,10.655313 3.20587325,11.7819575 3.95438212,12.5304664 C4.70289099,13.2789752 5.82953547,13.5009106 6.80600237,13.0922011 C7.78246926,12.6834916 8.41511396,11.725189 8.40727273,10.6666667 C8.3967129,9.24114818 7.24370031,8.08813559 5.81818182,8.07757576 L5.81818182,8.07757576 Z"/><path id="Shape" fill="#2969F6" d="M25.2121212,14.5454545 C23.0699258,14.5454545 21.3333333,12.8088621 21.3333333,10.6666667 C21.3333333,8.52447127 23.0699258,6.78787879 25.2121212,6.78787879 C27.3543166,6.78787879 29.0909091,8.52447127 29.0909091,10.6666667 C29.0909091,11.6953852 28.6822523,12.68197 27.9548384,13.4093839 C27.2274246,14.1367977 26.2408397,14.5454545 25.2121212,14.5454545 Z M25.2121212,8.03878788 C23.7740282,8.03878788 22.6072539,9.2027674 22.6037083,10.6408561 C22.6001788,12.0789448 23.7612125,13.2486108 25.199288,13.2557583 C26.6373634,13.2628405 27.8099139,12.10472 27.8206061,10.6666667 C27.8099511,9.23361982 26.6452077,8.07753615 25.2121212,8.07757576 L25.2121212,8.03878788 Z"/><path id="Path" fill="#A8C5DD" d="M12.0630303,18.8606061 C11.6988571,18.8606061 11.4036364,19.1558268 11.4036364,19.52 L11.4036364,31.3406061 C11.4036364,31.7047793 11.6988571,32 12.0630303,32 C12.4272035,32 12.7224242,31.7047793 12.7224242,31.3406061 L12.7224242,19.52 C12.7172149,19.1580065 12.4250238,18.8658154 12.0630303,18.8606061 Z"/><path id="Path" fill="#A8C5DD" d="M18.9672727,18.8606061 C18.6052792,18.8658154 18.3130881,19.1580065 18.3078788,19.52 L18.3078788,31.3406061 C18.3078788,31.7047793 18.6030995,32 18.9672727,32 C19.3314459,32 19.6266667,31.7047793 19.6266667,31.3406061 L19.6266667,19.52 C19.6266667,19.1558268 19.3314459,18.8606061 18.9672727,18.8606061 Z"/><path id="Path" fill="#A8C5DD" d="M3.44242424,20.5575022 C3.07825103,20.5575022 2.7830303,20.8527965 2.7830303,21.2169697 L2.7830303,28.3442424 C2.7830303,28.7084156 3.07825103,29.0036364 3.44242424,29.0036364 C3.80659746,29.0036364 4.10181818,28.7084156 4.10181818,28.3442424 L4.10181818,21.2169697 C4.10446042,21.0412909 4.03583756,20.8720319 3.91159982,20.7477941 C3.78736207,20.6235564 3.61810307,20.5549335 3.44242424,20.5575022 L3.44242424,20.5575022 Z"/><path id="Path" fill="#A8C5DD" d="M25.2121212,15.8642424 C24.2534253,15.8641709 23.3099766,16.1042002 22.4678788,16.5624242 C21.1185214,13.9633946 18.4338877,12.332309 15.5054545,12.332309 C12.5770214,12.332309 9.89238773,13.9633946 8.5430303,16.5624242 C8.1325707,16.3361796 7.69627743,16.16036 7.24363636,16.0387879 C6.77801563,15.919296 6.29887705,15.860626 5.81818182,15.8642424 C2.63121147,15.8640255 0.0371813135,18.427792 0,21.6145455 L0,28.3442424 C0,28.7084156 0.295220723,29.0036364 0.659393939,29.0036364 C1.02356716,29.0036364 1.31878788,28.7084156 1.31878788,28.3442424 L1.31878788,21.6145455 C1.32646951,20.4298182 1.80514938,19.2968162 2.64923851,18.4654612 C3.49332764,17.6341062 4.63347469,17.1727032 5.81818182,17.1830303 C6.19714836,17.184167 6.57467488,17.2297305 6.9430303,17.3187879 C7.33206726,17.4242806 7.70423525,17.5842475 8.04848485,17.7939394 C7.8183168,18.5350142 7.70064327,19.3064296 7.69939394,20.0824242 L7.69939394,31.3406061 C7.69939395,31.7047793 7.99461467,32 8.35878788,32 C8.72296108,32 9.0181818,31.7047793 9.01818182,31.3406061 L9.01818182,20.0824242 C9.01818187,16.4888915 11.9313158,13.5757577 15.5248485,13.5757577 C19.1183812,13.5757577 22.0315151,16.4888915 22.0315152,20.0824242 L22.0315152,31.3406061 C22.0315152,31.7047793 22.3267359,32 22.6909091,32 C23.0550823,32 23.350303,31.7047793 23.350303,31.3406061 L23.350303,20.0824242 C23.3485683,19.3032895 23.2309165,18.5287488 23.0012121,17.7842424 C24.3796924,16.9882478 26.077026,16.9834858 27.459951,17.7717331 C28.842876,18.5599803 29.7036832,20.0228457 29.7212121,21.6145455 L29.7212121,28.3442424 C29.7212121,28.7084156 30.0164328,29.0036364 30.3806061,29.0036364 C30.7447793,29.0036364 31.04,28.7084156 31.04,28.3442424 L31.04,21.6145455 C31.0027794,18.4240103 28.4028686,15.8587074 25.2121212,15.8642424 Z"/><path id="Path" fill="#A8C5DD" d="M27.5878788,20.5575022 C27.4122,20.5549335 27.242941,20.6235564 27.1187032,20.7477941 C26.9944655,20.8720319 26.9258426,21.0412909 26.9284848,21.2169697 L26.9284848,28.3442424 C26.9284848,28.7084156 27.2237056,29.0036364 27.5878788,29.0036364 C27.952052,29.0036364 28.2472727,28.7084156 28.2472727,28.3442424 L28.2472727,21.2169697 C28.2472727,20.8527965 27.952052,20.5575022 27.5878788,20.5575022 Z"/></g></g></g></svg>