<svg xmlns="http://www.w3.org/2000/svg" xmlns:xlink="http://www.w3.org/1999/xlink" width="32" height="32" version="1.1" viewBox="0 0 32 32"><title>FC1D449C-575C-458B-854B-30C1A9E5E191</title><desc>Created with sketchtool.</desc><g id="Page-1" fill="none" fill-rule="evenodd" stroke="none" stroke-width="1"><g id="Icons" fill-rule="nonzero" transform="translate(-478.000000, -1673.000000)"><g id="micro-icon-tick" transform="translate(478.000000, 1673.000000)"><path id="Shape" fill="#A6C4DD" d="M16,32 C7.163444,32 0,24.836556 0,16 C0,7.163444 7.163444,0 16,0 C24.836556,0 32,7.163444 32,16 C32,20.2434638 30.3142906,24.3131264 27.3137085,27.3137085 C24.3131264,30.3142906 20.2434638,32 16,32 Z M16,1.36 C7.91585531,1.36552196 1.36632084,7.92251638 1.36999997,16.0066621 C1.37368219,24.0908079 7.92918469,30.6418356 16.0133311,30.6399966 C24.0974774,30.6381568 30.65,24.0841466 30.65,16 C30.6389722,7.91521969 24.084786,1.36550734 16,1.36 Z"/><path id="Shape" fill="#2364F9" d="M12.39,24.39 C11.8391535,24.3854589 11.3145696,24.1539184 10.94,23.75 L6.11,18.92 C5.6753803,18.4893687 5.41840382,17.9111717 5.39,17.3 C5.3921799,16.6829206 5.65342241,16.0951249 6.11,15.68 C6.5472549,15.2265723 7.15008849,14.9704347 7.78,14.9704347 C8.40991151,14.9704347 9.0127451,15.2265723 9.45,15.68 L12.63,18.68 L21.81,9.5 C22.2106472,9.02921937 22.7756592,8.72883324 23.39,8.66 C24.0284325,8.64231679 24.6425068,8.90549147 25.07,9.38 C25.5569811,9.81366287 25.8308155,10.4380053 25.82,11.09 C25.7639958,11.7008722 25.4693482,12.2650144 25,12.66 L13.92,23.75 C13.5089739,24.148669 12.9624661,24.3772736 12.39,24.39 Z M7.76,16.3 C7.49183417,16.3115963 7.2395884,16.4305122 7.06,16.63 C6.8661291,16.7927312 6.74696233,17.0274536 6.73,17.28 C6.7543547,17.5369796 6.86751094,17.7774366 7.05,17.96 L11.89,22.8 C12.0248981,22.9615618 12.224525,23.0549451 12.435,23.0549451 C12.645475,23.0549451 12.8451019,22.9615618 12.98,22.8 L24.13,11.67 C24.3230887,11.5083457 24.4480787,11.2797927 24.48,11.03 C24.4632759,10.7588073 24.3369196,10.5060949 24.13,10.33 C23.9664699,10.1317363 23.726729,10.0118659 23.47,10 C23.214282,10.0496991 22.98419,10.1877542 22.82,10.39 L12.66,20.56 L8.53,16.64 C8.31989639,16.4417515 8.04805271,16.3217167 7.76,16.3 Z"/><path id="Path" fill="#002465" d="M15.92,29.15 C15.6592286,29.1817988 15.403466,29.0605448 15.2630224,28.8385348 C15.1225787,28.6165248 15.1225787,28.3334752 15.2630224,28.1114652 C15.403466,27.8894552 15.6592286,27.7682012 15.92,27.8 C25.52,27.8 28.07,18.35 28.09,18.26 C28.1838884,17.8954921 28.5554921,17.6761116 28.92,17.77 C29.2845079,17.8638884 29.5038884,18.2354921 29.41,18.6 C29.38,18.7 26.56,29.15 15.92,29.15 Z"/></g></g></g></svg>