<?xml version="1.0" encoding="UTF-8"?>
<svg width="32px" height="32px" viewBox="0 0 32 32" version="1.1" xmlns="http://www.w3.org/2000/svg" xmlns:xlink="http://www.w3.org/1999/xlink">
    <!-- Generator: sketchtool 59 (101010) - https://sketch.com -->
    <title>996427C8-4C91-4CF2-97BE-D9ACD4E4759C</title>
    <desc>Created with sketchtool.</desc>
    <g id="Page-1" stroke="none" stroke-width="1" fill="none" fill-rule="evenodd">
        <g id="Icons" transform="translate(-822.000000, -1329.000000)" fill-rule="nonzero">
            <g id="micro-icon-contentcreation" transform="translate(822.000000, 1329.000000)">
                <path d="M13.32,23.66 L6.42,23.66 C6.04996922,23.66 5.75,23.3600308 5.75,22.99 C5.75,22.6199692 6.04996922,22.32 6.42,22.32 L13.32,22.32 L13.32,23.66 Z" id="Path" fill="#A8C5DD"></path>
                <path d="M12.72,27.49 L6.42,27.49 C6.04996922,27.49 5.75,27.1900308 5.75,26.82 C5.75,26.4499692 6.04996922,26.15 6.42,26.15 L12.69,26.15 L12.72,27.49 Z" id="Path" fill="#A8C5DD"></path>
                <path d="M15.9,16 L6.42,16 C6.04996922,16 5.75,15.7000308 5.75,15.33 C5.75,14.9599692 6.04996922,14.66 6.42,14.66 L16.9,14.66 L15.9,16 Z" id="Path" fill="#A8C5DD"></path>
                <path d="M13.64,19.83 L6.42,19.83 C6.04996922,19.83 5.75,19.5300308 5.75,19.16 C5.75,18.7899692 6.04996922,18.49 6.42,18.49 L14.64,18.49 L13.64,19.83 Z" id="Path" fill="#A8C5DD"></path>
                <path d="M17,11.52 L6.42,11.52 C6.04444638,11.52 5.74000003,11.2155536 5.74000003,10.84 C5.74000003,10.4644464 6.04444638,10.16 6.42,10.16 L17,10.16 C17.3755536,10.16 17.68,10.4644464 17.68,10.84 C17.68,11.2155536 17.3755536,11.52 17,11.52 L17,11.52 Z" id="Path" fill="#032663"></path>
                <path d="M27.45,32 L2.59,32 C1.16185953,31.9945176 0.00548236557,30.8381405 0,29.41 L0,6.41 C0.00550780437,4.98348929 1.16347866,3.83 2.59,3.83 L23.08,3.83 C23.4555536,3.83 23.76,4.13444637 23.76,4.51 C23.76,4.88555363 23.4555536,5.19 23.08,5.19 L2.59,5.19 C1.91068976,5.19 1.36,5.74068976 1.36,6.42 L1.36,29.42 C1.36,29.7462163 1.48958891,30.0590716 1.72025866,30.2897413 C1.9509284,30.5204111 2.26378372,30.65 2.59,30.65 L27.45,30.65 C28.1309468,30.6500221 28.6845085,30.1009246 28.69,29.42 L28.69,7.42 C28.6582012,7.15922862 28.7794552,6.90346602 29.0014652,6.76302236 C29.2234752,6.6225787 29.5065248,6.6225787 29.7285348,6.76302236 C29.9505448,6.90346602 30.0717988,7.15922862 30.04,7.42 L30.04,29.42 C30.0290544,30.8442337 28.8742654,31.9945641 27.45,32 Z" id="Path" fill="#A8C5DD"></path>
                <path d="M31.93,4 C31.6421763,2.6441906 30.8107955,1.46579864 29.63,0.74 C29.63,0.74 29.63,0.74 29.63,0.74 L29.63,0.74 C28.3909678,0.0424101033 26.9374055,-0.171349058 25.55,0.14 L25.28,0.2 L12.53,20.43 L12.72,27.49 L19.14,24.11 L32,4.29 L31.93,4 Z M26.11,1.4 C26.8357733,1.28019586 27.5796469,1.33504368 28.28,1.56 L16.72,19.56 L14.52,19.8 L26.11,1.4 Z M13.89,21.21 L16.7,20.9 L17.8,23.3 L14,25.3 L13.89,21.21 Z M18.77,22.21 L17.87,20.21 L29.44,2.21 C29.9678244,2.70508665 30.351449,3.3340928 30.55,4.03 L18.77,22.21 Z" id="Shape" fill="#2969F6"></path>
            </g>
        </g>
    </g>
</svg>