<svg xmlns="http://www.w3.org/2000/svg" width="32" height="32" viewBox="0 0 32 32"><title>master-icons-outlined</title><path d="M.69,32a.68.68,0,0,1,0-1.36c5.75,0,8.47-5.92,8.49-6a.68.68,0,0,1,1.24.56C10.3,25.48,7.31,32,.69,32Z" fill="#032663"/><path d="M24.85,14.91h0a.68.68,0,0,1-.67-.68,6.38,6.38,0,0,0-1.78-5,6.6,6.6,0,0,0-4.59-1.44.67.67,0,0,1-.14-1.33,7.81,7.81,0,0,1,5.62,1.77,7.61,7.61,0,0,1,2.23,6A.67.67,0,0,1,24.85,14.91Z" fill="#2969f6"/><path d="M28.1,13.43h0a.67.67,0,0,1-.67-.67c0-2.81-.75-4.93-2.27-6.31a8.42,8.42,0,0,0-5.83-1.83A.66.66,0,0,1,18.6,4a.67.67,0,0,1,.6-.73,9.6,9.6,0,0,1,6.85,2.16c1.82,1.65,2.74,4.11,2.72,7.31A.67.67,0,0,1,28.1,13.43Z" fill="#2969f6"/><path d="M31.33,12.28h0a.67.67,0,0,1-.67-.67c0-3.53-.95-6.2-2.88-7.95-3-2.7-7.29-2.29-7.33-2.29a.68.68,0,0,1-.74-.6.67.67,0,0,1,.6-.74,11.76,11.76,0,0,1,8.37,2.64c2.22,2,3.34,5,3.32,9A.67.67,0,0,1,31.33,12.28Z" fill="#2969f6"/><path d="M23.15,32C20.23,32,15,30.86,8.58,24.46l-1-1C-2.2,13.72.24,6.73.35,6.44L.4,6.3,4.53,2.19a2.09,2.09,0,0,1,3,0l5.36,5.34a2.08,2.08,0,0,1,0,3L10,13.35c0,.34.31,1.65,3.19,4.52l1,1c2.88,2.87,4.2,3.15,4.54,3.17l2.87-2.85a2.1,2.1,0,0,1,3,0l5.36,5.34a2.1,2.1,0,0,1,0,3L25.79,31.6l-.14,0A7.55,7.55,0,0,1,23.15,32ZM1.58,7c-.25.93-1.46,7.08,7,15.45l1,1c8.4,8.38,14.56,7.18,15.52,6.93L29,26.53a.75.75,0,0,0,0-1L23.6,20.15a.74.74,0,0,0-1.05,0l-3.17,3.12c-.53.29-2.17.53-6.16-3.44l-1-1c-4-4-3.75-5.62-3.46-6.14l.12-.15,3-3a.75.75,0,0,0,0-1L6.54,3.15a.74.74,0,0,0-1,0ZM10,13.25Z" fill="#a8c5dd"/></svg>