<svg xmlns="http://www.w3.org/2000/svg" width="32" height="32" viewBox="0 0 32 32"><title>master-icons-outlined</title><rect width="30.68" height="1.36" x=".64" y="15.32" fill="#032663"/><path fill="#2969f6" d="M4.51,7.09H15a.67.67,0,0,0,0-1.34H4.51a.67.67,0,0,0,0,1.34Z"/><path fill="#2969f6" d="M4.51,10.92h5.74a.67.67,0,0,0,0-1.34H4.51a.67.67,0,0,0,0,1.34Z"/><path fill="#2969f6" d="M15,21.07H4.51a.67.67,0,0,0-.67.67.68.68,0,0,0,.67.68H15a.68.68,0,0,0,.67-.68A.67.67,0,0,0,15,21.07Z"/><path fill="#2969f6" d="M10.25,24.9H4.51a.68.68,0,0,0-.67.68.67.67,0,0,0,.67.67h5.74a.67.67,0,0,0,.67-.67A.68.68,0,0,0,10.25,24.9Z"/><path fill="#a8c5dd" d="M29.41,32H2.59A2.59,2.59,0,0,1,0,29.41V2.59A2.59,2.59,0,0,1,2.59,0H29.41A2.59,2.59,0,0,1,32,2.59V29.41A2.59,2.59,0,0,1,29.41,32ZM2.59,1.36A1.23,1.23,0,0,0,1.36,2.59V29.41a1.23,1.23,0,0,0,1.23,1.23H29.41a1.23,1.23,0,0,0,1.23-1.23V2.59a1.23,1.23,0,0,0-1.23-1.23Z"/></svg>